<svg width="800" height="100" viewBox="0 0 800 100" fill="none" xmlns="http://www.w3.org/2000/svg">
<path d="M87.2882 71.8621C87.2882 51.5862 60.6056 43.8621 43.1748 37.7931C28.0234 32.5517 25.744 30.8966 25.744 26.4828C25.744 21.5172 31.7777 19.3103 41.4317 19.3103C53.0969 19.3103 61.9464 22.6207 61.9464 34.4828L83.3997 34.4828C83.3997 15.1724 70.3937 0 41.4317 0C17.0286 0 4.29066 9.10344 4.29066 25.6552C4.29066 44.6897 20.5147 50.2069 40.4931 57.1035C54.3037 61.931 65.8348 65.1034 65.8348 72.1379C65.8348 77.3793 61.276 80.6897 47.4654 80.6897C28.6938 80.6897 21.4533 76 21.4533 61.1034H0C0 85.6552 12.7379 100 46.795 100C75.8911 100 87.2882 88.5517 87.2882 71.8621Z" fill="#EAAC0F"/>
<path d="M169.163 1.37931L85.897 1.37931V20.6897L116.87 20.6897L116.87 98.6207L138.324 98.6207L138.324 20.6897L169.163 20.6897V1.37931Z" fill="#EAAC0F"/>
<path d="M236.814 98.6207H258.535L231.182 1.37931L186.935 1.37931L159.716 98.6207H181.438L189.885 67.4483L228.233 67.4483L236.814 98.6207ZM195.114 48.1379L206.377 6.89655L211.74 6.89655L223.003 48.1379L195.114 48.1379Z" fill="#EAAC0F"/>
<path d="M267.999 98.6207H289.452V20.6897L285.43 6.89655L290.793 6.89655L319.353 98.6207H361.589V1.37931L340.135 1.37931V79.3103L344.158 93.1034H338.795L310.235 1.37931L267.999 1.37931V98.6207Z" fill="#EAAC0F"/>
<path d="M409.97 1.37931L375.108 1.37931V98.6207L409.97 98.6207C435.177 98.6207 461.458 91.8621 461.458 49.931C461.458 8.13793 435.177 1.37931 409.97 1.37931ZM409.97 79.3103L396.561 79.3103V20.6897L409.97 20.6897C426.73 20.6897 440.004 22.069 440.004 49.931C440.004 77.931 426.73 79.3103 409.97 79.3103Z" fill="#EAAC0F"/>
<path d="M539.941 98.6207H561.663L534.31 1.37931L490.062 1.37931L462.844 98.6207H484.565L493.012 67.4483H531.36L539.941 98.6207ZM498.242 48.1379L509.505 6.89655L514.868 6.89655L526.131 48.1379L498.242 48.1379Z" fill="#EAAC0F"/>
<path d="M571.126 98.6207L592.58 98.6207V61.2323L629.586 61.2323V98.6207H651.04V64.4047C651.04 56.8185 647.017 52.6806 639.643 52.6806H625.832V47.1633C637.229 45.784 649.833 41.3702 649.833 28.5517C649.833 6.75863 630.257 1.37931 607.731 1.37931L571.126 1.37931V98.6207ZM592.58 41.9219V20.6897L607.731 20.6897C620.469 20.6897 625.832 24.0024 625.832 31.3271C625.832 38.6517 620.469 41.9219 607.731 41.9219L592.58 41.9219Z" fill="#EAAC0F"/>
<path d="M739.671 1.37931L656.405 1.37931V20.6897L687.378 20.6897V98.6207H708.832V20.6897L739.671 20.6897V1.37931Z" fill="#EAAC0F"/>
<path d="M776.01 21.6661H777.943C779.326 21.6661 780.372 21.3295 781.082 20.6563C781.792 19.9831 782.147 19.0214 782.147 17.7712C782.147 16.3864 781.802 15.4247 781.11 14.8862C780.438 14.3284 779.363 14.0495 777.887 14.0495H776.01V21.6661ZM787.473 17.6558C787.473 20.9448 786.043 23.1855 783.184 24.378L789.827 35.8316H783.913L778.532 25.8494H776.01V35.8316H770.713V9.77968H778.056C781.307 9.77968 783.689 10.4336 785.202 11.7415C786.716 13.0494 787.473 15.0208 787.473 17.6558ZM757.848 22.7912C757.848 18.9445 758.782 15.3382 760.651 11.9723C762.519 8.60643 765.088 5.95219 768.358 4.0096C771.628 2.067 775.15 1.0957 778.924 1.0957C782.661 1.0957 786.165 2.05738 789.434 3.98075C792.704 5.90411 795.283 8.54873 797.17 11.9146C799.057 15.2805 800.001 18.906 800.001 22.7912C800.001 26.5802 799.094 30.1385 797.282 33.4659C795.47 36.7933 792.929 39.4571 789.659 41.4574C786.389 43.4577 782.811 44.4579 778.924 44.4579C775.057 44.4579 771.488 43.4674 768.218 41.4863C764.948 39.486 762.398 36.8221 760.567 33.4947C758.754 30.1673 757.848 26.5995 757.848 22.7912ZM761.295 22.7912C761.295 26.0609 762.08 29.0998 763.65 31.9079C765.238 34.6968 767.396 36.8991 770.124 38.5147C772.852 40.1303 775.785 40.9381 778.924 40.9381C782.101 40.9381 785.053 40.1207 787.781 38.4858C790.509 36.8318 792.648 34.6199 794.199 31.8502C795.769 29.0614 796.553 26.0417 796.553 22.7912C796.553 19.56 795.759 16.5403 794.171 13.7322C792.602 10.9048 790.443 8.68336 787.697 7.06774C784.969 5.45212 782.045 4.6443 778.924 4.6443C775.785 4.6443 772.861 5.4425 770.152 7.03889C767.461 8.63528 765.313 10.8375 763.706 13.6456C762.099 16.4537 761.295 19.5023 761.295 22.7912Z" fill="#EAAC0F"/>
</svg>
