<svg width="73" height="42" viewBox="0 0 73 42" fill="none" xmlns="http://www.w3.org/2000/svg">
<g clip-path="url(#clip0)">
<path opacity="0.2" d="M20.9844 42C9.40229 41.9847 -0.0153319 32.5508 1.87394e-05 20.9693C0.0153694 9.38789 9.45602 -0.0153209 21.0458 1.87413e-05C32.6355 0.0153584 42.0454 9.44925 42.0301 21.0307C42.0147 30.2115 36.1278 38.2418 27.3702 41.0183L26.595 41.3097L26.2726 40.9339C24.5457 38.9398 21.8133 36.1786 18.9197 33.2641C14.1149 28.4091 9.149 23.393 8.05911 21.1151C7.36833 19.6731 7.36833 17.9858 8.05911 16.3828C8.91874 14.3963 10.7378 12.7549 12.8178 12.0953C15.6116 11.2133 18.4975 12.1874 21.4142 15.0099C24.3231 12.2027 27.2244 11.221 30.0182 12.1184C32.0905 12.778 33.9096 14.427 34.7616 16.4211C35.4523 18.0318 35.4523 19.7115 34.7539 21.1534C33.3032 24.1523 30.6092 26.6604 27.2014 29.828C26.5029 30.4723 25.7814 31.1472 25.0369 31.8528L24.0545 30.8174C24.8067 30.1041 25.5281 29.4292 26.2266 28.7772C29.527 25.7093 32.1366 23.2856 33.4721 20.5245C34.1322 19.1593 33.8252 17.84 33.4567 16.981C32.7583 15.3627 31.277 14.0205 29.5884 13.4759C27.2628 12.7319 24.8681 13.614 22.2661 16.1757L21.4142 16.9427L20.5929 16.191C17.9756 13.5986 15.5809 12.7089 13.2553 13.4452C11.5667 13.9821 10.0777 15.3167 9.37926 16.935C9.00317 17.8017 8.69616 19.1132 9.35624 20.4861C10.3464 22.5493 15.4504 27.6958 19.9482 32.244C22.6883 35.0051 25.2749 37.6282 27.0402 39.6147C35.153 36.9916 40.5871 29.5365 40.6025 21.023C40.6178 10.2392 31.8449 1.44195 21.0381 1.42661C10.2389 1.41127 1.44298 10.1856 1.42763 20.977C1.41228 31.7685 10.1928 40.5581 20.992 40.5734C21.2223 40.5734 21.4449 40.5734 21.6751 40.5658L21.7212 41.9923C21.4756 42 21.23 42 20.9844 42Z" fill="white"/>
<path d="M15.3738 38.7248H14.1304L26.549 11.3052H27.6773L40.096 38.7248H38.8142L35.038 30.4414H19.15L15.3738 38.7248ZM27.094 12.9772L19.6182 29.3523H34.6081L27.094 12.9772Z" fill="url(#paint0_linear)"/>
<path d="M55.5695 13.9973L54.234 16.9655V19.8417L56.8513 13.9973H55.5695ZM45.1387 37.1679L33.5413 11.4969H32.2595L44.5631 38.8783H45.6913L49.1683 31.1394V28.2325L45.1387 37.1679Z" fill="url(#paint1_linear)"/>
<path d="M51.9851 38.7249H50.78V11.4969H62.7689C65.2864 11.4969 67.2666 12.1259 68.7019 13.3837C70.1449 14.6416 70.8587 16.3443 70.8587 18.4995C70.8587 20.4707 70.2523 22.0813 69.0319 23.3238C67.8116 24.5663 66.1153 25.295 63.9355 25.5021L73.0078 38.7249H71.5264L62.4926 25.5788H51.9851V38.7249ZM51.9851 12.6244V24.4513H62.6538C64.8566 24.4513 66.5682 23.9374 67.7885 22.9173C69.0089 21.8896 69.6153 20.4323 69.6153 18.5379C69.6153 16.6434 69.0089 15.1861 67.7885 14.1584C66.5682 13.1306 64.8566 12.6244 62.6538 12.6244H51.9851Z" fill="url(#paint2_linear)"/>
</g>
<defs>
<linearGradient id="paint0_linear" x1="72.1474" y1="6.51785" x2="42.5871" y2="60.1773" gradientUnits="userSpaceOnUse">
<stop stop-color="#C88361"/>
<stop offset="0.5129" stop-color="#FFD5A5"/>
<stop offset="1" stop-color="#B16A43"/>
</linearGradient>
<linearGradient id="paint1_linear" x1="72.1474" y1="6.51785" x2="42.5871" y2="60.1773" gradientUnits="userSpaceOnUse">
<stop stop-color="#C88361"/>
<stop offset="0.5129" stop-color="#FFD5A5"/>
<stop offset="1" stop-color="#B16A43"/>
</linearGradient>
<linearGradient id="paint2_linear" x1="72.1474" y1="6.51785" x2="42.5871" y2="60.1773" gradientUnits="userSpaceOnUse">
<stop stop-color="#C88361"/>
<stop offset="0.5129" stop-color="#FFD5A5"/>
<stop offset="1" stop-color="#B16A43"/>
</linearGradient>
<clipPath id="clip0">
<rect width="73" height="42" fill="white"/>
</clipPath>
</defs>
</svg>
