<svg width="465" height="193" viewBox="0 0 465 193" fill="none" xmlns="http://www.w3.org/2000/svg">
<path d="M219.359 192.083V171.001H228.727C230.548 171.001 232.109 171.522 233.41 172.563C234.451 173.604 234.972 174.905 234.972 176.467C234.972 178.028 234.451 179.33 233.671 180.111C232.63 181.152 231.329 181.672 229.767 181.672L236.793 191.823H235.752L228.727 181.672H220.66V192.083H219.359ZM220.4 181.152H228.727C230.548 181.152 231.849 180.631 232.63 179.85C233.671 179.07 233.931 178.028 233.931 176.467C233.931 174.905 233.41 173.864 232.63 173.083C231.589 172.302 230.288 171.782 228.727 171.782H220.4V181.152Z" fill="url(#paint0_linear)"/>
<path d="M246.421 192.604C244.599 192.604 243.298 192.084 242.257 191.043C241.216 190.001 240.956 188.44 240.956 186.618V178.029H241.997V186.618C241.997 190.262 243.558 191.823 246.941 191.823C248.242 191.823 249.283 191.563 250.324 190.782C251.365 190.001 252.406 189.221 252.926 188.44V178.029H253.967V192.344H252.926V189.741C252.145 190.522 251.365 191.303 250.324 191.823C248.763 192.344 247.722 192.604 246.421 192.604Z" fill="url(#paint1_linear)"/>
<path d="M263.595 192.604C262.555 192.604 261.253 192.344 260.213 192.083C259.172 191.823 258.391 191.302 257.611 191.042V190.001C259.432 191.042 261.254 191.823 263.595 191.823C265.157 191.823 266.198 191.563 267.238 191.042C268.019 190.522 268.539 189.741 268.539 188.7C268.539 187.659 267.759 186.878 266.198 186.097C265.937 185.837 264.896 185.576 263.335 185.316C262.034 185.056 261.253 184.796 260.473 184.275C258.912 183.494 258.391 182.713 258.391 181.152C258.391 180.111 258.912 179.07 259.952 178.549C260.993 177.768 262.294 177.508 263.856 177.508C265.937 177.508 267.759 178.028 269.06 178.809V179.85C267.499 178.809 265.937 178.289 264.116 178.289C262.555 178.289 261.514 178.549 260.733 179.07C259.952 179.59 259.432 180.371 259.432 181.152C259.432 182.193 259.952 182.713 260.733 183.234C261.253 183.494 261.774 183.754 262.034 183.754L263.856 184.275L264.636 184.535L265.677 184.796C266.458 185.056 267.238 185.316 267.499 185.316C268.279 185.576 268.8 185.837 268.8 186.097C269.32 186.617 269.58 187.398 269.58 188.179C269.58 189.481 269.06 190.522 268.019 191.042C266.718 192.083 265.417 192.604 263.595 192.604Z" fill="url(#paint2_linear)"/>
<path d="M278.687 192.604C277.647 192.604 276.345 192.344 275.305 192.083C274.264 191.823 273.483 191.302 272.703 191.042V190.001C274.524 191.042 276.345 191.823 278.687 191.823C280.249 191.823 281.29 191.563 282.33 191.042C283.111 190.522 283.631 189.741 283.631 188.7C283.631 187.659 282.851 186.878 281.29 186.097C281.029 185.837 279.988 185.576 278.427 185.316C277.126 185.056 276.345 184.796 275.565 184.275C274.004 183.494 273.483 182.713 273.483 181.152C273.483 180.111 274.004 179.07 275.044 178.549C276.085 177.768 277.386 177.508 278.948 177.508C281.029 177.508 282.851 178.028 284.152 178.809V179.85C282.591 178.809 281.029 178.289 279.208 178.289C277.647 178.289 276.606 178.549 275.825 179.07C275.044 179.59 274.524 180.371 274.524 181.152C274.524 182.193 275.044 182.713 275.825 183.234C276.345 183.494 276.866 183.754 277.126 183.754L278.948 184.275L279.728 184.535L280.769 184.796C281.55 185.056 282.33 185.316 282.591 185.316C283.371 185.576 283.892 185.837 283.892 186.097C284.412 186.617 284.672 187.398 284.672 188.179C284.672 189.481 284.152 190.522 283.111 191.042C281.81 192.083 280.249 192.604 278.687 192.604Z" fill="url(#paint3_linear)"/>
<path d="M290.137 190.261C288.836 188.7 288.055 187.138 288.055 185.056C288.055 182.974 288.836 181.152 290.137 179.85C291.438 178.289 293.259 177.508 295.601 177.508C297.943 177.508 299.504 178.289 301.065 179.85C302.367 181.412 303.147 182.974 303.147 185.056C303.147 187.138 302.367 188.96 301.065 190.261C299.764 191.823 297.943 192.344 295.601 192.344C293.259 192.344 291.698 191.823 290.137 190.261ZM295.601 191.563C297.423 191.563 298.984 191.042 300.285 189.741C301.586 188.439 302.106 186.878 302.106 185.056C302.106 183.234 301.586 181.672 300.285 180.371C298.984 179.07 297.423 178.549 295.601 178.549C293.78 178.549 292.218 179.07 290.917 180.371C289.616 181.672 289.096 183.234 289.096 185.056C289.096 186.878 289.616 188.439 290.917 189.741C292.218 191.042 293.78 191.563 295.601 191.563Z" fill="url(#paint4_linear)"/>
<path d="M107.728 192.344H106.947L97.3193 171.001H98.3602L107.468 190.782L116.315 171.001H117.356L107.728 192.344Z" fill="url(#paint5_linear)"/>
<path d="M120.738 173.343C120.478 173.083 120.478 172.823 120.478 172.562C120.478 172.302 120.478 172.042 120.738 172.042C120.999 171.781 121.259 171.781 121.519 171.781C121.779 171.781 122.039 171.781 122.039 172.042C122.3 172.302 122.3 172.302 122.3 172.562C122.3 172.823 122.3 173.083 122.039 173.343C121.779 173.603 121.779 173.603 121.519 173.603C121.259 173.603 120.738 173.603 120.738 173.343ZM121.779 192.083H120.738V177.768H121.779V192.083Z" fill="url(#paint6_linear)"/>
<path d="M134.269 192.603C132.187 192.603 130.366 191.822 128.805 190.521C127.504 188.959 126.723 187.398 126.723 185.315C126.723 183.233 127.504 181.411 128.805 180.11C130.106 178.548 131.927 177.767 134.269 177.767C135.83 177.767 137.392 178.028 138.693 178.808V179.589C137.392 178.808 136.091 178.288 134.529 178.288C132.708 178.288 131.147 178.808 129.846 180.11C128.544 181.411 128.024 182.973 128.024 184.795C128.024 186.617 128.544 188.178 129.846 189.48C131.147 190.781 132.708 191.302 134.529 191.302C136.351 191.302 137.912 190.781 138.953 190V191.041C137.652 192.083 136.091 192.603 134.269 192.603Z" fill="url(#paint7_linear)"/>
<path d="M145.459 188.7V178.81H141.816V178.029H145.459V173.344H146.5V178.029H151.964V178.81H146.5V188.44C146.5 190.522 147.541 191.563 149.362 191.563C150.143 191.563 150.923 191.303 151.964 190.783V191.563C151.184 192.084 150.403 192.344 149.362 192.344C148.321 192.344 147.28 192.084 146.76 191.303C146.24 190.522 145.459 190.002 145.459 188.7Z" fill="url(#paint8_linear)"/>
<path d="M156.908 190.261C155.607 188.7 154.827 187.138 154.827 185.056C154.827 182.974 155.607 181.152 156.908 179.85C158.209 178.289 160.031 177.508 162.373 177.508C164.715 177.508 166.276 178.289 167.837 179.85C169.138 181.412 169.919 182.974 169.919 185.056C169.919 187.138 169.138 188.96 167.837 190.261C166.536 191.823 164.715 192.604 162.373 192.604C160.031 192.604 158.469 191.823 156.908 190.261ZM162.373 191.563C164.194 191.563 165.755 191.042 167.057 189.741C168.358 188.439 168.878 186.878 168.878 185.056C168.878 183.234 168.358 181.672 167.057 180.371C165.755 179.07 164.194 178.549 162.373 178.549C160.551 178.549 158.99 179.07 157.689 180.371C156.388 181.672 155.867 183.234 155.867 185.056C155.867 186.878 156.388 188.439 157.689 189.741C158.99 191.042 160.551 191.563 162.373 191.563Z" fill="url(#paint9_linear)"/>
<path d="M175.383 192.083H174.342V177.768H175.383V180.891C175.904 180.111 176.684 179.07 177.725 178.549C178.766 177.768 180.067 177.508 181.368 177.508V178.549C180.067 178.549 178.766 179.07 177.725 179.85C176.684 180.631 175.904 181.672 175.383 182.713V192.083Z" fill="url(#paint10_linear)"/>
<path d="M184.751 173.343C184.491 173.083 184.491 172.823 184.491 172.562C184.491 172.302 184.491 172.042 184.751 172.042C185.011 171.781 185.271 171.781 185.531 171.781C185.792 171.781 186.052 171.781 186.052 172.042C186.312 172.302 186.312 172.302 186.312 172.562C186.312 172.823 186.312 173.083 186.052 173.343C185.792 173.603 185.792 173.603 185.531 173.603C185.271 173.603 184.751 173.603 184.751 173.343ZM185.792 192.083H184.751V177.768H185.792V192.083Z" fill="url(#paint11_linear)"/>
<path d="M196.2 192.604C194.639 192.604 193.338 192.083 192.297 191.302C191.256 190.522 190.736 189.48 190.736 187.919C190.736 186.617 191.256 185.316 192.297 184.535C193.338 183.754 194.899 183.234 196.46 183.234C198.542 183.234 200.363 183.754 202.185 184.796V182.453C202.185 181.152 201.664 180.111 200.884 179.33C199.843 178.549 198.542 178.289 196.981 178.289C195.159 178.289 193.598 178.809 192.037 179.85V178.809C193.338 177.768 195.159 177.508 196.981 177.508C198.802 177.508 200.363 178.028 201.404 178.809C202.445 179.59 202.966 180.891 202.966 182.713V189.22C202.966 190.001 203.226 190.522 203.486 190.782C203.746 191.042 204.267 191.302 204.787 191.302C205.047 191.302 205.307 191.302 205.568 191.042V191.823C205.307 191.823 205.047 192.083 204.527 192.083C203.746 192.083 203.226 191.823 202.966 191.302C202.705 190.782 202.185 190.261 202.185 189.481C200.884 191.563 198.802 192.604 196.2 192.604ZM196.46 191.563C197.761 191.563 198.802 191.302 199.843 190.782C200.884 190.261 201.664 189.481 202.445 188.7V186.097C200.624 184.796 198.802 184.275 196.72 184.275C195.159 184.275 193.858 184.535 192.817 185.316C191.776 186.097 191.516 186.878 191.516 188.179C191.516 189.481 192.037 190.261 192.817 191.042C193.858 191.302 195.159 191.563 196.46 191.563Z" fill="url(#paint12_linear)"/>
<path opacity="0.1" d="M96.0185 192.083C42.9351 192.083 0 148.877 0 96.0415C0 43.2057 43.1953 0 96.2787 0C149.362 0 192.297 43.2057 192.297 96.3018C192.297 138.206 165.235 175.165 125.162 187.658L121.519 188.96L120.218 187.398C112.412 178.288 99.9217 165.535 86.6508 152.261C64.793 130.138 41.8942 107.233 36.9502 96.562C33.8276 90.0551 33.8276 82.2469 36.9502 74.9592C40.8534 65.8496 49.1802 58.3016 58.8081 55.4386C71.5585 51.2742 84.8293 55.9591 98.1002 68.7126C111.371 55.9591 124.642 51.2742 137.392 55.4386C146.76 58.5619 155.087 66.1099 158.99 75.2195C162.112 82.5072 162.112 90.3154 158.99 96.8223C152.485 110.617 139.994 122.069 124.382 136.644C121.259 139.507 117.876 142.631 114.494 146.014L110.07 141.329C113.453 137.946 116.835 135.083 119.958 131.959C135.05 117.905 147.02 106.713 153.005 94.2196C156.128 87.973 154.566 81.9866 153.005 78.0825C149.882 70.7948 143.117 64.5482 135.311 61.9454C124.642 58.5619 113.713 62.466 101.743 74.4387L97.84 78.0825L94.197 74.6989C82.2272 62.7263 71.2983 58.8222 60.6295 62.2057C52.8232 64.5482 46.0576 70.7948 42.9351 78.0825C41.1136 81.9866 39.8125 87.973 42.9351 94.2196C47.3587 103.589 70.7778 127.274 91.3346 148.096C103.825 160.85 115.795 172.823 123.861 181.932C160.811 169.179 185.532 135.083 185.532 96.3018C185.532 46.8495 145.459 6.50688 96.2787 6.50688C46.8383 6.50688 6.50532 46.5892 6.50532 96.0415C6.50532 145.494 46.5781 185.576 96.0185 185.836C97.0593 185.836 98.1002 185.836 99.141 185.836L99.4012 192.343C98.1002 192.083 97.0593 192.083 96.0185 192.083Z" fill="#010202"/>
<path d="M101.483 157.987H98.8807L123.861 103.069H126.203L150.923 157.987H148.321L140.775 141.329H109.029L101.483 157.987ZM124.902 106.192L109.81 138.987H139.994L124.902 106.192Z" fill="url(#paint13_linear)"/>
<path d="M179.807 159.028C172.261 159.028 165.756 156.425 160.552 150.96C155.347 145.494 152.745 138.727 152.745 130.658C152.745 122.59 155.347 115.822 160.552 110.357C165.756 104.891 172.261 102.288 179.807 102.288C185.792 102.288 191.257 103.85 195.68 106.713V109.316C190.736 106.192 185.532 104.37 180.067 104.37C173.042 104.37 167.317 106.973 162.373 111.918C157.689 116.863 155.347 123.11 155.347 130.398C155.347 137.946 157.689 144.192 162.373 148.877C167.057 153.823 173.042 156.165 180.067 156.165C186.573 156.165 192.297 154.083 196.981 150.179V153.562C192.297 157.206 186.573 159.028 179.807 159.028Z" fill="url(#paint14_linear)"/>
<path d="M202.705 157.987H200.103L225.084 103.069H227.426L252.406 157.987H249.804L242.258 141.329H210.252L202.705 157.987ZM226.385 106.192L211.292 138.987H241.477L226.385 106.192Z" fill="url(#paint15_linear)"/>
<path d="M276.866 157.988H260.473V103.33H276.866C285.714 103.33 292.739 105.933 298.204 110.878C303.668 115.823 306.27 122.59 306.27 130.659C306.27 138.727 303.668 145.494 298.204 150.44C292.739 155.385 285.453 157.988 276.866 157.988ZM262.815 105.672V155.905H276.086C284.673 155.905 291.178 153.563 296.122 149.138C301.066 144.453 303.408 138.467 303.408 130.919C303.408 123.371 300.806 117.385 296.122 112.7C291.178 108.015 284.413 105.933 276.086 105.933H262.815V105.672Z" fill="url(#paint16_linear)"/>
<path d="M317.459 157.988V103.33H353.369V105.672H320.062V127.535H347.904V129.878H320.062V155.905H354.93V157.988H317.459Z" fill="url(#paint17_linear)"/>
<path d="M363.777 157.988V103.33H366.379L388.497 131.96L410.615 103.33H412.957V157.988H410.615V107.234L389.538 134.563H387.716L366.379 107.234V157.988H363.777Z" fill="url(#paint18_linear)"/>
<path d="M444.183 157.988H441.581V132.481L420.243 103.33H423.106L442.622 130.138L462.138 103.33H465L443.663 132.481V157.988H444.183Z" fill="url(#paint19_linear)"/>
<defs>
<linearGradient id="paint0_linear" x1="119.757" y1="150.152" x2="248.063" y2="208.181" gradientUnits="userSpaceOnUse">
<stop stop-color="#C88462"/>
<stop offset="0.0987416" stop-color="#CC8A66"/>
<stop offset="0.2329" stop-color="#D79B74"/>
<stop offset="0.3867" stop-color="#E9B78C"/>
<stop offset="0.5129" stop-color="#FDD4A6"/>
<stop offset="0.6271" stop-color="#E4B284"/>
<stop offset="0.7891" stop-color="#C8895E"/>
<stop offset="0.9191" stop-color="#B7734A"/>
<stop offset="1" stop-color="#B26B44"/>
</linearGradient>
<linearGradient id="paint1_linear" x1="119.757" y1="150.152" x2="248.063" y2="208.181" gradientUnits="userSpaceOnUse">
<stop stop-color="#C88462"/>
<stop offset="0.0987416" stop-color="#CC8A66"/>
<stop offset="0.2329" stop-color="#D79B74"/>
<stop offset="0.3867" stop-color="#E9B78C"/>
<stop offset="0.5129" stop-color="#FDD4A6"/>
<stop offset="0.6271" stop-color="#E4B284"/>
<stop offset="0.7891" stop-color="#C8895E"/>
<stop offset="0.9191" stop-color="#B7734A"/>
<stop offset="1" stop-color="#B26B44"/>
</linearGradient>
<linearGradient id="paint2_linear" x1="119.757" y1="150.152" x2="248.063" y2="208.181" gradientUnits="userSpaceOnUse">
<stop stop-color="#C88462"/>
<stop offset="0.0987416" stop-color="#CC8A66"/>
<stop offset="0.2329" stop-color="#D79B74"/>
<stop offset="0.3867" stop-color="#E9B78C"/>
<stop offset="0.5129" stop-color="#FDD4A6"/>
<stop offset="0.6271" stop-color="#E4B284"/>
<stop offset="0.7891" stop-color="#C8895E"/>
<stop offset="0.9191" stop-color="#B7734A"/>
<stop offset="1" stop-color="#B26B44"/>
</linearGradient>
<linearGradient id="paint3_linear" x1="119.757" y1="150.152" x2="248.063" y2="208.181" gradientUnits="userSpaceOnUse">
<stop stop-color="#C88462"/>
<stop offset="0.0987416" stop-color="#CC8A66"/>
<stop offset="0.2329" stop-color="#D79B74"/>
<stop offset="0.3867" stop-color="#E9B78C"/>
<stop offset="0.5129" stop-color="#FDD4A6"/>
<stop offset="0.6271" stop-color="#E4B284"/>
<stop offset="0.7891" stop-color="#C8895E"/>
<stop offset="0.9191" stop-color="#B7734A"/>
<stop offset="1" stop-color="#B26B44"/>
</linearGradient>
<linearGradient id="paint4_linear" x1="119.757" y1="150.152" x2="248.063" y2="208.181" gradientUnits="userSpaceOnUse">
<stop stop-color="#C88462"/>
<stop offset="0.0987416" stop-color="#CC8A66"/>
<stop offset="0.2329" stop-color="#D79B74"/>
<stop offset="0.3867" stop-color="#E9B78C"/>
<stop offset="0.5129" stop-color="#FDD4A6"/>
<stop offset="0.6271" stop-color="#E4B284"/>
<stop offset="0.7891" stop-color="#C8895E"/>
<stop offset="0.9191" stop-color="#B7734A"/>
<stop offset="1" stop-color="#B26B44"/>
</linearGradient>
<linearGradient id="paint5_linear" x1="119.757" y1="150.152" x2="248.063" y2="208.181" gradientUnits="userSpaceOnUse">
<stop stop-color="#C88462"/>
<stop offset="0.0987416" stop-color="#CC8A66"/>
<stop offset="0.2329" stop-color="#D79B74"/>
<stop offset="0.3867" stop-color="#E9B78C"/>
<stop offset="0.5129" stop-color="#FDD4A6"/>
<stop offset="0.6271" stop-color="#E4B284"/>
<stop offset="0.7891" stop-color="#C8895E"/>
<stop offset="0.9191" stop-color="#B7734A"/>
<stop offset="1" stop-color="#B26B44"/>
</linearGradient>
<linearGradient id="paint6_linear" x1="119.757" y1="150.152" x2="248.063" y2="208.181" gradientUnits="userSpaceOnUse">
<stop stop-color="#C88462"/>
<stop offset="0.0987416" stop-color="#CC8A66"/>
<stop offset="0.2329" stop-color="#D79B74"/>
<stop offset="0.3867" stop-color="#E9B78C"/>
<stop offset="0.5129" stop-color="#FDD4A6"/>
<stop offset="0.6271" stop-color="#E4B284"/>
<stop offset="0.7891" stop-color="#C8895E"/>
<stop offset="0.9191" stop-color="#B7734A"/>
<stop offset="1" stop-color="#B26B44"/>
</linearGradient>
<linearGradient id="paint7_linear" x1="119.757" y1="150.152" x2="248.063" y2="208.181" gradientUnits="userSpaceOnUse">
<stop stop-color="#C88462"/>
<stop offset="0.0987416" stop-color="#CC8A66"/>
<stop offset="0.2329" stop-color="#D79B74"/>
<stop offset="0.3867" stop-color="#E9B78C"/>
<stop offset="0.5129" stop-color="#FDD4A6"/>
<stop offset="0.6271" stop-color="#E4B284"/>
<stop offset="0.7891" stop-color="#C8895E"/>
<stop offset="0.9191" stop-color="#B7734A"/>
<stop offset="1" stop-color="#B26B44"/>
</linearGradient>
<linearGradient id="paint8_linear" x1="119.757" y1="150.152" x2="248.063" y2="208.181" gradientUnits="userSpaceOnUse">
<stop stop-color="#C88462"/>
<stop offset="0.0987416" stop-color="#CC8A66"/>
<stop offset="0.2329" stop-color="#D79B74"/>
<stop offset="0.3867" stop-color="#E9B78C"/>
<stop offset="0.5129" stop-color="#FDD4A6"/>
<stop offset="0.6271" stop-color="#E4B284"/>
<stop offset="0.7891" stop-color="#C8895E"/>
<stop offset="0.9191" stop-color="#B7734A"/>
<stop offset="1" stop-color="#B26B44"/>
</linearGradient>
<linearGradient id="paint9_linear" x1="119.757" y1="150.152" x2="248.063" y2="208.181" gradientUnits="userSpaceOnUse">
<stop stop-color="#C88462"/>
<stop offset="0.0987416" stop-color="#CC8A66"/>
<stop offset="0.2329" stop-color="#D79B74"/>
<stop offset="0.3867" stop-color="#E9B78C"/>
<stop offset="0.5129" stop-color="#FDD4A6"/>
<stop offset="0.6271" stop-color="#E4B284"/>
<stop offset="0.7891" stop-color="#C8895E"/>
<stop offset="0.9191" stop-color="#B7734A"/>
<stop offset="1" stop-color="#B26B44"/>
</linearGradient>
<linearGradient id="paint10_linear" x1="119.757" y1="150.152" x2="248.063" y2="208.181" gradientUnits="userSpaceOnUse">
<stop stop-color="#C88462"/>
<stop offset="0.0987416" stop-color="#CC8A66"/>
<stop offset="0.2329" stop-color="#D79B74"/>
<stop offset="0.3867" stop-color="#E9B78C"/>
<stop offset="0.5129" stop-color="#FDD4A6"/>
<stop offset="0.6271" stop-color="#E4B284"/>
<stop offset="0.7891" stop-color="#C8895E"/>
<stop offset="0.9191" stop-color="#B7734A"/>
<stop offset="1" stop-color="#B26B44"/>
</linearGradient>
<linearGradient id="paint11_linear" x1="119.757" y1="150.152" x2="248.063" y2="208.181" gradientUnits="userSpaceOnUse">
<stop stop-color="#C88462"/>
<stop offset="0.0987416" stop-color="#CC8A66"/>
<stop offset="0.2329" stop-color="#D79B74"/>
<stop offset="0.3867" stop-color="#E9B78C"/>
<stop offset="0.5129" stop-color="#FDD4A6"/>
<stop offset="0.6271" stop-color="#E4B284"/>
<stop offset="0.7891" stop-color="#C8895E"/>
<stop offset="0.9191" stop-color="#B7734A"/>
<stop offset="1" stop-color="#B26B44"/>
</linearGradient>
<linearGradient id="paint12_linear" x1="119.757" y1="150.152" x2="248.063" y2="208.181" gradientUnits="userSpaceOnUse">
<stop stop-color="#C88462"/>
<stop offset="0.0987416" stop-color="#CC8A66"/>
<stop offset="0.2329" stop-color="#D79B74"/>
<stop offset="0.3867" stop-color="#E9B78C"/>
<stop offset="0.5129" stop-color="#FDD4A6"/>
<stop offset="0.6271" stop-color="#E4B284"/>
<stop offset="0.7891" stop-color="#C8895E"/>
<stop offset="0.9191" stop-color="#B7734A"/>
<stop offset="1" stop-color="#B26B44"/>
</linearGradient>
<linearGradient id="paint13_linear" x1="437.887" y1="124.618" x2="218.404" y2="359.322" gradientUnits="userSpaceOnUse">
<stop stop-color="#C88462"/>
<stop offset="0.106" stop-color="#CF8E6A"/>
<stop offset="0.2885" stop-color="#E0A980"/>
<stop offset="0.5129" stop-color="#FDD4A6"/>
<stop offset="0.5952" stop-color="#E6B486"/>
<stop offset="0.7049" stop-color="#CE9367"/>
<stop offset="0.8113" stop-color="#BE7C52"/>
<stop offset="0.9117" stop-color="#B56F47"/>
<stop offset="1" stop-color="#B26B44"/>
</linearGradient>
<linearGradient id="paint14_linear" x1="437.887" y1="124.618" x2="218.404" y2="359.322" gradientUnits="userSpaceOnUse">
<stop stop-color="#C88462"/>
<stop offset="0.106" stop-color="#CF8E6A"/>
<stop offset="0.2885" stop-color="#E0A980"/>
<stop offset="0.5129" stop-color="#FDD4A6"/>
<stop offset="0.5952" stop-color="#E6B486"/>
<stop offset="0.7049" stop-color="#CE9367"/>
<stop offset="0.8113" stop-color="#BE7C52"/>
<stop offset="0.9117" stop-color="#B56F47"/>
<stop offset="1" stop-color="#B26B44"/>
</linearGradient>
<linearGradient id="paint15_linear" x1="437.887" y1="124.618" x2="218.404" y2="359.322" gradientUnits="userSpaceOnUse">
<stop stop-color="#C88462"/>
<stop offset="0.106" stop-color="#CF8E6A"/>
<stop offset="0.2885" stop-color="#E0A980"/>
<stop offset="0.5129" stop-color="#FDD4A6"/>
<stop offset="0.5952" stop-color="#E6B486"/>
<stop offset="0.7049" stop-color="#CE9367"/>
<stop offset="0.8113" stop-color="#BE7C52"/>
<stop offset="0.9117" stop-color="#B56F47"/>
<stop offset="1" stop-color="#B26B44"/>
</linearGradient>
<linearGradient id="paint16_linear" x1="437.887" y1="124.618" x2="218.404" y2="359.322" gradientUnits="userSpaceOnUse">
<stop stop-color="#C88462"/>
<stop offset="0.106" stop-color="#CF8E6A"/>
<stop offset="0.2885" stop-color="#E0A980"/>
<stop offset="0.5129" stop-color="#FDD4A6"/>
<stop offset="0.5952" stop-color="#E6B486"/>
<stop offset="0.7049" stop-color="#CE9367"/>
<stop offset="0.8113" stop-color="#BE7C52"/>
<stop offset="0.9117" stop-color="#B56F47"/>
<stop offset="1" stop-color="#B26B44"/>
</linearGradient>
<linearGradient id="paint17_linear" x1="437.887" y1="124.618" x2="218.404" y2="359.322" gradientUnits="userSpaceOnUse">
<stop stop-color="#C88462"/>
<stop offset="0.106" stop-color="#CF8E6A"/>
<stop offset="0.2885" stop-color="#E0A980"/>
<stop offset="0.5129" stop-color="#FDD4A6"/>
<stop offset="0.5952" stop-color="#E6B486"/>
<stop offset="0.7049" stop-color="#CE9367"/>
<stop offset="0.8113" stop-color="#BE7C52"/>
<stop offset="0.9117" stop-color="#B56F47"/>
<stop offset="1" stop-color="#B26B44"/>
</linearGradient>
<linearGradient id="paint18_linear" x1="437.887" y1="124.618" x2="218.404" y2="359.322" gradientUnits="userSpaceOnUse">
<stop stop-color="#C88462"/>
<stop offset="0.106" stop-color="#CF8E6A"/>
<stop offset="0.2885" stop-color="#E0A980"/>
<stop offset="0.5129" stop-color="#FDD4A6"/>
<stop offset="0.5952" stop-color="#E6B486"/>
<stop offset="0.7049" stop-color="#CE9367"/>
<stop offset="0.8113" stop-color="#BE7C52"/>
<stop offset="0.9117" stop-color="#B56F47"/>
<stop offset="1" stop-color="#B26B44"/>
</linearGradient>
<linearGradient id="paint19_linear" x1="437.887" y1="124.618" x2="218.404" y2="359.322" gradientUnits="userSpaceOnUse">
<stop stop-color="#C88462"/>
<stop offset="0.106" stop-color="#CF8E6A"/>
<stop offset="0.2885" stop-color="#E0A980"/>
<stop offset="0.5129" stop-color="#FDD4A6"/>
<stop offset="0.5952" stop-color="#E6B486"/>
<stop offset="0.7049" stop-color="#CE9367"/>
<stop offset="0.8113" stop-color="#BE7C52"/>
<stop offset="0.9117" stop-color="#B56F47"/>
<stop offset="1" stop-color="#B26B44"/>
</linearGradient>
</defs>
</svg>
