<svg width="322" height="133" viewBox="0 0 322 133" fill="none" xmlns="http://www.w3.org/2000/svg">
<g clip-path="url(#clip0)">
<path d="M152.378 132.748H151.748V118.168H158.174C159.524 118.168 160.586 118.51 161.36 119.175C162.134 119.858 162.512 120.757 162.512 121.907C162.512 122.968 162.188 123.831 161.54 124.496C160.892 125.161 159.974 125.557 158.804 125.665L163.664 132.748H162.872L158.03 125.701H152.396V132.748H152.378ZM152.378 118.779V125.107H158.084C159.272 125.107 160.19 124.838 160.838 124.28C161.486 123.741 161.81 122.95 161.81 121.943C161.81 120.937 161.486 120.146 160.838 119.606C160.19 119.067 159.272 118.779 158.084 118.779H152.378Z" fill="url(#paint0_linear)"/>
<path d="M170.433 133C169.172 133 168.2 132.64 167.552 131.939C166.904 131.238 166.58 130.213 166.58 128.883V122.914H167.228V128.757C167.228 131.184 168.344 132.406 170.577 132.406C171.405 132.406 172.215 132.173 172.989 131.705C173.781 131.238 174.357 130.68 174.735 130.033V122.914H175.383V132.766H174.735V130.932C174.267 131.543 173.637 132.047 172.881 132.424C172.143 132.802 171.315 133 170.433 133Z" fill="url(#paint1_linear)"/>
<path d="M182.385 132.999C181.611 132.999 180.837 132.891 180.081 132.675C179.325 132.46 178.731 132.208 178.317 131.902V131.201C179.505 132.01 180.873 132.406 182.385 132.406C183.411 132.406 184.239 132.208 184.869 131.83C185.499 131.435 185.805 130.932 185.805 130.266C185.805 129.511 185.283 128.954 184.221 128.558C183.969 128.469 183.303 128.271 182.205 128.001C181.377 127.785 180.711 127.57 180.207 127.354C179.199 126.904 178.677 126.185 178.677 125.233C178.677 124.442 179.001 123.812 179.667 123.363C180.333 122.913 181.251 122.68 182.421 122.68C183.861 122.68 185.049 122.985 185.949 123.597V124.28C184.905 123.615 183.753 123.273 182.475 123.273C181.467 123.273 180.675 123.453 180.135 123.812C179.595 124.172 179.325 124.657 179.325 125.251C179.325 125.898 179.649 126.401 180.297 126.725C180.639 126.869 180.945 126.994 181.215 127.102L182.421 127.444L183.051 127.606L183.717 127.767C184.347 127.929 184.743 128.073 184.905 128.181C185.409 128.415 185.715 128.612 185.841 128.756C186.237 129.206 186.453 129.709 186.453 130.248C186.453 131.111 186.057 131.776 185.283 132.262C184.509 132.747 183.537 132.999 182.385 132.999Z" fill="url(#paint2_linear)"/>
<path d="M192.754 132.999C191.98 132.999 191.206 132.891 190.45 132.675C189.693 132.46 189.099 132.208 188.685 131.902V131.201C189.873 132.01 191.242 132.406 192.754 132.406C193.78 132.406 194.608 132.208 195.238 131.83C195.868 131.435 196.174 130.932 196.174 130.266C196.174 129.511 195.652 128.954 194.59 128.558C194.338 128.469 193.672 128.271 192.574 128.001C191.746 127.785 191.08 127.57 190.576 127.354C189.567 126.904 189.045 126.185 189.045 125.233C189.045 124.442 189.369 123.812 190.035 123.363C190.702 122.913 191.62 122.68 192.79 122.68C194.23 122.68 195.418 122.985 196.318 123.597V124.28C195.274 123.615 194.122 123.273 192.844 123.273C191.836 123.273 191.044 123.453 190.504 123.812C189.963 124.172 189.693 124.657 189.693 125.251C189.693 125.898 190.017 126.401 190.666 126.725C191.008 126.869 191.314 126.994 191.584 127.102L192.79 127.444L193.42 127.606L194.086 127.767C194.716 127.929 195.112 128.073 195.274 128.181C195.778 128.415 196.084 128.612 196.21 128.756C196.606 129.206 196.822 129.709 196.822 130.248C196.822 131.111 196.426 131.776 195.652 132.262C194.878 132.747 193.906 132.999 192.754 132.999Z" fill="url(#paint3_linear)"/>
<path d="M200.728 131.472C199.756 130.465 199.27 129.243 199.27 127.823C199.27 126.402 199.756 125.198 200.71 124.173C201.7 123.148 202.96 122.627 204.49 122.627C206.02 122.627 207.262 123.148 208.216 124.173C209.188 125.18 209.674 126.402 209.674 127.823C209.674 129.243 209.188 130.447 208.216 131.472C207.262 132.479 206.02 132.982 204.49 132.982C202.96 132.982 201.7 132.479 200.728 131.472ZM204.49 132.389C205.786 132.389 206.848 131.957 207.694 131.077C208.576 130.196 209.008 129.099 209.008 127.823C209.008 126.528 208.576 125.449 207.694 124.569C206.848 123.688 205.768 123.238 204.49 123.238C203.212 123.238 202.114 123.688 201.232 124.569C200.368 125.449 199.936 126.546 199.936 127.823C199.936 129.099 200.368 130.178 201.232 131.077C202.114 131.957 203.194 132.389 204.49 132.389Z" fill="url(#paint4_linear)"/>
<path d="M74.5237 132.82H73.9117L67.3234 118.168H68.0074L74.2177 131.903L80.41 118.168H81.0941L74.5237 132.82Z" fill="url(#paint5_linear)"/>
<path d="M83.4882 119.768C83.3802 119.642 83.3262 119.498 83.3262 119.318C83.3262 119.139 83.3802 118.995 83.4882 118.887C83.6142 118.761 83.7582 118.707 83.9382 118.707C84.1182 118.707 84.2622 118.761 84.3702 118.887C84.4962 118.995 84.5502 119.139 84.5502 119.318C84.5502 119.498 84.4782 119.66 84.3702 119.768C84.2622 119.876 84.1182 119.93 83.9382 119.93C83.7582 119.93 83.6142 119.876 83.4882 119.768ZM84.2622 132.748H83.6142V122.896H84.2622V132.748Z" fill="url(#paint6_linear)"/>
<path d="M92.8666 133C91.3366 133 90.0945 132.496 89.1224 131.49C88.1684 130.483 87.6824 129.26 87.6824 127.84C87.6824 126.42 88.1684 125.215 89.1404 124.191C90.1305 123.166 91.3726 122.645 92.8846 122.645C94.0187 122.645 95.0267 122.896 95.8728 123.418V124.101C94.9727 123.525 93.9827 123.256 92.9386 123.256C91.6606 123.256 90.5625 123.687 89.6625 124.568C88.7804 125.449 88.3484 126.528 88.3484 127.84C88.3484 129.135 88.7804 130.213 89.6625 131.094C90.5625 131.975 91.6606 132.406 92.9386 132.406C94.1807 132.406 95.2247 132.083 96.0888 131.454V132.119C95.1887 132.694 94.1267 133 92.8666 133Z" fill="url(#paint7_linear)"/>
<path d="M100.643 130.376V123.508H98.0328V122.897H100.643V119.625H101.291V122.897H105.125V123.508H101.291V130.214C101.291 131.67 101.939 132.407 103.235 132.407C103.793 132.407 104.369 132.245 104.981 131.904V132.533C104.513 132.857 103.883 133.018 103.127 133.018C102.335 133.018 101.723 132.785 101.291 132.335C100.859 131.886 100.643 131.203 100.643 130.376Z" fill="url(#paint8_linear)"/>
<path d="M108.617 131.472C107.645 130.465 107.159 129.243 107.159 127.823C107.159 126.402 107.645 125.198 108.599 124.173C109.589 123.148 110.849 122.627 112.38 122.627C113.91 122.627 115.152 123.148 116.106 124.173C117.078 125.18 117.564 126.402 117.564 127.823C117.564 129.243 117.078 130.447 116.106 131.472C115.152 132.479 113.91 132.982 112.38 132.982C110.849 132.982 109.589 132.479 108.617 131.472ZM112.362 132.389C113.658 132.389 114.72 131.957 115.566 131.077C116.448 130.196 116.88 129.099 116.88 127.823C116.88 126.528 116.448 125.449 115.566 124.569C114.72 123.688 113.64 123.238 112.362 123.238C111.083 123.238 109.985 123.688 109.103 124.569C108.239 125.449 107.807 126.546 107.807 127.823C107.807 129.099 108.239 130.178 109.103 131.077C109.985 131.957 111.065 132.389 112.362 132.389Z" fill="url(#paint9_linear)"/>
<path d="M121.326 132.748H120.678V122.897H121.326V125.036C121.65 124.407 122.172 123.867 122.892 123.382C123.63 122.879 124.458 122.627 125.358 122.627V123.274C124.44 123.274 123.612 123.544 122.892 124.083C122.154 124.622 121.632 125.252 121.326 125.971V132.748Z" fill="url(#paint10_linear)"/>
<path d="M127.77 119.768C127.662 119.642 127.608 119.498 127.608 119.318C127.608 119.139 127.662 118.995 127.77 118.887C127.896 118.761 128.04 118.707 128.22 118.707C128.4 118.707 128.544 118.761 128.652 118.887C128.778 118.995 128.832 119.139 128.832 119.318C128.832 119.498 128.76 119.66 128.652 119.768C128.544 119.876 128.4 119.93 128.22 119.93C128.04 119.93 127.896 119.876 127.77 119.768ZM128.544 132.748H127.896V122.896H128.544V132.748Z" fill="url(#paint11_linear)"/>
<path d="M135.691 132.999C134.647 132.999 133.747 132.73 132.973 132.172C132.217 131.615 131.839 130.824 131.839 129.799C131.839 128.846 132.235 128.091 133.009 127.516C133.765 126.923 134.755 126.617 135.961 126.617C137.383 126.617 138.733 126.995 140.011 127.768V126.204C140.011 125.251 139.687 124.514 139.057 124.01C138.409 123.507 137.509 123.255 136.321 123.255C135.061 123.255 133.945 123.615 132.937 124.316V123.633C133.891 122.986 135.043 122.662 136.411 122.662C137.707 122.662 138.733 122.968 139.489 123.561C140.245 124.154 140.641 125.053 140.641 126.222V130.752C140.641 131.22 140.749 131.597 140.947 131.849C141.145 132.118 141.415 132.244 141.775 132.244C141.991 132.244 142.171 132.208 142.333 132.118V132.676C142.189 132.766 141.973 132.802 141.667 132.802C141.217 132.802 140.821 132.64 140.515 132.334C140.209 132.029 140.047 131.579 140.011 131.004C138.931 132.334 137.491 132.999 135.691 132.999ZM135.889 132.388C136.717 132.388 137.509 132.19 138.247 131.777C138.985 131.381 139.579 130.878 140.047 130.267V128.415C138.787 127.588 137.509 127.175 136.177 127.175C135.061 127.175 134.179 127.408 133.531 127.894C132.883 128.379 132.559 129.008 132.559 129.799C132.559 130.662 132.883 131.309 133.531 131.759C134.143 132.172 134.935 132.388 135.889 132.388Z" fill="url(#paint12_linear)"/>
<g opacity="0.4">
<path opacity="0.4" d="M66.3694 132.748C29.7195 132.694 -0.0539293 102.887 7.3346e-05 66.2843C0.054076 29.6815 29.8996 -0.0538602 66.5494 7.3252e-05C103.199 0.0540067 132.973 29.8613 132.919 66.4641C132.883 95.4624 114.234 120.865 86.5484 129.638L84.1003 130.555L83.0742 129.369C77.6199 123.076 68.9795 114.357 59.835 105.116C44.6423 89.7814 28.9455 73.9249 25.4893 66.7338C23.2932 62.1674 23.2932 56.846 25.4893 51.7762C28.2075 45.502 33.9678 40.3064 40.5201 38.2209C49.3405 35.4164 58.485 38.5266 67.7194 47.4256C76.9179 38.5445 86.0984 35.4524 94.9368 38.2929C101.489 40.3963 107.231 45.5919 109.932 51.8841C112.11 56.9718 112.11 62.2753 109.896 66.8417C105.305 76.3339 96.7909 84.2442 86.0083 94.2758C83.8122 96.3253 81.5261 98.4467 79.168 100.676L76.0538 97.404C78.43 95.1567 80.7161 93.0174 82.9302 90.9679C93.3707 81.2599 101.615 73.6013 105.827 64.8821C107.915 60.5674 106.943 56.3965 105.773 53.6639C103.577 48.5402 98.897 44.2975 93.5507 42.5896C86.1884 40.2345 78.61 43.039 70.3836 51.129L67.7014 53.556L65.1093 51.183C56.8289 43.003 49.2685 40.1805 41.9062 42.5176C36.5599 44.2076 31.8617 48.4503 29.6475 53.556C28.4595 56.2887 27.4874 60.4415 29.5755 64.7742C32.7077 71.2822 48.8365 87.5701 63.0572 101.934C71.7156 110.672 79.906 118.941 85.4863 125.234C111.174 116.91 128.364 93.341 128.4 66.4461C128.436 32.3422 100.697 4.56644 66.5314 4.51251C32.3837 4.47655 4.5723 32.1804 4.5183 66.2843C4.4823 100.388 32.2217 128.182 66.3694 128.218C67.0894 128.218 67.8094 128.2 68.5295 128.182L68.6735 132.694C67.8995 132.73 67.1434 132.748 66.3694 132.748Z" fill="white"/>
</g>
<path d="M70.1315 109.125H68.4034L85.6303 71.1016H87.1964L104.423 109.125H102.641L97.4029 97.6369H75.3698L70.1315 109.125ZM86.3863 73.4207L76.0178 96.1267H96.8089L86.3863 73.4207Z" fill="url(#paint13_linear)"/>
<path d="M124.35 109.772C119.058 109.772 114.594 107.939 110.958 104.271C107.393 100.532 105.611 95.8576 105.611 90.2485C105.611 84.6754 107.393 80.0191 110.958 76.2798C114.558 72.5763 119.022 70.7246 124.35 70.7246C128.562 70.7246 132.199 71.7493 135.259 73.7988V75.6326C131.875 73.4033 128.256 72.2887 124.404 72.2887C119.58 72.2887 115.53 74.0146 112.254 77.4663C108.977 80.8461 107.339 85.1069 107.339 90.2485C107.339 95.4262 108.977 99.7049 112.254 103.085C115.566 106.5 119.634 108.208 124.458 108.208C128.958 108.208 132.865 106.86 136.177 104.163V106.105C132.973 108.55 129.03 109.772 124.35 109.772Z" fill="url(#paint14_linear)"/>
<path d="M140.281 109.125H138.553L155.78 71.1016H157.346L174.573 109.125H172.791L167.552 97.6369H145.519L140.281 109.125ZM156.536 73.4207L146.167 96.1267H166.958L156.536 73.4207Z" fill="url(#paint15_linear)"/>
<path d="M191.476 109.125H180.135V71.3711H191.476C197.56 71.3711 202.456 73.1149 206.164 76.6026C209.908 80.0544 211.781 84.6028 211.781 90.2478C211.781 95.8569 209.908 100.423 206.164 103.947C202.456 107.399 197.56 109.125 191.476 109.125ZM181.809 72.9352V107.56H191.044C196.912 107.56 201.538 105.978 204.922 102.814C208.342 99.6143 210.052 95.4254 210.052 90.2478C210.052 85.0702 208.342 80.8814 204.922 77.6813C201.538 74.5172 196.912 72.9352 191.044 72.9352H181.809Z" fill="url(#paint16_linear)"/>
<path d="M245.424 109.125H219.665V71.3711H244.506V72.9352H221.339V88.0365H240.564V89.6006H221.339V107.56H245.424V109.125Z" fill="url(#paint17_linear)"/>
<path d="M253.363 109.125H251.689V71.3711H253.417L268.645 91.2186L283.928 71.3711H285.602V109.125H283.928V74.0678L269.293 92.9984H268.051L253.363 74.0678V109.125Z" fill="url(#paint18_linear)"/>
<path d="M307.257 109.125H305.529V91.5422L290.786 71.3711H292.839L306.393 89.8703L319.948 71.3711H322L307.257 91.5422V109.125Z" fill="url(#paint19_linear)"/>
</g>
<defs>
<linearGradient id="paint0_linear" x1="105.563" y1="60.5004" x2="206.832" y2="190.77" gradientUnits="userSpaceOnUse">
<stop stop-color="#C88361"/>
<stop offset="0.5129" stop-color="#FED19E"/>
<stop offset="1" stop-color="#B16A43"/>
</linearGradient>
<linearGradient id="paint1_linear" x1="114.134" y1="53.8367" x2="215.404" y2="184.107" gradientUnits="userSpaceOnUse">
<stop stop-color="#C88361"/>
<stop offset="0.5129" stop-color="#FED19E"/>
<stop offset="1" stop-color="#B16A43"/>
</linearGradient>
<linearGradient id="paint2_linear" x1="120.62" y1="48.7942" x2="221.889" y2="179.064" gradientUnits="userSpaceOnUse">
<stop stop-color="#C88361"/>
<stop offset="0.5129" stop-color="#FED19E"/>
<stop offset="1" stop-color="#B16A43"/>
</linearGradient>
<linearGradient id="paint3_linear" x1="127.073" y1="43.7777" x2="228.342" y2="174.047" gradientUnits="userSpaceOnUse">
<stop stop-color="#C88361"/>
<stop offset="0.5129" stop-color="#FED19E"/>
<stop offset="1" stop-color="#B16A43"/>
</linearGradient>
<linearGradient id="paint4_linear" x1="134.48" y1="38.0206" x2="235.75" y2="168.29" gradientUnits="userSpaceOnUse">
<stop stop-color="#C88361"/>
<stop offset="0.5129" stop-color="#FED19E"/>
<stop offset="1" stop-color="#B16A43"/>
</linearGradient>
<linearGradient id="paint5_linear" x1="56.5536" y1="98.599" x2="157.823" y2="228.869" gradientUnits="userSpaceOnUse">
<stop stop-color="#C88361"/>
<stop offset="0.5129" stop-color="#FED19E"/>
<stop offset="1" stop-color="#B16A43"/>
</linearGradient>
<linearGradient id="paint6_linear" x1="60.4422" y1="95.5759" x2="161.712" y2="225.846" gradientUnits="userSpaceOnUse">
<stop stop-color="#C88361"/>
<stop offset="0.5129" stop-color="#FED19E"/>
<stop offset="1" stop-color="#B16A43"/>
</linearGradient>
<linearGradient id="paint7_linear" x1="64.9251" y1="92.0912" x2="166.194" y2="222.361" gradientUnits="userSpaceOnUse">
<stop stop-color="#C88361"/>
<stop offset="0.5129" stop-color="#FED19E"/>
<stop offset="1" stop-color="#B16A43"/>
</linearGradient>
<linearGradient id="paint8_linear" x1="71.5301" y1="86.9573" x2="172.799" y2="217.227" gradientUnits="userSpaceOnUse">
<stop stop-color="#C88361"/>
<stop offset="0.5129" stop-color="#FED19E"/>
<stop offset="1" stop-color="#B16A43"/>
</linearGradient>
<linearGradient id="paint9_linear" x1="77.1143" y1="82.6158" x2="178.384" y2="212.886" gradientUnits="userSpaceOnUse">
<stop stop-color="#C88361"/>
<stop offset="0.5129" stop-color="#FED19E"/>
<stop offset="1" stop-color="#B16A43"/>
</linearGradient>
<linearGradient id="paint10_linear" x1="83.8212" y1="77.4024" x2="185.09" y2="207.672" gradientUnits="userSpaceOnUse">
<stop stop-color="#C88361"/>
<stop offset="0.5129" stop-color="#FED19E"/>
<stop offset="1" stop-color="#B16A43"/>
</linearGradient>
<linearGradient id="paint11_linear" x1="88.0168" y1="74.1398" x2="189.286" y2="204.41" gradientUnits="userSpaceOnUse">
<stop stop-color="#C88361"/>
<stop offset="0.5129" stop-color="#FED19E"/>
<stop offset="1" stop-color="#B16A43"/>
</linearGradient>
<linearGradient id="paint12_linear" x1="91.9776" y1="71.0609" x2="193.247" y2="201.33" gradientUnits="userSpaceOnUse">
<stop stop-color="#C88361"/>
<stop offset="0.5129" stop-color="#FED19E"/>
<stop offset="1" stop-color="#B16A43"/>
</linearGradient>
<linearGradient id="paint13_linear" x1="73.9011" y1="85.1129" x2="175.17" y2="215.383" gradientUnits="userSpaceOnUse">
<stop stop-color="#C88361"/>
<stop offset="0.5129" stop-color="#FED19E"/>
<stop offset="1" stop-color="#B16A43"/>
</linearGradient>
<linearGradient id="paint14_linear" x1="102.599" y1="62.8041" x2="203.869" y2="193.074" gradientUnits="userSpaceOnUse">
<stop stop-color="#C88361"/>
<stop offset="0.5129" stop-color="#FED19E"/>
<stop offset="1" stop-color="#B16A43"/>
</linearGradient>
<linearGradient id="paint15_linear" x1="117.584" y1="51.1548" x2="218.853" y2="181.425" gradientUnits="userSpaceOnUse">
<stop stop-color="#C88361"/>
<stop offset="0.5129" stop-color="#FED19E"/>
<stop offset="1" stop-color="#B16A43"/>
</linearGradient>
<linearGradient id="paint16_linear" x1="144.491" y1="30.2375" x2="245.76" y2="160.507" gradientUnits="userSpaceOnUse">
<stop stop-color="#C88361"/>
<stop offset="0.5129" stop-color="#FED19E"/>
<stop offset="1" stop-color="#B16A43"/>
</linearGradient>
<linearGradient id="paint17_linear" x1="169.912" y1="10.4761" x2="271.181" y2="140.746" gradientUnits="userSpaceOnUse">
<stop stop-color="#C88361"/>
<stop offset="0.5129" stop-color="#FED19E"/>
<stop offset="1" stop-color="#B16A43"/>
</linearGradient>
<linearGradient id="paint18_linear" x1="192.677" y1="-7.22132" x2="293.946" y2="123.048" gradientUnits="userSpaceOnUse">
<stop stop-color="#C88361"/>
<stop offset="0.5129" stop-color="#FED19E"/>
<stop offset="1" stop-color="#B16A43"/>
</linearGradient>
<linearGradient id="paint19_linear" x1="220.773" y1="-29.063" x2="322.043" y2="101.207" gradientUnits="userSpaceOnUse">
<stop stop-color="#C88361"/>
<stop offset="0.5129" stop-color="#FED19E"/>
<stop offset="1" stop-color="#B16A43"/>
</linearGradient>
<clipPath id="clip0">
<rect width="322" height="133" fill="white"/>
</clipPath>
</defs>
</svg>
