<svg width="82" height="60" viewBox="0 0 82 60" fill="none" xmlns="http://www.w3.org/2000/svg">
<path d="M64.3517 60C57.3211 60 52.2275 57.482 49.0709 52.446C47.636 50.2878 46.4882 47.6259 45.6273 44.4604C44.7664 41.295 44.336 37.9856 44.336 34.5324C44.336 27.0504 46.2012 20.2878 49.9318 14.2446C53.8058 8.20145 59.4733 3.45324 66.9344 0L68.8714 3.88489C64.7104 5.61152 61.0516 8.27339 57.895 11.8705C54.8819 15.4676 53.0884 19.1367 52.5144 22.8777C52.084 24.6043 51.8688 26.259 51.8688 27.8417C51.8688 29.2806 52.084 30.6475 52.5144 31.9424C55.671 28.4892 59.832 26.7626 64.9974 26.7626C70.0192 26.7626 74.1085 28.2734 77.2651 31.295C80.4217 34.1727 82 38.2014 82 43.3813C82 48.2734 80.35 52.3022 77.0499 55.4676C73.7498 58.4892 69.5171 60 64.3517 60ZM20.0157 60C12.9851 60 7.89151 57.482 4.73491 52.446C3.30009 50.2878 2.15223 47.6259 1.29134 44.4604C0.430446 41.295 0 37.9856 0 34.5324C0 27.0504 1.86527 20.2878 5.5958 14.2446C9.46982 8.20145 15.1374 3.45324 22.5984 0L24.5354 3.88489C20.3745 5.61152 16.7157 8.27339 13.5591 11.8705C10.5459 15.4676 8.75241 19.1367 8.17848 22.8777C7.74803 24.6043 7.53281 26.259 7.53281 27.8417C7.53281 29.2806 7.74803 30.6475 8.17848 31.9424C11.3351 28.4892 15.4961 26.7626 20.6614 26.7626C25.6833 26.7626 29.7725 28.2734 32.9291 31.295C36.0857 34.1727 37.664 38.2014 37.664 43.3813C37.664 48.2734 36.014 52.3022 32.7139 55.4676C29.4138 58.4892 25.1811 60 20.0157 60Z" fill="#D39434"/>
</svg>
