<svg width="627" height="148" viewBox="0 0 627 148" fill="none" xmlns="http://www.w3.org/2000/svg">
<path d="M18.1718 147.109H16.7568L1.11719 112.208H2.75562L17.5016 144.951L32.2475 112.208H33.8859L18.1718 147.109Z" fill="url(#paint0_linear)"/>
<path d="M39.546 116.078C39.2481 115.78 39.1736 115.408 39.1736 114.962C39.1736 114.515 39.3225 114.218 39.546 113.92C39.8439 113.622 40.2162 113.474 40.6631 113.474C41.1099 113.474 41.4078 113.622 41.7057 113.92C42.0036 114.218 42.1526 114.515 42.1526 114.962C42.1526 115.408 42.0036 115.78 41.7057 116.078C41.4078 116.376 41.1099 116.45 40.6631 116.45C40.2162 116.45 39.7694 116.301 39.546 116.078ZM41.3333 146.96H39.7694V123.445H41.3333V146.96Z" fill="url(#paint1_linear)"/>
<path d="M61.8138 147.555C58.1645 147.555 55.1856 146.365 52.8769 143.909C50.5682 141.528 49.451 138.626 49.451 135.202C49.451 131.854 50.6426 128.952 52.9513 126.496C55.3345 124.04 58.3135 122.85 61.8883 122.85C64.5693 122.85 66.9525 123.445 68.9633 124.71V126.347C66.8036 125.008 64.4949 124.338 61.9627 124.338C58.9093 124.338 56.3027 125.38 54.1429 127.463C52.0576 129.547 51.015 132.151 51.015 135.277C51.015 138.328 52.0576 140.932 54.1429 143.016C56.3027 145.1 58.9093 146.141 61.9627 146.141C64.9417 146.141 67.3994 145.397 69.4846 143.835V145.397C67.3249 146.811 64.7928 147.555 61.8138 147.555Z" fill="url(#paint2_linear)"/>
<path d="M80.3579 141.304V124.933H74.1765V123.445H80.3579V115.631H81.9219V123.445H91.0822V124.859H81.9219V140.783C81.9219 144.281 83.4858 145.992 86.5393 145.992C87.8798 145.992 89.2204 145.62 90.7098 144.802V146.29C89.5927 147.034 88.1032 147.406 86.3158 147.406C84.454 147.406 82.9645 146.885 81.9219 145.769C80.8792 144.802 80.3579 143.239 80.3579 141.304Z" fill="url(#paint3_linear)"/>
<path d="M99.2745 143.909C96.9658 141.528 95.7742 138.626 95.7742 135.202C95.7742 131.854 96.8913 128.952 99.2 126.496C101.583 124.04 104.562 122.85 108.211 122.85C111.861 122.85 114.84 124.04 117.074 126.496C119.383 128.877 120.574 131.779 120.574 135.202C120.574 138.551 119.383 141.453 117.074 143.909C114.765 146.29 111.861 147.555 108.211 147.555C104.562 147.555 101.583 146.29 99.2745 143.909ZM108.211 146.067C111.265 146.067 113.797 145.025 115.882 142.942C117.968 140.858 119.01 138.253 119.01 135.202C119.01 132.151 117.968 129.547 115.882 127.463C113.871 125.38 111.339 124.263 108.211 124.263C105.158 124.263 102.551 125.305 100.466 127.463C98.3808 129.547 97.4126 132.151 97.4126 135.202C97.4126 138.253 98.4552 140.784 100.466 142.942C102.551 145.025 105.158 146.067 108.211 146.067Z" fill="url(#paint4_linear)"/>
<path d="M129.511 146.96H127.947V123.445H129.511V128.58C130.256 127.091 131.522 125.752 133.235 124.636C135.022 123.445 136.958 122.85 139.118 122.85V124.412C136.958 124.412 134.948 125.082 133.235 126.347C131.447 127.612 130.256 129.175 129.511 130.886V146.96Z" fill="url(#paint5_linear)"/>
<path d="M144.853 116.078C144.555 115.78 144.48 115.408 144.48 114.962C144.48 114.515 144.629 114.218 144.853 113.92C145.151 113.622 145.523 113.474 145.97 113.474C146.417 113.474 146.715 113.622 147.013 113.92C147.31 114.218 147.459 114.515 147.459 114.962C147.459 115.408 147.31 115.78 147.013 116.078C146.715 116.376 146.417 116.45 145.97 116.45C145.523 116.45 145.151 116.301 144.853 116.078ZM146.715 146.96H145.151V123.445H146.715V146.96Z" fill="url(#paint6_linear)"/>
<path d="M163.695 147.555C161.237 147.555 159.077 146.886 157.216 145.546C155.428 144.207 154.534 142.346 154.534 139.891C154.534 137.658 155.428 135.798 157.29 134.458C159.077 133.045 161.461 132.3 164.365 132.3C167.716 132.3 170.919 133.193 173.972 135.054V131.407C173.972 129.101 173.228 127.389 171.664 126.198C170.174 125.008 167.94 124.412 165.184 124.412C162.205 124.412 159.524 125.231 157.141 126.943V125.305C159.375 123.743 162.131 122.999 165.408 122.999C168.461 122.999 170.919 123.743 172.781 125.157C174.568 126.57 175.536 128.728 175.536 131.482V142.272C175.536 143.388 175.76 144.281 176.281 144.876C176.728 145.472 177.398 145.844 178.217 145.844C178.739 145.844 179.185 145.769 179.558 145.546V146.886C179.26 147.109 178.664 147.183 177.994 147.183C176.877 147.183 175.983 146.811 175.238 146.067C174.494 145.323 174.121 144.281 174.047 142.942C171.44 145.918 168.014 147.555 163.695 147.555ZM164.142 146.067C166.152 146.067 168.014 145.621 169.727 144.653C171.515 143.686 172.93 142.495 173.972 141.007V136.616C170.993 134.607 167.94 133.64 164.737 133.64C162.056 133.64 159.971 134.235 158.407 135.351C156.843 136.468 156.098 138.03 156.098 139.891C156.098 141.974 156.843 143.463 158.407 144.579C160.046 145.546 161.907 146.067 164.142 146.067Z" fill="url(#paint7_linear)"/>
<path d="M201.528 146.96H199.964V112.283H215.231C218.434 112.283 220.966 113.101 222.828 114.664C224.689 116.227 225.583 118.459 225.583 121.213C225.583 123.743 224.838 125.752 223.274 127.389C221.71 128.952 219.551 129.919 216.795 130.142L228.339 146.96H226.402L214.933 130.142H201.528V146.96ZM201.528 113.697V128.728H215.157C217.987 128.728 220.146 128.059 221.71 126.794C223.274 125.454 224.019 123.594 224.019 121.213C224.019 118.831 223.274 116.971 221.71 115.631C220.146 114.292 217.987 113.697 215.157 113.697H201.528Z" fill="url(#paint8_linear)"/>
<path d="M244.499 147.556C241.52 147.556 239.212 146.737 237.648 145.025C236.084 143.314 235.339 140.933 235.339 137.733V123.445H236.903V137.361C236.903 143.165 239.584 146.067 244.872 146.067C246.883 146.067 248.745 145.472 250.606 144.356C252.468 143.24 253.883 141.9 254.777 140.412V123.445H256.341V146.886H254.702V142.495C253.585 143.984 252.096 145.174 250.308 146.067C248.521 147.035 246.585 147.556 244.499 147.556Z" fill="url(#paint9_linear)"/>
<path d="M272.874 147.555C271.012 147.555 269.225 147.332 267.363 146.811C265.576 146.29 264.161 145.695 263.193 144.951V143.239C266.023 145.174 269.225 146.141 272.874 146.141C275.332 146.141 277.268 145.695 278.758 144.728C280.247 143.835 280.992 142.57 280.992 141.007C280.992 139.221 279.726 137.881 277.194 136.914C276.598 136.691 274.96 136.244 272.353 135.575C270.417 135.054 268.778 134.533 267.587 134.012C265.203 132.896 263.937 131.258 263.937 128.952C263.937 127.091 264.757 125.603 266.321 124.487C267.885 123.371 270.119 122.85 272.874 122.85C276.3 122.85 279.13 123.594 281.29 125.008V126.645C278.832 125.082 276.077 124.263 273.023 124.263C270.64 124.263 268.778 124.71 267.438 125.529C266.172 126.422 265.501 127.538 265.501 128.952C265.501 130.514 266.246 131.705 267.81 132.449C268.629 132.821 269.3 133.119 269.97 133.342L272.874 134.161L274.364 134.533L275.928 134.905C277.417 135.277 278.385 135.649 278.758 135.872C279.949 136.468 280.694 136.914 280.992 137.286C281.96 138.328 282.407 139.519 282.407 140.858C282.407 142.942 281.513 144.504 279.651 145.695C277.939 146.96 275.63 147.555 272.874 147.555Z" fill="url(#paint10_linear)"/>
<path d="M297.525 147.555C295.663 147.555 293.876 147.332 292.014 146.811C290.227 146.29 288.812 145.695 287.844 144.951V143.239C290.674 145.174 293.876 146.141 297.525 146.141C299.983 146.141 301.919 145.695 303.409 144.728C304.898 143.835 305.643 142.57 305.643 141.007C305.643 139.221 304.377 137.881 301.845 136.914C301.249 136.691 299.611 136.244 297.004 135.575C295.068 135.054 293.429 134.533 292.238 134.012C289.854 132.896 288.588 131.258 288.588 128.952C288.588 127.091 289.408 125.603 290.972 124.487C292.536 123.371 294.77 122.85 297.525 122.85C300.951 122.85 303.781 123.594 305.941 125.008V126.645C303.483 125.082 300.728 124.263 297.674 124.263C295.291 124.263 293.429 124.71 292.089 125.529C290.823 126.422 290.152 127.538 290.152 128.952C290.152 130.514 290.897 131.705 292.461 132.449C293.28 132.821 293.951 133.119 294.621 133.342L297.525 134.161L299.015 134.533L300.579 134.905C302.068 135.277 303.036 135.649 303.409 135.872C304.6 136.468 305.345 136.914 305.643 137.286C306.611 138.328 307.058 139.519 307.058 140.858C307.058 142.942 306.164 144.504 304.302 145.695C302.59 146.96 300.281 147.555 297.525 147.555Z" fill="url(#paint11_linear)"/>
<path d="M316.516 143.909C314.207 141.528 313.016 138.626 313.016 135.202C313.016 131.854 314.133 128.952 316.442 126.496C318.825 124.04 321.804 122.85 325.453 122.85C329.102 122.85 332.081 124.04 334.316 126.496C336.624 128.877 337.816 131.779 337.816 135.202C337.816 138.551 336.624 141.453 334.316 143.909C332.007 146.29 329.102 147.555 325.453 147.555C321.804 147.555 318.825 146.29 316.516 143.909ZM325.453 146.067C328.507 146.067 331.039 145.025 333.124 142.942C335.209 140.858 336.252 138.253 336.252 135.202C336.252 132.151 335.209 129.547 333.124 127.463C331.113 125.38 328.581 124.263 325.453 124.263C322.325 124.263 319.793 125.305 317.708 127.463C315.622 129.547 314.654 132.151 314.654 135.202C314.654 138.253 315.697 140.784 317.708 142.942C319.793 145.025 322.4 146.067 325.453 146.067Z" fill="url(#paint12_linear)"/>
<path d="M85.9434 86.7593L94.0612 89.1406V90.4056H63.3777V89.215L71.7933 86.8337L61.069 60.9374H22.6402L11.4691 86.7593L22.6402 89.1406V90.4056H0V89.215L8.63903 86.8337L45.9507 1.40576H50.1213L85.9434 86.7593ZM23.8318 58.2585H59.9519L42.3759 15.3957L23.8318 58.2585Z" fill="url(#paint13_linear)"/>
<path d="M167.791 78.35C159.375 86.9077 148.427 91.2237 134.799 91.2237C108.062 91.2237 90.8588 73.9595 90.8588 45.9796C90.8588 18.0742 108.211 0.661133 134.277 0.661133C143.959 0.661133 153.864 3.0424 160.79 8.32584L166.078 5.12601L167.344 6.39106V23.9529H165.184C161.46 6.24223 145.076 3.63772 136.809 3.63772C117.297 3.63772 105.232 17.9997 105.232 45.4587C105.232 70.5364 116.18 87.2053 139.491 87.2053C149.321 87.2053 159.003 84.3776 166.376 76.9361L167.791 78.35Z" fill="url(#paint14_linear)"/>
<path d="M256.713 86.7593L264.831 89.1406V90.4056H234.147V89.215L242.563 86.8337L231.913 60.9374H193.484L182.313 86.7593L193.484 89.1406V90.4056H170.844V89.215L179.483 86.8337L216.795 1.40576H220.966L256.713 86.7593ZM194.602 58.2585H230.722L213.146 15.3957L194.602 58.2585Z" fill="url(#paint15_linear)"/>
<path d="M304.302 1.40576C329.773 1.40576 347.572 18.2235 347.572 45.9057C347.572 73.8856 329.773 90.4056 304.302 90.4056H263.714V89.3638L271.981 87.3546V4.45676L263.714 2.52198V1.40576H304.302ZM285.758 3.93586V87.8755H304.377C321.208 87.8755 333.273 74.0344 333.273 46.0545C333.273 17.9258 321.208 3.93586 304.377 3.93586H285.758Z" fill="url(#paint16_linear)"/>
<path d="M413.258 87.95L419.216 75.0019H421.227V90.5545H351.519V89.5127L359.786 87.5035V4.45676L351.519 2.5964V1.40576H420.036V17.0328H418.025L412.067 3.93586H373.638V43.078H404.694L407.375 33.1808H409.311V55.7285H407.375L404.694 45.8313H373.638V87.95H413.258Z" fill="url(#paint17_linear)"/>
<path d="M530.63 86.7593L538.524 89.1406V90.4057H508.735V89.215L517.001 86.8338L511.639 13.1633L478.945 90.4801H474.774L441.559 13.0144L436.122 87.057L443.867 89.4383V90.4801H425.174V89.4383L433.441 87.057L439.399 5.12649L431.132 2.74522V1.40576H450.57L482.371 76.4157L513.948 1.40576H532.641V2.67081L524.821 5.12649L530.63 86.7593Z" fill="url(#paint18_linear)"/>
<path d="M586.858 49.0311L615.01 5.12649L604.285 2.74522V1.40576H626.925V2.67081L617.989 5.12649L588.199 51.7844V86.7593L596.093 89.1406V90.4056H566.303V89.215L574.57 86.8337V51.8589L544.78 5.12649L536.886 2.74522V1.40576H567.569V2.67081L559.154 5.12649L586.858 49.0311Z" fill="url(#paint19_linear)"/>
<defs>
<linearGradient id="paint0_linear" x1="15.1192" y1="127.201" x2="325.557" y2="-12.733" gradientUnits="userSpaceOnUse">
<stop stop-color="#C78261"/>
<stop offset="0.5223" stop-color="#FCD09C"/>
<stop offset="1" stop-color="#C6865B"/>
</linearGradient>
<linearGradient id="paint1_linear" x1="20.5718" y1="139.298" x2="331.009" y2="-0.636365" gradientUnits="userSpaceOnUse">
<stop stop-color="#C78261"/>
<stop offset="0.5223" stop-color="#FCD09C"/>
<stop offset="1" stop-color="#C6865B"/>
</linearGradient>
<linearGradient id="paint2_linear" x1="26.0327" y1="151.412" x2="336.47" y2="11.4781" gradientUnits="userSpaceOnUse">
<stop stop-color="#C78261"/>
<stop offset="0.5223" stop-color="#FCD09C"/>
<stop offset="1" stop-color="#C6865B"/>
</linearGradient>
<linearGradient id="paint3_linear" x1="28.4421" y1="156.757" x2="338.88" y2="16.8224" gradientUnits="userSpaceOnUse">
<stop stop-color="#C78261"/>
<stop offset="0.5223" stop-color="#FCD09C"/>
<stop offset="1" stop-color="#C6865B"/>
</linearGradient>
<linearGradient id="paint4_linear" x1="33.8172" y1="168.681" x2="344.255" y2="28.7475" gradientUnits="userSpaceOnUse">
<stop stop-color="#C78261"/>
<stop offset="0.5223" stop-color="#FCD09C"/>
<stop offset="1" stop-color="#C6865B"/>
</linearGradient>
<linearGradient id="paint5_linear" x1="37.2843" y1="176.374" x2="347.723" y2="36.4396" gradientUnits="userSpaceOnUse">
<stop stop-color="#C78261"/>
<stop offset="0.5223" stop-color="#FCD09C"/>
<stop offset="1" stop-color="#C6865B"/>
</linearGradient>
<linearGradient id="paint6_linear" x1="38.3406" y1="178.716" x2="348.778" y2="38.7824" gradientUnits="userSpaceOnUse">
<stop stop-color="#C78261"/>
<stop offset="0.5223" stop-color="#FCD09C"/>
<stop offset="1" stop-color="#C6865B"/>
</linearGradient>
<linearGradient id="paint7_linear" x1="44.2321" y1="191.772" x2="354.67" y2="51.8376" gradientUnits="userSpaceOnUse">
<stop stop-color="#C78261"/>
<stop offset="0.5223" stop-color="#FCD09C"/>
<stop offset="1" stop-color="#C6865B"/>
</linearGradient>
<linearGradient id="paint8_linear" x1="49.5733" y1="203.636" x2="360.012" y2="63.7024" gradientUnits="userSpaceOnUse">
<stop stop-color="#C78261"/>
<stop offset="0.5223" stop-color="#FCD09C"/>
<stop offset="1" stop-color="#C6865B"/>
</linearGradient>
<linearGradient id="paint9_linear" x1="57.0184" y1="220.153" x2="367.456" y2="80.2182" gradientUnits="userSpaceOnUse">
<stop stop-color="#C78261"/>
<stop offset="0.5223" stop-color="#FCD09C"/>
<stop offset="1" stop-color="#C6865B"/>
</linearGradient>
<linearGradient id="paint10_linear" x1="61.6018" y1="230.319" x2="372.039" y2="90.386" gradientUnits="userSpaceOnUse">
<stop stop-color="#C78261"/>
<stop offset="0.5223" stop-color="#FCD09C"/>
<stop offset="1" stop-color="#C6865B"/>
</linearGradient>
<linearGradient id="paint11_linear" x1="65.7596" y1="239.544" x2="376.197" y2="99.61" gradientUnits="userSpaceOnUse">
<stop stop-color="#C78261"/>
<stop offset="0.5223" stop-color="#FCD09C"/>
<stop offset="1" stop-color="#C6865B"/>
</linearGradient>
<linearGradient id="paint12_linear" x1="70.4583" y1="249.969" x2="380.896" y2="110.035" gradientUnits="userSpaceOnUse">
<stop stop-color="#C78261"/>
<stop offset="0.5223" stop-color="#FCD09C"/>
<stop offset="1" stop-color="#C6865B"/>
</linearGradient>
<linearGradient id="paint13_linear" x1="19.7053" y1="71.5923" x2="464.944" y2="-155.787" gradientUnits="userSpaceOnUse">
<stop stop-color="#C78261"/>
<stop offset="0.5223" stop-color="#FCD09C"/>
<stop offset="1" stop-color="#C6865B"/>
</linearGradient>
<linearGradient id="paint14_linear" x1="33.0903" y1="97.8015" x2="478.329" y2="-129.578" gradientUnits="userSpaceOnUse">
<stop stop-color="#C78261"/>
<stop offset="0.5223" stop-color="#FCD09C"/>
<stop offset="1" stop-color="#C6865B"/>
</linearGradient>
<linearGradient id="paint15_linear" x1="54.9929" y1="140.69" x2="500.232" y2="-86.6889" gradientUnits="userSpaceOnUse">
<stop stop-color="#C78261"/>
<stop offset="0.5223" stop-color="#FCD09C"/>
<stop offset="1" stop-color="#C6865B"/>
</linearGradient>
<linearGradient id="paint16_linear" x1="65.1717" y1="160.622" x2="510.41" y2="-66.7575" gradientUnits="userSpaceOnUse">
<stop stop-color="#C78261"/>
<stop offset="0.5223" stop-color="#FCD09C"/>
<stop offset="1" stop-color="#C6865B"/>
</linearGradient>
<linearGradient id="paint17_linear" x1="85.0743" y1="199.594" x2="530.313" y2="-27.7852" gradientUnits="userSpaceOnUse">
<stop stop-color="#C78261"/>
<stop offset="0.5223" stop-color="#FCD09C"/>
<stop offset="1" stop-color="#C6865B"/>
</linearGradient>
<linearGradient id="paint18_linear" x1="105.4" y1="239.395" x2="550.639" y2="12.0158" gradientUnits="userSpaceOnUse">
<stop stop-color="#C78261"/>
<stop offset="0.5223" stop-color="#FCD09C"/>
<stop offset="1" stop-color="#C6865B"/>
</linearGradient>
<linearGradient id="paint19_linear" x1="122.269" y1="272.424" x2="567.507" y2="45.0453" gradientUnits="userSpaceOnUse">
<stop stop-color="#C78261"/>
<stop offset="0.5223" stop-color="#FCD09C"/>
<stop offset="1" stop-color="#C6865B"/>
</linearGradient>
</defs>
</svg>
