<svg width="250" height="250" viewBox="0 0 250 250" fill="none" xmlns="http://www.w3.org/2000/svg">
  <circle cx="125" cy="125" r="125"/>
  <path d="M124.404 172.78V124.553L166.029 100.633V148.86L124.404 172.78ZM126.214 125.587V169.935L164.348 147.826V103.477L126.214 125.587Z"  />
  <path d="M125.887 124.774L125.757 124.999L165.704 147.962L165.834 147.737L125.887 124.774Z"  />
  <path d="M164.865 102.831L125.05 79.8166L125.438 78.1357L165.123 101.021L165.382 102.055L164.865 102.831Z"  />
  <path d="M86.2696 102.831L85.8818 102.055L86.0111 101.021L125.438 78.1357L125.826 79.8166L86.2696 102.831Z"  />
  <path d="M86.0111 148.343L85.8818 148.214L125.309 125.328V79.04H125.567L125.438 125.457L86.0111 148.343Z"  />
  <path d="M126.084 172.78L84.9771 148.86V100.633L126.214 124.682L126.084 172.78ZM86.6575 147.955L124.404 169.935V125.587L86.6575 103.477V147.955Z"  />
  <path d="M119.104 37.0186V35.8549L120.267 36.3721V36.8893C120.247 37.0425 120.273 37.1982 120.343 37.3364C120.412 37.4746 120.52 37.5891 120.655 37.665C120.784 37.9236 121.043 37.9236 121.431 37.9236H122.594C122.747 37.9436 122.903 37.9173 123.041 37.8482C123.179 37.7791 123.294 37.6703 123.37 37.5357C123.463 37.4308 123.534 37.3079 123.579 37.1745C123.623 37.0411 123.64 36.9001 123.628 36.76V33.0105H121.301C121.001 33.0446 120.696 33.0163 120.407 32.9273C120.118 32.8384 119.85 32.6906 119.621 32.4933C119.383 32.2811 119.192 32.0225 119.059 31.7334C118.925 31.4443 118.853 31.1309 118.845 30.8125V26.158H120.009L120.267 31.0711C120.293 31.346 120.381 31.6114 120.526 31.8469L121.301 32.1055H123.628L123.24 25.8994H124.404L124.792 36.76C124.821 37.3635 124.638 37.9581 124.274 38.4408C124.056 38.6611 123.793 38.8326 123.503 38.9441C123.214 39.0555 122.904 39.1043 122.594 39.0873H121.431C121.13 39.1298 120.823 39.1056 120.533 39.0162C120.242 38.9268 119.975 38.7745 119.75 38.5701C119.338 38.159 119.105 37.601 119.104 37.0186Z"  />
  <path d="M131.513 26.0287H132.677C133.299 26.0237 133.899 26.2547 134.357 26.6752C134.568 26.9207 134.713 27.2149 134.781 27.531C134.849 27.8471 134.836 28.1752 134.745 28.4853V31.3298C134.772 31.5341 134.737 31.7417 134.645 31.926C134.552 32.1103 134.407 32.2628 134.228 32.3641C134.09 32.4945 133.928 32.596 133.75 32.6626C133.572 32.7292 133.383 32.7596 133.194 32.752C133.592 32.7847 133.963 32.9699 134.228 33.2692C134.361 33.4019 134.455 33.5683 134.501 33.7505C134.546 33.9327 134.541 34.1239 134.486 34.3035V37.148C134.497 37.4692 134.432 37.7883 134.297 38.08C134.163 38.3718 133.962 38.6282 133.711 38.8288C133.485 39.0282 133.213 39.1681 132.92 39.2359C132.626 39.3036 132.321 39.297 132.03 39.2167H130.867C130.564 39.2276 130.263 39.1623 129.992 39.0268C129.721 38.8912 129.489 38.6898 129.316 38.4409C129.119 38.2115 128.971 37.9437 128.882 37.6545C128.793 37.3653 128.765 37.0608 128.799 36.7601V36.2429L130.091 35.7258V36.8894C130.079 37.0295 130.096 37.1706 130.141 37.3039C130.185 37.4373 130.256 37.5602 130.35 37.6652C130.426 37.7997 130.54 37.9086 130.678 37.9777C130.817 38.0468 130.972 38.073 131.126 38.0531H132.289C132.418 38.1026 132.558 38.1167 132.694 38.094C132.831 38.0713 132.959 38.0125 133.065 37.9238C133.289 37.7248 133.428 37.4469 133.452 37.148V34.4328C133.452 34.045 133.452 33.7864 133.194 33.6571C133.14 33.5329 133.049 33.4287 132.933 33.3591C132.817 33.2896 132.682 33.2581 132.547 33.2692H130.738V31.9763H132.16C132.547 31.9763 132.806 31.9763 132.935 31.7177C133.07 31.6417 133.179 31.5273 133.248 31.3891C133.317 31.2508 133.343 31.0951 133.323 30.9419V28.356C133.344 28.2155 133.331 28.072 133.286 27.9373C133.241 27.8025 133.165 27.6802 133.065 27.5803L132.418 27.3217H131.126L130.35 27.5803C130.256 27.6852 130.185 27.8081 130.141 27.9415C130.096 28.0749 130.079 28.2159 130.091 28.356V29.5197L128.799 30.0368V28.0974C128.968 27.4827 129.331 26.9388 129.833 26.5459C130.304 26.1603 130.907 25.9747 131.513 26.0287Z"  />
  <path d="M140.821 27.0629L139.787 33.0106L143.148 33.5278L144.182 27.7094H145.345L143.019 40.6392L141.855 40.3806L142.889 34.5622L139.658 34.045L138.623 39.8634L137.46 39.6049L139.658 26.9336L140.821 27.0629Z"  />
  <path d="M151.421 30.4254L152.067 29.9082H153.36L152.326 43.2253L151.033 42.8375L151.292 39.7344L148.448 38.9587L147.155 41.6738L145.862 41.286L151.421 30.4254ZM151.55 38.5708L152.067 31.7183L148.965 37.9243L151.55 38.5708Z"  />
  <path d="M158.143 32.6242L158.66 31.5898L164.219 33.7878L163.702 34.8221L161.504 33.9171L157.238 45.036L156.075 44.6482L160.47 33.5292L158.143 32.6242Z"  />
  <path d="M161.892 46.9759L167.838 35.3389L168.872 35.8561L166.157 41.1574L168.096 42.1918C168.678 42.4403 169.141 42.9035 169.389 43.4848C169.47 43.7883 169.489 44.1052 169.445 44.4163C169.401 44.7274 169.294 45.0263 169.131 45.295L167.967 47.4931C167.719 48.0744 167.256 48.5375 166.675 48.7861C166.101 48.8918 165.509 48.8007 164.994 48.5275L161.892 46.9759ZM165.64 42.1918L163.443 46.4587L165.511 47.4931H166.287C166.437 47.4421 166.573 47.3572 166.685 47.2451C166.797 47.133 166.882 46.9967 166.933 46.8466L168.096 44.5192C168.2 44.2744 168.245 44.0086 168.226 43.7434C168.175 43.5933 168.09 43.4569 167.978 43.3448C167.866 43.2327 167.729 43.1479 167.579 43.0969L165.64 42.1918Z"  />
  <path d="M181.54 43.2266L184.384 45.2953C184.649 45.4618 184.87 45.6898 185.027 45.96C185.185 46.2302 185.275 46.5344 185.289 46.8469C185.341 47.1387 185.334 47.4381 185.267 47.7269C185.2 48.0158 185.076 48.2882 184.901 48.5277L183.738 49.95L183.221 48.7863L183.867 47.752C183.968 47.652 184.044 47.5297 184.089 47.3949C184.134 47.2602 184.147 47.1167 184.126 46.9762C184.137 46.8414 184.105 46.7065 184.036 46.5905C183.966 46.4746 183.862 46.3833 183.738 46.3297L181.799 44.9074L179.084 48.7863L180.894 50.0793C181.159 50.2458 181.379 50.4738 181.537 50.744C181.695 51.0141 181.784 51.3184 181.799 51.6309C181.851 51.9227 181.843 52.2221 181.777 52.5109C181.71 52.7998 181.586 53.0722 181.411 53.3117L179.86 55.3805C179.693 55.621 179.479 55.8257 179.231 55.9824C178.983 56.139 178.707 56.2446 178.418 56.2928C178.129 56.341 177.833 56.3308 177.548 56.263C177.263 56.1951 176.994 56.0709 176.757 55.8977L173.914 53.8289L181.54 43.2266ZM175.594 53.5703L177.404 54.8633C177.504 54.9642 177.626 55.0403 177.761 55.0852C177.896 55.1301 178.039 55.1427 178.179 55.1219C178.478 55.0974 178.756 54.9584 178.955 54.734L180.377 52.5359C180.478 52.436 180.554 52.3137 180.599 52.1789C180.644 52.0441 180.656 51.9007 180.636 51.7602C180.647 51.6254 180.615 51.4905 180.546 51.3745C180.476 51.2585 180.372 51.1673 180.248 51.1137L178.309 49.6914L175.594 53.5703Z"  />
  <path d="M188.262 51.1131C188.455 50.8853 188.691 50.699 188.958 50.5656C189.225 50.4323 189.516 50.3546 189.813 50.3373C190.123 50.3203 190.433 50.3691 190.723 50.4805C191.013 50.5919 191.275 50.7634 191.494 50.9838L192.399 51.8888C192.664 52.0553 192.884 52.2833 193.042 52.5535C193.199 52.8236 193.289 53.1279 193.304 53.4403C193.259 54.0522 193.034 54.6371 192.657 55.1212L186.84 61.4565C186.419 61.8988 185.881 62.2126 185.289 62.3616C184.672 62.3436 184.079 62.1156 183.609 61.7151L182.704 60.8101C182.217 60.4257 181.894 59.8714 181.799 59.2586C181.817 58.6411 182.045 58.0482 182.445 57.5777L188.262 51.1131ZM183.479 59.905L184.384 60.8101C184.484 60.911 184.606 60.9871 184.741 61.032C184.876 61.0769 185.019 61.0895 185.16 61.0687C185.459 61.0442 185.737 60.9052 185.935 60.6808L191.752 54.2161C192.011 53.9575 192.011 53.8282 192.011 53.4403C192.022 53.3056 191.991 53.1707 191.921 53.0547C191.852 52.9387 191.747 52.8475 191.623 52.7939L190.718 51.8888C190.638 51.7549 190.524 51.6442 190.388 51.5673C190.252 51.4904 190.099 51.4499 189.943 51.4499C189.787 51.4499 189.633 51.4904 189.497 51.5673C189.361 51.6442 189.248 51.7549 189.167 51.8888L183.35 58.3535C183.249 58.4534 183.173 58.5757 183.128 58.7105C183.083 58.8453 183.071 58.9887 183.092 59.1293C183.116 59.4282 183.255 59.7061 183.479 59.905Z"  />
  <path d="M187.1 64.8167L188.392 64.4288L188.651 64.8167H189.168L196.019 58.6107C196.238 58.3904 196.5 58.2189 196.79 58.1074C197.08 57.996 197.39 57.9472 197.7 57.9642C197.997 57.9815 198.288 58.0592 198.555 58.1926C198.822 58.326 199.058 58.5122 199.251 58.74L201.319 61.1965L191.624 69.8591L190.848 68.954L199.639 61.0672L198.346 59.5157C198.147 59.2913 197.869 59.1524 197.57 59.1279L196.795 59.3865L189.814 65.7217C189.523 65.9639 189.159 66.1005 188.78 66.1096C188.442 66.0922 188.121 65.9547 187.875 65.7217L187.1 64.8167Z"  />
  <path d="M193.821 72.5756L204.421 64.9473L205.067 65.8523L200.284 69.3433L201.577 71.1534C201.908 71.6521 202.087 72.2358 202.094 72.8342C201.954 73.462 201.585 74.0152 201.06 74.3857L198.992 75.808C198.778 76.0299 198.512 76.1939 198.218 76.2844C197.924 76.3749 197.612 76.3889 197.311 76.3251C197.009 76.277 196.723 76.1582 196.476 75.9784C196.229 75.7987 196.028 75.5631 195.889 75.2908L193.821 72.5756ZM199.25 70.119L195.501 72.8342L196.794 74.6443L197.44 75.1615C197.581 75.1823 197.724 75.1697 197.859 75.1248C197.994 75.0799 198.116 75.0039 198.216 74.9029L200.413 73.3514C200.538 73.2977 200.642 73.2065 200.711 73.0905C200.781 72.9746 200.812 72.8397 200.801 72.7049C200.839 72.5742 200.848 72.4366 200.825 72.3022C200.803 72.1679 200.75 72.0404 200.672 71.9291L199.25 70.119Z"  />
  <path d="M211.013 74.7727L201.318 80.0738C201.059 80.2031 200.93 80.3324 200.93 80.591C200.911 80.7733 200.957 80.9565 201.059 81.1082L201.706 82.4012L212.047 76.7121L212.694 77.7465L202.352 83.4356L203.386 85.375L213.728 79.6859L214.245 80.7203L202.869 87.0559L199.896 81.6254C199.779 81.4095 199.707 81.1721 199.685 80.9276C199.663 80.6831 199.691 80.4366 199.767 80.2031C199.836 79.9767 199.953 79.7675 200.109 79.5892C200.265 79.4109 200.456 79.2677 200.672 79.1688L210.496 73.7383L211.013 74.7727Z"  />
  <path d="M216.443 85.2461L218.382 90.1597L217.348 90.5476L215.796 86.7978L211.401 88.6081L212.435 91.1942H211.531C211.255 91.0485 211.03 90.8232 210.884 90.5476L210.238 88.8667L205.843 90.6769L207.394 94.4268L206.36 94.9441L204.292 90.0304L216.443 85.2461Z"  />
  <path d="M213.47 116.407H214.634L214.117 117.571H213.599L212.824 117.829C212.68 118.065 212.591 118.33 212.565 118.605V119.898C212.554 120.033 212.586 120.168 212.655 120.284C212.725 120.4 212.829 120.491 212.953 120.545C213.082 120.804 213.341 120.804 213.729 120.804L217.478 120.545L217.219 118.347C217.19 117.743 217.373 117.148 217.736 116.665C218.199 116.234 218.788 115.963 219.417 115.889L224.199 115.631V116.795L219.287 117.183L218.512 117.441C218.433 117.553 218.381 117.68 218.358 117.814C218.336 117.949 218.344 118.086 218.382 118.217V120.545L224.199 120.157V121.321L213.341 121.967C213.05 122.037 212.747 122.038 212.455 121.971C212.164 121.903 211.892 121.769 211.66 121.58C211.24 121.121 211.009 120.52 211.014 119.898V118.735C210.96 118.128 211.146 117.525 211.531 117.053C212.081 116.615 212.768 116.386 213.47 116.407Z"  />
  <path d="M224.845 128.561V129.724C224.85 130.346 224.619 130.947 224.199 131.405C223.728 131.791 223.125 131.977 222.518 131.922H219.674C219.485 131.93 219.296 131.9 219.118 131.833C218.941 131.766 218.778 131.665 218.64 131.535C218.379 131.204 218.242 130.792 218.252 130.371C218.279 130.575 218.244 130.783 218.152 130.967C218.06 131.151 217.915 131.304 217.735 131.405C217.598 131.536 217.435 131.637 217.257 131.704C217.08 131.77 216.891 131.801 216.701 131.793H213.857C213.275 131.792 212.717 131.559 212.306 131.147C211.886 130.688 211.655 130.088 211.66 129.466V128.043C211.678 127.426 211.906 126.833 212.306 126.362C212.777 125.977 213.38 125.791 213.987 125.845H214.504L215.021 127.138H213.857L213.082 127.397C212.937 127.632 212.849 127.898 212.823 128.173V129.466C212.849 129.741 212.937 130.006 213.082 130.241L213.857 130.5H216.572L217.348 130.241C217.482 130.166 217.591 130.051 217.66 129.913C217.729 129.775 217.755 129.619 217.735 129.466V128.043H218.899V129.466C218.899 129.854 218.899 130.112 219.157 130.241C219.233 130.376 219.348 130.485 219.486 130.554C219.624 130.623 219.78 130.649 219.933 130.629H222.518L223.294 130.371C223.438 130.135 223.527 129.87 223.552 129.595V128.302C223.682 128.043 223.552 127.785 223.294 127.526L222.648 127.267H221.484L220.967 125.974H222.648C223.23 125.976 223.788 126.208 224.199 126.621C224.439 126.879 224.622 127.186 224.733 127.52C224.845 127.855 224.883 128.21 224.845 128.561Z"  />
  <path d="M223.94 137.871L218.123 137.095L217.606 140.328L223.552 141.233L223.294 142.397L210.496 140.586V139.422L216.313 140.198L216.83 136.965L211.013 136.06V134.896L223.94 136.707V137.871Z"  />
  <path d="M220.967 148.603L221.613 149.249C221.682 149.39 221.718 149.545 221.718 149.702C221.718 149.858 221.682 150.013 221.613 150.154V150.542L208.299 149.766L208.557 148.603H211.66L212.306 145.758L209.592 144.465L209.85 143.172L220.967 148.603ZM212.823 148.861L219.674 149.249L213.47 146.404L212.823 148.861Z"  />
  <path d="M218.899 155.325L220.063 155.713L217.994 161.403L216.96 161.015L217.736 158.687L206.619 154.807L207.006 153.644L218.124 157.652L218.899 155.325Z"  />
  <path d="M204.809 159.463L216.572 165.023L216.055 166.187L210.626 163.601L209.721 165.67C209.611 165.951 209.437 166.203 209.212 166.405C208.988 166.607 208.719 166.754 208.428 166.834C208.156 166.94 207.864 166.984 207.573 166.961C207.282 166.939 207 166.851 206.748 166.705L204.421 165.67C203.87 165.379 203.42 164.928 203.128 164.377C202.982 163.775 203.027 163.142 203.258 162.566L204.809 159.463ZM209.592 163.084L205.326 161.144L204.292 163.084C204.223 163.225 204.187 163.379 204.187 163.536C204.187 163.693 204.223 163.848 204.292 163.989C204.395 164.219 204.579 164.402 204.809 164.506L207.265 165.67C207.383 165.738 207.517 165.774 207.653 165.774C207.789 165.774 207.923 165.738 208.04 165.67C208.299 165.67 208.428 165.411 208.558 165.153L209.592 163.084Z"  />
  <path d="M208.945 179.116L207.006 181.96C206.686 182.478 206.175 182.849 205.584 182.995C205.284 183.029 204.979 183 204.69 182.911C204.401 182.822 204.133 182.675 203.904 182.477L202.353 181.443L203.516 180.797L204.55 181.572C204.661 181.651 204.789 181.703 204.923 181.726C205.058 181.748 205.195 181.74 205.326 181.702C205.477 181.707 205.628 181.674 205.763 181.607C205.899 181.539 206.015 181.438 206.101 181.314L207.394 179.374L203.387 176.789L202.223 178.599C201.853 179.124 201.3 179.493 200.672 179.633C200.38 179.685 200.081 179.677 199.792 179.611C199.504 179.544 199.231 179.42 198.992 179.245L196.923 177.694C196.651 177.555 196.416 177.354 196.236 177.106C196.056 176.859 195.937 176.573 195.889 176.271C195.829 175.98 195.833 175.679 195.9 175.389C195.967 175.099 196.095 174.826 196.277 174.591L198.216 171.746L208.945 179.116ZM198.604 173.427L197.311 175.237C197.21 175.337 197.134 175.459 197.089 175.594C197.044 175.729 197.032 175.872 197.053 176.013L197.57 176.789L199.767 178.211L200.543 178.469L201.189 177.952L202.482 176.013L198.604 173.427Z"  />
  <path d="M201.319 185.967C201.761 186.389 202.074 186.927 202.223 187.519C202.24 187.829 202.192 188.139 202.08 188.429C201.969 188.718 201.797 188.981 201.577 189.2L200.801 190.234C200.609 190.462 200.372 190.648 200.106 190.782C199.839 190.915 199.548 190.993 199.25 191.01C198.949 191.053 198.643 191.028 198.352 190.939C198.062 190.85 197.795 190.697 197.57 190.493L190.977 184.804C190.517 184.451 190.197 183.947 190.072 183.381C190.055 183.072 190.104 182.761 190.215 182.472C190.327 182.182 190.498 181.919 190.719 181.701L191.623 180.666C191.976 180.206 192.479 179.886 193.045 179.761C193.355 179.744 193.665 179.793 193.955 179.904C194.244 180.016 194.507 180.187 194.726 180.408L201.319 185.967ZM192.528 181.442L191.623 182.476C191.365 182.735 191.236 182.994 191.365 183.252C191.354 183.387 191.385 183.522 191.455 183.638C191.524 183.754 191.629 183.845 191.753 183.899L198.345 189.588C198.445 189.689 198.568 189.765 198.702 189.81C198.837 189.855 198.98 189.867 199.121 189.846C199.256 189.857 199.391 189.826 199.507 189.756C199.622 189.687 199.714 189.583 199.767 189.458L200.672 188.424C200.931 188.165 201.06 187.907 200.931 187.648C200.906 187.349 200.767 187.071 200.543 186.872L193.95 181.313C193.85 181.212 193.728 181.136 193.593 181.091C193.459 181.046 193.315 181.033 193.175 181.054C193.04 181.043 192.905 181.074 192.789 181.144C192.673 181.214 192.582 181.318 192.528 181.442Z"  />
  <path d="M187.616 185.192L188.004 186.485L187.745 186.873C187.718 186.897 187.696 186.927 187.68 186.961C187.665 186.994 187.658 187.03 187.658 187.067C187.658 187.104 187.665 187.14 187.68 187.174C187.696 187.207 187.718 187.237 187.745 187.261L194.079 193.984C194.314 194.163 194.497 194.401 194.61 194.674C194.724 194.946 194.763 195.243 194.726 195.536C194.708 196.153 194.48 196.746 194.079 197.217L191.623 199.415L182.704 189.976L183.608 189.2L191.752 197.734L193.174 196.312C193.399 196.113 193.538 195.835 193.562 195.536C193.536 195.261 193.448 194.996 193.304 194.76L186.711 188.037C186.469 187.746 186.332 187.381 186.323 187.002C186.321 186.819 186.369 186.639 186.459 186.48C186.55 186.321 186.682 186.189 186.84 186.097L187.616 185.192Z"  />
  <path d="M180.118 192.176L188.004 202.52L187.099 203.296L183.479 198.511L181.67 199.934C181.187 200.297 180.593 200.48 179.989 200.451C179.423 200.326 178.92 200.006 178.567 199.546L176.887 197.477C176.712 197.238 176.588 196.965 176.521 196.676C176.454 196.387 176.447 196.088 176.499 195.796C176.514 195.484 176.603 195.179 176.761 194.909C176.919 194.639 177.139 194.411 177.404 194.245L180.118 192.176ZM182.704 197.606L179.86 193.857L178.05 195.279C177.926 195.333 177.822 195.424 177.752 195.54C177.683 195.656 177.651 195.791 177.662 195.925C177.642 196.066 177.654 196.209 177.699 196.344C177.744 196.479 177.82 196.601 177.921 196.701L179.472 198.77C179.731 199.029 179.86 199.158 180.118 199.158C180.249 199.196 180.387 199.204 180.521 199.182C180.655 199.16 180.783 199.107 180.894 199.029L182.704 197.606Z"  />
  <path d="M178.438 209.372L172.75 199.933C172.621 199.675 172.492 199.545 172.233 199.545C171.975 199.545 171.845 199.545 171.716 199.675L170.423 200.321L176.499 210.536L175.465 211.182L169.389 200.968L167.579 202.131L173.526 212.346L172.492 212.863L165.899 201.614L171.199 198.511C171.622 198.245 172.131 198.152 172.621 198.252C172.847 198.322 173.056 198.438 173.235 198.594C173.413 198.75 173.556 198.942 173.655 199.157L179.472 208.855L178.438 209.372Z"  />
  <path d="M168.097 215.061L163.314 217.259L162.797 216.224L166.545 214.543L164.606 210.147L162.021 211.311C161.942 211.2 161.89 211.072 161.868 210.938C161.845 210.804 161.854 210.666 161.892 210.535C161.943 210.385 162.028 210.249 162.14 210.137C162.252 210.025 162.388 209.94 162.538 209.889L164.089 209.242L162.15 204.846L158.531 206.527L158.014 205.493L162.797 203.295L168.097 215.061Z"  />
  <path d="M136.814 213.121V214.285L135.521 213.768V213.25L135.133 212.475C135.022 212.396 134.895 212.344 134.76 212.321C134.626 212.299 134.489 212.307 134.358 212.345H133.065L132.419 212.604C132.318 212.704 132.242 212.826 132.197 212.961C132.152 213.096 132.139 213.239 132.16 213.38L132.548 217.129H134.746C135.037 217.06 135.34 217.059 135.631 217.126C135.923 217.193 136.195 217.327 136.426 217.517C136.833 217.946 137.103 218.486 137.202 219.069L137.719 223.982H136.426L136.038 219.069C136.014 218.77 135.875 218.492 135.651 218.293H132.807L133.324 224.241H132.16L131.126 213.38C131.057 213.089 131.056 212.785 131.123 212.494C131.19 212.202 131.324 211.93 131.514 211.699C131.977 211.268 132.566 210.996 133.194 210.923H134.358C134.961 210.894 135.556 211.077 136.038 211.44C136.469 211.904 136.741 212.492 136.814 213.121Z"  />
  <path d="M124.921 224.757H123.758C123.14 224.739 122.547 224.511 122.077 224.111C121.692 223.64 121.506 223.036 121.56 222.43V219.585C121.549 219.383 121.59 219.181 121.681 218.999C121.772 218.818 121.908 218.663 122.077 218.551C122.21 218.414 122.372 218.308 122.551 218.241C122.729 218.174 122.921 218.147 123.111 218.163C122.911 218.163 122.713 218.116 122.533 218.026C122.354 217.937 122.197 217.806 122.077 217.646C121.947 217.508 121.845 217.345 121.779 217.168C121.712 216.99 121.682 216.801 121.689 216.611V213.767C121.707 213.149 121.935 212.556 122.336 212.086C122.565 211.889 122.833 211.741 123.122 211.652C123.411 211.563 123.715 211.535 124.016 211.569H125.179C125.797 211.587 126.39 211.815 126.86 212.215C127.245 212.686 127.431 213.29 127.377 213.896V214.413L126.214 214.93V213.767C126.188 213.492 126.099 213.226 125.955 212.991L125.179 212.732H123.887L123.24 212.991C123.016 213.19 122.877 213.468 122.853 213.767V216.482C122.879 216.757 122.967 217.022 123.111 217.258L123.887 217.516H125.309V218.809H123.887C123.734 218.789 123.578 218.816 123.44 218.885C123.302 218.954 123.187 219.063 123.111 219.197C122.987 219.251 122.883 219.342 122.813 219.458C122.744 219.574 122.712 219.709 122.723 219.844V222.43C122.712 222.57 122.728 222.711 122.773 222.844C122.817 222.978 122.888 223.101 122.982 223.206C123.181 223.43 123.459 223.569 123.758 223.593H125.05L125.826 223.335C125.97 223.099 126.058 222.834 126.084 222.559V221.395L127.248 220.878V222.559C127.246 223.142 127.014 223.7 126.601 224.111C126.402 224.356 126.142 224.544 125.847 224.658C125.552 224.771 125.233 224.805 124.921 224.757Z"  />
  <path d="M115.613 224.241L116.26 218.294L113.028 217.906L112.382 223.853H111.089L112.64 210.795H113.803L113.157 216.613L116.389 217.001L117.164 211.183H118.328L116.777 224.112L115.613 224.241Z"  />
  <path d="M104.884 221.525L104.238 222.171H102.945L103.333 208.854L104.496 209.112V212.215L107.34 212.862L108.633 210.017L109.796 210.276L104.884 221.525ZM104.367 213.379L104.108 220.232L106.952 213.896L104.367 213.379Z"  />
  <path d="M98.0333 219.715L97.6454 220.75L92.0869 218.94L92.3455 217.905L94.6723 218.552L98.2918 207.303L99.4552 207.691L95.8357 218.94L98.0333 219.715Z"  />
  <path d="M93.509 205.621L88.3382 217.517L87.1748 217.129L89.6309 211.698L87.5626 210.793C87.0117 210.502 86.5612 210.051 86.2699 209.5C86.1636 209.228 86.12 208.936 86.1424 208.645C86.1648 208.354 86.2526 208.072 86.3992 207.819L87.4334 205.363C87.5113 205.085 87.6592 204.832 87.8629 204.629C88.0667 204.425 88.3194 204.277 88.5968 204.199C88.8811 204.07 89.1896 204.004 89.5016 204.004C89.8137 204.004 90.1222 204.07 90.4065 204.199L93.509 205.621ZM90.0187 210.535L91.9577 206.268L89.8895 205.363H89.1138L88.4675 206.009L87.4334 208.337C87.3648 208.478 87.3291 208.632 87.3291 208.789C87.3291 208.946 87.3648 209.101 87.4334 209.242C87.537 209.471 87.7208 209.655 87.9504 209.759L90.0187 210.535Z"  />
  <path d="M74.1183 210.405L71.1451 208.595C70.6522 208.249 70.2884 207.748 70.111 207.173C70.0416 206.882 70.0405 206.578 70.1078 206.287C70.175 205.995 70.3089 205.723 70.4988 205.492L71.5329 203.94L72.1793 205.104L71.5329 206.138C71.432 206.238 71.356 206.36 71.3111 206.495C71.2662 206.63 71.2536 206.773 71.2744 206.914C71.3713 207.18 71.5529 207.408 71.7915 207.561L73.7305 208.853L76.3159 204.845L74.3768 203.552C73.8594 203.232 73.4882 202.721 73.3427 202.13C73.2826 201.838 73.2862 201.537 73.3531 201.247C73.42 200.957 73.5488 200.685 73.7305 200.449L75.1525 198.251C75.2912 197.979 75.4924 197.743 75.7395 197.563C75.9866 197.384 76.2727 197.265 76.5744 197.217C76.8662 197.165 77.1655 197.172 77.4543 197.239C77.7431 197.306 78.0154 197.43 78.2549 197.605L81.0988 199.544L74.1183 210.405ZM79.5476 199.803L77.6086 198.639C77.4889 198.527 77.3445 198.446 77.1872 198.401C77.0299 198.356 76.8642 198.349 76.7037 198.38L76.0573 198.898L74.6354 201.096C74.5316 201.34 74.4873 201.606 74.5061 201.871C74.603 202.138 74.7847 202.365 75.0232 202.518L76.9622 203.811L79.5476 199.803Z"  />
  <path d="M66.8792 202.906C66.7429 203.169 66.5396 203.391 66.2899 203.55C66.0402 203.709 65.753 203.799 65.4573 203.811C65.1564 203.854 64.8498 203.829 64.5594 203.74C64.2689 203.65 64.0017 203.498 63.7768 203.294L62.7426 202.518C62.4779 202.352 62.2574 202.123 62.0998 201.853C61.9422 201.583 61.8523 201.279 61.8378 200.966C61.7952 200.665 61.8195 200.359 61.9088 200.068C61.9982 199.778 62.1505 199.511 62.3548 199.286L67.7841 192.562C67.9377 192.314 68.1454 192.104 68.3916 191.947C68.6378 191.79 68.9162 191.691 69.2061 191.657C69.5069 191.615 69.8135 191.639 70.104 191.728C70.3944 191.818 70.6616 191.97 70.8865 192.174L71.9207 193.079C72.1834 193.216 72.4054 193.419 72.5643 193.669C72.7232 193.919 72.8133 194.206 72.8256 194.502C72.8681 194.803 72.8439 195.109 72.7545 195.4C72.6651 195.69 72.5128 195.958 72.3085 196.182L66.8792 202.906ZM71.2743 193.984L70.2402 193.079L69.4646 192.821C69.3132 192.815 69.1628 192.848 69.0273 192.916C68.8918 192.984 68.7755 193.084 68.689 193.209L63.2597 200.061C63.1588 200.161 63.0828 200.284 63.0379 200.418C62.9929 200.553 62.9804 200.697 63.0012 200.837C62.9901 200.972 63.0215 201.107 63.0911 201.223C63.1607 201.339 63.2649 201.43 63.389 201.484L64.5524 202.389C64.6817 202.647 64.9402 202.647 65.328 202.647C65.7158 202.647 65.7158 202.518 65.9743 202.259L71.4036 195.407C71.5046 195.307 71.5806 195.184 71.6255 195.05C71.6704 194.915 71.6829 194.771 71.6621 194.631C71.6732 194.496 71.6418 194.361 71.5722 194.245C71.5026 194.129 71.3985 194.038 71.2743 193.984Z"  />
  <path d="M67.2666 189.202L66.1032 189.719L65.7154 189.331C65.6911 189.304 65.6613 189.282 65.6279 189.267C65.5944 189.251 65.5582 189.244 65.5215 189.244C65.4848 189.244 65.4485 189.251 65.4151 189.267C65.3817 189.282 65.3518 189.304 65.3276 189.331L58.7349 195.925C58.5425 196.153 58.3057 196.339 58.0391 196.473C57.7724 196.606 57.4814 196.684 57.1837 196.701C56.8654 196.693 56.5521 196.621 56.263 196.487C55.974 196.354 55.7154 196.163 55.5032 195.925L53.3057 193.727L62.4837 184.418L63.2593 185.323L54.9861 193.727L56.4081 195.149L57.1837 195.537L57.9593 195.149L64.552 188.426C64.7978 188.193 65.1187 188.056 65.4569 188.038C65.6464 188.031 65.8355 188.061 66.0131 188.128C66.1907 188.194 66.3532 188.296 66.491 188.426L67.2666 189.202Z"  />
  <path d="M60.1573 181.83L50.0744 190.105L49.2988 189.2L53.8232 185.45L52.5305 183.64C52.3202 183.441 52.1541 183.2 52.0427 182.933C51.9314 182.665 51.8774 182.378 51.8842 182.088C51.9792 181.475 52.3024 180.921 52.7891 180.537L54.8574 178.856C55.0627 178.662 55.3079 178.515 55.5758 178.426C55.8437 178.336 56.128 178.307 56.4086 178.339C56.7209 178.353 57.0251 178.443 57.2953 178.601C57.5654 178.758 57.7934 178.979 57.9598 179.244L60.1573 181.83ZM54.8574 184.674L58.4769 181.7L57.0549 179.89C56.7964 179.761 56.6671 179.502 56.4086 179.502L55.5037 179.761L53.5647 181.442C53.3061 181.7 53.1769 181.83 53.1769 182.088C53.133 182.154 53.1047 182.229 53.0941 182.307C53.0835 182.385 53.091 182.465 53.116 182.54C53.1409 182.614 53.1827 182.683 53.2381 182.739C53.2934 182.795 53.3609 182.838 53.4354 182.864L54.8574 184.674Z"  />
  <path d="M42.8358 180.667L52.2724 174.72C52.4017 174.59 52.531 174.461 52.531 174.332C52.531 174.202 52.531 173.944 52.4017 173.685L51.7554 172.522L41.6724 178.857L41.0261 177.823L51.109 171.487L49.9456 169.677L39.8627 175.883L39.2163 174.978L50.2041 167.996L53.5651 173.168C53.8313 173.591 53.9239 174.101 53.8237 174.59C53.7542 174.817 53.6377 175.026 53.4817 175.204C53.3258 175.383 53.134 175.526 52.9188 175.625L43.4822 181.702L42.8358 180.667Z"  />
  <path d="M36.889 170.582L34.6914 165.798L35.7256 165.281L37.406 169.031L41.8012 166.962L40.5085 164.376H40.6378C40.7348 164.272 40.8634 164.203 41.0036 164.18C41.1439 164.156 41.2879 164.18 41.4134 164.247C41.6797 164.344 41.9068 164.525 42.0597 164.764L42.8353 166.445L47.1012 164.376L45.2914 160.755L46.3256 160.238L48.6524 164.893L36.889 170.582Z"  />
  <path d="M37.2768 134.381H36.1134L36.6304 133.217H37.2768L38.0524 132.958C38.1309 132.847 38.1833 132.719 38.2057 132.585C38.2281 132.451 38.2198 132.313 38.1817 132.182V130.889C38.1572 130.59 38.0182 130.312 37.7938 130.113C37.6878 130.024 37.56 129.966 37.4236 129.943C37.2873 129.92 37.1473 129.934 37.0182 129.984L33.2694 130.243V132.441C33.3388 132.732 33.3399 133.035 33.2727 133.327C33.2054 133.619 33.0716 133.891 32.8816 134.122C32.4235 134.542 31.8229 134.774 31.2011 134.768L26.4182 135.156V133.993L31.3304 133.605L31.9768 133.346C32.0777 133.246 32.1537 133.124 32.1986 132.989C32.2435 132.854 32.2561 132.711 32.2353 132.57V130.243L26.1597 130.63V129.467L36.889 128.691C37.1896 128.657 37.494 128.685 37.7832 128.774C38.0723 128.863 38.34 129.011 38.5695 129.208C38.8286 129.401 39.0353 129.656 39.1707 129.95C39.3062 130.244 39.3661 130.566 39.3451 130.889V132.053C39.3743 132.656 39.1914 133.251 38.828 133.734C38.417 134.147 37.8591 134.379 37.2768 134.381Z"  />
  <path d="M26.0304 122.354V121.19C26.0943 120.559 26.3673 119.967 26.806 119.509C27.0158 119.322 27.2616 119.179 27.5283 119.091C27.7951 119.002 28.0771 118.968 28.3572 118.992H31.2011C31.4112 118.974 31.6228 118.999 31.8228 119.066C32.0228 119.133 32.2072 119.239 32.3645 119.38C32.4978 119.539 32.5909 119.727 32.6359 119.93C32.6809 120.133 32.6765 120.343 32.6231 120.543H32.7523C32.7366 120.353 32.7632 120.162 32.8302 119.983C32.8973 119.804 33.0031 119.642 33.1402 119.509C33.2975 119.369 33.4819 119.262 33.6819 119.195C33.8819 119.128 34.0935 119.103 34.3036 119.121H37.0182C37.3365 119.129 37.6498 119.201 37.9389 119.335C38.2279 119.468 38.4865 119.659 38.6987 119.897C38.8959 120.126 39.0436 120.394 39.1326 120.683C39.2216 120.973 39.2499 121.277 39.2158 121.578V122.871C39.2143 123.453 38.9819 124.011 38.5694 124.423C38.0991 124.823 37.5063 125.051 36.8889 125.069H36.3719L35.8548 123.776H36.8889C36.9545 123.82 37.0293 123.848 37.1075 123.859C37.1857 123.869 37.2653 123.862 37.3401 123.837C37.415 123.812 37.4831 123.77 37.5394 123.715C37.5956 123.659 37.6384 123.592 37.6645 123.517C37.7887 123.464 37.8929 123.373 37.9624 123.257C38.032 123.141 38.0634 123.006 38.0524 122.871V121.578C38.0732 121.437 38.0606 121.294 38.0157 121.159C37.9708 121.024 37.8948 120.902 37.7938 120.802C37.6889 120.708 37.566 120.637 37.4326 120.593C37.2993 120.548 37.1583 120.532 37.0182 120.543H34.3036L33.528 120.802C33.4344 120.907 33.3632 121.03 33.3188 121.163C33.2743 121.297 33.2575 121.438 33.2694 121.578V122.871H31.9767V121.449C31.9719 121.129 31.8827 120.817 31.7182 120.543L31.0719 120.285H28.3572L27.5816 120.543C27.3231 120.802 27.3231 121.061 27.1938 121.319V122.612C27.2197 122.887 27.3081 123.153 27.4523 123.388C27.68 123.548 27.9497 123.638 28.228 123.647H29.3914L29.9084 124.94H28.228C27.6062 124.945 27.0056 124.714 26.5475 124.293C26.3135 124.034 26.1446 123.723 26.0547 123.386C25.9648 123.049 25.9564 122.695 26.0304 122.354Z"  />
  <path d="M26.806 113.046L32.6231 113.822L33.1402 110.589L27.3231 109.684V108.521L40.2499 110.331L39.9914 111.495L34.1743 110.719L33.7865 114.081L39.7329 114.856V116.02L26.6768 114.21L26.806 113.046Z"  />
  <path d="M29.7805 102.314C29.6305 102.263 29.4941 102.178 29.3821 102.066C29.27 101.954 29.1852 101.817 29.1342 101.667C29.0661 101.549 29.0303 101.415 29.0303 101.279C29.0303 101.143 29.0661 101.009 29.1342 100.891V100.374L42.3196 101.021L42.061 102.314H39.0879L38.4415 105.159L41.1562 106.452L40.8976 107.616L29.7805 102.314ZM37.9244 102.055L31.0732 101.667L37.2781 104.512L37.9244 102.055Z"  />
  <path d="M31.8475 95.5913L30.6841 95.2033L32.6231 89.5137L33.7865 89.9016L33.0109 92.2292L44.1279 96.1085L43.7401 97.2723L32.6231 93.2637L31.8475 95.5913Z"  />
  <path d="M45.9377 91.324L34.1743 85.893L34.6914 84.7292L39.9914 87.3154L41.0255 85.2464C41.1035 84.9689 41.2514 84.7161 41.4551 84.5123C41.6589 84.3085 41.9116 84.1606 42.1889 84.0826C42.4753 83.9429 42.7934 83.8813 43.1112 83.904C43.429 83.9267 43.7351 84.0329 43.9987 84.2119L46.3255 85.2464C46.9067 85.495 47.3697 85.9581 47.6182 86.5395C47.7056 86.821 47.7278 87.1186 47.683 87.4099C47.6382 87.7012 47.5276 87.9784 47.3597 88.2206L45.9377 91.324ZM41.1548 87.8326L45.4207 89.7723L46.3255 87.7033C46.4293 87.4586 46.4736 87.1927 46.4548 86.9274C46.4038 86.7773 46.319 86.641 46.2069 86.5289C46.0948 86.4168 45.9585 86.3319 45.8085 86.2809L43.4816 85.2464H42.706C42.4305 85.3921 42.2053 85.6174 42.0597 85.893L41.1548 87.8326Z"  />
  <path d="M41.6724 71.7994L43.6114 68.9549C43.7645 68.6939 43.9698 68.4673 44.2144 68.2893C44.4591 68.1113 44.7379 67.9857 45.0333 67.9205C45.3249 67.8604 45.6259 67.864 45.9159 67.9309C46.206 67.9978 46.4781 68.1266 46.7138 68.3084L48.2651 69.3428L47.1016 69.9893L46.0675 69.3428C45.9676 69.2418 45.8453 69.1658 45.7106 69.1209C45.5758 69.0759 45.4324 69.0634 45.2919 69.0842C45.0256 69.1811 44.7985 69.3628 44.6455 69.6014L43.3529 71.4115L47.2309 74.1267L48.5236 72.3166C48.6624 72.0443 48.8635 71.8087 49.1106 71.6289C49.3577 71.4492 49.6438 71.3304 49.9456 71.2822C50.2371 71.2221 50.5381 71.2257 50.8281 71.2926C51.1182 71.3595 51.3903 71.4883 51.626 71.6701L53.8236 73.0924C54.0717 73.246 54.282 73.4537 54.4386 73.7C54.5953 73.9463 54.6944 74.2247 54.7285 74.5146C54.7911 74.8268 54.789 75.1486 54.7223 75.4599C54.6556 75.7713 54.5257 76.0656 54.3407 76.3248L52.4017 79.1693L41.6724 71.7994ZM52.1431 77.4884L53.4358 75.549C53.5396 75.3043 53.5839 75.0384 53.5651 74.7732C53.5365 74.6321 53.4747 74.4998 53.3848 74.3874C53.2948 74.2749 53.1794 74.1856 53.048 74.1267L50.9797 72.7045C50.8798 72.6035 50.7575 72.5275 50.6228 72.4826C50.488 72.4376 50.3446 72.4251 50.2041 72.4459C49.9456 72.4459 49.687 72.7045 49.4285 72.9631L48.1358 74.7732L52.1431 77.4884Z"  />
  <path d="M49.2989 64.8169C48.8123 64.4325 48.489 63.8782 48.394 63.2653C48.4386 62.6534 48.6636 62.0685 49.0404 61.5844L49.9453 60.55C50.1182 60.3011 50.3509 60.0997 50.6219 59.9641C50.8929 59.8286 51.1936 59.7633 51.4965 59.7742C51.7771 59.7422 52.0613 59.7719 52.3292 59.8612C52.5972 59.9506 52.8424 60.0974 53.0477 60.2914L59.6403 65.9805C59.9051 66.147 60.1256 66.3751 60.2832 66.6452C60.4407 66.9154 60.5306 67.2197 60.5452 67.5321C60.5551 68.0932 60.3726 68.6408 60.0281 69.0837L59.1233 70.1181C58.739 70.6048 58.1848 70.9282 57.5721 71.0232C57.2622 71.0402 56.9522 70.9914 56.6626 70.88C56.3729 70.7686 56.1102 70.597 55.8916 70.3767L49.2989 64.8169ZM58.2184 69.3423L59.1233 68.3079C59.2675 68.0724 59.3559 67.8071 59.3818 67.5321C59.3278 67.2796 59.1914 67.0521 58.994 66.8856L52.2721 61.1965L51.4965 60.9379C51.3617 60.9268 51.2269 60.9583 51.1109 61.0278C50.995 61.0974 50.9038 61.2016 50.8501 61.3258L49.9453 62.3602C49.8443 62.4601 49.7683 62.5824 49.7234 62.7172C49.6785 62.852 49.6659 62.9954 49.6867 63.136C49.6813 63.2874 49.7139 63.4378 49.7817 63.5734C49.8494 63.7089 49.9501 63.8253 50.0745 63.9118L56.6672 69.4716C56.8661 69.6961 57.1439 69.835 57.4428 69.8595L58.2184 69.3423Z"  />
  <path d="M63.0012 65.5934L62.6134 64.3004L62.8719 64.0418C63.0012 63.7833 63.0012 63.654 62.8719 63.5247L56.5378 56.8014C56.304 56.6144 56.1135 56.3788 55.9796 56.1109C55.8457 55.843 55.7715 55.5493 55.7622 55.2499C55.7795 54.9522 55.8572 54.6611 55.9905 54.3944C56.1239 54.1276 56.3101 53.8908 56.5378 53.6984L58.8646 51.3711L67.9134 60.8095L67.0085 61.5853L58.8646 53.0519L57.3134 54.4741C57.1692 54.7096 57.0808 54.975 57.0549 55.2499C57.0341 55.3904 57.0466 55.5339 57.0916 55.6686C57.1365 55.8034 57.2125 55.9257 57.3134 56.0257L63.9061 62.8782C64.139 63.1241 64.2765 63.445 64.2939 63.7833C64.2939 63.984 64.2472 64.1819 64.1574 64.3615C64.0677 64.541 63.9374 64.6972 63.7768 64.8176L63.0012 65.5934Z"  />
  <path d="M70.4987 58.6118L62.6133 48.2676L63.5182 47.6211L67.1377 52.276L68.9474 50.8536C69.43 50.4902 70.0246 50.3072 70.6279 50.3364C70.9234 50.4017 71.2022 50.5272 71.4468 50.7052C71.6915 50.8832 71.8968 51.1098 72.0499 51.3709L73.6011 53.3104C73.823 53.5235 73.987 53.7897 74.0774 54.0838C74.1679 54.3779 74.1819 54.6903 74.1182 54.9913C74.1036 55.3038 74.0137 55.6081 73.8562 55.8782C73.6986 56.1484 73.478 56.3765 73.2133 56.543L70.4987 58.6118ZM67.784 53.1811L70.7572 56.9309L72.567 55.5085C72.6911 55.4549 72.7953 55.3637 72.8648 55.2477C72.9344 55.1317 72.9659 54.9968 72.9548 54.862C72.9756 54.7215 72.963 54.578 72.9181 54.4432C72.8732 54.3085 72.7972 54.1862 72.6962 54.0862L71.145 52.0174C70.9461 51.7929 70.6682 51.654 70.3694 51.6295C70.1109 51.5002 69.8523 51.6295 69.5938 51.8881L67.784 53.1811Z"  />
  <path d="M72.1787 41.2856L77.8665 50.8538C77.9958 51.1124 78.125 51.2417 78.3836 51.2417H78.9006L80.1933 50.4659L74.1177 40.3805L75.1518 39.734L81.2275 49.9487L83.0372 48.785L76.9616 38.441L77.9958 37.9238L84.7177 49.0436L79.4177 52.2761C79.2018 52.3929 78.9645 52.4647 78.72 52.4869C78.4756 52.5091 78.2291 52.4814 77.9958 52.4054C77.608 52.4054 77.2201 52.0175 76.9616 51.6296L71.1445 41.9321L72.1787 41.2856Z"  />
  <path d="M82.3916 35.598L87.1745 33.5293L87.6916 34.5636L83.9428 36.2445L85.8819 40.6405L88.4672 39.4768H88.5965C88.6651 39.6178 88.7007 39.7725 88.7007 39.9293C88.7007 40.0861 88.6651 40.2409 88.5965 40.3819C88.5965 40.6405 88.338 40.7698 88.0794 40.899L86.3989 41.6748L88.338 45.9415L92.0867 44.39L92.6038 45.4243L87.8209 47.493L82.3916 35.598Z"  />
</svg>
