<svg width="300" height="150" viewBox="0 0 300 150" fill="none" xmlns="http://www.w3.org/2000/svg" xmlns:xlink="http://www.w3.org/1999/xlink">
<rect x="0.251099" y="0.25" width="299.499" height="149.5" stroke="white" stroke-width="0.5"/>
<path d="M299.999 33.4814H0" stroke="white" stroke-width="0.5"/>
<path d="M300 66.8145H0.00244141" stroke="white" stroke-width="0.5"/>
<path d="M299.697 66.8162L206.669 66.8145L206.669 149.256" stroke="white" stroke-width="0.5"/>
<path d="M299.334 149.276L206.669 66.8145" stroke="white" stroke-width="0.5"/>
<path d="M61.841 66.8148L0.661133 33.4814" stroke="white" stroke-width="0.5"/>
<path d="M61.8413 0L61.8413 67.336" stroke="white" stroke-width="0.5"/>
<path d="M80.9737 20.7562C80.2897 20.7562 79.6597 20.6302 79.0837 20.3782C78.5197 20.1142 78.0217 19.7542 77.5897 19.2982C77.1697 18.8422 76.8397 18.3202 76.5997 17.7322C76.3717 17.1442 76.2577 16.5202 76.2577 15.8602C76.2577 14.9722 76.4557 14.1622 76.8517 13.4302C77.2477 12.6982 77.7997 12.1162 78.5077 11.6842C79.2157 11.2522 80.0317 11.0362 80.9557 11.0362C81.8317 11.0362 82.6057 11.2402 83.2777 11.6482C83.9497 12.0442 84.4477 12.5842 84.7717 13.2682L83.5837 13.6462C83.3197 13.1662 82.9477 12.7942 82.4677 12.5302C81.9997 12.2542 81.4777 12.1162 80.9017 12.1162C80.2777 12.1162 79.7077 12.2782 79.1917 12.6022C78.6757 12.9262 78.2617 13.3702 77.9497 13.9342C77.6497 14.4982 77.4997 15.1402 77.4997 15.8602C77.4997 16.5682 77.6557 17.2102 77.9677 17.7862C78.2797 18.3622 78.6937 18.8242 79.2097 19.1722C79.7257 19.5082 80.2957 19.6762 80.9197 19.6762C81.3277 19.6762 81.7177 19.6042 82.0897 19.4602C82.4737 19.3162 82.8037 19.1242 83.0797 18.8842C83.3677 18.6322 83.5597 18.3622 83.6557 18.0742L84.8617 18.4342C84.6937 18.8782 84.4117 19.2802 84.0157 19.6402C83.6317 19.9882 83.1757 20.2642 82.6477 20.4682C82.1317 20.6602 81.5737 20.7562 80.9737 20.7562ZM90.6927 20.7562C90.0207 20.7562 89.3967 20.6302 88.8207 20.3782C88.2567 20.1142 87.7647 19.7602 87.3447 19.3162C86.9367 18.8602 86.6187 18.3442 86.3907 17.7682C86.1627 17.1802 86.0487 16.5622 86.0487 15.9142C86.0487 15.2422 86.1627 14.6182 86.3907 14.0422C86.6187 13.4542 86.9427 12.9382 87.3627 12.4942C87.7827 12.0382 88.2747 11.6842 88.8387 11.4322C89.4147 11.1682 90.0387 11.0362 90.7107 11.0362C91.3827 11.0362 92.0007 11.1682 92.5647 11.4322C93.1287 11.6842 93.6207 12.0382 94.0407 12.4942C94.4607 12.9382 94.7847 13.4542 95.0127 14.0422C95.2407 14.6182 95.3547 15.2422 95.3547 15.9142C95.3547 16.5622 95.2407 17.1802 95.0127 17.7682C94.7847 18.3442 94.4607 18.8602 94.0407 19.3162C93.6327 19.7602 93.1407 20.1142 92.5647 20.3782C92.0007 20.6302 91.3767 20.7562 90.6927 20.7562ZM87.2907 15.9322C87.2907 16.6282 87.4407 17.2642 87.7407 17.8402C88.0527 18.4042 88.4667 18.8542 88.9827 19.1902C89.4987 19.5142 90.0687 19.6762 90.6927 19.6762C91.3167 19.6762 91.8867 19.5082 92.4027 19.1722C92.9187 18.8362 93.3327 18.3802 93.6447 17.8042C93.9567 17.2162 94.1127 16.5802 94.1127 15.8962C94.1127 15.2002 93.9567 14.5642 93.6447 13.9882C93.3327 13.4122 92.9187 12.9562 92.4027 12.6202C91.8867 12.2842 91.3167 12.1162 90.6927 12.1162C90.0687 12.1162 89.4987 12.2902 88.9827 12.6382C88.4787 12.9862 88.0707 13.4482 87.7587 14.0242C87.4467 14.5882 87.2907 15.2242 87.2907 15.9322ZM101.398 20.7562C100.726 20.7562 100.102 20.6302 99.5258 20.3782C98.9618 20.1142 98.4698 19.7602 98.0498 19.3162C97.6418 18.8602 97.3238 18.3442 97.0958 17.7682C96.8678 17.1802 96.7538 16.5622 96.7538 15.9142C96.7538 15.2422 96.8678 14.6182 97.0958 14.0422C97.3238 13.4542 97.6478 12.9382 98.0678 12.4942C98.4878 12.0382 98.9798 11.6842 99.5438 11.4322C100.12 11.1682 100.744 11.0362 101.416 11.0362C102.088 11.0362 102.706 11.1682 103.27 11.4322C103.834 11.6842 104.326 12.0382 104.746 12.4942C105.166 12.9382 105.49 13.4542 105.718 14.0422C105.946 14.6182 106.06 15.2422 106.06 15.9142C106.06 16.5622 105.946 17.1802 105.718 17.7682C105.49 18.3442 105.166 18.8602 104.746 19.3162C104.338 19.7602 103.846 20.1142 103.27 20.3782C102.706 20.6302 102.082 20.7562 101.398 20.7562ZM97.9958 15.9322C97.9958 16.6282 98.1458 17.2642 98.4458 17.8402C98.7578 18.4042 99.1718 18.8542 99.6878 19.1902C100.204 19.5142 100.774 19.6762 101.398 19.6762C102.022 19.6762 102.592 19.5082 103.108 19.1722C103.624 18.8362 104.038 18.3802 104.35 17.8042C104.662 17.2162 104.818 16.5802 104.818 15.8962C104.818 15.2002 104.662 14.5642 104.35 13.9882C104.038 13.4122 103.624 12.9562 103.108 12.6202C102.592 12.2842 102.022 12.1162 101.398 12.1162C100.774 12.1162 100.204 12.2902 99.6878 12.6382C99.1838 12.9862 98.7758 13.4482 98.4638 14.0242C98.1518 14.5882 97.9958 15.2242 97.9958 15.9322ZM112.895 20.7562C112.115 20.7562 111.413 20.5522 110.789 20.1442C110.177 19.7362 109.691 19.2322 109.331 18.6322V24.4102H108.107V11.1982H109.205V13.0162C109.577 12.4282 110.075 11.9542 110.699 11.5942C111.323 11.2222 111.989 11.0362 112.697 11.0362C113.345 11.0362 113.939 11.1742 114.479 11.4502C115.019 11.7142 115.487 12.0742 115.883 12.5302C116.279 12.9862 116.585 13.5082 116.801 14.0962C117.029 14.6722 117.143 15.2722 117.143 15.8962C117.143 16.7722 116.963 17.5822 116.603 18.3262C116.255 19.0582 115.763 19.6462 115.127 20.0902C114.491 20.5342 113.747 20.7562 112.895 20.7562ZM112.553 19.6762C113.069 19.6762 113.531 19.5742 113.939 19.3702C114.347 19.1542 114.695 18.8662 114.983 18.5062C115.283 18.1462 115.511 17.7442 115.667 17.3002C115.823 16.8442 115.901 16.3762 115.901 15.8962C115.901 15.3922 115.811 14.9122 115.631 14.4562C115.463 14.0002 115.217 13.5982 114.893 13.2502C114.569 12.9022 114.197 12.6262 113.777 12.4222C113.357 12.2182 112.901 12.1162 112.409 12.1162C112.097 12.1162 111.773 12.1762 111.437 12.2962C111.101 12.4162 110.777 12.5902 110.465 12.8182C110.165 13.0342 109.913 13.2802 109.709 13.5562C109.505 13.8322 109.379 14.1262 109.331 14.4382V17.3182C109.523 17.7622 109.781 18.1642 110.105 18.5242C110.429 18.8722 110.801 19.1542 111.221 19.3702C111.653 19.5742 112.097 19.6762 112.553 19.6762ZM123.266 20.7562C122.594 20.7562 121.97 20.6302 121.394 20.3782C120.818 20.1142 120.32 19.7602 119.9 19.3162C119.48 18.8602 119.15 18.3382 118.91 17.7502C118.682 17.1622 118.568 16.5322 118.568 15.8602C118.568 14.9842 118.766 14.1802 119.162 13.4482C119.57 12.7162 120.128 12.1342 120.836 11.7022C121.544 11.2582 122.348 11.0362 123.248 11.0362C124.172 11.0362 124.976 11.2582 125.66 11.7022C126.356 12.1462 126.902 12.7342 127.298 13.4662C127.694 14.1862 127.892 14.9782 127.892 15.8422C127.892 15.9382 127.892 16.0342 127.892 16.1302C127.892 16.2142 127.886 16.2802 127.874 16.3282H119.846C119.906 17.0002 120.092 17.6002 120.404 18.1282C120.728 18.6442 121.142 19.0582 121.646 19.3702C122.162 19.6702 122.72 19.8202 123.32 19.8202C123.932 19.8202 124.508 19.6642 125.048 19.3522C125.6 19.0402 125.984 18.6322 126.2 18.1282L127.262 18.4162C127.07 18.8602 126.776 19.2622 126.38 19.6222C125.984 19.9822 125.516 20.2642 124.976 20.4682C124.448 20.6602 123.878 20.7562 123.266 20.7562ZM119.81 15.4462H126.74C126.692 14.7622 126.506 14.1622 126.182 13.6462C125.87 13.1302 125.456 12.7282 124.94 12.4402C124.436 12.1402 123.878 11.9902 123.266 11.9902C122.654 11.9902 122.096 12.1402 121.592 12.4402C121.088 12.7282 120.674 13.1362 120.35 13.6642C120.038 14.1802 119.858 14.7742 119.81 15.4462ZM134.461 12.2782C133.645 12.3022 132.925 12.5302 132.301 12.9622C131.689 13.3942 131.257 13.9882 131.005 14.7442V20.5762H129.781V11.1982H130.933V13.4482C131.257 12.7882 131.683 12.2542 132.211 11.8462C132.751 11.4382 133.321 11.2102 133.921 11.1622C134.041 11.1502 134.143 11.1442 134.227 11.1442C134.323 11.1442 134.401 11.1502 134.461 11.1622V12.2782ZM135.3 17.8762C135.3 17.2882 135.468 16.7842 135.804 16.3642C136.14 15.9322 136.602 15.6022 137.19 15.3742C137.79 15.1342 138.48 15.0142 139.26 15.0142C139.716 15.0142 140.19 15.0502 140.682 15.1222C141.174 15.1942 141.612 15.3022 141.996 15.4462V14.6542C141.996 13.8622 141.762 13.2322 141.294 12.7642C140.826 12.2962 140.178 12.0622 139.35 12.0622C138.846 12.0622 138.348 12.1582 137.856 12.3502C137.376 12.5302 136.872 12.8002 136.344 13.1602L135.876 12.2962C136.488 11.8762 137.088 11.5642 137.676 11.3602C138.264 11.1442 138.864 11.0362 139.476 11.0362C140.628 11.0362 141.54 11.3662 142.212 12.0262C142.884 12.6862 143.22 13.5982 143.22 14.7622V19.1002C143.22 19.2682 143.256 19.3942 143.328 19.4782C143.4 19.5502 143.514 19.5922 143.67 19.6042V20.5762C143.538 20.5882 143.424 20.6002 143.328 20.6122C143.232 20.6242 143.16 20.6242 143.112 20.6122C142.812 20.6002 142.584 20.5042 142.428 20.3242C142.272 20.1442 142.188 19.9522 142.176 19.7482L142.158 19.0642C141.738 19.6042 141.192 20.0242 140.52 20.3242C139.848 20.6122 139.164 20.7562 138.468 20.7562C137.868 20.7562 137.322 20.6302 136.83 20.3782C136.35 20.1142 135.972 19.7662 135.696 19.3342C135.432 18.8902 135.3 18.4042 135.3 17.8762ZM141.582 18.5962C141.714 18.4282 141.816 18.2662 141.888 18.1102C141.96 17.9542 141.996 17.8162 141.996 17.6962V16.3282C141.588 16.1722 141.162 16.0522 140.718 15.9682C140.286 15.8842 139.848 15.8422 139.404 15.8422C138.528 15.8422 137.82 16.0162 137.28 16.3642C136.74 16.7122 136.47 17.1862 136.47 17.7862C136.47 18.1342 136.56 18.4642 136.74 18.7762C136.92 19.0762 137.184 19.3282 137.532 19.5322C137.88 19.7242 138.288 19.8202 138.756 19.8202C139.344 19.8202 139.89 19.7062 140.394 19.4782C140.91 19.2502 141.306 18.9562 141.582 18.5962ZM150.294 20.1262C150.198 20.1622 150.048 20.2282 149.844 20.3242C149.64 20.4202 149.394 20.5042 149.106 20.5762C148.818 20.6482 148.506 20.6842 148.17 20.6842C147.822 20.6842 147.492 20.6182 147.18 20.4862C146.88 20.3542 146.64 20.1562 146.46 19.8922C146.28 19.6162 146.19 19.2802 146.19 18.8842V12.1702H144.894V11.1982H146.19V8.03017H147.414V11.1982H149.574V12.1702H147.414V18.5422C147.438 18.8782 147.558 19.1302 147.774 19.2982C148.002 19.4662 148.26 19.5502 148.548 19.5502C148.884 19.5502 149.19 19.4962 149.466 19.3882C149.742 19.2682 149.91 19.1842 149.97 19.1362L150.294 20.1262ZM151.824 20.5762V11.1982H153.048V20.5762H151.824ZM151.824 9.23617V7.43617H153.048V9.23617H151.824ZM159.74 20.7562C159.068 20.7562 158.444 20.6302 157.868 20.3782C157.304 20.1142 156.812 19.7602 156.392 19.3162C155.984 18.8602 155.666 18.3442 155.438 17.7682C155.21 17.1802 155.096 16.5622 155.096 15.9142C155.096 15.2422 155.21 14.6182 155.438 14.0422C155.666 13.4542 155.99 12.9382 156.41 12.4942C156.83 12.0382 157.322 11.6842 157.886 11.4322C158.462 11.1682 159.086 11.0362 159.758 11.0362C160.43 11.0362 161.048 11.1682 161.612 11.4322C162.176 11.6842 162.668 12.0382 163.088 12.4942C163.508 12.9382 163.832 13.4542 164.06 14.0422C164.288 14.6182 164.402 15.2422 164.402 15.9142C164.402 16.5622 164.288 17.1802 164.06 17.7682C163.832 18.3442 163.508 18.8602 163.088 19.3162C162.68 19.7602 162.188 20.1142 161.612 20.3782C161.048 20.6302 160.424 20.7562 159.74 20.7562ZM156.338 15.9322C156.338 16.6282 156.488 17.2642 156.788 17.8402C157.1 18.4042 157.514 18.8542 158.03 19.1902C158.546 19.5142 159.116 19.6762 159.74 19.6762C160.364 19.6762 160.934 19.5082 161.45 19.1722C161.966 18.8362 162.38 18.3802 162.692 17.8042C163.004 17.2162 163.16 16.5802 163.16 15.8962C163.16 15.2002 163.004 14.5642 162.692 13.9882C162.38 13.4122 161.966 12.9562 161.45 12.6202C160.934 12.2842 160.364 12.1162 159.74 12.1162C159.116 12.1162 158.546 12.2902 158.03 12.6382C157.526 12.9862 157.118 13.4482 156.806 14.0242C156.494 14.5882 156.338 15.2242 156.338 15.9322ZM174.333 20.5762H173.109V15.3382C173.109 14.2342 172.947 13.4302 172.623 12.9262C172.299 12.4102 171.789 12.1522 171.093 12.1522C170.613 12.1522 170.139 12.2722 169.671 12.5122C169.203 12.7402 168.789 13.0582 168.429 13.4662C168.081 13.8622 167.829 14.3182 167.673 14.8342V20.5762H166.449V11.1982H167.565V13.3222C167.817 12.8662 168.147 12.4702 168.555 12.1342C168.963 11.7862 169.425 11.5162 169.941 11.3242C170.457 11.1322 170.991 11.0362 171.543 11.0362C172.059 11.0362 172.497 11.1322 172.857 11.3242C173.217 11.5162 173.505 11.7922 173.721 12.1522C173.937 12.5002 174.093 12.9262 174.189 13.4302C174.285 13.9222 174.333 14.4742 174.333 15.0862V20.5762ZM191.395 17.2822C191.395 17.9182 191.233 18.4882 190.909 18.9922C190.585 19.4842 190.147 19.8742 189.595 20.1622C189.055 20.4382 188.461 20.5762 187.813 20.5762H181.783V7.79617H187.939C188.539 7.79617 189.055 7.95817 189.487 8.28217C189.931 8.59417 190.267 9.00217 190.495 9.50617C190.735 9.99817 190.855 10.5142 190.855 11.0542C190.855 11.6902 190.693 12.2782 190.369 12.8182C190.045 13.3582 189.595 13.7602 189.019 14.0242C189.751 14.2402 190.327 14.6422 190.747 15.2302C191.179 15.8182 191.395 16.5022 191.395 17.2822ZM190.135 17.0662C190.135 16.6342 190.039 16.2382 189.847 15.8782C189.655 15.5062 189.391 15.2062 189.055 14.9782C188.731 14.7502 188.359 14.6362 187.939 14.6362H183.043V19.4782H187.813C188.245 19.4782 188.635 19.3642 188.983 19.1362C189.331 18.9082 189.607 18.6142 189.811 18.2542C190.027 17.8822 190.135 17.4862 190.135 17.0662ZM183.043 8.89417V13.6102H187.435C187.855 13.6102 188.227 13.5022 188.551 13.2862C188.875 13.0582 189.133 12.7642 189.325 12.4042C189.517 12.0442 189.613 11.6602 189.613 11.2522C189.613 10.8202 189.523 10.4302 189.343 10.0822C189.163 9.72217 188.917 9.43417 188.605 9.21817C188.293 9.00217 187.939 8.89417 187.543 8.89417H183.043ZM193.519 20.5762V11.1982H194.743V20.5762H193.519ZM193.519 9.23617V7.43617H194.743V9.23617H193.519ZM196.683 17.8762C196.683 17.2882 196.851 16.7842 197.187 16.3642C197.523 15.9322 197.985 15.6022 198.573 15.3742C199.173 15.1342 199.863 15.0142 200.643 15.0142C201.099 15.0142 201.573 15.0502 202.065 15.1222C202.557 15.1942 202.995 15.3022 203.379 15.4462V14.6542C203.379 13.8622 203.145 13.2322 202.677 12.7642C202.209 12.2962 201.561 12.0622 200.733 12.0622C200.229 12.0622 199.731 12.1582 199.239 12.3502C198.759 12.5302 198.255 12.8002 197.727 13.1602L197.259 12.2962C197.871 11.8762 198.471 11.5642 199.059 11.3602C199.647 11.1442 200.247 11.0362 200.859 11.0362C202.011 11.0362 202.923 11.3662 203.595 12.0262C204.267 12.6862 204.603 13.5982 204.603 14.7622V19.1002C204.603 19.2682 204.639 19.3942 204.711 19.4782C204.783 19.5502 204.897 19.5922 205.053 19.6042V20.5762C204.921 20.5882 204.807 20.6002 204.711 20.6122C204.615 20.6242 204.543 20.6242 204.495 20.6122C204.195 20.6002 203.967 20.5042 203.811 20.3242C203.655 20.1442 203.571 19.9522 203.559 19.7482L203.541 19.0642C203.121 19.6042 202.575 20.0242 201.903 20.3242C201.231 20.6122 200.547 20.7562 199.851 20.7562C199.251 20.7562 198.705 20.6302 198.213 20.3782C197.733 20.1142 197.355 19.7662 197.079 19.3342C196.815 18.8902 196.683 18.4042 196.683 17.8762ZM202.965 18.5962C203.097 18.4282 203.199 18.2662 203.271 18.1102C203.343 17.9542 203.379 17.8162 203.379 17.6962V16.3282C202.971 16.1722 202.545 16.0522 202.101 15.9682C201.669 15.8842 201.231 15.8422 200.787 15.8422C199.911 15.8422 199.203 16.0162 198.663 16.3642C198.123 16.7122 197.853 17.1862 197.853 17.7862C197.853 18.1342 197.943 18.4642 198.123 18.7762C198.303 19.0762 198.567 19.3282 198.915 19.5322C199.263 19.7242 199.671 19.8202 200.139 19.8202C200.727 19.8202 201.273 19.7062 201.777 19.4782C202.293 19.2502 202.689 18.9562 202.965 18.5962ZM221.197 20.5762H219.973V15.3382C219.973 14.2462 219.799 13.4422 219.451 12.9262C219.103 12.4102 218.587 12.1522 217.903 12.1522C217.195 12.1522 216.559 12.4042 215.995 12.9082C215.443 13.4122 215.053 14.0602 214.825 14.8522V20.5762H213.601V15.3382C213.601 14.2342 213.433 13.4302 213.097 12.9262C212.761 12.4102 212.245 12.1522 211.549 12.1522C210.853 12.1522 210.223 12.3982 209.659 12.8902C209.095 13.3822 208.699 14.0302 208.471 14.8342V20.5762H207.247V11.1982H208.363V13.3222C208.759 12.5902 209.263 12.0262 209.875 11.6302C210.499 11.2342 211.189 11.0362 211.945 11.0362C212.725 11.0362 213.355 11.2582 213.835 11.7022C214.315 12.1462 214.609 12.7282 214.717 13.4482C215.149 12.6562 215.665 12.0562 216.265 11.6482C216.877 11.2402 217.567 11.0362 218.335 11.0362C218.863 11.0362 219.307 11.1322 219.667 11.3242C220.039 11.5162 220.333 11.7922 220.549 12.1522C220.777 12.5002 220.939 12.9262 221.035 13.4302C221.143 13.9222 221.197 14.4742 221.197 15.0862V20.5762ZM228.576 20.7562C227.796 20.7562 227.094 20.5522 226.47 20.1442C225.858 19.7362 225.372 19.2322 225.012 18.6322V24.4102H223.788V11.1982H224.886V13.0162C225.258 12.4282 225.756 11.9542 226.38 11.5942C227.004 11.2222 227.67 11.0362 228.378 11.0362C229.026 11.0362 229.62 11.1742 230.16 11.4502C230.7 11.7142 231.168 12.0742 231.564 12.5302C231.96 12.9862 232.266 13.5082 232.482 14.0962C232.71 14.6722 232.824 15.2722 232.824 15.8962C232.824 16.7722 232.644 17.5822 232.284 18.3262C231.936 19.0582 231.444 19.6462 230.808 20.0902C230.172 20.5342 229.428 20.7562 228.576 20.7562ZM228.234 19.6762C228.75 19.6762 229.212 19.5742 229.62 19.3702C230.028 19.1542 230.376 18.8662 230.664 18.5062C230.964 18.1462 231.192 17.7442 231.348 17.3002C231.504 16.8442 231.582 16.3762 231.582 15.8962C231.582 15.3922 231.492 14.9122 231.312 14.4562C231.144 14.0002 230.898 13.5982 230.574 13.2502C230.25 12.9022 229.878 12.6262 229.458 12.4222C229.038 12.2182 228.582 12.1162 228.09 12.1162C227.778 12.1162 227.454 12.1762 227.118 12.2962C226.782 12.4162 226.458 12.5902 226.146 12.8182C225.846 13.0342 225.594 13.2802 225.39 13.5562C225.186 13.8322 225.06 14.1262 225.012 14.4382V17.3182C225.204 17.7622 225.462 18.1642 225.786 18.5242C226.11 18.8722 226.482 19.1542 226.902 19.3702C227.334 19.5742 227.778 19.6762 228.234 19.6762Z" fill="white"/>
<path d="M79.5194 54.0748C78.9894 54.0748 78.5044 53.9648 78.0644 53.7448C77.6344 53.5248 77.2644 53.2248 76.9544 52.8448C76.6444 52.4648 76.4044 52.0348 76.2344 51.5548C76.0644 51.0648 75.9794 50.5548 75.9794 50.0248C75.9794 49.4748 76.0744 48.9598 76.2644 48.4798C76.4544 47.9898 76.7144 47.5598 77.0444 47.1898C77.3844 46.8098 77.7794 46.5148 78.2294 46.3048C78.6894 46.0848 79.1794 45.9748 79.6994 45.9748C80.3094 45.9748 80.8694 46.1348 81.3794 46.4548C81.8994 46.7648 82.3044 47.1598 82.5944 47.6398V46.1098H83.5094V57.1198H82.4894V52.3048C81.7194 53.4848 80.7294 54.0748 79.5194 54.0748ZM79.8344 53.1748C80.2444 53.1748 80.6144 53.0948 80.9444 52.9348C81.2844 52.7648 81.5794 52.5398 81.8294 52.2598C82.0894 51.9798 82.3094 51.6698 82.4894 51.3298V48.9148C82.4594 48.6448 82.3594 48.3898 82.1894 48.1498C82.0194 47.8998 81.8094 47.6798 81.5594 47.4898C81.3094 47.2898 81.0394 47.1398 80.7494 47.0398C80.4594 46.9298 80.1744 46.8748 79.8944 46.8748C79.4644 46.8748 79.0744 46.9648 78.7244 47.1448C78.3844 47.3248 78.0844 47.5648 77.8244 47.8648C77.5644 48.1648 77.3644 48.5048 77.2244 48.8848C77.0844 49.2648 77.0144 49.6498 77.0144 50.0398C77.0144 50.5998 77.1344 51.1198 77.3744 51.5998C77.6244 52.0798 77.9594 52.4648 78.3794 52.7548C78.7994 53.0348 79.2844 53.1748 79.8344 53.1748ZM85.6872 50.6998V46.1098H86.7072V50.5198C86.7072 51.4098 86.8572 52.0748 87.1572 52.5148C87.4672 52.9548 87.9222 53.1748 88.5222 53.1748C88.9222 53.1748 89.3072 53.0898 89.6772 52.9198C90.0572 52.7398 90.3922 52.4898 90.6822 52.1698C90.9722 51.8398 91.1922 51.4598 91.3422 51.0298V46.1098H92.3622V52.6948C92.3622 52.8348 92.3922 52.9398 92.4522 53.0098C92.5122 53.0698 92.6022 53.1048 92.7222 53.1148V53.9248C92.6022 53.9348 92.5072 53.9398 92.4372 53.9398C92.3672 53.9498 92.3022 53.9548 92.2422 53.9548C92.0422 53.9348 91.8672 53.8548 91.7172 53.7148C91.5772 53.5748 91.5022 53.4048 91.4922 53.2048L91.4622 52.1548C91.1222 52.7548 90.6572 53.2248 90.0672 53.5648C89.4872 53.9048 88.8572 54.0748 88.1772 54.0748C87.3572 54.0748 86.7372 53.7898 86.3172 53.2198C85.8972 52.6498 85.6872 51.8098 85.6872 50.6998ZM94.0385 51.6748C94.0385 51.1848 94.1785 50.7648 94.4585 50.4148C94.7385 50.0548 95.1235 49.7798 95.6135 49.5898C96.1135 49.3898 96.6885 49.2898 97.3385 49.2898C97.7185 49.2898 98.1135 49.3198 98.5235 49.3798C98.9335 49.4398 99.2985 49.5298 99.6185 49.6498V48.9898C99.6185 48.3298 99.4235 47.8048 99.0335 47.4148C98.6435 47.0248 98.1035 46.8298 97.4135 46.8298C96.9935 46.8298 96.5785 46.9098 96.1685 47.0698C95.7685 47.2198 95.3485 47.4448 94.9085 47.7448L94.5185 47.0248C95.0285 46.6748 95.5285 46.4148 96.0185 46.2448C96.5085 46.0648 97.0085 45.9748 97.5185 45.9748C98.4785 45.9748 99.2385 46.2498 99.7985 46.7998C100.358 47.3498 100.638 48.1098 100.638 49.0798V52.6948C100.638 52.8348 100.668 52.9398 100.728 53.0098C100.788 53.0698 100.883 53.1048 101.013 53.1148V53.9248C100.903 53.9348 100.808 53.9448 100.728 53.9548C100.648 53.9648 100.588 53.9648 100.548 53.9548C100.298 53.9448 100.108 53.8648 99.9785 53.7148C99.8485 53.5648 99.7785 53.4048 99.7685 53.2348L99.7535 52.6648C99.4035 53.1148 98.9485 53.4648 98.3885 53.7148C97.8285 53.9548 97.2585 54.0748 96.6785 54.0748C96.1785 54.0748 95.7235 53.9698 95.3135 53.7598C94.9135 53.5398 94.5985 53.2498 94.3685 52.8898C94.1485 52.5198 94.0385 52.1148 94.0385 51.6748ZM99.2735 52.2748C99.3835 52.1348 99.4685 51.9998 99.5285 51.8698C99.5885 51.7398 99.6185 51.6248 99.6185 51.5248V50.3848C99.2785 50.2548 98.9235 50.1548 98.5535 50.0848C98.1935 50.0148 97.8285 49.9798 97.4585 49.9798C96.7285 49.9798 96.1385 50.1248 95.6885 50.4148C95.2385 50.7048 95.0135 51.0998 95.0135 51.5998C95.0135 51.8898 95.0885 52.1648 95.2385 52.4248C95.3885 52.6748 95.6085 52.8848 95.8985 53.0548C96.1885 53.2148 96.5285 53.2948 96.9185 53.2948C97.4085 53.2948 97.8635 53.1998 98.2835 53.0098C98.7135 52.8198 99.0435 52.5748 99.2735 52.2748ZM102.887 42.9748H103.907V52.1548C103.907 52.5448 103.977 52.7998 104.117 52.9198C104.257 53.0398 104.427 53.0998 104.627 53.0998C104.807 53.0998 104.987 53.0798 105.167 53.0398C105.347 52.9998 105.502 52.9598 105.632 52.9198L105.812 53.7448C105.622 53.8248 105.387 53.8898 105.107 53.9398C104.837 53.9898 104.602 54.0148 104.402 54.0148C103.942 54.0148 103.572 53.8798 103.292 53.6098C103.022 53.3398 102.887 52.9698 102.887 52.4998V42.9748ZM106.929 53.9248V46.1098H107.949V53.9248H106.929ZM106.929 44.4748V42.9748H107.949V44.4748H106.929ZM113.946 53.5498C113.866 53.5798 113.741 53.6348 113.571 53.7148C113.401 53.7948 113.196 53.8648 112.956 53.9248C112.716 53.9848 112.456 54.0148 112.176 54.0148C111.886 54.0148 111.611 53.9598 111.351 53.8498C111.101 53.7398 110.901 53.5748 110.751 53.3548C110.601 53.1248 110.526 52.8448 110.526 52.5148V46.9198H109.446V46.1098H110.526V43.4698H111.546V46.1098H113.346V46.9198H111.546V52.2298C111.566 52.5098 111.666 52.7198 111.846 52.8598C112.036 52.9998 112.251 53.0698 112.491 53.0698C112.771 53.0698 113.026 53.0248 113.256 52.9348C113.486 52.8348 113.626 52.7648 113.676 52.7248L113.946 53.5498ZM115.67 56.3248C115.81 56.3348 115.945 56.3398 116.075 56.3398C116.205 56.3498 116.3 56.3448 116.36 56.3248C116.48 56.3048 116.595 56.2348 116.705 56.1148C116.815 55.9948 116.945 55.7648 117.095 55.4248C117.245 55.0848 117.455 54.5848 117.725 53.9248L114.32 46.1098H115.4L118.265 52.8748L120.905 46.1098H121.925L117.875 56.1898C117.805 56.3798 117.7 56.5548 117.56 56.7148C117.42 56.8848 117.245 57.0148 117.035 57.1048C116.835 57.2048 116.585 57.2598 116.285 57.2698C116.195 57.2798 116.1 57.2798 116 57.2698C115.91 57.2698 115.8 57.2598 115.67 57.2398V56.3248ZM131.728 52.9948V53.9248H126.643V52.9948H128.773V46.5748C128.693 46.6948 128.558 46.8248 128.368 46.9648C128.178 47.1048 127.958 47.2348 127.708 47.3548C127.468 47.4748 127.228 47.5748 126.988 47.6548C126.748 47.7348 126.528 47.7748 126.328 47.7748V46.7848C126.558 46.7848 126.808 46.7198 127.078 46.5898C127.348 46.4598 127.608 46.3098 127.858 46.1398C128.108 45.9698 128.318 45.8098 128.488 45.6598C128.658 45.5098 128.753 45.4098 128.773 45.3598H129.823V52.9948H131.728ZM140.409 49.5298C140.409 50.4098 140.244 51.1948 139.914 51.8848C139.594 52.5648 139.149 53.0998 138.579 53.4898C138.009 53.8798 137.364 54.0748 136.644 54.0748C135.924 54.0748 135.279 53.8798 134.709 53.4898C134.149 53.0998 133.704 52.5648 133.374 51.8848C133.044 51.1948 132.879 50.4098 132.879 49.5298C132.879 48.6498 133.044 47.8698 133.374 47.1898C133.704 46.4998 134.149 45.9598 134.709 45.5698C135.279 45.1698 135.924 44.9698 136.644 44.9698C137.364 44.9698 138.009 45.1698 138.579 45.5698C139.149 45.9598 139.594 46.4998 139.914 47.1898C140.244 47.8698 140.409 48.6498 140.409 49.5298ZM139.374 49.5298C139.374 48.8198 139.259 48.1948 139.029 47.6548C138.799 47.1148 138.479 46.6948 138.069 46.3948C137.659 46.0848 137.184 45.9298 136.644 45.9298C136.104 45.9298 135.629 46.0848 135.219 46.3948C134.809 46.6948 134.484 47.1148 134.244 47.6548C134.014 48.1948 133.899 48.8198 133.899 49.5298C133.899 50.2398 134.014 50.8648 134.244 51.4048C134.484 51.9448 134.809 52.3648 135.219 52.6648C135.629 52.9648 136.104 53.1148 136.644 53.1148C137.184 53.1148 137.659 52.9648 138.069 52.6648C138.479 52.3548 138.799 51.9348 139.029 51.4048C139.259 50.8648 139.374 50.2398 139.374 49.5298ZM149.594 49.5298C149.594 50.4098 149.429 51.1948 149.099 51.8848C148.779 52.5648 148.334 53.0998 147.764 53.4898C147.194 53.8798 146.549 54.0748 145.829 54.0748C145.109 54.0748 144.464 53.8798 143.894 53.4898C143.334 53.0998 142.889 52.5648 142.559 51.8848C142.229 51.1948 142.064 50.4098 142.064 49.5298C142.064 48.6498 142.229 47.8698 142.559 47.1898C142.889 46.4998 143.334 45.9598 143.894 45.5698C144.464 45.1698 145.109 44.9698 145.829 44.9698C146.549 44.9698 147.194 45.1698 147.764 45.5698C148.334 45.9598 148.779 46.4998 149.099 47.1898C149.429 47.8698 149.594 48.6498 149.594 49.5298ZM148.559 49.5298C148.559 48.8198 148.444 48.1948 148.214 47.6548C147.984 47.1148 147.664 46.6948 147.254 46.3948C146.844 46.0848 146.369 45.9298 145.829 45.9298C145.289 45.9298 144.814 46.0848 144.404 46.3948C143.994 46.6948 143.669 47.1148 143.429 47.6548C143.199 48.1948 143.084 48.8198 143.084 49.5298C143.084 50.2398 143.199 50.8648 143.429 51.4048C143.669 51.9448 143.994 52.3648 144.404 52.6648C144.814 52.9648 145.289 53.1148 145.829 53.1148C146.369 53.1148 146.844 52.9648 147.254 52.6648C147.664 52.3548 147.984 51.9348 148.214 51.4048C148.444 50.8648 148.559 50.2398 148.559 49.5298ZM153.273 47.4298C152.863 47.4298 152.488 47.3348 152.148 47.1448C151.808 46.9548 151.533 46.6948 151.323 46.3648C151.123 46.0348 151.023 45.6748 151.023 45.2848C151.023 44.8848 151.123 44.5198 151.323 44.1898C151.533 43.8598 151.808 43.5998 152.148 43.4098C152.488 43.2198 152.863 43.1248 153.273 43.1248C153.683 43.1248 154.058 43.2198 154.398 43.4098C154.738 43.5998 155.008 43.8598 155.208 44.1898C155.408 44.5198 155.508 44.8798 155.508 45.2698C155.508 45.6698 155.408 46.0348 155.208 46.3648C155.008 46.6948 154.738 46.9548 154.398 47.1448C154.058 47.3348 153.683 47.4298 153.273 47.4298ZM153.273 46.8448C153.543 46.8448 153.788 46.7748 154.008 46.6348C154.238 46.4848 154.418 46.2898 154.548 46.0498C154.678 45.8098 154.743 45.5548 154.743 45.2848C154.743 44.9948 154.673 44.7298 154.533 44.4898C154.393 44.2498 154.208 44.0648 153.978 43.9348C153.758 43.7948 153.523 43.7248 153.273 43.7248C152.993 43.7248 152.743 43.7998 152.523 43.9498C152.303 44.0898 152.123 44.2798 151.983 44.5198C151.853 44.7498 151.788 44.9998 151.788 45.2698C151.788 45.5598 151.853 45.8248 151.983 46.0648C152.123 46.2948 152.303 46.4848 152.523 46.6348C152.753 46.7748 153.003 46.8448 153.273 46.8448ZM158.298 54.0748C157.888 54.0748 157.513 53.9798 157.173 53.7898C156.833 53.5998 156.563 53.3398 156.363 53.0098C156.163 52.6798 156.063 52.3148 156.063 51.9148C156.063 51.5148 156.163 51.1548 156.363 50.8348C156.563 50.5048 156.833 50.2448 157.173 50.0548C157.513 49.8648 157.888 49.7698 158.298 49.7698C158.718 49.7698 159.098 49.8648 159.438 50.0548C159.778 50.2448 160.048 50.5048 160.248 50.8348C160.448 51.1548 160.548 51.5148 160.548 51.9148C160.548 52.3148 160.448 52.6798 160.248 53.0098C160.048 53.3298 159.778 53.5898 159.438 53.7898C159.098 53.9798 158.718 54.0748 158.298 54.0748ZM158.298 53.4748C158.578 53.4748 158.828 53.4048 159.048 53.2648C159.278 53.1148 159.453 52.9248 159.573 52.6948C159.703 52.4548 159.768 52.1998 159.768 51.9298C159.768 51.6398 159.698 51.3748 159.558 51.1348C159.428 50.8948 159.248 50.7048 159.018 50.5648C158.798 50.4248 158.558 50.3548 158.298 50.3548C158.028 50.3548 157.778 50.4298 157.548 50.5798C157.328 50.7198 157.153 50.9098 157.023 51.1498C156.893 51.3898 156.828 51.6448 156.828 51.9148C156.828 52.2048 156.893 52.4698 157.023 52.7098C157.163 52.9398 157.343 53.1248 157.563 53.2648C157.793 53.4048 158.038 53.4748 158.298 53.4748ZM151.383 53.5198L155.583 48.4198L159.648 43.2148L160.173 43.6648L156.003 48.7648L151.908 53.9848L151.383 53.5198Z" fill="white"/>
<path d="M190.361 54.0748C189.831 54.0748 189.346 53.9648 188.906 53.7448C188.476 53.5248 188.106 53.2248 187.796 52.8448C187.486 52.4648 187.246 52.0348 187.076 51.5548C186.906 51.0648 186.821 50.5548 186.821 50.0248C186.821 49.4748 186.916 48.9598 187.106 48.4798C187.296 47.9898 187.556 47.5598 187.886 47.1898C188.226 46.8098 188.621 46.5148 189.071 46.3048C189.531 46.0848 190.021 45.9748 190.541 45.9748C191.151 45.9748 191.711 46.1348 192.221 46.4548C192.741 46.7648 193.146 47.1598 193.436 47.6398V46.1098H194.351V57.1198H193.331V52.3048C192.561 53.4848 191.571 54.0748 190.361 54.0748ZM190.676 53.1748C191.086 53.1748 191.456 53.0948 191.786 52.9348C192.126 52.7648 192.421 52.5398 192.671 52.2598C192.931 51.9798 193.151 51.6698 193.331 51.3298V48.9148C193.301 48.6448 193.201 48.3898 193.031 48.1498C192.861 47.8998 192.651 47.6798 192.401 47.4898C192.151 47.2898 191.881 47.1398 191.591 47.0398C191.301 46.9298 191.016 46.8748 190.736 46.8748C190.306 46.8748 189.916 46.9648 189.566 47.1448C189.226 47.3248 188.926 47.5648 188.666 47.8648C188.406 48.1648 188.206 48.5048 188.066 48.8848C187.926 49.2648 187.856 49.6498 187.856 50.0398C187.856 50.5998 187.976 51.1198 188.216 51.5998C188.466 52.0798 188.801 52.4648 189.221 52.7548C189.641 53.0348 190.126 53.1748 190.676 53.1748ZM196.529 50.6998V46.1098H197.549V50.5198C197.549 51.4098 197.699 52.0748 197.999 52.5148C198.309 52.9548 198.764 53.1748 199.364 53.1748C199.764 53.1748 200.149 53.0898 200.519 52.9198C200.899 52.7398 201.234 52.4898 201.524 52.1698C201.814 51.8398 202.034 51.4598 202.184 51.0298V46.1098H203.204V52.6948C203.204 52.8348 203.234 52.9398 203.294 53.0098C203.354 53.0698 203.444 53.1048 203.564 53.1148V53.9248C203.444 53.9348 203.349 53.9398 203.279 53.9398C203.209 53.9498 203.144 53.9548 203.084 53.9548C202.884 53.9348 202.709 53.8548 202.559 53.7148C202.419 53.5748 202.344 53.4048 202.334 53.2048L202.304 52.1548C201.964 52.7548 201.499 53.2248 200.909 53.5648C200.329 53.9048 199.699 54.0748 199.019 54.0748C198.199 54.0748 197.579 53.7898 197.159 53.2198C196.739 52.6498 196.529 51.8098 196.529 50.6998ZM204.88 51.6748C204.88 51.1848 205.02 50.7648 205.3 50.4148C205.58 50.0548 205.965 49.7798 206.455 49.5898C206.955 49.3898 207.53 49.2898 208.18 49.2898C208.56 49.2898 208.955 49.3198 209.365 49.3798C209.775 49.4398 210.14 49.5298 210.46 49.6498V48.9898C210.46 48.3298 210.265 47.8048 209.875 47.4148C209.485 47.0248 208.945 46.8298 208.255 46.8298C207.835 46.8298 207.42 46.9098 207.01 47.0698C206.61 47.2198 206.19 47.4448 205.75 47.7448L205.36 47.0248C205.87 46.6748 206.37 46.4148 206.86 46.2448C207.35 46.0648 207.85 45.9748 208.36 45.9748C209.32 45.9748 210.08 46.2498 210.64 46.7998C211.2 47.3498 211.48 48.1098 211.48 49.0798V52.6948C211.48 52.8348 211.51 52.9398 211.57 53.0098C211.63 53.0698 211.725 53.1048 211.855 53.1148V53.9248C211.745 53.9348 211.65 53.9448 211.57 53.9548C211.49 53.9648 211.43 53.9648 211.39 53.9548C211.14 53.9448 210.95 53.8648 210.82 53.7148C210.69 53.5648 210.62 53.4048 210.61 53.2348L210.595 52.6648C210.245 53.1148 209.79 53.4648 209.23 53.7148C208.67 53.9548 208.1 54.0748 207.52 54.0748C207.02 54.0748 206.565 53.9698 206.155 53.7598C205.755 53.5398 205.44 53.2498 205.21 52.8898C204.99 52.5198 204.88 52.1148 204.88 51.6748ZM210.115 52.2748C210.225 52.1348 210.31 51.9998 210.37 51.8698C210.43 51.7398 210.46 51.6248 210.46 51.5248V50.3848C210.12 50.2548 209.765 50.1548 209.395 50.0848C209.035 50.0148 208.67 49.9798 208.3 49.9798C207.57 49.9798 206.98 50.1248 206.53 50.4148C206.08 50.7048 205.855 51.0998 205.855 51.5998C205.855 51.8898 205.93 52.1648 206.08 52.4248C206.23 52.6748 206.45 52.8848 206.74 53.0548C207.03 53.2148 207.37 53.2948 207.76 53.2948C208.25 53.2948 208.705 53.1998 209.125 53.0098C209.555 52.8198 209.885 52.5748 210.115 52.2748ZM213.729 42.9748H214.749V52.1548C214.749 52.5448 214.819 52.7998 214.959 52.9198C215.099 53.0398 215.269 53.0998 215.469 53.0998C215.649 53.0998 215.829 53.0798 216.009 53.0398C216.189 52.9998 216.344 52.9598 216.474 52.9198L216.654 53.7448C216.464 53.8248 216.229 53.8898 215.949 53.9398C215.679 53.9898 215.444 54.0148 215.244 54.0148C214.784 54.0148 214.414 53.8798 214.134 53.6098C213.864 53.3398 213.729 52.9698 213.729 52.4998V42.9748ZM217.771 53.9248V46.1098H218.791V53.9248H217.771ZM217.771 44.4748V42.9748H218.791V44.4748H217.771ZM224.788 53.5498C224.708 53.5798 224.583 53.6348 224.413 53.7148C224.243 53.7948 224.038 53.8648 223.798 53.9248C223.558 53.9848 223.298 54.0148 223.018 54.0148C222.728 54.0148 222.453 53.9598 222.193 53.8498C221.943 53.7398 221.743 53.5748 221.593 53.3548C221.443 53.1248 221.368 52.8448 221.368 52.5148V46.9198H220.288V46.1098H221.368V43.4698H222.388V46.1098H224.188V46.9198H222.388V52.2298C222.408 52.5098 222.508 52.7198 222.688 52.8598C222.878 52.9998 223.093 53.0698 223.333 53.0698C223.613 53.0698 223.868 53.0248 224.098 52.9348C224.328 52.8348 224.468 52.7648 224.518 52.7248L224.788 53.5498ZM226.512 56.3248C226.652 56.3348 226.787 56.3398 226.917 56.3398C227.047 56.3498 227.142 56.3448 227.202 56.3248C227.322 56.3048 227.437 56.2348 227.547 56.1148C227.657 55.9948 227.787 55.7648 227.937 55.4248C228.087 55.0848 228.297 54.5848 228.567 53.9248L225.162 46.1098H226.242L229.107 52.8748L231.747 46.1098H232.767L228.717 56.1898C228.647 56.3798 228.542 56.5548 228.402 56.7148C228.262 56.8848 228.087 57.0148 227.877 57.1048C227.677 57.2048 227.427 57.2598 227.127 57.2698C227.037 57.2798 226.942 57.2798 226.842 57.2698C226.752 57.2698 226.642 57.2598 226.512 57.2398V56.3248ZM242.57 52.9948V53.9248H237.485V52.9948H239.615V46.5748C239.535 46.6948 239.4 46.8248 239.21 46.9648C239.02 47.1048 238.8 47.2348 238.55 47.3548C238.31 47.4748 238.07 47.5748 237.83 47.6548C237.59 47.7348 237.37 47.7748 237.17 47.7748V46.7848C237.4 46.7848 237.65 46.7198 237.92 46.5898C238.19 46.4598 238.45 46.3098 238.7 46.1398C238.95 45.9698 239.16 45.8098 239.33 45.6598C239.5 45.5098 239.595 45.4098 239.615 45.3598H240.665V52.9948H242.57ZM251.251 49.5298C251.251 50.4098 251.086 51.1948 250.756 51.8848C250.436 52.5648 249.991 53.0998 249.421 53.4898C248.851 53.8798 248.206 54.0748 247.486 54.0748C246.766 54.0748 246.121 53.8798 245.551 53.4898C244.991 53.0998 244.546 52.5648 244.216 51.8848C243.886 51.1948 243.721 50.4098 243.721 49.5298C243.721 48.6498 243.886 47.8698 244.216 47.1898C244.546 46.4998 244.991 45.9598 245.551 45.5698C246.121 45.1698 246.766 44.9698 247.486 44.9698C248.206 44.9698 248.851 45.1698 249.421 45.5698C249.991 45.9598 250.436 46.4998 250.756 47.1898C251.086 47.8698 251.251 48.6498 251.251 49.5298ZM250.216 49.5298C250.216 48.8198 250.101 48.1948 249.871 47.6548C249.641 47.1148 249.321 46.6948 248.911 46.3948C248.501 46.0848 248.026 45.9298 247.486 45.9298C246.946 45.9298 246.471 46.0848 246.061 46.3948C245.651 46.6948 245.326 47.1148 245.086 47.6548C244.856 48.1948 244.741 48.8198 244.741 49.5298C244.741 50.2398 244.856 50.8648 245.086 51.4048C245.326 51.9448 245.651 52.3648 246.061 52.6648C246.471 52.9648 246.946 53.1148 247.486 53.1148C248.026 53.1148 248.501 52.9648 248.911 52.6648C249.321 52.3548 249.641 51.9348 249.871 51.4048C250.101 50.8648 250.216 50.2398 250.216 49.5298ZM260.436 49.5298C260.436 50.4098 260.271 51.1948 259.941 51.8848C259.621 52.5648 259.176 53.0998 258.606 53.4898C258.036 53.8798 257.391 54.0748 256.671 54.0748C255.951 54.0748 255.306 53.8798 254.736 53.4898C254.176 53.0998 253.731 52.5648 253.401 51.8848C253.071 51.1948 252.906 50.4098 252.906 49.5298C252.906 48.6498 253.071 47.8698 253.401 47.1898C253.731 46.4998 254.176 45.9598 254.736 45.5698C255.306 45.1698 255.951 44.9698 256.671 44.9698C257.391 44.9698 258.036 45.1698 258.606 45.5698C259.176 45.9598 259.621 46.4998 259.941 47.1898C260.271 47.8698 260.436 48.6498 260.436 49.5298ZM259.401 49.5298C259.401 48.8198 259.286 48.1948 259.056 47.6548C258.826 47.1148 258.506 46.6948 258.096 46.3948C257.686 46.0848 257.211 45.9298 256.671 45.9298C256.131 45.9298 255.656 46.0848 255.246 46.3948C254.836 46.6948 254.511 47.1148 254.271 47.6548C254.041 48.1948 253.926 48.8198 253.926 49.5298C253.926 50.2398 254.041 50.8648 254.271 51.4048C254.511 51.9448 254.836 52.3648 255.246 52.6648C255.656 52.9648 256.131 53.1148 256.671 53.1148C257.211 53.1148 257.686 52.9648 258.096 52.6648C258.506 52.3548 258.826 51.9348 259.056 51.4048C259.286 50.8648 259.401 50.2398 259.401 49.5298ZM264.115 47.4298C263.705 47.4298 263.33 47.3348 262.99 47.1448C262.65 46.9548 262.375 46.6948 262.165 46.3648C261.965 46.0348 261.865 45.6748 261.865 45.2848C261.865 44.8848 261.965 44.5198 262.165 44.1898C262.375 43.8598 262.65 43.5998 262.99 43.4098C263.33 43.2198 263.705 43.1248 264.115 43.1248C264.525 43.1248 264.9 43.2198 265.24 43.4098C265.58 43.5998 265.85 43.8598 266.05 44.1898C266.25 44.5198 266.35 44.8798 266.35 45.2698C266.35 45.6698 266.25 46.0348 266.05 46.3648C265.85 46.6948 265.58 46.9548 265.24 47.1448C264.9 47.3348 264.525 47.4298 264.115 47.4298ZM264.115 46.8448C264.385 46.8448 264.63 46.7748 264.85 46.6348C265.08 46.4848 265.26 46.2898 265.39 46.0498C265.52 45.8098 265.585 45.5548 265.585 45.2848C265.585 44.9948 265.515 44.7298 265.375 44.4898C265.235 44.2498 265.05 44.0648 264.82 43.9348C264.6 43.7948 264.365 43.7248 264.115 43.7248C263.835 43.7248 263.585 43.7998 263.365 43.9498C263.145 44.0898 262.965 44.2798 262.825 44.5198C262.695 44.7498 262.63 44.9998 262.63 45.2698C262.63 45.5598 262.695 45.8248 262.825 46.0648C262.965 46.2948 263.145 46.4848 263.365 46.6348C263.595 46.7748 263.845 46.8448 264.115 46.8448ZM269.14 54.0748C268.73 54.0748 268.355 53.9798 268.015 53.7898C267.675 53.5998 267.405 53.3398 267.205 53.0098C267.005 52.6798 266.905 52.3148 266.905 51.9148C266.905 51.5148 267.005 51.1548 267.205 50.8348C267.405 50.5048 267.675 50.2448 268.015 50.0548C268.355 49.8648 268.73 49.7698 269.14 49.7698C269.56 49.7698 269.94 49.8648 270.28 50.0548C270.62 50.2448 270.89 50.5048 271.09 50.8348C271.29 51.1548 271.39 51.5148 271.39 51.9148C271.39 52.3148 271.29 52.6798 271.09 53.0098C270.89 53.3298 270.62 53.5898 270.28 53.7898C269.94 53.9798 269.56 54.0748 269.14 54.0748ZM269.14 53.4748C269.42 53.4748 269.67 53.4048 269.89 53.2648C270.12 53.1148 270.295 52.9248 270.415 52.6948C270.545 52.4548 270.61 52.1998 270.61 51.9298C270.61 51.6398 270.54 51.3748 270.4 51.1348C270.27 50.8948 270.09 50.7048 269.86 50.5648C269.64 50.4248 269.4 50.3548 269.14 50.3548C268.87 50.3548 268.62 50.4298 268.39 50.5798C268.17 50.7198 267.995 50.9098 267.865 51.1498C267.735 51.3898 267.67 51.6448 267.67 51.9148C267.67 52.2048 267.735 52.4698 267.865 52.7098C268.005 52.9398 268.185 53.1248 268.405 53.2648C268.635 53.4048 268.88 53.4748 269.14 53.4748ZM262.225 53.5198L266.425 48.4198L270.49 43.2148L271.015 43.6648L266.845 48.7648L262.75 53.9848L262.225 53.5198Z" fill="white"/>
<rect x="31.1108" y="83.7988" width="145.555" height="50" fill="url(#pattern0)"/>
<rect x="236.951" y="107.702" width="62.1995" height="41.4665" fill="#2F80ED"/>
<defs>
<pattern id="pattern0" patternContentUnits="objectBoundingBox" width="1" height="1">
<use xlink:href="#image0" transform="translate(-0.367206 -1.21579) scale(0.00042344 0.00122907)"/>
</pattern>
  <image id="image0" width="4096" height="2792" xlink:href=""/>
</defs>
</svg>
