<svg width="20" height="20" viewBox="0 0 20 20" fill="none" xmlns="http://www.w3.org/2000/svg">
<path d="M19.2188 9.21875H0.78125C0.349766 9.21875 0 9.56852 0 10C0 10.4315 0.349766 10.7812 0.78125 10.7812H19.2188C19.6502 10.7812 20 10.4315 20 10C20 9.56852 19.6502 9.21875 19.2188 9.21875Z" fill="#323236"/>
<path d="M19.2188 9.21875H0.78125C0.349766 9.21875 0 9.56852 0 10C0 10.4315 0.349766 10.7812 0.78125 10.7812H19.2188C19.6502 10.7812 20 10.4315 20 10C20 9.56852 19.6502 9.21875 19.2188 9.21875Z" stroke="white"/>
<path d="M19.2188 1.96875H0.78125C0.349766 1.96875 0 2.31852 0 2.75C0 3.18148 0.349766 3.53125 0.78125 3.53125H19.2188C19.6502 3.53125 20 3.18148 20 2.75C20 2.31852 19.6502 1.96875 19.2188 1.96875Z" fill="#323236"/>
<path d="M19.2188 1.96875H0.78125C0.349766 1.96875 0 2.31852 0 2.75C0 3.18148 0.349766 3.53125 0.78125 3.53125H19.2188C19.6502 3.53125 20 3.18148 20 2.75C20 2.31852 19.6502 1.96875 19.2188 1.96875Z" stroke="white"/>
<path d="M19.2188 16.4688H0.78125C0.349766 16.4688 0 16.8185 0 17.25C0 17.6815 0.349766 18.0312 0.78125 18.0312H19.2188C19.6502 18.0312 20 17.6815 20 17.25C20 16.8185 19.6502 16.4688 19.2188 16.4688Z" fill="#323236"/>
<path d="M19.2188 16.4688H0.78125C0.349766 16.4688 0 16.8185 0 17.25C0 17.6815 0.349766 18.0312 0.78125 18.0312H19.2188C19.6502 18.0312 20 17.6815 20 17.25C20 16.8185 19.6502 16.4688 19.2188 16.4688Z" stroke="white"/>
</svg>
