<svg width="213" height="23" viewBox="0 0 213 23" fill="none" xmlns="http://www.w3.org/2000/svg">
<path d="M56.0082 9.37863V18.517H52.803L52.6343 16.0247C51.9595 17.1324 51.116 17.8524 50.2163 18.2954C48.8105 18.96 47.1236 18.96 45.8302 18.96C43.5247 18.96 40.8256 18.7385 38.745 16.5785C37.5079 15.3047 36.4395 13.1447 36.4395 10.0986C36.4395 6.44329 37.9015 4.3387 39.0824 3.28641C41.3316 1.12644 44.2557 0.904907 46.3925 0.904907C50.3288 0.904907 52.072 1.84643 52.9155 2.2895C55.221 3.72948 55.6146 5.66792 55.7271 6.99713H50.9473C50.8911 6.16637 50.5537 5.50176 49.5415 4.94793C48.5856 4.39409 47.5734 4.3387 46.6737 4.3387C45.3804 4.3387 43.9183 4.56024 42.7937 5.61253C41.7815 6.66482 41.3316 8.32634 41.3316 10.0432C41.3316 12.2586 42.1189 13.5878 42.8499 14.3078C44.0308 15.4709 45.3804 15.5816 46.6737 15.5816C47.7421 15.5816 49.0355 15.4708 49.9914 14.6955C50.5537 14.2524 51.1723 13.3663 51.341 12.1478H47.3485V9.37863H56.0082Z" fill="#323236"/>
<path d="M59.439 1.4599H69.7295C71.4165 1.4599 73.8907 1.57067 75.3528 3.01065C76.3649 4.00756 76.5336 5.28138 76.5336 6.27829C76.5336 7.44135 76.2525 8.43826 75.409 9.3244C74.7904 9.93362 73.947 10.3213 73.1597 10.5428V10.6536C73.8907 10.7644 74.678 11.0967 75.1841 11.7059C76.0275 12.5367 75.9713 13.4228 76.0275 14.3089L76.14 16.2474C76.1962 17.0781 76.3087 17.7981 76.871 18.6843H72.0351C71.4727 17.9089 71.4165 17.3551 71.3603 16.5243L71.304 15.0843C71.2478 14.032 70.9104 13.3674 70.4606 13.0351C69.9545 12.6474 68.9985 12.4259 68.2113 12.4259H63.9376V18.6843H59.3828V1.4599H59.439ZM64.0501 9.04748H68.8861C69.6733 9.04748 70.6293 9.04748 71.304 8.38288C71.5852 8.10596 71.8664 7.6075 71.8664 6.9429C71.8664 6.05676 71.4165 5.5583 71.0229 5.28138C70.5168 4.94908 69.3359 4.8937 68.8298 4.8937H64.0501V9.04748Z" fill="#323236"/>
<path d="M82.4926 18.5727H77.7129L85.4729 1.5145H89.9715L97.7315 18.5727H92.9518L91.4335 15.0835H83.9547L82.4926 18.5727ZM90.4213 12.1482L87.7222 5.77905L85.0793 12.1482H90.4213Z" fill="#323236"/>
<path d="M117.133 18.5735H112.69L103.918 7.10905V18.5735H99.3633V1.4599H103.806L112.522 12.9243V1.4599H117.076V18.5735H117.133Z" fill="#323236"/>
<path d="M128.998 1.4599C131.754 1.4599 134.846 1.95835 136.814 3.8414C138.839 5.72445 139.12 8.32749 139.12 9.93362C139.12 13.2566 137.883 15.1397 136.814 16.192C134.509 18.4627 130.966 18.5181 128.605 18.5181H120.957V1.4599H128.998ZM125.512 15.1397H128.155C129.392 15.1397 131.304 15.0843 132.71 13.9766C133.553 13.2566 134.34 11.9828 134.34 9.98901C134.34 7.9398 133.497 6.66598 132.822 6.05676C131.472 4.94908 129.729 4.8937 128.436 4.8937H125.512V15.1397Z" fill="#323236"/>
<path d="M146.654 1.4599V18.5181H142.1V1.4599H146.654Z" fill="#323236"/>
<path d="M167.517 16.5791C166.223 17.7421 163.918 19.0713 159.925 19.0713C155.933 19.0713 153.627 17.7421 152.334 16.5791C150.028 14.5299 149.635 12.0376 149.635 10.0438C149.635 7.99457 150.028 5.55768 152.334 3.50848C153.627 2.34542 155.933 1.0162 159.925 1.0162C163.918 1.0162 166.223 2.34542 167.517 3.50848C169.822 5.55768 170.216 7.99457 170.216 10.0438C170.272 12.0376 169.878 14.5299 167.517 16.5791ZM156.158 5.72383C154.696 7.05304 154.583 9.04686 154.583 10.0438C154.583 10.9853 154.752 12.9791 156.158 14.3637C157.339 15.5268 158.744 15.6929 159.925 15.6929C161.106 15.6929 162.512 15.5268 163.693 14.3637C165.155 13.0345 165.267 11.0407 165.267 10.0438C165.267 9.10224 165.099 7.10843 163.693 5.72383C162.512 4.56077 161.106 4.39462 159.925 4.39462C158.801 4.39462 157.395 4.56077 156.158 5.72383Z" fill="#323236"/>
<path d="M177.019 13.035V13.1458C177.019 13.9765 177.3 14.475 177.694 14.8073C178.537 15.638 180.168 15.7488 181.012 15.7488C182.305 15.7488 183.036 15.638 183.486 15.3611C184.273 14.9734 184.611 14.2534 184.611 13.6442C184.611 13.2565 184.442 12.5919 183.373 12.2042C182.867 11.9827 181.574 11.7612 180.955 11.6504L178.481 11.2627C176.569 10.9858 174.376 10.6535 173.252 9.43504C172.858 8.99197 172.296 8.16121 172.296 6.72123C172.296 4.72742 173.083 3.34282 174.657 2.34592C176.401 1.29362 178.537 1.12747 180.337 1.12747C183.486 1.12747 185.229 1.57054 186.354 2.29053C188.434 3.45359 188.772 5.17049 188.659 6.44432H184.048C183.992 5.83509 183.767 5.28126 182.98 4.89357C182.136 4.50588 180.843 4.4505 180.224 4.4505C179.381 4.4505 178.425 4.56127 177.863 4.89357C177.3 5.28126 177.019 5.77971 177.019 6.38893C177.019 7.1643 177.694 7.49661 178.256 7.66276C178.706 7.88429 179.381 7.99506 181.237 8.27198L183.205 8.60428C184.779 8.8812 186.466 9.15812 187.591 10.0443C189.053 11.0966 189.334 12.5919 189.334 13.755C189.334 15.8042 188.378 17.1334 187.31 17.9088C186.41 18.518 184.779 19.238 181.18 19.238C178.425 19.238 175.332 19.0718 173.533 17.2442C172.296 15.9149 172.127 14.3642 172.127 13.3119V13.2011H177.019V13.035Z" fill="#323236"/>
<path d="M209.298 16.5791C208.005 17.7421 205.699 19.0713 201.707 19.0713C197.714 19.0713 195.409 17.7421 194.115 16.5791C191.81 14.5299 191.416 12.0376 191.416 10.0438C191.416 7.99457 191.81 5.55768 194.115 3.50848C195.409 2.34542 197.714 1.0162 201.707 1.0162C205.699 1.0162 208.005 2.34542 209.298 3.50848C211.603 5.55768 211.997 7.99457 211.997 10.0438C212.053 12.0376 211.66 14.5299 209.298 16.5791ZM197.939 5.72383C196.477 7.05304 196.364 9.04686 196.364 10.0438C196.364 10.9853 196.533 12.9791 197.939 14.3637C199.12 15.5268 200.526 15.6929 201.707 15.6929C202.887 15.6929 204.293 15.5268 205.474 14.3637C206.936 13.0345 207.049 11.0407 207.049 10.0438C207.049 9.10224 206.88 7.10843 205.474 5.72383C204.293 4.56077 202.887 4.39462 201.707 4.39462C200.582 4.39462 199.176 4.56077 197.939 5.72383Z" fill="#323236"/>
<path d="M24.4617 4.94794H19.9632L17.3203 10.7079L12.2031 22.0062H16.9829L18.5011 18.517H25.98L27.4983 22.0062H32.278L24.4617 4.94794ZM19.6258 15.637L22.2125 9.26788L24.9116 15.637H19.6258Z" fill="#323236"/>
<path d="M15.2952 1.4599L10.0093 14.2536L4.77974 1.4599H0L7.76005 18.5735H12.2586L14.9015 12.8136L20.0187 1.4599H15.2952Z" fill="#323236"/>
</svg>
