<svg width="196" height="20" viewBox="0 0 196 20" fill="none" xmlns="http://www.w3.org/2000/svg">
<path d="M51.5172 7.91362V16.4479H48.569L48.4138 14.1204C47.7931 15.1548 47.0173 15.8272 46.1897 16.241C44.8966 16.8617 43.3449 16.8617 42.1553 16.8617C40.0347 16.8617 37.552 16.6548 35.6382 14.6376C34.5003 13.448 33.5176 11.4308 33.5176 8.58602C33.5176 5.1723 34.8624 3.20683 35.9486 2.22409C38.0175 0.206892 40.7071 0 42.6725 0C46.2932 0 47.8966 0.879291 48.6724 1.29307C50.7931 2.63787 51.1551 4.44818 51.2586 5.68953H46.8621C46.8104 4.91368 46.5 4.29301 45.569 3.77578C44.6897 3.25855 43.7587 3.20683 42.9312 3.20683C41.7415 3.20683 40.3967 3.41372 39.3623 4.39645C38.4313 5.37919 38.0175 6.93088 38.0175 8.53429C38.0175 10.6032 38.7416 11.8446 39.414 12.517C40.5002 13.6031 41.7415 13.7066 42.9312 13.7066C43.9139 13.7066 45.1035 13.6031 45.9828 12.879C46.5 12.4652 47.069 11.6377 47.2242 10.4998H43.5518V7.91362H51.5172Z" fill="white"/>
<path d="M54.6728 0.518066H64.1381C65.6898 0.518066 67.9656 0.621513 69.3104 1.96631C70.2414 2.89732 70.3966 4.08695 70.3966 5.01797C70.3966 6.10415 70.138 7.03516 69.3622 7.86273C68.7932 8.43169 68.0174 8.79375 67.2932 9.00064V9.10408C67.9656 9.20753 68.6897 9.51787 69.1553 10.0868C69.9311 10.8627 69.8794 11.6902 69.9311 12.5178L70.0345 14.3281C70.0863 15.104 70.1897 15.7764 70.7069 16.6039H66.2588C65.7415 15.8798 65.6898 15.3626 65.6381 14.5867L65.5864 13.2419C65.5346 12.2592 65.2243 11.6385 64.8105 11.3282C64.345 10.9661 63.4657 10.7592 62.7416 10.7592H58.8107V16.6039H54.6211V0.518066H54.6728ZM58.9141 7.60412H63.3623C64.0864 7.60412 64.9657 7.60412 65.5864 6.98344C65.845 6.72483 66.1036 6.25932 66.1036 5.63864C66.1036 4.81108 65.6898 4.34557 65.3278 4.08695C64.8622 3.77662 63.7761 3.72489 63.3106 3.72489H58.9141V7.60412Z" fill="white"/>
<path d="M75.8789 16.4993H71.4824L78.6202 0.568604H82.758L89.8958 16.4993H85.4994L84.1028 13.2407H77.2237L75.8789 16.4993ZM83.1718 10.4994L80.6891 4.55127L78.2581 10.4994H83.1718Z" fill="white"/>
<path d="M107.739 16.5005H103.653L95.5841 5.79381V16.5005H91.3945V0.518066H95.4807L103.498 11.2247V0.518066H107.687V16.5005H107.739Z" fill="white"/>
<path d="M118.654 0.518066C121.189 0.518066 124.033 0.983573 125.844 2.74215C127.706 4.50074 127.964 6.93172 127.964 8.43168C127.964 11.5351 126.826 13.2936 125.844 14.2764C123.723 16.397 120.465 16.4487 118.292 16.4487H111.258V0.518066H118.654ZM115.447 13.2936H117.878C119.016 13.2936 120.775 13.2419 122.068 12.2075C122.844 11.5351 123.568 10.3454 123.568 8.48341C123.568 6.56966 122.792 5.38003 122.171 4.81107C120.93 3.77661 119.327 3.72489 118.137 3.72489H115.447V13.2936Z" fill="white"/>
<path d="M134.895 0.518066V16.4487H130.705V0.518066H134.895Z" fill="white"/>
<path d="M154.083 14.6377C152.893 15.7239 150.772 16.9652 147.1 16.9652C143.428 16.9652 141.307 15.7239 140.117 14.6377C137.997 12.7239 137.635 10.3964 137.635 8.53436C137.635 6.62061 137.997 4.3448 140.117 2.43105C141.307 1.34487 143.428 0.103516 147.1 0.103516C150.772 0.103516 152.893 1.34487 154.083 2.43105C156.203 4.3448 156.565 6.62061 156.565 8.53436C156.617 10.3964 156.255 12.7239 154.083 14.6377ZM143.635 4.49997C142.29 5.74132 142.186 7.60335 142.186 8.53436C142.186 9.41365 142.342 11.2757 143.635 12.5688C144.721 13.6549 146.014 13.8101 147.1 13.8101C148.186 13.8101 149.479 13.6549 150.566 12.5688C151.91 11.3274 152.014 9.46538 152.014 8.53436C152.014 7.65507 151.859 5.79304 150.566 4.49997C149.479 3.41379 148.186 3.25862 147.1 3.25862C146.066 3.25862 144.773 3.41379 143.635 4.49997Z" fill="white"/>
<path d="M162.824 11.3267V11.4302C162.824 12.206 163.083 12.6715 163.445 12.9819C164.221 13.7577 165.721 13.8612 166.496 13.8612C167.686 13.8612 168.358 13.7577 168.772 13.4991C169.496 13.137 169.807 12.4646 169.807 11.8957C169.807 11.5336 169.652 10.913 168.669 10.5509C168.203 10.344 167.014 10.1371 166.445 10.0337L164.169 9.67161C162.41 9.41299 160.393 9.10265 159.359 7.96475C158.997 7.55096 158.479 6.77512 158.479 5.43032C158.479 3.56829 159.204 2.27522 160.652 1.3442C162.255 0.361468 164.221 0.206299 165.876 0.206299C168.772 0.206299 170.376 0.620083 171.41 1.29248C173.324 2.37866 173.634 3.98208 173.531 5.17171H169.289C169.238 4.60275 169.031 4.08552 168.307 3.72346C167.531 3.3614 166.341 3.30968 165.772 3.30968C164.996 3.30968 164.117 3.41312 163.6 3.72346C163.083 4.08552 162.824 4.55103 162.824 5.11998C162.824 5.8441 163.445 6.15444 163.962 6.30961C164.376 6.5165 164.996 6.61995 166.703 6.87856L168.514 7.1889C169.962 7.44752 171.514 7.70613 172.548 8.5337C173.893 9.51644 174.151 10.913 174.151 11.9991C174.151 13.9129 173.272 15.1542 172.289 15.8784C171.462 16.4473 169.962 17.1197 166.652 17.1197C164.117 17.1197 161.272 16.9645 159.617 15.2577C158.479 14.0163 158.324 12.5681 158.324 11.5854V11.4819H162.824V11.3267Z" fill="white"/>
<path d="M192.514 14.6377C191.325 15.7239 189.204 16.9652 185.532 16.9652C181.859 16.9652 179.739 15.7239 178.549 14.6377C176.428 12.7239 176.066 10.3964 176.066 8.53436C176.066 6.62061 176.428 4.3448 178.549 2.43105C179.739 1.34487 181.859 0.103516 185.532 0.103516C189.204 0.103516 191.325 1.34487 192.514 2.43105C194.635 4.3448 194.997 6.62061 194.997 8.53436C195.049 10.3964 194.687 12.7239 192.514 14.6377ZM182.066 4.49997C180.721 5.74132 180.618 7.60335 180.618 8.53436C180.618 9.41365 180.773 11.2757 182.066 12.5688C183.152 13.6549 184.446 13.8101 185.532 13.8101C186.618 13.8101 187.911 13.6549 188.997 12.5688C190.342 11.3274 190.445 9.46538 190.445 8.53436C190.445 7.65507 190.29 5.79304 188.997 4.49997C187.911 3.41379 186.618 3.25862 185.532 3.25862C184.497 3.25862 183.204 3.41379 182.066 4.49997Z" fill="white"/>
<path d="M22.5002 3.77588H18.3624L15.9314 9.15507L11.2246 19.7066H15.6211L17.0176 16.448H23.8967L25.2933 19.7066H29.6897L22.5002 3.77588ZM18.052 13.7584L20.4313 7.81027L22.914 13.7584H18.052Z" fill="white"/>
<path d="M14.0687 0.518066L9.20669 12.4661L4.39645 0.518066H0L7.13777 16.5005H11.2756L13.7066 11.1213L18.4134 0.518066H14.0687Z" fill="white"/>
</svg>
