<svg width="281" height="60" viewBox="0 0 281 60" fill="none" xmlns="http://www.w3.org/2000/svg">
<path d="M259.341 1.17578C265.393 1.17578 270.386 3.53176 274.319 8.24371C278.328 12.9557 280.333 18.8836 280.333 26.0275V59.9992H271.823V27.0535C271.823 21.9616 270.348 17.7056 267.398 14.2856C264.447 10.7897 260.854 9.0417 256.618 9.0417C251.928 9.0417 248.032 10.7517 244.931 14.1716C241.905 17.5916 240.392 21.8856 240.392 27.0535V59.9992H231.882V27.0535C231.882 21.9616 230.407 17.7056 227.457 14.2856C224.582 10.7897 221.027 9.0417 216.791 9.0417C212.101 9.0417 208.205 10.7517 205.104 14.1716C202.078 17.5916 200.565 21.8856 200.565 27.0535V59.9992H192.055V2.31577H200.565V16.6796C202.154 11.9677 204.612 8.20571 207.941 5.39374C211.345 2.58177 215.24 1.17578 219.628 1.17578C224.393 1.17578 228.516 2.69577 231.996 5.73574C235.475 8.77571 237.896 12.8037 239.258 17.8196C240.619 12.8037 243.078 8.77571 246.633 5.73574C250.264 2.69577 254.5 1.17578 259.341 1.17578Z" fill="#C2F840"/>
<path d="M20.9917 60C14.9401 60 9.94749 57.6283 6.01395 52.8849C2.00478 48.1416 0.000177022 42.1741 0.000177645 34.9826L0.00018061 0.784435L8.51024 0.784436L8.51024 33.9497C8.51024 39.0756 9.98533 43.36 12.9355 46.8027C15.8856 50.322 19.4788 52.0816 23.7149 52.0816C28.4049 52.0816 32.3006 50.3603 35.402 46.9175C38.4278 43.4747 39.9407 39.1521 39.9407 33.9497L39.9407 0.784439L48.4508 0.784439L48.4508 33.9497C48.4508 39.0756 49.9259 43.36 52.876 46.8027C55.7505 50.322 59.3058 52.0816 63.5419 52.0816C68.2319 52.0816 72.1276 50.3603 75.2291 46.9175C78.2549 43.4747 79.7678 39.1521 79.7678 33.9497L79.7678 0.784442L88.2778 0.784443L88.2778 58.8524L79.7678 58.8524L79.7678 44.3928C78.1792 49.1362 75.7208 52.9232 72.3924 55.7539C68.9884 58.5846 65.0927 60 60.7053 60C55.9396 60 51.817 58.4699 48.3373 55.4096C44.8576 52.3494 42.437 48.2946 41.0754 43.2452C39.7138 48.2946 37.2553 52.3494 33.7 55.4096C30.0691 58.4699 25.8329 60 20.9917 60Z" fill="#C2F840"/>
<path d="M150.143 0C158.382 0 165.261 2.88973 170.778 8.66919C176.296 14.3726 179.055 21.4828 179.055 29.9999C179.055 38.517 176.296 45.6653 170.778 51.4448C165.261 57.1482 158.382 59.9999 150.143 59.9999C142.509 59.9999 136.009 57.5664 130.642 52.6995C125.276 47.7566 122.177 41.4828 121.345 33.8783H109.781V58.8592H101.277L101.277 1.14068L109.781 1.14068V26.1216L121.345 26.1216C122.177 18.5171 125.276 12.2813 130.642 7.41443C136.009 2.47148 142.509 0 150.143 0ZM135.291 45.7414C139.221 49.9239 144.097 52.0151 149.917 52.0151C155.737 52.0151 160.612 49.9239 164.543 45.7414C168.473 41.4828 170.438 36.2357 170.438 29.9999C170.438 23.7642 168.473 18.5551 164.543 14.3726C160.612 10.114 155.737 7.98478 149.917 7.98478C144.097 7.98478 139.221 10.114 135.291 14.3726C131.436 18.5551 129.509 23.7642 129.509 29.9999C129.509 36.2357 131.436 41.4828 135.291 45.7414Z" fill="#C2F840"/>
</svg>
