<svg width="1366" height="64" viewBox="0 0 1366 64" fill="none" xmlns="http://www.w3.org/2000/svg">
<g opacity="0.2">
<path d="M353.959 8.72738e-05L359.286 8.7738e-05L348.961 30.5L359.286 61L353.959 61L343.634 30.5L353.959 8.72738e-05Z" fill="#878787"/>
<path d="M329.77 8.72738e-05L335.097 8.7738e-05L324.772 30.5L335.097 61L329.77 61L319.445 30.5L329.77 8.72738e-05Z" fill="#878787"/>
<path d="M165.423 8.72738e-05L170.75 8.7738e-05L160.425 30.5L170.75 61L165.423 61L155.098 30.5L165.423 8.72738e-05Z" fill="#878787"/>
<path d="M124.158 8.72738e-05L129.485 8.7738e-05L119.16 30.5L129.485 61L124.158 61L113.833 30.5L124.158 8.72738e-05Z" fill="#878787"/>
<path d="M378.618 8.72526e-05L384.188 8.7738e-05L373.393 30.5L384.188 61L378.618 61L367.824 30.5L378.618 8.72526e-05Z" fill="#878787"/>
<path d="M477.511 8.72526e-05L483.08 8.7738e-05L472.286 30.5L483.08 61L477.511 61L466.717 30.5L477.511 8.72526e-05Z" fill="#878787"/>
<path d="M547.476 8.72738e-05L552.803 8.7738e-05L542.478 30.5L552.803 61L547.476 61L537.151 30.5L547.476 8.72738e-05Z" fill="#878787"/>
<path d="M676.25 8.72738e-05L681.577 8.7738e-05L671.252 30.5L681.577 61L676.25 61L665.925 30.5L676.25 8.72738e-05Z" fill="#878787"/>
<path d="M837.509 8.72526e-05L843.078 8.7738e-05L832.284 30.5L843.078 61L837.509 61L826.715 30.5L837.509 8.72526e-05Z" fill="#878787"/>
<path d="M942.805 8.72526e-05L948.374 8.7738e-05L937.58 30.5L948.374 61L942.805 61L932.01 30.5L942.805 8.72526e-05Z" fill="#878787"/>
<path d="M969.371 8.72738e-05L974.698 8.7738e-05L964.373 30.5L974.698 61L969.371 61L959.046 30.5L969.371 8.72738e-05Z" fill="#878787"/>
<path d="M1008.97 8.72526e-05L1014.54 8.7738e-05L1003.75 30.5L1014.54 61L1008.97 61L998.176 30.5L1008.97 8.72526e-05Z" fill="#878787"/>
<path d="M1093.63 8.72526e-05L1099.2 8.7738e-05L1088.41 30.5L1099.2 61L1093.63 61L1082.84 30.5L1093.63 8.72526e-05Z" fill="#878787"/>
<path d="M1243.99 8.72738e-05L1249.32 8.7738e-05L1239 30.5L1249.32 61L1243.99 61L1233.67 30.5L1243.99 8.72738e-05Z" fill="#878787"/>
<path d="M1303.76 8.72738e-05L1309.08 8.7738e-05L1298.76 30.5L1309.08 61L1303.76 61L1293.43 30.5L1303.76 8.72738e-05Z" fill="#878787"/>
<path d="M0 60.9688H1366" stroke="#878787" stroke-width="5"/>
</g>
</svg>
