<svg width="58" height="75" viewBox="0 0 58 75" fill="none" xmlns="http://www.w3.org/2000/svg">
<path d="M14.4375 52.418H18.3956C19.8183 52.418 20.9311 52.7392 21.7342 53.3817C22.5488 54.0242 22.9561 54.9707 22.9561 56.2212V56.2901C22.9561 57.5406 22.5488 58.4814 21.7342 59.1124C20.9197 59.7319 19.824 60.0417 18.4473 60.0417H16.7263V64.7226H14.4375V52.418ZM18.3956 58.3896C19.9445 58.3896 20.7189 57.6898 20.7189 56.2901V56.2212C20.7189 54.8674 19.9445 54.1905 18.3956 54.1905H16.7263V58.3896H18.3956Z" fill="#2F80ED"/>
<path d="M28.7949 62.9156C30.1602 62.9156 31.1813 62.5485 31.8582 61.8142C32.5351 61.0685 32.8735 60.0015 32.8735 58.6133V58.4756C32.8735 55.6418 31.5082 54.2249 28.7777 54.2249H27.4526V62.9156H28.7949ZM25.1637 52.418H28.8982C30.9747 52.418 32.5523 52.9629 33.6307 54.0529C34.7206 55.1313 35.2656 56.5941 35.2656 58.4412V58.5961C35.2656 60.4547 34.7206 61.9404 33.6307 63.0533C32.5408 64.1662 30.9518 64.7226 28.8637 64.7226H25.1637V52.418Z" fill="#2F80ED"/>
<path d="M37.6882 52.418H45.3119V54.2422H39.977V57.9077H44.1761V59.6803H39.977V64.7226H37.6882V52.418Z" fill="#2F80ED"/>
<path d="M45.7173 31.7141C44.2914 28.8297 38.0819 28.547 34.8608 28.6199C32.9588 26.6603 30.7244 24.1697 29.0593 21.7447C30.8533 16.3923 31.2814 12.8174 30.3314 11.112C29.1368 8.96777 27.4874 8.72482 26.3421 9.21181C24.343 10.0623 23.0015 13.5334 24.4531 18.291C24.8177 19.4862 25.4638 20.7723 26.2776 22.0769C25.2542 24.9573 23.9527 27.9871 22.5827 30.7197C19.3156 31.8409 15.6059 33.7123 13.6573 36.7352C12.8906 37.9246 12.7883 39.4002 13.3837 40.6827C14.3591 42.7832 16.5001 43.3496 19.0631 40.7666C19.985 39.8373 20.9946 38.508 22.064 36.8153C22.8195 35.6195 23.5929 34.2572 24.3525 32.7956C27.3254 31.8841 30.7043 31.3377 33.835 31.1792C35.5607 32.9145 36.8734 34.0896 37.0525 34.2489C38.4394 35.512 40.6879 36.802 42.624 36.5744C43.734 36.4438 44.6758 35.8511 45.3476 34.8602C46.3162 33.4314 45.995 32.2758 45.7173 31.7141ZM20.0146 35.3382C17.3424 39.6046 16.0614 39.9418 15.8927 39.9672C15.8588 39.9363 15.774 39.8441 15.6703 39.6208C15.4446 39.1347 15.4852 38.5524 15.7762 38.1011C16.7196 36.6377 18.415 35.3067 20.7005 34.2046C20.4709 34.5968 20.2418 34.9754 20.0146 35.3382ZM27.329 11.5317C27.3389 11.5275 27.3502 11.5254 27.363 11.5254C27.5046 11.5254 27.8196 11.7837 28.129 12.339C28.4192 12.86 28.4935 14.7683 27.3397 18.7908C27.1461 18.3666 26.9858 17.9538 26.8643 17.5554C25.7591 13.9326 26.749 11.7784 27.329 11.5317ZM25.8334 29.7826C26.6203 28.0918 27.3659 26.3377 28.0306 24.6053C29.1481 26.0826 30.3876 27.5241 31.5814 28.8238C29.6363 29.0184 27.6793 29.3427 25.8334 29.7826ZM43.2608 33.4454C42.9249 33.9409 42.588 34.0395 42.332 34.0702C41.087 34.2197 39.2803 32.8663 38.7471 32.3823C38.7426 32.3782 38.7381 32.3741 38.7335 32.37C38.7115 32.3505 38.2195 31.9111 37.445 31.1758C37.4724 31.1773 37.4998 31.1788 37.5271 31.1803C41.3876 31.3995 43.1886 32.2878 43.4574 32.8313C43.5339 32.9863 43.3928 33.2507 43.2608 33.4454Z" fill="#2F80ED"/>
<path fill-rule="evenodd" clip-rule="evenodd" d="M56 2H2V73H56V2ZM0 0V75H58V0H0Z" fill="#2F80ED"/>
</svg>
