<svg width="1921" height="238" viewBox="0 0 1921 238" fill="none" xmlns="http://www.w3.org/2000/svg">
<path d="M209.585 171.032C209.585 122.775 145.518 104.392 103.666 89.9476C67.2861 77.4731 61.813 73.5338 61.813 63.029C61.813 51.211 76.3005 45.9586 99.4803 45.9586C127.489 45.9586 148.738 53.8372 148.738 82.069H200.248C200.248 36.1103 169.02 0 99.4803 0C40.8867 0 10.3022 21.6662 10.3022 61.0593C10.3022 106.361 49.2573 119.492 97.2267 135.906C130.387 147.396 158.074 154.946 158.074 171.688C158.074 184.163 147.128 192.041 113.968 192.041C68.8958 192.041 51.5109 180.88 51.5109 145.426H0C0 203.859 30.5846 238 112.358 238C182.22 238 209.585 210.753 209.585 171.032Z" fill="#F8F8F8"/>
<path d="M406.171 3.28276L206.245 3.28276V49.2414L280.613 49.2414L280.613 234.717H332.124L332.124 49.2414L406.171 49.2414V3.28276Z" fill="#F8F8F8"/>
<path d="M568.606 234.717L620.761 234.717L555.085 3.28276L448.844 3.28276L383.489 234.717H435.644L455.926 160.527H548.002L568.606 234.717ZM468.482 114.568L495.525 16.4138L508.403 16.4138L535.446 114.568L468.482 114.568Z" fill="#F8F8F8"/>
<path d="M643.483 234.717H694.994V49.2414L685.336 16.4138L698.214 16.4138L766.787 234.717L868.199 234.717V3.28276L816.688 3.28276V188.759L826.347 221.586H813.469L744.895 3.28276L643.483 3.28276V234.717Z" fill="#F8F8F8"/>
<path d="M984.365 3.28276L900.66 3.28276V234.717L984.365 234.717C1044.89 234.717 1107.99 218.632 1107.99 118.836C1107.99 19.3683 1044.89 3.28276 984.365 3.28276ZM984.365 188.759L952.171 188.759V49.2414H984.365C1024.61 49.2414 1056.48 52.5241 1056.48 118.836C1056.48 185.476 1024.61 188.759 984.365 188.759Z" fill="#F8F8F8"/>
<path d="M1296.44 234.717L1348.59 234.717L1282.91 3.28276L1176.67 3.28276L1111.32 234.717L1163.47 234.717L1183.76 160.527H1275.83L1296.44 234.717ZM1196.31 114.568L1223.35 16.4138L1236.23 16.4138L1263.28 114.568H1196.31Z" fill="#F8F8F8"/>
<path d="M1371.31 234.717H1422.82V153.305L1511.68 153.305V234.717H1563.19V160.855C1563.19 142.8 1553.53 132.952 1535.83 132.952H1502.67V119.821C1530.03 116.538 1560.29 106.033 1560.29 67.9531C1560.29 16.0855 1513.29 3.28276 1459.2 3.28276L1371.31 3.28276V234.717ZM1422.82 107.346V49.2414L1459.2 49.2414C1489.79 49.2414 1508.78 49.2414 1508.78 78.4579C1508.78 107.346 1489.79 107.346 1459.2 107.346L1422.82 107.346Z" fill="#F8F8F8"/>
<path d="M1776 3.28276L1576.07 3.28276V49.2414L1650.44 49.2414V234.717L1701.95 234.717V49.2414L1776 49.2414V3.28276Z" fill="#F8F8F8"/>
<path d="M1863.39 54.5812H1868.03C1871.35 54.5812 1873.87 53.7955 1875.57 52.2242C1877.28 50.6528 1878.13 48.408 1878.13 45.4897C1878.13 42.2571 1877.3 40.0123 1875.64 38.7552C1874.02 37.4532 1871.44 36.8022 1867.9 36.8022H1863.39V54.5812ZM1890.92 45.2203C1890.92 52.8976 1887.48 58.128 1880.62 60.9116L1896.57 87.6475H1882.37L1869.45 64.3462H1863.39V87.6475H1850.67V26.8352H1868.3C1876.11 26.8352 1881.83 28.3617 1885.47 31.4146C1889.1 34.4676 1890.92 39.0695 1890.92 45.2203ZM1819.78 57.2077C1819.78 48.2284 1822.02 39.8103 1826.51 31.9534C1831 24.0965 1837.17 17.9008 1845.02 13.3663C1852.87 8.83172 1861.33 6.56445 1870.39 6.56445C1879.36 6.56445 1887.78 8.80928 1895.63 13.2989C1903.48 17.7886 1909.67 23.9618 1914.2 31.8187C1918.73 39.6756 1921 48.1386 1921 57.2077C1921 66.0523 1918.82 74.3581 1914.47 82.1252C1910.12 89.8923 1904.02 96.1105 1896.17 100.78C1888.31 105.449 1879.72 107.784 1870.39 107.784C1861.1 107.784 1852.53 105.471 1844.68 100.847C1836.83 96.1778 1830.71 89.9596 1826.31 82.1925C1821.96 74.4255 1819.78 66.0972 1819.78 57.2077ZM1828.06 57.2077C1828.06 64.8401 1829.94 71.9337 1833.71 78.4886C1837.53 84.9986 1842.71 90.1392 1849.26 93.9105C1855.81 97.6818 1862.85 99.5675 1870.39 99.5675C1878.02 99.5675 1885.11 97.6594 1891.66 93.8432C1898.21 89.9821 1903.34 84.819 1907.07 78.3539C1910.84 71.8439 1912.72 64.7952 1912.72 57.2077C1912.72 49.6651 1910.82 42.6163 1907 36.0614C1903.23 29.4616 1898.05 24.2761 1891.46 20.5048C1884.9 16.7335 1877.88 14.8479 1870.39 14.8479C1862.85 14.8479 1855.83 16.7111 1849.33 20.4375C1842.86 24.1639 1837.7 29.3045 1833.85 35.8594C1829.99 42.4143 1828.06 49.5304 1828.06 57.2077Z" fill="#F8F8F8"/>
</svg>
