<svg width="1365" height="154" viewBox="0 0 1365 154" fill="none" xmlns="http://www.w3.org/2000/svg">
<path d="M1364 126.24L1331.84 151.999" stroke="#EAAC0F" stroke-width="3"/>
<path d="M1364 102.207L1301.74 151.997" stroke="#EAAC0F" stroke-width="3"/>
<path d="M1364 78.1777L1271.71 151.999" stroke="#EAAC0F" stroke-width="3"/>
<path d="M1364 54.1465L1241.69 151.999" stroke="#EAAC0F" stroke-width="3"/>
<path d="M1364 30.1152L1211.58 151.999" stroke="#EAAC0F" stroke-width="3"/>
<path d="M1364 6.08203L1181.56 151.997" stroke="#EAAC0F" stroke-width="3"/>
<path d="M1151.53 151.999L1339.08 2" stroke="#EAAC0F" stroke-width="3"/>
<path d="M1121.43 151.999L1309.05 2" stroke="#EAAC0F" stroke-width="3"/>
<path d="M1091.4 151.999L1278.95 2" stroke="#EAAC0F" stroke-width="3"/>
<path d="M1061.37 151.999L1248.93 2" stroke="#EAAC0F" stroke-width="3"/>
<path d="M1031.27 151.999L1218.9 2" stroke="#EAAC0F" stroke-width="3"/>
<path d="M1001.24 151.999L1188.8 2" stroke="#EAAC0F" stroke-width="3"/>
<path d="M1121.93 151.999L1309.48 2" stroke="#EAAC0F" stroke-width="3"/>
<path d="M1091.9 151.999L1279.45 2" stroke="#EAAC0F" stroke-width="3"/>
<path d="M1061.8 151.999L1249.42 2" stroke="#EAAC0F" stroke-width="3"/>
<path d="M1031.77 151.999L1219.32 2" stroke="#EAAC0F" stroke-width="3"/>
<path d="M1001.74 151.999L1189.29 2" stroke="#EAAC0F" stroke-width="3"/>
<path d="M971.641 151.999L1159.27 2" stroke="#EAAC0F" stroke-width="3"/>
<path d="M941.612 151.999L1129.17 2" stroke="#EAAC0F" stroke-width="3"/>
<path d="M911.583 151.999L1099.14 2" stroke="#EAAC0F" stroke-width="3"/>
<path d="M881.483 151.999L1069.11 2" stroke="#EAAC0F" stroke-width="3"/>
<path d="M851.455 151.999L1039.01 2" stroke="#EAAC0F" stroke-width="3"/>
<path d="M821.427 151.999L1008.98 2" stroke="#EAAC0F" stroke-width="3"/>
<path d="M791.327 151.999L978.952 2" stroke="#EAAC0F" stroke-width="3"/>
<path d="M761.298 151.999L948.853 2" stroke="#EAAC0F" stroke-width="3"/>
<path d="M731.27 151.999L918.825 2" stroke="#EAAC0F" stroke-width="3"/>
<path d="M701.17 151.999L888.795 2" stroke="#EAAC0F" stroke-width="3"/>
<path d="M671.142 151.999L858.696 2" stroke="#EAAC0F" stroke-width="3"/>
<path d="M641.113 151.999L828.668 2" stroke="#EAAC0F" stroke-width="3"/>
<path d="M611.013 151.999L798.639 2" stroke="#EAAC0F" stroke-width="3"/>
<path d="M580.985 151.999L768.539 2" stroke="#EAAC0F" stroke-width="3"/>
<path d="M550.957 151.999L738.511 2" stroke="#EAAC0F" stroke-width="3"/>
<path d="M520.856 151.999L708.482 2" stroke="#EAAC0F" stroke-width="3"/>
<path d="M490.828 151.999L678.383 2" stroke="#EAAC0F" stroke-width="3"/>
<path d="M460.8 151.999L648.354 2" stroke="#EAAC0F" stroke-width="3"/>
<path d="M430.7 151.999L618.325 2" stroke="#EAAC0F" stroke-width="3"/>
<path d="M400.671 151.999L588.297 2" stroke="#EAAC0F" stroke-width="3"/>
<path d="M521.354 151.999L708.908 2" stroke="#EAAC0F" stroke-width="3"/>
<path d="M491.325 151.999L678.88 2" stroke="#EAAC0F" stroke-width="3"/>
<path d="M461.225 151.999L648.851 2" stroke="#EAAC0F" stroke-width="3"/>
<path d="M431.197 151.999L618.751 2" stroke="#EAAC0F" stroke-width="3"/>
<path d="M401.168 151.999L588.723 2" stroke="#EAAC0F" stroke-width="3"/>
<path d="M371.068 151.999L558.694 2" stroke="#EAAC0F" stroke-width="3"/>
<path d="M341.04 151.999L528.594 2" stroke="#EAAC0F" stroke-width="3"/>
<path d="M311.012 151.999L498.566 2" stroke="#EAAC0F" stroke-width="3"/>
<path d="M280.912 151.999L468.537 2" stroke="#EAAC0F" stroke-width="3"/>
<path d="M250.883 151.999L438.438 2" stroke="#EAAC0F" stroke-width="3"/>
<path d="M220.855 151.999L408.409 2" stroke="#EAAC0F" stroke-width="3"/>
<path d="M190.755 151.999L378.38 2" stroke="#EAAC0F" stroke-width="3"/>
<path d="M160.727 151.999L348.281 2" stroke="#EAAC0F" stroke-width="3"/>
<path d="M130.698 151.999L318.253 2" stroke="#EAAC0F" stroke-width="3"/>
<path d="M100.598 151.999L288.224 2" stroke="#EAAC0F" stroke-width="3"/>
<path d="M70.5698 151.999L258.124 2" stroke="#EAAC0F" stroke-width="3"/>
<path d="M40.5415 151.999L228.096 2" stroke="#EAAC0F" stroke-width="3"/>
<path d="M10.4414 151.999L198.067 2" stroke="#EAAC0F" stroke-width="3"/>
<path d="M167.967 2L1 135.507" stroke="#EAAC0F" stroke-width="3"/>
<path d="M137.939 2L1 111.476" stroke="#EAAC0F" stroke-width="3"/>
<path d="M107.91 2L1 87.4444" stroke="#EAAC0F" stroke-width="3"/>
<path d="M77.8107 2L1 63.4132" stroke="#EAAC0F" stroke-width="3"/>
<path d="M47.7821 2L1 39.3819" stroke="#EAAC0F" stroke-width="3"/>
<path d="M14.1331 2L1 12.445" stroke="#EAAC0F" stroke-width="3"/>
</svg>
