<svg width="33" height="272" viewBox="0 0 33 272" fill="none" xmlns="http://www.w3.org/2000/svg">
<path d="M9.28218 29.621C15.9708 29.621 18.5188 20.5663 20.5208 14.6512C22.2499 9.50965 22.7959 8.73613 24.2519 8.73613C25.8899 8.73613 26.6179 10.7837 26.6179 14.0597C26.6179 18.0183 25.5259 21.0213 21.6129 21.0213L21.6129 28.3014C27.983 28.3014 32.988 23.8879 32.988 14.0597C32.988 5.77859 29.985 1.45602 24.5249 1.45602C18.2458 1.45602 16.4258 6.96161 14.1508 13.7412C12.5582 18.4278 11.5117 22.3408 9.19118 22.3408C7.46215 22.3408 6.37013 20.7938 6.37013 16.1072C6.37013 9.73715 7.91716 7.28011 12.8312 7.28011L12.8312 2.40367e-07C4.73211 3.36949e-07 3.81985e-05 4.32257 3.83363e-05 15.8797C3.84541e-05 25.7534 3.77659 29.621 9.28218 29.621Z" fill="#363636"/>
<path d="M32.533 57.4048L32.533 29.1489L26.1629 29.1489L26.1629 39.6595L0.455044 39.6595L0.455044 46.9397L26.1629 46.9397L26.1629 57.4048L32.533 57.4048Z" fill="#363636"/>
<path d="M0.455045 80.362L0.455045 87.7331L32.533 78.451L32.533 63.4358L0.455044 54.1991L0.455045 61.5703L10.7382 64.4368L10.7382 77.45L0.455045 80.362ZM17.1083 66.2113L30.713 70.0334L30.713 71.8534L17.1083 75.6755L17.1083 66.2113Z" fill="#363636"/>
<path d="M0.455045 90.9445L0.455045 98.2246L26.1629 98.2246L30.713 96.8596L30.713 98.6796L0.455045 108.371L0.455045 122.704L32.533 122.704L32.533 115.424L6.82514 115.424L2.27507 116.789L2.27507 114.969L32.533 105.277L32.533 90.9445L0.455045 90.9445Z" fill="#363636"/>
<path d="M32.533 139.122L32.533 127.292L0.455045 127.292L0.455045 139.122C0.455046 147.676 2.68458 156.594 16.5168 156.594C30.3035 156.594 32.533 147.676 32.533 139.122ZM6.82514 139.122L6.82514 134.572L26.1629 134.572L26.1629 139.122C26.1629 144.809 25.7079 149.314 16.5168 149.314C7.28015 149.314 6.82514 144.809 6.82514 139.122Z" fill="#363636"/>
<path d="M0.455046 183.227L0.455046 190.598L32.533 181.316L32.533 166.301L0.455046 157.064L0.455046 164.436L10.7382 167.302L10.7382 180.315L0.455046 183.227ZM17.1083 169.077L30.713 172.899L30.713 174.719L17.1083 178.541L17.1083 169.077Z" fill="#363636"/>
<path d="M0.455046 193.81L0.455046 201.09L11.7392 201.09L11.7392 213.648L0.455046 213.648L0.455046 220.928L10.6927 220.928C13.1952 220.928 14.5603 219.563 14.5603 217.061L14.5603 212.374L16.3803 212.374C16.8353 216.242 18.2913 220.519 23.5694 220.519C30.7585 220.519 32.533 213.876 32.533 206.232L32.533 193.81L0.455046 193.81ZM18.1093 201.09L26.1629 201.09L26.1629 206.232C26.1629 210.554 26.1629 213.239 22.1134 213.239C18.1093 213.239 18.1093 210.554 18.1093 206.232L18.1093 201.09Z" fill="#363636"/>
<path d="M32.533 251.005L32.533 222.749L26.1629 222.749L26.1629 233.26L0.455047 233.26L0.455047 240.54L26.1629 240.54L26.1629 251.005L32.533 251.005Z" fill="#363636"/>
<path d="M25.8402 263.337L25.8402 263.993C25.8402 264.462 25.9513 264.817 26.1733 265.058C26.3954 265.299 26.7126 265.42 27.125 265.42C27.5819 265.42 27.8991 265.302 28.0768 265.068C28.2608 264.84 28.3528 264.475 28.3528 263.974L28.3528 263.337L25.8402 263.337ZM27.1631 267.227C26.0782 267.227 25.339 266.742 24.9456 265.772L21.1673 268.026L21.1673 266.019L24.4602 264.193L24.4602 263.337L21.1673 263.337L21.1673 261.539L29.7613 261.539L29.7613 264.031C29.7613 265.134 29.5456 265.943 29.1141 266.456C28.6827 266.97 28.0324 267.227 27.1631 267.227ZM25.4691 257.174C26.738 257.174 27.9277 257.491 29.038 258.125C30.1483 258.759 31.0239 259.631 31.6647 260.74C32.3056 261.85 32.626 263.045 32.626 264.326C32.626 265.594 32.3087 266.783 31.6743 267.893C31.0398 269.002 30.1674 269.877 29.057 270.518C27.9467 271.158 26.7507 271.478 25.4691 271.478C24.2191 271.478 23.0454 271.171 21.9477 270.556C20.8501 269.941 19.9713 269.078 19.3114 267.969C18.6516 266.859 18.3217 265.645 18.3217 264.326C18.3217 263.013 18.6484 261.802 19.3019 260.693C19.9618 259.583 20.8405 258.718 21.9382 258.096C23.0358 257.481 24.2128 257.174 25.4691 257.174ZM25.4691 258.344C24.3904 258.344 23.388 258.61 22.4616 259.143C21.5416 259.682 20.8152 260.414 20.2822 261.34C19.7492 262.265 19.4828 263.261 19.4828 264.326C19.4828 265.404 19.7524 266.406 20.2917 267.331C20.8374 268.257 21.567 268.983 22.4807 269.509C23.4007 270.042 24.3968 270.308 25.4691 270.308C26.535 270.308 27.5311 270.039 28.4575 269.5C29.3901 268.967 30.123 268.235 30.6559 267.303C31.1889 266.377 31.4554 265.385 31.4554 264.326C31.4554 263.261 31.1921 262.268 30.6654 261.349C30.1388 260.436 29.4123 259.707 28.486 259.162C27.5597 258.616 26.554 258.344 25.4691 258.344Z" fill="#363636"/>
</svg>
