<svg width="46" height="39" viewBox="0 0 46 39" fill="none" xmlns="http://www.w3.org/2000/svg">
<path d="M42.9713 0.000272198C42.5786 -0.00502702 42.1886 0.0670956 41.8237 0.212519C41.4589 0.357942 41.1262 0.573815 40.8449 0.847802C40.5635 1.12179 40.3389 1.44852 40.1838 1.80932C40.0288 2.17013 39.9464 2.55793 39.9414 2.95058C39.9414 5.16442 42.9713 8.431 42.9713 8.431C42.9713 8.431 45.9998 5.16442 45.9998 2.95058C45.9947 2.55806 45.9124 2.17038 45.7575 1.80967C45.6026 1.44897 45.3781 1.1223 45.0968 0.848333C44.8156 0.574365 44.4832 0.35846 44.1185 0.212949C43.7538 0.0674376 43.364 -0.00483033 42.9713 0.000272198Z" fill="#4E4E4E"/>
<path d="M0 18.1025L8.52688 3.62117H1.10058V0.128906H15.1229L6.68367 14.6102H14.6655V18.1025H0Z" fill="#4E4E4E"/>
<path d="M25.3032 38.16L19.1602 19.8672H23.708L27.4969 32.7731L31.2873 19.8672H35.8337L29.6936 38.16H25.3032Z" fill="#4E4E4E"/>
</svg>
