<svg width="1920" height="943" viewBox="0 0 1920 943" fill="none" xmlns="http://www.w3.org/2000/svg">
<g opacity="0.2">
<path d="M452.109 613.271C360.863 583.79 452.515 564.586 452.515 564.586C452.515 564.586 476.022 558.379 534.574 558.662C593.127 558.945 577.825 586.445 556.019 592.602C541.501 596.679 507.428 603.602 495.675 606.681C483.921 609.76 468.781 618.671 452.109 613.271Z" stroke="#9CB795" stroke-width="2" stroke-miterlimit="10"/>
<path d="M451.949 627.586C435.278 623.601 383.444 614.598 380.31 590.326C377.176 566.055 452.633 551.693 452.633 551.693C483.67 547.523 515.05 545.952 546.393 547C596.578 548.897 596.38 571.796 594.687 576.123C592.993 580.45 591.192 591.932 562.659 603.947C534.126 615.962 519.076 613.399 500.603 620.888C482.13 628.377 468.683 631.564 451.949 627.586Z" stroke="#9CB795" stroke-width="2" stroke-miterlimit="10"/>
<path d="M451.911 637.585C425.17 635.264 398.483 625.736 380.164 614.645C361.844 603.553 313.352 598.768 313.406 591.612C313.46 584.457 313.505 581.627 348.658 575.162C383.811 568.697 394.088 549.942 452.676 540.181C452.676 540.181 479.462 536.853 502.916 536.337C526.369 535.821 568.196 535.056 583.174 540.497C598.152 545.939 608.114 557.189 608.015 568.655C607.861 585.821 597.747 596.056 584.309 603.495C570.871 610.934 545.715 618.572 522.163 624.738C498.61 630.904 478.643 639.957 451.911 637.585Z" stroke="#9CB795" stroke-width="2" stroke-miterlimit="10"/>
<path d="M451.805 646.157C425.019 645.592 378.265 637.579 349.885 629.566C321.505 621.554 291.414 613.549 256.333 608.524C221.252 603.498 176.074 600.087 197.988 583.92C219.901 567.753 311.913 568.801 342.094 562.494C372.276 556.188 397.521 541.36 452.786 533.106C488.192 527.848 514.779 524.719 561.578 528.114C608.377 531.509 616.591 551.412 618.23 557.078C619.869 562.744 622.95 589.927 601.117 603.198C579.285 616.47 560.84 619.74 545.699 624.341C530.559 628.942 486.958 646.915 451.805 646.157Z" stroke="#9CB795" stroke-width="2" stroke-miterlimit="10"/>
<path d="M454.011 658.017C443.491 658.209 434.25 657.069 411.103 653.857C381.237 649.696 340.292 643.872 297.898 640.627C222.674 634.944 167.554 617.404 137.489 613.701C107.425 609.998 50.4488 615.415 50.6019 596.785C50.755 579.312 132.815 572.272 154.575 570.425C176.335 568.578 246.686 560.049 301.96 554.616C357.234 549.183 389.244 522.856 452.831 521.583C452.831 521.583 477.923 521.109 503.07 519.161C528.217 517.214 588.408 517.497 606.728 527.124C625.047 536.751 634.955 555.19 638.251 562.296C641.548 569.402 636.45 578.105 633.072 583.863C629.695 589.621 614.447 611.405 587.607 619.135C560.767 626.865 535.548 637.349 523.785 641.85C512.023 646.352 493.982 657.31 454.011 658.017Z" stroke="#9CB795" stroke-width="2" stroke-miterlimit="10"/>
<path d="M1592.32 815.01C1501.07 785.521 1592.72 766.324 1592.72 766.324C1592.72 766.324 1616.23 760.117 1674.78 760.4C1733.34 760.683 1718.02 788.175 1696.24 794.341C1681.71 798.418 1647.6 805.341 1635.89 808.42C1624.18 811.499 1609 820.36 1592.32 815.01Z" stroke="#9CB795" stroke-width="2" stroke-miterlimit="10"/>
<path d="M1592.16 829.321C1575.48 825.344 1523.65 816.332 1520.52 792.069C1517.38 767.806 1592.82 753.436 1592.82 753.436C1623.86 749.26 1655.24 747.69 1686.58 748.743C1736.77 750.64 1736.56 773.531 1734.87 777.866C1733.17 782.201 1731.38 793.675 1702.85 805.69C1674.31 817.705 1659.28 815.118 1640.8 822.656C1622.32 830.195 1608.89 833.257 1592.16 829.321Z" stroke="#9CB795" stroke-width="2" stroke-miterlimit="10"/>
<path d="M1592.11 839.322C1565.37 837.001 1538.69 827.474 1520.37 816.382C1502.05 805.291 1453.55 800.498 1453.61 793.342C1453.66 786.187 1453.71 783.358 1488.86 776.893C1524.01 770.427 1534.28 751.673 1592.93 741.946C1592.93 741.946 1619.72 738.576 1643.17 738.102C1666.62 737.628 1708.44 736.829 1723.43 742.262C1738.42 747.696 1748.37 758.903 1748.27 770.419C1748.12 787.576 1738 797.811 1724.56 805.258C1711.11 812.704 1685.97 820.326 1662.46 826.492C1638.96 832.657 1618.84 841.644 1592.11 839.322Z" stroke="#9CB795" stroke-width="2" stroke-miterlimit="10"/>
<path d="M1591.98 847.905C1565.19 847.339 1518.44 839.326 1490.07 831.313C1461.7 823.3 1431.66 815.296 1396.53 810.27C1361.41 805.244 1316.27 801.833 1338.19 785.666C1360.1 769.498 1452.1 770.547 1482.29 764.24C1512.48 757.932 1537.71 743.105 1592.98 734.851C1628.39 729.592 1654.97 726.463 1701.77 729.858C1748.57 733.253 1756.78 753.156 1758.43 758.823C1760.08 764.489 1763.15 791.673 1741.32 804.945C1719.48 818.216 1701.03 821.486 1685.89 826.088C1670.75 830.689 1627.16 848.662 1591.98 847.905Z" stroke="#9CB795" stroke-width="2" stroke-miterlimit="10"/>
<path d="M1594.21 859.694C1583.69 859.886 1574.46 858.746 1551.31 855.534C1521.44 851.374 1480.49 845.549 1438.11 842.313C1362.87 836.622 1307.76 819.09 1277.69 815.387C1247.61 811.685 1190.66 817.052 1190.81 798.472C1190.96 780.999 1273.02 773.959 1294.78 772.112C1316.54 770.265 1386.89 761.736 1442.16 756.303C1497.42 750.87 1529.45 724.544 1593.03 723.262C1593.03 723.262 1618.12 722.788 1643.27 720.849C1668.41 718.91 1728.62 719.185 1746.93 728.812C1765.25 738.439 1775.15 756.869 1778.46 763.983C1781.76 771.097 1776.66 779.792 1773.27 785.55C1769.88 791.308 1754.64 813.091 1727.8 820.812C1700.96 828.534 1675.77 839.018 1664.02 843.519C1652.27 848.021 1634.19 859.045 1594.21 859.694Z" stroke="#9CB795" stroke-width="2" stroke-miterlimit="10"/>
<path d="M-109.168 638.005C-46.9048 638.405 8.47718 641.15 31.8675 641.566C70.362 642.232 170.687 651.71 192.447 651.285C214.208 650.861 214.063 659.44 240.885 658.915C267.707 658.391 331.15 667.111 364.61 669.341C398.07 671.571 427.269 681.573 452.362 681.099C477.455 680.624 505.069 678.061 555.461 657.018C605.854 635.975 647.879 607.925 711.565 599.605C775.251 591.284 1089.97 576.431 1183.68 574.584" stroke="#9CB795" stroke-width="2" stroke-miterlimit="10"/>
<path d="M-109.168 651.91C-98.6752 651.91 -88.4526 652.001 -79.1758 652.184C-20.2181 653.341 55.9874 657.019 87.7539 659.249C119.52 661.479 172.119 667.569 192.231 667.212C212.343 666.854 218.972 673.868 254.116 673.136C289.26 672.404 346.083 679.917 346.083 679.917C378.669 683.42 410.328 689.153 431.728 691.957C439.987 693.047 446.715 693.663 451.38 693.563C463.287 693.33 500.016 693.846 541.807 678.969C558.785 672.895 575.132 662.519 593.992 652.134C603.998 646.634 617.292 641.043 628.578 635.643C645.978 627.322 665.991 619.759 682.564 615.831C728.696 604.923 770.37 604.64 821.996 600.421C898.814 594.164 1183.52 587.574 1183.52 587.574" stroke="#9CB795" stroke-width="2" stroke-miterlimit="10"/>
<path d="M-109.168 584.546C-101.801 584.679 -94.37 584.915 -86.8765 585.253C-69.6827 586.01 -53.876 586.393 -41.3567 585.869C34.5425 582.932 42.4053 571.225 86.0606 558.943C129.716 546.662 194.906 548.235 228.42 544.682C261.934 541.129 321.045 537.476 365.79 523.398C412.282 508.753 443.382 513.346 452.875 513.113C462.368 512.88 477.968 512.639 509.789 510.551C541.609 508.462 595.64 509.269 615.347 518.988C645.267 533.682 658.299 557.762 658.245 566.34C658.191 574.919 651.418 579.379 648.032 583.739C645.06 587.575 621.012 617.205 597.486 624.785C573.961 632.365 533.692 650.379 525.289 653.416C516.886 656.453 492.703 669.109 451.542 669.225C431.944 669.275 364.61 656.619 329.511 654.439C294.412 652.259 217.486 644.812 157.294 637.424C97.1028 630.035 34.0291 625.925 -36.6913 622.987C-51.102 622.397 -74.123 621.099 -109.168 621.681" stroke="#9CB795" stroke-width="2" stroke-miterlimit="10"/>
<path d="M-109.168 666.766C-32.7193 666.858 5.53199 671.126 23.2301 671.8C48.3227 672.749 98.5169 675.645 116.899 676.019C139.524 676.493 193.258 680.67 223.944 682.185C244.569 683.183 272.49 684.082 312.623 686.17C342.49 687.685 394.215 693.942 423.775 699.583C435.006 701.713 454.398 704.276 459.693 704.417C478.112 704.892 489.145 705.316 514.553 699.2C533.467 694.649 555.813 689.008 575.411 676.685C622.525 647.105 646.023 635.215 692.984 624.265C739.945 613.315 1183.47 600.326 1183.47 600.326C1183.47 600.326 1254.13 593.353 1245.62 608.006C1237.1 622.659 1206.3 624.023 1206.3 624.023" stroke="#9CB795" stroke-width="2" stroke-miterlimit="10"/>
<path d="M-109.168 718.142C-72.3847 717.934 -37.691 718.226 -20.7314 718.5C19.4023 719.166 81.3412 719.332 128.194 721.296C175.047 723.26 261.691 723.235 298.564 724.849C369.483 727.977 450.93 744.993 450.93 744.993C450.93 744.993 514.409 756.642 561.46 735.657C608.511 714.673 638.845 685.459 665.739 674.917C679.799 669.425 700.172 660.272 759.03 657.668C799.623 655.862 844.116 654.398 862.535 653.965C900.462 653.067 956.754 648.374 995.347 646.102C1035.53 643.731 1096.65 642.549 1108.35 643.731C1120.04 644.912 1165.15 646.668 1183.01 644.68" stroke="#9CB795" stroke-width="2" stroke-miterlimit="10"/>
<path d="M-109.168 684.197C-62.2072 684.147 -6.68106 684.73 45.6207 686.926C173.254 692.276 189.052 692.235 222.512 694.465C255.972 696.695 307.445 693.466 364.25 700.905C421.055 708.344 437.942 713.386 451.128 714.942C464.314 716.498 486.254 718.536 533.188 704.749C580.122 690.962 590.299 679.296 612.167 665.975C634.036 652.654 660.965 637.818 692.786 632.884C724.607 627.95 793.264 623.731 808.351 622.067C823.437 620.403 836.776 620.079 855.185 621.169C873.595 622.259 878.603 620.694 897.057 618.889C913.422 617.275 1085.3 611.492 1122.59 610.26C1122.59 610.26 1146.71 609.786 1155.64 611.783C1164.56 613.78 1175.71 614.77 1183.25 611.733C1212.3 600.783 1222.67 611.4 1183.15 623.382C1183.15 623.382 1169.71 627.933 1153.03 622.55C1140.97 618.614 1129.61 620.137 1114.59 618.997C1099.56 617.857 945.549 623.74 917.07 627.151C888.591 630.563 860.157 631.128 843.432 630.038C826.706 628.948 794.273 632.792 781.493 634.115C775.485 634.731 742.44 636.961 714.519 639.757C679.168 643.268 661.515 651.564 647.455 658.195C621.534 670.427 585.156 705.215 536.502 717.638C487.848 730.06 459.045 726.308 451.11 725.035C443.175 723.762 406.077 714.126 360.899 709.625C312.66 704.791 182.063 701.853 161.996 700.805C141.929 699.757 90.0146 697.435 23.0139 696.17C-5.80741 695.613 -59.1719 694.623 -109.168 694.107" stroke="#9CB795" stroke-width="2" stroke-miterlimit="10"/>
<path d="M-109.168 707.217C-48.5621 707.009 14.8539 707.791 40.2347 708.049C70.6682 708.382 123.096 710.546 184.08 713.042C217.027 714.423 250.73 714.09 287.891 714.797C383.803 716.603 444.148 734.043 451.083 734.9C458.018 735.757 481.147 740.017 524.722 733.427C574.546 725.889 620.526 685.692 638.998 675.358C652.959 667.537 673.593 652.659 746.61 646.161C770.271 644.031 809.936 641.094 831.444 640.661C850.988 640.287 889.168 641.493 927.707 636.401C950.548 633.414 1017.72 631.275 1072.79 630.951C1110.55 630.71 1139.03 633.788 1146.37 633.93C1164.33 634.221 1161.41 635.07 1183.16 633.222" stroke="#9CB795" stroke-width="2" stroke-miterlimit="10"/>
<path d="M-109.168 731.687C-69.0613 731.92 -14.0035 732.702 -3.48368 732.619C41.982 732.336 198.401 735.747 253.621 736.08C308.841 736.413 365.691 742.371 390.738 746.182C415.786 749.992 450.876 754.993 450.876 754.993C450.876 754.993 526.055 767.84 574.808 742.512C623.561 717.184 655.634 685.099 689.192 678.709C768.523 663.59 867.254 666.811 943.181 663.016C973.254 661.502 1022.37 660.978 1065.88 661.41C1101.54 661.743 1143.42 659.988 1150.66 659.846C1164.05 659.605 1183.08 659.23 1183.08 659.23" stroke="#9CB795" stroke-width="2" stroke-miterlimit="10"/>
<path d="M-109.168 568.973C-74.6184 570.462 -40.8434 571.103 -21.1458 569.372C57.5816 562.449 67.7861 541.306 158.781 534.1C177.1 532.636 223.538 529.033 237.085 528.367C291.016 525.804 297.078 524.856 326.53 520.404C334.23 519.264 356.657 513.956 375.535 508.123C401.348 500.118 423.415 502.722 452.992 504.478C463.152 505.094 491.271 503.904 520.371 502.531C557.677 500.775 596.316 500.035 615.311 506.991C630.856 512.674 637.827 516.094 666.883 541.88C679.762 553.305 694.389 555.335 715.276 555.193C732.875 555.052 839.919 556.325 947.324 552.439C1010.96 550.118 1067.56 546.565 1111.39 545.616C1158.34 544.618 1183.9 547.413 1183.9 547.413" stroke="#9CB795" stroke-width="2" stroke-miterlimit="10"/>
<path d="M-109.168 554.77C-77.2033 556.434 -46.2293 557.266 -27.2973 555.602C29.2015 550.609 43.5672 537.829 104.281 526.638C189.358 510.953 288.918 512.609 314.011 510.662C339.103 508.715 375.436 494.22 394.476 492.748C419.623 490.851 447.075 494.362 458.054 494.836C476.734 495.668 518.399 493.222 546.788 492.656C575.177 492.09 610.249 489.419 639.818 504.954C653.724 512.251 676.871 536.664 695.299 541.215C700.172 542.447 720.239 543.82 750.771 543.587C856.068 542.83 1074.89 537.421 1096.95 534.767C1125.43 531.355 1142.11 536.755 1160.53 536.381C1178.95 536.007 1183.95 535.907 1183.95 535.907" stroke="#9CB795" stroke-width="2" stroke-miterlimit="10"/>
<path d="M-109.168 306.135C-44.1488 307.857 13.3227 311.468 51.3219 313.499C188.439 320.796 246.839 345.45 338.545 380.855C430.251 416.259 433.781 418.589 457.496 426.785C486.128 436.695 531.954 457.172 587.192 457.571C642.43 457.971 669.017 474.571 682.302 482.866C695.587 491.162 702.729 509.268 754.608 509.692C806.486 510.117 1078.6 502.736 1109.98 500.781C1140.17 498.934 1184.19 498.742 1184.19 498.742" stroke="#9CB795" stroke-width="2" stroke-miterlimit="10"/>
<path d="M-109.168 540.512C-87.1016 542.176 -67.0438 543.258 -54.3984 543.158C0.8215 542.733 45.1613 526.899 79.7019 519.027C113.513 511.306 130.301 507.228 237.319 501.495C254.152 500.547 279.911 500.164 292.746 500.305C317.478 500.588 352.19 490.162 366.123 486.16C386.55 480.335 405.635 477.489 449.363 485.261C473.329 489.53 533.314 483.797 545.581 483.131C599.72 480.144 633.945 483.797 657.192 503.367C680.438 522.938 685.419 529.994 702.144 532.49C718.869 534.987 971.56 531.492 995.014 531.018C1018.47 530.543 1075.33 527.989 1087.08 524.902C1098.83 521.815 1107.25 517.371 1117.25 521.449C1127.26 525.526 1143.94 529.503 1155.68 527.847C1167.43 526.192 1184.12 527.273 1184.12 527.273" stroke="#9CB795" stroke-width="2" stroke-miterlimit="10"/>
<path d="M-109.168 337.766C-6.93323 341.577 78.7292 354.948 109.568 356.637C186.485 360.856 241.399 399.863 237.859 421.38C234.319 442.898 148.873 456.036 81.8005 470.281C14.7278 484.526 -38.997 505.569 -102.476 493.912L-109.168 492.68" stroke="#9CB795" stroke-width="2" stroke-miterlimit="10"/>
<path d="M-109.168 363.418C-100.872 364.193 -92.6592 365.605 -84.6158 367.637C-44.5361 378.303 -11.0313 373.369 40.8021 376.639C92.6355 379.909 182.9 391.009 181.054 412.526C179.208 434.043 112.549 436.173 87.0874 443.004C46.8546 453.821 26.3824 459.354 11.6025 465.944C-18.678 479.44 -57.3166 473.616 -85.4354 462.108C-93.0979 459.015 -101.039 456.548 -109.168 454.736" stroke="#9CB795" stroke-width="2" stroke-miterlimit="10"/>
<path d="M-109.168 397.101C-98.9122 395.4 -88.3971 395.55 -78.203 397.542C-53.5327 402.735 -28.2676 405.121 -2.97029 404.648C38.8477 403.816 50.6554 396.452 60.6078 403.416C68.3535 408.825 70.5151 414.649 43.6753 426.647C16.8354 438.646 -10.0585 450.578 -31.8097 448.165C-51.8675 445.935 -84.5257 428.12 -109.168 424.601" stroke="#9CB795" stroke-width="2" stroke-miterlimit="10"/>
<path d="M-109.168 328.473C-84.976 329.38 -61.91 330.345 -49.1565 331.135C-14.0305 333.315 52.8621 337.717 89.6543 339.855C126.447 341.994 171.552 349.632 198.293 354.883C225.034 360.133 271.679 386.352 295.024 393.041C318.37 399.731 355.117 406.172 373.383 424.419C391.648 442.666 354.757 451.96 301.131 457.311C247.505 462.661 204.192 475.092 107.001 491.301C62.6613 498.698 28.6882 510.879 -1.07889 515.855C-35.1449 521.642 -69.9824 522.459 -104.322 518.277C-105.79 518.102 -107.412 517.894 -109.168 517.644" stroke="#9CB795" stroke-width="2" stroke-miterlimit="10"/>
<path d="M-109.168 299.455C22.6177 303.724 144.406 305.146 168.526 308.25C217.018 314.457 312.065 351.243 348.749 367.693C385.433 384.143 453.848 407.133 453.848 407.133C453.848 407.133 518.3 434.15 567.332 438.419C597.396 441.023 642.709 440.641 677.664 459.986C712.619 479.332 707.476 495.199 754.329 494.251C801.181 493.302 1033.8 490.174 1060.56 488.235C1087.31 486.296 1169.82 488.185 1184.54 482.643" stroke="#9CB795" stroke-width="2" stroke-miterlimit="10"/>
<path d="M-109.168 220.271C-95.0995 221.012 -86.7233 221.544 -86.7233 221.544C-86.7233 221.544 152.422 239.742 182.576 240.599C212.73 241.456 252.774 249.227 296.348 244.11C339.923 238.993 439.473 238.285 476.266 241.88C513.058 245.475 614.149 245.816 661.155 244.11C708.314 242.396 769.694 245.524 800.128 233.817C828.652 222.867 855.6 203.031 855.6 203.031C913.125 151.883 1120.49 223.932 1176.12 153.107C1278.25 59.815 1401.71 92.8065 1687.13 104.422C1759.28 107.359 1822.72 64.6576 1962.09 91.8579C1985.23 96.3844 2008.82 92.4321 2028.15 86.4828" stroke="#9CB795" stroke-width="2" stroke-miterlimit="10"/>
<path d="M-109.168 264.571C-29.2338 271.111 59.8062 281.978 81.7735 282.693C136.993 284.491 197.185 291.888 225.565 297.055C253.945 302.222 315.677 326.776 360.728 340.189C394.953 350.424 431.187 358.911 446.58 362.422C452.068 363.7 457.64 364.651 463.26 365.268C489.181 368.155 566.206 374.795 633.324 360.617C633.324 360.617 743.962 338.434 789.482 296.015C822.176 265.628 850.394 220.405 909 214.955C967.607 209.505 1186.93 196.799 1186.93 196.799" stroke="#9CB795" stroke-width="2" stroke-miterlimit="10"/>
<path d="M-109.168 233.537C9.90022 244.795 195.78 257.526 195.78 257.526C195.78 257.526 269.265 268.942 329.619 259.19C389.973 249.438 455.136 256.694 455.136 256.694C455.136 256.694 498.557 258.682 515.382 258.358C533.809 258.025 705.566 257.126 739.585 253.906C775.305 250.536 789.211 261.728 784.618 273.144C781.123 281.914 766.091 289.261 745.889 299.695C725.687 310.129 695.452 329.317 621.651 346.524C562.324 360.369 490.226 354.062 464.206 351.075C457.948 350.374 451.758 349.234 445.688 347.664C425.927 342.588 374.968 328.942 324.098 310.878C259.034 287.846 250.721 285.142 170.453 276.705C119.737 271.421 2.56879 260.521 -109.168 255.296" stroke="#9CB795" stroke-width="2" stroke-miterlimit="10"/>
<path d="M453.396 331.842C437.076 328.431 406.751 318.67 383.55 311.981C360.511 305.324 317.198 297.477 319.359 284.397C321.098 273.78 337.21 280.744 362.979 272.923C403.256 260.691 439.436 269.594 464.529 269.128C464.529 269.128 593.594 268.421 610.68 268.088C630.747 267.714 706.034 269.42 712.654 278.988C719.066 288.233 705.872 301.18 677.239 312.596C661.847 318.712 617.093 331.277 558.495 336.968C510.715 341.561 464.015 334.072 453.396 331.842Z" stroke="#9CB795" stroke-width="2" stroke-miterlimit="10"/>
<path d="M450.101 312.7C484.227 319.897 527.126 316.819 542.87 313.74C561.604 310.088 581.049 300.086 581.157 290.085C581.265 280.084 556.209 281.981 543.14 282.231C530.071 282.48 468.52 286.166 450.308 284.036C436.249 282.372 434.808 281.474 413.462 280.475C395.35 279.643 389.594 288.113 396.683 292.282C396.728 292.315 416.605 305.636 450.101 312.7Z" stroke="#9CB795" stroke-width="2" stroke-miterlimit="10"/>
<path d="M-109.168 745.214C-20.7225 744.765 50.4753 745.406 62.7153 745.472C119.628 745.805 181.603 748.801 281.893 750.689C383.956 752.578 450.777 767.888 450.777 767.888C450.777 767.888 505.889 782.541 556.227 764.385C606.565 746.23 657.102 705.133 684.167 695.939C706.791 688.209 772.783 685.696 828.003 683.183C883.025 680.687 1180.62 676.252 1182.8 676.219" stroke="#9CB795" stroke-width="2" stroke-miterlimit="10"/>
<path d="M-109.168 760.809C-61.5767 761.242 -19.3985 761.442 -19.3985 761.442C67.633 764.004 98.634 764.287 168.841 766.892C245.866 769.738 277.894 769.022 329.718 771.352C386.73 773.848 450.624 786.521 450.624 786.521C450.624 786.521 532.422 806.375 592.929 772.251C653.436 738.126 677.087 714.753 723.994 709.536C770.901 704.318 1182.61 694.791 1182.61 694.791" stroke="#9CB795" stroke-width="2" stroke-miterlimit="10"/>
<path d="M544.176 182.105C658.507 173.909 714.546 176.322 762.011 175.989C791.31 175.806 839.658 162.385 843.972 171.205C846.233 175.706 841.27 183.528 834.218 191.491C814.511 213.815 781.673 227.046 740.206 229.891C709.727 231.971 675.961 231.83 642.141 233.394C590.263 235.891 465.358 229.367 425.171 230.174C384.983 230.981 304.725 231.123 274.606 233.145C244.488 235.167 204.354 228.785 167.562 226.646C130.77 224.508 80.3233 216.17 80.3233 216.17C-54.0292 203.423 -219.887 180.907 244.119 178.444L544.176 182.105Z" stroke="#9CB795" stroke-width="2" stroke-miterlimit="10"/>
<path d="M800.292 204.19C778.432 218.934 706.478 218.934 674.667 220.973C642.855 223.011 447.131 216.812 368.44 216.987C289.748 217.162 267.907 188.123 126.998 200.587C-13.9115 213.051 15.9456 177.289 257.802 191.584C499.658 205.879 580.331 187.89 755.988 187.89C811.1 187.598 848.63 168.17 800.292 204.19Z" stroke="#9CB795" stroke-width="2" stroke-miterlimit="10"/>
<path d="M1186.3 265.337C1186.3 265.337 1149.5 263.207 1126.05 266.527C1102.6 269.847 1103.37 278.326 1089.31 282.686C1080.74 285.34 1067.29 285.532 1060.31 288.428C1053.33 291.323 1050.51 298.762 1055.49 300.842C1065.5 304.92 1085.61 301.675 1119.07 303.88C1152.53 306.085 1185.99 302.881 1185.99 302.881" stroke="#9CB795" stroke-width="2" stroke-miterlimit="10"/>
<path d="M1186.51 245.241C1186.51 245.241 1127.39 242.961 1099.42 255.575C1081.1 263.821 1036.77 284.249 1024.24 291.504C1013.26 297.853 967.382 318.663 911.352 332.276C854.33 346.122 788.906 362.855 753.735 369.961C720.789 376.617 656.544 384.514 629.758 386.502C602.972 388.491 497.666 380.52 485.876 385.03C474.087 389.539 500.711 410.483 545.816 418.204C590.921 425.926 609.349 422.664 659.489 434.563C709.629 446.462 710.287 476.225 750.312 478.455C793.779 480.826 1011.93 477.839 1052.37 475.518C1094.66 473.096 1148.69 464.518 1184.61 467.197" stroke="#9CB795" stroke-width="2" stroke-miterlimit="10"/>
<path d="M1184.76 450.02C1184.76 450.02 1141.24 450.852 1107.73 455.844C1074.23 460.836 995.6 461.86 963.788 462.95C928.581 464.181 822.203 465.371 798.488 466.278C769.667 467.368 742.251 464.148 729.623 457.508C718.284 451.534 704.63 435.134 687.959 428.311C671.287 421.488 629.505 416.554 609.438 414.091C589.372 411.628 565.927 413.525 567.665 404.897C569.404 396.268 620.679 401.86 640.746 400.013C660.812 398.165 754.716 390.344 784.852 382.539C814.989 374.734 861.256 363.102 897.697 353.999C933.877 344.897 975.388 332.857 1001.66 327.648C1037.08 320.584 1058.06 315.416 1093.77 315.799C1132.83 316.274 1185.78 318.021 1185.78 318.021" stroke="#9CB795" stroke-width="2" stroke-miterlimit="10"/>
<path d="M1184.87 433.381C1184.87 433.381 1141.31 439.406 1091.07 443.241C1040.83 447.077 845.053 446.653 811.593 444.431C778.133 442.21 739.188 435.803 738.108 424.994C737.207 415.842 748.781 414.136 766.641 412.389C790.058 410.109 847.16 392.194 874 383.092C900.84 373.989 969.651 352.563 1008.2 346.115C1044.12 340.072 1080.54 336.965 1117.05 336.829C1161.38 336.446 1185.65 335.548 1185.65 335.548L1623.13 319.738C1654.74 318.599 1681.06 310.736 1700.46 297.273C1702.62 295.808 1716.27 286.04 1720.89 283.818" stroke="#9CB795" stroke-width="2" stroke-miterlimit="10"/>
<path d="M1185.63 346.821C1185.63 346.821 1125.39 346.68 1091.96 347.345C1058.54 348.011 999.851 359.194 974.704 363.987C949.558 368.78 860.635 397.736 832.057 405.382C803.479 413.029 785.105 416.333 778.377 420.734C772.973 424.295 776.576 433.681 801.677 436.044C826.779 438.407 957.322 435.861 984.062 436.76C1010.8 437.659 1126.33 431.177 1159.87 426.184L1185.02 422.482" stroke="#9CB795" stroke-width="2" stroke-miterlimit="10"/>
<path d="M1185.53 356.687C1185.53 356.687 1108.55 354.19 1070.07 359.183C1031.58 364.175 951.062 381.574 934.283 386.25C917.503 390.926 880.711 403.415 865.778 407.051C853.772 409.939 819.438 414.299 822.258 424.109C823.906 429.8 850.277 426.605 873.677 426.106C897.076 425.606 964.05 422.877 982.468 423.967C1000.89 425.057 1056.11 423.967 1074.53 422.17C1092.96 420.373 1173.99 408.092 1186.22 409.689" stroke="#9CB795" stroke-width="2" stroke-miterlimit="10"/>
<path d="M1185.42 368.117C1185.42 368.117 1138.99 365.887 1100.91 367.451C1062.83 369.015 951.061 390.35 937.515 397.647C923.501 405.186 928.067 409.405 935.714 412.009C941.874 414.098 972.56 409.879 1002.69 407.849C1032.81 405.818 1183.27 393.296 1185.27 393.054" stroke="#9CB795" stroke-width="2" stroke-miterlimit="10"/>
<path d="M1186.81 206.281C1186.81 206.281 1057.88 216 1020.48 218.612C983.088 221.225 907.18 228.938 882.493 242.31C857.806 255.681 822.914 294.547 814.502 301.844C806.089 309.141 783.816 324.884 776.989 328.345C770.162 331.807 750.563 339.994 752.77 343.938C754.977 347.882 798.596 340.477 827.588 334.028C877.008 323.037 963.427 298.25 997.598 281.933C1031.77 265.616 1089.61 236.81 1120.03 233.348C1146.81 230.32 1174.89 229.413 1186.59 230.128" stroke="#9CB795" stroke-width="2" stroke-miterlimit="10"/>
<path d="M854.122 303.683C847.457 297.026 860.589 289.887 873.108 277.565C889.896 261.023 904.631 254.675 912.575 251.971C932.489 245.239 936.848 245.048 970.56 239.49C1004.27 233.932 1029.58 229.771 1031.47 236.644C1033.36 243.517 1025.47 246.413 1010.54 252.903C995.608 259.393 981.953 261.007 966.408 268.545C957.167 273.005 920.834 292.101 887.275 298.266C870.082 301.411 858.832 308.376 854.122 303.683Z" stroke="#9CB795" stroke-width="2" stroke-miterlimit="10"/>
<path d="M1917.5 278.435C2008.74 307.916 1917.09 327.112 1917.09 327.112C1917.09 327.112 1893.59 333.328 1835.04 333.045C1776.49 332.762 1791.81 305.262 1813.58 299.104C1828.11 295.027 1862.22 288.104 1873.93 285.025C1885.64 281.946 1900.82 273.026 1917.5 278.435Z" stroke="#9CB795" stroke-width="2" stroke-miterlimit="10"/>
<path d="M1917.66 264.117C1934.34 268.102 1986.16 277.105 1989.3 301.376C1992.43 325.647 1916.99 340.009 1916.99 340.009C1885.95 344.184 1854.57 345.755 1823.23 344.702C1773.05 342.804 1773.25 319.906 1774.95 315.58C1776.64 311.253 1778.43 299.77 1806.96 287.756C1835.5 275.741 1850.53 278.32 1869 270.79C1887.48 263.26 1900.9 260.14 1917.66 264.117Z" stroke="#9CB795" stroke-width="2" stroke-miterlimit="10"/>
<path d="M2028.11 315.177C2025.91 315.618 2023.52 316.068 2020.95 316.542C1985.75 322.941 1975.54 341.762 1916.89 351.489C1916.89 351.489 1890.09 354.9 1866.65 355.333C1843.21 355.765 1801.37 356.606 1786.34 351.172C1771.31 345.739 1761.4 334.49 1761.5 323.015C1761.65 305.858 1771.76 295.624 1785.2 288.177C1798.64 280.73 1823.8 273.108 1847.3 266.943C1870.81 260.777 1890.97 251.733 1917.71 254.096C1944.45 256.459 1971.13 265.953 1989.45 277.044C1998.27 282.386 2014.09 286.263 2028.11 289.641" stroke="#9CB795" stroke-width="2" stroke-miterlimit="10"/>
<path d="M2028.11 329.028L2027.53 329.152C1997.36 335.46 1972.11 350.295 1916.84 358.541C1881.43 363.8 1854.84 366.928 1808.04 363.533C1761.25 360.139 1753.03 340.236 1751.39 334.569C1749.75 328.903 1746.67 301.728 1768.51 288.448C1790.34 275.168 1808.79 271.906 1823.92 267.313C1839.06 262.72 1882.64 244.797 1917.78 245.505C1944.58 246.079 1991.32 254.083 2019.7 262.096C2022.48 262.878 2025.27 263.663 2028.09 264.451" stroke="#9CB795" stroke-width="2" stroke-miterlimit="10"/>
<path d="M2028.11 344.746C1993.5 354.498 1963.75 369.151 1916.78 370.099C1916.78 370.099 1891.69 370.574 1866.54 372.512C1841.4 374.451 1781.21 374.176 1762.89 364.549C1744.57 354.922 1734.66 336.492 1731.36 329.378C1728.07 322.264 1733.16 313.568 1736.54 307.811C1739.92 302.053 1755.17 280.269 1782.01 272.547C1808.85 264.826 1834.05 254.342 1845.8 249.84C1857.55 245.339 1875.61 234.339 1915.58 233.673C1926.1 233.49 1935.35 234.622 1958.49 237.834C1977.9 240.546 2001.98 243.949 2028.1 246.886" stroke="#9CB795" stroke-width="2" stroke-miterlimit="10"/>
<path d="M1186.68 230.126L1200.19 230.176C1200.19 230.176 1268.19 229.893 1303.9 230.268C1347.42 230.692 1396.52 230.176 1426.6 228.662C1502.49 224.867 1601.23 228.088 1680.58 212.969C1714.09 206.57 1746.16 174.478 1794.91 149.166C1843.67 123.855 1918.85 136.685 1918.85 136.685C1918.85 136.685 1953.97 141.678 1978.99 145.497C1990.1 147.161 2007.46 149.316 2028.17 151.172" stroke="#9CB795" stroke-width="2" stroke-miterlimit="10"/>
<path d="M1185.99 302.891L1206.52 302.458C1206.52 302.458 1470.8 297.724 1547.62 291.416C1599.24 287.198 1640.96 286.915 1687.04 276.015C1703.62 272.079 1723.63 264.491 1741.03 256.195C1752.32 250.795 1765.61 245.245 1775.62 239.703C1794.53 229.319 1810.82 218.943 1827.81 212.877C1869.63 197.991 1906.32 198.465 1918.22 198.274C1922.9 198.183 1929.62 198.84 1937.89 199.888C1959.28 202.684 1991.02 208.417 2023.53 211.928L2028.11 212.511" stroke="#9CB795" stroke-width="2" stroke-miterlimit="10"/>
<path d="M1064.42 278.998C1073.86 277.767 1082.38 274.205 1090.84 269.895C1117.78 256.058 1154.42 251.074 1196.22 255.151C1207.93 256.291 1217.57 257.473 1223.31 257.572C1230.6 257.664 1259.08 260.792 1296.91 260.56C1351.96 260.277 1419.14 258.063 1441.98 255.109C1480.52 250.117 1518.75 251.215 1538.25 250.841C1559.69 250.417 1599.41 247.429 1623.07 245.341C1696.1 238.892 1716.74 223.965 1730.69 216.144C1749.16 205.809 1795.14 165.612 1844.96 158.073C1888.54 151.483 1911.68 155.752 1918.61 156.609C1924.13 157.283 1963.64 168.524 2028.09 173.958" stroke="#9CB795" stroke-width="2" stroke-miterlimit="10"/>
<path d="M2028.12 203.193C2000.19 200.488 1967.29 196.12 1945.94 192.043C1934.7 189.913 1915.32 187.35 1910.01 187.209C1891.59 186.684 1880.56 186.31 1855.16 192.417C1836.25 196.969 1813.9 202.66 1794.29 214.933C1747.19 244.471 1723.68 256.412 1676.73 267.353C1629.78 278.295 1186.24 291.292 1186.24 291.292L1106.99 292.615C1083.23 292.19 1120.5 271.713 1150.14 272.188C1179.78 272.662 1190.32 280.866 1213.92 279.868C1221.68 279.535 1246.98 281.382 1246.98 281.382C1284.28 280.15 1456.14 274.368 1472.51 272.762C1490.93 270.956 1495.93 269.433 1514.38 270.482C1532.84 271.53 1546.15 271.314 1561.22 269.583C1576.29 267.852 1644.92 263.659 1676.78 258.725C1708.65 253.791 1735.59 238.971 1757.45 225.658C1779.31 212.345 1789.47 200.696 1836.43 186.884C1883.38 173.072 1905.35 175.127 1918.49 176.691C1931.63 178.256 1948.55 183.298 2005.38 190.712C2013.07 191.721 2020.66 192.553 2028.13 193.208" stroke="#9CB795" stroke-width="2" stroke-miterlimit="10"/>
<path d="M1186.5 245.252C1186.5 245.252 1249.54 246.766 1261.25 247.948C1272.96 249.129 1334.07 247.948 1374.25 245.585C1412.84 243.305 1469.13 238.612 1507.05 237.713C1525.48 237.289 1569.97 235.816 1610.57 234.019C1669.42 231.406 1689.82 222.303 1703.86 216.762C1730.7 206.194 1761.08 176.989 1808.14 156.021C1855.2 135.052 1918.67 146.685 1918.67 146.685C1918.67 146.685 1970.91 157.593 2028.1 163.551" stroke="#9CB795" stroke-width="2" stroke-miterlimit="10"/>
<path d="M1186.29 265.349C1186.29 265.349 1199.8 263.926 1216.47 269.285C1228.58 273.221 1239.89 271.698 1254.9 272.838C1269.92 273.978 1423.94 268.095 1452.42 264.683C1480.9 261.272 1509.33 260.706 1526.07 261.796C1542.8 262.886 1575.22 259.042 1588 257.719C1594 257.103 1627.05 254.873 1654.97 252.078C1690.33 248.566 1707.98 240.27 1722.04 233.639C1747.95 221.407 1784.34 186.618 1832.99 174.196C1881.63 161.773 1910.44 165.525 1918.38 166.798C1926.31 168.071 1963.48 177.707 2008.6 182.208C2014.12 182.766 2020.72 183.29 2028.12 183.798" stroke="#9CB795" stroke-width="2" stroke-miterlimit="10"/>
<path d="M1186.96 196.854C1186.96 196.854 1598.67 187.327 1645.57 182.118C1692.48 176.909 1716.09 153.528 1776.61 119.405C1837.14 85.2817 1918.92 105.135 1918.92 105.135C1918.92 105.135 1974.36 116.077 2028.04 119.646" stroke="#9CB795" stroke-width="2" stroke-miterlimit="10"/>
<path d="M2028.12 236.282C1991.44 232.605 1935.57 222.453 1918.02 222.486C1876.86 222.586 1852.69 235.242 1844.27 238.296C1835.85 241.35 1795.57 259.298 1772.07 266.928C1748.58 274.558 1724.5 304.139 1721.53 307.983C1718.14 312.343 1711.36 316.794 1711.31 325.373C1711.27 333.952 1724.29 358.032 1754.21 372.727C1773.92 382.446 1827.96 383.203 1859.77 381.164C1891.58 379.126 1907.19 378.843 1916.68 378.61C1926.18 378.377 1957.28 382.97 2003.77 368.325C2011.52 365.887 2019.7 363.757 2028.09 361.893" stroke="#9CB795" stroke-width="2" stroke-miterlimit="10"/>
<path d="M1185.63 346.83C1185.63 346.83 1211.29 347.163 1258.24 346.164C1302.07 345.216 1358.62 341.663 1422.3 339.341C1529.7 335.456 1636.76 336.737 1654.36 336.596C1675.3 336.404 1689.87 338.443 1702.75 349.867C1731.8 375.661 1738.78 379.064 1754.32 384.755C1773.31 391.669 1811.96 391.012 1849.26 389.207C1878.35 387.834 1906.48 386.644 1916.64 387.268C1946.24 389.015 1968.31 391.628 1994.1 383.615C2005.45 380.071 2018.13 376.751 2028.09 374.462" stroke="#9CB795" stroke-width="2" stroke-miterlimit="10"/>
<path d="M1185.52 356.69C1185.52 356.69 1194.09 357.356 1209.02 355.317C1225.96 352.996 1244.15 360.31 1272.61 356.923C1294.68 354.269 1513.48 348.869 1618.79 348.112C1649.32 347.87 1669.39 349.252 1674.26 350.483C1692.69 355.034 1715.83 379.439 1729.73 386.744C1759.35 402.246 1794.29 399.633 1822.77 399.067C1851.25 398.501 1892.83 396.03 1911.5 396.887C1922.49 397.362 1949.94 400.865 1975.08 398.967C1987.86 397.986 2008.41 391.138 2028.12 386.145" stroke="#9CB795" stroke-width="2" stroke-miterlimit="10"/>
<path d="M2028.12 398.83C2017.93 401.376 2009.09 403.981 2003.56 405.57C1983.14 411.394 1964.05 414.24 1920.32 406.468C1896.37 402.2 1836.37 407.933 1824.1 408.599C1769.97 411.586 1735.79 407.933 1712.49 388.363C1689.19 368.792 1684.27 361.736 1667.54 359.24C1650.82 356.744 1398.13 360.239 1374.67 360.713C1351.22 361.187 1294.36 363.742 1282.61 366.829C1270.87 369.916 1262.44 374.359 1252.43 370.29C1242.43 366.221 1223.13 359.623 1214 363.883C1204.37 368.335 1185.89 368.16 1185.42 368.152" stroke="#9CB795" stroke-width="2" stroke-miterlimit="10"/>
<path d="M1185.32 393.003C1185.32 393.003 1229.35 392.812 1259.52 390.965C1290.87 389.018 1563.05 381.671 1614.89 382.053C1666.73 382.436 1673.86 400.533 1687.2 408.879C1700.53 417.225 1727.12 433.841 1782.34 434.19C1837.56 434.54 1883.38 455.05 1912.04 464.976C1935.55 473.097 1939.21 475.452 2028.13 509.807" stroke="#9CB795" stroke-width="2" stroke-miterlimit="10"/>
<path d="M1186.3 409.687C1239.76 415.802 1282.31 405.468 1309.09 403.521C1335.88 401.574 1568.49 398.404 1615.32 397.505C1662.16 396.607 1657.04 412.432 1691.99 431.778C1726.93 451.123 1772.24 450.732 1802.32 453.345C1851.32 457.605 1915.8 484.622 1915.8 484.622C1915.8 484.622 1984.21 507.612 2020.9 524.062C2023.1 525.043 2025.5 526.108 2028.11 527.223" stroke="#9CB795" stroke-width="2" stroke-miterlimit="10"/>
<path d="M1182.75 694.891C1182.75 694.891 1402.08 682.194 1460.69 676.735C1519.29 671.277 1547.51 626.07 1580.21 595.683C1625.73 553.247 1736.36 531.072 1736.36 531.072C1803.48 516.927 1880.47 523.584 1906.43 526.429C1912.05 527.042 1917.61 527.993 1923.1 529.275C1938.5 532.778 1974.72 541.265 2008.96 551.508C2015.07 553.33 2021.51 555.361 2028.12 557.516" stroke="#9CB795" stroke-width="2" stroke-miterlimit="10"/>
<path d="M2028.11 614.75C2020.83 615.333 2013.65 616.679 2006.7 618.76C1966.41 630.992 1930.23 622.089 1905.14 622.555C1905.14 622.555 1776.07 623.262 1758.98 623.595C1738.92 623.977 1663.64 622.272 1657.02 612.778C1650.61 603.534 1663.79 590.595 1692.43 579.171C1707.83 573.056 1752.57 560.492 1811.18 554.8C1858.91 550.158 1905.65 557.646 1916.27 559.876C1932.59 563.287 1962.92 573.056 1986.12 579.737C1997.63 583.065 2014.22 586.676 2027.66 591.111" stroke="#9CB795" stroke-width="2" stroke-miterlimit="10"/>
<path d="M1919.51 578.964C1885.39 571.758 1842.48 574.803 1826.75 577.915C1808.02 581.568 1788.57 591.57 1788.47 601.572C1788.37 611.574 1813.41 609.677 1826.49 609.394C1839.58 609.111 1901.1 605.458 1919.33 607.588C1933.38 609.253 1934.83 610.151 1956.17 611.15C1974.28 611.982 1980.03 603.519 1972.95 599.342C1972.88 599.392 1953.02 586.07 1919.51 578.964Z" stroke="#9CB795" stroke-width="2" stroke-miterlimit="10"/>
<path d="M1185.99 318.105L1208.98 318.246C1302.64 316.399 1594.46 300.565 1658.16 292.177C1721.85 283.79 1763.87 255.774 1814.26 234.764C1864.65 213.755 1892.26 211.159 1917.35 210.684C1942.44 210.21 1971.65 220.212 2005.1 222.433C2011.76 222.866 2019.6 223.565 2028.11 224.389" stroke="#9CB795" stroke-width="2" stroke-miterlimit="10"/>
<path d="M1186.81 206.283C1205.72 204.911 1487.47 209.37 1541.61 208.563C1598.01 207.731 1662.82 203.571 1685.46 195.808C1712.48 186.655 1763.05 145.517 1813.35 127.361C1863.65 109.205 1918.81 123.858 1918.81 123.858C1918.81 123.858 1960.39 133.385 2028.08 138.344" stroke="#9CB795" stroke-width="2" stroke-miterlimit="10"/>
<path d="M2028.11 574.682C1983.39 559.63 1941.42 548.405 1923.92 543.896C1917.85 542.33 1911.66 541.189 1905.4 540.484C1879.39 537.497 1807.28 531.19 1747.96 545.027C1674.17 562.234 1643.89 581.438 1623.72 591.864C1603.56 602.29 1588.52 609.637 1584.99 618.407C1580.43 629.881 1594.33 641.064 1630.03 637.652C1664.06 634.432 1835.81 633.575 1854.23 633.192C1871.06 632.868 1914.48 634.857 1914.48 634.857C1914.48 634.857 1971.36 641.222 2028.06 634.099" stroke="#9CB795" stroke-width="2" stroke-miterlimit="10"/>
<path d="M2028.11 856.428C1882.58 867.752 1773.43 883.054 1858.39 901.36C1962.03 923.618 1989.39 912.086 2028.11 897.308" stroke="#9CB795" stroke-width="2" stroke-miterlimit="10"/>
<path d="M-109.168 785.926C469.601 783.962 459.153 847.308 558.596 826.098C602.926 816.646 666.622 735.744 740.53 729.162C1010.27 705.165 1370.55 723.338 1483.13 686.727C1483.13 686.727 1541.04 668.779 1569.59 657.829C1600.03 646.122 1661.46 649.25 1708.57 647.545C1755.52 645.88 1856.66 646.222 1893.46 649.775C1920.31 652.371 1980.59 652.712 2028.13 650.723" stroke="#9CB795" stroke-width="2" stroke-miterlimit="10"/>
<path d="M2028.12 703.804C1954.77 709.079 1881.31 702.315 1851.58 743.477C1825.15 780.021 1789.84 811.124 1747.36 836.668C1692.96 869.377 1674.64 898.574 1568.82 893.648C1500.52 882.881 1381.21 882.931 1310.85 852.311C1240.49 821.691 1146.93 824.346 1133.76 792.494C1135.04 768.93 1150.79 747.413 1300.65 744.667C1439.15 747.504 1484.38 745.283 1569.33 687.495C1591.2 672.76 1663.15 672.76 1694.96 670.721C1726.77 668.682 1922.5 674.798 2001.19 674.698C2010.19 674.695 2019.18 674.139 2028.1 673.034" stroke="#9CB795" stroke-width="2" stroke-miterlimit="10"/>
<path d="M2028.11 660.385C1997.87 660.809 1965.56 661.051 1944.4 661.475C1904.22 662.307 1779.31 655.784 1727.43 658.246C1666.61 661.092 1605.84 658.246 1564.41 673.224L1540.85 688.01C1490.42 737.31 1381.26 736.594 1004.7 733.565C782.231 734.223 715.428 757.496 750.014 795.563C923.005 879.419 1099.22 802.103 1271.6 870.882C1413.95 934.827 1519.72 914.491 1628.81 901.835C1711.03 893.781 1841.22 789.447 1987.41 772.481C1997.16 771.341 2012.57 771.549 2028.08 771.916" stroke="#9CB795" stroke-width="2" stroke-miterlimit="10"/>
<path d="M-109.168 875.911C22.6086 866.526 152.863 862.889 258.809 871.169C427.459 884.349 531.441 876.993 594.613 865.211C703.594 844.842 815.277 840.182 925.681 852.439C1281.32 891.929 1204.61 924.371 1438.3 939.806C1587.09 949.633 1638.24 926.185 1776.79 875.054C1857.6 845.412 1941.96 824.843 2028.08 813.789" stroke="#9CB795" stroke-width="2" stroke-miterlimit="10"/>
<path d="M1183.16 633.272C1183.16 633.272 1220.09 628.487 1243.56 625.167C1267.03 621.847 1266.25 613.368 1280.31 609.008C1288.88 606.353 1302.32 606.162 1309.3 603.266C1316.28 600.37 1319.1 592.932 1314.13 590.851C1304.12 586.774 1284 590.019 1250.54 587.814C1217.08 585.609 1183.52 587.44 1183.52 587.44" stroke="#9CB795" stroke-width="2" stroke-miterlimit="10"/>
<path d="M1184.96 422.441C1214.72 420.02 1275.02 418.547 1317.3 416.184C1357.74 413.904 1575.89 410.876 1619.36 413.239C1659.38 415.419 1660.1 445.24 1710.19 457.138C1760.28 469.037 1778.69 465.808 1823.85 473.488C1869.01 481.168 1895.55 502.119 1883.79 506.671C1872.04 511.222 1766.71 503.259 1739.9 505.198C1713.1 507.137 1648.86 515.058 1615.92 521.74C1580.79 528.854 1515.34 545.536 1458.3 559.424C1402.31 573.028 1356.38 593.838 1345.4 600.195C1332.88 607.442 1288.54 627.869 1270.22 636.123C1242.15 648.729 1201.86 642.663 1183.03 644.752" stroke="#9CB795" stroke-width="2" stroke-miterlimit="10"/>
<path d="M1183.69 574.552C1183.69 574.552 1236.74 575.384 1275.8 575.875C1311.52 576.308 1332.54 571.091 1367.91 564.026C1394.19 558.809 1435.7 546.728 1471.88 537.675C1508.31 528.522 1554.5 516.873 1584.73 509.135C1614.95 501.397 1708.81 493.542 1728.83 491.662C1748.85 489.781 1800.16 495.406 1801.9 486.777C1803.65 478.149 1780.2 480.046 1760.13 477.583C1740.06 475.12 1698.29 470.186 1681.62 463.363C1664.95 456.54 1651.28 440.132 1639.95 434.166C1627.34 427.576 1599.92 424.306 1571.08 425.396C1547.42 426.295 1440.99 427.476 1405.79 428.724C1373.97 429.814 1295.56 431.145 1261.85 435.838C1235.42 439.533 1203.39 430.014 1184.82 433.342" stroke="#9CB795" stroke-width="2" stroke-miterlimit="10"/>
<path d="M1183.88 547.335C1183.88 547.335 1202.66 549.947 1252.5 554.823C1290.37 558.526 1322.8 552.028 1361.33 545.537C1399.86 539.047 1468.69 517.663 1495.53 508.56C1522.37 499.457 1579.48 481.543 1602.88 479.271C1620.8 477.515 1632.29 475.81 1631.42 466.657C1630.39 455.84 1591.39 449.408 1557.93 447.228C1524.47 445.048 1328.7 444.573 1278.46 448.409C1247.26 450.718 1215.93 451.257 1184.65 450.024" stroke="#9CB795" stroke-width="2" stroke-miterlimit="10"/>
<path d="M1183.97 535.91C1188.21 535.687 1192.45 535.863 1196.64 536.435C1215.95 539.039 1253.46 544.822 1277.71 544.348C1311.16 543.69 1369.82 532.499 1394.96 527.706C1420.11 522.914 1509.04 493.958 1537.57 486.278C1566.09 478.598 1584.53 475.328 1591.25 470.918C1596.65 467.365 1593.05 457.979 1567.95 455.608C1542.84 453.237 1412.3 455.799 1385.57 454.901C1358.84 454.002 1243.26 460.542 1209.76 465.518C1191.02 468.264 1184.54 467.182 1184.54 467.182" stroke="#9CB795" stroke-width="2" stroke-miterlimit="10"/>
<path d="M1184.08 527.333C1184.08 527.333 1261.06 537.526 1299.6 532.5C1338.14 527.475 1418.61 510.126 1435.39 505.483C1452.17 500.84 1488.96 488.326 1503.89 484.723C1515.9 481.828 1550.23 477.468 1547.41 467.658C1545.77 461.967 1519.39 465.162 1495.99 465.669C1472.59 466.177 1405.62 468.889 1387.2 467.799C1368.78 466.71 1313.56 467.799 1295.13 469.597C1276.71 471.394 1193.88 477.235 1184.6 482.685" stroke="#9CB795" stroke-width="2" stroke-miterlimit="10"/>
<path d="M1224.78 511.745C1224.78 511.745 1189.74 514.241 1181.07 517.337C1172.7 520.324 1182.25 522.978 1193.54 523.994C1209.45 525.366 1241.06 525.416 1268.66 524.276C1306.74 522.712 1418.51 501.377 1432.05 494.08C1446.07 486.541 1441.49 482.322 1433.86 479.718C1427.69 477.629 1397.01 481.848 1366.88 483.878C1336.75 485.909 1184.3 498.673 1184.3 498.673" stroke="#9CB795" stroke-width="2" stroke-miterlimit="10"/>
<path d="M1182.8 676.218H1187.06C1187.06 676.218 1311.76 675.744 1349.12 673.139C1386.48 670.535 1462.43 662.805 1487.11 649.434C1511.8 636.063 1546.69 597.197 1555.1 589.9C1563.52 582.603 1585.8 566.86 1592.62 563.407C1599.44 559.954 1619.05 551.758 1616.85 547.806C1614.64 543.854 1571.02 551.268 1542.02 557.716C1492.61 568.716 1406.19 593.495 1372.01 609.811C1337.83 626.128 1280 654.934 1249.62 658.395C1222.83 661.424 1196.81 660.059 1185.11 659.394L1183.01 659.294" stroke="#9CB795" stroke-width="2" stroke-miterlimit="10"/>
<path d="M1515.55 588.01C1522.21 594.666 1509.08 601.806 1496.55 614.128C1479.77 630.67 1465.03 637.018 1457.09 639.722C1437.18 646.454 1432.78 646.645 1399.11 652.203C1365.44 657.761 1340.09 661.922 1338.19 655.049C1336.29 648.176 1344.19 645.28 1359.13 638.79C1374.06 632.3 1387.71 630.686 1403.26 623.148C1412.5 618.688 1448.83 599.592 1482.39 593.427C1499.53 590.282 1510.82 583.317 1515.55 588.01Z" stroke="#9CB795" stroke-width="2" stroke-miterlimit="10"/>
<path d="M1740.05 73.7977C1740.05 73.7977 1959.38 61.101 2017.99 55.6429C2021.48 55.3184 2024.85 54.8109 2028.13 54.2617" stroke="#9CB795" stroke-width="2" stroke-miterlimit="10"/>
<path d="M1740.67 5.24609C1740.88 5.24609 1744.52 5.46299 1750.13 5.64652C1758.03 5.90513 1769.83 6.11369 1781.5 5.64652" stroke="#9CB795" stroke-width="2" stroke-miterlimit="10"/>
<path d="M1848.05 5.64648C1840 9.36586 1832.74 12.6775 1827.55 15.0073C1799.8 27.4884 1741.41 25.375 1740.47 25.3417" stroke="#9CB795" stroke-width="2" stroke-miterlimit="10"/>
<path d="M1740.41 40.5193C1752.12 41.2266 1780.18 40.328 1806.97 37.2909C1828.28 34.8612 1863.11 19.9587 1893.79 5.67188" stroke="#9CB795" stroke-width="2" stroke-miterlimit="10"/>
<path d="M1740.15 64.3567C1740.15 64.3567 1869.05 54.6382 1906.47 52.0339C1937.59 49.8289 1995.36 44.1376 2028.11 34.5605" stroke="#9CB795" stroke-width="2" stroke-miterlimit="10"/>
<path d="M2028.12 12.5362C2023.76 14.9494 2019.16 16.9829 2014.4 18.6104C1994.48 25.342 1990.08 25.5334 1956.41 31.0918C1922.75 36.6501 1897.39 40.8438 1895.5 33.9708C1893.61 27.0977 1901.5 24.2021 1916.43 17.7118C1928.65 12.3947 1940.03 10.3478 1952.28 5.64648" stroke="#9CB795" stroke-width="2" stroke-miterlimit="10"/>
<path d="M1041.25 5.64648C1030.38 8.61599 1020.6 9.1733 1009.31 6.47828C1008.24 6.22042 1007.02 5.94593 1005.71 5.64648" stroke="#9CB795" stroke-width="2" stroke-miterlimit="10"/>
<path d="M1072.53 5.64648C1051.97 11.5868 1033.26 18.6087 1009.2 16.5205C993.17 15.0136 977.465 11.3502 962.582 5.64648" stroke="#9CB795" stroke-width="2" stroke-miterlimit="10"/>
<path d="M1095.91 5.64648C1076.89 12.1703 1039.87 25.7588 1009.15 25.1264C982.368 24.5605 935.614 16.5472 907.234 8.53393C903.847 7.57977 900.431 6.62561 896.984 5.67145" stroke="#9CB795" stroke-width="2" stroke-miterlimit="10"/>
<path d="M1121.13 5.64648C1103.95 11.6125 1089.31 17.6201 1081.15 20.7487C1069.45 25.3417 1051.34 36.2419 1011.36 36.9076C1000.84 37.099 991.61 35.959 968.463 32.7472C938.597 28.5868 897.643 22.7623 855.258 19.5255C818.412 16.7381 786.393 11.1049 759.787 5.6548" stroke="#9CB795" stroke-width="2" stroke-miterlimit="10"/>
<path d="M1205.97 5.64648C1199.14 8.36734 1192.36 11.3295 1185.94 14.3915C1174.65 19.7999 1161.36 25.3415 1151.35 30.8914C1132.44 41.2756 1116.15 51.693 1099.11 57.7172C1057.3 72.6028 1020.6 72.1286 1008.7 72.3199C1004.03 72.4115 997.303 71.7541 989.044 70.7057C967.644 67.91 935.904 62.1771 903.399 58.6657C903.399 58.6657 846.585 51.1771 811.432 51.8927C776.279 52.6083 769.668 45.5357 749.547 45.9684C729.426 46.4011 676.881 40.2771 645.07 37.9972C613.258 35.7174 537.188 32.0729 478.23 30.9496C439.502 30.1841 385.804 31.0911 357.019 32.3225C306.725 35.3013 235.347 55.6786 169.824 57.3843C111.578 58.907 74.1641 39.3285 30.5447 52.9328C-14.7678 67.0779 23.5916 98.6049 42.5146 108.032C205.148 189.1 393.775 138.943 553.832 111.519C598.532 103.855 755.708 114.647 810.928 114.98C866.148 115.313 922.998 121.237 948.045 125.073C973.093 128.909 1008.18 133.893 1008.18 133.893C1008.18 133.893 1083.37 146.74 1132.11 121.412C1180.86 96.0837 1212.94 63.9993 1246.45 57.609C1325.79 42.4904 1424.53 45.7105 1500.44 41.9162C1530.52 40.4019 1579.63 39.8777 1623.14 40.3104C1658.86 40.6848 1726.85 40.4019 1726.85 40.4019L1740.36 40.4518" stroke="#9CB795" stroke-width="2" stroke-miterlimit="10"/>
<path d="M1308.78 5.64504C1287.32 7.43399 1264.83 9.55577 1250.14 11.8273C1218.32 16.8031 1191.38 31.5973 1169.56 44.9188C1147.75 58.2402 1137.54 69.8809 1090.59 83.6932C1043.63 97.5056 1021.67 95.4421 1008.53 93.8778C995.384 92.3135 978.461 87.2961 921.647 79.8491C864.833 72.402 813.279 75.6305 779.864 73.3839C746.449 71.1373 734.912 79.2084 602.982 65.8952C432.963 48.688 249.02 72.5518 181.614 76.4625C126.295 79.6826 103.121 77.3861 100.329 89.4511C97.4014 102.107 142.498 126.012 188.171 126.819C227.575 127.485 291.576 124.623 378.094 116.144C447.833 113.348 483.103 74.191 597.488 87.1297C627.696 90.5412 680.349 89.6259 741.324 92.1221C774.226 93.495 807.974 93.1622 845.144 93.8694C941.056 95.675 1001.4 113.115 1008.33 113.972C1015.25 114.829 1038.4 119.089 1081.97 112.499C1131.8 104.969 1177.78 64.772 1196.25 54.4376C1210.21 46.6162 1230.84 31.6805 1303.86 25.2403C1327.52 23.1518 1367.24 20.1647 1388.69 19.7403C1408.19 19.3576 1446.42 20.4975 1484.96 15.4718C1507.8 12.4847 1574.97 10.3046 1630.03 10.0217C1667.86 9.78043 1696.34 12.909 1703.62 13.0089C1709.37 13.1004 1718.94 14.2902 1730.72 15.4219C1767.09 18.9665 1799.55 15.6632 1825.12 5.63672" stroke="#9CB795" stroke-width="2" stroke-miterlimit="10"/>
<path d="M1240.27 5.64648C1199.74 16.0057 1176.32 28.262 1132.67 55.6285C1113.06 67.9097 1090.69 73.5927 1071.81 78.1441C1046.41 84.2598 1035.37 83.877 1016.95 83.3611C1011.67 83.2197 992.267 80.6569 981.027 78.5269C951.467 72.8855 899.742 66.6783 869.875 65.114C829.697 63.0255 801.83 62.1269 781.205 61.1284C750.51 59.6141 696.785 55.4371 674.152 54.9628C655.778 54.5884 605.593 51.6928 580.482 50.7443C556.777 49.8457 496.324 42.4237 356.846 47.3328C281.767 52.9243 235.482 71.0383 190.268 67.0527C137.741 62.4098 20.2131 49.2549 29.553 77.7863C33.1557 88.8611 82.6294 115.504 105.209 123.5C198.59 156.608 343.201 142.071 446.31 116.119C497.738 103.181 504.7 96.8655 536.674 97.3897C576.852 98.0054 638.791 98.2218 685.59 100.185C732.389 102.149 819.114 102.132 855.96 103.738C926.879 106.867 1008.33 123.891 1008.33 123.891C1008.33 123.891 1071.81 135.54 1118.86 114.547C1165.91 93.5539 1196.31 64.3984 1223.14 53.8063C1237.11 48.2814 1257.52 39.1786 1316.37 36.5743C1356.97 34.777 1401.46 33.3042 1419.88 32.8799C1457.8 31.9813 1514.1 27.2884 1552.69 25.0086C1592.88 22.6289 1654 21.4557 1665.7 22.6289C1677.4 23.8021 1739.55 25.3081 1740.45 25.3331" stroke="#9CB795" stroke-width="2" stroke-miterlimit="10"/>
<path d="M528.597 74.0676C410.609 85.8664 427.389 111.294 294.423 114.548C289.019 114.673 283.615 115.03 278.301 115.605C250.687 118.575 160.593 119.906 141.787 107.925C106.778 85.6251 251.66 94.495 331.558 79.2098C354.114 74.8256 377.103 72.6198 400.153 72.6282C459.759 72.7863 541.927 74.2923 580.502 75.0495C647.422 76.3309 699.39 78.5608 719.466 79.6009C739.542 80.641 870.085 83.5865 918.379 88.4209C963.484 92.9224 1000.64 102.566 1008.59 103.822C1016.54 105.079 1045.34 108.815 1093.98 96.4337C1142.63 84.0525 1179.01 49.222 1204.93 36.9906C1218.99 30.334 1236.64 22.0549 1272 18.5519C1299.92 15.7561 1332.96 13.5595 1338.96 12.9105C1351.74 11.5791 1384.18 7.7433 1400.91 8.83331C1417.65 9.92333 1446.07 9.31592 1474.55 5.90443L1476.87 5.64648" stroke="#9CB795" stroke-width="2" stroke-miterlimit="10"/>
<path d="M1740.05 73.737C1740.05 73.737 1328.34 83.2642 1281.43 88.4812C1234.53 93.6983 1210.93 117.063 1150.38 151.194C1089.83 185.326 1008.02 165.464 1008.02 165.464C1008.02 165.464 944.135 152.85 887.123 150.295C835.289 148.016 803.271 148.681 726.245 145.836C683.806 144.263 655.696 143.547 620.912 142.657C569.07 141.334 517.444 145.985 465.998 152.234C274.534 175.582 10.4853 168.243 -48.7966 83.2226C-75.6815 44.6812 23.3018 3.53548 103.101 24.1458C200.175 54.433 243.965 13.8448 328.34 5.64893C337.976 4.70891 347.66 4.24229 357.35 4.25106C395.791 2.35394 464.71 -0.441801 520.794 1.87967C546.544 2.95303 571.286 4.16785 595.234 5.64893C637.061 8.22834 676.493 11.5899 714.771 16.2911C774.972 23.6881 851.889 31.1268 886.997 33.3068C922.105 35.4869 989.429 48.1426 1009 48.0927C1050.15 48.0011 1074.33 35.3454 1082.74 32.2834C1090.49 29.496 1125.3 13.9779 1149.11 5.65725" stroke="#9CB795" stroke-width="2" stroke-miterlimit="10"/>
<path d="M1178.57 5.64648C1156.49 15.5148 1135.46 26.4482 1112.76 35.9088C1062.41 56.9601 1034.75 59.5146 1009.66 59.9888C984.566 60.4631 955.321 50.4117 921.879 48.2317C888.437 46.0517 824.94 37.2817 798.154 37.8059C771.369 38.3301 771.468 29.7515 749.689 30.1758C727.911 30.6002 627.613 21.1229 589.119 20.4573C554.641 19.8416 450.362 14.1086 357.116 18.4187C261.825 24.1517 235.859 41.3172 179.972 49.6546C132.606 56.7188 129.067 38.8377 52.2938 38.8959C16.9877 38.9458 -39.9705 60.2301 -24.1638 83.2618C-7.05112 108.224 118.583 168.723 344.948 154.454C405.193 153.081 571.826 124.075 620.065 124.358C676.979 124.69 738.954 127.686 839.243 129.575C941.306 131.472 1008.13 146.782 1008.13 146.782C1008.13 146.782 1063.24 161.426 1113.58 143.271C1163.92 125.115 1214.45 84.019 1241.52 74.8246C1264.14 67.103 1328.96 62.9261 1385.35 62.0773C1439.49 61.2453 1721.3 65.7218 1740.16 64.3489" stroke="#9CB795" stroke-width="2" stroke-miterlimit="10"/>
<path d="M1243.31 158.497C1276.36 117.312 1309.35 97.4513 1549.98 113.709C1614.89 117.686 1610.84 122.429 1601.4 129.584C1565.78 156.459 1466.22 130.416 1406.24 134.801C1355.74 138.454 1228.11 181.869 1243.31 158.497Z" stroke="#9CB795" stroke-width="2" stroke-miterlimit="10"/>
<path d="M1187.89 172.865C1233.3 118.114 1233.76 81.195 1588.98 105.175C1712.09 115.46 1670.47 141.104 1652.77 148.693C1570.71 183.815 1504.3 143.384 1415.73 149.833C1341.17 155.283 1165.36 207.354 1187.89 172.865Z" stroke="#9CB795" stroke-width="2" stroke-miterlimit="10"/>
</g>
</svg>
