<svg width="664" height="640" viewBox="0 0 664 640" fill="none" xmlns="http://www.w3.org/2000/svg">
<path d="M306.748 478.172C218.591 476.133 284.123 425.685 284.123 425.685C284.123 425.685 300.328 411.315 348.126 392.664C395.925 373.911 396.435 408.461 381.657 422.22C371.771 431.392 347.209 449.839 339.158 456.973C331.004 464.107 322.953 478.579 306.748 478.172Z" stroke="#9CB795" stroke-opacity="0.7" stroke-miterlimit="10"/>
<path d="M313.374 493.663C297.883 494.886 251.409 502.02 237.447 476.948C223.484 451.877 278.111 411.824 278.111 411.824C278.111 411.824 310.521 390.523 352.204 376.255C393.99 361.987 404.59 386.651 405.303 391.848C406.016 397.046 409.889 409.989 392.36 432.207C374.83 454.425 361.275 456.565 349.86 470.63C338.344 484.694 328.866 492.44 313.374 493.663Z" stroke="#9CB795" stroke-opacity="0.7" stroke-miterlimit="10"/>
<path d="M318.062 504.468C295.131 510.685 268.938 509.156 248.861 503.143C228.681 497.13 186.998 507.832 183.634 500.086C180.271 492.34 178.946 489.283 204.629 470.938C230.21 452.593 229.701 429.05 272.913 399.393C272.913 399.393 293.092 386.959 311.947 378.907C330.801 370.754 364.536 356.282 379.314 357.301C394.092 358.32 407.544 367.187 412.844 379.519C420.794 398.068 417.43 412.336 409.99 424.668C402.551 437 385.632 453.51 369.428 467.778C353.121 482.047 340.993 498.251 318.062 504.468Z" stroke="#9CB795" stroke-opacity="0.7" stroke-miterlimit="10"/>
<path d="M84.3672 535.246C84.4691 533.514 85.0806 531.577 85.9979 529.233C96.1895 504.671 171.608 475.931 193.214 459.217C214.82 442.604 228.375 418.45 269.549 391.544C295.844 374.32 316.023 362.396 355.77 350.676C395.518 339.057 411.519 357.81 415.595 363.415C419.57 369.021 434.959 397.251 423.443 418.654C411.926 440.056 398.371 449.534 388.282 459.42C378.09 469.306 351.082 502.939 322.138 513.64C300.022 521.793 258.135 528.316 231.331 528.927C204.425 529.539 176.194 530.66 145.211 536.673C126.255 540.342 104.547 545.845 92.9282 544.011" stroke="#9CB795" stroke-opacity="0.7" stroke-miterlimit="10"/>
<path d="M67.8564 515.576C92.0106 501.512 127.07 480.721 156.931 464.006C199.43 440.26 212.985 401.328 264.249 379.314C264.249 379.314 284.429 370.651 303.997 360.357C323.565 350.166 372.688 330.802 392.256 335.184C411.722 339.668 428.436 356.281 434.449 362.803C440.463 369.326 440.463 380.333 440.361 387.773C440.361 395.111 438.22 423.546 419.977 440.566C401.734 457.586 386.243 477.154 378.701 485.816C371.261 494.377 361.681 511.907 329.476 525.666C321.017 529.233 312.965 531.067 292.48 535.144C266.186 540.342 230.107 547.476 194.029 557.769C168.754 565.005 145.211 569.286 124.42 572.14" stroke="#9CB795" stroke-opacity="0.7" stroke-miterlimit="10"/>
<path d="M158.359 595.172C181.291 586.102 234.593 575.299 261.906 567.044C290.137 558.483 318.674 559.807 338.955 551.043C359.135 542.38 380.537 530.557 411.621 491.625C442.706 452.591 463.803 408.666 511.601 379.008C530.456 367.288 580.599 341.808 639.099 313.17" stroke="#9CB795" stroke-opacity="0.7" stroke-miterlimit="10"/>
<path d="M177.315 605.363C206.056 593.847 251.816 584.165 251.816 584.165C280.047 577.336 308.482 573.158 327.234 569.183C334.47 567.654 340.28 566.126 343.949 564.597C353.529 560.52 383.696 549.106 410.704 519.448C421.711 507.422 430.068 490.911 440.565 473.586C446.171 464.413 454.324 454.018 460.949 444.641C471.14 429.965 483.88 415.391 495.6 405.709C528.009 378.905 561.846 365.045 601.899 343.744C610.867 338.954 623.811 332.533 639.2 325.195" stroke="#9CB795" stroke-opacity="0.7" stroke-miterlimit="10"/>
<path d="M193.928 613.108C203.814 609.847 214.922 606.178 227.56 602.101C252.632 594.05 297.679 583.96 324.381 580.393C334.572 579.068 351.49 575.501 355.975 573.871C371.262 568.367 380.333 565.31 398.168 550.43C411.417 539.321 426.908 525.97 437.1 506.3C461.56 459.113 475.013 438.628 508.136 411.62C520.06 401.836 574.076 374.93 638.181 344.457" stroke="#9CB795" stroke-opacity="0.7" stroke-miterlimit="10"/>
<path d="M212.068 620.344C231.229 613.21 252.835 606.076 276.581 601.082C326.418 590.585 342.521 590.483 353.936 587.833C365.351 585.285 384.205 580.291 416.003 550.124C447.801 519.957 450.553 504.16 462.069 482.655C473.586 461.253 488.465 436.487 512.11 420.792C535.755 405.097 589.668 378.191 601.083 371.465C612.09 364.942 622.587 360.458 637.161 355.77" stroke="#9CB795" stroke-opacity="0.7" stroke-miterlimit="10"/>
<path d="M229.7 626.052C248.759 619.835 265.982 614.434 277.907 611.478C316.839 601.694 351.592 599.86 358.726 598.739C365.759 597.516 391.034 592.216 424.768 562.966C458.502 533.716 471.751 484.388 487.039 462.884C495.396 451.164 505.792 436.488 532.901 421.2C554.304 409.072 580.19 395.925 584.777 393.275C594.561 387.67 619.122 372.994 633.289 368.713C634.002 368.51 634.818 368.204 635.531 368" stroke="#9CB795" stroke-opacity="0.7" stroke-miterlimit="10"/>
<path d="M249.574 631.251C313.476 611.479 358.013 610.664 363.313 609.543C369.326 608.218 390.219 605.262 422.628 583.962C459.624 559.604 478.173 501.409 488.262 484.185C496.008 471.242 505.69 448.413 562.152 417.736C580.395 407.748 611.377 391.645 628.601 384.206C629.926 383.594 631.353 382.983 632.984 382.371" stroke="#9CB795" stroke-opacity="0.7" stroke-miterlimit="10"/>
<path d="M277.295 636.346C324.38 625.238 368 620.346 368 620.346C368 620.346 425.175 612.192 453.61 574.279C482.045 536.367 492.95 494.989 509.868 474.911C518.735 464.414 530.965 447.903 577.744 425.991C594.866 417.94 612.905 409.583 628.295 402.652" stroke="#9CB795" stroke-opacity="0.7" stroke-miterlimit="10"/>
<path d="M331.515 638.997C351.388 635.226 372.587 631.149 372.587 631.149C372.587 631.149 439.852 620.55 467.675 577.337C495.498 534.227 506.403 489.18 530.659 471.446C557.667 451.572 590.178 434.756 623.199 419.469" stroke="#9CB795" stroke-opacity="0.7" stroke-miterlimit="10"/>
<path d="M53.8945 496.007C68.8762 488.873 82.533 482.656 92.2151 477.05C117.796 462.374 164.372 439.138 194.131 409.378C225.114 378.497 252.631 373.3 260.173 369.936C267.817 366.573 280.353 361.273 305.322 348.636C330.292 336.1 374.625 319.284 395.314 323.361C426.602 329.476 448.616 351.082 452.591 360.356C456.566 369.631 453.203 376.561 452.489 382.37C451.878 387.466 446.272 427.213 430.679 443.01C415.188 458.807 390.83 491.319 385.428 497.332C380.027 503.345 366.268 524.849 332.839 538.302C316.941 544.723 256.097 552.978 226.439 562.151C208.196 567.756 176.296 576.317 142.154 584.776" stroke="#9CB795" stroke-opacity="0.7" stroke-miterlimit="10"/>
<path d="M44.5186 481.026C61.1309 472.261 83.4506 460.54 91.502 456.77C134.205 436.488 138.689 433.431 160.601 419.06C166.309 415.29 182.106 402.346 194.743 389.81C211.967 372.79 231.229 368.408 256.097 360.662C264.658 358.013 286.978 347.617 310.011 336.61C339.566 322.546 370.753 309.195 389.403 310.52C404.691 311.539 412.029 312.966 447.903 331.31C463.802 339.464 476.644 336.814 493.562 329.884C505.282 324.992 566.534 301.551 635.429 271.689" stroke="#9CB795" stroke-opacity="0.7" stroke-miterlimit="10"/>
<path d="M35.8555 465.026C84.3676 438.426 131.759 420.183 146.027 412.641C165.595 402.449 188.322 374.932 203.1 367.186C222.668 356.995 246.72 351.695 255.893 348.739C271.486 343.542 304.201 327.337 327.03 317.451C349.962 307.565 377.173 293.399 408.665 300.431C423.443 303.794 453.814 322.547 470.936 321.426C475.522 321.12 492.441 316.024 517.206 305.833C547.985 293.195 590.382 275.156 632.881 256.709" stroke="#9CB795" stroke-opacity="0.7" stroke-miterlimit="10"/>
<path d="M29.7402 452.387C42.7855 445.559 58.8883 437.508 79.1696 427.724C92.4188 421.201 113.21 412.436 123.707 408.359C143.988 400.614 167.327 378.09 176.805 369.224C190.666 356.28 204.934 347.006 244.172 341.197C265.676 338.037 311.845 312.252 321.527 307.564C364.23 286.773 393.785 279.537 421.914 292.99C450.043 306.443 457.483 312.456 472.261 309.806C481.535 308.074 564.801 273.83 630.537 246.312" stroke="#9CB795" stroke-opacity="0.7" stroke-miterlimit="10"/>
<path d="M1 312.047C22.912 318.773 38.3014 330.086 41.6646 341.297C45.4355 353.833 30.4538 370.955 8.64372 389.707" stroke="#9CB795" stroke-opacity="0.7" stroke-miterlimit="10"/>
<path d="M3.03809 283.207C28.0076 285.857 58.7863 292.583 74.7872 292.278C97.0049 291.87 129.924 286.876 153.467 300.533C177.009 314.19 151.326 336.305 110.152 359.44C80.1887 376.359 56.4422 395.417 18.2236 423.546" stroke="#9CB795" stroke-opacity="0.7" stroke-miterlimit="10"/>
<path d="M7.01367 258.034C38.0982 258.441 68.8769 261.499 104.548 264.76C195.967 273.015 199.941 274.34 223.178 275.461C251.205 276.786 298.189 283.92 343.338 266.289C388.486 248.657 418.042 257.932 432.82 262.518C447.598 267.104 461.866 284.328 504.365 267.818C522.099 260.989 570.305 240.198 622.283 217.369" stroke="#9CB795" stroke-opacity="0.7" stroke-miterlimit="10"/>
<path d="M11.4971 238.77C48.3908 240.299 86.0998 244.273 106.687 247.433C144.294 253.242 210.845 255.688 210.845 255.688C210.845 255.688 276.072 263.739 317.959 252.427C343.642 245.394 380.434 230.311 418.041 239.789C455.648 249.267 458.91 268.02 496.721 251.713C514.352 244.07 565.005 222.667 616.065 200.959" stroke="#9CB795" stroke-opacity="0.7" stroke-miterlimit="10"/>
<path d="M20.1602 211.05C47.0661 212.069 78.4563 214.107 103.426 214.006C136.141 213.802 169.671 211.254 183.838 209.929C188.934 209.521 193.826 208.706 198.718 207.483C221.139 202.183 287.079 184.246 334.98 147.148C334.98 147.148 414.576 87.2216 431.698 26.7853C432.208 25.1546 432.615 23.422 433.125 21.6895" stroke="#9CB795" stroke-opacity="0.7" stroke-miterlimit="10"/>
<path d="M27.498 192.703C36.6705 193.009 47.1679 193.62 59.9074 194.334C109.948 197.188 157.849 195.251 176.296 194.334C182.003 194.028 187.507 193.315 193.01 191.99C215.636 186.792 277.295 169.976 319.081 135.834C371.058 93.3348 386.651 62.7599 398.168 45.0264C405.811 33.3061 412.232 23.7259 415.29 15.4707" stroke="#9CB795" stroke-opacity="0.7" stroke-miterlimit="10"/>
<path d="M360.153 3.44531C318.164 23.4209 204.221 69.8948 190.87 75.6021C177.315 81.4113 141.033 93.4374 141.033 93.4374C141.033 93.4374 108.114 101.183 72.749 118.305" stroke="#9CB795" stroke-opacity="0.7" stroke-miterlimit="10"/>
<path d="M175.073 174.766C160.193 176.397 130.841 175.785 108.827 176.193C86.9154 176.601 47.9834 182.206 43.4991 167.326C39.932 155.3 56.3405 157.542 73.6663 140.828C100.674 114.534 134.307 112.393 154.588 103.629C154.588 103.629 259.358 60.8237 273.117 54.9125C289.321 47.9822 351.388 25.2549 361.274 33.4082C370.854 41.2558 366.268 59.4988 348.331 81.1051C338.649 92.7235 308.176 120.852 263.129 146.026C226.337 166.613 184.755 173.747 175.073 174.766Z" stroke="#9CB795" stroke-opacity="0.7" stroke-miterlimit="10"/>
<path d="M163.353 155.301C194.54 151.938 228.07 134.714 239.485 126.255C253.04 116.267 264.149 99.1455 259.46 88.3424C254.772 77.5392 235.306 87.7309 224.809 92.3171C214.311 96.8014 165.901 120.854 150.002 124.523C137.772 127.376 136.142 126.765 118.306 132.676C103.121 137.67 102.509 148.677 110.255 150.817C110.255 150.715 132.676 158.563 163.353 155.301Z" stroke="#9CB795" stroke-opacity="0.7" stroke-miterlimit="10"/>
<path d="M465.33 604.141C496.415 567.96 517.613 509.868 534.735 491.523C545.946 479.701 578.763 462.987 613.007 446.578" stroke="#9CB795" stroke-opacity="0.7" stroke-miterlimit="10"/>
<path d="M512.62 574.585C533.615 535.347 544.52 510.377 573.668 493.357C577.541 491.115 584.777 487.446 594.663 482.656" stroke="#9CB795" stroke-opacity="0.7" stroke-miterlimit="10"/>
<path d="M101.286 87.7308C121.364 79.8832 139.607 73.5644 151.225 70.5069C182.819 62.3536 265.371 29.8423 302.877 12.7204C311.438 8.84756 320.61 4.97474 330.088 1" stroke="#9CB795" stroke-opacity="0.7" stroke-miterlimit="10"/>
<path d="M127.987 65.208C172.321 48.7995 248.656 23.3204 282.391 7.31954C286.263 5.48504 290.034 3.75246 293.907 1.91797" stroke="#9CB795" stroke-opacity="0.7" stroke-miterlimit="10"/>
<path d="M609.95 186.794C557.361 208.706 504.263 230.108 485.918 235.917C452.286 246.619 437.61 214.719 391.238 218.286C344.764 221.853 331.311 231.229 290.952 237.65C250.593 244.071 218.999 230.21 226.439 221.445C233.879 212.782 323.463 186.998 344.356 176.194C365.249 165.391 413.863 135.937 437.508 118C454.222 105.363 479.701 83.9601 506.607 61.1309" stroke="#9CB795" stroke-opacity="0.7" stroke-miterlimit="10"/>
<path d="M523.627 74.2773C504.059 91.0935 483.675 108.623 468.897 121.465C448.005 139.606 375.236 178.64 359.745 187.201C344.254 195.66 299.818 206.361 302.468 216.247C305.118 226.133 323.361 216.451 340.891 212.578C358.42 208.705 394.702 200.348 411.519 202.284C428.335 204.221 447.189 217.47 459.215 220.12C472.668 223.177 496.517 217.674 519.448 207.176C531.168 201.775 568.877 185.876 602.51 171.506" stroke="#9CB795" stroke-opacity="0.7" stroke-miterlimit="10"/>
<path d="M591.809 152.753C558.482 165.798 530.353 176.295 519.958 179.455C491.625 187.914 456.872 193.723 450.961 182.41C445.967 172.83 454.528 167.225 468.286 159.581C486.326 149.491 524.34 111.68 541.87 93.1315C542.278 92.7239 542.685 92.2143 543.195 91.8066" stroke="#9CB795" stroke-opacity="0.7" stroke-miterlimit="10"/>
<path d="M550.635 99.4512C537.182 112.598 525.156 124.421 518.124 130.739C498.556 148.371 485.001 157.849 481.638 164.78C478.886 170.283 486.326 179.252 507.83 173.646C519.041 170.691 552.877 157.034 585.898 143.581" stroke="#9CB795" stroke-opacity="0.7" stroke-miterlimit="10"/>
<path d="M559.501 109.031C554.303 114.127 549.615 118.611 546.252 121.363C537.793 128.395 511.906 144.294 518.938 153.976C523.015 159.582 542.889 147.454 561.743 139.402C565.82 137.67 571.425 135.122 577.948 132.166" stroke="#9CB795" stroke-opacity="0.7" stroke-miterlimit="10"/>
<path d="M453.101 30.0469C448.616 41.8692 440.259 60.5198 436.896 65.6157C433.023 71.5268 420.895 86.8143 424.462 90.2794C428.131 93.7446 460.133 71.6287 480.72 55.2202C483.166 53.2838 485.714 51.1436 488.364 49.0033" stroke="#9CB795" stroke-opacity="0.7" stroke-miterlimit="10"/>
<circle cx="429" cy="245" r="235" fill="#9CB795"/>
</svg>
