<svg width="610" height="352" viewBox="0 0 610 352" fill="none" xmlns="http://www.w3.org/2000/svg">
<path d="M304.586 262.937H304.656V100.689H304.586" stroke="#C8C8C8" stroke-miterlimit="10"/>
<path d="M295.836 100.404V263.23" stroke="#C8C8C8" stroke-miterlimit="10"/>
<path d="M447.004 213.817V183.043L446.863 183.187" stroke="#C8C8C8" stroke-miterlimit="10"/>
<path d="M438.184 199.875V213.817" stroke="#C8C8C8" stroke-miterlimit="10"/>
<path d="M314.027 103.656L314.098 103.728V259.98" stroke="#C8C8C8" stroke-miterlimit="10"/>
<path d="M305.352 100.764V262.867" stroke="#C8C8C8" stroke-miterlimit="10"/>
<path d="M295.07 263.156H295.141V100.475H295.07" stroke="#C8C8C8" stroke-miterlimit="10"/>
<path d="M286.391 102.354V261.35" stroke="#C8C8C8" stroke-miterlimit="10"/>
<path d="M105.363 213.818V191.93L105.293 192.074" stroke="#C8C8C8" stroke-miterlimit="10"/>
<path d="M96.625 208.762V213.818" stroke="#C8C8C8" stroke-miterlimit="10"/>
<path d="M134.539 136.012V213.813H135.309V178.56" stroke="#C8C8C8" stroke-miterlimit="10"/>
<path d="M95.9257 213.815V210.059L95.7852 210.275" stroke="#C8C8C8" stroke-miterlimit="10"/>
<path d="M133.836 213.819V137.318L133.766 137.535" stroke="#C8C8C8" stroke-miterlimit="10"/>
<path d="M125.027 154.148V213.817" stroke="#C8C8C8" stroke-miterlimit="10"/>
<path d="M124.32 213.816V155.52L124.25 155.664" stroke="#C8C8C8" stroke-miterlimit="10"/>
<path d="M115.586 172.352V213.816" stroke="#C8C8C8" stroke-miterlimit="10"/>
<path d="M114.883 213.819V173.727L114.742 173.871" stroke="#C8C8C8" stroke-miterlimit="10"/>
<path d="M106.07 190.555V213.816" stroke="#C8C8C8" stroke-miterlimit="10"/>
<path d="M465.961 213.817V146.635L465.891 146.851" stroke="#C8C8C8" stroke-miterlimit="10"/>
<path d="M457.145 163.467V213.817" stroke="#C8C8C8" stroke-miterlimit="10"/>
<path d="M466.656 145.26V213.814" stroke="#C8C8C8" stroke-miterlimit="10"/>
<path d="M456.449 213.818V164.84L456.379 164.984" stroke="#C8C8C8" stroke-miterlimit="10"/>
<path d="M447.703 181.668V213.814" stroke="#C8C8C8" stroke-miterlimit="10"/>
<path d="M1.6995 1H1V350.996H1.6995V1Z" fill="#C8C8C8" stroke="#C8C8C8" stroke-miterlimit="10"/>
<path d="M11.2151 1H10.5156V350.996H11.2151V1Z" fill="#C8C8C8" stroke="#C8C8C8" stroke-miterlimit="10"/>
<path d="M20.6604 1H19.9609V350.996H20.6604V1Z" fill="#C8C8C8" stroke="#C8C8C8" stroke-miterlimit="10"/>
<path d="M30.1761 1H29.4766V350.996H30.1761V1Z" fill="#C8C8C8" stroke="#C8C8C8" stroke-miterlimit="10"/>
<path d="M39.6839 1H38.9844V350.996H39.6839V1Z" fill="#C8C8C8" stroke="#C8C8C8" stroke-miterlimit="10"/>
<path d="M48.7134 250.656L48.4336 249.066V350.995H49.1331V252.462H48.9932L48.7134 250.656Z" fill="#C8C8C8" stroke="#C8C8C8" stroke-miterlimit="10"/>
<path d="M49.0632 214.248L49.1331 214.031V1H48.4336V215.332L48.7134 214.826L49.0632 214.248Z" fill="#C8C8C8" stroke="#C8C8C8" stroke-miterlimit="10"/>
<path d="M58.571 197.417L58.6409 197.272V1H57.9414V198.5L58.2212 198.067L58.571 197.417Z" fill="#C8C8C8" stroke="#C8C8C8" stroke-miterlimit="10"/>
<path d="M58.6409 252.465H57.9414V350.998H58.6409V252.465Z" fill="#C8C8C8" stroke="#C8C8C8" stroke-miterlimit="10"/>
<path d="M68.1487 252.465H67.4492V350.998H68.1487V252.465Z" fill="#C8C8C8" stroke="#C8C8C8" stroke-miterlimit="10"/>
<path d="M68.0088 180.657L68.1487 180.513V1H67.4492V181.741L67.6591 181.235L68.0088 180.657Z" fill="#C8C8C8" stroke="#C8C8C8" stroke-miterlimit="10"/>
<path d="M77.6018 252.465H76.9023V350.998H77.6018V252.465Z" fill="#C8C8C8" stroke="#C8C8C8" stroke-miterlimit="10"/>
<path d="M77.5319 163.826L77.6018 163.681V1H76.9023V164.909L77.1821 164.476L77.5319 163.826Z" fill="#C8C8C8" stroke="#C8C8C8" stroke-miterlimit="10"/>
<path d="M87.1097 252.465H86.4102V350.998H87.1097V252.465Z" fill="#C8C8C8" stroke="#C8C8C8" stroke-miterlimit="10"/>
<path d="M87.0397 147.066L87.1097 146.922V1H86.4102V148.15L86.69 147.644L87.0397 147.066Z" fill="#C8C8C8" stroke="#C8C8C8" stroke-miterlimit="10"/>
<path d="M96.4893 208.906L95.9297 210.062V213.818H96.6292V208.762L96.4893 208.906Z" fill="#C8C8C8" stroke="#C8C8C8" stroke-miterlimit="10"/>
<path d="M96.6292 252.465H95.9297V350.998H96.6292V252.465Z" fill="#C8C8C8" stroke="#C8C8C8" stroke-miterlimit="10"/>
<path d="M96.4893 130.235L96.6292 130.09V1H95.9297V131.318L96.1395 130.885L96.4893 130.235Z" fill="#C8C8C8" stroke="#C8C8C8" stroke-miterlimit="10"/>
<path d="M105.989 113.475L106.059 113.331V1H105.359V114.559L105.639 114.053L105.989 113.475Z" fill="#C8C8C8" stroke="#C8C8C8" stroke-miterlimit="10"/>
<path d="M106.059 252.465H105.359V350.998H106.059V252.465Z" fill="#C8C8C8" stroke="#C8C8C8" stroke-miterlimit="10"/>
<path d="M105.989 190.699L105.359 191.927V213.816H106.059V190.555L105.989 190.699Z" fill="#C8C8C8" stroke="#C8C8C8" stroke-miterlimit="10"/>
<path d="M115.586 252.465H114.887V350.998H115.586V252.465Z" fill="#C8C8C8" stroke="#C8C8C8" stroke-miterlimit="10"/>
<path d="M115.446 96.716L115.586 96.4993V1H114.887V97.7274L115.097 97.2939L115.446 96.716Z" fill="#C8C8C8" stroke="#C8C8C8" stroke-miterlimit="10"/>
<path d="M115.446 172.568L114.887 173.724V213.816H115.586V172.352L115.446 172.568Z" fill="#C8C8C8" stroke="#C8C8C8" stroke-miterlimit="10"/>
<path d="M124.954 154.365L124.324 155.521V213.817H125.024V154.148L124.954 154.365Z" fill="#C8C8C8" stroke="#C8C8C8" stroke-miterlimit="10"/>
<path d="M125.024 252.465H124.324V350.998H125.024V252.465Z" fill="#C8C8C8" stroke="#C8C8C8" stroke-miterlimit="10"/>
<path d="M124.954 79.8845L125.024 79.74V1H124.324V80.968L124.604 80.5346L124.954 79.8845Z" fill="#C8C8C8" stroke="#C8C8C8" stroke-miterlimit="10"/>
<path d="M134.532 252.465H133.832V350.998H134.532V252.465Z" fill="#C8C8C8" stroke="#C8C8C8" stroke-miterlimit="10"/>
<path d="M134.462 63.1251L134.532 62.9084V1H133.832V64.1365L134.112 63.703L134.462 63.1251Z" fill="#C8C8C8" stroke="#C8C8C8" stroke-miterlimit="10"/>
<path d="M134.462 136.156L134.112 136.806L133.832 137.312V213.813H134.532V136.012L134.462 136.156Z" fill="#C8C8C8" stroke="#C8C8C8" stroke-miterlimit="10"/>
<path d="M144.047 1H143.348V61.6081H144.047V1Z" fill="#C8C8C8" stroke="#C8C8C8" stroke-miterlimit="10"/>
<path d="M144.047 300.428H143.348V350.995H144.047V300.428Z" fill="#C8C8C8" stroke="#C8C8C8" stroke-miterlimit="10"/>
<path d="M153.492 1H152.793V61.6081H153.492V1Z" fill="#C8C8C8" stroke="#C8C8C8" stroke-miterlimit="10"/>
<path d="M153.492 300.428H152.793V350.995H153.492V300.428Z" fill="#C8C8C8" stroke="#C8C8C8" stroke-miterlimit="10"/>
<path d="M163.008 1H162.309V61.6081H163.008V1Z" fill="#C8C8C8" stroke="#C8C8C8" stroke-miterlimit="10"/>
<path d="M163.008 300.428H162.309V350.995H163.008V300.428Z" fill="#C8C8C8" stroke="#C8C8C8" stroke-miterlimit="10"/>
<path d="M172.516 300.428H171.816V350.995H172.516V300.428Z" fill="#C8C8C8" stroke="#C8C8C8" stroke-miterlimit="10"/>
<path d="M172.516 1H171.816V61.6081H172.516V1Z" fill="#C8C8C8" stroke="#C8C8C8" stroke-miterlimit="10"/>
<path d="M181.961 252.465H181.262V350.998H181.961V252.465Z" fill="#C8C8C8" stroke="#C8C8C8" stroke-miterlimit="10"/>
<path d="M181.961 1H181.262V213.815H181.961V1Z" fill="#C8C8C8" stroke="#C8C8C8" stroke-miterlimit="10"/>
<path d="M191.477 1H190.777V213.815H191.477V1Z" fill="#C8C8C8" stroke="#C8C8C8" stroke-miterlimit="10"/>
<path d="M191.477 252.465H190.777V350.998H191.477V252.465Z" fill="#C8C8C8" stroke="#C8C8C8" stroke-miterlimit="10"/>
<path d="M200.989 1H200.289V350.996H200.989V1Z" fill="#C8C8C8" stroke="#C8C8C8" stroke-miterlimit="10"/>
<path d="M210.43 1H209.73V350.996H210.43V1Z" fill="#C8C8C8" stroke="#C8C8C8" stroke-miterlimit="10"/>
<path d="M219.942 1H219.242V350.996H219.942V1Z" fill="#C8C8C8" stroke="#C8C8C8" stroke-miterlimit="10"/>
<path d="M229.461 1H228.762V350.996H229.461V1Z" fill="#C8C8C8" stroke="#C8C8C8" stroke-miterlimit="10"/>
<path d="M238.479 271.822C238.409 271.678 238.339 271.461 238.199 271.316V350.995H238.899V272.689C238.899 272.617 238.829 272.544 238.829 272.544C238.689 272.255 238.619 272.039 238.479 271.822Z" fill="#C8C8C8" stroke="#C8C8C8" stroke-miterlimit="10"/>
<path d="M238.829 91.6594C238.829 91.5871 238.899 91.5149 238.899 91.5149V1H238.199V92.8874C238.269 92.7429 238.339 92.5262 238.479 92.3817C238.619 92.165 238.689 91.9483 238.829 91.6594Z" fill="#C8C8C8" stroke="#C8C8C8" stroke-miterlimit="10"/>
<path d="M248.344 78.9454L248.414 78.8731V1H247.715V79.5233C247.785 79.451 247.855 79.3788 247.995 79.2343C248.065 79.1621 248.204 79.0898 248.344 78.9454Z" fill="#C8C8C8" stroke="#C8C8C8" stroke-miterlimit="10"/>
<path d="M247.995 284.75C247.925 284.678 247.855 284.605 247.715 284.461V350.92H248.414V285.111L248.344 285.039C248.204 285.039 248.065 284.894 247.995 284.75Z" fill="#C8C8C8" stroke="#C8C8C8" stroke-miterlimit="10"/>
<path d="M257.794 71.7938C257.794 71.7938 257.864 71.7938 257.864 71.7215V1H257.164V72.155C257.234 72.0827 257.304 72.0827 257.444 72.0105C257.584 71.9382 257.724 71.866 257.794 71.7938Z" fill="#C8C8C8" stroke="#C8C8C8" stroke-miterlimit="10"/>
<path d="M257.444 291.978C257.374 291.906 257.304 291.906 257.164 291.834V350.997H257.864V292.195C257.864 292.195 257.794 292.195 257.794 292.123C257.724 292.123 257.584 292.051 257.444 291.978Z" fill="#C8C8C8" stroke="#C8C8C8" stroke-miterlimit="10"/>
<path d="M267.298 67.3872H267.367V1H266.668V67.6039C266.738 67.6039 266.808 67.5317 266.948 67.5317C267.088 67.4594 267.158 67.3872 267.298 67.3872Z" fill="#C8C8C8" stroke="#C8C8C8" stroke-miterlimit="10"/>
<path d="M266.948 296.312C266.878 296.312 266.808 296.24 266.668 296.24V350.997H267.367V296.457H267.298C267.158 296.385 267.088 296.385 266.948 296.312Z" fill="#C8C8C8" stroke="#C8C8C8" stroke-miterlimit="10"/>
<path d="M276.813 64.7144H276.883V1H276.184V64.7866C276.254 64.7866 276.323 64.7144 276.463 64.7144C276.533 64.7144 276.673 64.7144 276.813 64.7144Z" fill="#C8C8C8" stroke="#C8C8C8" stroke-miterlimit="10"/>
<path d="M276.463 298.986C276.393 298.986 276.323 298.986 276.184 298.914V350.998H276.883V299.059H276.813C276.673 298.986 276.533 298.986 276.463 298.986Z" fill="#C8C8C8" stroke="#C8C8C8" stroke-miterlimit="10"/>
<path d="M276.813 110.084C276.673 110.301 276.603 110.445 276.463 110.662C276.393 110.806 276.323 110.951 276.184 111.095V252.538C276.254 252.683 276.323 252.827 276.463 252.972C276.603 253.188 276.673 253.333 276.813 253.55C276.813 253.622 276.883 253.622 276.883 253.694V109.939C276.813 110.012 276.813 110.084 276.813 110.084Z" fill="#C8C8C8" stroke="#C8C8C8" stroke-miterlimit="10"/>
<path d="M285.909 300.428C285.839 300.428 285.769 300.428 285.629 300.428V350.995H286.328V300.428H286.258C286.188 300.428 286.049 300.428 285.909 300.428Z" fill="#C8C8C8" stroke="#C8C8C8" stroke-miterlimit="10"/>
<path d="M286.258 102.354C286.119 102.426 286.049 102.426 285.909 102.498C285.839 102.57 285.769 102.57 285.629 102.642V261.062C285.699 261.134 285.769 261.134 285.909 261.206C286.049 261.278 286.119 261.278 286.258 261.35H286.328V102.354C286.328 102.354 286.328 102.354 286.258 102.354Z" fill="#C8C8C8" stroke="#C8C8C8" stroke-miterlimit="10"/>
<path d="M286.258 63.1974H286.328V1H285.629V63.2696C285.699 63.2696 285.769 63.2696 285.909 63.2696C286.049 63.1974 286.188 63.1974 286.258 63.1974Z" fill="#C8C8C8" stroke="#C8C8C8" stroke-miterlimit="10"/>
<path d="M295.77 100.404C295.63 100.404 295.56 100.404 295.42 100.404C295.35 100.404 295.281 100.404 295.141 100.404V263.158C295.211 263.158 295.281 263.158 295.42 263.158C295.56 263.158 295.63 263.158 295.77 263.158H295.84V100.404H295.77Z" fill="#C8C8C8" stroke="#C8C8C8" stroke-miterlimit="10"/>
<path d="M295.42 301.01C295.35 301.01 295.281 301.01 295.141 301.01V350.999H295.84V301.01H295.77C295.63 301.01 295.49 301.01 295.42 301.01Z" fill="#C8C8C8" stroke="#C8C8C8" stroke-miterlimit="10"/>
<path d="M295.77 62.6195H295.84V1H295.141V62.6195C295.211 62.6195 295.281 62.6195 295.42 62.6195C295.49 62.6195 295.63 62.6195 295.77 62.6195Z" fill="#C8C8C8" stroke="#C8C8C8" stroke-miterlimit="10"/>
<path d="M304.928 300.934C304.858 300.934 304.788 300.934 304.648 300.934V350.995H305.348V300.934H305.278C305.138 300.934 304.998 300.934 304.928 300.934Z" fill="#C8C8C8" stroke="#C8C8C8" stroke-miterlimit="10"/>
<path d="M305.278 62.6917H305.348V1H304.648V62.6917C304.718 62.6917 304.788 62.6917 304.928 62.6917C304.998 62.6917 305.138 62.6917 305.278 62.6917Z" fill="#C8C8C8" stroke="#C8C8C8" stroke-miterlimit="10"/>
<path d="M305.278 100.764C305.138 100.764 305.068 100.691 304.928 100.691C304.858 100.691 304.788 100.691 304.648 100.619V262.867C304.718 262.867 304.788 262.867 304.928 262.867C305.068 262.867 305.138 262.795 305.278 262.795H305.348V100.764C305.278 100.764 305.278 100.764 305.278 100.764Z" fill="#C8C8C8" stroke="#C8C8C8" stroke-miterlimit="10"/>
<path d="M314.723 104.017C314.583 103.945 314.513 103.873 314.374 103.801C314.304 103.728 314.234 103.728 314.094 103.656C314.094 103.656 314.304 259.98 314.443 259.908L314.793 259.475V104.09C314.793 104.09 314.793 104.09 314.723 104.017Z" fill="#C8C8C8" stroke="#C8C8C8" stroke-miterlimit="10"/>
<path d="M314.374 300.141C314.304 300.141 314.234 300.141 314.094 300.141V350.997H314.793V300.068H314.723C314.653 300.068 314.513 300.068 314.374 300.141Z" fill="#C8C8C8" stroke="#C8C8C8" stroke-miterlimit="10"/>
<path d="M314.723 63.5586H314.793V1H314.094V63.4863C314.164 63.4863 314.234 63.4863 314.374 63.4863C314.513 63.5586 314.653 63.5586 314.723 63.5586Z" fill="#C8C8C8" stroke="#C8C8C8" stroke-miterlimit="10"/>
<path d="M324.243 118.103C324.103 117.669 324.033 117.236 323.893 116.875C323.823 116.586 323.753 116.369 323.613 116.08V247.482C323.683 247.193 323.753 246.976 323.893 246.687C324.033 246.254 324.103 245.893 324.243 245.459C324.243 245.315 324.313 245.17 324.313 245.026V118.536C324.313 118.392 324.243 118.247 324.243 118.103Z" fill="#C8C8C8" stroke="#C8C8C8" stroke-miterlimit="10"/>
<path d="M324.243 65.3645H324.313V1H323.613V65.22C323.683 65.22 323.753 65.2923 323.893 65.2923C324.033 65.2923 324.103 65.2923 324.243 65.3645Z" fill="#C8C8C8" stroke="#C8C8C8" stroke-miterlimit="10"/>
<path d="M323.893 298.338C323.823 298.338 323.753 298.41 323.613 298.41V351H324.313V298.266H324.243C324.103 298.266 324.033 298.338 323.893 298.338Z" fill="#C8C8C8" stroke="#C8C8C8" stroke-miterlimit="10"/>
<path d="M333.684 68.4708C333.684 68.4708 333.754 68.4708 333.754 68.543V1H333.055V68.2541C333.125 68.2541 333.195 68.3263 333.334 68.3263C333.474 68.3985 333.614 68.3985 333.684 68.4708Z" fill="#C8C8C8" stroke="#C8C8C8" stroke-miterlimit="10"/>
<path d="M333.334 295.305C333.265 295.377 333.195 295.377 333.055 295.377V351.001H333.754V295.088C333.754 295.088 333.684 295.088 333.684 295.16C333.614 295.232 333.474 295.232 333.334 295.305Z" fill="#C8C8C8" stroke="#C8C8C8" stroke-miterlimit="10"/>
<path d="M343.2 73.5997L343.27 73.672V1H342.57V73.1663C342.64 73.2385 342.71 73.2385 342.85 73.3108C342.99 73.383 343.13 73.5275 343.2 73.5997Z" fill="#C8C8C8" stroke="#C8C8C8" stroke-miterlimit="10"/>
<path d="M342.85 290.244C342.78 290.316 342.71 290.389 342.57 290.389V350.997H343.27V289.955L343.2 290.027C343.13 290.1 342.99 290.172 342.85 290.244Z" fill="#C8C8C8" stroke="#C8C8C8" stroke-miterlimit="10"/>
<path d="M352.362 281.939C352.292 282.011 352.222 282.156 352.082 282.228V350.999H352.782V281.434C352.782 281.506 352.712 281.506 352.712 281.578C352.572 281.65 352.502 281.795 352.362 281.939Z" fill="#C8C8C8" stroke="#C8C8C8" stroke-miterlimit="10"/>
<path d="M352.712 82.0516C352.712 82.1239 352.782 82.1239 352.782 82.1961V1H352.082V81.4015C352.152 81.4737 352.292 81.6182 352.362 81.6904C352.502 81.8349 352.572 81.9794 352.712 82.0516Z" fill="#C8C8C8" stroke="#C8C8C8" stroke-miterlimit="10"/>
<path d="M362.153 98.811C362.153 98.8832 362.223 99.0277 362.223 99.0999V1H361.523V97.2217C361.593 97.4384 361.733 97.6552 361.803 97.8719C361.943 98.1608 362.083 98.4498 362.153 98.811Z" fill="#C8C8C8" stroke="#C8C8C8" stroke-miterlimit="10"/>
<path d="M361.803 265.755C361.733 265.972 361.663 266.189 361.523 266.406V350.997H362.223V264.527C362.223 264.6 362.153 264.744 362.153 264.816C362.083 265.105 361.943 265.466 361.803 265.755Z" fill="#C8C8C8" stroke="#C8C8C8" stroke-miterlimit="10"/>
<path d="M371.731 1H371.031V350.996H371.731V1Z" fill="#C8C8C8" stroke="#C8C8C8" stroke-miterlimit="10"/>
<path d="M381.25 222.7V1H380.551V350.996H381.25V223.206L381.18 222.772L381.25 222.7Z" fill="#C8C8C8" stroke="#C8C8C8" stroke-miterlimit="10"/>
<path d="M390.766 252.465H390.066V350.998H390.766V252.465Z" fill="#C8C8C8" stroke="#C8C8C8" stroke-miterlimit="10"/>
<path d="M390.626 206.085L390.766 205.868V1H390.066V207.097L390.276 206.663L390.626 206.085Z" fill="#C8C8C8" stroke="#C8C8C8" stroke-miterlimit="10"/>
<path d="M400.141 189.254L400.211 189.109V1H399.512V190.337L399.791 189.904L400.141 189.254Z" fill="#C8C8C8" stroke="#C8C8C8" stroke-miterlimit="10"/>
<path d="M400.211 252.465H399.512V350.998H400.211V252.465Z" fill="#C8C8C8" stroke="#C8C8C8" stroke-miterlimit="10"/>
<path d="M409.649 172.494L409.719 172.278V1H409.02V173.506L409.299 173.072L409.649 172.494Z" fill="#C8C8C8" stroke="#C8C8C8" stroke-miterlimit="10"/>
<path d="M409.719 252.465H409.02V350.998H409.719V252.465Z" fill="#C8C8C8" stroke="#C8C8C8" stroke-miterlimit="10"/>
<path d="M419.231 252.465H418.531V350.998H419.231V252.465Z" fill="#C8C8C8" stroke="#C8C8C8" stroke-miterlimit="10"/>
<path d="M419.091 155.663L419.231 155.518V1H418.531V156.746L419.091 155.663Z" fill="#C8C8C8" stroke="#C8C8C8" stroke-miterlimit="10"/>
<path d="M428.676 252.465H427.977V350.998H428.676V252.465Z" fill="#C8C8C8" stroke="#C8C8C8" stroke-miterlimit="10"/>
<path d="M428.606 138.903L428.676 138.687V1H427.977V139.915L428.256 139.481L428.606 138.903Z" fill="#C8C8C8" stroke="#C8C8C8" stroke-miterlimit="10"/>
<path d="M438.118 122.072L438.188 121.927V1H437.488V123.155L438.118 122.072Z" fill="#C8C8C8" stroke="#C8C8C8" stroke-miterlimit="10"/>
<path d="M438.188 252.465H437.488V350.998H438.188V252.465Z" fill="#C8C8C8" stroke="#C8C8C8" stroke-miterlimit="10"/>
<path d="M438.118 200.092L437.768 200.742L437.488 201.248V213.817H438.188V199.875L438.118 200.092Z" fill="#C8C8C8" stroke="#C8C8C8" stroke-miterlimit="10"/>
<path d="M447.567 181.885L447.008 183.04V213.814H447.707V181.668L447.567 181.885Z" fill="#C8C8C8" stroke="#C8C8C8" stroke-miterlimit="10"/>
<path d="M447.707 252.465H447.008V350.998H447.707V252.465Z" fill="#C8C8C8" stroke="#C8C8C8" stroke-miterlimit="10"/>
<path d="M447.567 105.312L447.707 105.096V1H447.008V106.324L447.218 105.89L447.567 105.312Z" fill="#C8C8C8" stroke="#C8C8C8" stroke-miterlimit="10"/>
<path d="M457.079 88.4809L457.149 88.3364V1H456.449V89.5644L457.079 88.4809Z" fill="#C8C8C8" stroke="#C8C8C8" stroke-miterlimit="10"/>
<path d="M457.149 252.465H456.449V350.998H457.149V252.465Z" fill="#C8C8C8" stroke="#C8C8C8" stroke-miterlimit="10"/>
<path d="M457.079 163.684L456.729 164.334L456.449 164.839V213.817H457.149V163.467L457.079 163.684Z" fill="#C8C8C8" stroke="#C8C8C8" stroke-miterlimit="10"/>
<path d="M466.587 71.7215L466.657 71.5048V1H465.957V72.7329L466.237 72.2994L466.587 71.7215Z" fill="#C8C8C8" stroke="#C8C8C8" stroke-miterlimit="10"/>
<path d="M466.587 145.476L466.237 146.127L465.957 146.632V213.814H466.657V145.26L466.587 145.476Z" fill="#C8C8C8" stroke="#C8C8C8" stroke-miterlimit="10"/>
<path d="M466.657 252.465H465.957V350.998H466.657V252.465Z" fill="#C8C8C8" stroke="#C8C8C8" stroke-miterlimit="10"/>
<path d="M476.172 300.428H475.473V350.995H476.172V300.428Z" fill="#C8C8C8" stroke="#C8C8C8" stroke-miterlimit="10"/>
<path d="M476.172 1H475.473V61.6081H476.172V1Z" fill="#C8C8C8" stroke="#C8C8C8" stroke-miterlimit="10"/>
<path d="M476.032 127.277L475.473 128.433V141.075L475.682 138.113L476.032 133.995L476.172 132.84V127.133L476.032 127.277Z" fill="#C8C8C8"/>
<path d="M485.614 300.428H484.914V350.995H485.614V300.428Z" fill="#C8C8C8" stroke="#C8C8C8" stroke-miterlimit="10"/>
<path d="M485.614 1H484.914V61.6081H485.614V1Z" fill="#C8C8C8" stroke="#C8C8C8" stroke-miterlimit="10"/>
<path d="M495.125 1H494.426V61.6081H495.125V1Z" fill="#C8C8C8" stroke="#C8C8C8" stroke-miterlimit="10"/>
<path d="M495.125 300.428H494.426V350.995H495.125V300.428Z" fill="#C8C8C8" stroke="#C8C8C8" stroke-miterlimit="10"/>
<path d="M504.641 1H503.941V61.6081H504.641V1Z" fill="#C8C8C8" stroke="#C8C8C8" stroke-miterlimit="10"/>
<path d="M504.641 300.428H503.941V350.995H504.641V300.428Z" fill="#C8C8C8" stroke="#C8C8C8" stroke-miterlimit="10"/>
<path d="M514.086 252.465H513.387V350.998H514.086V252.465Z" fill="#C8C8C8" stroke="#C8C8C8" stroke-miterlimit="10"/>
<path d="M514.086 1H513.387V213.815H514.086V1Z" fill="#C8C8C8" stroke="#C8C8C8" stroke-miterlimit="10"/>
<path d="M523.602 252.465H522.902V350.998H523.602V252.465Z" fill="#C8C8C8" stroke="#C8C8C8" stroke-miterlimit="10"/>
<path d="M523.602 1H522.902V213.815H523.602V1Z" fill="#C8C8C8" stroke="#C8C8C8" stroke-miterlimit="10"/>
<path d="M533.11 252.465H532.41V350.998H533.11V252.465Z" fill="#C8C8C8" stroke="#C8C8C8" stroke-miterlimit="10"/>
<path d="M533.11 1H532.41V213.815H533.11V1Z" fill="#C8C8C8" stroke="#C8C8C8" stroke-miterlimit="10"/>
<path d="M542.555 1H541.855V350.996H542.555V1Z" fill="#C8C8C8" stroke="#C8C8C8" stroke-miterlimit="10"/>
<path d="M552.063 1H551.363V350.996H552.063V1Z" fill="#C8C8C8" stroke="#C8C8C8" stroke-miterlimit="10"/>
<path d="M561.512 1H560.812V350.996H561.512V1Z" fill="#C8C8C8" stroke="#C8C8C8" stroke-miterlimit="10"/>
<path d="M571.024 1H570.324V350.996H571.024V1Z" fill="#C8C8C8" stroke="#C8C8C8" stroke-miterlimit="10"/>
<path d="M580.539 1H579.84V350.996H580.539V1Z" fill="#C8C8C8" stroke="#C8C8C8" stroke-miterlimit="10"/>
<path d="M589.985 1H589.285V350.996H589.985V1Z" fill="#C8C8C8" stroke="#C8C8C8" stroke-miterlimit="10"/>
<path d="M599.492 1H598.793V350.996H599.492V1Z" fill="#C8C8C8" stroke="#C8C8C8" stroke-miterlimit="10"/>
<path d="M609.004 1H608.305V350.996H609.004V1Z" fill="#C8C8C8" stroke="#C8C8C8" stroke-miterlimit="10"/>
</svg>
