<svg width="1202" height="503" viewBox="0 0 1202 503" fill="none" xmlns="http://www.w3.org/2000/svg">
<path d="M758.871 375.199H758.973V143.414H758.871" stroke="#C8C8C8" stroke-width="2" stroke-miterlimit="10"/>
<path d="M746.172 143.004V375.614" stroke="#C8C8C8" stroke-width="2" stroke-miterlimit="10"/>
<path d="M965.712 305.025V261.062L965.508 261.269" stroke="#C8C8C8" stroke-width="2" stroke-miterlimit="10"/>
<path d="M952.914 285.105V305.023" stroke="#C8C8C8" stroke-width="2" stroke-miterlimit="10"/>
<path d="M772.59 147.648L772.692 147.752V370.971" stroke="#C8C8C8" stroke-width="2" stroke-miterlimit="10"/>
<path d="M759.992 143.52V375.098" stroke="#C8C8C8" stroke-width="2" stroke-miterlimit="10"/>
<path d="M745.059 375.509H745.161V143.105H745.059" stroke="#C8C8C8" stroke-width="2" stroke-miterlimit="10"/>
<path d="M732.461 145.789V372.93" stroke="#C8C8C8" stroke-width="2" stroke-miterlimit="10"/>
<path d="M469.54 305.023V273.754L469.438 273.96" stroke="#C8C8C8" stroke-width="2" stroke-miterlimit="10"/>
<path d="M456.84 297.801V305.025" stroke="#C8C8C8" stroke-width="2" stroke-miterlimit="10"/>
<path d="M511.902 193.879V305.024H513.02V254.663" stroke="#C8C8C8" stroke-width="2" stroke-miterlimit="10"/>
<path d="M455.829 305.023V299.656L455.625 299.966" stroke="#C8C8C8" stroke-width="2" stroke-miterlimit="10"/>
<path d="M510.891 305.022V195.734L510.789 196.044" stroke="#C8C8C8" stroke-width="2" stroke-miterlimit="10"/>
<path d="M498.09 219.781V305.023" stroke="#C8C8C8" stroke-width="2" stroke-miterlimit="10"/>
<path d="M497.071 305.024V221.742L496.969 221.949" stroke="#C8C8C8" stroke-width="2" stroke-miterlimit="10"/>
<path d="M484.375 245.785V305.021" stroke="#C8C8C8" stroke-width="2" stroke-miterlimit="10"/>
<path d="M483.36 305.025V247.75L483.156 247.956" stroke="#C8C8C8" stroke-width="2" stroke-miterlimit="10"/>
<path d="M470.555 271.793V305.023" stroke="#C8C8C8" stroke-width="2" stroke-miterlimit="10"/>
<path d="M993.251 305.026V209.051L993.148 209.36" stroke="#C8C8C8" stroke-width="2" stroke-miterlimit="10"/>
<path d="M980.449 233.094V305.023" stroke="#C8C8C8" stroke-width="2" stroke-miterlimit="10"/>
<path d="M994.258 207.086V305.022" stroke="#C8C8C8" stroke-width="2" stroke-miterlimit="10"/>
<path d="M979.43 305.024V235.055L979.328 235.261" stroke="#C8C8C8" stroke-width="2" stroke-miterlimit="10"/>
<path d="M966.734 259.102V305.025" stroke="#C8C8C8" stroke-width="2" stroke-miterlimit="10"/>
<path d="M2.01592 1H1V500.998H2.01592V1Z" fill="#C8C8C8" stroke="#C8C8C8" stroke-width="2" stroke-miterlimit="10"/>
<path d="M15.8362 1H14.8203V500.998H15.8362V1Z" fill="#C8C8C8" stroke="#C8C8C8" stroke-width="2" stroke-miterlimit="10"/>
<path d="M29.5472 1H28.5312V500.998H29.5472V1Z" fill="#C8C8C8" stroke="#C8C8C8" stroke-width="2" stroke-miterlimit="10"/>
<path d="M43.3636 1H42.3477V500.998H43.3636V1Z" fill="#C8C8C8" stroke="#C8C8C8" stroke-width="2" stroke-miterlimit="10"/>
<path d="M57.18 1H56.1641V500.998H57.18V1Z" fill="#C8C8C8" stroke="#C8C8C8" stroke-width="2" stroke-miterlimit="10"/>
<path d="M70.8987 1H69.8828V253.321H70.8987V1Z" fill="#C8C8C8" stroke="#C8C8C8" stroke-width="2" stroke-miterlimit="10"/>
<path d="M70.8987 304.199H69.8828V500.999H70.8987V304.199Z" fill="#C8C8C8" stroke="#C8C8C8" stroke-width="2" stroke-miterlimit="10"/>
<path d="M84.7073 304.199H83.6914V500.999H84.7073V304.199Z" fill="#C8C8C8" stroke="#C8C8C8" stroke-width="2" stroke-miterlimit="10"/>
<path d="M84.7073 1H83.6914V253.321H84.7073V1Z" fill="#C8C8C8" stroke="#C8C8C8" stroke-width="2" stroke-miterlimit="10"/>
<path d="M98.5276 1H97.5117V253.321H98.5276V1Z" fill="#C8C8C8" stroke="#C8C8C8" stroke-width="2" stroke-miterlimit="10"/>
<path d="M98.5276 304.199H97.5117V500.999H98.5276V304.199Z" fill="#C8C8C8" stroke="#C8C8C8" stroke-width="2" stroke-miterlimit="10"/>
<path d="M112.242 304.199H111.227V500.999H112.242V304.199Z" fill="#C8C8C8" stroke="#C8C8C8" stroke-width="2" stroke-miterlimit="10"/>
<path d="M112.242 1H111.227V253.321H112.242V1Z" fill="#C8C8C8" stroke="#C8C8C8" stroke-width="2" stroke-miterlimit="10"/>
<path d="M126.059 1H125.043V253.321H126.059V1Z" fill="#C8C8C8" stroke="#C8C8C8" stroke-width="2" stroke-miterlimit="10"/>
<path d="M126.059 304.199H125.043V500.999H126.059V304.199Z" fill="#C8C8C8" stroke="#C8C8C8" stroke-width="2" stroke-miterlimit="10"/>
<path d="M139.875 304.199H138.859V500.999H139.875V304.199Z" fill="#C8C8C8" stroke="#C8C8C8" stroke-width="2" stroke-miterlimit="10"/>
<path d="M139.875 1H138.859V253.321H139.875V1Z" fill="#C8C8C8" stroke="#C8C8C8" stroke-width="2" stroke-miterlimit="10"/>
<path d="M153.59 1H152.574V253.321H153.59V1Z" fill="#C8C8C8" stroke="#C8C8C8" stroke-width="2" stroke-miterlimit="10"/>
<path d="M153.59 304.199H152.574V500.999H153.59V304.199Z" fill="#C8C8C8" stroke="#C8C8C8" stroke-width="2" stroke-miterlimit="10"/>
<path d="M167.41 304.199H166.395V500.999H167.41V304.199Z" fill="#C8C8C8" stroke="#C8C8C8" stroke-width="2" stroke-miterlimit="10"/>
<path d="M167.41 1H166.395V253.321H167.41V1Z" fill="#C8C8C8" stroke="#C8C8C8" stroke-width="2" stroke-miterlimit="10"/>
<path d="M181.121 1H180.105V253.321H181.121V1Z" fill="#C8C8C8" stroke="#C8C8C8" stroke-width="2" stroke-miterlimit="10"/>
<path d="M181.121 304.199H180.105V500.999H181.121V304.199Z" fill="#C8C8C8" stroke="#C8C8C8" stroke-width="2" stroke-miterlimit="10"/>
<path d="M194.938 304.199H193.922V500.999H194.938V304.199Z" fill="#C8C8C8" stroke="#C8C8C8" stroke-width="2" stroke-miterlimit="10"/>
<path d="M194.938 1H193.922V253.321H194.938V1Z" fill="#C8C8C8" stroke="#C8C8C8" stroke-width="2" stroke-miterlimit="10"/>
<path d="M208.758 1H207.742V253.321H208.758V1Z" fill="#C8C8C8" stroke="#C8C8C8" stroke-width="2" stroke-miterlimit="10"/>
<path d="M208.758 304.199H207.742V500.999H208.758V304.199Z" fill="#C8C8C8" stroke="#C8C8C8" stroke-width="2" stroke-miterlimit="10"/>
<path d="M222.469 304.199H221.453V500.999H222.469V304.199Z" fill="#C8C8C8" stroke="#C8C8C8" stroke-width="2" stroke-miterlimit="10"/>
<path d="M222.469 1H221.453V253.321H222.469V1Z" fill="#C8C8C8" stroke="#C8C8C8" stroke-width="2" stroke-miterlimit="10"/>
<path d="M236.285 1H235.27V253.321H236.285V1Z" fill="#C8C8C8" stroke="#C8C8C8" stroke-width="2" stroke-miterlimit="10"/>
<path d="M236.285 304.199H235.27V500.999H236.285V304.199Z" fill="#C8C8C8" stroke="#C8C8C8" stroke-width="2" stroke-miterlimit="10"/>
<path d="M250.102 1H249.086V500.998H250.102V1Z" fill="#C8C8C8" stroke="#C8C8C8" stroke-width="2" stroke-miterlimit="10"/>
<path d="M263.817 1H262.801V500.998H263.817V1Z" fill="#C8C8C8" stroke="#C8C8C8" stroke-width="2" stroke-miterlimit="10"/>
<path d="M277.633 1H276.617V500.998H277.633V1Z" fill="#C8C8C8" stroke="#C8C8C8" stroke-width="2" stroke-miterlimit="10"/>
<path d="M291.45 1H290.434V500.998H291.45V1Z" fill="#C8C8C8" stroke="#C8C8C8" stroke-width="2" stroke-miterlimit="10"/>
<path d="M305.164 1H304.148V500.998H305.164V1Z" fill="#C8C8C8" stroke="#C8C8C8" stroke-width="2" stroke-miterlimit="10"/>
<path d="M318.981 1H317.965V500.998H318.981V1Z" fill="#C8C8C8" stroke="#C8C8C8" stroke-width="2" stroke-miterlimit="10"/>
<path d="M332.801 1H331.785V500.998H332.801V1Z" fill="#C8C8C8" stroke="#C8C8C8" stroke-width="2" stroke-miterlimit="10"/>
<path d="M346.516 1H345.5V500.998H346.516V1Z" fill="#C8C8C8" stroke="#C8C8C8" stroke-width="2" stroke-miterlimit="10"/>
<path d="M360.332 1H359.316V500.998H360.332V1Z" fill="#C8C8C8" stroke="#C8C8C8" stroke-width="2" stroke-miterlimit="10"/>
<path d="M374.145 1H373.129V500.998H374.145V1Z" fill="#C8C8C8" stroke="#C8C8C8" stroke-width="2" stroke-miterlimit="10"/>
<path d="M387.254 357.653L386.848 355.383V500.996H387.864V360.233H387.66L387.254 357.653Z" fill="#C8C8C8" stroke="#C8C8C8" stroke-width="2" stroke-miterlimit="10"/>
<path d="M387.762 305.643L387.864 305.333V1H386.848V307.191L387.254 306.469L387.762 305.643Z" fill="#C8C8C8" stroke="#C8C8C8" stroke-width="2" stroke-miterlimit="10"/>
<path d="M401.574 281.598L401.676 281.391V1H400.66V283.146L401.067 282.526L401.574 281.598Z" fill="#C8C8C8" stroke="#C8C8C8" stroke-width="2" stroke-miterlimit="10"/>
<path d="M401.676 360.238H400.66V501.001H401.676V360.238Z" fill="#C8C8C8" stroke="#C8C8C8" stroke-width="2" stroke-miterlimit="10"/>
<path d="M415.492 360.238H414.477V501.001H415.492V360.238Z" fill="#C8C8C8" stroke="#C8C8C8" stroke-width="2" stroke-miterlimit="10"/>
<path d="M415.289 257.656L415.492 257.449V1H414.477V259.203L414.781 258.481L415.289 257.656Z" fill="#C8C8C8" stroke="#C8C8C8" stroke-width="2" stroke-miterlimit="10"/>
<path d="M429.207 360.238H428.191V501.001H429.207V360.238Z" fill="#C8C8C8" stroke="#C8C8C8" stroke-width="2" stroke-miterlimit="10"/>
<path d="M429.106 233.61L429.207 233.404V1H428.191V235.158L428.598 234.539L429.106 233.61Z" fill="#C8C8C8" stroke="#C8C8C8" stroke-width="2" stroke-miterlimit="10"/>
<path d="M443.028 360.238H442.012V501.001H443.028V360.238Z" fill="#C8C8C8" stroke="#C8C8C8" stroke-width="2" stroke-miterlimit="10"/>
<path d="M442.926 209.668L443.028 209.462V1H442.012V211.216L442.418 210.494L442.926 209.668Z" fill="#C8C8C8" stroke="#C8C8C8" stroke-width="2" stroke-miterlimit="10"/>
<path d="M456.641 298.007L455.828 299.658V305.025H456.844V297.801L456.641 298.007Z" fill="#C8C8C8" stroke="#C8C8C8" stroke-width="2" stroke-miterlimit="10"/>
<path d="M456.844 360.238H455.828V501.001H456.844V360.238Z" fill="#C8C8C8" stroke="#C8C8C8" stroke-width="2" stroke-miterlimit="10"/>
<path d="M456.641 185.623L456.844 185.416V1H455.828V187.171L456.133 186.552L456.641 185.623Z" fill="#C8C8C8" stroke="#C8C8C8" stroke-width="2" stroke-miterlimit="10"/>
<path d="M470.453 161.681L470.555 161.474V1H469.539V163.229L469.945 162.506L470.453 161.681Z" fill="#C8C8C8" stroke="#C8C8C8" stroke-width="2" stroke-miterlimit="10"/>
<path d="M470.555 360.238H469.539V501.001H470.555V360.238Z" fill="#C8C8C8" stroke="#C8C8C8" stroke-width="2" stroke-miterlimit="10"/>
<path d="M470.453 271.999L469.539 273.754V305.023H470.555V271.793L470.453 271.999Z" fill="#C8C8C8" stroke="#C8C8C8" stroke-width="2" stroke-miterlimit="10"/>
<path d="M484.375 360.238H483.359V501.001H484.375V360.238Z" fill="#C8C8C8" stroke="#C8C8C8" stroke-width="2" stroke-miterlimit="10"/>
<path d="M484.172 137.738L484.375 137.429V1H483.359V139.183L483.664 138.564L484.172 137.738Z" fill="#C8C8C8" stroke="#C8C8C8" stroke-width="2" stroke-miterlimit="10"/>
<path d="M484.172 246.095L483.359 247.746V305.021H484.375V245.785L484.172 246.095Z" fill="#C8C8C8" stroke="#C8C8C8" stroke-width="2" stroke-miterlimit="10"/>
<path d="M497.989 220.091L497.074 221.742V305.023H498.09V219.781L497.989 220.091Z" fill="#C8C8C8" stroke="#C8C8C8" stroke-width="2" stroke-miterlimit="10"/>
<path d="M498.09 360.238H497.074V501.001H498.09V360.238Z" fill="#C8C8C8" stroke="#C8C8C8" stroke-width="2" stroke-miterlimit="10"/>
<path d="M497.989 113.693L498.09 113.487V1H497.074V115.241L497.481 114.622L497.989 113.693Z" fill="#C8C8C8" stroke="#C8C8C8" stroke-width="2" stroke-miterlimit="10"/>
<path d="M511.903 360.238H510.887V501.001H511.903V360.238Z" fill="#C8C8C8" stroke="#C8C8C8" stroke-width="2" stroke-miterlimit="10"/>
<path d="M511.801 89.751L511.903 89.4414V1H510.887V91.1958L511.293 90.5766L511.801 89.751Z" fill="#C8C8C8" stroke="#C8C8C8" stroke-width="2" stroke-miterlimit="10"/>
<path d="M511.801 194.085L511.293 195.014L510.887 195.736V305.024H511.903V193.879L511.801 194.085Z" fill="#C8C8C8" stroke="#C8C8C8" stroke-width="2" stroke-miterlimit="10"/>
<path d="M525.719 1H524.703V87.5838H525.719V1Z" fill="#C8C8C8" stroke="#C8C8C8" stroke-width="2" stroke-miterlimit="10"/>
<path d="M525.719 428.758H524.703V500.997H525.719V428.758Z" fill="#C8C8C8" stroke="#C8C8C8" stroke-width="2" stroke-miterlimit="10"/>
<path d="M539.438 1H538.422V87.5838H539.438V1Z" fill="#C8C8C8" stroke="#C8C8C8" stroke-width="2" stroke-miterlimit="10"/>
<path d="M539.438 428.758H538.422V500.997H539.438V428.758Z" fill="#C8C8C8" stroke="#C8C8C8" stroke-width="2" stroke-miterlimit="10"/>
<path d="M553.254 1H552.238V87.5838H553.254V1Z" fill="#C8C8C8" stroke="#C8C8C8" stroke-width="2" stroke-miterlimit="10"/>
<path d="M553.254 428.758H552.238V500.997H553.254V428.758Z" fill="#C8C8C8" stroke="#C8C8C8" stroke-width="2" stroke-miterlimit="10"/>
<path d="M567.067 428.758H566.051V500.997H567.067V428.758Z" fill="#C8C8C8" stroke="#C8C8C8" stroke-width="2" stroke-miterlimit="10"/>
<path d="M567.067 1H566.051V87.5838H567.067V1Z" fill="#C8C8C8" stroke="#C8C8C8" stroke-width="2" stroke-miterlimit="10"/>
<path d="M580.782 360.238H579.766V501.001H580.782V360.238Z" fill="#C8C8C8" stroke="#C8C8C8" stroke-width="2" stroke-miterlimit="10"/>
<path d="M580.782 1H579.766V305.024H580.782V1Z" fill="#C8C8C8" stroke="#C8C8C8" stroke-width="2" stroke-miterlimit="10"/>
<path d="M594.602 1H593.586V305.024H594.602V1Z" fill="#C8C8C8" stroke="#C8C8C8" stroke-width="2" stroke-miterlimit="10"/>
<path d="M594.602 360.238H593.586V501.001H594.602V360.238Z" fill="#C8C8C8" stroke="#C8C8C8" stroke-width="2" stroke-miterlimit="10"/>
<path d="M608.414 1H607.398V500.998H608.414V1Z" fill="#C8C8C8" stroke="#C8C8C8" stroke-width="2" stroke-miterlimit="10"/>
<path d="M622.129 1H621.113V500.998H622.129V1Z" fill="#C8C8C8" stroke="#C8C8C8" stroke-width="2" stroke-miterlimit="10"/>
<path d="M635.95 1H634.934V500.998H635.95V1Z" fill="#C8C8C8" stroke="#C8C8C8" stroke-width="2" stroke-miterlimit="10"/>
<path d="M649.766 1H648.75V500.998H649.766V1Z" fill="#C8C8C8" stroke="#C8C8C8" stroke-width="2" stroke-miterlimit="10"/>
<path d="M662.871 387.89C662.77 387.684 662.668 387.374 662.465 387.168V500.996H663.481V389.129C663.481 389.026 663.379 388.922 663.379 388.922C663.176 388.51 663.074 388.2 662.871 387.89Z" fill="#C8C8C8" stroke="#C8C8C8" stroke-width="2" stroke-miterlimit="10"/>
<path d="M663.379 130.515C663.379 130.411 663.481 130.308 663.481 130.308V1H662.465V132.269C662.566 132.063 662.668 131.753 662.871 131.547C663.074 131.237 663.176 130.927 663.379 130.515Z" fill="#C8C8C8" stroke="#C8C8C8" stroke-width="2" stroke-miterlimit="10"/>
<path d="M677.192 112.352L677.293 112.248V1H676.277V113.177C676.379 113.074 676.48 112.971 676.684 112.764C676.785 112.661 676.988 112.558 677.192 112.352Z" fill="#C8C8C8" stroke="#C8C8C8" stroke-width="2" stroke-miterlimit="10"/>
<path d="M676.684 406.362C676.582 406.259 676.481 406.156 676.277 405.949V500.892H677.293V406.878L677.192 406.775C676.988 406.775 676.785 406.568 676.684 406.362Z" fill="#C8C8C8" stroke="#C8C8C8" stroke-width="2" stroke-miterlimit="10"/>
<path d="M690.91 102.135C690.91 102.135 691.012 102.135 691.012 102.032V1H689.996V102.651C690.098 102.548 690.199 102.548 690.402 102.444C690.606 102.341 690.809 102.238 690.91 102.135Z" fill="#C8C8C8" stroke="#C8C8C8" stroke-width="2" stroke-miterlimit="10"/>
<path d="M690.402 416.687C690.301 416.584 690.199 416.584 689.996 416.48V501H691.012V416.996C691.012 416.996 690.91 416.996 690.91 416.893C690.809 416.893 690.606 416.79 690.402 416.687Z" fill="#C8C8C8" stroke="#C8C8C8" stroke-width="2" stroke-miterlimit="10"/>
<path d="M704.727 95.8397H704.828V1H703.812V96.1493C703.914 96.1493 704.016 96.0461 704.219 96.0461C704.422 95.9429 704.524 95.8397 704.727 95.8397Z" fill="#C8C8C8" stroke="#C8C8C8" stroke-width="2" stroke-miterlimit="10"/>
<path d="M704.219 422.877C704.117 422.877 704.016 422.773 703.812 422.773V500.998H704.828V423.083H704.727C704.524 422.98 704.422 422.98 704.219 422.877Z" fill="#C8C8C8" stroke="#C8C8C8" stroke-width="2" stroke-miterlimit="10"/>
<path d="M718.539 92.0214H718.641V1H717.625V92.1246C717.727 92.1246 717.828 92.0214 718.031 92.0214C718.133 92.0214 718.336 92.0214 718.539 92.0214Z" fill="#C8C8C8" stroke="#C8C8C8" stroke-width="2" stroke-miterlimit="10"/>
<path d="M718.031 426.693C717.93 426.693 717.828 426.693 717.625 426.59V500.996H718.641V426.796H718.539C718.336 426.693 718.133 426.693 718.031 426.693Z" fill="#C8C8C8" stroke="#C8C8C8" stroke-width="2" stroke-miterlimit="10"/>
<path d="M718.539 156.831C718.336 157.141 718.235 157.347 718.031 157.657C717.93 157.863 717.828 158.07 717.625 158.276V360.34C717.727 360.546 717.828 360.752 718.031 360.959C718.235 361.268 718.336 361.475 718.539 361.784C718.539 361.887 718.641 361.887 718.641 361.991V156.625C718.539 156.728 718.539 156.831 718.539 156.831Z" fill="#C8C8C8" stroke="#C8C8C8" stroke-width="2" stroke-miterlimit="10"/>
<path d="M731.746 428.758C731.645 428.758 731.543 428.758 731.34 428.758V500.997H732.356V428.758H732.254C732.153 428.758 731.949 428.758 731.746 428.758Z" fill="#C8C8C8" stroke="#C8C8C8" stroke-width="2" stroke-miterlimit="10"/>
<path d="M732.254 145.789C732.051 145.892 731.949 145.892 731.746 145.995C731.645 146.099 731.543 146.099 731.34 146.202V372.517C731.441 372.62 731.543 372.62 731.746 372.723C731.949 372.827 732.051 372.826 732.254 372.93H732.356V145.789C732.356 145.789 732.356 145.789 732.254 145.789Z" fill="#C8C8C8" stroke="#C8C8C8" stroke-width="2" stroke-miterlimit="10"/>
<path d="M732.254 89.8542H732.356V1H731.34V89.9574C731.441 89.9574 731.543 89.9574 731.746 89.9574C731.949 89.8542 732.153 89.8542 732.254 89.8542Z" fill="#C8C8C8" stroke="#C8C8C8" stroke-width="2" stroke-miterlimit="10"/>
<path d="M746.075 143.004C745.871 143.004 745.77 143.004 745.567 143.004C745.465 143.004 745.363 143.004 745.16 143.004V375.511C745.262 375.511 745.363 375.511 745.567 375.511C745.77 375.511 745.871 375.511 746.075 375.511H746.176V143.004H746.075Z" fill="#C8C8C8" stroke="#C8C8C8" stroke-width="2" stroke-miterlimit="10"/>
<path d="M745.567 429.586C745.465 429.586 745.363 429.586 745.16 429.586V501H746.176V429.586H746.075C745.871 429.586 745.668 429.586 745.567 429.586Z" fill="#C8C8C8" stroke="#C8C8C8" stroke-width="2" stroke-miterlimit="10"/>
<path d="M746.075 89.0286H746.176V1H745.16V89.0286C745.262 89.0286 745.363 89.0286 745.567 89.0286C745.668 89.0286 745.871 89.0286 746.075 89.0286Z" fill="#C8C8C8" stroke="#C8C8C8" stroke-width="2" stroke-miterlimit="10"/>
<path d="M759.383 429.48C759.281 429.48 759.18 429.48 758.977 429.48V500.997H759.992V429.48H759.891C759.688 429.48 759.485 429.48 759.383 429.48Z" fill="#C8C8C8" stroke="#C8C8C8" stroke-width="2" stroke-miterlimit="10"/>
<path d="M759.891 89.1318H759.992V1H758.977V89.1318C759.078 89.1318 759.18 89.1318 759.383 89.1318C759.485 89.1318 759.688 89.1318 759.891 89.1318Z" fill="#C8C8C8" stroke="#C8C8C8" stroke-width="2" stroke-miterlimit="10"/>
<path d="M759.891 143.515C759.688 143.515 759.586 143.412 759.383 143.412C759.281 143.412 759.18 143.412 758.977 143.309V375.093C759.078 375.093 759.18 375.093 759.383 375.093C759.586 375.093 759.688 374.99 759.891 374.99H759.992V143.515C759.891 143.515 759.891 143.515 759.891 143.515Z" fill="#C8C8C8" stroke="#C8C8C8" stroke-width="2" stroke-miterlimit="10"/>
<path d="M773.606 148.164C773.403 148.061 773.301 147.958 773.098 147.855C772.996 147.752 772.895 147.752 772.691 147.648C772.691 147.648 772.996 370.971 773.199 370.868L773.707 370.248V148.268C773.707 148.268 773.707 148.268 773.606 148.164Z" fill="#C8C8C8" stroke="#C8C8C8" stroke-width="2" stroke-miterlimit="10"/>
<path d="M773.098 428.345C772.996 428.345 772.895 428.345 772.691 428.345V500.997H773.707V428.242H773.606C773.504 428.242 773.301 428.242 773.098 428.345Z" fill="#C8C8C8" stroke="#C8C8C8" stroke-width="2" stroke-miterlimit="10"/>
<path d="M773.606 90.3702H773.707V1H772.691V90.267C772.793 90.267 772.895 90.267 773.098 90.267C773.301 90.3702 773.504 90.3702 773.606 90.3702Z" fill="#C8C8C8" stroke="#C8C8C8" stroke-width="2" stroke-miterlimit="10"/>
<path d="M787.422 168.288C787.219 167.669 787.117 167.05 786.914 166.534C786.813 166.121 786.711 165.811 786.508 165.398V353.117C786.609 352.704 786.711 352.395 786.914 351.982C787.117 351.363 787.219 350.847 787.422 350.228C787.422 350.021 787.524 349.815 787.524 349.608V168.907C787.524 168.701 787.422 168.494 787.422 168.288Z" fill="#C8C8C8" stroke="#C8C8C8" stroke-width="2" stroke-miterlimit="10"/>
<path d="M787.422 92.9502H787.524V1H786.508V92.7438C786.609 92.7438 786.711 92.847 786.914 92.847C787.117 92.847 787.219 92.847 787.422 92.9502Z" fill="#C8C8C8" stroke="#C8C8C8" stroke-width="2" stroke-miterlimit="10"/>
<path d="M786.914 425.767C786.813 425.767 786.711 425.87 786.508 425.87V500.999H787.524V425.664H787.422C787.219 425.664 787.117 425.767 786.914 425.767Z" fill="#C8C8C8" stroke="#C8C8C8" stroke-width="2" stroke-miterlimit="10"/>
<path d="M801.137 97.3877C801.137 97.3877 801.239 97.3877 801.239 97.4909V1H800.223V97.0781C800.324 97.0781 800.426 97.1813 800.629 97.1813C800.832 97.2845 801.035 97.2845 801.137 97.3877Z" fill="#C8C8C8" stroke="#C8C8C8" stroke-width="2" stroke-miterlimit="10"/>
<path d="M800.629 421.435C800.527 421.538 800.426 421.538 800.223 421.538V501.001H801.239V421.125C801.239 421.125 801.137 421.125 801.137 421.228C801.035 421.331 800.832 421.331 800.629 421.435Z" fill="#C8C8C8" stroke="#C8C8C8" stroke-width="2" stroke-miterlimit="10"/>
<path d="M814.953 104.715L815.055 104.818V1H814.039V104.096C814.141 104.199 814.242 104.199 814.445 104.302C814.649 104.405 814.852 104.612 814.953 104.715Z" fill="#C8C8C8" stroke="#C8C8C8" stroke-width="2" stroke-miterlimit="10"/>
<path d="M814.445 414.21C814.344 414.313 814.242 414.416 814.039 414.416V501H815.055V413.797L814.953 413.9C814.852 414.003 814.649 414.106 814.445 414.21Z" fill="#C8C8C8" stroke="#C8C8C8" stroke-width="2" stroke-miterlimit="10"/>
<path d="M828.258 402.34C828.156 402.443 828.055 402.649 827.852 402.752V500.998H828.867V401.617C828.867 401.72 828.766 401.72 828.766 401.824C828.563 401.927 828.461 402.133 828.258 402.34Z" fill="#C8C8C8" stroke="#C8C8C8" stroke-width="2" stroke-miterlimit="10"/>
<path d="M828.766 116.789C828.766 116.892 828.867 116.892 828.867 116.995V1H827.852V115.86C827.953 115.964 828.156 116.17 828.258 116.273C828.461 116.479 828.563 116.686 828.766 116.789Z" fill="#C8C8C8" stroke="#C8C8C8" stroke-width="2" stroke-miterlimit="10"/>
<path d="M842.485 140.731C842.485 140.834 842.586 141.041 842.586 141.144V1H841.57V138.461C841.672 138.77 841.875 139.08 841.977 139.39C842.18 139.802 842.383 140.215 842.485 140.731Z" fill="#C8C8C8" stroke="#C8C8C8" stroke-width="2" stroke-miterlimit="10"/>
<path d="M841.977 379.223C841.875 379.533 841.773 379.842 841.57 380.152V500.998H842.586V377.469C842.586 377.572 842.485 377.778 842.485 377.882C842.383 378.294 842.18 378.81 841.977 379.223Z" fill="#C8C8C8" stroke="#C8C8C8" stroke-width="2" stroke-miterlimit="10"/>
<path d="M856.399 1H855.383V500.998H856.399V1Z" fill="#C8C8C8" stroke="#C8C8C8" stroke-width="2" stroke-miterlimit="10"/>
<path d="M870.219 317.717V1H869.203V500.998H870.219V318.44L870.117 317.82L870.219 317.717Z" fill="#C8C8C8" stroke="#C8C8C8" stroke-width="2" stroke-miterlimit="10"/>
<path d="M884.035 360.238H883.02V501.001H884.035V360.238Z" fill="#C8C8C8" stroke="#C8C8C8" stroke-width="2" stroke-miterlimit="10"/>
<path d="M883.832 293.982L884.035 293.672V1H883.02V295.426L883.324 294.807L883.832 293.982Z" fill="#C8C8C8" stroke="#C8C8C8" stroke-width="2" stroke-miterlimit="10"/>
<path d="M897.649 269.936L897.75 269.73V1H896.734V271.484L897.141 270.865L897.649 269.936Z" fill="#C8C8C8" stroke="#C8C8C8" stroke-width="2" stroke-miterlimit="10"/>
<path d="M897.75 360.238H896.734V501.001H897.75V360.238Z" fill="#C8C8C8" stroke="#C8C8C8" stroke-width="2" stroke-miterlimit="10"/>
<path d="M911.465 245.994L911.567 245.684V1H910.551V247.439L910.957 246.82L911.465 245.994Z" fill="#C8C8C8" stroke="#C8C8C8" stroke-width="2" stroke-miterlimit="10"/>
<path d="M911.567 360.238H910.551V501.001H911.567V360.238Z" fill="#C8C8C8" stroke="#C8C8C8" stroke-width="2" stroke-miterlimit="10"/>
<path d="M925.383 360.238H924.367V501.001H925.383V360.238Z" fill="#C8C8C8" stroke="#C8C8C8" stroke-width="2" stroke-miterlimit="10"/>
<path d="M925.18 221.949L925.383 221.742V1H924.367V223.497L925.18 221.949Z" fill="#C8C8C8" stroke="#C8C8C8" stroke-width="2" stroke-miterlimit="10"/>
<path d="M939.098 360.238H938.082V501.001H939.098V360.238Z" fill="#C8C8C8" stroke="#C8C8C8" stroke-width="2" stroke-miterlimit="10"/>
<path d="M938.996 198.007L939.098 197.697V1H938.082V199.451L938.488 198.832L938.996 198.007Z" fill="#C8C8C8" stroke="#C8C8C8" stroke-width="2" stroke-miterlimit="10"/>
<path d="M952.813 173.961L952.914 173.755V1H951.898V175.509L952.813 173.961Z" fill="#C8C8C8" stroke="#C8C8C8" stroke-width="2" stroke-miterlimit="10"/>
<path d="M952.914 360.238H951.898V501.001H952.914V360.238Z" fill="#C8C8C8" stroke="#C8C8C8" stroke-width="2" stroke-miterlimit="10"/>
<path d="M952.813 285.415L952.305 286.344L951.898 287.066V305.023H952.914V285.105L952.813 285.415Z" fill="#C8C8C8" stroke="#C8C8C8" stroke-width="2" stroke-miterlimit="10"/>
<path d="M966.528 259.411L965.715 261.062V305.025H966.731V259.102L966.528 259.411Z" fill="#C8C8C8" stroke="#C8C8C8" stroke-width="2" stroke-miterlimit="10"/>
<path d="M966.731 360.238H965.715V501.001H966.731V360.238Z" fill="#C8C8C8" stroke="#C8C8C8" stroke-width="2" stroke-miterlimit="10"/>
<path d="M966.528 150.019L966.731 149.71V1H965.715V151.464L966.02 150.845L966.528 150.019Z" fill="#C8C8C8" stroke="#C8C8C8" stroke-width="2" stroke-miterlimit="10"/>
<path d="M980.348 125.974L980.45 125.767V1H979.434V127.522L980.348 125.974Z" fill="#C8C8C8" stroke="#C8C8C8" stroke-width="2" stroke-miterlimit="10"/>
<path d="M980.45 360.238H979.434V501.001H980.45V360.238Z" fill="#C8C8C8" stroke="#C8C8C8" stroke-width="2" stroke-miterlimit="10"/>
<path d="M980.348 233.403L979.84 234.332L979.434 235.055V305.023H980.45V233.094L980.348 233.403Z" fill="#C8C8C8" stroke="#C8C8C8" stroke-width="2" stroke-miterlimit="10"/>
<path d="M994.156 102.032L994.258 101.722V1H993.242V103.476L993.649 102.857L994.156 102.032Z" fill="#C8C8C8" stroke="#C8C8C8" stroke-width="2" stroke-miterlimit="10"/>
<path d="M994.156 207.396L993.649 208.324L993.242 209.047V305.022H994.258V207.086L994.156 207.396Z" fill="#C8C8C8" stroke="#C8C8C8" stroke-width="2" stroke-miterlimit="10"/>
<path d="M994.258 360.238H993.242V501.001H994.258V360.238Z" fill="#C8C8C8" stroke="#C8C8C8" stroke-width="2" stroke-miterlimit="10"/>
<path d="M1008.08 428.758H1007.06V500.997H1008.08V428.758Z" fill="#C8C8C8" stroke="#C8C8C8" stroke-width="2" stroke-miterlimit="10"/>
<path d="M1008.08 1H1007.06V87.5838H1008.08V1Z" fill="#C8C8C8" stroke="#C8C8C8" stroke-width="2" stroke-miterlimit="10"/>
<path d="M1007.88 181.394L1007.06 183.045V201.105L1007.37 196.874L1007.88 190.991L1008.08 189.34V181.188L1007.88 181.394Z" fill="#C8C8C8"/>
<path d="M1021.79 428.758H1020.78V500.997H1021.79V428.758Z" fill="#C8C8C8" stroke="#C8C8C8" stroke-width="2" stroke-miterlimit="10"/>
<path d="M1021.79 1H1020.78V87.5838H1021.79V1Z" fill="#C8C8C8" stroke="#C8C8C8" stroke-width="2" stroke-miterlimit="10"/>
<path d="M1035.61 1H1034.59V87.5838H1035.61V1Z" fill="#C8C8C8" stroke="#C8C8C8" stroke-width="2" stroke-miterlimit="10"/>
<path d="M1035.61 428.758H1034.59V500.997H1035.61V428.758Z" fill="#C8C8C8" stroke="#C8C8C8" stroke-width="2" stroke-miterlimit="10"/>
<path d="M1049.43 1H1048.41V87.5838H1049.43V1Z" fill="#C8C8C8" stroke="#C8C8C8" stroke-width="2" stroke-miterlimit="10"/>
<path d="M1049.43 428.758H1048.41V500.997H1049.43V428.758Z" fill="#C8C8C8" stroke="#C8C8C8" stroke-width="2" stroke-miterlimit="10"/>
<path d="M1063.14 360.238H1062.12V501.001H1063.14V360.238Z" fill="#C8C8C8" stroke="#C8C8C8" stroke-width="2" stroke-miterlimit="10"/>
<path d="M1063.14 1H1062.12V305.024H1063.14V1Z" fill="#C8C8C8" stroke="#C8C8C8" stroke-width="2" stroke-miterlimit="10"/>
<path d="M1076.96 360.238H1075.95V501.001H1076.96V360.238Z" fill="#C8C8C8" stroke="#C8C8C8" stroke-width="2" stroke-miterlimit="10"/>
<path d="M1076.96 1H1075.95V305.024H1076.96V1Z" fill="#C8C8C8" stroke="#C8C8C8" stroke-width="2" stroke-miterlimit="10"/>
<path d="M1090.77 360.238H1089.75V501.001H1090.77V360.238Z" fill="#C8C8C8" stroke="#C8C8C8" stroke-width="2" stroke-miterlimit="10"/>
<path d="M1090.77 1H1089.75V305.024H1090.77V1Z" fill="#C8C8C8" stroke="#C8C8C8" stroke-width="2" stroke-miterlimit="10"/>
<path d="M1104.49 1H1103.47V500.998H1104.49V1Z" fill="#C8C8C8" stroke="#C8C8C8" stroke-width="2" stroke-miterlimit="10"/>
<path d="M1118.3 1H1117.29V500.998H1118.3V1Z" fill="#C8C8C8" stroke="#C8C8C8" stroke-width="2" stroke-miterlimit="10"/>
<path d="M1132.02 1H1131.01V500.998H1132.02V1Z" fill="#C8C8C8" stroke="#C8C8C8" stroke-width="2" stroke-miterlimit="10"/>
<path d="M1145.83 1H1144.82V500.998H1145.83V1Z" fill="#C8C8C8" stroke="#C8C8C8" stroke-width="2" stroke-miterlimit="10"/>
<path d="M1159.65 1H1158.64V500.998H1159.65V1Z" fill="#C8C8C8" stroke="#C8C8C8" stroke-width="2" stroke-miterlimit="10"/>
<path d="M1173.37 1H1172.35V500.998H1173.37V1Z" fill="#C8C8C8" stroke="#C8C8C8" stroke-width="2" stroke-miterlimit="10"/>
<path d="M1187.18 1H1186.17V500.998H1187.18V1Z" fill="#C8C8C8" stroke="#C8C8C8" stroke-width="2" stroke-miterlimit="10"/>
<path d="M1201 1H1199.98V500.998H1201V1Z" fill="#C8C8C8" stroke="#C8C8C8" stroke-width="2" stroke-miterlimit="10"/>
</svg>
