<svg width="1920" height="240" viewBox="0 0 1920 240" fill="none" xmlns="http://www.w3.org/2000/svg">
<path d="M208.601 172.469C208.601 123.807 144.53 105.269 102.674 90.7034C66.2914 78.1241 60.8179 74.1517 60.8179 63.5586C60.8179 51.6414 75.3065 46.3448 98.4883 46.3448C126.5 46.3448 147.749 54.2897 147.749 82.7586H199.264C199.264 36.4138 168.033 0 98.4883 0C39.89 0 9.30299 21.8483 9.30299 61.5724C9.30299 107.255 48.2612 120.497 96.2345 137.048C129.397 148.634 157.087 156.248 157.087 173.131C157.087 185.71 146.14 193.655 112.977 193.655C67.9012 193.655 50.515 182.4 50.515 146.648H-1C-1 205.572 29.587 240 111.367 240C181.234 240 208.601 212.524 208.601 172.469Z" fill="#C9C9C9"/>
<path d="M405.203 3.31034L205.261 3.31034V49.6552L279.636 49.6552L279.636 236.69H331.151L331.151 49.6552L405.203 49.6552V3.31034Z" fill="#C9C9C9"/>
<path d="M567.652 236.69L619.81 236.69L554.129 3.31034L447.879 3.31034L382.52 236.69H434.679L454.963 161.876H547.046L567.652 236.69ZM467.519 115.531L494.565 16.5517L507.444 16.5517L534.489 115.531L467.519 115.531Z" fill="#C9C9C9"/>
<path d="M642.534 236.69H694.049V49.6552L684.39 16.5517L697.269 16.5517L765.848 236.69L867.268 236.69V3.31034L815.753 3.31034V190.345L825.412 223.448H812.534L743.955 3.31034L642.534 3.31034V236.69Z" fill="#C9C9C9"/>
<path d="M983.444 3.31034L899.732 3.31034V236.69L983.444 236.69C1043.97 236.69 1107.08 220.469 1107.08 119.834C1107.08 19.531 1043.97 3.31034 983.444 3.31034ZM983.444 190.345L951.247 190.345V49.6552H983.444C1023.69 49.6552 1055.56 52.9655 1055.56 119.834C1055.56 187.034 1023.69 190.345 983.444 190.345Z" fill="#C9C9C9"/>
<path d="M1295.54 236.69L1347.7 236.69L1282.02 3.31034L1175.77 3.31034L1110.41 236.69L1162.57 236.69L1182.85 161.876H1274.93L1295.54 236.69ZM1195.41 115.531L1222.45 16.5517L1235.33 16.5517L1262.38 115.531H1195.41Z" fill="#C9C9C9"/>
<path d="M1370.42 236.69H1421.94V154.593L1510.8 154.593V236.69H1562.32V162.207C1562.32 144 1552.66 134.069 1534.95 134.069H1501.79V120.828C1529.15 117.517 1559.42 106.924 1559.42 68.5241C1559.42 16.2207 1512.41 3.31034 1458.32 3.31034L1370.42 3.31034V236.69ZM1421.94 108.248V49.6552L1458.32 49.6552C1488.91 49.6552 1507.9 49.6552 1507.9 79.1173C1507.9 108.248 1488.91 108.248 1458.32 108.248L1421.94 108.248Z" fill="#C9C9C9"/>
<path d="M1775.14 3.31034L1575.2 3.31034V49.6552L1649.57 49.6552V236.69L1701.09 236.69V49.6552L1775.14 49.6552V3.31034Z" fill="#C9C9C9"/>
<path d="M1862.39 52.0056H1867.04C1870.36 52.0056 1872.87 51.1977 1874.57 49.5821C1876.28 47.9665 1877.13 45.6585 1877.13 42.658C1877.13 39.3344 1876.3 37.0264 1874.64 35.7339C1873.02 34.3953 1870.45 33.7259 1866.9 33.7259H1862.39V52.0056ZM1889.92 42.3811C1889.92 50.2745 1886.48 55.6522 1879.62 58.5142L1895.57 86.0029H1881.37L1868.45 62.0455H1862.39V86.0029H1849.67V23.4783H1867.3C1875.11 23.4783 1880.83 25.0477 1884.47 28.1867C1888.1 31.3256 1889.92 36.057 1889.92 42.3811ZM1818.78 54.706C1818.78 45.4738 1821.02 36.8187 1825.51 28.7406C1830 20.6625 1836.17 14.2923 1844.02 9.63006C1851.87 4.96783 1860.33 2.63672 1869.39 2.63672C1878.36 2.63672 1886.78 4.94475 1894.63 9.56082C1902.48 14.1769 1908.67 20.524 1913.2 28.6021C1917.73 36.6802 1920 45.3815 1920 54.706C1920 63.7996 1917.82 72.3393 1913.47 80.3251C1909.12 88.3109 1903.02 94.7042 1895.17 99.5049C1887.32 104.306 1878.72 106.706 1869.39 106.706C1860.1 106.706 1851.53 104.329 1843.68 99.5741C1835.83 94.7734 1829.71 88.3802 1825.31 80.3944C1820.96 72.4086 1818.78 63.8458 1818.78 54.706ZM1827.06 54.706C1827.06 62.5533 1828.94 69.8467 1832.71 76.5861C1836.53 83.2794 1841.71 88.5648 1848.26 92.4423C1854.81 96.3198 1861.85 98.2585 1869.39 98.2585C1877.02 98.2585 1884.11 96.2967 1890.66 92.3731C1897.21 88.4032 1902.35 83.0948 1906.07 76.4476C1909.84 69.7543 1911.72 62.5071 1911.72 54.706C1911.72 46.951 1909.82 39.7037 1906 32.9643C1902.23 26.1787 1897.05 20.8471 1890.46 16.9696C1883.91 13.0921 1876.88 11.1534 1869.39 11.1534C1861.85 11.1534 1854.83 13.069 1848.33 16.9004C1841.87 20.7317 1836.71 26.0171 1832.85 32.7566C1828.99 39.496 1827.06 46.8125 1827.06 54.706Z" fill="#C9C9C9"/>
</svg>
