<svg width="341" height="43" viewBox="0 0 341 43" fill="none" xmlns="http://www.w3.org/2000/svg">
<path d="M37.2067 30.6312C37.2067 21.9886 25.8332 18.6962 18.4033 16.1093C11.945 13.8752 10.9734 13.1697 10.9734 11.2883C10.9734 9.17173 13.5453 8.23103 17.6603 8.23103C22.6327 8.23103 26.4048 9.64207 26.4048 14.6983L35.5493 14.6983C35.5493 6.46724 30.0054 0 17.6603 0C7.25845 0 1.8289 3.88034 1.8289 10.9355C1.8289 19.049 8.74444 21.4007 17.2603 24.3403C23.147 26.3981 28.0622 27.7503 28.0622 30.7488C28.0622 32.9829 26.119 34.394 20.2322 34.394C12.2308 34.394 9.14451 32.395 9.14451 26.0453H0C0 36.5105 5.42955 42.625 19.9465 42.625C32.3487 42.625 37.2067 37.7452 37.2067 30.6312Z" fill="#EAAC0F"/>
<path d="M72.1059 0.587931L36.6137 0.587931V8.81897L49.8161 8.81897L49.8161 42.0371H58.9606L58.9606 8.81897L72.1059 8.81897V0.587931Z" fill="#EAAC0F"/>
<path d="M100.942 42.0371H110.201L98.5419 0.587931L79.6813 0.587931L68.0792 42.0371H77.3381L80.9387 28.7498H97.2845L100.942 42.0371ZM83.1677 20.5188L87.9685 2.93966L90.2547 2.93966L95.0555 20.5188H83.1677Z" fill="#EAAC0F"/>
<path d="M114.235 42.0371H123.379V8.81897L121.665 2.93966L123.951 2.93966L136.125 42.0371H154.128V0.587931L144.983 0.587931V33.806L146.698 39.6853H144.412L132.238 0.587931L114.235 0.587931V42.0371Z" fill="#EAAC0F"/>
<path d="M174.75 0.587931L159.89 0.587931V42.0371H174.75C185.495 42.0371 196.697 39.1562 196.697 21.2831C196.697 3.46879 185.495 0.587931 174.75 0.587931ZM174.75 33.806H169.035V8.81897L174.75 8.81897C181.894 8.81897 187.553 9.4069 187.553 21.2831C187.553 33.2181 181.894 33.806 174.75 33.806Z" fill="#EAAC0F"/>
<path d="M230.151 42.0371H239.41L227.75 0.587931L208.89 0.587931L197.288 42.0371L206.547 42.0371L210.147 28.7498H226.493L230.151 42.0371ZM212.376 20.5188L217.177 2.93966H219.463L224.264 20.5188H212.376Z" fill="#EAAC0F"/>
<path d="M243.443 42.0371H252.588V27.4564L268.362 27.4564V42.0371H277.507V28.8086C277.507 25.575 275.792 23.8112 272.649 23.8112H266.762V21.4595C271.62 20.8716 276.992 18.9902 276.992 12.1702C276.992 2.88086 268.648 0.587931 259.046 0.587931L243.443 0.587931V42.0371ZM252.588 19.2253V8.81897H259.046C264.476 8.81897 267.848 8.81897 267.848 14.0516C267.848 19.2253 264.476 19.2253 259.046 19.2253L252.588 19.2253Z" fill="#EAAC0F"/>
<path d="M315.286 0.587931L279.794 0.587931V8.81897L292.996 8.81897V42.0371H302.141V8.81897L315.286 8.81897V0.587931Z" fill="#EAAC0F"/>
<path d="M330.774 9.23588H331.598C332.188 9.23588 332.634 9.09241 332.936 8.80547C333.239 8.51853 333.39 8.10861 333.39 7.57572C333.39 6.98544 333.243 6.57553 332.948 6.34597C332.662 6.10822 332.204 5.98935 331.574 5.98935H330.774V9.23588ZM335.66 7.52653C335.66 8.92845 335.051 9.88355 333.832 10.3918L336.664 15.274H334.143L331.849 11.019H330.774V15.274H328.516V4.16932H331.646C333.032 4.16932 334.047 4.44806 334.693 5.00555C335.338 5.56303 335.66 6.40336 335.66 7.52653ZM323.033 9.71549C323.033 8.07582 323.431 6.53863 324.227 5.10393C325.024 3.66922 326.119 2.53785 327.513 1.70982C328.906 0.881789 330.408 0.467773 332.017 0.467773C333.609 0.467773 335.103 0.87769 336.496 1.69752C337.89 2.51736 338.989 3.64463 339.794 5.07933C340.598 6.51404 341 8.05942 341 9.71549C341 11.3306 340.614 12.8472 339.841 14.2656C339.069 15.6839 337.986 16.8193 336.592 17.672C335.198 18.5246 333.673 18.9509 332.017 18.9509C330.368 18.9509 328.847 18.5287 327.453 17.6843C326.059 16.8316 324.972 15.6962 324.192 14.2779C323.419 12.8595 323.033 11.3388 323.033 9.71549ZM324.502 9.71549C324.502 11.1092 324.837 12.4045 325.506 13.6015C326.183 14.7903 327.102 15.729 328.265 16.4176C329.428 17.1063 330.678 17.4506 332.017 17.4506C333.37 17.4506 334.629 17.1022 335.792 16.4053C336.954 15.7003 337.866 14.7575 338.527 13.5769C339.196 12.3881 339.531 11.101 339.531 9.71549C339.531 8.33817 339.192 7.05103 338.515 5.85407C337.846 4.64892 336.927 3.70201 335.756 3.01335C334.593 2.32469 333.347 1.98036 332.017 1.98036C330.678 1.98036 329.432 2.3206 328.277 3.00106C327.13 3.68152 326.214 4.62023 325.53 5.81718C324.845 7.01414 324.502 8.31357 324.502 9.71549Z" fill="#EAAC0F"/>
</svg>
