<svg width="700" height="700" viewBox="0 0 700 700" fill="none" xmlns="http://www.w3.org/2000/svg">
<g clip-path="url(#clip0)">
<path d="M350.784 619.574L350.466 619.415L108.842 479.9V462.232H109.956V479.263L350.784 618.301L592.727 478.308V461.356H593.92V478.945L593.602 479.104L350.784 619.574Z" fill="#3D3D3D"/>
<path d="M350.783 602.304L350.464 602.145L108.283 462.312L208.642 404.214L209.199 405.169L110.512 462.232L350.783 600.951L592.168 461.357L487.194 400.712L487.751 399.757L594.476 461.357L593.601 461.834L350.783 602.304Z" fill="#3D3D3D"/>
<path d="M350.225 619.972V601.349L350.543 601.19L593.918 460.401V479.025L593.6 479.184L350.225 619.972ZM351.339 601.985V617.982L592.724 478.308V462.311L351.339 601.985Z" fill="#3D3D3D"/>
<path d="M362.146 319.382L361.588 320.347L402.335 343.839L402.893 342.875L362.146 319.382Z" fill="#3D3D3D"/>
<path d="M351.021 457.695L350.782 457.536L226.389 385.749L297.698 344.523L298.255 345.478L228.697 385.749L351.021 456.342L473.982 385.192L417.635 352.721L418.192 351.686L476.29 385.192L351.021 457.695Z" fill="#3D3D3D"/>
<path d="M351.657 557.656H350.463V456.661L350.781 456.502L474.856 384.715L475.413 385.749L351.657 457.377V557.656Z" fill="#3D3D3D"/>
<path d="M351.021 558.531L350.782 558.372L227.025 486.903V453.557H228.14V486.267L351.021 557.258L474.539 485.789V453.557H475.733V486.426L351.021 558.531Z" fill="#3D3D3D"/>
<path d="M315.685 504.413L183.81 429.204L226.468 386.068L173.305 373.255L276.687 314.838L277.244 315.873L176.409 372.857L228.697 385.431L185.641 428.965L315.366 502.901L351.021 456.104L390.257 502.901L512.263 431.034L474.141 384.954L524.28 368.48L425.752 315.236L426.31 314.281L527.145 368.718L476.131 385.511L514.014 431.353L390.018 504.413L351.1 457.935L315.685 504.413Z" fill="#3D3D3D"/>
<path d="M424.638 314.599L403.149 303.059L356.671 311.814L356.512 310.699L403.308 301.865L425.115 313.644L424.638 314.599Z" fill="#3D3D3D"/>
<path d="M352.214 365.933H351.1V457.696H352.214V365.933Z" fill="#3D3D3D"/>
<path d="M359.854 444.564C359.695 442.973 359.616 441.381 359.695 439.789H363.118C363.118 441.222 363.197 442.654 363.277 444.166L359.854 444.564Z" fill="#3D3D3D"/>
<path d="M364.313 431.193L360.97 430.317C361.845 427.134 363.198 424.189 364.87 421.483L367.735 423.314C366.223 425.781 365.029 428.407 364.313 431.193ZM323.405 426.019C321.654 426.019 319.903 425.94 318.232 425.781L318.551 422.359C321.416 422.597 324.519 422.597 327.464 422.438L327.703 425.86C326.27 425.94 324.838 426.019 323.405 426.019ZM337.094 424.507L336.298 421.165C339.482 420.448 342.347 419.493 344.655 418.379L346.167 421.483C343.62 422.677 340.516 423.711 337.094 424.507ZM418.431 424.269L418.113 420.846C419.068 420.767 420.023 420.608 420.978 420.448C422.968 419.971 424.878 419.493 426.629 418.857L427.743 422.12C425.912 422.756 423.843 423.314 421.615 423.791C420.58 424.03 419.546 424.189 418.431 424.269ZM308.841 424.189C305.578 423.314 302.633 422.12 300.007 420.687L299.768 420.528L301.28 418.538L301.758 417.742C304.145 419.016 306.851 420.13 309.796 420.926L308.841 424.189ZM301.28 418.538L300.803 419.175L301.28 418.538ZM408.801 423.711C405.936 423.154 402.992 422.199 399.729 420.926L401.002 417.742C404.106 418.936 406.891 419.812 409.518 420.369L408.801 423.711ZM436.497 417.663L434.349 414.957C436.497 413.286 437.612 411.455 437.612 409.704C437.612 409.386 437.612 409.147 437.532 408.829L440.875 408.113C440.954 408.67 441.034 409.227 441.034 409.704C441.034 411.614 440.238 414.639 436.497 417.663ZM391.213 417.026C388.905 415.832 386.358 414.479 383.015 412.649L384.687 409.625C387.95 411.455 390.497 412.808 392.725 413.922L391.213 417.026ZM373.465 416.708L371.157 414.161C373.385 412.171 376.012 410.341 378.957 408.59L380.707 411.535C378.001 413.126 375.534 414.877 373.465 416.708ZM353.728 414.479L350.544 413.286C350.703 412.888 350.783 412.41 350.783 412.012C350.783 411.296 350.544 410.58 350.146 409.863C349.669 408.988 348.873 408.192 347.838 407.396L349.828 404.611C351.26 405.645 352.375 406.839 353.171 408.192C353.887 409.466 354.205 410.739 354.205 412.012C354.126 412.808 353.966 413.604 353.728 414.479ZM292.924 413.604C291.252 411.057 290.377 408.351 290.377 405.805C290.377 405.088 290.457 404.372 290.616 403.656L293.958 404.292C293.879 404.77 293.799 405.327 293.799 405.805C293.799 407.715 294.436 409.784 295.789 411.774L292.924 413.604ZM324.042 413.445C320.142 413.445 316.72 412.808 314.332 411.694L315.765 408.59C317.118 409.227 319.744 410.023 324.042 410.023V413.445ZM333.592 411.455L332.399 408.272C335.104 407.237 337.572 405.884 339.8 403.974L342.028 406.6C339.482 408.749 336.696 410.341 333.592 411.455ZM374.977 408.113C372.828 406.919 369.963 405.327 366.939 403.735L368.531 400.711C371.555 402.303 374.5 403.974 376.649 405.168L374.977 408.113ZM388.746 407.715L387.472 404.531C390.178 403.417 393.203 402.382 396.306 401.507L397.261 404.77C394.317 405.645 391.372 406.68 388.746 407.715ZM314.492 404.452L312.422 401.746C313.935 400.552 316.083 399.756 318.63 399.278C319.744 399.119 320.859 398.96 321.973 398.801L322.371 402.223C321.336 402.303 320.301 402.462 319.187 402.621C316.72 403.099 315.287 403.815 314.492 404.452ZM339.88 403.815C337.094 402.939 334.149 402.382 331.205 402.064L331.523 398.642C334.707 398.96 337.89 399.517 340.914 400.552L339.88 403.815ZM432.2 403.576C429.892 402.542 427.106 401.746 423.843 401.427L424.241 398.005C427.823 398.403 431.006 399.278 433.632 400.472L432.2 403.576ZM406.095 402.621L405.379 399.278C407.13 398.881 408.961 398.562 410.871 398.244C412.224 398.085 413.497 397.925 414.77 397.846L415.009 401.268C413.815 401.348 412.622 401.427 411.428 401.586C409.677 401.905 407.846 402.223 406.095 402.621ZM358.821 399.517C356.195 398.244 353.648 397.05 351.101 396.015C350.863 396.334 350.624 396.652 350.465 396.891C349.828 397.766 349.191 398.642 348.555 399.438L345.849 397.368C346.485 396.573 347.122 395.697 347.759 394.822C348.952 393.23 350.146 391.638 351.499 389.967L354.126 392.116C353.887 392.434 353.568 392.752 353.33 393.15C355.638 394.185 358.025 395.22 360.413 396.413L358.821 399.517ZM298.336 397.846L296.266 395.06C298.574 393.309 301.599 391.877 305.1 390.842L306.055 394.105C302.952 395.14 300.405 396.334 298.336 397.846ZM394.555 394.742C394.396 394.742 394.158 394.742 393.998 394.742L394.078 391.32C397.261 391.399 399.888 390.683 401.798 389.33L403.787 392.116C401.4 393.867 398.216 394.742 394.555 394.742ZM341.869 393.946C338.765 393.389 335.741 392.991 332.876 392.673L333.274 389.251C336.219 389.569 339.323 389.967 342.506 390.524L341.869 393.946ZM384.13 393.867C380.946 392.514 378.161 390.763 375.853 388.853L378.081 386.226C380.071 387.977 382.617 389.489 385.483 390.683L384.13 393.867ZM314.81 392.514L314.412 389.091C316.959 388.853 319.585 388.693 322.45 388.693C322.928 388.693 323.405 388.693 323.883 388.693L323.803 392.116C323.326 392.116 322.848 392.116 322.371 392.116C319.744 392.116 317.198 392.195 314.81 392.514ZM360.174 385.908L358.025 383.282C358.901 382.565 359.776 381.929 360.652 381.292C361.845 380.496 362.96 379.78 364.074 379.064C362.88 376.437 362.084 373.652 361.686 370.389L365.109 369.911C365.506 373.015 366.302 375.721 367.496 378.188L366.382 378.745L367.576 380.974C365.984 381.849 364.313 382.884 362.562 384.077C361.766 384.635 360.97 385.271 360.174 385.908ZM411.428 386.704C410.791 384.873 408.961 383.282 406.334 382.167C406.175 382.088 405.936 382.008 405.698 381.929L406.891 378.666C407.13 378.745 407.369 378.825 407.608 378.904C412.224 380.814 413.975 383.52 414.691 385.51L411.428 386.704ZM375.693 377.631L374.818 374.288C378.002 373.413 381.265 373.095 384.448 373.254L384.289 376.676C381.424 376.596 378.559 376.915 375.693 377.631Z" fill="#3D3D3D"/>
<path d="M364.869 360.68L361.447 360.441C361.527 359.009 361.686 357.417 361.925 355.825L365.347 356.223C365.108 357.735 364.949 359.247 364.869 360.68Z" fill="#3D3D3D"/>
<path d="M395.272 405.567L388.507 405.487L382.14 402.622L378.002 398.324L411.508 322.797L415.169 323.115L416.522 326.06L420.262 326.299L422.57 328.686L426.152 328.129L428.539 330.756L395.272 405.567ZM388.826 404.373L394.476 404.452L427.107 330.915L425.674 329.243L422.172 329.8L419.785 327.254L415.805 327.015L414.452 324.07L412.304 323.831L379.434 397.926L382.936 401.587L388.826 404.373Z" fill="#3D3D3D"/>
<path d="M427.266 330.835L425.675 314.042L412.225 323.832L411.588 322.876L426.55 311.894L428.381 330.756L427.266 330.835Z" fill="#3D3D3D"/>
<path d="M424.878 321.444C423.287 321.444 421.377 320.489 420.422 319.215C419.864 318.419 419.705 317.544 420.024 316.748L421.058 317.226C420.899 317.623 420.979 318.021 421.297 318.499C422.093 319.534 423.844 320.329 425.117 320.25C425.674 320.17 425.993 320.011 426.152 319.613L427.186 320.091C426.868 320.887 426.152 321.364 425.197 321.444C425.197 321.444 425.037 321.444 424.878 321.444Z" fill="#3D3D3D"/>
<path d="M390.338 401.349L383.652 398.404L415.646 326.379L416.681 326.777L385.165 397.847L390.815 400.315L390.338 401.349Z" fill="#3D3D3D"/>
<path d="M398.853 396.573L392.646 396.175L386.279 393.31L382.379 389.331L383.175 388.535L386.995 392.435L393.043 395.061L398.933 395.459L398.853 396.573Z" fill="#3D3D3D"/>
<path d="M397.023 401.588L389.701 401.428L421.854 329.005L422.889 329.482L391.452 400.314L397.103 400.394L397.023 401.588Z" fill="#3D3D3D"/>
<path d="M380.828 393.789L380.031 394.567L383.93 398.547L384.727 397.768L380.828 393.789Z" fill="#3D3D3D"/>
<path d="M311.706 367.285L311.468 366.967L254.404 274.726L257.747 268.519L258.702 268.996L255.678 274.647L312.343 366.091L382.459 363.863L385.483 358.212L386.438 358.769L383.095 364.977H382.777L311.706 367.285Z" fill="#3D3D3D"/>
<path d="M314.89 361.316L314.731 360.998L257.27 268.121L329.375 265.812L329.534 266.131L386.995 359.008L314.89 361.316ZM259.259 269.314L315.447 360.202L384.926 357.973L328.738 267.086L259.259 269.314Z" fill="#3D3D3D"/>
<path d="M310.99 367.285L314.81 360.202H315.129L386.916 357.894L383.095 364.977H382.777L310.99 367.285ZM315.527 361.316L312.98 366.091L382.459 363.863L385.005 359.087L315.527 361.316Z" fill="#3D3D3D"/>
<path d="M275.799 276.436L272.936 276.528L272.971 277.642L275.835 277.55L275.799 276.436Z" fill="#3D3D3D"/>
<path d="M281.064 277.352V276.238L286.317 276.079V277.193L281.064 277.352ZM291.57 277.034V275.92L296.823 275.761V276.875L291.57 277.034ZM301.996 276.716V275.602L307.248 275.442V276.557L301.996 276.716ZM312.501 276.397V275.283L317.754 275.124V276.238L312.501 276.397Z" fill="#3D3D3D"/>
<path d="M325.78 274.844L322.916 274.937L322.952 276.05L325.816 275.958L325.78 274.844Z" fill="#3D3D3D"/>
<path d="M281.84 286.22L278.977 286.31L279.011 287.423L281.875 287.334L281.84 286.22Z" fill="#3D3D3D"/>
<path d="M287.115 287.222V286.108L292.368 285.949V287.063L287.115 287.222ZM297.541 286.824V285.71L302.794 285.551V286.665L297.541 286.824ZM308.046 286.506V285.392L313.299 285.232V286.347L308.046 286.506ZM318.552 286.187V285.073L323.805 284.914V286.028L318.552 286.187Z" fill="#3D3D3D"/>
<path d="M331.821 284.628L328.957 284.718L328.992 285.831L331.856 285.742L331.821 284.628Z" fill="#3D3D3D"/>
<path d="M287.979 296.015L285.115 296.107L285.151 297.221L288.015 297.129L287.979 296.015Z" fill="#3D3D3D"/>
<path d="M293.244 297.011V295.897L298.497 295.738V296.852L293.244 297.011ZM303.75 296.693V295.579L309.002 295.419V296.534L303.75 296.693ZM314.175 296.374V295.26L319.428 295.101V296.215L314.175 296.374ZM324.681 295.976V294.862L329.933 294.703V295.817L324.681 295.976Z" fill="#3D3D3D"/>
<path d="M337.959 294.423L335.096 294.516L335.132 295.629L337.995 295.537L337.959 294.423Z" fill="#3D3D3D"/>
<path d="M293.866 305.804L291.002 305.896L291.038 307.01L293.902 306.918L293.866 305.804Z" fill="#3D3D3D"/>
<path d="M299.131 306.8V305.686L304.384 305.527V306.641L299.131 306.8ZM309.557 306.482V305.368L314.809 305.208V306.323L309.557 306.482ZM320.062 306.084V304.97L325.315 304.811V305.925L320.062 306.084ZM330.567 305.766V304.651L335.82 304.492V305.606L330.567 305.766Z" fill="#3D3D3D"/>
<path d="M343.846 304.212L340.982 304.305L341.018 305.418L343.882 305.326L343.846 304.212Z" fill="#3D3D3D"/>
<path d="M299.916 315.593L297.053 315.686L297.089 316.799L299.952 316.707L299.916 315.593Z" fill="#3D3D3D"/>
<path d="M305.182 316.589V315.475L310.434 315.316V316.43L305.182 316.589ZM315.607 316.271V315.157L320.86 314.998V316.112L315.607 316.271ZM326.113 315.953V314.838L331.366 314.679V315.793L326.113 315.953ZM336.618 315.555V314.44L341.871 314.281V315.395L336.618 315.555Z" fill="#3D3D3D"/>
<path d="M349.897 314.001L347.033 314.094L347.069 315.207L349.933 315.115L349.897 314.001Z" fill="#3D3D3D"/>
<path d="M306.034 325.455L303.17 325.545L303.205 326.659L306.068 326.569L306.034 325.455Z" fill="#3D3D3D"/>
<path d="M311.309 326.458V325.344L316.561 325.185V326.299L311.309 326.458ZM321.814 326.06V324.946L327.067 324.787V325.901L321.814 326.06ZM332.319 325.742V324.628L337.572 324.469V325.583L332.319 325.742ZM342.745 325.424V324.31L347.998 324.15V325.265L342.745 325.424Z" fill="#3D3D3D"/>
<path d="M356.092 323.864L353.229 323.953L353.263 325.067L356.127 324.977L356.092 323.864Z" fill="#3D3D3D"/>
<path d="M311.774 335.172L308.91 335.265L308.946 336.378L311.81 336.286L311.774 335.172Z" fill="#3D3D3D"/>
<path d="M317.039 336.167V335.053L322.292 334.894V336.008L317.039 336.167ZM327.544 335.849V334.735L332.797 334.576V335.69L327.544 335.849ZM337.97 335.531V334.416L343.223 334.257V335.372L337.97 335.531ZM348.476 335.133V334.019L353.728 333.859V334.974L348.476 335.133Z" fill="#3D3D3D"/>
<path d="M361.743 333.573L358.879 333.662L358.914 334.776L361.777 334.686L361.743 333.573Z" fill="#3D3D3D"/>
<path d="M318.209 345.033L315.346 345.123L315.381 346.237L318.244 346.147L318.209 345.033Z" fill="#3D3D3D"/>
<path d="M323.484 346.037V344.923L328.737 344.764V345.878L323.484 346.037ZM333.99 345.719V344.604L339.242 344.445V345.56L333.99 345.719ZM344.416 345.4V344.286L349.668 344.127V345.241L344.416 345.4ZM354.921 345.082V343.968L360.174 343.809V344.923L354.921 345.082Z" fill="#3D3D3D"/>
<path d="M368.19 343.522L365.326 343.611L365.361 344.725L368.225 344.635L368.19 343.522Z" fill="#3D3D3D"/>
<path d="M261.964 290.882C261.566 290.882 261.168 290.882 260.85 290.803C259.099 290.405 257.587 289.211 256.711 287.381C255.836 285.63 255.597 283.481 255.995 281.332C256.95 276.875 260.611 273.851 264.272 274.647C266.501 275.124 268.251 276.875 268.968 279.422L267.853 279.74C267.217 277.671 265.784 276.159 264.033 275.761C261.009 275.124 257.905 277.751 257.109 281.571C256.711 283.481 256.95 285.311 257.666 286.903C258.462 288.415 259.656 289.37 261.089 289.689C262.203 289.927 263.317 289.689 264.431 289.131L264.988 290.166C263.954 290.644 262.919 290.882 261.964 290.882Z" fill="#3D3D3D"/>
<path d="M268.412 280.457C268.173 280.457 267.854 280.457 267.616 280.377C266.104 280.059 265.069 278.865 265.308 277.751C265.546 276.636 266.979 275.92 268.491 276.318C270.003 276.636 271.038 277.83 270.799 278.944C270.64 279.82 269.605 280.457 268.412 280.457ZM266.422 277.989C266.342 278.387 266.899 279.024 267.854 279.263C268.809 279.502 269.605 279.104 269.685 278.706C269.765 278.308 269.207 277.671 268.252 277.432C267.297 277.194 266.502 277.512 266.422 277.989Z" fill="#3D3D3D"/>
<path d="M272.47 308.152C272.072 308.152 271.674 308.152 271.356 308.072C267.774 307.276 265.546 303.058 266.501 298.602C267.456 294.145 271.117 291.12 274.778 291.916C277.006 292.394 278.757 294.145 279.473 296.691L278.359 297.01C277.722 294.941 276.29 293.428 274.539 293.03C271.515 292.394 268.411 295.02 267.615 298.84C266.819 302.66 268.57 306.321 271.594 306.958C272.709 307.197 273.823 306.958 274.937 306.401L275.494 307.436C274.459 307.913 273.504 308.152 272.47 308.152Z" fill="#3D3D3D"/>
<path d="M278.917 297.726C278.678 297.726 278.439 297.726 278.121 297.647C277.405 297.488 276.768 297.169 276.37 296.692C275.892 296.214 275.654 295.577 275.813 295.02C276.052 293.906 277.484 293.269 278.996 293.588C280.508 293.906 281.543 295.1 281.304 296.214C281.145 296.771 280.747 297.249 280.11 297.567C279.792 297.647 279.394 297.726 278.917 297.726ZM278.28 294.622C277.564 294.622 277.086 294.941 277.007 295.259C276.927 295.498 277.166 295.816 277.245 295.896C277.484 296.214 277.962 296.373 278.439 296.453C278.917 296.532 279.394 296.532 279.713 296.373C279.872 296.294 280.19 296.135 280.19 295.896C280.27 295.498 279.713 294.861 278.758 294.622C278.598 294.622 278.439 294.622 278.28 294.622Z" fill="#3D3D3D"/>
<path d="M284.011 327.173C283.613 327.173 283.215 327.173 282.897 327.094C279.315 326.298 277.087 322.08 278.042 317.623C278.997 313.166 282.658 310.142 286.319 310.938C288.547 311.415 290.298 313.166 291.014 315.713L289.9 316.031C289.264 313.962 287.831 312.45 286.08 312.052C283.056 311.415 279.952 314.042 279.156 317.862C278.36 321.682 280.111 325.343 283.135 325.98C284.25 326.218 285.364 325.98 286.478 325.422L287.035 326.457C286 326.855 285.045 327.173 284.011 327.173Z" fill="#3D3D3D"/>
<path d="M290.538 316.668C290.299 316.668 289.981 316.669 289.742 316.589C289.026 316.43 288.389 316.111 287.991 315.634C287.513 315.156 287.275 314.52 287.434 313.963C287.673 312.848 289.105 312.132 290.617 312.53C292.129 312.848 293.164 314.042 292.925 315.156C292.687 316.111 291.732 316.668 290.538 316.668ZM288.548 314.201C288.468 314.44 288.707 314.758 288.787 314.838C289.026 315.156 289.503 315.316 289.981 315.395C290.936 315.554 291.732 315.236 291.811 314.838C291.891 314.44 291.334 313.803 290.379 313.565C289.424 313.405 288.628 313.803 288.548 314.201Z" fill="#3D3D3D"/>
<path d="M296.745 347.707C296.347 347.707 295.949 347.707 295.631 347.627C293.88 347.229 292.368 346.035 291.493 344.205C290.617 342.454 290.378 340.305 290.776 338.156C291.731 333.699 295.392 330.675 299.053 331.471C301.282 331.948 303.033 333.699 303.749 336.246L302.635 336.564C301.998 334.495 300.565 332.983 298.815 332.585C295.79 331.948 292.686 334.575 291.891 338.395C291.493 340.305 291.731 342.136 292.448 343.727C293.244 345.239 294.437 346.194 295.87 346.513C296.984 346.752 298.098 346.513 299.213 345.956L299.77 346.99C298.735 347.388 297.78 347.707 296.745 347.707Z" fill="#3D3D3D"/>
<path d="M303.272 337.201C303.033 337.201 302.715 337.201 302.476 337.122C301.76 336.963 301.123 336.644 300.725 336.167C300.248 335.689 300.009 335.052 300.168 334.495C300.327 333.938 300.725 333.461 301.362 333.142C301.919 332.904 302.635 332.824 303.352 332.983C304.864 333.302 305.898 334.495 305.66 335.61C305.421 336.644 304.466 337.201 303.272 337.201ZM302.556 334.097C302.317 334.097 301.999 334.177 301.76 334.257C301.601 334.336 301.282 334.495 301.282 334.734C301.203 334.973 301.442 335.291 301.521 335.371C301.76 335.689 302.237 335.848 302.715 335.928C303.67 336.167 304.466 335.769 304.546 335.371C304.625 334.973 304.068 334.336 303.113 334.097C302.874 334.177 302.715 334.097 302.556 334.097Z" fill="#3D3D3D"/>
<path d="M385.216 359.811L314.42 362.021L314.43 362.339L385.226 360.13L385.216 359.811Z" fill="#3D3D3D"/>
<path d="M384.342 361.324L313.545 363.533L313.555 363.852L384.351 361.643L384.342 361.324Z" fill="#3D3D3D"/>
<path d="M383.943 362.757L313.146 364.966L313.156 365.284L383.953 363.075L383.943 362.757Z" fill="#3D3D3D"/>
<path d="M675.178 505.05L673.666 504.174L633.873 481.094L632.281 480.219L592.488 457.139L590.976 456.263L551.182 433.183L549.67 432.308L509.877 409.148L508.365 408.273L481.146 392.515C481.146 392.674 481.146 392.833 481.146 392.992C482.022 393.788 482.738 394.663 483.295 395.698L506.853 409.307L508.365 410.183L548.158 433.342L549.67 434.218L589.463 457.298L590.976 458.173L630.769 481.253L632.36 482.129L672.154 505.209L673.666 506.084L686.798 513.725C687.036 513.088 687.355 512.69 687.673 512.292L675.178 505.05Z" fill="#3D3D3D"/>
<path d="M633.552 529.006L632.04 528.13L592.246 505.05L590.734 504.175L569.724 491.998C569.166 492.396 568.45 492.714 567.654 492.714L589.063 505.13L590.655 506.005L630.448 529.085L631.96 529.961L642.465 536.089C642.704 535.611 642.943 535.134 643.182 534.656L633.552 529.006Z" fill="#3D3D3D"/>
<path d="M270.956 318.659L261.804 313.327L260.292 312.451L246.762 304.572C246.285 304.97 245.807 305.209 245.25 305.527L258.7 313.327L260.212 314.202L269.842 319.853C270.16 319.375 270.558 318.977 270.956 318.659Z" fill="#3D3D3D"/>
<path d="M218.351 385.91L216.839 385.034L176.807 408.114L178.319 408.99L218.351 385.91Z" fill="#3D3D3D"/>
<path d="M507.567 553.995L506.055 553.04L466.023 576.2L467.536 577.075L507.567 553.995Z" fill="#3D3D3D"/>
<path d="M548.872 577.952L547.36 577.076L507.328 600.236L508.84 601.111L548.872 577.952Z" fill="#3D3D3D"/>
<path d="M508.84 601.111L507.328 600.235L467.535 577.155L465.943 576.28L445.092 564.183C444.614 564.581 444.057 564.899 443.5 565.058L464.431 577.155L466.023 578.031L505.816 601.19L507.328 602.066L522.052 610.581C522.29 610.024 522.609 609.626 522.848 609.228L508.84 601.111Z" fill="#3D3D3D"/>
<path d="M195.032 419.097L178.319 409.388L176.807 408.512L137.014 385.432L135.502 384.557L123.644 377.633C123.325 378.031 122.927 378.429 122.529 378.827L133.91 385.432L135.422 386.308L175.215 409.388L176.728 410.263L193.679 420.132C193.998 419.654 194.475 419.336 195.032 419.097Z" fill="#3D3D3D"/>
<path d="M550.464 576.996L548.952 576.121L509.159 553.04L507.567 552.165L486.795 540.147C486.477 540.466 486.079 540.705 485.602 540.864L505.896 552.643L507.488 553.518L547.281 576.598L548.793 577.474L560.89 584.477C561.209 584.557 561.527 584.159 561.925 583.761L550.464 576.996Z" fill="#3D3D3D"/>
<path d="M187.152 366.093L178.636 361.158L177.124 360.283L164.868 353.12C164.708 353.598 164.549 354.155 164.311 354.632L175.532 360.999L177.044 361.875L185.64 366.889C186.117 366.57 186.595 366.252 187.152 366.093Z" fill="#3D3D3D"/>
<path d="M219.942 385.194L218.509 384.398C217.156 384 215.803 383.523 214.53 383.045C213.814 383.045 213.177 382.886 212.62 382.488C211.983 382.011 211.267 381.613 210.551 381.374L216.918 385.035L218.43 385.91L224.399 389.333C224.638 388.935 224.956 388.616 225.354 388.298L219.942 385.194Z" fill="#3D3D3D"/>
<path d="M273.424 304.413L260.213 312.053L261.725 313.008L274.379 305.686C273.981 305.289 273.663 304.891 273.424 304.413Z" fill="#3D3D3D"/>
<path d="M467.217 625.067L465.705 624.191L425.911 601.111L424.32 600.236L403.787 588.298C403.309 588.616 402.752 588.855 402.115 589.014L422.887 601.032L424.479 601.907L464.272 624.987L465.784 625.863L478.836 633.423C479.075 633.105 479.393 632.707 479.712 632.309L467.217 625.067Z" fill="#3D3D3D"/>
<path d="M147.996 439.63L136.775 433.104L135.262 432.229L95.4693 409.149L93.9571 408.273L75.8115 397.688C75.3339 398.086 74.8564 398.405 74.3789 398.643L92.445 409.228L93.9571 410.104L133.75 433.264L135.262 434.139L146.723 440.824C147.041 440.347 147.439 439.869 147.996 439.63Z" fill="#3D3D3D"/>
<path d="M260.214 313.883L258.702 313.008L218.67 336.088L220.182 336.963L260.214 313.883Z" fill="#3D3D3D"/>
<path d="M218.669 337.839L217.077 336.964L177.045 360.123L178.637 360.999L218.669 337.839Z" fill="#3D3D3D"/>
<path d="M177.044 361.874L175.532 360.999L135.5 384.079L137.012 385.034L177.044 361.874Z" fill="#3D3D3D"/>
<path d="M424.399 601.987L422.887 601.111L382.775 624.191L384.367 625.067L424.399 601.987Z" fill="#3D3D3D"/>
<path d="M465.704 625.942L464.192 625.066L424.16 648.226L425.672 649.101L465.704 625.942Z" fill="#3D3D3D"/>
<path d="M425.672 649.101L424.16 648.225L384.367 625.145L382.775 624.27L361.844 612.173C361.525 612.65 361.127 613.048 360.57 613.367L381.183 625.305L382.775 626.18L422.568 649.26L424.08 650.136L436.973 657.617C437.212 657.06 437.53 656.582 437.849 656.264L425.672 649.101Z" fill="#3D3D3D"/>
<path d="M109.715 465.893L95.1502 457.457L93.6381 456.582L53.8449 433.422L52.3328 432.546L37.4501 423.951C37.0522 424.349 36.4951 424.667 36.0176 424.906L50.8206 433.502L52.3328 434.377L92.1259 457.537L93.6381 458.412L109.237 467.485C109.317 466.928 109.476 466.371 109.715 465.893Z" fill="#3D3D3D"/>
<path d="M135.423 385.91L133.911 385.034L93.8789 408.114L95.4706 408.99L135.423 385.91Z" fill="#3D3D3D"/>
<path d="M523.166 399.519L508.363 408.034L509.875 408.91L523.723 400.872C523.564 400.553 523.325 400.076 523.166 399.519Z" fill="#3D3D3D"/>
<path d="M93.878 409.865L92.3659 408.989L52.334 432.149L53.8461 433.024L93.878 409.865Z" fill="#3D3D3D"/>
<path d="M176.807 409.944L175.216 408.989L135.184 432.149L136.775 433.024L176.807 409.944Z" fill="#3D3D3D"/>
<path d="M506.134 411.138L508.362 409.865L506.85 408.989L504.701 410.183C505.258 410.422 505.736 410.74 506.134 411.138Z" fill="#3D3D3D"/>
<path d="M564.471 424.429C564.392 424.27 564.312 424.031 564.153 423.792L549.668 432.149L551.18 433.024L564.949 425.065C564.789 424.827 564.63 424.667 564.471 424.429Z" fill="#3D3D3D"/>
<path d="M17.1567 454.194L52.2542 433.9L50.7421 433.024L15.6445 453.319C16.122 453.637 16.6792 453.876 17.1567 454.194Z" fill="#3D3D3D"/>
<path d="M135.183 433.9L133.671 433.024L93.6387 456.104L95.1508 457.06L135.183 433.9Z" fill="#3D3D3D"/>
<path d="M546.803 434.696C547.041 434.855 547.28 434.935 547.519 435.094L549.668 433.821L548.156 432.945L545.848 434.298C546.166 434.457 546.484 434.537 546.803 434.696Z" fill="#3D3D3D"/>
<path d="M605.776 447.589L591.053 456.105L592.565 456.98L606.97 448.624C606.572 448.385 606.174 447.987 605.776 447.589Z" fill="#3D3D3D"/>
<path d="M54.3242 480.617L93.5602 457.935L92.0481 457.06L53.0508 479.582C53.4487 479.901 53.9262 480.219 54.3242 480.617Z" fill="#3D3D3D"/>
<path d="M588.906 459.208L591.055 457.935L589.463 457.06L587.553 458.174C588.03 458.413 588.508 458.81 588.906 459.208Z" fill="#3D3D3D"/>
<path d="M646.287 472.102L632.359 480.14L633.951 481.015L647.481 473.216C647.003 472.897 646.605 472.499 646.287 472.102Z" fill="#3D3D3D"/>
<path d="M123.006 488.177C122.688 487.938 122.449 487.7 122.21 487.461L93.3203 504.174L94.912 505.049L123.643 488.496C123.404 488.416 123.245 488.257 123.006 488.177Z" fill="#3D3D3D"/>
<path d="M632.358 481.971L630.766 481.016L590.734 504.175L592.326 505.051L632.358 481.971Z" fill="#3D3D3D"/>
<path d="M685.363 497.41L673.664 504.175L675.176 505.05L685.443 499.081C685.363 498.524 685.363 497.967 685.363 497.41Z" fill="#3D3D3D"/>
<path d="M164.074 511.179L134.627 528.131L136.219 529.086L165.188 512.373C164.711 512.054 164.392 511.656 164.074 511.179Z" fill="#3D3D3D"/>
<path d="M590.735 505.926L589.223 505.051L549.191 528.131L550.704 529.086L590.735 505.926Z" fill="#3D3D3D"/>
<path d="M673.665 505.926L672.073 505.051L632.041 528.131L633.633 529.086L673.665 505.926Z" fill="#3D3D3D"/>
<path d="M130.487 532.348L134.626 529.96L133.114 529.085L129.055 531.393C129.532 531.711 130.01 532.03 130.487 532.348Z" fill="#3D3D3D"/>
<path d="M205.459 535.213L176.012 552.165L177.524 553.04L206.812 536.168C206.255 535.929 205.857 535.611 205.459 535.213Z" fill="#3D3D3D"/>
<path d="M549.19 529.96L547.598 529.085L507.566 552.165L509.158 553.04L549.19 529.96Z" fill="#3D3D3D"/>
<path d="M632.042 529.96L630.53 529.085L590.498 552.165L592.01 553.04L632.042 529.96Z" fill="#3D3D3D"/>
<path d="M168.849 558.054L176.012 553.916L174.5 553.04L167.496 557.099C167.894 557.417 168.372 557.736 168.849 558.054Z" fill="#3D3D3D"/>
<path d="M246.843 559.089L217.316 576.2L218.829 577.075L248.196 560.123C247.639 559.805 247.241 559.487 246.843 559.089Z" fill="#3D3D3D"/>
<path d="M590.497 553.995L588.905 553.04L548.873 576.2L550.465 577.075L590.497 553.995Z" fill="#3D3D3D"/>
<path d="M208.005 583.364L217.316 577.952L215.804 577.076L206.572 582.409C206.97 582.727 207.448 583.045 208.005 583.364Z" fill="#3D3D3D"/>
<path d="M288.625 582.886L258.621 600.156L260.133 601.111L289.66 584C289.262 583.682 288.864 583.363 288.625 582.886Z" fill="#3D3D3D"/>
<path d="M466.024 577.952L464.432 577.076L424.4 600.156L425.992 601.111L466.024 577.952Z" fill="#3D3D3D"/>
<path d="M248.196 607.956L258.622 601.987L257.11 601.111L246.764 607.08C247.162 607.399 247.719 607.717 248.196 607.956Z" fill="#3D3D3D"/>
<path d="M329.613 607.08L299.928 624.191L301.44 625.067L331.285 607.876C330.648 607.717 330.091 607.478 329.613 607.08Z" fill="#3D3D3D"/>
<path d="M507.329 601.987L505.737 601.111L465.705 624.191L467.297 625.067L507.329 601.987Z" fill="#3D3D3D"/>
<path d="M592.085 553.12L590.573 552.245L550.78 529.165L549.188 528.29L528.018 516.033C527.779 516.352 527.461 516.67 527.143 516.909L547.596 528.767L549.188 529.642L588.981 552.722L590.493 553.598L601.317 559.885C601.476 559.726 601.795 559.328 602.113 558.93L592.085 553.12Z" fill="#3D3D3D"/>
<path d="M230.049 342.774L220.18 337.044L218.668 336.168L205.059 328.289C204.661 328.687 204.263 329.005 203.785 329.324L217.156 337.044L218.668 337.919L228.696 343.729C229.094 343.331 229.492 343.013 230.049 342.774Z" fill="#3D3D3D"/>
<path d="M289.183 632.15L299.927 625.942L298.415 625.066L287.75 631.274C288.148 631.592 288.705 631.831 289.183 632.15Z" fill="#3D3D3D"/>
<path d="M382.856 626.021L381.264 625.066L341.232 648.226L342.824 649.101L382.856 626.021Z" fill="#3D3D3D"/>
<path d="M330.648 656.105L341.313 649.977L339.721 649.102L329.057 655.23C329.534 655.548 330.091 655.867 330.648 656.105Z" fill="#3D3D3D"/>
<path d="M424.161 649.977L422.569 649.102L382.537 672.182L384.129 673.137L424.161 649.977Z" fill="#3D3D3D"/>
<path d="M372.19 679.981L382.616 674.012L381.104 673.137L370.678 679.185C371.155 679.424 371.633 679.742 372.19 679.981Z" fill="#3D3D3D"/>
<path d="M403.629 684.437L384.13 673.136L382.618 672.261L342.825 649.181L341.233 648.305L301.44 625.225L299.928 624.35L260.135 601.27L258.622 600.394L218.829 577.314L217.317 576.439L177.524 553.359L176.012 552.483L136.219 529.403L134.707 528.528L94.9135 505.448L93.4013 504.572L59.7363 484.994C63.8748 488.098 68.0929 491.122 72.311 494.067L91.8892 505.448L93.4013 506.323L133.194 529.403L134.707 530.279L174.5 553.438L176.012 554.314L215.805 577.394L217.317 578.269L257.11 601.349L258.622 602.225L298.416 625.305L299.928 626.18L339.721 649.26L341.313 650.136L381.106 673.216L382.618 674.091L402.515 685.631C402.833 685.154 403.151 684.756 403.629 684.437Z" fill="#3D3D3D"/>
</g>
<defs>
<clipPath id="clip0">
<rect width="700" height="700" fill="white"/>
</clipPath>
</defs>
</svg>
