<svg width="700" height="700" viewBox="0 0 700 700" fill="none" xmlns="http://www.w3.org/2000/svg">
<path d="M675.968 505.113L674.443 504.233L634.306 481.016L632.7 480.135L592.564 456.919L591.038 456.038L550.902 432.822L549.377 431.941L513.414 411.046C512.852 411.366 512.371 411.606 511.809 411.927L547.932 432.902L549.457 433.782L589.594 456.999L591.119 457.88L631.255 481.096L632.861 481.977L672.998 505.193L674.523 506.074L687.768 513.76C688.009 513.279 688.33 512.879 688.731 512.479L675.968 505.113Z" fill="#3D3D3D"/>
<path d="M634.065 529.291L632.54 528.41L592.403 505.194L590.878 504.313L575.786 495.587C575.144 495.987 574.422 496.227 573.699 496.307L589.353 505.354L590.958 506.235L631.095 529.451L632.62 530.332L643.216 536.496C643.377 536.016 643.617 535.536 643.938 535.055L634.065 529.291Z" fill="#3D3D3D"/>
<path d="M506.912 554.349L505.387 553.389L465.01 576.685L466.535 577.566L506.912 554.349Z" fill="#3D3D3D"/>
<path d="M548.575 578.446L547.049 577.565L506.672 600.862L508.197 601.743L548.575 578.446Z" fill="#3D3D3D"/>
<path d="M508.195 601.743L506.67 600.863L466.533 577.646L464.928 576.765L449.676 567.959C449.194 568.359 448.632 568.679 448.07 568.84L463.322 577.646L464.928 578.527L505.064 601.823L506.59 602.704L521.44 611.27C521.681 610.71 522.002 610.309 522.243 609.909L508.195 601.743Z" fill="#3D3D3D"/>
<path d="M131.553 385.668L152.665 397.916C152.665 397.356 152.745 396.796 152.826 396.235L133.159 384.867L131.633 383.986L119.673 377.021C119.352 377.422 118.95 377.822 118.549 378.222L130.028 384.867L131.553 385.668Z" fill="#3D3D3D"/>
<path d="M550.18 577.565L548.655 576.685L508.518 553.468L506.912 552.588L491.821 543.861C491.259 544.182 490.697 544.422 489.975 544.422L505.307 553.308L506.912 554.189L547.049 577.405L548.574 578.286L560.776 585.331C561.097 584.851 561.418 584.45 561.819 584.13L550.18 577.565Z" fill="#3D3D3D"/>
<path d="M466.215 625.84L464.69 624.959L424.553 601.743L422.947 600.862L408.659 592.616C408.338 593.016 408.017 593.337 407.615 593.657L421.503 601.663L423.108 602.543L463.245 625.76L464.77 626.641L477.935 634.246C478.175 633.926 478.497 633.525 478.818 633.125L466.215 625.84Z" fill="#3D3D3D"/>
<path d="M131.394 433.782L149.616 444.27C149.937 443.79 150.418 443.389 150.98 443.149L132.919 432.742L131.394 431.861L91.2568 408.644L89.7316 407.764L71.4293 397.116C70.9477 397.516 70.466 397.837 69.9844 398.077L88.2064 408.725L89.7316 409.605L129.868 432.902L131.394 433.782Z" fill="#3D3D3D"/>
<path d="M152.987 371.098L131.635 383.426L133.16 384.307L153.309 372.699C153.068 372.218 152.987 371.658 152.987 371.098Z" fill="#3D3D3D"/>
<path d="M423.026 602.624L421.501 601.743L381.043 624.96L382.648 625.84L423.026 602.624Z" fill="#3D3D3D"/>
<path d="M464.688 626.721L463.163 625.841L422.785 649.138L424.31 650.018L464.688 626.721Z" fill="#3D3D3D"/>
<path d="M108.596 467.487L90.9361 457.239L89.4109 456.359L49.2742 433.062L47.749 432.181L32.7379 423.535C32.3365 423.935 31.7746 424.256 31.293 424.496L46.2238 433.142L47.749 434.023L87.8857 457.319L89.4109 458.2L107.392 468.607C107.713 468.127 108.115 467.727 108.596 467.487Z" fill="#3D3D3D"/>
<path d="M424.311 650.018L422.785 649.137L382.649 625.92L381.043 625.04L366.273 616.474C365.631 616.874 364.908 617.114 364.105 617.114L379.518 626.001L381.123 626.881L421.26 650.098L422.785 650.978L435.79 658.504C436.03 657.943 436.352 657.463 436.673 657.143L424.311 650.018Z" fill="#3D3D3D"/>
<path d="M131.553 385.267L130.028 384.387L89.6504 407.603L91.2559 408.484L131.553 385.267Z" fill="#3D3D3D"/>
<path d="M89.6507 409.365L88.1256 408.484L47.748 431.781L49.2732 432.662L89.6507 409.365Z" fill="#3D3D3D"/>
<path d="M153.147 421.053C153.147 420.413 153.147 419.772 153.227 419.132L131.312 431.781L132.918 432.662L153.147 421.053Z" fill="#3D3D3D"/>
<path d="M564.308 424.015C564.228 423.855 564.147 423.615 563.987 423.375L549.377 431.781L550.902 432.662L564.789 424.656C564.629 424.416 564.468 424.256 564.308 424.015Z" fill="#3D3D3D"/>
<path d="M12.2674 453.957L47.6679 433.543L46.1428 432.662L10.7422 453.077C11.2238 453.397 11.7857 453.637 12.2674 453.957Z" fill="#3D3D3D"/>
<path d="M131.313 433.543L129.788 432.662L89.4102 455.879L90.9353 456.839L131.313 433.543Z" fill="#3D3D3D"/>
<path d="M540.064 438.907L549.376 433.543L547.851 432.662L538.619 437.946C539.181 438.186 539.663 438.506 540.064 438.907Z" fill="#3D3D3D"/>
<path d="M605.97 447.312L591.119 455.879L592.644 456.759L607.174 448.353C606.772 448.113 606.371 447.713 605.97 447.312Z" fill="#3D3D3D"/>
<path d="M49.7551 480.536L89.3298 457.719L87.8047 456.839L48.4707 479.495C48.8721 479.815 49.3537 480.136 49.7551 480.536Z" fill="#3D3D3D"/>
<path d="M582.529 462.683L591.118 457.719L589.513 456.839L581.084 461.642C581.646 461.882 582.128 462.203 582.529 462.683Z" fill="#3D3D3D"/>
<path d="M646.829 471.97L632.781 480.056L634.387 480.936L648.033 473.091C647.552 472.77 647.15 472.37 646.829 471.97Z" fill="#3D3D3D"/>
<path d="M111.165 491.504L89.0898 504.233L90.6953 505.114L112.048 492.865C111.647 492.465 111.406 491.984 111.165 491.504Z" fill="#3D3D3D"/>
<path d="M632.78 481.897L631.174 480.937L590.797 504.233L592.402 505.114L632.78 481.897Z" fill="#3D3D3D"/>
<path d="M686.243 497.429L674.443 504.234L675.969 505.114L686.324 499.11C686.243 498.549 686.243 497.989 686.243 497.429Z" fill="#3D3D3D"/>
<path d="M154.029 514.961L130.75 528.331L132.355 529.291L155.073 516.162C154.671 515.842 154.27 515.441 154.029 514.961Z" fill="#3D3D3D"/>
<path d="M590.797 505.994L589.272 505.113L548.895 528.33L550.42 529.291L590.797 505.994Z" fill="#3D3D3D"/>
<path d="M674.442 505.994L672.837 505.113L632.459 528.33L634.064 529.291L674.442 505.994Z" fill="#3D3D3D"/>
<path d="M126.576 532.573L130.75 530.172L129.225 529.291L125.131 531.613C125.612 531.933 126.094 532.253 126.576 532.573Z" fill="#3D3D3D"/>
<path d="M196.333 539.779C196.012 539.619 195.691 539.459 195.45 539.299L172.492 552.508L174.017 553.389L197.136 540.099C196.815 540.019 196.574 539.939 196.333 539.779Z" fill="#3D3D3D"/>
<path d="M548.895 530.172L547.29 529.291L506.912 552.508L508.518 553.388L548.895 530.172Z" fill="#3D3D3D"/>
<path d="M632.459 530.172L630.934 529.291L590.557 552.508L592.082 553.388L632.459 530.172Z" fill="#3D3D3D"/>
<path d="M165.269 558.432L172.494 554.269L170.968 553.389L163.904 557.472C164.306 557.792 164.787 558.112 165.269 558.432Z" fill="#3D3D3D"/>
<path d="M237.835 563.075L214.154 576.685L215.679 577.566L239.36 563.956C238.798 563.796 238.236 563.475 237.835 563.075Z" fill="#3D3D3D"/>
<path d="M590.557 554.349L588.952 553.389L548.574 576.685L550.18 577.566L590.557 554.349Z" fill="#3D3D3D"/>
<path d="M204.763 583.89L214.155 578.446L212.63 577.565L203.318 582.929C203.72 583.249 204.201 583.57 204.763 583.89Z" fill="#3D3D3D"/>
<path d="M279.176 587.333L255.816 600.783L257.342 601.743L280.541 588.374C280.3 588.134 280.139 587.893 279.979 587.653C279.658 587.573 279.417 587.493 279.176 587.333Z" fill="#3D3D3D"/>
<path d="M465.01 578.446L463.405 577.565L423.027 600.782L424.633 601.743L465.01 578.446Z" fill="#3D3D3D"/>
<path d="M245.3 608.628L255.816 602.624L254.291 601.743L243.855 607.748C244.257 608.068 244.819 608.388 245.3 608.628Z" fill="#3D3D3D"/>
<path d="M321.56 611.11L297.479 624.96L299.004 625.841L322.604 612.311C322.122 611.991 321.801 611.591 321.56 611.11Z" fill="#3D3D3D"/>
<path d="M506.671 602.624L505.065 601.743L464.688 624.96L466.293 625.84L506.671 602.624Z" fill="#3D3D3D"/>
<path d="M592.083 553.388L590.557 552.507L550.421 529.291L548.815 528.41L534.607 520.164C534.286 520.324 533.965 520.404 533.644 520.484C533.483 520.644 533.403 520.724 533.242 520.805L547.29 528.89L548.895 529.771L589.032 552.988L590.557 553.868L601.474 560.193C601.715 559.712 601.956 559.312 602.277 558.832L592.083 553.388Z" fill="#3D3D3D"/>
<path d="M286.642 632.966L297.479 626.721L295.954 625.841L285.197 632.085C285.599 632.405 286.161 632.646 286.642 632.966Z" fill="#3D3D3D"/>
<path d="M381.124 626.802L379.518 625.841L339.141 649.138L340.746 650.018L381.124 626.802Z" fill="#3D3D3D"/>
<path d="M328.465 657.063L339.221 650.898L337.616 650.018L326.859 656.182C327.341 656.502 327.903 656.823 328.465 657.063Z" fill="#3D3D3D"/>
<path d="M422.786 650.898L421.18 650.018L380.803 673.234L382.408 674.195L422.786 650.898Z" fill="#3D3D3D"/>
<path d="M370.367 681.08L380.883 675.076L379.358 674.195L368.842 680.28C369.323 680.52 369.805 680.84 370.367 681.08Z" fill="#3D3D3D"/>
<path d="M402.074 685.564L382.407 674.195L380.882 673.315L340.745 650.098L339.14 649.217L299.003 626.001L297.478 625.12L257.341 601.903L255.816 601.023L215.679 577.806L214.154 576.926L174.017 553.709L172.492 552.828L132.356 529.612L130.83 528.731L90.6937 505.514L89.1685 504.634L55.2129 484.939C59.3871 488.062 63.6416 491.104 67.8961 494.066L87.6433 505.514L89.1685 506.395L129.305 529.612L130.83 530.492L170.967 553.789L172.492 554.67L212.629 577.886L214.154 578.767L254.291 601.983L255.816 602.864L295.953 626.081L297.478 626.961L337.615 650.178L339.22 651.059L379.357 674.275L380.882 675.156L400.95 686.764C401.271 686.284 401.592 685.884 402.074 685.564Z" fill="#3D3D3D"/>
<path d="M348.614 627.603L348.454 627.523L104.984 487.342V469.809H105.627V487.022L348.614 626.962L592.806 486.061V468.849H593.448V486.381L593.287 486.461L348.614 627.603Z" fill="#3D3D3D"/>
<path d="M411.556 376.941L411.297 377.438L413.291 378.474L413.55 377.976L411.556 376.941Z" fill="#3D3D3D"/>
<path d="M348.132 609.91L347.972 609.83L104.182 469.489L152.346 441.709L152.667 442.19L105.305 469.489L348.132 609.27L592.003 468.529L503.14 417.372L503.462 416.892L593.127 468.529L592.725 468.769L348.132 609.91Z" fill="#3D3D3D"/>
<path d="M347.811 627.602V609.429L347.971 609.349L592.885 468.048V486.221L592.725 486.301L347.811 627.602ZM348.453 609.75V626.481L592.323 485.741V469.089L348.453 609.75Z" fill="#3D3D3D"/>
<path d="M327.583 556.672L327.422 556.592L152.186 455.719V443.07H152.828V455.399L327.583 556.031L378.316 526.73L378.637 527.211L327.583 556.672Z" fill="#3D3D3D"/>
<path d="M484.759 465.968L484.438 465.487L503.141 454.759V442.431H503.783V455.08L484.759 465.968Z" fill="#3D3D3D"/>
<path d="M152.664 442.719L152.344 443.273L327.344 544.155L327.665 543.6L152.664 442.719Z" fill="#3D3D3D"/>
<path d="M484.759 466.046L484.438 465.566L503.141 454.758V442.99L485.16 453.317L484.839 452.837L503.783 441.949V455.079L484.759 466.046Z" fill="#3D3D3D"/>
<path d="M327.262 556.912V543.702L327.422 543.622L378.396 514.241L378.717 514.722L327.904 544.023V555.791L378.075 526.89L378.396 527.371L327.262 556.912Z" fill="#3D3D3D"/>
<path d="M378.312 514.341L378.17 514.883L434.77 529.715L434.913 529.173L378.312 514.341Z" fill="#3D3D3D"/>
<path d="M435.149 541.701L377.914 527.371V514.241L378.315 514.321L435.149 529.212V541.701ZM378.556 526.89L434.587 540.9V529.692L378.556 515.042V526.89Z" fill="#3D3D3D"/>
<path d="M484.704 500.352L478.736 503.812L479.059 504.366L485.027 500.906L484.704 500.352Z" fill="#3D3D3D"/>
<path d="M327.582 536.497L327.422 536.417L152.346 435.705L152.667 435.224L327.582 535.857L378.155 506.716H378.235L434.747 521.526L442.293 517.203L442.614 517.684L434.908 522.167H434.828L378.315 507.356L327.582 536.497ZM478.657 496.869L478.336 496.388L484.677 492.706L484.999 493.186L478.657 496.869ZM484.758 445.872L484.437 445.392L503.301 434.424L503.622 434.904L484.758 445.872Z" fill="#3D3D3D"/>
<path d="M435.149 529.852L434.748 529.772L377.914 514.882V506.556L378.315 506.636L435.149 521.526V529.852ZM378.556 514.401L434.587 529.052V522.007L378.556 507.356V514.401Z" fill="#3D3D3D"/>
<path d="M434.506 530.012V521.606L441.57 517.523L441.891 518.004L435.148 521.927V528.892L442.533 524.649L442.854 525.129L434.506 530.012Z" fill="#3D3D3D"/>
<path d="M474.533 506.252L446.855 522.168L447.176 522.723L474.853 506.807L474.533 506.252Z" fill="#3D3D3D"/>
<path d="M478.577 504.555L478.256 504.074L484.517 500.472V493.507L478.737 496.789L478.416 496.309L485.159 492.546V500.792L478.577 504.555Z" fill="#3D3D3D"/>
<path d="M327.904 544.343L327.422 544.103L152.186 443.311V326.347L152.667 326.587L327.904 427.379V544.343V544.343ZM152.828 442.99L327.262 543.382V427.699L152.828 327.307V442.99Z" fill="#3D3D3D"/>
<path d="M327.904 544.423L327.422 544.183L152.186 443.39V408.726L181.646 425.618L181.325 426.098L152.828 409.686V442.91L327.262 543.302V510.078L294.51 491.265L294.831 490.704L327.904 509.678V544.423ZM250.36 465.887L224.432 450.916L224.753 450.436L250.681 465.406L250.36 465.887Z" fill="#3D3D3D"/>
<path d="M327.262 544.423V427.539H327.904V543.303L335.129 539.14L377.914 514.402V424.737H378.556V514.722L378.396 514.802L335.45 539.62L327.262 544.423Z" fill="#3D3D3D"/>
<path d="M327.663 544.183H327.182V509.598H327.503L331.276 507.516L331.597 507.997L327.824 510.158V543.382L335.129 539.219L377.914 514.481V481.338L375.265 482.859L374.944 482.378L378.557 480.217V514.802L378.396 514.882L335.45 539.699L327.663 544.183Z" fill="#3D3D3D"/>
<path d="M331.355 524.489V442.991L357.926 427.62L361.94 427.059L371.332 425.778L371.894 425.538V425.778L373.981 425.538V499.671L331.355 524.489ZM331.998 443.311V523.368L333.041 522.728L373.419 499.271V426.098L371.332 426.339L358.086 428.18L331.998 443.311Z" fill="#3D3D3D"/>
<path d="M332.881 525.37V443.871L361.94 427.059L371.332 425.778L371.894 425.538V425.778L373.66 425.538L375.506 425.218V500.552L332.881 525.37ZM333.523 444.191V524.249L375.024 500.152V425.938L373.82 426.098L371.412 426.419L362.181 427.7L333.523 444.191Z" fill="#3D3D3D"/>
<path d="M336.494 519.125V445.953L346.207 440.189L348.776 438.828L349.82 438.187L359.693 432.583L367.801 427.86L371.975 425.538V498.47L353.673 509.038L352.469 509.678L350.141 511.039L336.494 519.125ZM337.136 446.273V518.004L352.308 509.038H352.469L353.432 508.478L371.413 498.07V426.419L368.202 428.26L360.095 432.983L350.221 438.587L349.177 439.228L346.609 440.589L337.136 446.273Z" fill="#3D3D3D"/>
<path d="M336.494 519.125L336.574 514.241L348.696 507.196L349.017 507.677L337.217 514.562L337.136 518.004L371.012 498.31L367.961 496.549L356.081 503.514L355.76 503.033L367.961 495.908L372.296 498.31L336.494 519.125Z" fill="#3D3D3D"/>
<path d="M336.574 515.282V510.479L336.494 479.977V446.273L368.282 427.859V446.353H367.64V428.82L367.399 428.98L364.269 430.822L337.136 446.593V479.977L337.217 514.161L341.15 511.92L349.177 507.196L349.498 507.677L336.574 515.282Z" fill="#3D3D3D"/>
<path d="M356.161 503.754L355.84 503.273L367.72 496.308V453.878H368.362V496.869H368.041L356.161 503.754Z" fill="#3D3D3D"/>
<path d="M364.429 448.194H363.787V430.101L368.282 427.619V446.433H367.64V428.58L364.429 430.421V448.194Z" fill="#3D3D3D"/>
<path d="M368.282 496.709L363.787 494.467V456.6H364.429V494.147L367.64 495.748V454.358H368.282V496.709Z" fill="#3D3D3D"/>
<path d="M356.081 503.514L355.76 503.034L367.319 496.229L364.108 494.628L356.001 499.351L355.68 498.871L364.108 493.987L368.604 496.229L356.081 503.514Z" fill="#3D3D3D"/>
<path d="M336.574 514.962V510.078L344.923 505.195L348.535 503.033L348.856 503.514L345.244 505.675L337.216 510.398V513.841L341.07 511.599L349.017 506.956L349.338 507.436L336.574 514.962Z" fill="#3D3D3D"/>
<path d="M333.523 525.369L331.436 524.168V442.59L333.523 443.791V525.369ZM331.997 523.768L332.88 524.328V444.271L331.997 443.711V523.768Z" fill="#3D3D3D"/>
<path d="M333.202 444.352L331.115 443.151L358.007 427.62L363.546 426.819L333.202 444.352ZM332.239 443.151L333.202 443.711L360.576 427.94L358.167 428.26L332.239 443.151Z" fill="#3D3D3D"/>
<path d="M352.147 510.079V463.726L336.494 472.772V467.969L352.147 458.922V436.907L356.322 434.505V456.521L371.975 447.394V452.278L356.322 461.324V507.677L352.147 510.079ZM352.79 462.605V508.958L355.76 507.197V460.844L371.413 451.797V448.355L355.76 457.481V435.466L352.79 437.227V459.243L337.136 468.289V471.652L352.79 462.605Z" fill="#3D3D3D"/>
<path d="M352.789 459.562L348.695 457.401V438.828L352.789 436.506V459.562ZM349.257 457.081L352.147 458.602V437.547L349.257 439.228V457.081Z" fill="#3D3D3D"/>
<path d="M336.494 468.689V463.806L348.936 456.921L353.111 459.082L336.494 468.689ZM337.136 464.126V467.569L351.826 459.082L348.936 457.561L337.136 464.126Z" fill="#3D3D3D"/>
<path d="M355.68 457.561V452.918L367.962 445.793L372.296 447.874L355.68 457.561ZM356.322 453.238V456.441L371.012 447.874L367.962 446.433L356.322 453.238Z" fill="#3D3D3D"/>
<path d="M352.709 510.079L348.615 507.677V465.086L352.87 462.685L352.709 510.079ZM349.177 507.277L352.147 509.038L352.228 463.725L349.257 465.487V507.277H349.177Z" fill="#3D3D3D"/>
<path d="M435.149 524.648L434.748 524.568L377.914 509.838V475.333L384.818 477.094L384.657 477.735L378.556 476.134V509.357L434.507 523.848V490.544L428.647 489.023L428.807 488.382L435.149 490.064V524.648Z" fill="#3D3D3D"/>
<path d="M435.149 529.772L434.748 529.692L377.914 514.962V480.457L384.496 482.138L384.336 482.779L378.556 481.258V514.481L434.507 528.972V495.748L428.406 494.227L428.567 493.586L435.149 495.268V529.772Z" fill="#3D3D3D"/>
<path d="M428.567 510.798L426.64 510.318L385.941 499.11V423.936L396.457 422.415L396.618 423.055L386.584 424.416V498.63L427.924 509.998L428.005 429.86L400.872 422.495L401.033 421.854L428.647 429.38V429.62L428.567 510.798Z" fill="#3D3D3D"/>
<path d="M427.041 512.16L384.416 500.472V424.337H385.058V499.992L426.399 511.36V509.999L426.479 431.222L396.537 423.056L386.343 424.497L386.182 423.857L396.537 422.416H396.618L427.121 430.742V430.982L427.041 512.16Z" fill="#3D3D3D"/>
<path d="M423.428 506.955L406.41 502.232L388.027 497.268V424.336L413.635 431.141L423.428 433.943V506.955ZM388.67 496.788L410.103 502.552L422.786 506.155V434.423L413.474 431.781L406.41 429.86L388.67 425.137V496.788Z" fill="#3D3D3D"/>
<path d="M423.429 506.955L387.707 497.188L391.881 493.506L404.404 496.948L404.243 497.589L392.042 494.146L388.991 496.868L422.786 506.155V502.712L410.585 499.35L410.745 498.71L423.429 502.232V506.955Z" fill="#3D3D3D"/>
<path d="M423.429 502.873L421.342 502.312L410.505 499.27L410.665 498.629L422.786 502.072V475.733L422.867 453.637V434.423L414.92 432.262L392.363 426.017V443.87H391.721V425.217L395.975 426.338L423.509 433.943V453.637L423.429 475.733V502.873Z" fill="#3D3D3D"/>
<path d="M404.083 497.509L391.962 494.146H391.641V468.208L391.721 451.556H392.363L392.283 468.208V493.586L404.244 496.868L404.083 497.509Z" fill="#3D3D3D"/>
<path d="M396.136 445.151H395.494V426.898L392.283 426.017V443.39H391.641V425.217L396.136 426.418V445.151Z" fill="#3D3D3D"/>
<path d="M391.641 494.467V451.716H392.283V493.186L395.494 490.544V452.917H396.136V490.864L391.641 494.467Z" fill="#3D3D3D"/>
<path d="M423.429 502.873L421.342 502.312L410.746 499.35L410.907 498.71L422.787 502.072V498.47L410.826 495.187L410.987 494.547L423.429 497.989V502.873Z" fill="#3D3D3D"/>
<path d="M404.083 497.509L391.721 494.066V493.586L392.363 493.186L395.815 490.384L404.324 492.705L404.163 493.346L395.975 491.024L392.684 493.666L404.243 496.869L404.083 497.509Z" fill="#3D3D3D"/>
<path d="M426.398 512.399L426.479 430.821L428.566 428.899V510.478L426.398 512.399ZM427.121 431.141L427.041 511.118L428.004 510.238V430.26L427.121 431.141Z" fill="#3D3D3D"/>
<path d="M426.881 431.301L396.457 423.055L396.618 422.415L426.72 430.661L427.683 429.78L400.872 422.495L401.033 421.854L428.968 429.46L426.881 431.301Z" fill="#3D3D3D"/>
<path d="M407.855 502.712L403.681 501.591V455.238L388.027 450.915V446.192L403.681 450.515V428.499L407.855 429.62V451.636L423.428 455.879V460.682L407.855 456.359V502.712ZM404.323 501.111L407.293 501.912V455.558L422.866 459.882V456.359L407.293 452.116V430.1L404.323 429.3V451.315L388.67 446.992V450.435L404.323 454.758V501.111Z" fill="#3D3D3D"/>
<path d="M407.213 452.516V429.38L411.307 430.501V449.074L407.213 452.516ZM407.855 430.18V451.236L410.745 448.754V430.981L407.855 430.18Z" fill="#3D3D3D"/>
<path d="M423.429 456.519L406.893 452.036L410.987 448.594L423.429 451.796V456.519ZM408.177 451.716L422.787 455.719V452.276L411.147 449.234L408.177 451.716Z" fill="#3D3D3D"/>
<path d="M404.324 451.315L387.707 446.752L391.881 443.31L404.324 446.752V451.315ZM388.991 446.432L403.681 450.515V447.232L392.042 443.95L388.991 446.432Z" fill="#3D3D3D"/>
<path d="M407.213 502.953V455.559L411.467 456.679V499.27L407.213 502.953ZM407.855 456.359V501.672L410.905 499.03V457.24L407.855 456.359Z" fill="#3D3D3D"/>
<path d="M484.759 453.558L484.438 453.077L503.141 442.269V366.135H503.783V442.59L484.759 453.558Z" fill="#3D3D3D"/>
<path d="M434.987 529.612L434.907 529.452H434.506V418.172H435.148V528.891L442.373 524.728L442.694 525.209L434.987 529.612Z" fill="#3D3D3D"/>
<path d="M478.657 504.474L478.336 503.994L484.437 500.471V466.687L484.517 392.394H485.159L485.079 466.687V500.791L478.657 504.474Z" fill="#3D3D3D"/>
<path d="M434.588 524.809V490.064L442.615 485.42L442.936 485.901L435.23 490.384V523.688L442.455 519.525L442.776 520.085L434.588 524.809ZM478.738 499.27L478.417 498.79L484.438 495.268V462.124L478.899 465.326L478.578 464.766L485.08 461.083V495.668L478.738 499.27Z" fill="#3D3D3D"/>
<path d="M434.506 529.932V495.267L442.132 490.864L442.453 491.344L435.148 495.587V528.811L442.373 524.648L442.694 525.209L434.506 529.932ZM446.788 522.887L446.467 522.407L474.321 506.315L474.643 506.795L446.788 522.887ZM478.576 504.474L478.255 503.913L484.516 500.311V466.687H485.158V500.711L478.576 504.474Z" fill="#3D3D3D"/>
<path d="M327.341 427.779L151.863 326.827L156.038 324.505L156.359 325.065L153.148 326.907L327.662 427.379L327.341 427.779ZM443.657 408.405L443.336 407.925L484.436 384.228L484.757 383.908L485.239 384.388L443.657 408.405Z" fill="#3D3D3D"/>
<path d="M327.502 432.262L327.422 432.182L137.896 323.223V314.417H138.539V322.903L327.663 431.621L358.086 427.538L358.167 428.099L327.502 432.262ZM371.974 426.417H370.208L371.974 425.537V426.417ZM375.345 425.937L375.265 425.377L384.817 424.096L386.343 423.936L401.033 422.014L443.577 416.33L497.521 385.268L517.67 322.263L518.232 322.423L498.083 385.588L443.738 416.81L401.113 422.495L396.698 423.055L386.423 424.416L384.898 424.576L375.345 425.937Z" fill="#3D3D3D"/>
<path d="M327.502 423.616L327.422 423.536L138.057 314.658L138.378 314.178L327.662 422.976L443.497 407.444L497.441 376.382L515.181 320.742L517.509 313.377L518.151 313.537L515.823 320.902L497.922 376.862L443.577 408.085L327.502 423.616Z" fill="#3D3D3D"/>
<path d="M443.176 416.971V407.524L443.336 407.444L497.922 376.142V385.508L497.762 385.588L443.176 416.971ZM443.818 407.924V415.93L497.28 385.108V377.182L443.818 407.924Z" fill="#3D3D3D"/>
<path d="M497.281 387.27V376.622L517.992 311.615V322.343L497.281 387.27ZM497.923 376.782V383.427L517.51 322.263V315.538L497.923 376.782Z" fill="#3D3D3D"/>
<path d="M371.973 426.418H370.207L371.973 425.537V426.418Z" fill="#3D3D3D"/>
<path d="M327.262 432.342V423.056L327.583 422.975L443.819 407.444V416.731L396.538 423.056L386.343 424.497L384.737 424.657L375.345 425.938L375.185 425.297L384.657 424.016L386.263 423.856L396.457 422.415L400.953 421.855L443.176 416.251V408.085L327.904 423.536V431.702L358.006 427.619L358.087 428.259L327.262 432.342Z" fill="#3D3D3D"/>
<path d="M327.743 423.536L327.422 423.056L354.875 407.204L355.196 407.685L327.743 423.536ZM359.933 404.963L359.612 404.402L364.508 401.6L364.829 402.161L359.933 404.963ZM369.806 399.198L369.485 398.718L379.84 392.714L380.161 393.194L369.806 399.198ZM384.817 390.552L384.496 389.992L389.393 387.19L389.714 387.75L384.817 390.552ZM402.558 380.305L402.237 379.825L408.257 376.302L408.578 376.782L402.558 380.305ZM412.752 374.381L412.431 373.9L440.286 357.809L440.607 358.289L412.752 374.381ZM444.862 355.807L444.541 355.327L489.253 329.468L489.574 329.949L444.862 355.807ZM505.308 320.822L504.987 320.342L517.59 313.057L517.911 313.537L505.308 320.822Z" fill="#3D3D3D"/>
<path d="M327.663 423.696L327.422 423.536L137.896 314.658V305.771H138.539V314.337L327.502 422.895L423.349 253.494L423.589 253.654L517.429 312.736V305.771L419.977 245.008L420.298 244.527L518.071 305.451V313.857L423.509 254.294L327.663 423.696Z" fill="#3D3D3D"/>
<path d="M326.138 414.009L313.936 406.964L310.966 405.283L308.397 403.762L305.427 402.081L296.276 396.877L293.386 395.116L290.737 393.675L287.847 391.993L278.696 386.79L275.726 385.028L273.157 383.587L270.267 381.906L252.848 371.899L252.688 371.819L243.456 366.535L240.647 364.934L240.486 364.774L237.837 363.253L234.947 361.652L225.716 356.288L220.177 353.165L208.136 346.2L205.246 344.599L172.896 326.026L170.086 324.425L164.628 321.223L137.816 305.852L230.773 139.332L248.754 149.339L258.146 154.623L258.307 154.703L264.086 157.825L266.495 159.186L276.047 164.47L276.208 164.63L278.776 165.991L281.666 167.672L281.827 167.752L284.396 169.113L293.868 174.397L294.028 174.557L296.517 175.918L299.407 177.599L299.567 177.68L302.136 179.041L311.689 184.404L314.257 185.765L319.876 188.968L329.429 194.251L331.998 195.612L334.888 197.294H334.968L337.697 198.815L349.738 205.54L355.438 208.582L364.91 213.946L373.178 218.509L385.299 225.154L388.109 226.835H388.189L390.918 228.356L400.23 233.56H400.31L403.04 235.081L408.739 238.203L420.62 244.848L420.459 245.088L326.138 414.009ZM241.048 364.534L243.777 366.055L252.928 371.339L253.089 371.419L291.058 393.194L293.948 394.795L296.597 396.397L308.718 403.281L311.528 404.963L314.257 406.484L325.977 413.209L419.736 244.928L417.73 243.807L405.608 237.082L402.638 235.481L400.07 233.96H399.989H399.909L390.517 228.756L387.948 227.235H387.868L384.898 225.474L382.169 224.033L370.128 217.308L364.428 214.186L355.036 208.902L349.337 205.86L346.607 204.339L337.215 199.135L334.647 197.614H334.566L331.516 195.933L328.787 194.492L319.395 189.288L313.776 186.086L311.046 184.645L299.166 178L299.005 177.92L296.035 176.239L293.386 174.797L293.226 174.637L281.345 168.073L281.185 167.993L278.215 166.311L275.566 164.87L275.405 164.71L257.825 155.023L257.665 154.943L239.844 145.016L230.773 139.972L223.067 153.902L138.619 305.771L167.758 322.423L170.568 324.105L173.297 325.626L208.537 345.8L220.578 352.765L226.117 355.887L235.509 361.331L238.238 362.852L240.968 364.454L241.048 364.534Z" fill="#3D3D3D"/>
<path d="M327.984 423.856L327.422 423.536L137.896 314.658V305.211L138.378 305.451L326.378 413.369L327.984 423.856ZM138.539 314.338L327.181 422.735L325.736 413.849L138.539 306.252V314.338Z" fill="#3D3D3D"/>
<path d="M294.991 509.598L252.285 484.86V484.7L252.365 403.441L294.91 428.019V509.598H294.991ZM252.927 484.54L294.348 508.557V428.499L252.927 404.562V484.54Z" fill="#3D3D3D"/>
<path d="M293.465 510.478L250.84 485.821V485.661L250.92 404.402L293.465 428.98V510.478ZM251.402 485.421L292.823 509.438V429.38L251.482 405.443L251.402 485.421Z" fill="#3D3D3D"/>
<path d="M289.854 504.234L276.207 496.228L272.675 494.227L254.453 483.739V410.646L280.141 425.377L289.854 431.061V504.234V504.234ZM255.095 483.339L276.528 495.668L289.211 503.193V431.461L276.207 423.856L272.675 421.855L255.095 411.687V483.339V483.339Z" fill="#3D3D3D"/>
<path d="M289.852 504.234L254.211 483.499L258.225 481.098L258.546 481.578L255.335 483.499L289.21 503.113V499.591H289.852V504.234Z" fill="#3D3D3D"/>
<path d="M289.854 500.15L277.091 492.625L277.412 492.145L289.212 499.03V431.461L261.919 415.61V415.53L258.227 413.448L258.548 412.968L262.561 415.209V415.289L289.854 431.141V500.15Z" fill="#3D3D3D"/>
<path d="M258.589 481.036L258.264 481.588L270.361 488.71L270.687 488.158L258.589 481.036Z" fill="#3D3D3D"/>
<path d="M258.064 481.898V439.228H258.707V480.777L261.918 478.456V441.469H262.56V478.776L258.064 481.898Z" fill="#3D3D3D"/>
<path d="M262.56 433.463H261.918V415.531L258.707 413.689V431.622H258.064V412.729L262.56 415.21V433.463Z" fill="#3D3D3D"/>
<path d="M270.187 488.623L257.744 481.337L262.239 479.096L270.748 484.059L270.427 484.54L262.239 479.736L259.029 481.337L270.508 488.142L270.187 488.623Z" fill="#3D3D3D"/>
<path d="M289.853 500.151L277.09 492.626L277.411 492.145L289.211 499.03V495.508L277.491 488.623L277.812 488.143L289.853 495.188V500.151Z" fill="#3D3D3D"/>
<path d="M292.824 510.478V428.979L294.911 427.778V509.277L292.824 510.478ZM293.466 429.299V509.357L294.349 508.796V428.739L293.466 429.299Z" fill="#3D3D3D"/>
<path d="M293.144 429.46L250.6 404.883L252.687 403.682L252.847 403.762L295.312 428.259L293.144 429.46ZM251.723 404.883L293.144 428.82L294.108 428.259L252.687 404.322L251.723 404.883Z" fill="#3D3D3D"/>
<path d="M274.2 495.188L270.106 492.786V446.513L254.533 437.386V432.503L270.106 441.629V419.693L274.2 422.015V444.031L289.853 453.077V457.881L274.2 448.834V495.188ZM270.668 492.385L273.558 494.147V447.794L289.211 456.84V453.478L273.558 444.431V422.415L270.668 420.734V442.67L255.095 433.543V436.986L270.668 446.112V492.385Z" fill="#3D3D3D"/>
<path d="M273.559 444.671V421.534L277.813 423.936V442.429L273.559 444.671ZM274.201 422.575V443.63L277.251 442.109V424.256L274.201 422.575Z" fill="#3D3D3D"/>
<path d="M289.853 453.798L273.236 444.191L277.491 442.029L289.853 448.914V453.798ZM274.521 444.191L289.211 452.677V449.234L277.491 442.67L274.521 444.191Z" fill="#3D3D3D"/>
<path d="M270.667 442.67L254.131 432.983L258.385 430.901L270.667 438.027V442.67ZM255.415 432.983L270.025 441.549V438.347L258.385 431.542L255.415 432.983Z" fill="#3D3D3D"/>
<path d="M273.639 495.187L273.559 447.793L277.813 450.195V492.705L273.639 495.187ZM274.201 448.834L274.281 494.146L277.251 492.385V450.515L274.201 448.834Z" fill="#3D3D3D"/>
<path d="M225.233 469.649L182.607 444.912V363.493L225.233 388.071V469.649ZM183.169 444.511L224.59 468.609V388.551L183.169 364.614V444.511Z" fill="#3D3D3D"/>
<path d="M223.627 470.53L181.082 445.873V364.454L223.707 389.032V389.192L223.627 470.53ZM181.644 445.472L223.065 469.49L223.145 389.432L181.644 365.415V445.472Z" fill="#3D3D3D"/>
<path d="M220.016 464.285L206.45 456.28L202.918 454.278L184.615 443.791V370.698L206.771 383.347L220.016 391.113V464.285V464.285ZM185.257 443.39L206.771 455.719L219.374 463.245V391.433L206.45 383.828L202.918 381.826L185.257 371.659V443.39Z" fill="#3D3D3D"/>
<path d="M220.014 464.285L184.373 443.47L188.547 441.068L200.909 448.274L200.588 448.754L188.547 441.709L185.497 443.47L219.372 463.164V459.802L207.01 452.517L207.331 452.036L220.014 459.482V464.285Z" fill="#3D3D3D"/>
<path d="M220.014 460.202L212.79 455.879L213.111 455.399L219.372 459.081V455.399L219.453 416.331V391.513L192.079 375.661V375.581L188.387 373.5L188.708 373.02L192.721 375.261V375.341L197.297 377.983L220.095 391.193V416.331L220.014 460.202Z" fill="#3D3D3D"/>
<path d="M188.227 441.869V399.679H188.869V440.908L192.08 439.307V401.84H192.722V439.627L188.227 441.869Z" fill="#3D3D3D"/>
<path d="M192.722 393.515H192.08V375.582L188.869 373.741V391.514H188.227V372.78L192.722 375.262V393.515Z" fill="#3D3D3D"/>
<path d="M220.015 460.202L212.791 455.879L207.252 452.677L207.573 452.196L213.112 455.399L219.373 459.081V455.559L207.734 448.754L208.055 448.273L209.259 448.994L220.015 455.238V460.202Z" fill="#3D3D3D"/>
<path d="M200.589 448.754L187.906 441.389L192.402 439.147L200.911 444.111L200.589 444.591L192.402 439.788L189.191 441.389L200.911 448.274L200.589 448.754Z" fill="#3D3D3D"/>
<path d="M222.986 470.45L223.067 388.952L225.154 387.751V469.249L222.986 470.45ZM223.709 389.352L223.629 469.41L224.592 468.849V388.792L223.709 389.352Z" fill="#3D3D3D"/>
<path d="M223.387 389.512L180.762 364.934L182.849 363.733L225.474 388.311L223.387 389.512ZM181.886 364.934L223.387 388.871L224.35 388.311L182.849 364.374L181.886 364.934Z" fill="#3D3D3D"/>
<path d="M204.443 455.239L200.349 452.838V406.564L184.695 397.438V392.554L200.349 401.681L200.268 379.745L204.523 382.067V404.083L220.096 413.129V417.933L204.523 408.886V455.239H204.443ZM200.911 452.437L203.8 454.199V407.845L219.373 416.892V413.529L203.8 404.483V382.467L200.83 380.786L200.911 402.722L185.257 393.595V397.038L200.911 406.164V452.437V452.437Z" fill="#3D3D3D"/>
<path d="M203.801 404.723V381.586L207.895 383.988V402.481L203.801 404.723ZM204.443 382.707V403.762L207.333 402.241V384.388L204.443 382.707Z" fill="#3D3D3D"/>
<path d="M220.015 413.849L203.479 404.243L207.653 402.081L220.015 408.966V413.849V413.849ZM204.763 404.243L219.373 412.729V409.286L207.653 402.722L204.763 404.243Z" fill="#3D3D3D"/>
<path d="M200.91 402.722L184.293 393.035L188.547 390.953L200.91 398.078V402.722ZM185.577 393.035L200.267 401.601V398.398L188.547 391.594L185.577 393.035Z" fill="#3D3D3D"/>
<path d="M203.801 455.159V407.765L208.055 410.166V452.677L203.801 455.159ZM204.443 408.885V454.198L207.493 452.437V410.567L204.443 408.885Z" fill="#3D3D3D"/>
<path d="M448.233 549.467L434.506 541.461V529.373H435.148V541.141L448.233 548.826L497.922 520.326V508.478H498.564V520.646L448.233 549.467Z" fill="#3D3D3D"/>
<path d="M473.958 506.54L446.594 522.192L446.873 522.678L474.238 507.026L473.958 506.54Z" fill="#3D3D3D"/>
<path d="M448.233 537.538L434.266 529.372L441.972 524.969L442.293 525.45L435.389 529.372L448.233 536.898L497.682 508.477L484.838 500.952L478.657 504.555L478.336 504.074L484.838 500.312L484.998 500.392L498.805 508.477L448.233 537.538Z" fill="#3D3D3D"/>
<path d="M447.912 549.627V536.978L448.073 536.898L498.565 507.917V520.646L447.912 549.627ZM448.554 537.378V548.586L497.922 520.326V509.038L448.554 537.378Z" fill="#3D3D3D"/>
<path d="M447.351 522.406H446.709V426.417L444.943 425.457V521.126H444.301V424.336L445.023 424.816L447.351 426.097V522.406Z" fill="#3D3D3D"/>
<path d="M447.351 522.407H446.709V465.966H447.351V522.407ZM450.241 513.28V475.733L470.952 464.205V501.752L470.791 501.832L450.241 513.28ZM450.883 476.133V512.319L470.39 501.432V465.326L469.908 465.646L450.883 476.133ZM474.644 507.036H474.002V435.384L473.601 435.144V410.726L474.403 410.246L474.644 410.807V507.036ZM450.241 467.727V465.886L450.321 465.806V430.02L470.069 418.972V445.551H469.426V419.933L450.883 430.341V465.486L469.507 455.158V445.632H470.149V455.238L471.353 455.959L450.241 467.727ZM450.883 466.446V466.767L470.149 456.039L469.908 455.879L450.883 466.446ZM453.372 461.003L452.007 460.282V432.982L466.938 424.656L468.303 425.377V425.457L468.463 425.537L468.303 425.617V452.677L453.372 461.003ZM452.729 459.962L453.372 460.362L467.741 452.356V446.672H467.821V444.831H467.741V434.103H467.821V425.937L462.041 429.14L462.121 429.22L458.509 431.221L458.429 431.141L458.108 430.581L467.339 425.457L467.018 425.297L452.729 433.303V459.962ZM446.709 427.138V426.097L461.72 417.531L470.309 412.568L470.63 413.048L446.709 427.138Z" fill="#3D3D3D"/>
<path d="M450.242 467.647V465.886L469.428 455.239V445.552H470.07V455.559L450.884 466.206V466.607L470.391 455.719V419.453L470.07 419.693V433.143H469.428V419.373L470.953 418.492V456.199L450.242 467.647ZM453.293 461.003L452.008 460.282V432.983L466.939 424.657L468.545 425.537L462.042 429.14L462.123 429.22L458.51 431.221L458.43 431.141L458.109 430.581L467.34 425.457L467.019 425.217L452.731 433.223V459.882L453.373 460.282L467.742 452.276V446.672H468.384V452.677L453.293 461.003ZM468.304 444.831H467.662V434.103H468.304V444.831Z" fill="#3D3D3D"/>
<path d="M450.242 467.727V465.886L469.749 455.078L471.354 455.959L450.242 467.727ZM450.884 466.286V466.686L470.15 455.959L469.829 455.719L450.884 466.286Z" fill="#3D3D3D"/>
<path d="M450.242 513.28V475.733L470.953 464.205V501.752L470.792 501.832L450.242 513.28ZM450.884 476.134V512.32L470.391 501.432V465.326L469.909 465.646L450.884 476.134Z" fill="#3D3D3D"/>
<path d="M450.242 513.28V511.519L469.428 500.791V465.086L470.953 464.205V501.752L470.792 501.832L450.242 513.28ZM450.884 511.919V512.24L470.391 501.352V465.246L470.07 465.486V501.192L450.884 511.919Z" fill="#3D3D3D"/>
<path d="M444.863 425.377L444.061 424.896L464.771 413.048L465.092 413.528L462.042 415.37L456.824 418.332L444.863 425.377Z" fill="#3D3D3D"/>
<path d="M453.613 461.082L452.008 460.282V432.582L453.613 433.463V461.082ZM452.65 459.962L453.051 460.122V433.863L452.65 433.623V459.962Z" fill="#3D3D3D"/>
<path d="M453.293 434.023L451.688 433.142L458.029 429.62L461.722 427.618L467.02 424.656L468.625 425.537L462.043 429.22L458.35 431.221L456.825 432.102L453.293 434.023ZM452.972 433.142L453.293 433.382L456.504 431.621L458.029 430.741L461.722 428.739L467.341 425.537L466.939 425.297L461.962 428.099L458.27 430.1L456.745 430.981L452.972 433.142Z" fill="#3D3D3D"/>
<path d="M471.033 502.152L469.508 501.272V465.246L471.033 464.365V502.152ZM470.07 500.871L470.391 501.112V465.326L470.07 465.566V500.871Z" fill="#3D3D3D"/>
<path d="M444.301 527.051V425.057L444.863 424.737L447.03 425.938L470.309 412.568L470.63 413.049L447.271 426.739L447.351 465.887V525.129L444.301 527.051ZM444.943 425.458V525.93L446.789 524.809V465.967L446.709 426.418L444.943 425.458Z" fill="#3D3D3D"/>
<path d="M476.732 505.435H476.09V409.846L474.404 410.887H474.324L474.003 411.047L473.682 410.567L474.163 410.247H474.244L476.732 408.886V505.435Z" fill="#3D3D3D"/>
<path d="M476.411 508.077L474.002 506.876V506.636H474.323L474.484 506.476L476.411 507.436L478.498 506.236V405.683L477.615 406.164L474.002 408.325L465.333 413.369L465.012 412.889L473.681 407.845L477.294 405.683L479.14 404.723V506.556L476.411 508.077Z" fill="#3D3D3D"/>
<path d="M444.862 526.97L442.053 525.369V423.296L444.862 425.057V526.97ZM442.615 525.049L444.22 526.01V425.377L442.615 424.417V525.049Z" fill="#3D3D3D"/>
<path d="M444.943 425.537H444.462L441.812 424.016L442.214 423.616L476.491 403.441L477.614 404.082L479.461 405.283L477.614 406.243L474.002 408.405L465.092 413.609L462.041 415.45L456.824 418.412L444.943 425.377V425.537V425.537ZM442.856 423.936L444.542 424.897L444.783 424.817L458.028 416.971L461.72 414.89L465.012 412.888L473.681 407.845L477.293 405.683L478.257 405.203L477.293 404.562L476.491 404.082L474.002 405.603L442.856 423.936Z" fill="#3D3D3D"/>
<path d="M476.812 508.077H476.25L474.243 506.956H473.922V410.407L474.163 410.167L476.17 408.966L476.651 408.565V408.726L476.731 408.645V441.549L476.812 508.077ZM474.644 506.476L476.17 507.276V505.435H476.009V409.926L474.725 410.967L474.644 506.476Z" fill="#3D3D3D"/>
<path d="M452.971 461.083V433.543L456.503 431.622L458.028 430.741L458.349 431.222L456.824 432.102L453.613 433.863V460.122L467.661 452.357V444.831H468.303V452.677L452.971 461.083Z" fill="#3D3D3D"/>
<path d="M468.303 438.346H467.661V426.017L462.042 429.22L461.721 428.739L468.303 425.057V438.346Z" fill="#3D3D3D"/>
<path d="M453.613 507.196L452.008 506.315V478.615L453.613 479.496V507.196ZM452.65 505.915L453.051 506.155V479.896L452.65 479.656V505.915Z" fill="#3D3D3D"/>
<path d="M453.291 479.976L451.686 479.096L467.018 470.689L468.623 471.49L453.291 479.976ZM452.97 479.096L453.291 479.336L467.339 471.49L467.018 471.33L452.97 479.096Z" fill="#3D3D3D"/>
<path d="M452.971 507.116V479.496L453.131 479.416L468.303 471.01V498.71L468.142 498.79L452.971 507.116ZM453.613 479.816V506.075L467.661 498.229V471.97L453.613 479.816Z" fill="#3D3D3D"/>
<path d="M293.946 516.963L293.786 516.883L246.104 489.584V484.06L253.007 485.581L296.997 509.678V515.042L293.946 516.963ZM246.746 489.263L293.946 516.323L296.355 514.802V510.078L252.686 486.141L246.665 484.78V489.263H246.746Z" fill="#3D3D3D"/>
<path d="M293.947 511.919L293.787 511.839L245.863 484.459L249.235 482.458L297.238 509.918L293.947 511.919ZM246.987 484.459L293.947 511.279L296.114 509.918L249.235 483.098L246.987 484.459Z" fill="#3D3D3D"/>
<path d="M293.625 517.203V511.439L296.916 509.357V515.122L293.625 517.203ZM294.267 511.759V516.082L296.354 514.801V510.478L294.267 511.759Z" fill="#3D3D3D"/>
<path d="M223.948 476.854L176.186 449.554V444.351H176.828V449.234L223.948 476.213L226.437 474.692V469.809H227.079V475.013L223.948 476.854Z" fill="#3D3D3D"/>
<path d="M223.949 471.811L175.945 444.351L179.237 442.35L179.397 442.43L227.401 469.809L223.949 471.811ZM177.069 444.351L223.949 471.17L226.196 469.809L179.237 442.99L177.069 444.351Z" fill="#3D3D3D"/>
<path d="M223.627 477.095V471.33L227.079 469.249V475.013L223.627 477.095ZM224.269 471.651V475.974L226.517 474.693V470.37L224.269 471.651Z" fill="#3D3D3D"/>
<path d="M147.369 311.536L147.048 311.215L137.816 305.932L230.773 139.332L240.727 144.856L240.566 145.096L175.144 261.74L147.369 311.536ZM138.619 305.772L147.208 310.655L174.662 261.5L239.844 145.096L231.014 140.213L223.308 154.143L138.619 305.772Z" fill="#3D3D3D"/>
<path d="M165.109 321.543L164.707 321.303L152.506 314.338L180.12 265.103L245.864 147.658L246.426 147.978L258.467 154.783L258.306 155.023L197.539 263.501L165.109 321.543ZM153.228 314.178L155.637 315.539L164.868 320.742L196.977 263.181L257.584 154.943L246.024 148.459L180.602 265.423L153.228 314.178Z" fill="#3D3D3D"/>
<path d="M182.689 331.63L182.287 331.39L170.086 324.425L263.685 157.425L264.166 157.745L266.575 159.106L276.288 164.47L182.689 331.63ZM170.808 324.265L173.297 325.626L182.448 330.829L220.899 262.06L275.405 164.71L263.765 158.305L201.553 269.265L170.808 324.265Z" fill="#3D3D3D"/>
<path d="M200.349 341.798L199.948 341.558L187.746 334.513L187.907 334.272L226.598 265.183L281.425 167.433L281.907 167.593L284.475 168.954L294.108 174.318L244.259 263.341L200.349 341.798ZM188.469 334.352L200.108 340.997L243.616 263.101L293.145 174.558L281.586 168.153L227.08 265.423L188.469 334.352Z" fill="#3D3D3D"/>
<path d="M217.849 351.885L217.367 351.564L208.216 346.281L205.246 344.599L299.005 177.279L299.487 177.439L302.056 178.8L311.689 184.244L267.619 263.021L217.849 351.885ZM206.049 344.439L208.537 345.8L217.688 351.084L267.137 262.861L310.886 184.565L299.327 178.08L248.112 269.505L206.049 344.439Z" fill="#3D3D3D"/>
<path d="M235.509 361.972L235.108 361.731L225.876 356.367L222.906 354.686L223.067 354.446L273.077 265.342L316.987 187.126L317.388 187.366L319.877 188.807L329.509 194.171L329.349 194.411L288.65 267.263L235.509 361.972ZM223.629 354.526L226.117 355.887L235.268 361.171L288.088 266.943L328.626 194.331L319.475 189.288L317.067 187.927L273.478 265.662L223.629 354.526Z" fill="#3D3D3D"/>
<path d="M253.17 372.059L252.688 371.899L243.456 366.615L240.486 364.934L334.567 197.134H334.888L337.617 198.655L347.25 204.019L313.776 263.662L253.17 372.059ZM241.289 364.694L243.778 366.055L252.848 371.339L313.294 263.341L346.447 204.179L337.296 199.135L334.808 197.694L294.51 269.586L241.289 364.694Z" fill="#3D3D3D"/>
<path d="M270.749 382.146L270.348 381.906L258.227 374.941L352.387 206.9H352.789L355.438 208.341L365.07 213.785L364.91 214.026L334.807 267.744L270.749 382.146ZM258.949 374.781L270.428 381.346L334.165 267.504L364.107 214.026L355.036 208.902L352.628 207.541L320.037 265.743L258.949 374.781Z" fill="#3D3D3D"/>
<path d="M288.329 392.314L287.848 391.994L278.697 386.79L275.727 385.029L275.887 384.789L340.507 269.506L370.208 216.588L370.529 216.908L373.098 218.349L382.731 223.713L359.933 264.302L288.329 392.314ZM276.529 384.869L279.018 386.31L288.169 391.513L359.452 264.062L381.928 223.953L370.369 217.549L340.989 269.826L276.529 384.869Z" fill="#3D3D3D"/>
<path d="M305.909 402.401L305.428 402.081L296.277 396.877L293.387 395.116L387.788 226.595H388.109L390.839 228.116L400.471 233.48L380.885 268.385L305.909 402.401ZM294.189 394.956L296.598 396.397L305.749 401.6L380.403 268.225L399.669 233.8L390.518 228.756L388.029 227.315L366.435 265.983L294.189 394.956Z" fill="#3D3D3D"/>
<path d="M323.489 412.488L323.008 412.168L313.937 406.964L310.967 405.283L311.127 405.042L386.986 269.585L405.689 236.281L406.01 236.601L408.659 238.043L418.292 243.406L323.489 412.488ZM311.77 405.123L314.258 406.483L323.329 411.687L404.646 266.543L417.49 243.566L405.85 237.162L387.467 269.825L311.77 405.123Z" fill="#3D3D3D"/>
<path d="M147.289 311.376L137.736 305.932L230.773 139.332L240.888 145.016L240.727 145.256L175.144 261.74L147.289 311.376ZM138.619 305.772L147.048 310.575L174.582 261.42L240.005 145.176L230.853 140.133L223.147 154.063L138.619 305.772Z" fill="#3D3D3D"/>
<path d="M164.868 321.463L152.506 314.418L152.346 314.258L179.96 265.183L246.025 147.898L258.066 154.703L258.628 154.863L258.467 155.184L197.459 263.581L164.868 321.463ZM153.148 314.098L155.637 315.539L164.708 320.662L196.978 263.181L257.825 155.104L246.346 148.619L180.602 265.423L153.148 314.098Z" fill="#3D3D3D"/>
<path d="M182.448 331.55L170.086 324.505L169.926 324.345L170.006 324.185L200.992 269.105L263.846 157.665L266.495 159.186L276.047 164.47L276.368 164.79L182.448 331.55ZM170.729 324.185L173.297 325.626L182.288 330.749L220.899 262.06L275.566 164.87L264.006 158.466L201.553 269.345L170.729 324.185Z" fill="#3D3D3D"/>
<path d="M200.109 341.717L187.426 334.432L226.439 265.182L281.506 167.512L284.235 169.033L293.708 174.317L294.029 174.637L293.949 174.797L244.099 263.421L200.109 341.717ZM188.309 334.191L199.868 340.836L243.537 263.02L293.306 174.637L281.747 168.232L227.001 265.422L188.309 334.191Z" fill="#3D3D3D"/>
<path d="M217.609 351.725L208.217 346.281L205.086 344.519L205.246 344.279L247.551 269.185L299.327 177.359L302.056 178.88L311.85 184.404L267.619 263.101L217.609 351.725ZM205.889 344.279L208.538 345.72L217.448 350.844L267.137 262.701L311.047 184.484L299.568 178.08L248.112 269.425L205.889 344.279Z" fill="#3D3D3D"/>
<path d="M235.269 361.891L225.796 356.367L222.907 354.686L222.746 354.526L272.917 265.342L316.987 187.206L319.716 188.807L329.51 194.251L288.49 267.264L235.269 361.891ZM223.549 354.446L226.118 355.887L235.108 361.091L288.089 266.943L328.787 194.411L319.475 189.288L317.228 188.007L273.479 265.662L223.549 354.446Z" fill="#3D3D3D"/>
<path d="M252.849 371.979L243.457 366.535L240.647 364.934L240.326 364.614L240.406 364.454L294.029 269.346L334.728 196.974L337.617 198.655L347.17 204.019L347.331 204.179L252.849 371.979ZM241.129 364.534L243.778 365.975L252.688 371.099L313.295 263.341L346.528 204.259L337.296 199.135L334.888 197.774L294.511 269.666L241.129 364.534Z" fill="#3D3D3D"/>
<path d="M270.509 382.066L257.906 374.781L258.067 374.541L319.476 265.502L352.468 206.82L355.358 208.421L364.911 213.865L365.071 214.025L334.808 267.824L270.509 382.066ZM258.709 374.621L270.349 381.266L334.246 267.504L364.268 214.106L355.037 208.902L352.629 207.621L319.958 265.823L258.709 374.621Z" fill="#3D3D3D"/>
<path d="M288.089 392.153L278.697 386.789L275.486 384.868L370.289 216.747L373.099 218.348L382.41 223.552H382.892L359.934 264.381L288.089 392.153ZM276.289 384.708L279.018 386.309L287.929 391.352L359.452 263.981L382.009 223.952L370.53 217.548L341.07 269.825L276.289 384.708Z" fill="#3D3D3D"/>
<path d="M305.669 402.241L296.277 396.877L293.146 394.956L365.954 265.663L387.949 226.515L390.839 228.196L400.151 233.4H400.633L380.885 268.545L305.669 402.241ZM293.949 394.795L296.598 396.397L305.509 401.44L380.404 268.145L399.75 233.8L390.598 228.676L388.19 227.315L366.516 265.983L293.949 394.795Z" fill="#3D3D3D"/>
<path d="M323.247 412.328L313.936 406.964L310.725 405.123L310.885 404.882L386.984 269.585L405.768 236.441L408.658 238.043L418.291 243.406L405.126 266.863L323.247 412.328ZM311.527 404.962L314.257 406.483L323.087 411.527L404.644 266.543L417.488 243.567L406.009 237.242L387.546 269.905L311.527 404.962Z" fill="#3D3D3D"/>
<path d="M150.018 312.977L137.736 305.932L230.773 139.332L243.456 146.377L243.296 146.617L150.018 312.977ZM147.449 310.815L149.777 312.176L242.573 146.537L240.085 145.176L231.014 140.133L223.308 154.063L138.619 305.771L147.449 310.815Z" fill="#3D3D3D"/>
<path d="M167.679 323.064L164.629 321.302L155.076 315.858L248.514 149.179L258.147 154.623L258.308 154.703L261.117 156.224L260.957 156.464L167.679 323.064ZM155.879 315.698L167.438 322.263L260.315 156.384L258.067 155.183L257.906 155.103L248.755 149.979L155.879 315.698Z" fill="#3D3D3D"/>
<path d="M185.257 333.151L172.654 325.946L172.815 325.706L266.173 159.026L275.966 164.39L276.127 164.55L278.936 166.071L185.257 333.151ZM173.537 325.786L185.016 332.351L278.053 166.312L275.645 165.031L275.485 164.871L266.333 159.827L173.537 325.786Z" fill="#3D3D3D"/>
<path d="M202.918 343.318L190.234 336.033L190.395 335.793L284.074 168.873L293.787 174.237L293.948 174.397L296.757 175.918L202.918 343.318ZM191.117 335.873L202.757 342.518L295.874 176.158L293.466 174.877L293.305 174.717L284.235 169.674L191.117 335.873Z" fill="#3D3D3D"/>
<path d="M220.497 353.406L207.975 346.121L208.135 345.881L301.814 178.721L311.608 184.245L314.417 185.766L220.497 353.406ZM208.777 345.961L220.337 352.606L313.614 186.006L311.126 184.725L301.975 179.601L208.777 345.961Z" fill="#3D3D3D"/>
<path d="M238.158 363.493L235.027 361.732L225.555 356.208L225.715 355.968L319.555 188.647L329.348 194.091L332.158 195.612L331.997 195.853L238.158 363.493ZM226.357 356.048L235.509 361.331L237.997 362.692L331.355 195.853L328.867 194.572L319.715 189.528L226.357 356.048Z" fill="#3D3D3D"/>
<path d="M255.737 373.58L252.848 371.899L252.687 371.819L243.215 366.375L243.375 366.135L337.376 198.494L349.978 205.539L349.818 205.779L255.737 373.58ZM244.018 366.215L252.928 371.338L253.088 371.418L255.497 372.779L349.095 205.699L346.687 204.338L337.616 199.295L244.018 366.215Z" fill="#3D3D3D"/>
<path d="M273.398 383.748L270.267 381.906L260.795 376.462L260.955 376.222L355.116 208.262L364.91 213.786L367.799 215.387L273.398 383.748ZM261.598 376.302L273.237 382.947L366.916 215.627L364.428 214.266L355.357 209.142L261.598 376.302Z" fill="#3D3D3D"/>
<path d="M290.978 393.835L287.767 391.993L278.375 386.629L278.536 386.389L372.776 218.188L385.46 225.153L290.978 393.835ZM279.258 386.469L290.817 393.034L384.657 225.394L382.168 224.113L373.017 219.069L279.258 386.469Z" fill="#3D3D3D"/>
<path d="M308.638 403.922L305.347 402.081L295.955 396.717L296.116 396.477L390.517 228.036L400.07 233.32H400.15L403.12 235.001L402.959 235.241L308.638 403.922ZM296.838 396.557L308.397 403.122L402.317 235.321L399.989 233.96L390.758 228.837L296.838 396.557Z" fill="#3D3D3D"/>
<path d="M326.138 414.009L313.615 406.804L408.338 237.883L420.539 244.688L420.379 244.928L326.138 414.009ZM314.498 406.644L325.897 413.209L419.656 244.928L417.65 243.807L408.498 238.763L314.498 406.644Z" fill="#3D3D3D"/>
<path d="M457.705 398.959L454.574 397.038V371.58L457.625 369.818V398.959H457.705ZM455.216 396.718L457.063 397.838V370.779L455.216 371.9V396.718Z" fill="#3D3D3D"/>
<path d="M457.062 398.959V370.138L460.273 368.297V397.118L457.062 398.959ZM457.705 370.458V397.838L459.712 396.637V369.258L457.705 370.458Z" fill="#3D3D3D"/>
<path d="M469.908 392.554L466.777 390.793V364.934L469.908 362.933V392.554ZM467.42 390.392L469.346 391.513V363.973L467.42 365.174V390.392Z" fill="#3D3D3D"/>
<path d="M469.266 392.473V363.252L472.477 361.251V390.712L469.266 392.473ZM469.908 363.573V391.513L471.915 390.392V362.372L469.908 363.573Z" fill="#3D3D3D"/>
<path d="M481.306 385.909L478.176 383.988V358.209L481.306 356.208V385.909ZM478.818 383.668L480.745 384.789V357.329L478.818 358.53V383.668Z" fill="#3D3D3D"/>
<path d="M480.664 385.829V356.528L483.795 354.767V384.068L480.664 385.829ZM481.306 356.928V384.788L483.233 383.667V355.807L481.306 356.928Z" fill="#3D3D3D"/>
<path d="M493.267 378.064L490.217 376.303V351.245L493.267 349.243V378.064ZM490.779 375.902L492.625 377.023V350.284L490.779 351.485V375.902Z" fill="#3D3D3D"/>
<path d="M492.625 377.983V349.323L495.756 340.276V376.222L492.625 377.983ZM493.267 349.563V377.023L495.274 375.902V343.879L493.267 349.563Z" fill="#3D3D3D"/>
<path d="M498.084 363.973L494.953 362.051V361.891L495.194 340.676L498.003 333.15V363.973H498.084ZM495.595 361.731L497.442 362.852V336.353L495.756 340.756L495.595 361.731Z" fill="#3D3D3D"/>
<path d="M497.441 363.893V334.672L500.572 323.224V362.132L497.441 363.893ZM498.084 334.832V362.932L500.09 361.811V327.707L498.084 334.832Z" fill="#3D3D3D"/>
<path d="M502.9 349.883L499.85 347.962V325.065L502.9 316.979V349.883ZM500.411 347.642L502.258 348.762V320.182L500.411 325.145V347.642Z" fill="#3D3D3D"/>
<path d="M502.258 349.883V316.819L504.586 309.454C504.586 309.294 504.746 309.134 504.987 309.134C505.228 309.134 505.388 309.294 505.388 309.534V347.962L502.258 349.883ZM502.9 316.979V348.842L504.907 347.641V310.735L502.9 316.979Z" fill="#3D3D3D"/>
<path d="M491.179 335.633C491.019 335.633 490.858 335.553 490.778 335.473L488.129 333.872H489.012V306.732L492.062 308.734V334.833C492.062 335.073 491.902 335.393 491.581 335.553C491.42 335.553 491.34 335.633 491.179 335.633ZM489.574 334.032L491.099 334.913C491.179 334.993 491.26 334.913 491.34 334.913C491.42 334.833 491.5 334.752 491.5 334.752V308.974L489.654 307.773V334.032H489.574Z" fill="#3D3D3D"/>
<path d="M491.34 336.754V308.334L494.551 310.095V326.267L491.34 336.754ZM491.982 309.375V332.671L493.989 326.187V310.496L491.982 309.375Z" fill="#3D3D3D"/>
<path d="M367.639 417.452L364.428 415.611V390.793L367.639 390.393V417.452ZM365.07 415.21L367.077 416.411V391.033L365.07 391.273V415.21Z" fill="#3D3D3D"/>
<path d="M366.996 417.452V390.392L370.127 389.992V415.531L366.996 417.452ZM367.638 390.873V416.331L369.565 415.21V390.633L367.638 390.873Z" fill="#3D3D3D"/>
<path d="M357.123 411.687C357.043 411.687 356.963 411.687 356.882 411.607L354.635 410.246V384.548L357.765 386.309V411.047C357.765 411.287 357.685 411.447 357.525 411.527C357.284 411.687 357.204 411.687 357.123 411.687ZM355.197 409.926L357.123 411.127L357.043 386.709L355.116 385.589V409.926H355.197Z" fill="#3D3D3D"/>
<path d="M357.525 411.768C357.444 411.768 357.364 411.768 357.284 411.688C357.123 411.608 357.043 411.448 357.043 411.287V386.069L360.174 387.831V410.247L357.765 411.688C357.765 411.768 357.685 411.768 357.525 411.768ZM357.685 387.03V411.047L359.612 409.846V388.071L357.685 387.03Z" fill="#3D3D3D"/>
<path d="M382.73 415.29L379.6 413.529V388.551L382.73 388.15V415.29ZM380.162 413.208L382.088 414.329V388.951L380.162 389.191V413.208Z" fill="#3D3D3D"/>
<path d="M382.088 415.37V388.31L385.219 387.83V413.609L382.088 415.37ZM382.73 388.791V414.249L384.657 413.128V388.471L382.73 388.791Z" fill="#3D3D3D"/>
<path d="M397.822 412.89L394.611 411.529V386.551L397.822 386.15V412.89ZM395.254 411.128L397.26 412.009V386.871L395.254 387.111V411.128Z" fill="#3D3D3D"/>
<path d="M397.18 413.369V386.229L400.23 385.749V411.447L397.18 413.369ZM397.822 386.71V412.248L399.668 411.127V386.47L397.822 386.71Z" fill="#3D3D3D"/>
<path d="M412.914 411.368L409.703 409.527V384.549L412.914 384.148V411.368ZM410.345 409.126L412.352 410.327V384.789L410.345 385.029V409.126Z" fill="#3D3D3D"/>
<path d="M412.271 411.367V384.147L415.322 383.667V409.526L412.271 411.367ZM412.914 384.628V410.246L414.76 409.125V384.388L412.914 384.628Z" fill="#3D3D3D"/>
<path d="M428.004 409.366L424.793 407.525V382.387L428.004 381.986V409.366ZM425.435 407.124L427.442 408.325V382.627L425.435 382.867V407.124Z" fill="#3D3D3D"/>
<path d="M427.361 409.366V381.986L430.412 381.586V407.444L427.361 409.366ZM428.004 382.467V408.245L429.85 407.124V382.226L428.004 382.467Z" fill="#3D3D3D"/>
<path d="M443.096 407.204L439.885 405.443L439.965 379.985L443.015 378.304V407.204H443.096ZM440.527 405.123L442.453 406.244V379.344L440.527 380.385V405.123Z" fill="#3D3D3D"/>
<path d="M442.453 407.284V378.864L445.584 376.942V405.443L442.453 407.284ZM443.095 379.184V406.163L445.022 405.043V377.983L443.095 379.184Z" fill="#3D3D3D"/>
<path d="M499.207 313.696L487.246 306.411V303.049L500.25 310.494L499.207 313.696ZM487.888 306.091L498.886 312.736L499.528 310.734L487.808 304.09V306.091H487.888Z" fill="#3D3D3D"/>
<path d="M499.928 310.975L486.844 303.609L492.704 300.167L504.985 307.132C505.146 307.212 505.226 307.372 505.226 307.532C505.226 307.692 505.146 307.853 504.905 307.933L499.928 310.975ZM488.048 303.609L499.848 310.334L504.504 307.532L492.704 300.807L488.048 303.609Z" fill="#3D3D3D"/>
<path d="M439.884 380.625C439.804 380.625 439.643 380.625 439.563 380.545C439.403 380.465 439.322 380.305 439.322 380.064V377.663L439.483 377.583L494.069 346.2V349.643L493.908 349.723L440.205 380.625C440.125 380.625 440.045 380.625 439.884 380.625ZM439.964 377.983V380.064L493.426 349.242V347.241L439.964 377.983Z" fill="#3D3D3D"/>
<path d="M439.643 378.143L433.703 374.781L488.45 343.318L494.31 346.761L439.643 378.143ZM434.987 374.781L439.643 377.503L493.186 346.761L488.45 343.959L434.987 374.781Z" fill="#3D3D3D"/>
<path d="M364.668 390.872C364.508 390.872 364.428 390.872 364.347 390.792L352.467 384.067V381.505C352.467 381.345 352.547 381.185 352.708 381.105C352.868 381.025 353.029 381.025 353.27 381.105L365.551 388.07V390.151C365.551 390.392 365.391 390.632 365.15 390.792C364.909 390.872 364.829 390.872 364.668 390.872ZM353.029 383.747L364.588 390.311C364.668 390.311 364.749 390.311 364.749 390.311L364.829 390.231V388.47L353.029 381.745V383.747V383.747Z" fill="#3D3D3D"/>
<path d="M365.069 388.55L352.948 381.665C352.707 381.505 352.627 381.345 352.627 381.105C352.627 380.864 352.707 380.704 352.948 380.544L357.925 377.662L371.01 385.027L365.069 388.55ZM357.925 378.383L353.269 381.105L365.069 387.829L369.805 385.027L357.925 378.383Z" fill="#3D3D3D"/>
<path d="M366.032 388.47C365.711 388.47 365.551 388.31 365.471 388.07C365.39 387.83 365.551 387.669 365.711 387.589L370.287 384.948L434.265 374.54L439.001 377.262C439.242 377.342 439.402 377.582 439.402 377.742C439.402 377.983 439.242 378.223 439.001 378.303H438.921L366.032 388.47ZM370.448 385.508L366.514 387.83L438.68 377.742L434.185 375.1L370.448 385.508Z" fill="#3D3D3D"/>
<path d="M364.828 391.193V387.91L439.964 377.423V379.985C439.964 380.385 439.643 380.785 439.242 380.785L364.828 391.193ZM365.47 388.471V390.472L439.242 380.225C439.322 380.225 439.402 380.145 439.402 380.065V378.143L365.47 388.471Z" fill="#3D3D3D"/>
<path d="M493.909 347.241L488.049 343.798L499.608 310.494L504.665 307.532C504.746 307.452 504.906 307.452 505.067 307.452C505.227 307.532 505.388 307.692 505.388 307.932V308.013L493.909 347.241ZM488.852 343.478L493.588 346.28L504.746 308.173L500.17 310.815L488.852 343.478Z" fill="#3D3D3D"/>
<path d="M493.428 351.484V346.68L504.907 307.612H505.629L505.549 310.414L493.428 351.484ZM494.07 346.84V347.321L504.987 310.334V309.694L494.07 346.84Z" fill="#3D3D3D"/>
<path d="M413.154 374.061H412.511V292.163L410.826 291.202V372.7H410.184V290.241L413.154 291.842V374.061Z" fill="#3D3D3D"/>
<path d="M412.512 374.542V291.843L419.977 287.6L437.236 277.672L439.805 276.231V275.991H440.447V358.53L440.286 358.611L412.512 374.542ZM413.154 292.163V373.501L418.853 370.219L439.885 358.13V276.872L437.557 278.153L420.298 288.08L413.154 292.163Z" fill="#3D3D3D"/>
<path d="M412.512 371.339V291.842L419.977 287.599L437.718 277.432V356.849L422.064 365.815L412.512 371.339ZM413.154 292.162V370.218L421.743 365.175L437.075 356.368V278.392L413.154 292.162Z" fill="#3D3D3D"/>
<path d="M412.833 292.323L409.863 290.721L437.879 274.63L440.769 276.311L412.833 292.323ZM411.148 290.721L412.833 291.682L439.645 276.311L437.879 275.27L411.148 290.721Z" fill="#3D3D3D"/>
<path d="M410.104 378.704V290.801L410.264 290.721L444.942 270.387V358.21L442.373 359.731L442.052 359.651L439.965 358.53L440.286 358.05L442.213 359.09L444.3 357.89V271.508L410.746 291.122V377.584L412.592 376.463L412.512 292.162L439.885 276.071L442.534 274.63V357.089H441.892V275.59L440.206 276.551L413.154 292.483L413.234 376.783L410.104 378.704Z" fill="#3D3D3D"/>
<path d="M410.745 378.624L407.936 377.023V289.04L410.745 290.801V378.624ZM408.497 376.703L410.103 377.664V291.202L408.497 290.241V376.703Z" fill="#3D3D3D"/>
<path d="M410.425 291.281L407.615 289.68L442.454 269.186L445.263 271.027L410.425 291.281ZM408.739 289.68L410.425 290.641L444.059 270.947L442.374 269.906L408.739 289.68Z" fill="#3D3D3D"/>
<path d="M442.614 359.731H442.053L440.046 358.61H439.725V276.151L442.534 274.55V359.731H442.614ZM440.367 358.05L441.972 358.93V275.511L440.367 276.471V358.05Z" fill="#3D3D3D"/>
<path d="M440.448 358.93L437.076 356.768V277.751L440.448 275.83V358.93ZM437.718 356.448L439.886 357.809V276.871L437.718 278.152V356.448Z" fill="#3D3D3D"/>
<path d="M456.984 418.012H456.342V418.092H456.984V418.012Z" fill="#3D3D3D"/>
<path d="M484.839 435.385L484.518 434.904L498.405 426.819V382.307H499.047V427.139L484.839 435.385Z" fill="#3D3D3D"/>
<path d="M456.984 420.733H456.342V420.894H456.984V420.733Z" fill="#3D3D3D"/>
<path d="M474.107 440.965L474.051 441.021L474.449 441.418L474.506 441.361L474.107 440.965Z" fill="#3D3D3D"/>
<path d="M474.107 442.726L474.051 442.783L474.448 443.18L474.505 443.123L474.107 442.726Z" fill="#3D3D3D"/>
<path d="M458.509 419.854H457.867V420.014H458.509V419.854Z" fill="#3D3D3D"/>
<path d="M484.839 437.146L484.518 436.665L499.93 427.699V377.343H500.572V428.019L484.839 437.146Z" fill="#3D3D3D"/>
<path d="M458.509 417.131H457.867V417.211H458.509V417.131Z" fill="#3D3D3D"/>
<path d="M474.107 438.482L474.051 438.539L474.449 438.935L474.505 438.878L474.107 438.482Z" fill="#3D3D3D"/>
<path d="M462.201 417.771H461.559V417.852H462.201V417.771Z" fill="#3D3D3D"/>
<path d="M484.839 432.903L484.518 432.423L496.318 425.618V386.39H496.96V425.938L494.873 427.139L484.839 432.903Z" fill="#3D3D3D"/>
<path d="M462.201 415.05H461.559V415.13H462.201V415.05Z" fill="#3D3D3D"/>
<path d="M474.107 438.564L474.051 438.621L474.448 439.018L474.505 438.961L474.107 438.564Z" fill="#3D3D3D"/>
<path d="M484.839 432.983L484.518 432.503L495.997 425.778L492.946 424.016L484.839 428.82L484.518 428.34L492.946 423.376L497.281 425.778L484.839 432.983Z" fill="#3D3D3D"/>
<path d="M474.003 435.144L473.682 434.664L474.083 434.344L474.565 434.824L474.484 434.904L474.003 435.144Z" fill="#3D3D3D"/>
<path d="M474.003 435.144L473.682 434.664L474.083 434.344L474.565 434.824L474.484 434.904L474.003 435.144Z" fill="#3D3D3D"/>
<path d="M462.201 417.771H461.559V417.852H462.201V417.771Z" fill="#3D3D3D"/>
<path d="M484.839 428.82L484.518 428.339L492.705 423.456V388.311H493.348V424.016H493.027L484.839 428.82Z" fill="#3D3D3D"/>
<path d="M462.201 415.05H461.559V415.13H462.201V415.05Z" fill="#3D3D3D"/>
<path d="M493.267 424.176L488.852 421.935V390.152L493.267 387.75V424.176ZM489.413 421.614L492.624 423.215V388.791L489.413 390.552V421.614Z" fill="#3D3D3D"/>
<path d="M473.922 430.901L473.762 430.421L474.083 430.181L474.163 430.261L474.564 430.661L474.324 430.741L473.922 430.901Z" fill="#3D3D3D"/>
<path d="M484.839 428.819L484.518 428.339L492.304 423.696L489.093 422.095L484.839 424.576L484.518 424.096L489.093 421.454L493.588 423.696L484.839 428.819Z" fill="#3D3D3D"/>
<path d="M474.003 435.144L473.682 434.664L474.083 434.344L474.565 434.824L474.484 434.904L474.003 435.144Z" fill="#3D3D3D"/>
<path d="M458.509 419.854H457.867V420.014H458.509V419.854Z" fill="#3D3D3D"/>
<path d="M456.984 418.012H456.342V418.092H456.984V418.012Z" fill="#3D3D3D"/>
<path d="M458.509 417.131H457.867V417.211H458.509V417.131Z" fill="#3D3D3D"/>
<path d="M456.984 420.733H456.342V420.894H456.984V420.733Z" fill="#3D3D3D"/>
<path d="M474.645 435.945L474.003 435.385L473.682 435.144L474.003 434.664V434.584H474.645V435.945Z" fill="#3D3D3D"/>
<path d="M473.759 410.529L470.377 412.532L470.664 413.014L474.046 411.011L473.759 410.529Z" fill="#3D3D3D"/>
</svg>
