<svg width="700" height="700" viewBox="0 0 700 700" fill="none" xmlns="http://www.w3.org/2000/svg">
<g clip-path="url(#clip0)">
<path d="M351.837 611.903L351.677 611.823L111.277 473.422V455.993H112.075V472.945L351.837 611.027L592.795 471.99V455.038H593.594V472.468L593.354 472.627L351.837 611.903Z" fill="#3D3D3D"/>
<path d="M351.837 594.712L351.678 594.632L110.879 455.993L167.228 423.521L167.627 424.158L112.475 455.993L351.837 593.836L592.397 455.038L538.762 424.238L539.161 423.521L593.993 455.038L593.355 455.436L351.837 594.712Z" fill="#3D3D3D"/>
<path d="M351.438 612.141V594.075L351.597 593.996L593.513 454.401V472.467L593.274 472.547L351.438 612.141ZM352.236 594.473V610.709L592.795 471.99V455.754L352.236 594.473Z" fill="#3D3D3D"/>
<mask id="mask0" mask-type="alpha" maskUnits="userSpaceOnUse" x="-43" y="55" width="816" height="814">
<path d="M365.165 868.488C590.238 868.488 772.695 686.551 772.695 462.121C772.695 237.69 590.238 55.7529 365.165 55.7529C140.092 55.7529 -42.3652 237.69 -42.3652 462.121C-42.3652 686.551 140.092 868.488 365.165 868.488Z" fill="url(#paint0_radial)"/>
</mask>
<g mask="url(#mask0)">
<path d="M548.26 427.024L549.776 427.899L589.364 450.82L590.88 451.696L630.468 474.616L631.985 475.492L671.572 498.413L673.089 499.288L686.099 506.849C686.338 506.451 686.657 505.973 687.056 505.576L674.605 498.413L673.089 497.537L633.501 474.616L631.985 473.741L592.397 450.82L590.88 449.945L551.293 427.024L549.776 426.148" fill="#3D3D3D"/>
<path d="M633.26 522.289L631.744 521.413L592.156 498.493L590.639 497.617L569.888 485.6C569.489 485.998 569.01 486.395 568.451 486.555L589.043 498.493L590.56 499.368L630.147 522.289L631.664 523.164L642.12 529.213C642.279 528.735 642.519 528.258 642.838 527.86L633.26 522.289Z" fill="#3D3D3D"/>
<path d="M507.873 546.959L506.276 546.084L466.449 569.005L468.046 569.96L507.873 546.959Z" fill="#3D3D3D"/>
<path d="M548.976 570.836L547.46 569.961L507.633 592.882L509.149 593.757L548.976 570.836Z" fill="#3D3D3D"/>
<path d="M509.149 593.757L507.632 592.882L468.044 569.961L466.528 569.085L446.175 557.307C445.697 557.545 445.058 557.705 444.42 557.705C444.18 557.705 443.941 557.705 443.701 557.705L464.932 569.961L466.448 570.836L506.036 593.757L507.552 594.633L522.238 603.069C522.478 602.591 522.717 602.193 523.036 601.795L509.149 593.757Z" fill="#3D3D3D"/>
<path d="M171.217 397.895L139.132 379.352L137.615 378.476L125.803 371.632C125.484 372.03 125.085 372.428 124.686 372.746L136.019 379.352L137.536 380.227L169.78 398.93C170.259 398.532 170.658 398.214 171.217 397.895Z" fill="#3D3D3D"/>
<path d="M550.494 569.882L548.978 569.006L509.39 546.085L507.874 545.21L486.643 532.874C486.404 533.352 486.005 533.749 485.605 534.068L506.277 546.085L507.794 546.961L547.382 569.882L548.898 570.757L560.95 577.761C561.269 577.363 561.588 576.965 561.987 576.567L550.494 569.882Z" fill="#3D3D3D"/>
<path d="M213.519 374.656L180.476 355.555L178.96 354.68L166.748 347.597C166.589 348.074 166.429 348.631 166.189 349.109L177.363 355.555L178.88 356.431L211.763 375.452C212.242 375.054 212.881 374.736 213.519 374.656Z" fill="#3D3D3D"/>
<path d="M467.727 617.553L466.21 616.677L426.623 593.756L425.106 592.881L404.354 580.863C404.115 580.943 403.876 581.102 403.636 581.182C403.157 581.341 402.758 581.42 402.279 581.5L423.51 593.836L425.026 594.711L464.614 617.632L466.131 618.508L479.14 626.068C479.38 625.591 479.699 625.193 480.098 624.875L467.727 617.553Z" fill="#3D3D3D"/>
<path d="M150.786 433.868L138.894 426.944L137.377 426.068L97.7896 403.147L96.2732 402.272L78.1554 391.767C77.7563 392.165 77.1976 392.483 76.7188 392.722L94.7567 403.227L96.2732 404.102L135.861 427.023L137.377 427.899L148.631 434.425C149.27 434.027 149.988 433.868 150.786 433.868Z" fill="#3D3D3D"/>
<path d="M229.481 325.551L220.303 330.804L221.819 331.679L229.641 327.143C229.561 326.745 229.481 326.187 229.481 325.551Z" fill="#3D3D3D"/>
<path d="M220.383 332.554L218.866 331.679L179.039 354.6L180.556 355.555L220.383 332.554Z" fill="#3D3D3D"/>
<path d="M178.959 356.43L177.442 355.555L137.615 378.475L139.132 379.351L178.959 356.43Z" fill="#3D3D3D"/>
<path d="M425.105 594.632L423.589 593.757L383.682 616.678L385.278 617.553L425.105 594.632Z" fill="#3D3D3D"/>
<path d="M466.209 618.429L464.692 617.554L424.865 640.475L426.382 641.35L466.209 618.429Z" fill="#3D3D3D"/>
<path d="M426.385 641.35L424.868 640.475L385.281 617.554L383.764 616.679L363.491 604.979C363.092 605.377 362.534 605.696 362.055 605.934L382.248 617.634L383.764 618.509L423.352 641.43L424.868 642.305L437.639 649.707C437.958 649.309 438.277 648.831 438.596 648.513L426.385 641.35Z" fill="#3D3D3D"/>
<path d="M111.597 459.018L97.4694 450.821L95.953 449.945L56.3652 427.024L54.8487 426.149L40.0831 417.554C39.6841 417.952 39.2052 418.27 38.6465 418.509L53.3323 427.024L54.8487 427.9L94.4365 450.821L95.953 451.696L111.996 461.008C111.756 460.371 111.597 459.655 111.597 459.018Z" fill="#3D3D3D"/>
<path d="M137.615 380.226L136.099 379.351L96.2715 402.271L97.7879 403.147L137.615 380.226Z" fill="#3D3D3D"/>
<path d="M96.2731 404.024L94.6768 403.148L54.8496 426.069L56.3661 427.024L96.2731 404.024Z" fill="#3D3D3D"/>
<path d="M165.948 409.594L137.375 426.068L138.891 426.944L165.948 411.345C165.948 410.788 165.948 410.23 165.948 409.594Z" fill="#3D3D3D"/>
<path d="M564.461 418.428C564.381 418.269 564.301 418.03 564.142 417.791L549.695 426.068L551.212 426.943L564.86 419.064C564.78 418.905 564.621 418.666 564.461 418.428Z" fill="#3D3D3D"/>
<path d="M19.8895 448.035L54.8481 427.9L53.3316 427.024L18.373 447.08C18.8519 447.399 19.4106 447.717 19.8895 448.035Z" fill="#3D3D3D"/>
<path d="M137.377 427.9L135.86 427.024L95.9531 449.945L97.5494 450.821L137.377 427.9Z" fill="#3D3D3D"/>
<path d="M605.565 441.508L590.879 449.944L592.395 450.819L606.762 442.542C606.363 442.224 605.964 441.826 605.565 441.508Z" fill="#3D3D3D"/>
<path d="M56.9232 474.219L95.9523 451.696L94.4358 450.82L55.5664 473.184C56.0453 473.502 56.4444 473.821 56.9232 474.219Z" fill="#3D3D3D"/>
<path d="M588.723 452.969L590.878 451.696L589.362 450.82L587.766 451.775C588.165 452.094 588.484 452.492 588.723 452.969Z" fill="#3D3D3D"/>
<path d="M645.872 465.782L631.984 473.741L633.501 474.616L646.989 466.896C646.59 466.499 646.191 466.18 645.872 465.782Z" fill="#3D3D3D"/>
<path d="M125.404 480.505L95.7129 497.616L97.2294 498.491L126.84 481.46C126.361 481.221 125.803 480.903 125.404 480.505Z" fill="#3D3D3D"/>
<path d="M631.984 475.492L630.468 474.616L590.641 497.537L592.157 498.492L631.984 475.492Z" fill="#3D3D3D"/>
<path d="M684.741 490.852L673.168 497.537L674.684 498.412L684.901 492.523C684.741 492.045 684.741 491.488 684.741 490.852Z" fill="#3D3D3D"/>
<path d="M165.392 504.938L136.818 521.333L138.335 522.209L166.988 505.734C166.429 505.575 165.871 505.336 165.392 504.938Z" fill="#3D3D3D"/>
<path d="M590.638 499.367L589.042 498.412L549.215 521.413L550.811 522.288L590.638 499.367Z" fill="#3D3D3D"/>
<path d="M673.088 499.367L671.571 498.412L631.744 521.413L633.261 522.288L673.088 499.367Z" fill="#3D3D3D"/>
<path d="M132.667 525.551L136.818 523.163L135.301 522.288L131.311 524.596C131.71 524.914 132.188 525.233 132.667 525.551Z" fill="#3D3D3D"/>
<path d="M207.453 528.258L177.922 545.21L179.438 546.085L208.89 529.133C208.331 528.894 207.852 528.656 207.453 528.258Z" fill="#3D3D3D"/>
<path d="M549.217 523.164L547.7 522.288L507.873 545.209L509.39 546.084L549.217 523.164Z" fill="#3D3D3D"/>
<path d="M631.744 523.164L630.147 522.288L590.32 545.209L591.917 546.084L631.744 523.164Z" fill="#3D3D3D"/>
<path d="M170.818 551.098L177.921 547.039L176.405 546.164L169.461 550.223C169.86 550.462 170.339 550.78 170.818 551.098Z" fill="#3D3D3D"/>
<path d="M248.796 551.895L219.025 569.006L220.542 569.881L250.073 552.85C249.594 552.69 249.195 552.372 248.796 551.895Z" fill="#3D3D3D"/>
<path d="M590.32 546.959L588.804 546.084L548.977 569.005L550.493 569.88L590.32 546.959Z" fill="#3D3D3D"/>
<path d="M209.767 576.169L219.025 570.836L217.509 569.961L208.33 575.293C208.729 575.532 209.288 575.85 209.767 576.169Z" fill="#3D3D3D"/>
<path d="M289.9 575.771L260.209 592.882L261.725 593.757L291.177 576.805C290.618 576.566 290.219 576.168 289.9 575.771Z" fill="#3D3D3D"/>
<path d="M466.447 570.837L464.931 569.882L425.104 592.803L426.62 593.758L466.447 570.837Z" fill="#3D3D3D"/>
<path d="M249.753 600.601L260.129 594.632L258.612 593.757L248.316 599.726C248.795 599.965 249.274 600.283 249.753 600.601Z" fill="#3D3D3D"/>
<path d="M330.845 599.885C330.766 599.805 330.766 599.805 330.686 599.726L301.234 616.678L302.751 617.553L332.043 600.681C331.644 600.442 331.165 600.203 330.845 599.885Z" fill="#3D3D3D"/>
<path d="M507.555 594.632L506.038 593.757L466.211 616.678L467.727 617.553L507.555 594.632Z" fill="#3D3D3D"/>
<path d="M227.965 335.181L221.899 331.679L220.383 330.804L206.814 322.925C206.415 323.323 206.016 323.641 205.537 323.959L218.786 331.679L220.303 332.555L227.885 336.216C227.885 335.897 227.965 335.579 227.965 335.181Z" fill="#3D3D3D"/>
<path d="M591.918 546.085L590.401 545.209L550.813 522.289L549.297 521.413L528.785 509.555C528.306 509.953 527.667 510.191 526.869 510.191L547.701 522.289L549.217 523.164L588.805 546.085L590.321 546.96L601.016 553.168C601.256 552.69 601.495 552.293 601.815 551.895L591.918 546.085Z" fill="#3D3D3D"/>
<path d="M290.618 624.557L301.313 618.429L299.797 617.554L289.182 623.682C289.581 624 290.06 624.239 290.618 624.557Z" fill="#3D3D3D"/>
<path d="M383.761 618.429L382.165 617.554L342.338 640.475L343.934 641.35L383.761 618.429Z" fill="#3D3D3D"/>
<path d="M331.802 648.353L342.417 642.225L340.9 641.35L330.285 647.478C330.764 647.796 331.243 648.035 331.802 648.353Z" fill="#3D3D3D"/>
<path d="M424.865 642.225L423.269 641.35L383.441 664.271L385.038 665.226L424.865 642.225Z" fill="#3D3D3D"/>
<path d="M373.145 672.07L383.521 666.101L382.005 665.226L371.629 671.195C372.108 671.433 372.587 671.752 373.145 672.07Z" fill="#3D3D3D"/>
<path d="M404.434 676.448L385.039 665.226L383.523 664.351L343.935 641.43L342.418 640.554L302.751 617.554L301.234 616.678L261.647 593.758L260.13 592.882L220.542 569.882L219.026 569.006L179.438 546.085L177.922 545.21L138.334 522.289L136.818 521.414L97.2298 498.493L95.7133 497.617L62.1914 478.198C66.3417 481.302 70.4921 484.247 74.7222 487.271L94.1968 498.572L95.7133 499.448L135.301 522.369L136.818 523.244L176.405 546.165L177.922 547.04L217.509 569.961L219.026 570.837L258.614 593.758L260.13 594.633L299.718 617.554L301.234 618.429L340.822 641.35L342.339 642.226L381.926 665.147L383.443 666.022L403.237 677.482C403.636 677.164 403.955 676.766 404.434 676.448Z" fill="#3D3D3D"/>
<path d="M245.445 447.875C245.365 447.955 245.285 448.114 245.205 448.193L289.183 473.502L289.342 473.183L245.445 447.875Z" fill="#3D3D3D"/>
<path d="M290.22 403.068L227.486 368.448L228.045 365.901L290.619 400.362L290.22 401.795V403.068V403.068Z" fill="#3D3D3D"/>
<path d="M166.428 403.307L166.029 402.113V400.521L228.125 365.901L228.923 368.448L166.428 403.307Z" fill="#3D3D3D"/>
<path d="M228.282 409.514V367.254H228.123L228.043 409.435C228.043 409.435 228.123 409.514 228.282 409.514Z" fill="#3D3D3D"/>
<path d="M208.01 449.785L167.465 473.343V473.502L208.09 449.944C208.09 449.865 208.01 449.865 208.01 449.785Z" fill="#3D3D3D"/>
<path d="M227.485 480.904C225.649 480.904 223.813 480.586 222.377 479.869C220.222 478.835 219.902 477.482 219.902 476.845L219.982 464.907H221.578C221.578 465.464 222.137 466.021 223.175 466.499C225.649 467.693 229.64 467.693 232.034 466.499C232.992 466.021 233.551 465.464 233.551 464.907H235.147L235.067 476.845C235.067 477.561 234.748 478.835 232.673 479.869C231.156 480.586 229.32 480.904 227.485 480.904ZM221.499 467.374V476.845C221.499 477.402 222.057 477.959 223.095 478.437C225.489 479.551 229.56 479.551 231.954 478.437C232.912 477.959 233.471 477.402 233.471 476.845V467.454C233.231 467.613 232.992 467.772 232.673 467.932C229.799 469.284 225.33 469.284 222.377 467.932C222.057 467.772 221.738 467.534 221.499 467.374Z" fill="#424242"/>
<path d="M227.485 480.904C225.649 480.904 223.813 480.586 222.377 479.869C220.222 478.835 219.902 477.482 219.902 476.845L219.982 464.907H221.578C221.578 465.464 222.137 466.021 223.175 466.499C225.649 467.693 229.64 467.693 232.034 466.499C232.992 466.021 233.551 465.464 233.551 464.907H235.147L235.067 476.845C235.067 477.561 234.748 478.835 232.673 479.869C231.156 480.586 229.32 480.904 227.485 480.904ZM221.499 467.374V476.845C221.499 477.402 222.057 477.959 223.095 478.437C225.489 479.551 229.56 479.551 231.954 478.437C232.912 477.959 233.471 477.402 233.471 476.845V467.454C233.231 467.613 232.992 467.772 232.673 467.932C229.799 469.284 225.33 469.284 222.377 467.932C222.057 467.772 221.738 467.534 221.499 467.374Z" fill="#424242"/>
<path d="M227.565 468.966C225.729 468.966 223.893 468.648 222.457 467.931C220.302 466.897 219.982 465.623 219.982 464.907C219.982 464.191 220.302 462.918 222.377 461.883C225.25 460.53 229.8 460.53 232.673 461.883C234.828 462.918 235.147 464.191 235.147 464.907C235.147 465.623 234.828 466.897 232.753 467.931C231.236 468.568 229.4 468.966 227.565 468.966ZM227.485 462.44C225.889 462.44 224.213 462.758 223.015 463.315C222.058 463.793 221.499 464.35 221.499 464.907C221.499 465.464 222.058 466.021 223.095 466.499C225.569 467.693 229.56 467.693 231.955 466.499C232.912 466.021 233.471 465.464 233.471 464.907C233.471 464.35 232.912 463.793 231.955 463.315C230.757 462.758 229.161 462.44 227.485 462.44Z" fill="#424242"/>
<path d="M227.488 479.789C225.014 479.789 222.46 479.312 220.544 478.356C218.469 477.322 217.272 475.969 217.351 474.457L217.431 457.982H219.028C219.028 458.858 219.905 459.733 221.342 460.45C224.774 462.121 230.441 462.121 233.873 460.45C235.31 459.733 236.108 458.858 236.188 457.982H237.784L237.704 474.457C237.704 475.969 236.587 477.322 234.511 478.356C232.436 479.312 229.962 479.789 227.488 479.789ZM218.948 460.848L218.868 474.457C218.868 475.332 219.746 476.208 221.182 476.924C224.614 478.595 230.281 478.595 233.713 476.924C235.15 476.208 236.028 475.332 236.028 474.457L236.108 460.848C235.629 461.166 235.15 461.564 234.511 461.803C230.601 463.633 224.535 463.633 220.624 461.803C219.905 461.564 219.347 461.245 218.948 460.848Z" fill="#424242"/>
<path d="M227.487 463.235C225.013 463.235 222.459 462.757 220.543 461.802C218.468 460.927 217.67 459.574 217.43 458.539C216.792 457.664 215.834 456.629 214.797 455.435C210.806 451.138 204.82 444.691 203.942 433.47C203.383 426.307 205.618 419.462 210.008 414.767C214.158 410.23 220.224 407.843 227.327 407.843C241.614 407.843 250.234 417.473 250.394 433.708C250.473 444.373 244.408 450.979 240.337 455.356C239.14 456.629 238.102 457.743 237.544 458.698C237.065 459.972 235.947 461.086 234.511 461.723C232.515 462.837 230.041 463.235 227.487 463.235ZM227.327 409.594C220.623 409.594 215.036 411.822 211.125 415.961C207.055 420.338 204.979 426.784 205.458 433.47C206.256 444.134 212.083 450.342 215.834 454.48C217.031 455.754 218.069 456.868 218.707 457.903L218.787 457.982V458.141C219.027 459.176 219.745 459.892 221.022 460.449L221.102 460.529C224.534 462.2 230.201 462.2 233.633 460.529C234.83 459.972 235.628 459.176 235.947 458.3L236.027 458.141C236.745 457.107 237.783 455.913 239.06 454.48C243.131 450.024 248.717 443.895 248.717 433.947C248.717 418.667 240.656 409.594 227.327 409.594Z" fill="#424242"/>
<path d="M205.697 412.221C205.218 412.221 204.819 412.142 204.42 411.903L194.523 406.173C193.964 405.854 193.486 405.297 193.326 404.581C193.166 403.865 193.246 403.228 193.565 402.671C193.885 402.114 194.443 401.636 195.162 401.477C195.8 401.318 196.518 401.397 197.077 401.716L206.974 407.446C207.533 407.764 208.012 408.321 208.171 409.038C208.331 409.674 208.251 410.391 207.932 410.948C207.453 411.744 206.655 412.221 205.697 412.221ZM195.8 402.989C195.72 402.989 195.641 402.989 195.561 402.989C195.321 403.069 195.082 403.228 195.002 403.467C194.842 403.705 194.842 403.944 194.922 404.183C195.002 404.422 195.162 404.66 195.401 404.74L205.298 410.47C205.777 410.709 206.336 410.55 206.655 410.152C206.814 409.913 206.814 409.674 206.735 409.436C206.655 409.197 206.495 408.958 206.256 408.879L196.359 403.148C196.199 403.069 196.04 402.989 195.8 402.989Z" fill="#424242"/>
<path d="M247.519 413.733C246.641 413.733 245.843 413.255 245.364 412.539C245.045 411.982 244.965 411.345 245.125 410.709C245.284 410.072 245.683 409.515 246.242 409.197L255.501 403.864C256.059 403.546 256.698 403.466 257.336 403.625C257.975 403.785 258.534 404.183 258.853 404.74C259.172 405.297 259.252 405.933 259.092 406.57C258.933 407.207 258.534 407.764 257.975 408.082L248.716 413.415C248.317 413.574 247.918 413.733 247.519 413.733ZM256.778 405.058C256.618 405.058 256.458 405.058 256.379 405.138L247.12 410.47C246.881 410.55 246.801 410.788 246.721 411.027C246.641 411.266 246.721 411.505 246.801 411.664C247.04 412.062 247.599 412.221 247.998 411.982L257.256 406.65C257.496 406.57 257.576 406.331 257.656 406.093C257.735 405.854 257.656 405.615 257.576 405.456C257.496 405.217 257.256 405.138 257.017 405.058C256.937 405.058 256.857 405.058 256.778 405.058Z" fill="#424242"/>
<path d="M227.566 405.217C226.209 405.217 225.012 404.103 225.012 402.67V392.165C225.012 390.812 226.129 389.618 227.566 389.618C229.002 389.618 230.12 390.732 230.12 392.165V402.67C230.04 404.103 228.923 405.217 227.566 405.217ZM227.566 391.289C227.087 391.289 226.608 391.687 226.608 392.245V402.75C226.608 403.227 227.007 403.705 227.566 403.705C228.124 403.705 228.524 403.307 228.524 402.75V392.245C228.444 391.767 228.045 391.289 227.566 391.289Z" fill="#424242"/>
<path d="M224.294 458.699L223.815 457.585C223.735 457.426 220.702 450.343 219.106 445.647C218.707 444.533 219.266 442.304 220.303 440.792C220.622 440.394 221.101 439.758 221.82 439.36C222.698 438.802 223.735 438.723 224.773 439.041C225.411 439.2 226.289 439.041 227.247 438.484C228.285 437.927 229.163 436.972 229.641 436.097C230.28 434.744 231.238 433.629 232.195 433.072C232.754 432.754 233.233 432.595 233.792 432.595C234.43 432.595 235.069 432.913 235.468 433.391C236.106 434.186 236.266 435.38 235.947 436.813C235.228 440.155 232.595 453.048 232.595 453.208L232.435 454.004L224.294 458.699ZM223.336 441.668C223.097 441.668 222.937 441.747 222.698 441.827C222.538 441.906 222.299 442.066 222.139 442.304C221.58 443.1 221.421 444.135 221.5 444.374C222.698 447.955 224.853 453.048 225.651 455.038L230.2 452.412L230.44 451.138C231.238 447.318 232.834 439.36 233.393 436.813C233.632 435.858 233.393 435.619 233.393 435.539C233.393 435.539 233.393 435.539 233.313 435.539C233.313 435.539 233.153 435.539 232.994 435.619C232.754 435.778 232.275 436.097 231.796 437.131C231.078 438.643 229.721 440.076 228.125 441.031C226.608 441.906 225.092 442.225 223.815 441.827C223.655 441.747 223.496 441.668 223.336 441.668Z" fill="#424242"/>
<path d="M211.684 434.505C211.604 434.505 211.604 434.505 211.684 434.505C211.284 434.505 210.965 434.187 210.885 433.789C210.167 427.979 211.284 423.363 214.397 419.862C219.904 413.654 229.402 413.574 229.801 413.574C230.2 413.574 230.52 413.893 230.599 414.29C230.679 414.688 230.44 415.086 230.041 415.166C229.881 415.246 214.956 419.702 212.482 433.869C212.402 434.267 212.003 434.505 211.684 434.505ZM224.135 416.041C221.261 416.837 217.909 418.27 215.515 420.976C213.679 423.045 212.641 425.592 212.322 428.616C215.036 422.17 220.224 418.27 224.135 416.041Z" fill="#424242"/>
<path d="M227.805 510.192L226.688 436.972L290.698 400.283V474.219L227.805 510.192ZM229.242 438.644V506.69L288.064 472.786V404.74L229.242 438.644Z" fill="#3D3D3D"/>
<path d="M227.805 510.191L165.869 474.298V400.362L229.241 437.211L227.805 510.191ZM168.423 472.945L226.608 506.69V438.643L168.663 404.74L168.423 472.945Z" fill="#3D3D3D"/>
<path d="M502.687 453.128C502.607 453.208 502.527 453.367 502.447 453.446L537.486 473.661L537.645 473.343L502.687 453.128Z" fill="#3D3D3D"/>
<path d="M476.587 397.178V367.254H476.427L476.348 397.099C476.348 397.099 476.507 397.178 476.587 397.178Z" fill="#3D3D3D"/>
<path d="M444.98 456.392L415.768 473.344V473.503L445.139 456.471C445.059 456.471 444.98 456.471 444.98 456.392Z" fill="#3D3D3D"/>
<path d="M538.523 403.068L475.789 368.448L476.348 365.901L538.922 400.362L538.523 401.795V403.068Z" fill="#3D3D3D"/>
<path d="M414.731 403.307L414.332 402.113V400.521L476.427 365.901L477.225 368.448L414.731 403.307Z" fill="#3D3D3D"/>
<path d="M478.901 476.049L468.925 470.239L468.605 469.125L469.404 467.692L470.282 467.294C472.915 467.931 475.789 467.613 478.981 466.419L480.099 467.135V475.253L478.901 476.049ZM470.441 469.284L478.502 473.98V468.409C475.709 469.364 472.995 469.602 470.601 469.125L470.441 469.284Z" fill="#424242"/>
<path d="M505.56 423.284L504.363 422.727C503.804 419.464 502.607 416.758 500.771 414.848L500.691 413.892L501.569 412.301L502.687 411.982L512.663 417.792V419.145L505.56 423.284ZM502.288 414.211C503.884 416.041 505.081 418.508 505.64 421.374L510.588 418.508L502.527 413.813L502.288 414.211Z" fill="#424242"/>
<path d="M492.071 428.059C491.991 427.899 491.832 427.74 491.752 427.661L492.949 426.626C493.109 426.785 493.268 427.024 493.428 427.183L492.071 428.059Z" fill="#424242"/>
<path d="M476.028 454.64C475.868 454.561 475.708 454.561 475.549 454.481L476.108 452.969C476.267 453.048 476.347 453.048 476.507 453.128L476.028 454.64Z" fill="#424242"/>
<path d="M477.224 454.879C477.065 454.879 476.905 454.879 476.746 454.8L476.985 453.208C477.065 453.208 477.224 453.208 477.304 453.288L477.224 454.879Z" fill="#424242"/>
<path d="M480.657 454.48L480.178 452.968C480.337 452.889 480.577 452.809 480.816 452.729L481.375 454.242C481.135 454.321 480.896 454.401 480.657 454.48Z" fill="#424242"/>
<path d="M459.346 474.377L447.374 467.453L447.055 466.339L451.125 459.256L452.243 458.938L454.238 460.052L454.797 460.29L455.914 459.495L456.792 459.415L465.173 464.27L465.492 465.384L460.463 473.979L459.346 474.377ZM448.89 466.498L459.506 472.626L463.736 465.384L456.473 461.166L455.435 461.962L454.637 462.041L453.599 461.564L452.243 460.768L448.89 466.498Z" fill="#424242"/>
<path d="M464.376 465.782L455.996 460.928L455.916 459.575L460.465 456.152L461.742 456.63C462.301 459.972 463.578 462.678 465.334 464.509L464.376 465.782ZM457.832 460.132L461.982 462.519C461.343 461.246 460.785 459.734 460.386 458.142L457.832 460.132Z" fill="#424242"/>
<path d="M487.123 412.857L486.006 412.061L486.804 406.251L488.001 405.694L496.382 410.549L495.823 411.982C493.429 411.425 490.635 411.663 487.522 412.698L487.123 412.857ZM488.161 407.684L487.762 411.027C489.358 410.549 490.954 410.231 492.471 410.151L488.161 407.684Z" fill="#424242"/>
<path d="M460.465 448.752L448.493 441.828L448.094 441.032C448.652 436.814 449.93 432.516 451.925 428.218L453.042 427.82L465.014 434.665L465.334 435.699C463.418 439.838 462.141 444.136 461.582 448.194L460.465 448.752ZM449.77 440.713L460.225 446.762C460.864 443.101 461.981 439.281 463.578 435.62L452.962 429.571C451.446 433.312 450.329 437.052 449.77 440.713Z" fill="#424242"/>
<path d="M469.563 426.865L457.671 419.862L457.432 418.748C460.145 414.927 463.338 411.585 466.77 408.958L467.648 408.879L479.62 415.803L479.7 417.156L479.381 417.395C479.221 417.474 479.061 417.633 478.981 417.713L478.662 417.952C478.582 418.031 478.503 418.111 478.423 418.191L478.183 418.429C478.024 418.588 477.864 418.748 477.704 418.827L477.625 418.907C477.465 419.066 477.305 419.225 477.146 419.384C476.986 419.543 476.827 419.703 476.667 419.862L476.587 419.941C476.427 420.101 476.268 420.18 476.188 420.339L475.629 420.896C475.47 421.056 475.31 421.215 475.15 421.454C474.991 421.613 474.831 421.772 474.672 421.931L474.512 422.09C474.352 422.249 474.272 422.409 474.113 422.488C473.953 422.647 473.794 422.886 473.634 423.045C473.474 423.204 473.315 423.364 473.155 423.523L473.075 423.682C472.916 423.841 472.836 424 472.676 424.159C472.357 424.557 472.038 424.955 471.798 425.274C471.479 425.672 471.16 426.07 470.84 426.547L470.761 426.706L469.563 426.865ZM459.188 418.986L469.723 425.194C469.883 424.955 470.122 424.637 470.282 424.398C470.601 424 470.92 423.602 471.239 423.204C471.399 423.045 471.479 422.886 471.639 422.727L471.798 422.568C471.958 422.409 472.117 422.17 472.277 422.011C472.437 421.851 472.596 421.613 472.756 421.454C472.916 421.294 472.995 421.135 473.155 421.056L473.315 420.817C473.474 420.658 473.634 420.499 473.794 420.339C473.953 420.18 474.113 419.941 474.352 419.782L474.911 419.225C475.071 419.066 475.23 418.907 475.39 418.748L475.549 418.588C475.709 418.429 475.869 418.35 475.949 418.191C476.188 417.952 476.348 417.793 476.507 417.713L476.587 417.633C476.747 417.474 476.906 417.395 477.066 417.235L477.385 416.997C477.465 416.917 477.545 416.838 477.625 416.758L477.784 416.599L467.329 410.55C464.375 412.858 461.582 415.803 459.188 418.986Z" fill="#424242"/>
<path d="M454.239 452.81H453.441L441.469 445.885V444.533L448.492 440.474H449.291L461.263 447.398V448.751L454.239 452.81ZM443.464 445.169L453.84 451.138L459.347 447.955L448.971 441.986L443.464 445.169Z" fill="#424242"/>
<path d="M453.441 461.564L441.469 454.64L441.07 453.924V445.169L442.268 444.453L454.24 451.377L454.639 452.093V460.848L453.441 461.564ZM442.667 453.446L453.042 459.415V452.491L442.667 446.522V453.446Z" fill="#424242"/>
<path d="M478.742 417.234L466.77 410.31L466.371 409.594V401.476L467.568 400.76L479.54 407.684L479.939 408.4V416.518L478.742 417.234ZM467.967 409.116L478.343 415.085V408.878L467.967 402.909V409.116Z" fill="#424242"/>
<path d="M479.542 409.117H478.744L466.771 402.193V400.84L474.434 396.463H475.232L487.204 403.387V404.74L479.542 409.117ZM468.767 401.477L479.143 407.446L485.209 403.944L474.833 397.975L468.767 401.477Z" fill="#424242"/>
<path d="M459.268 433.232L447.296 426.308L446.977 425.193L452.324 415.882L453.441 415.563L465.414 422.487L465.653 423.602L460.305 432.834L459.268 433.232ZM448.732 425.353L459.348 431.481L463.897 423.602L453.282 417.474L448.732 425.353Z" fill="#424242"/>
<path d="M477.227 454.88C477.067 454.88 476.907 454.88 476.748 454.8L476.987 453.208C477.067 453.208 477.227 453.208 477.306 453.288L477.227 454.88ZM476.029 454.641C475.87 454.561 475.71 454.561 475.551 454.482L476.109 452.97C476.269 453.049 476.349 453.049 476.508 453.129L476.029 454.641ZM480.659 454.482L480.18 452.97C480.339 452.89 480.579 452.81 480.818 452.731L481.377 454.243C481.138 454.323 480.898 454.402 480.659 454.482ZM464.297 436.018L459.268 433.312L458.949 432.198L459.029 432.118L460.146 431.8L465.175 434.665L464.297 436.018ZM492.072 428.059C491.992 427.9 491.833 427.741 491.753 427.661L492.95 426.627C493.11 426.786 493.269 427.024 493.429 427.184L492.072 428.059ZM469.564 426.865L464.616 423.921L464.377 422.806L464.456 422.727L465.574 422.408L466.532 422.966L469.884 424.876C472.039 421.931 474.593 419.225 477.386 416.917L478.424 418.111L477.626 418.827C477.466 418.986 477.306 419.145 477.147 419.305C476.987 419.464 476.828 419.623 476.668 419.782L476.588 419.862C476.429 420.021 476.269 420.1 476.189 420.26L475.63 420.817C475.471 420.976 475.311 421.135 475.151 421.374C474.992 421.533 474.832 421.692 474.673 421.851L474.513 422.011C474.353 422.17 474.274 422.329 474.114 422.408C473.954 422.568 473.795 422.806 473.635 422.966C473.475 423.125 473.316 423.284 473.156 423.443L473.076 423.602C472.917 423.761 472.837 423.921 472.677 424.08C472.358 424.478 472.039 424.876 471.799 425.194C471.48 425.592 471.161 425.99 470.842 426.467L470.762 426.627L469.564 426.865Z" fill="#424242"/>
<path d="M495.503 411.903L487.123 407.048L486.723 406.252L486.883 404.979L486.404 404.74L484.329 403.546L484.01 402.432L488.16 395.189L489.278 394.871L501.25 401.795L501.569 402.909L496.541 411.505L495.503 411.903ZM488.4 405.934L495.663 410.152L499.893 402.909L489.278 396.781L485.925 402.591L487.202 403.307L488.16 403.785L488.639 404.581L488.4 405.934Z" fill="#424242"/>
<path d="M512.264 427.263L513.302 418.986L512.264 418.508L505.161 422.567C504.602 419.065 503.245 416.28 501.33 414.29L502.208 412.698L506.278 405.695L500.851 402.591L495.903 411.186C493.349 410.549 490.395 410.788 487.203 411.982C487.043 412.062 486.963 412.062 486.804 412.141L487.602 406.331L487.841 404.501L486.804 404.023L485.208 404.978L479.78 408.082L479.142 408.48V416.598C479.062 416.678 478.902 416.757 478.822 416.837C478.663 416.916 478.503 417.076 478.423 417.155C478.344 417.235 478.264 417.314 478.104 417.394C478.024 417.473 477.944 417.553 477.865 417.633C477.785 417.712 477.705 417.792 477.625 417.871C477.466 418.031 477.306 418.11 477.146 418.269L477.067 418.349C476.907 418.508 476.747 418.667 476.588 418.826C476.588 418.826 476.588 418.826 476.508 418.906C476.348 419.065 476.189 419.224 476.029 419.304L475.949 419.384C475.789 419.543 475.71 419.622 475.55 419.781C475.47 419.861 475.47 419.861 475.39 419.941C475.231 420.1 475.071 420.259 474.991 420.418C474.832 420.577 474.672 420.737 474.512 420.975C474.353 421.134 474.193 421.294 474.034 421.453C473.954 421.532 473.874 421.612 473.874 421.612C473.714 421.771 473.635 421.93 473.475 422.01C473.315 422.169 473.156 422.408 472.996 422.567C472.836 422.726 472.677 422.965 472.517 423.124C472.437 423.204 472.437 423.204 472.357 423.283C472.198 423.442 472.118 423.602 471.958 423.761C471.639 424.159 471.32 424.557 471.08 424.955C470.761 425.353 470.442 425.83 470.123 426.228L470.043 426.308L465.094 423.363L459.827 432.515L464.855 435.38C462.939 439.519 461.662 443.896 461.104 448.114L454.08 452.173V452.73V458.779V460.848L455.118 461.326L456.554 460.211L461.104 456.789C461.662 460.291 463.019 463.156 464.935 465.066L459.986 473.661L465.414 476.606L469.564 469.523L470.362 468.09C472.996 468.727 476.109 468.409 479.461 467.135V475.253L480.499 475.731L487.123 470.876V462.758C490.475 460.211 493.668 456.63 496.302 452.969L501.33 455.834L506.598 446.841L501.569 443.976C503.485 439.837 504.762 435.54 505.321 431.321L512.264 427.263ZM483.053 452.571C482.973 452.571 482.973 452.651 482.893 452.651C482.813 452.73 482.653 452.81 482.574 452.81C482.414 452.889 482.254 452.969 482.095 453.049C482.015 453.049 481.935 453.128 481.855 453.128C481.696 453.208 481.616 453.208 481.456 453.287C481.297 453.367 481.217 453.367 481.057 453.446C480.818 453.526 480.658 453.606 480.419 453.685C479.541 453.924 478.663 454.083 477.865 454.083C477.785 454.083 477.785 454.083 477.705 454.083C477.625 454.083 477.625 454.083 477.545 454.083C477.466 454.083 477.386 454.083 477.306 454.083C477.146 454.083 477.067 454.083 476.907 454.004C476.827 454.004 476.747 454.004 476.747 454.004C476.667 454.004 476.667 454.004 476.588 454.004C476.508 454.004 476.508 454.004 476.428 454.004C476.348 454.004 476.348 454.004 476.268 453.924C476.109 453.844 475.949 453.844 475.869 453.765C475.79 453.765 475.789 453.765 475.71 453.685C475.63 453.685 475.63 453.606 475.55 453.606C475.39 453.526 475.231 453.446 475.151 453.367C473.156 452.173 471.879 449.706 471.879 446.204V446.125C471.879 445.806 471.879 445.567 471.879 445.249C472.278 438.643 476.747 430.924 482.334 427.342C482.574 427.183 482.813 427.024 483.053 426.944C486.245 425.114 489.118 424.955 491.194 426.228C491.273 426.228 491.273 426.308 491.353 426.308C491.433 426.308 491.433 426.387 491.513 426.387C491.593 426.387 491.593 426.467 491.672 426.467L491.752 426.546C491.832 426.626 491.912 426.705 491.992 426.785L492.072 426.865L492.151 426.944C492.231 427.024 492.311 427.103 492.391 427.183C492.55 427.342 492.63 427.501 492.79 427.661C492.87 427.74 492.87 427.82 492.949 427.82L493.029 427.899C493.029 427.979 493.109 427.979 493.109 428.058C493.109 428.138 493.189 428.138 493.189 428.218C493.189 428.297 493.269 428.297 493.269 428.377C493.349 428.456 493.349 428.616 493.428 428.695C493.428 428.775 493.508 428.775 493.508 428.854C493.508 428.934 493.588 429.013 493.588 429.093C493.588 429.173 493.588 429.173 493.668 429.252C493.668 429.332 493.748 429.411 493.748 429.491C493.748 429.571 493.827 429.65 493.827 429.73C493.907 429.889 493.907 430.048 493.987 430.128C493.987 430.207 494.067 430.287 494.067 430.446C494.067 430.446 494.067 430.446 494.067 430.526C494.067 430.605 494.067 430.605 494.067 430.685C494.067 430.844 494.147 431.003 494.147 431.162C494.147 431.242 494.147 431.321 494.227 431.401C494.227 431.56 494.306 431.799 494.306 432.038C494.306 432.117 494.306 432.197 494.306 432.277C494.306 432.356 494.306 432.515 494.306 432.595C494.306 432.674 494.306 432.754 494.306 432.834C494.306 432.913 494.306 432.993 494.306 433.072C494.306 433.152 494.306 433.232 494.306 433.311C494.306 440.315 489.278 448.99 483.053 452.571Z" stroke="#424242" stroke-width="2" stroke-miterlimit="10" stroke-linejoin="bevel"/>
<path d="M478.024 454.879C477.944 454.879 477.865 454.879 477.865 454.879H477.705C477.625 454.879 477.545 454.879 477.545 454.879C477.465 454.879 477.386 454.879 477.306 454.879C477.146 454.879 476.987 454.879 476.827 454.799L476.268 454.64C476.188 454.64 476.188 454.64 476.109 454.561C475.949 454.481 475.789 454.481 475.63 454.402L475.47 454.322C475.39 454.322 475.39 454.242 475.311 454.242C475.151 454.163 474.991 454.083 474.832 454.004C472.437 452.651 471.16 449.865 471.16 446.125V446.045C471.16 445.727 471.16 445.408 471.16 445.17L471.559 444.533C476.907 441.031 481.297 433.63 481.616 427.183L482.015 426.546C482.254 426.387 482.494 426.228 482.733 426.069C486.085 424.159 489.278 423.92 491.672 425.353L492.151 425.671C492.311 425.75 492.391 425.83 492.471 425.989L492.71 426.228C492.79 426.308 492.87 426.387 492.949 426.546C493.109 426.706 493.269 426.865 493.348 427.103C493.428 427.183 493.428 427.263 493.508 427.342L493.827 427.82C493.827 427.82 493.907 427.899 493.907 427.979C493.987 428.058 493.987 428.218 494.067 428.297C494.067 428.377 494.147 428.377 494.147 428.456C494.147 428.536 494.226 428.616 494.226 428.695C494.226 428.695 494.226 428.775 494.306 428.854C494.306 428.934 494.386 429.014 494.386 429.093C494.386 429.173 494.466 429.252 494.466 429.332C494.546 429.491 494.546 429.65 494.626 429.809C494.626 429.889 494.705 430.048 494.705 430.128L494.785 430.366C494.785 430.526 494.865 430.685 494.865 430.844C494.865 430.924 494.865 431.083 494.945 431.162C494.945 431.401 495.025 431.56 495.025 431.799V432.038C495.025 432.117 495.025 432.277 495.025 432.356C495.025 432.436 495.025 432.515 495.025 432.595V433.072C495.025 440.394 489.837 449.388 483.452 453.128L482.893 453.447C482.733 453.526 482.494 453.606 482.334 453.685C482.175 453.765 482.095 453.765 482.095 453.844C481.935 453.924 481.855 453.924 481.696 454.004C481.536 454.083 481.456 454.083 481.297 454.163C481.057 454.242 480.818 454.322 480.578 454.402C479.78 454.72 478.902 454.879 478.024 454.879ZM472.597 445.647C472.597 445.806 472.597 445.886 472.597 446.045V446.125C472.597 449.228 473.634 451.536 475.47 452.651C475.63 452.73 475.71 452.81 475.789 452.81L476.029 452.889C476.188 452.969 476.348 452.969 476.428 453.049L476.987 453.208C477.146 453.208 477.226 453.287 477.386 453.287H477.865C478.583 453.287 479.381 453.208 480.179 452.969C480.339 452.889 480.578 452.81 480.818 452.73C480.897 452.73 481.057 452.651 481.137 452.571C481.297 452.491 481.376 452.491 481.456 452.412L481.616 452.332C481.855 452.253 482.015 452.173 482.174 452.094L482.653 451.855C488.639 448.433 493.508 440.076 493.428 433.152V432.515C493.428 432.436 493.428 432.277 493.428 432.197V432.038C493.428 431.799 493.348 431.56 493.348 431.401C493.348 431.322 493.348 431.242 493.348 431.162C493.348 431.003 493.269 430.844 493.269 430.685L493.189 430.526C493.189 430.446 493.109 430.366 493.109 430.287C493.109 430.128 493.029 430.048 493.029 429.889C493.029 429.809 492.949 429.73 492.949 429.65C492.949 429.571 492.87 429.491 492.87 429.411L492.79 429.332C492.79 429.252 492.71 429.173 492.71 429.093L492.63 429.014C492.55 428.854 492.55 428.775 492.471 428.695C492.471 428.616 492.391 428.616 492.391 428.616L492.071 428.138C491.912 427.979 491.832 427.82 491.672 427.661C491.593 427.581 491.513 427.501 491.513 427.422L491.353 427.263C491.273 427.183 491.193 427.103 491.114 427.103L490.715 426.785C488.799 425.591 486.245 425.91 483.372 427.501C483.292 427.581 483.132 427.661 483.052 427.74C482.494 434.346 478.104 441.907 472.597 445.647Z" fill="#424242"/>
<path d="M476.108 510.271L414.172 474.377V400.441L477.544 437.29L476.108 510.271ZM416.726 472.945L474.91 506.689V438.643L416.886 404.739L416.726 472.945Z" fill="#3D3D3D"/>
<path d="M476.11 510.271L474.992 437.052L539.003 400.362V474.298L476.11 510.271ZM477.546 438.643V506.69L536.369 472.786V404.74L477.546 438.643Z" fill="#3D3D3D"/>
<path d="M394.857 462.121C394.857 462.28 394.857 462.439 394.777 462.519L413.933 473.581L414.092 473.263L394.857 462.121Z" fill="#3D3D3D"/>
<path d="M415.052 403.068L352.238 368.448L352.797 365.901L415.371 400.362L414.972 401.795V403.068H415.052Z" fill="#3D3D3D"/>
<path d="M291.18 403.307L290.781 402.113V400.521L352.877 365.901L353.675 368.448L291.18 403.307Z" fill="#3D3D3D"/>
<path d="M353.034 425.909V367.334H352.874L352.715 425.75C352.795 425.75 352.954 425.83 353.034 425.909Z" fill="#3D3D3D"/>
<path d="M347.608 441.19L292.217 473.343V473.502L347.767 441.35C347.767 441.35 347.688 441.27 347.608 441.19Z" fill="#3D3D3D"/>
<path d="M330.131 426.227L329.652 424.715L334.361 423.124L335.878 422.726L336.197 424.238C335.798 424.397 335.399 424.556 335 424.556L330.131 426.227Z" fill="#424242"/>
<path d="M390.709 472.866L389.671 472.706L383.207 465.225L383.047 464.429L384.962 459.813L385.122 459.575C385.441 459.256 385.84 459.018 386.319 459.018C386.639 459.018 387.197 459.097 387.756 459.734L395.977 468.09L395.897 469.284L390.709 472.866ZM384.643 464.589L390.31 471.194L394.061 468.568L386.479 460.848C386.399 460.768 386.239 460.689 386.239 460.689L384.643 464.589Z" fill="#424242"/>
<path d="M327.975 426.626C326.06 426.626 324.064 425.671 322.149 423.841C318.876 420.657 316.721 415.325 316.322 409.913C316.322 409.833 316.322 409.754 316.322 409.674C316.322 409.595 316.322 409.515 316.322 409.435C316.322 409.356 316.322 409.276 316.322 409.276L316.881 408.48L322.947 406.57L323.984 407.287C324.224 412.46 326.299 417.712 329.412 420.737C331.088 422.408 332.924 423.204 334.52 423.045L335.079 422.886L335.717 422.965L335.478 424.398L335.079 424.477L329.412 426.308C328.853 426.626 328.454 426.626 327.975 426.626ZM328.933 424.955V425.114V424.955L329.651 424.716L331.407 424.159C330.369 423.681 329.252 422.965 328.215 421.93C325.102 418.827 322.867 413.653 322.388 408.401L317.839 409.833C318.238 414.847 320.313 419.861 323.186 422.726C325.182 424.636 327.177 425.353 328.933 424.955Z" fill="#424242"/>
<path d="M323.507 399.408L322.709 398.055C323.587 397.179 324.545 396.542 325.582 396.304L328.057 395.667L329.014 396.463L328.376 397.259C327.657 397.418 326.939 397.895 326.301 398.532L325.902 398.691V398.771L323.507 399.408Z" fill="#424242"/>
<path d="M378.737 468.09L378.179 467.851L378.019 467.612V467.692V467.612L377.859 467.294L378.737 467.055V466.498V467.055L378.977 466.976L379.216 466.737L378.977 466.976L379.376 466.896L379.216 467.294H379.456H379.216L378.737 468.09Z" fill="#424242"/>
<path d="M388.954 480.506C386.958 480.506 384.883 479.471 383.047 477.561C380.733 475.173 378.817 471.512 377.939 467.454L374.667 460.45L340.347 425.352L335.877 424.397L334.68 424.716C332.525 424.955 330.29 423.999 328.215 421.93C324.863 418.667 322.548 412.937 322.389 407.366L323.745 406.809L331.966 415.245C332.126 415.404 332.206 415.404 332.286 415.404L334.042 413.494C334.121 413.414 334.281 413.096 334.281 412.619L334.201 408.719C334.201 408.082 333.882 407.366 333.563 406.968L325.262 398.532V397.418C326.06 396.542 327.018 395.985 328.055 395.746C330.45 395.11 333.084 396.065 335.478 398.532C337.873 400.919 339.628 404.501 340.586 408.56L343.859 415.643L378.179 450.74L382.568 451.696C384.963 450.82 387.756 451.696 390.31 454.163C393.663 457.426 395.977 463.156 396.137 468.727L394.78 469.284L386.559 460.848C386.4 460.689 386.32 460.609 386.24 460.609L384.484 462.519C384.404 462.678 384.245 462.997 384.245 463.395L384.324 467.294C384.324 467.931 384.644 468.647 384.963 469.045L393.184 477.402V478.516C392.386 479.312 391.508 479.869 390.55 480.187L389.911 480.347C389.672 480.506 389.273 480.506 388.954 480.506ZM379.456 467.135C380.254 470.876 382.01 474.218 384.165 476.447C386 478.277 387.916 479.153 389.672 478.834L390.151 478.675C390.63 478.516 391.109 478.277 391.508 477.959L383.925 470.16C383.287 469.523 382.808 468.409 382.808 467.374L382.728 463.395C382.728 462.519 382.968 461.803 383.367 461.405L385.122 459.495C385.442 459.177 385.841 458.938 386.32 458.938C386.639 458.938 387.198 459.017 387.756 459.654L394.381 466.419C393.742 462.042 391.827 457.744 389.193 455.118C387.118 453.048 384.803 452.332 382.968 453.128L382.489 453.208L377.62 452.173L377.221 451.934L342.661 416.598L342.502 416.359L339.07 408.878C338.192 405.138 336.516 401.715 334.361 399.566C332.445 397.577 330.37 396.781 328.534 397.258C327.976 397.418 327.497 397.656 327.018 398.054L334.68 405.854C335.319 406.49 335.797 407.605 335.797 408.639L335.877 412.619C335.877 413.494 335.638 414.21 335.239 414.688L333.483 416.598C333.164 416.916 332.764 417.155 332.286 417.155C331.807 417.155 331.248 416.916 330.849 416.518L330.689 416.359L324.224 409.754C324.863 414.21 326.778 418.428 329.412 421.055C331.088 422.726 332.924 423.522 334.52 423.363L335.877 423.044H336.037L340.906 424.159L341.305 424.397L375.864 459.734L376.024 459.973L379.376 467.215L379.456 467.135Z" fill="#424242"/>
<path d="M334.599 424.715L334.439 423.521L334.279 423.283L334.439 423.203V423.124L335.876 422.726L336.195 424.238C335.796 424.397 335.397 424.556 334.998 424.636C334.838 424.715 334.758 424.715 334.599 424.715Z" fill="#424242"/>
<path d="M332.285 416.996C331.806 416.996 331.248 416.757 330.849 416.359L329.891 415.324L331.008 414.21L331.966 415.245C332.126 415.404 332.206 415.404 332.285 415.404L334.041 413.494C334.121 413.414 334.281 413.096 334.281 412.618L334.201 408.719C334.201 408.082 333.882 407.366 333.562 406.968L325.741 399.009L321.271 400.919L328.694 408.48C329.332 409.117 329.731 410.231 329.811 411.266V411.345L329.651 412.937L328.055 412.778L328.215 411.266C328.215 410.629 327.896 409.913 327.576 409.594L319.355 401.238L319.595 399.964L325.581 397.338L326.459 397.497L334.68 405.854C335.318 406.49 335.797 407.605 335.797 408.639L335.877 412.618C335.877 413.494 335.638 414.21 335.238 414.688L333.483 416.598C333.083 416.837 332.684 416.996 332.285 416.996Z" fill="#424242"/>
<path d="M372.912 470L371.954 469.602L368.602 462.44L334.282 427.342L329.732 426.307L329.652 424.795L334.76 423.124C335.08 423.124 335.319 423.044 335.559 422.885L336.037 422.806L340.906 423.92L341.305 424.159L375.865 459.495L376.024 459.734L379.376 466.976L379.456 467.294H379.057H379.456H379.057L378.898 468.09L372.912 470ZM332.845 425.352L334.84 425.83L335.239 426.069L369.799 461.405L369.958 461.644L373.071 468.329L377.621 466.896L374.667 460.53L340.347 425.432L335.958 424.477C335.638 424.636 335.319 424.716 335 424.716L332.845 425.352Z" fill="#424242"/>
<path d="M384.005 483.212C382.009 483.212 379.934 482.177 378.099 480.267C375.704 477.879 372.751 473.423 371.873 469.443V469.284L372.432 468.488L378.498 466.578L379.535 467.135C380.333 470.876 382.089 474.218 384.244 476.447C386.08 478.277 387.996 479.153 389.751 478.834L390.31 480.267L385.761 482.893L385.521 482.973C384.963 483.132 384.484 483.212 384.005 483.212ZM373.549 469.762C374.507 473.104 377.061 476.924 379.216 479.153C381.132 481.142 383.207 481.938 384.963 481.461H385.042L387.118 480.267C385.681 479.869 384.244 478.914 382.967 477.561C380.812 475.333 379.056 471.99 378.099 468.329L373.549 469.762Z" fill="#424242"/>
<path d="M378.737 468.09L378.179 467.851L378.019 467.612V467.692V467.612L377.859 467.294L378.737 467.055V466.498V467.055L378.977 466.976L379.216 466.737L378.977 466.976L379.376 466.896L379.216 467.294H379.456H379.216L378.737 468.09Z" fill="#424242"/>
<path d="M352.557 510.271L351.439 437.052L415.45 400.362V474.298L352.557 510.271ZM354.073 438.643V506.69L412.896 472.786V404.74L354.073 438.643Z" fill="#3D3D3D"/>
<path d="M352.557 510.271L290.621 474.377V400.441L353.993 437.29L352.557 510.271ZM293.255 472.945L351.439 506.689V438.643L293.415 404.739L293.255 472.945Z" fill="#3D3D3D"/>
<path d="M263.245 347.915L262.447 347.438C261.249 346.721 259.015 345.448 257.977 344.891C257.418 344.573 256.78 343.936 256.54 342.662C256.221 340.991 256.7 339.081 257.817 337.091C260.611 332.316 263.804 327.859 267.156 323.721C270.907 319.184 274.898 315.046 279.048 311.465C281.522 309.316 283.837 307.644 285.992 306.132C287.029 305.416 288.067 304.779 289.105 304.143L290.222 303.426C292.457 302.153 294.612 301.118 296.687 300.243C299.401 299.129 302.034 298.253 304.668 297.696C309.776 296.662 314.485 296.741 318.795 298.015C320.471 298.492 321.828 299.049 323.105 299.765L324.063 300.323C325.26 301.039 327.335 302.153 328.054 302.631L327.415 303.824C326.298 303.188 325.021 302.71 323.664 302.312C319.594 301.118 315.044 301.039 310.175 301.994C307.701 302.551 305.067 303.347 302.434 304.461C300.358 305.336 298.363 306.371 296.128 307.565L295.33 308.042C294.213 308.759 293.095 309.475 291.978 310.191C289.823 311.624 287.588 313.295 285.114 315.364C281.043 318.866 277.053 322.925 273.381 327.461C270.029 331.6 266.916 336.057 264.123 340.673C263.165 342.344 262.766 343.936 263.005 345.289C263.085 345.925 263.404 346.323 263.804 346.562L263.245 347.915ZM311.373 298.492C309.297 298.492 307.143 298.731 304.988 299.208C302.513 299.765 299.879 300.561 297.246 301.675C295.17 302.551 293.095 303.586 290.94 304.779L289.903 305.416C288.865 306.053 287.828 306.689 286.79 307.406C284.635 308.838 282.4 310.51 279.926 312.579C275.855 316.081 271.945 320.14 268.193 324.596C264.841 328.655 261.728 333.112 258.935 337.808C257.897 339.479 257.578 341.071 257.817 342.424C257.897 343.06 258.217 343.538 258.616 343.777C259.334 344.175 260.611 344.891 261.728 345.528C261.489 343.856 261.968 342.026 263.085 340.116C265.879 335.42 268.991 330.884 272.423 326.745C276.175 322.129 280.165 318.07 284.316 314.489C286.79 312.34 289.105 310.669 291.26 309.157C292.377 308.44 293.494 307.724 294.612 307.008L295.41 306.451C297.724 305.177 299.8 304.143 301.875 303.267C304.588 302.153 307.302 301.278 309.856 300.72C313.847 299.845 317.678 299.765 321.27 300.402C320.392 300.004 319.434 299.606 318.316 299.288C316.241 298.81 313.847 298.492 311.373 298.492Z" fill="#424242"/>
<path d="M272.265 354.68C271.786 354.362 267.716 352.134 267.077 351.736C266.359 351.338 265.88 350.542 265.641 349.587C265.481 348.711 265.481 347.916 265.72 347.04L265.8 346.722L266.04 346.563C266.997 346.085 267.875 345.21 268.594 344.175C268.993 343.538 269.392 342.981 269.711 342.345C270.11 341.708 270.509 341.071 270.908 340.514C274.021 335.659 277.533 331.282 281.204 327.462C284.397 324.199 287.669 321.334 291.101 318.946C295.89 316.32 300.439 315.046 304.67 314.967C308.181 314.887 311.374 315.604 314.088 317.195C315.205 317.832 318.637 319.822 319.196 320.14L318.557 321.334C316.083 319.901 313.13 319.265 309.937 319.344C305.627 319.424 301.078 320.856 296.209 323.642C295.89 323.881 295.491 324.119 295.172 324.278C294.533 324.676 293.895 325.074 293.336 325.472C291.42 326.746 289.345 328.337 287.27 330.247C281.923 335.102 277.293 340.992 273.303 347.756C272.345 349.428 271.946 351.019 272.185 352.452C272.265 353.009 272.505 353.407 272.904 353.646L272.265 354.68ZM266.918 347.597C266.838 348.154 266.838 348.711 266.918 349.269C266.997 349.826 267.317 350.303 267.716 350.462C268.115 350.701 269.551 351.497 270.828 352.213C270.589 350.542 271.068 348.711 272.105 346.881C276.096 339.957 280.885 333.988 286.312 329.054C288.388 327.144 290.543 325.472 292.538 324.199C293.176 323.801 293.815 323.403 294.453 323.005C294.773 322.766 295.172 322.528 295.491 322.289C300.519 319.424 305.388 317.912 309.857 317.832C310.895 317.832 311.933 317.832 312.97 317.991C310.496 316.718 307.782 316.081 304.67 316.161C300.679 316.24 296.369 317.514 291.74 319.981C288.467 322.289 285.195 325.154 282.082 328.337C278.411 332.078 275.059 336.455 271.946 341.23C271.547 341.867 271.148 342.424 270.828 343.061C270.429 343.698 270.03 344.334 269.631 344.891C268.913 346.085 267.955 347.04 266.918 347.597Z" fill="#424242"/>
<path d="M280.565 360.649C280.405 360.649 280.246 360.569 280.086 360.49C280.086 360.49 276.175 358.261 276.015 358.182C274.818 357.466 274.26 355.874 274.579 353.884L274.659 353.566L274.978 353.407C276.095 352.77 277.133 351.815 277.931 350.382C280.166 346.562 282.72 343.14 285.513 340.036C287.429 337.967 289.424 336.057 291.579 334.465L291.739 334.386C295.889 332.396 299.64 331.839 302.833 332.953C303.471 333.192 304.03 333.431 304.589 333.749C304.748 333.828 306.185 334.624 307.542 335.42L309.697 336.694L309.058 337.887C308.659 337.649 308.18 337.489 307.702 337.33C304.509 336.296 300.758 336.932 296.528 339.24C295.091 340.036 293.654 340.991 292.218 342.185C288.307 345.448 284.955 349.587 282.241 354.441C281.203 356.272 280.884 358.261 281.443 359.376C281.602 359.774 281.523 360.172 281.203 360.41C281.044 360.569 280.804 360.649 280.565 360.649ZM275.936 354.441C275.776 355.715 276.095 356.67 276.734 357.068C276.814 357.147 278.33 358.023 279.847 358.819C279.607 357.306 280.006 355.476 280.964 353.725C283.757 348.711 287.189 344.413 291.26 341.071C292.776 339.877 294.293 338.763 295.73 337.967C299.002 336.216 302.035 335.341 304.828 335.42C304.27 335.102 303.95 334.863 303.871 334.863C303.392 334.624 302.913 334.386 302.354 334.226C299.401 333.271 296.049 333.749 292.218 335.579C290.222 337.091 288.307 338.842 286.391 340.912C283.678 343.856 281.203 347.279 278.969 351.019C278.25 352.531 277.213 353.645 275.936 354.441Z" fill="#424242"/>
<path d="M291.977 367.414C291.498 367.175 287.587 364.947 286.789 364.389C285.672 363.753 285.033 362.4 285.033 360.649C285.033 360.251 285.033 359.853 285.113 359.375V359.137L285.273 358.978C285.911 358.42 286.47 357.704 286.949 356.829C288.146 354.68 289.423 352.929 290.939 351.337L291.019 351.258C291.099 351.178 291.099 351.099 291.179 351.099L291.259 351.019L291.339 350.939C292.456 350.541 293.494 350.621 294.371 351.099C295.17 351.576 298.522 353.486 299.4 354.043L298.761 355.237C298.043 354.919 297.085 355.078 296.048 355.635C293.573 357.067 291.418 360.728 291.418 363.673C291.418 364.947 291.817 365.822 292.536 366.22L291.977 367.414ZM286.39 359.853C286.39 360.171 286.31 360.41 286.31 360.649C286.31 361.922 286.709 362.798 287.428 363.275C287.907 363.514 289.184 364.31 290.381 364.947C290.301 364.549 290.221 364.151 290.221 363.673C290.221 360.331 292.616 356.192 295.489 354.521C295.888 354.282 296.287 354.123 296.606 354.043C295.409 353.327 294.132 352.611 293.733 352.372C293.254 352.054 292.616 352.054 291.897 352.292L291.817 352.372C290.461 353.884 289.184 355.555 288.066 357.625C287.667 358.42 287.029 359.216 286.39 359.853Z" fill="#424242"/>
<path d="M264.681 348.313C264.202 348.313 263.803 348.234 263.404 347.995H263.324C263.324 347.995 263.245 347.995 263.245 347.915L262.925 347.756V347.677C262.526 347.358 262.047 346.721 261.808 345.687C261.489 343.936 261.968 342.105 263.085 340.116C265.879 335.42 268.991 330.884 272.423 326.745C276.175 322.129 280.165 318.07 284.316 314.489C286.79 312.34 289.104 310.669 291.259 309.157C292.377 308.44 293.494 307.724 294.612 307.008L295.41 306.451C297.724 305.177 299.799 304.143 301.875 303.267C304.588 302.153 307.302 301.278 309.856 300.721C314.884 299.686 319.673 299.766 323.983 301.039C325.42 301.437 326.777 301.994 327.974 302.631C328.054 302.631 328.133 302.71 328.213 302.71C328.213 302.71 328.293 302.71 328.293 302.79L328.373 302.869C329.41 303.506 330.368 304.859 329.65 307.963C329.011 310.271 327.734 312.181 325.899 313.454C324.063 314.728 322.786 314.489 321.988 314.091C319.833 312.977 317.678 312.34 315.443 312.022C312.65 311.703 309.617 311.942 306.504 312.738C304.509 313.216 302.513 314.011 300.438 314.887C298.283 315.842 296.048 317.036 293.813 318.468C293.175 318.866 292.536 319.344 291.818 319.821C288.466 322.209 285.194 324.994 282.081 328.178C278.409 331.918 275.057 336.296 271.944 341.071C271.545 341.708 271.146 342.265 270.827 342.901C270.428 343.538 270.029 344.175 269.63 344.732C268.832 346.005 267.714 347.04 266.597 347.597C265.958 348.154 265.32 348.313 264.681 348.313ZM264.282 346.96C264.761 347.119 265.4 346.96 266.118 346.642C266.996 346.164 267.954 345.289 268.592 344.254C268.991 343.618 269.39 343.061 269.71 342.424C270.109 341.787 270.508 341.15 270.907 340.593C274.02 335.739 277.531 331.361 281.203 327.541C284.395 324.278 287.668 321.413 291.1 319.025C291.818 318.548 292.457 318.07 293.175 317.672C295.41 316.24 297.724 314.967 299.959 314.011C302.114 313.056 304.189 312.34 306.264 311.783C309.537 310.987 312.729 310.748 315.682 311.067C318.077 311.385 320.471 312.101 322.706 313.295C323.345 313.614 324.223 313.454 325.26 312.738C326.856 311.624 327.974 309.953 328.453 307.963C328.932 306.132 328.692 304.859 327.734 304.302L327.575 304.222C327.575 304.222 327.495 304.222 327.495 304.143C326.378 303.506 325.101 303.029 323.744 302.631C319.673 301.437 315.124 301.357 310.255 302.312C307.781 302.869 305.147 303.665 302.513 304.779C300.438 305.655 298.443 306.69 296.208 307.883L295.41 308.361C294.292 309.077 293.175 309.793 292.058 310.51C289.903 311.942 287.668 313.614 285.194 315.683C281.123 319.185 277.132 323.244 273.461 327.78C270.109 331.918 266.996 336.375 264.202 340.991C263.245 342.663 262.846 344.254 263.085 345.607C263.165 346.164 263.404 346.562 263.724 346.801H264.202L264.282 346.96Z" fill="#424242"/>
<path d="M273.702 355.078C273.143 355.078 272.664 354.919 272.265 354.68L272.185 354.601C271.547 354.203 271.068 353.407 270.908 352.531C270.589 350.78 270.988 348.95 272.185 346.96C276.176 340.036 280.965 334.067 286.392 329.133C288.467 327.223 290.622 325.552 292.618 324.278C293.256 323.88 293.895 323.482 294.533 323.084C294.853 322.846 295.252 322.607 295.571 322.368C300.599 319.503 305.468 317.991 309.937 317.911C313.449 317.832 316.562 318.548 319.276 320.14C319.355 320.14 319.355 320.219 319.435 320.219C320.473 320.776 321.51 322.209 320.712 325.313C320.154 327.621 318.877 329.531 317.041 330.804C315.125 332.157 313.768 331.918 312.97 331.441C311.454 330.565 309.858 330.088 308.102 329.929C305.787 329.69 303.313 330.088 300.679 331.043C298.684 331.759 296.608 332.794 294.453 334.226C293.815 334.624 293.097 335.102 292.458 335.659L292.378 335.739C290.383 337.251 288.467 339.081 286.552 341.071C283.838 344.016 281.364 347.438 279.129 351.178C278.171 352.85 276.974 354.043 275.617 354.76C274.979 354.919 274.34 355.078 273.702 355.078ZM310.416 319.185C310.257 319.185 310.097 319.185 309.937 319.185C305.627 319.264 301.078 320.697 296.209 323.482C295.89 323.721 295.491 323.96 295.172 324.119C294.533 324.517 293.895 324.915 293.336 325.313C291.42 326.586 289.345 328.178 287.27 330.088C281.923 334.943 277.293 340.832 273.303 347.597C272.345 349.268 271.946 350.86 272.185 352.293C272.265 352.85 272.505 353.248 272.904 353.486L272.983 353.566C273.462 353.884 274.181 353.805 274.979 353.407C276.096 352.77 277.134 351.815 277.932 350.382C280.167 346.562 282.721 343.14 285.514 340.036C287.43 337.967 289.425 336.057 291.58 334.465L291.66 334.386C292.298 333.908 292.937 333.431 293.655 332.953C295.89 331.52 298.045 330.406 300.12 329.61C302.914 328.576 305.627 328.257 308.102 328.496C310.017 328.655 311.853 329.212 313.529 330.168C314.247 330.565 315.125 330.406 316.163 329.61C317.759 328.496 318.797 326.825 319.355 324.835C319.675 323.562 319.834 321.891 318.637 321.254C318.557 321.254 318.557 321.174 318.477 321.174C316.243 319.901 313.449 319.185 310.416 319.185Z" fill="#424242"/>
<path d="M282.079 361.365C281.92 361.365 281.76 361.365 281.68 361.365H281.441L281.281 361.286C279.446 360.171 279.286 356.908 281.042 353.884C283.835 348.87 287.267 344.573 291.338 341.23C292.854 340.036 294.371 338.922 295.807 338.126C300.357 335.659 304.507 334.943 308.099 336.057C308.737 336.216 309.216 336.455 309.695 336.773L309.775 336.853C309.855 336.853 309.934 336.932 309.934 336.932C310.174 337.091 310.413 337.251 310.653 337.41C311.451 338.046 311.85 339.081 311.85 340.354C311.85 342.901 310.334 345.766 308.258 347.438C306.103 349.109 304.587 348.791 303.709 348.233C302.193 347.278 300.357 347.119 298.122 347.836C296.047 348.552 293.972 349.984 291.976 352.054L291.897 352.133L291.817 352.213L291.737 352.292C290.38 353.805 289.103 355.476 287.986 357.545C287.427 358.5 286.788 359.376 286.07 360.012C285.192 360.967 283.277 361.365 282.079 361.365ZM281.92 360.012C282.478 360.012 284.474 359.853 285.272 359.057C285.91 358.5 286.469 357.784 286.948 356.908C288.145 354.76 289.422 353.009 290.939 351.417L291.019 351.337C291.098 351.258 291.098 351.258 291.178 351.178C293.333 348.87 295.568 347.358 297.803 346.562C300.357 345.687 302.671 345.846 304.507 347.04C305.225 347.517 306.263 347.278 307.46 346.323C309.456 344.732 310.573 342.026 310.573 340.275C310.573 339.638 310.493 338.842 309.855 338.365C309.695 338.206 309.456 338.046 309.216 337.967C309.136 337.967 309.136 337.887 309.136 337.887L309.057 337.808C308.657 337.569 308.179 337.41 307.7 337.251C304.507 336.216 300.756 336.853 296.526 339.161C295.089 339.957 293.652 340.912 292.216 342.105C288.305 345.368 284.953 349.507 282.239 354.362C280.802 356.908 280.882 359.216 281.92 360.012Z" fill="#424242"/>
<path d="M293.655 367.891C293.096 367.891 292.537 367.732 292.058 367.493L291.979 367.413C290.861 366.697 290.223 365.424 290.223 363.673C290.223 360.33 292.617 356.192 295.49 354.521C296.927 353.725 298.284 353.565 299.401 354.043C299.481 354.043 299.561 354.123 299.721 354.202C300.838 354.918 301.476 356.192 301.476 357.943C301.476 361.285 299.082 365.424 296.129 367.095C295.331 367.652 294.453 367.891 293.655 367.891ZM292.697 366.299C293.415 366.697 294.453 366.538 295.49 365.981C297.965 364.548 300.12 360.887 300.12 358.022C300.12 356.749 299.721 355.873 299.002 355.396C298.922 355.396 298.922 355.316 298.843 355.316C298.124 354.998 297.166 355.078 296.129 355.714C293.655 357.147 291.5 360.808 291.5 363.753C291.579 364.946 291.979 365.822 292.697 366.299Z" fill="#424242"/>
<path d="M311.373 341.23L311.213 341.469L351.758 365.027L351.918 364.788L311.373 341.23Z" fill="#3D3D3D"/>
<path d="M352.796 294.513L289.982 259.893L290.541 257.347L353.115 291.808L352.716 293.24V294.513H352.796Z" fill="#3D3D3D"/>
<path d="M228.924 294.672L228.525 293.478V291.887L290.621 257.267L291.419 259.813L228.924 294.672Z" fill="#3D3D3D"/>
<path d="M290.778 302.949V258.619H290.618L290.459 303.108C290.539 303.108 290.698 303.028 290.778 302.949Z" fill="#3D3D3D"/>
<path d="M260.849 346.801L230.041 364.708V364.867L261.089 346.88C260.929 346.96 260.849 346.88 260.849 346.801Z" fill="#3D3D3D"/>
<path d="M290.301 401.636L289.184 328.417L353.194 291.728V365.663L290.301 401.636ZM291.817 330.009V398.055L350.64 364.151V296.105L291.817 330.009Z" fill="#3D3D3D"/>
<path d="M290.301 401.636L228.365 365.742V291.807L291.738 328.655L290.301 401.636ZM230.999 364.31L289.184 398.054V330.008L231.159 296.104L230.999 364.31Z" fill="#3D3D3D"/>
<path d="M423.909 336.693C423.83 336.773 423.75 336.932 423.67 337.012L475.07 366.618L475.23 366.299L423.909 336.693Z" fill="#3D3D3D"/>
<path d="M476.185 296.104L413.451 261.484L414.01 258.938L476.584 293.398L476.185 294.831V296.104Z" fill="#3D3D3D"/>
<path d="M352.315 296.343L351.916 295.149V293.558L414.011 258.938L414.81 261.484L352.315 296.343Z" fill="#3D3D3D"/>
<path d="M414.169 285.917V260.37H414.009L413.93 285.838C414.009 285.838 414.089 285.838 414.169 285.917Z" fill="#3D3D3D"/>
<path d="M397.888 340.514L353.352 366.379V366.538L398.047 340.673C398.047 340.673 397.968 340.593 397.888 340.514Z" fill="#3D3D3D"/>
<path d="M426.782 375.055C426.542 375.055 426.383 374.975 426.223 374.816L414.171 364.549L386.156 323.562L387.194 322.607L387.753 323.085L400.044 333.59L427.42 373.702C427.66 374.1 427.58 374.577 427.26 374.816C427.181 374.975 426.941 375.055 426.782 375.055ZM415.368 363.594L423.11 370.2L398.767 334.625L391.025 328.019L415.368 363.594Z" fill="#424242"/>
<path d="M399.246 334.943L386.795 324.278C386.556 324.04 386.396 323.721 386.476 323.403C386.556 323.085 386.795 322.766 387.114 322.687L405.232 316.24L418.96 327.939L399.246 334.943ZM388.631 323.801L399.565 333.113L415.768 327.382L404.833 318.071L388.631 323.801Z" fill="#424242"/>
<path d="M417.203 328.258C416.964 328.258 416.804 328.179 416.645 328.019L404.353 317.514L398.686 291.967C398.607 291.569 398.766 291.171 399.085 290.932C399.405 290.693 399.884 290.773 400.203 291.012L412.414 301.438L418.081 326.985C418.161 327.383 418.001 327.781 417.682 327.94C417.522 328.258 417.363 328.258 417.203 328.258ZM405.71 316.718L416.006 325.552L410.898 302.472L400.602 293.638L405.71 316.718Z" fill="#424242"/>
<path d="M411.458 302.949L399.167 292.444C398.847 292.205 398.768 291.807 398.768 291.409C398.768 291.011 399.087 290.693 399.486 290.614L414.89 285.122L427.421 295.866C427.66 296.105 427.82 296.423 427.74 296.742C427.66 297.06 427.421 297.299 427.181 297.458L411.458 302.949ZM400.843 291.807L411.777 301.119L425.505 296.264L414.571 286.953L400.843 291.807Z" fill="#424242"/>
<path d="M428.698 378.317L398.209 333.669L416.486 327.143L410.82 301.516L426.782 295.866C427.022 295.786 427.341 295.786 427.581 295.945C427.82 296.105 427.98 296.343 428.059 296.582L436.041 331.918L420.876 337.33L428.698 378.317ZM400.683 334.465L425.665 371.075L418.961 336.296L434.045 330.884L426.543 297.617L412.655 302.551L418.162 327.223C418.242 327.78 418.003 328.257 417.444 328.496L400.683 334.465Z" fill="#424242"/>
<path d="M413.692 403.307L412.574 330.088L476.585 293.398V367.334L413.692 403.307ZM415.128 331.679V399.726L473.951 365.822V297.776L415.128 331.679Z" fill="#3D3D3D"/>
<path d="M413.691 403.307L351.756 367.413V293.478L415.128 330.326L413.691 403.307ZM354.39 365.981L412.574 399.725V331.679L354.549 297.775L354.39 365.981Z" fill="#3D3D3D"/>
<path d="M376.818 237.053C376.738 237.132 376.658 237.291 376.578 237.371L412.574 258.302L412.734 257.984L376.818 237.053Z" fill="#3D3D3D"/>
<path d="M413.613 187.788L351.438 153.168L351.996 150.621L413.932 185.082L413.533 186.515V187.788H413.613Z" fill="#3D3D3D"/>
<path d="M291.018 188.027L290.619 186.833V185.241L352.076 150.621L352.874 153.168L291.018 188.027Z" fill="#3D3D3D"/>
<path d="M352.235 187.788V152.054H352.076L351.996 187.947C352.076 187.868 352.155 187.788 352.235 187.788Z" fill="#3D3D3D"/>
<path d="M322.863 239.996L292.055 258.062V258.221L322.943 240.155C322.943 240.155 322.943 240.076 322.863 239.996Z" fill="#3D3D3D"/>
<path d="M355.111 261.963L351.439 259.814L352.158 258.461L353.674 259.098L355.909 260.61L355.111 261.963Z" fill="#424242"/>
<path d="M354.31 262.042C354.23 262.042 354.23 262.042 354.151 262.042C354.071 262.042 353.991 262.042 353.911 262.042H353.831C353.592 262.042 353.273 262.042 353.033 261.962H352.873C352.794 261.962 352.714 261.962 352.714 261.962H352.315C351.996 261.962 351.676 261.883 351.437 261.883C351.197 261.883 350.878 261.803 350.639 261.803C350.399 261.803 350.24 261.723 350 261.723C349.521 261.644 349.042 261.564 348.484 261.485H348.404C348.244 261.485 348.164 261.405 348.005 261.405L347.526 261.326C347.446 261.326 347.446 261.326 347.366 261.246H347.286L346.728 261.087C346.568 261.007 346.329 261.007 346.169 260.928C346.089 260.928 346.089 260.928 346.009 260.928C345.77 260.848 345.531 260.768 345.291 260.689C345.211 260.689 345.132 260.689 345.052 260.609L344.812 260.53C344.653 260.45 344.493 260.45 344.333 260.37C344.094 260.291 343.855 260.211 343.615 260.132C343.455 260.052 343.296 260.052 343.136 259.973H343.056H342.897L342.737 259.813C342.737 259.813 342.657 259.813 342.657 259.734C342.577 259.734 342.418 259.654 342.258 259.575L342.099 259.495C341.46 259.177 340.742 258.858 340.023 258.46L340.822 257.107C341.54 257.505 342.178 257.824 342.817 258.142L342.977 258.222C343.056 258.301 343.216 258.301 343.296 258.381H343.455L343.615 258.46C343.615 258.46 343.615 258.46 343.695 258.46H343.775C343.934 258.54 344.014 258.54 344.174 258.62C344.413 258.699 344.653 258.779 344.892 258.858C345.052 258.938 345.211 258.938 345.371 259.018L345.61 259.097C345.69 259.097 345.69 259.097 345.77 259.177C346.009 259.256 346.169 259.336 346.409 259.336L346.648 259.415C346.808 259.495 346.967 259.495 347.127 259.575L347.686 259.734C347.765 259.734 347.925 259.813 348.005 259.813L348.324 259.893C348.484 259.893 348.564 259.973 348.723 259.973H348.883C349.362 260.052 349.841 260.132 350.24 260.132C350.479 260.132 350.639 260.211 350.878 260.211C351.118 260.211 351.437 260.291 351.676 260.291C351.916 260.291 352.155 260.37 352.395 260.37L350.958 259.495C350.878 259.495 350.878 259.495 350.798 259.495V259.415L350.878 259.336L351.038 257.903C351.118 257.903 351.118 257.903 351.197 257.903H351.437L353.432 259.018C356.465 260.132 356.465 260.37 356.545 260.768L356.625 261.246L356.306 261.564C355.667 261.962 354.789 262.042 354.31 262.042ZM343.216 258.858L343.136 259.097L343.216 258.938V258.858Z" fill="#424242"/>
<path d="M371.391 190.334V188.663L372.029 188.503C372.189 188.424 372.348 188.424 372.508 188.424L372.668 189.299H372.987H372.668L372.827 189.936C372.747 189.936 372.588 190.016 372.508 190.016L371.391 190.334Z" fill="#424242"/>
<path d="M371.311 190.334L370.912 188.822C371.311 188.742 371.71 188.583 372.109 188.503C372.269 188.424 372.429 188.424 372.588 188.424L372.907 190.016C372.828 190.016 372.668 190.095 372.588 190.095H372.508C372.029 190.175 371.63 190.254 371.311 190.334Z" fill="#424242"/>
<path d="M330.367 239.677C330.367 239.598 330.367 239.518 330.367 239.438C330.367 239.359 330.367 239.359 330.367 239.279C330.367 239.2 330.367 239.2 330.367 239.12L331.963 239.041V238.961L332.043 239.12V239.279C332.043 239.359 332.043 239.359 332.043 239.438V239.677H330.367Z" fill="#424242"/>
<path d="M326.138 239.757C325.898 237.847 325.898 236.016 325.898 234.823C325.898 227.262 328.772 213.653 329.65 209.673L330.368 209.832H330.448L330.607 209.673L330.687 209.594L331.007 209.832H331.246V209.992L331.725 210.31L332.044 210.39C332.044 210.39 332.044 210.469 332.044 210.549C332.044 210.549 332.044 210.549 332.044 210.628C331.565 212.538 328.053 227.978 327.894 239.598L326.138 239.757Z" fill="#424242"/>
<path d="M330.607 242.304V242.065C330.607 241.985 330.607 241.985 330.607 241.906V241.747C330.607 241.667 330.607 241.587 330.607 241.428V241.11C330.607 241.03 330.607 240.871 330.607 240.712H332.204V240.792V240.871C332.204 241.03 332.204 241.269 332.284 241.428L332.363 241.906L330.607 242.304Z" fill="#424242"/>
<path d="M331.564 244.452V243.736L330.766 243.815V243.895L330.367 242.86H332.283V243.656C332.283 243.736 332.283 243.736 332.283 243.815H331.485V244.452H331.564ZM330.766 243.815H331.564H330.766Z" fill="#424242"/>
<path d="M337.391 265.464C337.311 265.464 337.311 265.384 337.231 265.384L333.081 262.997C325.499 258.619 321.668 250.183 321.588 237.927C321.588 225.909 325.339 209.515 325.818 207.684C325.898 207.445 326.057 207.207 326.297 207.047C326.536 206.968 326.856 206.968 327.095 207.127L331.964 209.913L331.804 210.47C331.724 210.629 327.734 227.342 327.654 239.678C327.654 239.996 327.654 240.235 327.654 240.474C327.654 240.712 327.654 240.951 327.654 241.269C327.654 241.588 327.654 241.827 327.654 242.065C327.654 243.259 327.734 244.453 327.893 245.647C327.893 245.965 327.973 246.363 328.053 246.681C328.133 247.238 328.212 247.875 328.292 248.432C328.292 248.591 328.372 248.83 328.372 248.989C328.372 249.149 328.452 249.308 328.452 249.467V249.546C328.532 249.944 328.612 250.263 328.691 250.661C329.011 251.775 329.33 252.81 329.649 253.765C329.729 254.003 329.809 254.162 329.889 254.322C329.968 254.64 330.128 254.799 330.208 255.038C330.367 255.356 330.447 255.595 330.607 255.834C330.766 256.073 330.846 256.311 331.006 256.63C331.166 256.948 331.325 257.187 331.485 257.426C331.644 257.664 331.724 257.823 331.884 258.062C332.044 258.301 332.203 258.54 332.363 258.778C332.522 259.017 332.682 259.256 332.921 259.495C333.081 259.654 333.161 259.813 333.321 259.972C333.64 260.37 333.879 260.689 334.198 261.007C334.438 261.246 334.757 261.564 335.076 261.882L335.236 262.042C335.476 262.28 335.715 262.439 335.954 262.599C336.274 262.837 336.513 263.076 336.832 263.235L337.471 263.633C337.63 263.713 337.79 263.872 337.95 263.952L338.03 264.031L337.391 265.464ZM327.175 208.957C326.297 212.937 323.184 227.262 323.264 237.927C323.264 247.875 325.898 255.197 331.166 259.654C331.006 259.415 330.846 259.256 330.766 259.017C330.607 258.778 330.447 258.54 330.367 258.301C330.208 258.062 330.048 257.744 329.889 257.426C329.729 257.187 329.569 256.868 329.489 256.63C329.33 256.391 329.25 256.073 329.09 255.754C329.011 255.515 328.851 255.197 328.771 254.958C328.691 254.799 328.612 254.56 328.532 254.401C328.133 253.367 327.813 252.252 327.494 251.138C327.414 250.74 327.335 250.342 327.255 249.944V249.865C327.255 249.706 327.175 249.546 327.175 249.387C327.175 249.228 327.095 248.989 327.095 248.751C327.015 248.194 326.856 247.557 326.776 246.92C326.696 246.602 326.696 246.204 326.616 245.886C326.457 244.612 326.377 243.339 326.377 242.145C326.377 241.906 326.377 241.588 326.377 241.349C326.377 241.11 326.377 240.792 326.377 240.553C326.377 240.314 326.377 239.996 326.377 239.757C326.457 228.615 329.729 213.892 330.447 210.788L327.175 208.957Z" fill="#424242"/>
<path d="M353.116 261.962C353.037 261.962 352.957 261.962 352.957 261.962C352.877 261.962 352.877 261.962 352.797 261.962L352.877 260.37H353.116C353.196 260.37 353.196 260.37 353.276 260.37L353.116 261.962ZM342.82 259.892C342.82 259.892 342.741 259.892 342.741 259.813C342.581 259.733 342.421 259.733 342.342 259.654L342.98 258.221C343.06 258.301 343.219 258.301 343.299 258.38L343.459 258.46C343.459 258.46 343.459 258.46 343.379 258.46L342.82 259.892ZM332.844 250.819L332.684 250.501C332.604 250.342 332.524 250.183 332.524 250.103L334.041 249.546C334.121 249.785 334.2 249.944 334.36 250.183L332.844 250.819ZM332.285 249.626C332.205 249.546 332.205 249.467 332.205 249.387C332.205 249.307 332.205 249.307 332.125 249.228V249.148L332.365 249.069L333.562 248.591L333.642 248.75V248.83V248.909L332.285 249.626ZM331.327 246.761C331.327 246.681 331.327 246.681 331.327 246.601L331.168 246.044L332.684 245.567C332.684 245.646 332.684 245.646 332.764 245.726L332.844 245.885V245.965V246.124V246.283L331.327 246.761ZM330.449 241.269C330.449 241.11 330.449 241.03 330.449 240.871H332.045V240.951V241.19L330.449 241.269ZM371.314 190.334L370.915 188.822C371.314 188.742 371.713 188.583 372.032 188.503C372.192 188.424 372.352 188.424 372.511 188.424L372.83 190.016C372.751 190.016 372.591 190.095 372.511 190.095H372.431C372.032 190.175 371.633 190.254 371.314 190.334Z" fill="#424242"/>
<path d="M335.396 253.446L335.316 253.366C335.316 253.366 335.316 253.287 335.236 253.287C335.236 253.287 335.236 253.207 335.157 253.207C335.157 253.207 335.157 253.207 335.157 253.128C335.157 253.128 335.157 253.048 335.077 253.048C334.997 252.969 334.917 252.809 334.837 252.73C334.758 252.65 334.758 252.571 334.678 252.491C334.678 252.411 334.598 252.411 334.598 252.332C334.598 252.252 334.518 252.252 334.518 252.173C334.438 252.093 334.359 251.934 334.359 251.854C334.279 251.775 334.279 251.695 334.199 251.616C334.199 251.536 334.119 251.536 334.119 251.456C334.119 251.456 334.119 251.377 334.039 251.377C334.039 251.377 334.039 251.297 333.959 251.297C333.959 251.218 333.88 251.218 333.88 251.138C333.88 251.058 333.8 250.979 333.8 250.979C333.8 250.899 333.72 250.82 333.72 250.82C333.72 250.82 333.72 250.82 333.72 250.74C333.64 250.661 333.64 250.581 333.64 250.501V250.422C333.56 250.342 333.56 250.183 333.481 250.103C333.401 250.024 333.401 249.865 333.321 249.785C333.321 249.705 333.241 249.626 333.241 249.546C333.241 249.546 333.241 249.546 333.241 249.467C333.161 249.387 333.161 249.228 333.081 249.148C333.081 249.069 333.002 248.989 333.002 248.91C333.002 248.83 332.922 248.83 332.922 248.75V248.671C332.922 248.591 332.842 248.512 332.842 248.432C332.762 248.193 332.682 247.955 332.603 247.795C332.603 247.716 332.523 247.636 332.523 247.557C332.523 247.477 332.443 247.397 332.443 247.318V247.238C332.443 247.159 332.363 247.159 332.363 247.079C332.283 246.92 332.283 246.761 332.204 246.681C332.124 246.442 332.124 246.204 332.044 246.045C332.044 245.965 332.044 245.965 331.964 245.885V245.806C331.964 245.726 331.964 245.647 331.884 245.567C331.884 245.487 331.804 245.328 331.804 245.249C331.804 245.089 331.725 245.01 331.725 244.851V244.692V244.612C331.725 244.453 331.645 244.294 331.645 244.134C331.645 244.055 331.645 243.975 331.645 243.975C331.645 243.896 331.645 243.896 331.645 243.896C331.645 243.816 331.645 243.737 331.645 243.737C331.645 243.657 331.645 243.657 331.645 243.657C331.645 243.577 331.645 243.498 331.565 243.418C331.565 243.1 331.485 242.781 331.485 242.543C331.485 242.463 331.485 242.384 331.485 242.304C331.485 242.224 331.485 242.145 331.485 242.145C331.485 241.906 331.485 241.747 331.405 241.508C331.405 241.429 331.405 241.269 331.405 241.19C331.405 241.031 331.405 240.951 331.405 240.792C331.405 240.712 331.405 240.712 331.405 240.633C331.405 240.473 331.405 240.394 331.405 240.235C331.405 240.155 331.405 240.076 331.405 239.916C331.405 239.757 331.405 239.598 331.405 239.439V239.121C331.405 239.041 331.405 238.961 331.405 238.961C331.405 238.563 331.405 238.165 331.405 237.768C331.405 229.411 334.997 213.414 335.157 212.618C342.739 204.341 354.951 196.94 355.589 196.621C355.589 196.621 355.669 196.621 355.669 196.542C355.749 196.542 355.828 196.462 355.988 196.383C356.307 196.224 356.706 195.985 357.265 195.746C357.505 195.666 357.744 195.507 357.983 195.348C358.063 195.348 358.063 195.268 358.143 195.268C358.462 195.109 358.782 194.95 359.101 194.791L359.181 194.711C359.58 194.552 359.899 194.313 360.298 194.154C360.538 193.995 360.857 193.916 361.176 193.756C361.655 193.518 362.134 193.279 362.693 193.04C363.092 192.881 363.491 192.642 363.97 192.483C364.209 192.403 364.528 192.244 364.768 192.165C365.406 191.926 366.124 191.607 366.843 191.369C367.561 191.13 368.2 190.891 368.918 190.652C368.998 190.652 368.998 190.652 368.998 190.573C369.477 190.414 370.035 190.255 370.514 190.095C370.754 190.016 371.073 189.936 371.312 189.857C371.711 189.777 372.111 189.618 372.43 189.538C372.589 189.459 372.749 189.459 372.909 189.459C373.308 189.379 373.787 189.299 374.186 189.22C374.505 189.14 374.824 189.14 375.064 189.14C375.383 189.061 375.622 189.061 375.942 189.061C376.101 189.697 379.773 201.476 379.852 209.833C379.852 211.186 379.853 212.857 379.693 214.688C379.693 215.006 379.613 215.324 379.613 215.643C379.533 216.598 379.374 217.632 379.214 218.667C379.214 218.906 379.134 219.144 379.054 219.463C378.975 219.781 378.975 220.099 378.895 220.418C378.815 220.816 378.735 221.293 378.655 221.691C378.097 224.158 377.298 226.864 376.101 229.809C376.021 230.048 375.862 230.366 375.782 230.605C375.543 231.162 375.303 231.719 375.064 232.197C374.744 232.913 374.425 233.629 374.106 234.345C373.946 234.743 373.787 235.062 373.547 235.46C372.43 237.768 371.153 240.155 369.557 242.702C369.317 243.179 368.998 243.657 368.679 244.134C368.279 244.692 367.96 245.328 367.561 245.885C367.242 246.363 366.923 246.84 366.603 247.318C364.608 250.263 362.373 253.366 359.739 256.709C359.101 257.505 358.462 258.301 357.744 259.097C357.185 259.813 356.547 260.529 355.908 261.246C355.749 261.484 355.509 261.564 355.19 261.564C354.951 261.564 354.631 261.564 354.392 261.564C354.312 261.564 354.232 261.564 354.152 261.564H354.073C353.833 261.564 353.514 261.564 353.274 261.484H353.195C353.115 261.484 353.035 261.484 352.955 261.484H352.556C352.317 261.484 351.997 261.405 351.758 261.405C351.519 261.405 351.199 261.325 350.96 261.325C350.72 261.325 350.561 261.246 350.321 261.246C349.842 261.166 349.364 261.086 348.885 261.007C348.565 260.927 348.326 260.927 348.007 260.848C347.927 260.848 347.767 260.768 347.687 260.768C347.528 260.688 347.288 260.688 347.129 260.609C346.969 260.529 346.73 260.529 346.57 260.45C346.49 260.45 346.49 260.45 346.41 260.37C346.171 260.29 345.932 260.29 345.772 260.211C345.612 260.211 345.532 260.131 345.373 260.131C345.213 260.052 345.054 260.052 344.894 259.972C344.655 259.893 344.415 259.813 344.176 259.733C344.016 259.654 343.856 259.654 343.697 259.574C343.617 259.574 343.537 259.495 343.457 259.495C343.378 259.495 343.377 259.415 343.298 259.415C343.138 259.335 342.978 259.256 342.819 259.256C342.1 258.938 341.382 258.54 340.744 258.221M379.533 182.614C379.533 182.535 379.374 182.455 379.294 182.455C369.477 183.092 357.744 189.538 355.669 190.732C355.429 190.891 355.35 190.971 355.35 190.971C355.35 190.971 355.19 191.05 355.03 191.13C354.472 191.448 338.269 202.511 331.246 210.151C331.246 210.231 331.166 210.231 331.166 210.31C330.767 211.902 327.095 227.66 327.016 239.598C327.016 239.837 327.016 240.155 327.016 240.394C327.016 240.633 327.016 240.951 327.016 241.19C327.016 241.429 327.016 241.747 327.016 241.986C327.016 243.179 327.095 244.373 327.255 245.647C327.255 245.965 327.335 246.363 327.415 246.681C327.495 247.238 327.574 247.875 327.654 248.432C327.654 248.671 327.734 248.83 327.734 249.069C327.734 249.228 327.814 249.467 327.814 249.626C327.894 250.024 327.973 250.422 328.053 250.74C328.293 251.775 328.692 252.889 329.091 253.924C329.171 254.162 329.25 254.322 329.33 254.56C329.41 254.799 329.57 255.038 329.65 255.356C329.809 255.674 329.889 255.913 330.049 256.232C330.208 256.47 330.288 256.789 330.448 257.027C330.607 257.346 330.767 257.585 330.927 257.903C331.086 258.142 331.166 258.38 331.326 258.54C331.485 258.778 331.645 259.017 331.804 259.256C331.964 259.495 332.124 259.733 332.363 259.972C332.523 260.131 332.682 260.37 332.842 260.529C333.161 260.848 333.481 261.246 333.8 261.564C334.119 261.882 334.438 262.121 334.678 262.439C334.758 262.519 334.837 262.519 334.837 262.598C335.077 262.837 335.316 262.996 335.556 263.156C335.875 263.394 336.114 263.633 336.434 263.872C336.673 264.031 336.833 264.19 337.072 264.27C337.312 264.429 337.551 264.509 337.711 264.668C341.861 267.135 347.608 268.488 355.429 267.931C379.853 241.508 383.763 219.94 383.763 207.604C383.843 195.985 380.092 184.286 379.533 182.614Z" stroke="#424242" stroke-width="2" stroke-miterlimit="10"/>
<path d="M330.607 242.145L330.527 241.906V241.827C330.527 241.747 330.527 241.667 330.527 241.508V241.19C330.527 241.11 330.527 240.951 330.527 240.792H332.124V240.872V240.951C332.124 241.11 332.124 241.349 332.203 241.508V241.667H331.804H332.203L330.607 242.145Z" fill="#424242"/>
<path d="M330.607 242.305L330.527 241.987L332.124 241.827L332.203 242.146L330.607 242.305Z" fill="#424242"/>
<path d="M332.841 250.82L332.681 250.502C332.601 250.343 332.521 250.184 332.521 250.104L334.038 249.547C334.118 249.786 334.198 249.945 334.357 250.184L332.841 250.82Z" fill="#424242"/>
<path d="M333.082 251.218C333.082 251.138 333.002 251.138 333.002 251.059L332.922 250.899L334.279 250.104L334.359 250.183C334.359 250.183 334.359 250.263 334.438 250.263V250.342L333.082 251.218Z" fill="#424242"/>
<path d="M335.557 252.173H333.641L333.162 251.377L334.04 250.899V250.581V250.899L334.519 250.661C334.599 250.74 334.599 250.82 334.679 250.979L335.557 252.173Z" fill="#424242"/>
<path d="M355.668 262.042L352.795 260.45L353.593 259.097L355.269 260.052C355.509 259.813 355.668 259.654 355.828 259.415C356.227 259.017 356.546 258.699 356.865 258.301C357.504 257.505 358.222 256.709 358.781 255.913C361.255 252.81 363.57 249.706 365.645 246.602C365.964 246.124 366.283 245.647 366.603 245.169C367.002 244.612 367.401 243.976 367.72 243.418C368.039 242.941 368.279 242.463 368.518 242.065C369.955 239.678 371.312 237.29 372.429 234.903L372.509 234.743C372.669 234.425 372.828 234.107 372.988 233.788C373.307 233.072 373.626 232.356 373.946 231.64C374.185 231.083 374.424 230.525 374.664 230.048C374.744 229.809 374.903 229.491 374.983 229.252C376.021 226.546 376.899 223.84 377.457 221.214C377.537 220.816 377.617 220.338 377.697 219.94V219.861C377.777 219.622 377.777 219.304 377.856 219.065L377.936 218.747C377.936 218.587 378.016 218.428 378.016 218.269C378.176 217.235 378.335 216.2 378.415 215.245V215.165C378.415 214.847 378.495 214.608 378.495 214.29C378.655 212.459 378.655 210.868 378.655 209.515C378.655 202.193 375.861 192.324 374.983 189.538C374.983 189.538 374.983 189.538 374.903 189.538H374.744C374.425 189.538 374.185 189.618 373.866 189.618L373.626 188.026C373.946 187.947 374.265 187.947 374.584 187.867H374.744C374.983 187.867 375.223 187.788 375.462 187.788L376.101 187.708L376.26 188.345C376.659 189.618 380.171 201.079 380.171 209.355C380.171 210.788 380.171 212.38 380.011 214.29C380.011 214.529 379.932 214.847 379.932 215.165V215.245C379.852 216.2 379.692 217.235 379.533 218.349C379.533 218.508 379.453 218.667 379.453 218.826L379.373 219.065C379.293 219.383 379.293 219.622 379.213 219.94V220.02C379.134 220.418 379.054 220.895 378.894 221.293C378.256 223.999 377.378 226.785 376.34 229.491C376.26 229.73 376.101 230.048 376.021 230.287C375.781 230.844 375.542 231.401 375.302 231.958C374.983 232.674 374.664 233.391 374.345 234.107C374.185 234.425 374.025 234.744 373.866 235.062L373.786 235.221C372.589 237.688 371.232 240.076 369.795 242.543C369.556 243.02 369.237 243.498 368.917 243.976C368.518 244.533 368.199 245.169 367.8 245.726C367.481 246.204 367.161 246.681 366.842 247.159C364.767 250.263 362.452 253.446 359.898 256.55C359.26 257.346 358.621 258.142 357.903 258.938C357.504 259.415 357.185 259.813 356.786 260.132C356.466 260.45 356.147 260.768 355.828 261.166L355.668 262.042Z" fill="#424242"/>
<path d="M354.871 262.041H354.232C354.152 262.041 354.072 262.041 353.993 262.041H353.913C353.673 262.041 353.354 262.041 353.115 261.962C353.035 261.962 352.955 261.962 352.875 261.962H352.396C352.077 261.962 351.758 261.882 351.518 261.882C351.279 261.882 350.96 261.802 350.72 261.802C350.481 261.802 350.321 261.723 350.082 261.723C349.603 261.643 349.124 261.564 348.565 261.484H348.485C348.166 261.405 347.767 261.325 347.448 261.325H347.368L346.809 261.166C346.65 261.086 346.41 261.086 346.251 261.007C346.171 261.007 346.171 261.007 346.091 261.007C345.852 260.927 345.612 260.847 345.373 260.768C345.293 260.768 345.213 260.768 345.133 260.688L344.894 260.609C344.734 260.529 344.575 260.529 344.415 260.45C344.176 260.37 343.936 260.29 343.697 260.211C343.537 260.131 343.377 260.131 343.218 260.052H343.138H342.978L342.819 259.892H342.739C342.739 259.892 342.659 259.892 342.659 259.813C342.579 259.733 342.42 259.733 342.34 259.654L342.18 259.574C341.542 259.256 340.823 258.937 340.105 258.539C339.945 258.46 339.866 258.38 339.786 258.301L339.466 258.142C339.387 258.142 339.387 258.062 339.307 258.062L339.227 257.982H339.307C338.988 257.823 338.828 257.664 338.589 257.505C338.509 257.425 338.349 257.346 338.189 257.186L339.147 255.913C339.307 256.072 339.466 256.152 339.546 256.231C339.786 256.391 339.945 256.47 340.105 256.629L340.185 256.709C340.265 256.709 340.265 256.789 340.265 256.789L340.584 257.027C340.664 257.107 340.823 257.186 340.903 257.186C341.621 257.584 342.26 257.903 342.898 258.221L343.058 258.301C343.138 258.301 343.218 258.38 343.218 258.38L343.697 258.539H343.776C343.936 258.619 344.016 258.619 344.176 258.699C344.415 258.778 344.654 258.858 344.894 258.937C345.053 259.017 345.213 259.017 345.373 259.097L345.612 259.176C345.692 259.176 345.692 259.176 345.772 259.256C346.011 259.335 346.171 259.415 346.41 259.415L346.65 259.494C346.809 259.574 346.969 259.574 347.129 259.654L347.687 259.813C348.007 259.892 348.406 259.972 348.725 260.052H348.885C349.363 260.131 349.842 260.211 350.241 260.211C350.481 260.211 350.64 260.29 350.88 260.29C351.119 260.29 351.439 260.37 351.678 260.37C351.917 260.37 352.157 260.45 352.317 260.45L350.88 259.574C350.8 259.574 350.8 259.574 350.72 259.574V259.494L350.8 259.415L350.96 257.982C351.04 257.982 351.04 257.982 351.119 257.982H351.359L353.673 259.335C355.03 260.529 355.35 261.007 355.11 261.564L354.871 262.041Z" fill="#424242"/>
<path d="M371.313 190.334L370.914 188.822C371.313 188.742 371.712 188.583 372.111 188.503C372.271 188.424 372.431 188.424 372.59 188.424L372.909 190.016C372.83 190.016 372.67 190.095 372.59 190.095H372.51C372.031 190.175 371.632 190.254 371.313 190.334Z" fill="#424242"/>
<path d="M331.246 211.266L326.378 208.401C326.138 208.241 325.979 208.003 325.979 207.764C325.979 207.525 325.979 207.207 326.218 207.048C336.195 196.144 347.927 189.141 350.162 187.867C350.322 187.788 350.402 187.708 350.481 187.708C350.561 187.629 350.641 187.629 350.88 187.469C352.237 186.673 364.688 179.59 375.064 179.033H375.304L379.294 181.341C379.693 181.58 379.933 182.057 379.773 182.455C379.693 182.933 379.294 183.251 378.815 183.251C369.318 184.047 358.223 190.175 356.068 191.449C355.829 191.528 355.749 191.608 355.749 191.608L355.51 191.767C355.43 191.767 355.43 191.847 355.35 191.847C354.472 192.404 338.669 203.227 331.885 210.629C331.885 210.629 331.805 210.709 331.725 210.788L331.246 211.266ZM327.974 207.525L331.007 209.276C338.19 201.636 353.754 190.971 354.552 190.494C354.712 190.414 354.871 190.334 354.951 190.255C355.031 190.255 355.111 190.175 355.27 190.096C357.345 188.902 367.562 183.251 376.98 181.898L374.905 180.705C364.928 181.341 353.035 188.106 351.679 188.902C351.519 188.981 351.439 188.981 351.439 189.061L351.359 189.141L351.04 189.3C349.603 190.016 337.871 196.94 327.974 207.525Z" fill="#424242"/>
<path d="M354.232 262.042C354.152 262.042 354.072 262.042 353.993 262.042H353.913C353.673 262.042 353.354 262.042 353.115 261.963C353.035 261.963 352.955 261.963 352.875 261.963H352.396C352.077 261.963 351.758 261.883 351.518 261.883C351.279 261.883 350.96 261.803 350.72 261.803C350.481 261.803 350.321 261.724 350.082 261.724C349.603 261.644 349.124 261.565 348.565 261.485H348.485C348.166 261.406 347.767 261.326 347.448 261.326H347.368L346.809 261.167C346.65 261.087 346.41 261.087 346.251 261.008C346.171 261.008 346.171 261.008 346.091 261.008C345.852 260.928 345.612 260.848 345.373 260.769C345.293 260.769 345.213 260.769 345.133 260.689L344.894 260.61C344.734 260.53 344.575 260.53 344.415 260.45C344.176 260.371 343.936 260.291 343.697 260.212C343.537 260.132 343.377 260.132 343.218 260.053H343.138H342.978L342.819 259.893H342.739C342.739 259.893 342.659 259.893 342.659 259.814C342.579 259.734 342.42 259.734 342.34 259.655L342.18 259.575C341.542 259.257 340.823 258.938 340.105 258.54C339.945 258.461 339.866 258.381 339.786 258.302L339.466 258.142C339.387 258.142 339.387 258.063 339.307 258.063L339.227 257.983H339.307C338.988 257.824 338.828 257.665 338.589 257.506C338.509 257.426 338.349 257.347 338.189 257.187L339.147 255.914C339.307 256.073 339.466 256.153 339.546 256.232C339.786 256.392 339.945 256.471 340.105 256.63L340.185 256.71C340.265 256.71 340.265 256.79 340.265 256.79L340.584 257.028C340.664 257.108 340.823 257.187 340.903 257.187C341.621 257.585 342.26 257.904 342.898 258.222L343.058 258.302C343.138 258.302 343.218 258.381 343.218 258.381L343.697 258.54H343.776C343.936 258.62 344.016 258.62 344.176 258.7C344.415 258.779 344.654 258.859 344.894 258.938C345.053 259.018 345.213 259.018 345.373 259.098L345.612 259.177C345.692 259.177 345.692 259.177 345.772 259.257C346.011 259.336 346.171 259.416 346.41 259.416L346.65 259.495C346.809 259.575 346.969 259.575 347.129 259.655L347.687 259.814C348.007 259.893 348.406 259.973 348.725 260.053H348.885C349.363 260.132 349.842 260.212 350.241 260.212C350.481 260.212 350.64 260.291 350.88 260.291C351.119 260.291 351.439 260.371 351.678 260.371C351.997 260.371 352.237 260.45 352.476 260.45H352.636L350.481 259.495L351.119 258.063L353.673 259.177L353.753 259.257C355.11 260.689 355.27 261.087 355.03 261.565L354.791 262.042H354.232C354.232 262.042 354.232 262.042 354.232 262.042Z" fill="#424242"/>
<path d="M350.8 258.699C350.88 258.699 350.96 258.699 351.04 258.699C359.739 248.591 365.326 239.916 368.838 232.594C374.744 220.497 375.144 212.141 375.144 206.888C375.144 200.998 373.308 193.438 372.19 189.22C371.791 189.299 371.472 189.379 371.073 189.458C370.834 189.538 370.514 189.618 370.275 189.697C369.796 189.856 369.237 190.016 368.758 190.175C368.679 190.175 368.679 190.175 368.679 190.254C367.96 190.493 367.322 190.732 366.603 190.971C365.885 191.209 365.247 191.528 364.528 191.766C364.289 191.846 363.97 192.005 363.73 192.085C363.331 192.244 362.932 192.403 362.453 192.642C361.894 192.881 361.416 193.119 360.937 193.358C360.617 193.517 360.378 193.597 360.059 193.756C359.66 193.915 359.261 194.154 358.941 194.313C358.941 194.313 358.861 194.313 358.861 194.393C358.542 194.552 358.223 194.711 357.904 194.87C357.824 194.87 357.824 194.95 357.744 194.95C357.505 195.03 357.265 195.189 357.026 195.348C356.467 195.587 356.068 195.825 355.749 195.985C355.589 196.064 355.509 196.144 355.429 196.144C355.35 196.144 355.35 196.223 355.35 196.223C354.711 196.621 342.579 203.943 334.917 212.22C334.758 213.096 331.166 229.013 331.166 237.369C331.166 237.767 331.166 238.165 331.166 238.563C331.166 238.643 331.166 238.722 331.166 238.722V239.041V239.12C331.166 239.279 331.166 239.359 331.166 239.518C331.166 239.598 331.166 239.677 331.166 239.837C331.166 239.996 331.166 240.075 331.166 240.235C331.166 240.314 331.166 240.314 331.166 240.394C331.166 240.553 331.166 240.632 331.166 240.792C331.166 240.871 331.166 240.951 331.166 241.03C331.166 241.269 331.166 241.508 331.246 241.667C331.246 241.747 331.246 241.747 331.246 241.826C331.246 241.906 331.246 242.065 331.246 242.145C331.246 242.463 331.326 242.781 331.326 243.02C331.326 243.1 331.326 243.179 331.405 243.259C331.405 243.338 331.405 243.338 331.405 243.338C331.405 243.418 331.405 243.498 331.405 243.498V243.577C331.405 243.657 331.405 243.657 331.405 243.736C331.405 243.895 331.485 244.055 331.485 244.214C331.485 244.214 331.485 244.214 331.485 244.293V244.453C331.485 244.532 331.565 244.691 331.565 244.851C331.565 244.93 331.645 245.089 331.645 245.169C331.645 245.248 331.645 245.328 331.725 245.408V245.487C331.725 245.567 331.725 245.646 331.805 245.646C331.805 245.726 331.805 245.806 331.884 245.806C331.884 245.885 331.884 245.965 331.964 246.044C332.044 246.283 332.044 246.522 332.124 246.761C332.124 246.84 332.124 246.84 332.204 246.92V246.999C332.204 247.079 332.283 247.159 332.283 247.238C332.283 247.318 332.363 247.397 332.363 247.477C332.443 247.716 332.523 247.954 332.603 248.114C332.603 248.193 332.682 248.273 332.682 248.352V248.432C332.682 248.511 332.762 248.591 332.762 248.671C332.762 248.75 332.762 248.83 332.842 248.83C332.922 248.909 332.922 249.069 333.002 249.148C333.002 249.148 333.002 249.148 333.002 249.228C333.002 249.307 333.082 249.387 333.082 249.467C333.161 249.705 333.321 249.944 333.401 250.103V250.183C333.481 250.262 333.481 250.342 333.481 250.422C333.481 250.422 333.481 250.422 333.481 250.501C333.481 250.581 333.56 250.66 333.56 250.66C333.64 250.819 333.72 250.899 333.8 251.058C333.8 251.058 333.8 251.138 333.88 251.138C333.88 251.138 333.88 251.217 333.96 251.217C333.96 251.297 334.039 251.297 334.039 251.377C334.119 251.456 334.119 251.536 334.199 251.615C334.279 251.695 334.359 251.854 334.359 251.934C334.438 252.013 334.438 252.013 334.438 252.093C334.438 252.172 334.518 252.172 334.518 252.252C334.598 252.332 334.598 252.411 334.678 252.491C334.758 252.57 334.837 252.73 334.917 252.809C334.917 252.809 334.917 252.809 334.997 252.889C334.997 252.889 334.997 252.889 334.997 252.968C334.997 252.968 334.997 252.968 335.077 253.048C335.077 253.048 335.077 253.128 335.157 253.128L335.237 253.207C336.194 254.401 337.391 255.595 338.509 256.47" stroke="#424242" stroke-width="2" stroke-miterlimit="10"/>
<path d="M330.527 241.827C330.527 241.588 330.447 241.429 330.447 241.19V241.031H332.044C332.044 241.19 332.044 241.429 332.123 241.588C332.123 241.588 332.123 241.588 332.123 241.668L330.527 241.827Z" fill="#424242"/>
<path d="M330.607 242.305L330.527 241.987L332.124 241.827L332.203 242.146L330.607 242.305Z" fill="#424242"/>
<path d="M332.282 249.626C332.203 249.547 332.203 249.467 332.203 249.388C332.203 249.308 332.203 249.308 332.123 249.228C332.123 249.149 332.043 249.069 332.043 248.99L333.559 248.433C333.559 248.512 333.639 248.592 333.639 248.592L333.719 248.751V248.831L332.282 249.626Z" fill="#424242"/>
<path d="M352.874 260.53L351.438 259.893L349.762 258.938L350.4 258.222C358.142 249.149 364.128 240.474 368.119 232.276C373.706 220.896 374.344 212.778 374.344 206.968C374.344 201.158 372.509 193.597 371.391 189.539L371.152 188.743L372.03 188.504C372.189 188.504 372.349 188.424 372.429 188.424C372.828 188.345 373.307 188.265 373.706 188.186L373.945 189.777C373.626 189.857 373.307 189.857 373.067 189.936C374.344 194.871 375.861 201.636 375.861 206.968C375.861 212.937 375.143 221.373 369.476 232.993C365.565 241.031 359.738 249.626 352.156 258.54L353.433 259.097L352.874 260.53Z" fill="#424242"/>
<path d="M353.435 260.61L352.796 260.53L352.876 259.734L352.397 260.371C352.317 260.291 351.838 260.052 351.519 259.893L350.881 259.495C350.881 259.495 350.881 259.495 350.801 259.495C347.449 259.734 342.58 258.222 335.477 254.641L336.195 253.208C342.979 256.63 347.768 258.142 350.801 257.904H350.881H350.96C351.04 257.904 351.04 257.904 351.12 257.904H351.36L352.317 258.461C353.515 259.097 353.914 259.336 353.754 259.973L353.435 260.61ZM352.876 259.734L352.956 258.938L352.876 259.734Z" fill="#424242"/>
<path d="M371.313 190.335L370.914 188.823C371.313 188.743 371.712 188.584 372.111 188.504C372.271 188.425 372.431 188.425 372.59 188.425L372.909 190.017C372.83 190.017 372.67 190.096 372.59 190.096H372.51C372.031 190.176 371.632 190.255 371.313 190.335Z" fill="#424242"/>
<path d="M351.918 237.529L348.885 235.46L363.012 206.252C363.73 205.058 364.927 204.422 366.364 204.581C368.2 204.74 369.716 206.093 370.275 207.923L368.759 208.401C368.28 206.889 367.082 206.252 366.204 206.172C365.805 206.093 364.927 206.093 364.449 206.968L350.96 234.903L352.796 236.177L351.918 237.529Z" fill="#424242"/>
<path d="M350.639 243.499L348.085 242.066L337.23 234.585L338.108 233.312L340.583 234.744L351.517 242.146L350.639 243.499Z" fill="#424242"/>
<path d="M339.785 236.097L337.151 234.585C335.316 233.152 335.316 231.003 336.114 229.571C336.992 228.138 338.748 227.104 340.663 227.9L340.823 227.979L343.856 230.048L342.978 231.322L341.541 230.287L342.1 231.242C341.701 231.481 341.302 231.879 340.982 232.436C340.344 233.55 340.424 234.505 340.663 234.664L339.785 236.097ZM338.109 233.311L338.907 233.789C338.987 233.152 339.227 232.436 339.626 231.72C340.025 231.083 340.583 230.526 341.062 230.128L340.025 229.412C338.987 229.014 338.029 229.65 337.55 230.446C337.072 231.242 336.992 232.436 338.109 233.311Z" fill="#424242"/>
<path d="M351.597 243.817C351.198 243.817 350.879 243.737 350.56 243.498L339.705 236.097C338.587 235.381 338.508 233.47 339.545 231.72C340.024 231.003 340.583 230.367 341.221 230.048L341.541 229.889C342.019 229.73 342.419 229.65 342.818 229.65C342.897 229.65 342.897 229.65 342.977 229.65H343.217L343.296 229.73H343.376L343.616 229.889L352.076 235.699L365.245 208.878C365.724 207.923 366.363 207.207 367.161 206.73C367.799 206.332 368.518 206.252 369.076 206.491L369.396 206.65C370.513 207.287 370.673 208.958 369.875 210.709L354.79 241.35C354.311 242.225 353.672 243.021 352.874 243.498C352.475 243.658 352.076 243.817 351.597 243.817ZM342.578 231.162C342.498 231.162 342.339 231.163 342.259 231.242L342.099 231.322C341.78 231.56 341.381 231.958 341.062 232.436C340.423 233.55 340.503 234.505 340.742 234.664L351.597 242.066C351.677 242.145 351.916 242.066 352.236 241.907C352.715 241.588 353.193 241.111 353.513 240.474L368.518 209.833C368.997 208.799 368.917 208.082 368.677 207.923H368.598C368.438 207.844 368.278 207.923 367.959 208.082C367.48 208.401 367.001 208.878 366.682 209.515L352.715 238.007L342.897 231.242H342.818L342.738 231.162H342.578Z" fill="#424242"/>
<path d="M414.011 185.161V259.097L351.756 294.99L350.639 221.771L414.011 185.161ZM353.193 223.363V291.409L411.377 257.505V189.459" fill="#3D3D3D"/>
<path d="M351.756 294.99L290.459 259.097V185.161L353.193 222.01L351.756 294.99ZM293.013 257.664L350.639 291.409V223.363L293.173 189.459L293.013 257.664Z" fill="#3D3D3D"/>
</g>
</g>
<defs>
<radialGradient id="paint0_radial" cx="0" cy="0" r="1" gradientUnits="userSpaceOnUse" gradientTransform="translate(365.147 462.107) rotate(180) scale(407.521 406.358)">
<stop stop-color="#F2F2F2"/>
<stop offset="1"/>
</radialGradient>
<clipPath id="clip0">
<rect width="700" height="700" fill="white"/>
</clipPath>
</defs>
</svg>
