<svg width="1366" height="178" viewBox="0 0 1366 178" fill="none" xmlns="http://www.w3.org/2000/svg">
<g opacity="0.1">
<path d="M1334.45 178.001H1318.17L1349.72 89.0032L1318.17 0.00585938L1334.45 0.00585937L1366 89.0032L1334.45 178.001Z" fill="#A5A5A5"/>
<path d="M1083.33 178.001H1067.76L1097.94 89.0032L1067.76 0.00585938L1083.33 0.00585937L1113.51 89.0032L1083.33 178.001Z" fill="#A5A5A5"/>
<path d="M967.371 178.001H951.094L982.644 89.0032L951.094 0.00585938L967.371 0.00585937L998.921 89.0032L967.371 178.001Z" fill="#A5A5A5"/>
<path d="M777.284 3.48438C795.445 3.48438 810.427 10.4629 822.232 24.42C834.263 38.3771 840.279 55.936 840.279 77.0968V177.723H814.74V80.1358C814.74 65.0532 810.314 52.4468 801.46 42.3166C792.607 31.9613 781.824 26.7837 769.111 26.7837C755.037 26.7837 743.346 31.8488 734.038 41.9789C724.958 52.1091 720.417 64.828 720.417 80.1358V177.723H694.879V80.1358C694.879 65.0532 690.452 52.4468 681.599 42.3166C672.972 31.9613 662.303 26.7837 649.59 26.7837C635.515 26.7837 623.824 31.8488 614.517 41.9789C605.436 52.1091 600.896 64.828 600.896 80.1358V177.723H575.357V6.86109H600.896V49.4077C605.663 35.4506 613.041 24.3075 623.03 15.9782C633.245 7.649 644.936 3.48438 658.103 3.48438C672.405 3.48438 684.777 7.98667 695.219 16.9913C705.662 25.9958 712.926 37.9269 717.012 52.7844C721.098 37.9269 728.476 25.9958 739.146 16.9913C750.042 7.98667 762.755 3.48438 777.284 3.48438Z" fill="#A5A5A5"/>
<path d="M62.9947 177.725C44.8338 177.725 29.851 170.7 18.0465 156.649C6.0149 142.599 -0.00091089 124.923 -0.000909019 103.621L-0.000900121 2.32447L25.5379 2.32447L25.5378 100.562C25.5378 115.745 29.9646 128.436 38.818 138.633C47.6714 149.058 58.4545 154.27 71.1671 154.27C85.2417 154.27 96.9328 149.171 106.24 138.973C115.321 128.776 119.861 115.972 119.861 100.562L119.861 2.32448L145.4 2.32448L145.4 100.562C145.4 115.745 149.826 128.436 158.68 138.633C167.306 149.058 177.976 154.27 190.688 154.27C204.763 154.27 216.454 149.171 225.762 138.973C234.842 128.776 239.382 115.972 239.382 100.562L239.382 2.32449L264.921 2.32449L264.921 174.325L239.382 174.325L239.382 131.495C234.615 145.545 227.237 156.763 217.249 165.147C207.033 173.532 195.342 177.725 182.175 177.725C167.874 177.725 155.502 173.192 145.059 164.128C134.617 155.063 127.352 143.052 123.266 128.096C119.18 143.052 111.802 155.063 101.133 164.128C90.236 173.192 77.5234 177.725 62.9947 177.725Z" fill="#A5A5A5"/>
<path d="M450.081 0C474.806 0 495.448 8.55956 512.007 25.6787C528.565 42.5725 536.845 63.6335 536.845 88.8617C536.845 114.09 528.565 135.263 512.007 152.383C495.448 169.276 474.806 177.723 450.081 177.723C427.171 177.723 407.663 170.515 391.558 156.099C375.453 141.458 366.153 122.875 363.658 100.349L328.952 100.349V174.345H303.434V3.37877L328.952 3.37877V77.3738L363.658 77.3738C366.153 54.8487 375.453 36.3781 391.558 21.962C407.663 7.32066 427.171 0 450.081 0ZM405.508 135.489C417.304 147.878 431.935 154.072 449.401 154.072C466.867 154.072 481.498 147.878 493.293 135.489C505.088 122.875 510.986 107.332 510.986 88.8617C510.986 70.3911 505.088 54.9613 493.293 42.5725C481.498 29.9584 466.867 23.6514 449.401 23.6514C431.935 23.6514 417.304 29.9584 405.508 42.5725C393.94 54.9613 388.156 70.3911 388.156 88.8617C388.156 107.332 393.94 122.875 405.508 135.489Z" fill="#A5A5A5"/>
</g>
</svg>
