<svg width="240" height="62" viewBox="0 0 240 62" fill="none" xmlns="http://www.w3.org/2000/svg">
<path fill-rule="evenodd" clip-rule="evenodd" d="M31 0C48.0832 0 62 13.9168 62 31C62 48.0832 48.0832 62 31 62C13.9168 62 0 48.0832 0 31C0 13.9168 13.9168 0 31 0ZM31 2.1333C46.8989 2.1333 59.8667 15.1011 59.8667 31C59.8667 46.8989 46.8989 59.8667 31 59.8667C15.1011 59.8667 2.1333 46.8989 2.1333 31C2.1333 15.1011 15.1011 2.1333 31 2.1333Z" fill="#F2F2F2"/>
<path fill-rule="evenodd" clip-rule="evenodd" d="M36.0863 16L36.6154 22.772H36.0863C35.5413 21.079 34.8463 19.8134 33.9933 18.9504C32.7612 17.7177 31.1817 17.1013 29.2467 17.1013C26.6087 17.1013 24.6027 18.1861 23.2284 20.3476C22.0753 22.1721 21.5067 24.3582 21.5067 26.8812C21.5067 28.9276 21.8858 30.8014 22.644 32.4862C23.4101 34.1792 24.4131 35.4202 25.6531 36.201C26.8852 36.9899 28.1567 37.3844 29.4599 37.3844C30.226 37.3844 30.9605 37.2776 31.6713 37.0803C32.39 36.8831 33.0693 36.5872 33.7327 36.1927V29.9796C33.7327 28.9112 33.6537 28.2044 33.4957 27.8674C33.3378 27.5387 33.093 27.2839 32.7612 27.1113C32.5085 26.9799 32.1136 26.8977 31.5687 26.8648H31.3001C30.3366 26.8648 29.6495 26.9388 29.2467 27.0867C28.7096 27.2839 28.2594 27.6702 27.8882 28.2373C27.5091 28.8126 27.288 29.5851 27.2169 30.5549H26.6324L26.8773 25.517H43.771L44 30.5549H43.4234C43.3129 29.6673 43.1628 29.0345 42.9654 28.6482C42.6495 28.04 42.2309 27.5962 41.7096 27.3004C41.1804 27.0127 40.4933 26.8648 39.6403 26.8648H38.3451C37.7132 26.9305 37.271 27.1935 37.0103 27.6784C36.8445 27.9989 36.7418 28.5824 36.7181 29.4289V43.2853C36.7181 44.6002 36.8603 45.4221 37.1288 45.7508C37.5237 46.1946 38.116 46.4165 38.9216 46.4165H39.6403V47H30.8578V46.4165H31.5923C32.469 46.4165 33.0851 46.1453 33.4484 45.5946C33.6774 45.2577 33.788 44.4852 33.788 43.2853V37.8364C33.6063 37.894 33.4247 37.9515 33.243 38.0008C32.1057 38.3049 30.842 38.461 29.4441 38.461C25.4478 38.461 22.407 37.1296 20.3299 34.4669C18.774 32.4698 18 30.1686 18 27.5634C18 25.6731 18.4344 23.8651 19.3111 22.1227C20.3457 20.0599 21.7752 18.4738 23.5759 17.3725C25.1002 16.452 26.8931 16 28.9544 16C29.7126 16 30.3919 16.0575 31.0079 16.189C31.6239 16.3123 32.4927 16.5917 33.6221 17.0191C34.1908 17.241 34.5778 17.356 34.7673 17.356C34.9648 17.356 35.1306 17.2574 35.2649 17.0766C35.3991 16.8958 35.486 16.5342 35.5176 16H36.0863Z" fill="#F2F2F2"/>
<path fill-rule="evenodd" clip-rule="evenodd" d="M83.697 43.3129C83.697 44.2337 83.3249 44.9724 82.5806 45.5391C81.8266 46.1058 80.8179 46.3892 79.5351 46.3892C78.7908 46.3892 78.1445 46.3284 77.5961 46.1969C77.0379 46.0552 76.5287 45.8832 76.0488 45.6808V43.4545H76.2936C76.7735 43.8492 77.3121 44.1528 77.8997 44.3653C78.4872 44.5778 79.0552 44.6891 79.6036 44.6891C79.7407 44.6891 79.9268 44.679 80.152 44.6486C80.387 44.6183 80.5731 44.5778 80.72 44.5272C80.8963 44.4462 81.0334 44.3552 81.1509 44.2438C81.2684 44.1325 81.3271 43.9706 81.3271 43.7379C81.3271 43.5355 81.239 43.3635 81.0725 43.2117C80.9061 43.0599 80.6612 42.9486 80.3479 42.8777C80.0051 42.7866 79.6526 42.7158 79.2804 42.645C78.8985 42.564 78.546 42.4729 78.2228 42.3616C77.4688 42.1086 76.9302 41.7646 76.5972 41.3396C76.2643 40.9044 76.0978 40.3681 76.0978 39.7205C76.0978 38.8502 76.4699 38.152 77.224 37.6055C77.9682 37.0591 78.9279 36.7858 80.103 36.7858C80.6906 36.7858 81.2782 36.8466 81.8462 36.968C82.4239 37.0793 82.9234 37.2311 83.3445 37.4132V39.5484H83.0996C82.7373 39.255 82.2966 38.9919 81.7678 38.7895C81.2488 38.5871 80.7102 38.4859 80.1716 38.4859C79.9757 38.4859 79.7897 38.5061 79.5938 38.5264C79.4078 38.5567 79.2217 38.6073 79.0454 38.6782C78.8887 38.7389 78.7516 38.8401 78.6439 38.9615C78.5264 39.1032 78.4774 39.2449 78.4774 39.4068C78.4774 39.6496 78.5656 39.8419 78.7418 39.9734C78.9279 40.105 79.2707 40.2163 79.7701 40.3276C80.0932 40.3985 80.4066 40.4693 80.7102 40.53C81.0138 40.6009 81.3369 40.6919 81.6895 40.8032C82.375 41.036 82.8842 41.3497 83.2074 41.7545C83.5305 42.1491 83.697 42.6753 83.697 43.3129ZM87.3203 46.2272H85.1561V39.2347H87.3203V46.2272ZM87.3889 38.2329H85.0974V36.543H87.3889V38.2329ZM96.1632 46.2272H93.9696V42.7563C93.9696 42.4729 93.9598 42.1896 93.9305 41.9164C93.9011 41.633 93.8619 41.4306 93.7836 41.2991C93.7052 41.1372 93.5877 41.036 93.4408 40.955C93.2841 40.8842 93.0687 40.8538 92.7945 40.8538C92.5889 40.8538 92.393 40.8842 92.1971 40.955C91.9915 41.0157 91.7663 41.1271 91.5312 41.2687V46.2272H89.367V39.2347H91.5312V40.0139C91.9131 39.7002 92.2853 39.4574 92.6378 39.2954C93.0001 39.1335 93.3919 39.0425 93.8227 39.0425C94.5572 39.0425 95.135 39.2651 95.5463 39.7103C95.9576 40.1455 96.1632 40.8032 96.1632 41.6735V46.2272ZM101.667 46.4094C101.079 46.4094 100.541 46.3386 100.051 46.1969C99.5613 46.0552 99.1402 45.8326 98.7779 45.529C98.4254 45.2254 98.1512 44.8409 97.9553 44.3855C97.7594 43.9099 97.6615 43.3736 97.6615 42.7563C97.6615 42.1086 97.7594 41.542 97.9749 41.0765C98.1805 40.6009 98.4743 40.2062 98.8562 39.8925C99.2186 39.599 99.6397 39.3865 100.12 39.255C100.59 39.1133 101.089 39.0425 101.598 39.0425C102.058 39.0425 102.489 39.1032 102.881 39.2044C103.263 39.3056 103.625 39.4371 103.968 39.6091V41.5116H103.655C103.576 41.4408 103.469 41.3497 103.351 41.2485C103.234 41.1473 103.087 41.0562 102.92 40.955C102.754 40.8741 102.577 40.7931 102.382 40.7324C102.176 40.6717 101.951 40.6413 101.696 40.6413C101.118 40.6413 100.668 40.8336 100.364 41.208C100.051 41.5926 99.8943 42.1086 99.8943 42.7563C99.8943 43.4242 100.051 43.9403 100.374 44.2944C100.687 44.6385 101.138 44.8206 101.726 44.8206C102 44.8206 102.245 44.7802 102.46 44.7195C102.685 44.6587 102.861 44.5778 103.008 44.4968C103.145 44.4159 103.263 44.3248 103.371 44.2337C103.478 44.1426 103.567 44.0516 103.655 43.9706H103.968V45.8731C103.625 46.035 103.273 46.1665 102.901 46.2677C102.529 46.3689 102.117 46.4094 101.667 46.4094ZM112.047 43.1408H107.092C107.121 43.6873 107.327 44.1123 107.699 44.4057C108.061 44.6992 108.61 44.8409 109.335 44.8409C109.795 44.8409 110.235 44.7599 110.657 44.5879C111.087 44.4159 111.43 44.2337 111.675 44.0415H111.92V45.8326C111.43 46.035 110.97 46.1868 110.539 46.2778C110.098 46.3689 109.628 46.4094 109.099 46.4094C107.748 46.4094 106.71 46.0957 105.985 45.4683C105.261 44.8409 104.898 43.9301 104.898 42.7664C104.898 41.6128 105.241 40.702 105.927 40.0342C106.612 39.3562 107.552 39.0222 108.737 39.0222C109.834 39.0222 110.657 39.3056 111.215 39.8824C111.773 40.4592 112.047 41.2789 112.047 42.3616V43.1408ZM109.893 41.8354C109.883 41.3598 109.765 41.0056 109.55 40.7729C109.344 40.5401 109.011 40.4187 108.561 40.4187C108.15 40.4187 107.807 40.53 107.533 40.7526C107.268 40.9753 107.112 41.3396 107.082 41.8354H109.893ZM124.337 46.2272H118.354V44.6081H120.244V39.7103H118.354V38.1924C118.647 38.1924 118.922 38.1722 119.186 38.1418C119.45 38.1014 119.676 38.0406 119.852 37.9496C120.058 37.8484 120.214 37.7168 120.312 37.5549C120.42 37.3829 120.479 37.1805 120.498 36.9275H122.486V44.6081H124.337V46.2272ZM133.474 41.0765C133.474 41.8455 133.376 42.564 133.18 43.2319C132.994 43.8998 132.7 44.4766 132.299 44.932C131.868 45.4177 131.339 45.7921 130.712 46.035C130.085 46.288 129.351 46.4094 128.509 46.4094C128.215 46.4094 127.892 46.3892 127.549 46.3487C127.206 46.3183 126.981 46.2778 126.873 46.2475V44.426H127.108C127.236 44.4867 127.402 44.5474 127.627 44.6183C127.853 44.679 128.156 44.7195 128.538 44.7195C128.852 44.7195 129.155 44.679 129.459 44.598C129.752 44.5171 130.017 44.3855 130.232 44.2135C130.467 44.0313 130.663 43.7885 130.82 43.5051C130.967 43.2218 131.075 42.8878 131.123 42.4932C130.771 42.7057 130.448 42.8575 130.154 42.9688C129.85 43.0801 129.478 43.1307 129.038 43.1307C128.695 43.1307 128.381 43.0902 128.068 43.0093C127.765 42.9182 127.481 42.7866 127.236 42.6146C126.903 42.3717 126.629 42.0479 126.433 41.6432C126.237 41.2485 126.139 40.7425 126.139 40.1354C126.139 39.1437 126.472 38.324 127.138 37.7067C127.804 37.0793 128.685 36.7656 129.762 36.7656C130.32 36.7656 130.81 36.8466 131.241 36.9983C131.672 37.1501 132.054 37.3728 132.367 37.6865C132.739 38.0406 133.013 38.496 133.19 39.0627C133.376 39.6091 133.474 40.277 133.474 41.0765ZM131.163 40.7223C131.163 40.2163 131.114 39.8014 131.016 39.4776C130.918 39.1538 130.791 38.8907 130.624 38.7186C130.516 38.577 130.379 38.4859 130.223 38.4252C130.076 38.3746 129.919 38.3442 129.743 38.3442C129.586 38.3442 129.439 38.3645 129.292 38.4252C129.155 38.4758 129.018 38.577 128.891 38.7186C128.763 38.8502 128.665 39.0323 128.587 39.2449C128.509 39.4574 128.46 39.7205 128.46 40.0139C128.46 40.3074 128.509 40.5503 128.587 40.7425C128.675 40.9449 128.793 41.0967 128.94 41.2181C129.077 41.3294 129.243 41.4003 129.439 41.4509C129.625 41.4914 129.831 41.5217 130.056 41.5217C130.242 41.5217 130.438 41.4914 130.644 41.4509C130.859 41.4003 131.026 41.3497 131.143 41.2991C131.143 41.2586 131.143 41.1878 131.153 41.1068C131.153 41.0157 131.163 40.8943 131.163 40.7223ZM142.228 41.0765C142.228 41.8455 142.131 42.564 141.935 43.2319C141.749 43.8998 141.455 44.4766 141.063 44.932C140.632 45.4177 140.103 45.7921 139.477 46.035C138.85 46.288 138.116 46.4094 137.273 46.4094C136.98 46.4094 136.656 46.3892 136.314 46.3487C135.971 46.3183 135.746 46.2778 135.638 46.2475V44.426H135.873C136 44.4867 136.167 44.5474 136.392 44.6183C136.617 44.679 136.921 44.7195 137.303 44.7195C137.616 44.7195 137.92 44.679 138.223 44.598C138.517 44.5171 138.781 44.3855 138.997 44.2135C139.232 44.0313 139.428 43.7885 139.584 43.5051C139.731 43.2218 139.839 42.8878 139.888 42.4932C139.535 42.7057 139.212 42.8575 138.919 42.9688C138.615 43.0801 138.243 43.1307 137.802 43.1307C137.459 43.1307 137.146 43.0902 136.833 43.0093C136.529 42.9182 136.245 42.7866 136 42.6146C135.667 42.3717 135.393 42.0479 135.197 41.6432C135.001 41.2485 134.903 40.7425 134.903 40.1354C134.903 39.1437 135.236 38.324 135.902 37.7067C136.568 37.0793 137.45 36.7656 138.527 36.7656C139.085 36.7656 139.575 36.8466 140.006 36.9983C140.436 37.1501 140.818 37.3728 141.122 37.6865C141.494 38.0406 141.768 38.496 141.945 39.0627C142.131 39.6091 142.228 40.277 142.228 41.0765ZM139.927 40.7223C139.927 40.2163 139.878 39.8014 139.78 39.4776C139.682 39.1538 139.555 38.8907 139.389 38.7186C139.281 38.577 139.144 38.4859 138.987 38.4252C138.84 38.3746 138.684 38.3442 138.507 38.3442C138.351 38.3442 138.204 38.3645 138.057 38.4252C137.92 38.4758 137.783 38.577 137.655 38.7186C137.528 38.8502 137.43 39.0323 137.352 39.2449C137.273 39.4574 137.224 39.7205 137.224 40.0139C137.224 40.3074 137.273 40.5503 137.352 40.7425C137.44 40.9449 137.557 41.0967 137.704 41.2181C137.841 41.3294 138.008 41.4003 138.204 41.4509C138.39 41.4914 138.595 41.5217 138.821 41.5217C139.007 41.5217 139.203 41.4914 139.408 41.4509C139.624 41.4003 139.79 41.3497 139.908 41.2991C139.908 41.2586 139.908 41.1878 139.917 41.1068C139.917 41.0157 139.927 40.8943 139.927 40.7223ZM151.111 41.5824C151.111 42.3717 151.042 43.0599 150.905 43.6772C150.768 44.3046 150.562 44.8105 150.268 45.2052C149.975 45.5998 149.593 45.9034 149.132 46.1159C148.662 46.3183 148.094 46.4195 147.409 46.4195C146.743 46.4195 146.165 46.3183 145.695 46.1058C145.225 45.9034 144.843 45.5897 144.549 45.1849C144.256 44.7802 144.04 44.2843 143.903 43.667C143.766 43.0599 143.707 42.3717 143.707 41.5926C143.707 40.7931 143.776 40.0949 143.913 39.4978C144.05 38.9008 144.265 38.3948 144.559 37.99C144.853 37.5853 145.245 37.2716 145.715 37.0692C146.185 36.8668 146.753 36.7656 147.409 36.7656C148.094 36.7656 148.672 36.8769 149.132 37.0793C149.602 37.2918 149.984 37.6055 150.278 38.0204C150.572 38.4252 150.778 38.921 150.915 39.5282C151.042 40.1252 151.111 40.8134 151.111 41.5824ZM148.79 41.5824C148.79 40.4693 148.682 39.6699 148.466 39.1943C148.251 38.7186 147.899 38.4758 147.409 38.4758C146.919 38.4758 146.567 38.7186 146.351 39.1943C146.136 39.6699 146.028 40.4693 146.028 41.6027C146.028 42.6956 146.146 43.4849 146.361 43.9807C146.576 44.4665 146.919 44.7093 147.409 44.7093C147.899 44.7093 148.241 44.4665 148.466 43.9807C148.682 43.4849 148.79 42.6956 148.79 41.5824Z" fill="#F2F2F2"/>
<path d="M86.8741 18.8836H89.973V24.8881C89.1773 25.4942 88.256 25.9593 87.2091 26.2835C86.1622 26.6077 85.1083 26.7698 84.0474 26.7698C82.5258 26.7698 81.1578 26.4456 79.9434 25.7972C78.729 25.1348 77.7728 24.2256 77.0748 23.0698C76.3908 21.9 76.0488 20.5821 76.0488 19.1162C76.0488 17.6503 76.3908 16.3395 77.0748 15.1837C77.7728 14.0138 78.7359 13.1047 79.9643 12.4563C81.1927 11.7939 82.5747 11.4626 84.1102 11.4626C85.3944 11.4626 86.56 11.6811 87.6069 12.1181C88.6539 12.555 89.5333 13.1893 90.2452 14.0209L88.0676 16.0505C87.0206 14.937 85.7574 14.3803 84.2777 14.3803C83.3424 14.3803 82.5119 14.5776 81.786 14.9723C81.0601 15.3669 80.4948 15.9237 80.09 16.6425C79.6852 17.3614 79.4828 18.1859 79.4828 19.1162C79.4828 20.0324 79.6852 20.8499 80.09 21.5687C80.4948 22.2876 81.0532 22.8514 81.7651 23.2601C82.4909 23.6548 83.3145 23.8521 84.2358 23.8521C85.2129 23.8521 86.0924 23.6407 86.8741 23.2178V18.8836Z" fill="#F2F2F2"/>
<path d="M96.16 14.5071H91.4698V11.7163H104.242V14.5071H99.5521V26.5161H96.16V14.5071Z" fill="#F2F2F2"/>
<path d="M119.012 26.7698C117.518 26.7698 116.164 26.4456 114.95 25.7972C113.749 25.1348 112.8 24.2256 112.102 23.0698C111.418 21.9 111.076 20.5821 111.076 19.1162C111.076 17.6503 111.418 16.3395 112.102 15.1837C112.8 14.0138 113.749 13.1047 114.95 12.4563C116.164 11.7939 117.525 11.4626 119.033 11.4626C120.303 11.4626 121.448 11.6882 122.467 12.1392C123.5 12.5902 124.365 13.2386 125.063 14.0843L122.885 16.114C121.894 14.9582 120.666 14.3803 119.2 14.3803C118.293 14.3803 117.483 14.5847 116.771 14.9934C116.059 15.3881 115.501 15.9448 115.096 16.6637C114.705 17.3825 114.51 18.2 114.51 19.1162C114.51 20.0324 114.705 20.8499 115.096 21.5687C115.501 22.2876 116.059 22.8514 116.771 23.2601C117.483 23.6548 118.293 23.8521 119.2 23.8521C120.666 23.8521 121.894 23.2672 122.885 22.0973L125.063 24.127C124.365 24.9868 123.5 25.6422 122.467 26.0932C121.434 26.5442 120.282 26.7698 119.012 26.7698Z" fill="#F2F2F2"/>
<path d="M132.095 26.6852C130.909 26.6852 129.841 26.4385 128.891 25.9452C127.956 25.4378 127.223 24.7401 126.693 23.8521C126.162 22.9641 125.897 21.9563 125.897 20.8287C125.897 19.7011 126.162 18.6934 126.693 17.8054C127.223 16.9174 127.956 16.2267 128.891 15.7334C129.841 15.226 130.909 14.9723 132.095 14.9723C133.282 14.9723 134.342 15.226 135.278 15.7334C136.213 16.2267 136.946 16.9174 137.476 17.8054C138.007 18.6934 138.272 19.7011 138.272 20.8287C138.272 21.9563 138.007 22.9641 137.476 23.8521C136.946 24.7401 136.213 25.4378 135.278 25.9452C134.342 26.4385 133.282 26.6852 132.095 26.6852ZM132.095 23.979C132.933 23.979 133.617 23.6971 134.147 23.1333C134.691 22.5554 134.964 21.7872 134.964 20.8287C134.964 19.8703 134.691 19.1092 134.147 18.5454C133.617 17.9675 132.933 17.6785 132.095 17.6785C131.258 17.6785 130.567 17.9675 130.022 18.5454C129.478 19.1092 129.206 19.8703 129.206 20.8287C129.206 21.7872 129.478 22.5554 130.022 23.1333C130.567 23.6971 131.258 23.979 132.095 23.979Z" fill="#F2F2F2"/>
<path d="M143.575 16.6425C143.966 16.0928 144.489 15.677 145.146 15.3951C145.816 15.1132 146.583 14.9723 147.449 14.9723V18.0168C147.086 17.9886 146.842 17.9745 146.716 17.9745C145.781 17.9745 145.048 18.2423 144.517 18.7779C143.987 19.2994 143.722 20.0888 143.722 21.1459V26.5161H140.455V15.1414H143.575V16.6425Z" fill="#F2F2F2"/>
<path d="M156.049 14.9723C157.096 14.9723 158.046 15.2189 158.897 15.7123C159.763 16.1915 160.44 16.8751 160.928 17.7631C161.417 18.637 161.661 19.6589 161.661 20.8287C161.661 21.9986 161.417 23.0276 160.928 23.9155C160.44 24.7894 159.763 25.473 158.897 25.9664C158.046 26.4456 157.096 26.6852 156.049 26.6852C154.612 26.6852 153.481 26.2271 152.657 25.3109V30.6177H149.391V15.1414H152.511V16.4523C153.32 15.4656 154.5 14.9723 156.049 14.9723ZM155.484 23.979C156.322 23.979 157.006 23.6971 157.536 23.1333C158.08 22.5554 158.353 21.7872 158.353 20.8287C158.353 19.8703 158.08 19.1092 157.536 18.5454C157.006 17.9675 156.322 17.6785 155.484 17.6785C154.647 17.6785 153.956 17.9675 153.411 18.5454C152.881 19.1092 152.616 19.8703 152.616 20.8287C152.616 21.7872 152.881 22.5554 153.411 23.1333C153.956 23.6971 154.647 23.979 155.484 23.979Z" fill="#F2F2F2"/>
<path d="M169.208 26.6852C168.021 26.6852 166.953 26.4385 166.004 25.9452C165.069 25.4378 164.336 24.7401 163.806 23.8521C163.275 22.9641 163.01 21.9563 163.01 20.8287C163.01 19.7011 163.275 18.6934 163.806 17.8054C164.336 16.9174 165.069 16.2267 166.004 15.7334C166.953 15.226 168.021 14.9723 169.208 14.9723C170.394 14.9723 171.455 15.226 172.391 15.7334C173.326 16.2267 174.059 16.9174 174.589 17.8054C175.12 18.6934 175.385 19.7011 175.385 20.8287C175.385 21.9563 175.12 22.9641 174.589 23.8521C174.059 24.7401 173.326 25.4378 172.391 25.9452C171.455 26.4385 170.394 26.6852 169.208 26.6852ZM169.208 23.979C170.045 23.979 170.729 23.6971 171.26 23.1333C171.804 22.5554 172.076 21.7872 172.076 20.8287C172.076 19.8703 171.804 19.1092 171.26 18.5454C170.729 17.9675 170.045 17.6785 169.208 17.6785C168.37 17.6785 167.679 17.9675 167.135 18.5454C166.591 19.1092 166.318 19.8703 166.318 20.8287C166.318 21.7872 166.591 22.5554 167.135 23.1333C167.679 23.6971 168.37 23.979 169.208 23.979Z" fill="#F2F2F2"/>
<path d="M180.688 16.6425C181.079 16.0928 181.602 15.677 182.258 15.3951C182.928 15.1132 183.696 14.9723 184.562 14.9723V18.0168C184.199 17.9886 183.954 17.9745 183.829 17.9745C182.893 17.9745 182.161 18.2423 181.63 18.7779C181.1 19.2994 180.835 20.0888 180.835 21.1459V26.5161H177.568V15.1414H180.688V16.6425Z" fill="#F2F2F2"/>
<path d="M190.986 14.9723C192.731 14.9723 194.071 15.3951 195.006 16.2408C195.942 17.0724 196.409 18.3339 196.409 20.0253V26.5161H193.352V25.0995C192.738 26.1566 191.593 26.6852 189.918 26.6852C189.053 26.6852 188.299 26.5372 187.657 26.2412C187.029 25.9452 186.547 25.5365 186.212 25.0149C185.877 24.4934 185.71 23.9014 185.71 23.239C185.71 22.1819 186.1 21.3503 186.882 20.7442C187.678 20.1381 188.899 19.835 190.546 19.835H193.143C193.143 19.1162 192.926 18.5665 192.494 18.1859C192.061 17.7913 191.412 17.5939 190.546 17.5939C189.946 17.5939 189.353 17.6926 188.767 17.8899C188.194 18.0732 187.706 18.3269 187.301 18.6511L186.128 16.3465C186.743 15.9096 187.475 15.5713 188.327 15.3317C189.192 15.0921 190.079 14.9723 190.986 14.9723ZM190.735 24.4652C191.293 24.4652 191.789 24.3384 192.222 24.0847C192.654 23.8169 192.961 23.4293 193.143 22.9218V21.759H190.902C189.562 21.759 188.892 22.203 188.892 23.091C188.892 23.5138 189.053 23.8521 189.374 24.1058C189.709 24.3454 190.163 24.4652 190.735 24.4652Z" fill="#F2F2F2"/>
<path d="M206.631 25.9664C206.31 26.206 205.912 26.3892 205.438 26.5161C204.977 26.6288 204.488 26.6852 203.972 26.6852C202.632 26.6852 201.592 26.3399 200.852 25.6492C200.126 24.9586 199.763 23.9437 199.763 22.6047V17.9322H198.025V15.3951H199.763V12.6255H203.03V15.3951H205.836V17.9322H203.03V22.5624C203.03 23.0416 203.148 23.4152 203.386 23.683C203.637 23.9367 203.986 24.0635 204.433 24.0635C204.949 24.0635 205.389 23.9226 205.752 23.6407L206.631 25.9664Z" fill="#F2F2F2"/>
<path d="M208.465 15.1414H211.731V26.5161H208.465V15.1414ZM210.098 13.5557C209.498 13.5557 209.009 13.3796 208.632 13.0272C208.255 12.6748 208.067 12.2379 208.067 11.7163C208.067 11.1948 208.255 10.7579 208.632 10.4055C209.009 10.0531 209.498 9.87695 210.098 9.87695C210.698 9.87695 211.187 10.0461 211.564 10.3844C211.941 10.7227 212.129 11.1455 212.129 11.6529C212.129 12.2026 211.941 12.6607 211.564 13.0272C211.187 13.3796 210.698 13.5557 210.098 13.5557Z" fill="#F2F2F2"/>
<path d="M220.123 26.6852C218.936 26.6852 217.869 26.4385 216.919 25.9452C215.984 25.4378 215.251 24.7401 214.721 23.8521C214.19 22.9641 213.925 21.9563 213.925 20.8287C213.925 19.7011 214.19 18.6934 214.721 17.8054C215.251 16.9174 215.984 16.2267 216.919 15.7334C217.869 15.226 218.936 14.9723 220.123 14.9723C221.31 14.9723 222.37 15.226 223.306 15.7334C224.241 16.2267 224.974 16.9174 225.504 17.8054C226.035 18.6934 226.3 19.7011 226.3 20.8287C226.3 21.9563 226.035 22.9641 225.504 23.8521C224.974 24.7401 224.241 25.4378 223.306 25.9452C222.37 26.4385 221.31 26.6852 220.123 26.6852ZM220.123 23.979C220.961 23.979 221.645 23.6971 222.175 23.1333C222.719 22.5554 222.992 21.7872 222.992 20.8287C222.992 19.8703 222.719 19.1092 222.175 18.5454C221.645 17.9675 220.961 17.6785 220.123 17.6785C219.285 17.6785 218.594 17.9675 218.05 18.5454C217.506 19.1092 217.233 19.8703 217.233 20.8287C217.233 21.7872 217.506 22.5554 218.05 23.1333C218.594 23.6971 219.285 23.979 220.123 23.979Z" fill="#F2F2F2"/>
<path d="M235.33 14.9723C236.726 14.9723 237.85 15.3951 238.701 16.2408C239.567 17.0865 239.999 18.341 239.999 20.0042V26.5161H236.733V20.5116C236.733 19.6095 236.538 18.94 236.147 18.5031C235.756 18.052 235.191 17.8265 234.451 17.8265C233.627 17.8265 232.971 18.0873 232.482 18.6088C231.994 19.1162 231.75 19.8773 231.75 20.8922V26.5161H228.483V15.1414H231.603V16.4734C232.036 15.9942 232.573 15.6277 233.215 15.374C233.857 15.1062 234.562 14.9723 235.33 14.9723Z" fill="#F2F2F2"/>
</svg>
