<svg width="150" height="39" viewBox="0 0 150 39" fill="none" xmlns="http://www.w3.org/2000/svg">
<path fill-rule="evenodd" clip-rule="evenodd" d="M19.3752 0C30.0523 0 38.7504 8.69811 38.7504 19.3752C38.7504 30.0523 30.0523 38.7504 19.3752 38.7504C8.69811 38.7504 0 30.0523 0 19.3752C0 8.69811 8.69811 0 19.3752 0ZM19.3752 1.33332C29.3121 1.33332 37.4171 9.43826 37.4171 19.3752C37.4171 29.3121 29.3121 37.4171 19.3752 37.4171C9.43826 37.4171 1.33332 29.3121 1.33332 19.3752C1.33332 9.43826 9.43826 1.33332 19.3752 1.33332Z" fill="#0E2F48"/>
<path fill-rule="evenodd" clip-rule="evenodd" d="M22.5521 10.0059L22.8828 14.2384H22.5521C22.2115 13.1803 21.7771 12.3892 21.244 11.8499C20.4739 11.0794 19.4867 10.6942 18.2773 10.6942C16.6286 10.6942 15.3748 11.3722 14.5159 12.7231C13.7952 13.8634 13.4397 15.2298 13.4397 16.8067C13.4397 18.0857 13.6767 19.2569 14.1506 20.3099C14.6294 21.368 15.2563 22.1436 16.0313 22.6316C16.8013 23.1247 17.5961 23.3713 18.4106 23.3713C18.8894 23.3713 19.3485 23.3045 19.7927 23.1812C20.2419 23.0579 20.6664 22.873 21.0811 22.6265V18.7432C21.0811 18.0754 21.0317 17.6337 20.933 17.4231C20.8343 17.2176 20.6812 17.0584 20.4739 16.9505C20.316 16.8683 20.0691 16.817 19.7285 16.7964H19.5607C18.9585 16.7964 18.529 16.8427 18.2773 16.9351C17.9416 17.0584 17.6602 17.2998 17.4282 17.6542C17.1913 18.0138 17.0531 18.4966 17.0087 19.1028H16.6434L16.7964 15.954H27.3551L27.4982 19.1028H27.1379C27.0688 18.548 26.975 18.1525 26.8516 17.9111C26.6541 17.531 26.3925 17.2536 26.0667 17.0687C25.736 16.8889 25.3065 16.7964 24.7734 16.7964H23.9639C23.569 16.8375 23.2925 17.0019 23.1296 17.3049C23.026 17.5053 22.9618 17.87 22.947 18.399V27.0593C22.947 27.8812 23.0358 28.3948 23.2037 28.6003C23.4505 28.8777 23.8207 29.0164 24.3242 29.0164H24.7734V29.3811H19.2843V29.0164H19.7434C20.2913 29.0164 20.6763 28.8469 20.9034 28.5027C21.0465 28.2921 21.1156 27.8093 21.1156 27.0593V23.6538C21.0021 23.6897 20.8886 23.7257 20.775 23.7565C20.0642 23.9466 19.2744 24.0441 18.4007 24.0441C15.9029 24.0441 14.0025 23.212 12.7042 21.5478C11.7318 20.2996 11.248 18.8613 11.248 17.233C11.248 16.0516 11.5195 14.9216 12.0675 13.8326C12.7141 12.5433 13.6076 11.552 14.733 10.8637C15.6857 10.2884 16.8063 10.0059 18.0946 10.0059C18.5685 10.0059 18.993 10.0418 19.3781 10.124C19.7631 10.201 20.3061 10.3757 21.012 10.6428C21.3674 10.7815 21.6093 10.8534 21.7277 10.8534C21.8511 10.8534 21.9548 10.7918 22.0387 10.6788C22.1226 10.5657 22.1769 10.3397 22.1967 10.0059H22.5521Z" fill="#0E2F48"/>
<path fill-rule="evenodd" clip-rule="evenodd" d="M52.3095 27.0691C52.3095 27.6447 52.0769 28.1064 51.6117 28.4605C51.1404 28.8147 50.51 28.9918 49.7082 28.9918C49.2431 28.9918 48.8391 28.9539 48.4963 28.8717C48.1475 28.7831 47.8292 28.6756 47.5293 28.5491V27.1577H47.6823C47.9822 27.4043 48.3188 27.5941 48.6861 27.7269C49.0533 27.8597 49.4083 27.9293 49.7511 27.9293C49.8367 27.9293 49.953 27.9229 50.0938 27.904C50.2407 27.885 50.357 27.8597 50.4488 27.8281C50.559 27.7775 50.6447 27.7206 50.7181 27.651C50.7916 27.5814 50.8283 27.4802 50.8283 27.3347C50.8283 27.2083 50.7732 27.1007 50.6691 27.0059C50.5651 26.911 50.4121 26.8414 50.2162 26.7972C50.002 26.7402 49.7817 26.696 49.5491 26.6517C49.3104 26.6011 49.09 26.5442 48.8881 26.4746C48.4168 26.3165 48.0801 26.1014 47.872 25.8358C47.6639 25.5638 47.5599 25.2286 47.5599 24.8238C47.5599 24.2799 47.7925 23.8435 48.2638 23.502C48.7289 23.1605 49.3287 22.9897 50.0632 22.9897C50.4304 22.9897 50.7977 23.0276 51.1527 23.1035C51.5138 23.1731 51.8259 23.268 52.0891 23.3818V24.7163H51.9361C51.7096 24.5329 51.4342 24.3685 51.1037 24.242C50.7793 24.1155 50.4427 24.0522 50.1061 24.0522C49.9836 24.0522 49.8673 24.0649 49.7449 24.0775C49.6286 24.0965 49.5124 24.1281 49.4022 24.1724C49.3043 24.2103 49.2186 24.2736 49.1512 24.3495C49.0778 24.438 49.0472 24.5266 49.0472 24.6278C49.0472 24.7796 49.1023 24.8997 49.2124 24.982C49.3287 25.0642 49.543 25.1338 49.8551 25.2033C50.0571 25.2476 50.2529 25.2919 50.4427 25.3298C50.6324 25.3741 50.8344 25.431 51.0547 25.5006C51.4832 25.6461 51.8014 25.8421 52.0034 26.0951C52.2054 26.3418 52.3095 26.6707 52.3095 27.0691ZM54.5741 28.8906H53.2214V24.5203H54.5741V28.8906ZM54.6169 23.8941H53.1847V22.8379H54.6169V23.8941ZM60.1009 28.8906H58.7299V26.7213C58.7299 26.5442 58.7238 26.3671 58.7054 26.1963C58.6871 26.0192 58.6626 25.8927 58.6136 25.8105C58.5647 25.7093 58.4912 25.6461 58.3994 25.5955C58.3015 25.5512 58.1668 25.5322 57.9954 25.5322C57.8669 25.5322 57.7445 25.5512 57.6221 25.5955C57.4936 25.6334 57.3528 25.703 57.2059 25.7915V28.8906H55.8533V24.5203H57.2059V25.0073C57.4446 24.8112 57.6772 24.6594 57.8975 24.5582C58.124 24.457 58.3688 24.4001 58.6381 24.4001C59.0971 24.4001 59.4583 24.5392 59.7153 24.8175C59.9724 25.0895 60.1009 25.5006 60.1009 26.0445V28.8906ZM63.5407 29.0045C63.1734 29.0045 62.8368 28.9602 62.5308 28.8717C62.2248 28.7831 61.9616 28.644 61.7351 28.4542C61.5148 28.2645 61.3434 28.0241 61.221 27.7395C61.0986 27.4423 61.0374 27.1071 61.0374 26.7213C61.0374 26.3165 61.0986 25.9623 61.2332 25.6714C61.3618 25.3741 61.5454 25.1274 61.7841 24.9314C62.0105 24.7479 62.2737 24.6151 62.5736 24.5329C62.8674 24.4444 63.1796 24.4001 63.4978 24.4001C63.7855 24.4001 64.0548 24.438 64.2996 24.5013C64.5383 24.5645 64.7648 24.6468 64.979 24.7543V25.9433H64.7831C64.7342 25.899 64.6669 25.8421 64.5934 25.7789C64.52 25.7156 64.4282 25.6587 64.3241 25.5955C64.2201 25.5449 64.1099 25.4943 63.9875 25.4563C63.8589 25.4184 63.7182 25.3994 63.559 25.3994C63.1979 25.3994 62.9164 25.5196 62.7266 25.7536C62.5308 25.9939 62.4329 26.3165 62.4329 26.7213C62.4329 27.1387 62.5308 27.4612 62.7328 27.6826C62.9286 27.8976 63.2102 28.0115 63.5774 28.0115C63.7488 28.0115 63.9018 27.9862 64.0364 27.9482C64.1772 27.9103 64.2874 27.8597 64.3792 27.8091C64.4649 27.7585 64.5383 27.7016 64.6056 27.6447C64.673 27.5877 64.7281 27.5308 64.7831 27.4802H64.979V28.6693C64.7648 28.7705 64.5444 28.8527 64.3119 28.9159C64.0793 28.9792 63.8222 29.0045 63.5407 29.0045ZM70.0285 26.9616H66.9315C66.9498 27.3031 67.0784 27.5688 67.3109 27.7522C67.5374 27.9356 67.8801 28.0241 68.3331 28.0241C68.6207 28.0241 68.8962 27.9735 69.1593 27.866C69.4286 27.7585 69.6429 27.6447 69.7959 27.5245H69.9489V28.644C69.6429 28.7705 69.3552 28.8653 69.0859 28.9222C68.8105 28.9792 68.5167 29.0045 68.1862 29.0045C67.3415 29.0045 66.6928 28.8084 66.2398 28.4163C65.7869 28.0241 65.5605 27.4549 65.5605 26.7276C65.5605 26.0066 65.7747 25.4373 66.2031 25.0199C66.6316 24.5962 67.2191 24.3874 67.9597 24.3874C68.6452 24.3874 69.1593 24.5645 69.5082 24.925C69.8571 25.2855 70.0285 25.7978 70.0285 26.4746V26.9616ZM68.6819 26.1457C68.6758 25.8484 68.6024 25.6271 68.4677 25.4816C68.3392 25.3361 68.1311 25.2602 67.8495 25.2602C67.5925 25.2602 67.3783 25.3298 67.2069 25.469C67.0416 25.6081 66.9437 25.8358 66.9253 26.1457H68.6819ZM77.7098 28.8906H73.9701V27.8787H75.1514V24.8175H73.9701V23.8688C74.1537 23.8688 74.3251 23.8562 74.4903 23.8372C74.6556 23.8119 74.7964 23.7739 74.9065 23.717C75.0351 23.6538 75.133 23.5716 75.1942 23.4704C75.2615 23.3628 75.2983 23.2363 75.3105 23.0782H76.553V27.8787H77.7098V28.8906ZM83.4202 25.6714C83.4202 26.152 83.359 26.6011 83.2366 27.0185C83.1203 27.4359 82.9367 27.7965 82.6858 28.0811C82.4165 28.3846 82.086 28.6187 81.6942 28.7705C81.3025 28.9286 80.8435 29.0045 80.3171 29.0045C80.1335 29.0045 79.9315 28.9918 79.7173 28.9665C79.5031 28.9475 79.3623 28.9222 79.295 28.9033V27.7648H79.4419C79.5214 27.8028 79.6255 27.8407 79.7663 27.885C79.907 27.9229 80.0968 27.9482 80.3355 27.9482C80.5313 27.9482 80.7211 27.9229 80.9108 27.8723C81.0944 27.8218 81.2597 27.7395 81.3943 27.632C81.5412 27.5182 81.6636 27.3664 81.7616 27.1893C81.8534 27.0122 81.9207 26.8035 81.9513 26.5568C81.731 26.6896 81.529 26.7845 81.3454 26.8541C81.1556 26.9236 80.9231 26.9553 80.6476 26.9553C80.4334 26.9553 80.2375 26.93 80.0417 26.8794C79.852 26.8224 79.6745 26.7402 79.5214 26.6327C79.3133 26.4809 79.142 26.2785 79.0196 26.0255C78.8971 25.7789 78.8359 25.4626 78.8359 25.0832C78.8359 24.4633 79.044 23.951 79.4602 23.5652C79.8764 23.1731 80.4273 22.977 81.1005 22.977C81.4494 22.977 81.7555 23.0276 82.0248 23.1225C82.2941 23.2174 82.5328 23.3565 82.7286 23.5526C82.9612 23.7739 83.1326 24.0586 83.2427 24.4127C83.359 24.7543 83.4202 25.1717 83.4202 25.6714ZM81.9758 25.45C81.9758 25.1338 81.9452 24.8744 81.884 24.6721C81.8228 24.4697 81.7432 24.3052 81.6392 24.1977C81.5718 24.1092 81.4861 24.0522 81.3882 24.0143C81.2964 23.9827 81.1985 23.9637 81.0883 23.9637C80.9904 23.9637 80.8986 23.9763 80.8068 24.0143C80.7211 24.0459 80.6354 24.1092 80.5558 24.1977C80.4763 24.2799 80.415 24.3938 80.3661 24.5266C80.3171 24.6594 80.2865 24.8238 80.2865 25.0073C80.2865 25.1907 80.3171 25.3425 80.3661 25.4626C80.4212 25.5891 80.4946 25.684 80.5864 25.7599C80.6721 25.8295 80.7762 25.8737 80.8986 25.9054C81.0149 25.9307 81.1434 25.9496 81.2842 25.9496C81.4005 25.9496 81.5229 25.9307 81.6514 25.9054C81.7861 25.8737 81.8901 25.8421 81.9635 25.8105C81.9635 25.7852 81.9635 25.7409 81.9697 25.6903C81.9697 25.6334 81.9758 25.5575 81.9758 25.45ZM88.892 25.6714C88.892 26.152 88.8308 26.6011 88.7084 27.0185C88.5921 27.4359 88.4085 27.7965 88.1637 28.0811C87.8944 28.3846 87.5639 28.6187 87.1721 28.7705C86.7804 28.9286 86.3214 29.0045 85.795 29.0045C85.6114 29.0045 85.4094 28.9918 85.1952 28.9665C84.981 28.9475 84.8402 28.9222 84.7729 28.9033V27.7648H84.9198C84.9993 27.8028 85.1034 27.8407 85.2442 27.885C85.3849 27.9229 85.5747 27.9482 85.8134 27.9482C86.0092 27.9482 86.199 27.9229 86.3887 27.8723C86.5723 27.8218 86.7376 27.7395 86.8722 27.632C87.0191 27.5182 87.1415 27.3664 87.2395 27.1893C87.3313 27.0122 87.3986 26.8035 87.4292 26.5568C87.2089 26.6896 87.0069 26.7845 86.8233 26.8541C86.6335 26.9236 86.401 26.9553 86.1255 26.9553C85.9113 26.9553 85.7155 26.93 85.5196 26.8794C85.3299 26.8224 85.1524 26.7402 84.9993 26.6327C84.7912 26.4809 84.6199 26.2785 84.4975 26.0255C84.375 25.7789 84.3138 25.4626 84.3138 25.0832C84.3138 24.4633 84.5219 23.951 84.9381 23.5652C85.3543 23.1731 85.9052 22.977 86.5784 22.977C86.9273 22.977 87.2333 23.0276 87.5027 23.1225C87.772 23.2174 88.0107 23.3565 88.2004 23.5526C88.433 23.7739 88.6044 24.0586 88.7145 24.4127C88.8308 24.7543 88.892 25.1717 88.892 25.6714ZM87.4537 25.45C87.4537 25.1338 87.4231 24.8744 87.3619 24.6721C87.3007 24.4697 87.2211 24.3052 87.1171 24.1977C87.0497 24.1092 86.964 24.0522 86.8661 24.0143C86.7743 23.9827 86.6764 23.9637 86.5662 23.9637C86.4683 23.9637 86.3765 23.9763 86.2847 24.0143C86.199 24.0459 86.1133 24.1092 86.0337 24.1977C85.9542 24.2799 85.8929 24.3938 85.844 24.5266C85.795 24.6594 85.7644 24.8238 85.7644 25.0073C85.7644 25.1907 85.795 25.3425 85.844 25.4626C85.8991 25.5891 85.9725 25.684 86.0643 25.7599C86.15 25.8295 86.2541 25.8737 86.3765 25.9054C86.4928 25.9307 86.6213 25.9496 86.7621 25.9496C86.8784 25.9496 87.0008 25.9307 87.1293 25.9054C87.264 25.8737 87.368 25.8421 87.4414 25.8105C87.4414 25.7852 87.4414 25.7409 87.4476 25.6903C87.4476 25.6334 87.4537 25.5575 87.4537 25.45ZM94.4434 25.9876C94.4434 26.4809 94.4005 26.911 94.3148 27.2968C94.2291 27.6889 94.1006 28.0052 93.917 28.2518C93.7334 28.4985 93.4947 28.6882 93.207 28.8211C92.9132 28.9475 92.5582 29.0108 92.1298 29.0108C91.7136 29.0108 91.3525 28.9475 91.0587 28.8147C90.7649 28.6882 90.5262 28.4922 90.3426 28.2392C90.159 27.9862 90.0243 27.6763 89.9386 27.2905C89.8529 26.911 89.8162 26.4809 89.8162 25.9939C89.8162 25.4943 89.8591 25.0579 89.9448 24.6847C90.0304 24.3115 90.1651 23.9953 90.3487 23.7423C90.5323 23.4893 90.7771 23.2933 91.0709 23.1668C91.3647 23.0403 91.7197 22.977 92.1298 22.977C92.5582 22.977 92.9193 23.0466 93.207 23.1731C93.5008 23.3059 93.7395 23.502 93.9231 23.7613C94.1067 24.0143 94.2353 24.3242 94.3209 24.7037C94.4005 25.0768 94.4434 25.5069 94.4434 25.9876ZM92.9928 25.9876C92.9928 25.2919 92.9255 24.7922 92.7908 24.495C92.6562 24.1977 92.4358 24.0459 92.1298 24.0459C91.8238 24.0459 91.6034 24.1977 91.4688 24.495C91.3341 24.7922 91.2668 25.2919 91.2668 26.0002C91.2668 26.6833 91.3402 27.1766 91.4749 27.4865C91.6095 27.7901 91.8238 27.9419 92.1298 27.9419C92.4358 27.9419 92.65 27.7901 92.7908 27.4865C92.9255 27.1766 92.9928 26.6833 92.9928 25.9876Z" fill="#0B283F"/>
<path d="M54.2952 11.8011H56.232V15.5539C55.7347 15.9327 55.1589 16.2235 54.5045 16.4261C53.8502 16.6287 53.1915 16.73 52.5284 16.73C51.5775 16.73 50.7225 16.5274 49.9634 16.1221C49.2044 15.7081 48.6068 15.1399 48.1705 14.4175C47.743 13.6863 47.5293 12.8627 47.5293 11.9465C47.5293 11.0303 47.743 10.211 48.1705 9.48863C48.6068 8.75745 49.2088 8.18924 49.9765 7.784C50.7443 7.36996 51.608 7.16294 52.5677 7.16294C53.3704 7.16294 54.0988 7.29948 54.7532 7.57258C55.4075 7.84567 55.9572 8.24209 56.4021 8.76185L55.0411 10.0304C54.3868 9.33447 53.5972 8.98649 52.6724 8.98649C52.0879 8.98649 51.5687 9.10983 51.1151 9.35649C50.6614 9.60315 50.3081 9.95113 50.055 10.4004C49.802 10.8497 49.6755 11.365 49.6755 11.9465C49.6755 12.5191 49.802 13.03 50.055 13.4793C50.3081 13.9286 50.657 14.281 51.102 14.5364C51.5557 14.7831 52.0704 14.9064 52.6462 14.9064C53.2569 14.9064 53.8066 14.7743 54.2952 14.51V11.8011Z" fill="#0B283F"/>
<path d="M60.0989 9.06578H57.1675V7.32151H65.1504V9.06578H62.219V16.5714H60.0989V9.06578Z" fill="#0B283F"/>
<path d="M74.3814 16.73C73.4479 16.73 72.6016 16.5274 71.8425 16.1221C71.0922 15.7081 70.499 15.1399 70.0627 14.4175C69.6352 13.6863 69.4215 12.8627 69.4215 11.9465C69.4215 11.0303 69.6352 10.211 70.0627 9.48863C70.499 8.75745 71.0922 8.18924 71.8425 7.784C72.6016 7.36996 73.4522 7.16294 74.3945 7.16294C75.1884 7.16294 75.9038 7.30389 76.5407 7.58579C77.1863 7.86769 77.7272 8.27293 78.1634 8.8015L76.8024 10.0701C76.183 9.34768 75.4152 8.98649 74.4992 8.98649C73.9321 8.98649 73.426 9.11423 72.9811 9.3697C72.5361 9.61637 72.1872 9.96434 71.9342 10.4136C71.6899 10.8629 71.5677 11.3739 71.5677 11.9465C71.5677 12.5191 71.6899 13.03 71.9342 13.4793C72.1872 13.9286 72.5361 14.281 72.9811 14.5364C73.426 14.7831 73.9321 14.9064 74.4992 14.9064C75.4152 14.9064 76.183 14.5408 76.8024 13.8097L78.1634 15.0782C77.7272 15.6156 77.1863 16.0252 76.5407 16.3071C75.8951 16.589 75.1753 16.73 74.3814 16.73Z" fill="#0B283F"/>
<path d="M82.5586 16.6771C81.817 16.6771 81.1495 16.523 80.5563 16.2146C79.9717 15.8975 79.5137 15.4614 79.1822 14.9064C78.8506 14.3514 78.6849 13.7216 78.6849 13.0168C78.6849 12.3121 78.8506 11.6822 79.1822 11.1272C79.5137 10.5722 79.9717 10.1405 80.5563 9.8322C81.1495 9.51506 81.817 9.35649 82.5586 9.35649C83.3001 9.35649 83.9632 9.51506 84.5477 9.8322C85.1323 10.1405 85.5903 10.5722 85.9219 11.1272C86.2534 11.6822 86.4191 12.3121 86.4191 13.0168C86.4191 13.7216 86.2534 14.3514 85.9219 14.9064C85.5903 15.4614 85.1323 15.8975 84.5477 16.2146C83.9632 16.523 83.3001 16.6771 82.5586 16.6771ZM82.5586 14.9857C83.082 14.9857 83.5095 14.8095 83.8411 14.4572C84.1813 14.096 84.3514 13.6159 84.3514 13.0168C84.3514 12.4178 84.1813 11.9421 83.8411 11.5897C83.5095 11.2285 83.082 11.0479 82.5586 11.0479C82.0351 11.0479 81.6032 11.2285 81.263 11.5897C80.9227 11.9421 80.7526 12.4178 80.7526 13.0168C80.7526 13.6159 80.9227 14.096 81.263 14.4572C81.6032 14.8095 82.0351 14.9857 82.5586 14.9857Z" fill="#0B283F"/>
<path d="M89.7337 10.4004C89.978 10.0568 90.3051 9.79696 90.7152 9.62077C91.134 9.44458 91.6138 9.35649 92.1547 9.35649V11.2593C91.9279 11.2417 91.7752 11.2329 91.6967 11.2329C91.1121 11.2329 90.6541 11.4003 90.3226 11.735C89.991 12.061 89.8253 12.5543 89.8253 13.215V16.5714H87.7837V9.4622H89.7337V10.4004Z" fill="#0B283F"/>
<path d="M97.5302 9.35649C98.1846 9.35649 98.7778 9.51066 99.31 9.81899C99.8509 10.1185 100.274 10.5458 100.579 11.1008C100.885 11.6469 101.037 12.2856 101.037 13.0168C101.037 13.748 100.885 14.3911 100.579 14.9461C100.274 15.4923 99.8509 15.9195 99.31 16.2279C98.7778 16.5274 98.1846 16.6771 97.5302 16.6771C96.6316 16.6771 95.9249 16.3908 95.4102 15.8182V19.135H93.3686V9.4622H95.3186V10.2815C95.8246 9.66482 96.5618 9.35649 97.5302 9.35649ZM97.1769 14.9857C97.7003 14.9857 98.1278 14.8095 98.4594 14.4572C98.7996 14.096 98.9698 13.6159 98.9698 13.0168C98.9698 12.4178 98.7996 11.9421 98.4594 11.5897C98.1278 11.2285 97.7003 11.0479 97.1769 11.0479C96.6534 11.0479 96.2215 11.2285 95.8813 11.5897C95.5497 11.9421 95.384 12.4178 95.384 13.0168C95.384 13.6159 95.5497 14.096 95.8813 14.4572C96.2215 14.8095 96.6534 14.9857 97.1769 14.9857Z" fill="#0B283F"/>
<path d="M105.754 16.6771C105.013 16.6771 104.345 16.523 103.752 16.2146C103.167 15.8975 102.709 15.4614 102.378 14.9064C102.046 14.3514 101.881 13.7216 101.881 13.0168C101.881 12.3121 102.046 11.6822 102.378 11.1272C102.709 10.5722 103.167 10.1405 103.752 9.8322C104.345 9.51506 105.013 9.35649 105.754 9.35649C106.496 9.35649 107.159 9.51506 107.744 9.8322C108.328 10.1405 108.786 10.5722 109.118 11.1272C109.449 11.6822 109.615 12.3121 109.615 13.0168C109.615 13.7216 109.449 14.3514 109.118 14.9064C108.786 15.4614 108.328 15.8975 107.744 16.2146C107.159 16.523 106.496 16.6771 105.754 16.6771ZM105.754 14.9857C106.278 14.9857 106.705 14.8095 107.037 14.4572C107.377 14.096 107.547 13.6159 107.547 13.0168C107.547 12.4178 107.377 11.9421 107.037 11.5897C106.705 11.2285 106.278 11.0479 105.754 11.0479C105.231 11.0479 104.799 11.2285 104.459 11.5897C104.118 11.9421 103.948 12.4178 103.948 13.0168C103.948 13.6159 104.118 14.096 104.459 14.4572C104.799 14.8095 105.231 14.9857 105.754 14.9857Z" fill="#0B283F"/>
<path d="M112.929 10.4004C113.174 10.0568 113.501 9.79696 113.911 9.62077C114.33 9.44458 114.81 9.35649 115.35 9.35649V11.2593C115.124 11.2417 114.971 11.2329 114.892 11.2329C114.308 11.2329 113.85 11.4003 113.518 11.735C113.187 12.061 113.021 12.5543 113.021 13.215V16.5714H110.98V9.4622H112.929V10.4004Z" fill="#0B283F"/>
<path d="M119.366 9.35649C120.456 9.35649 121.294 9.62077 121.879 10.1493C122.463 10.6691 122.755 11.4575 122.755 12.5147V16.5714H120.845V15.6861C120.461 16.3468 119.745 16.6771 118.698 16.6771C118.158 16.6771 117.686 16.5846 117.285 16.3996C116.892 16.2146 116.591 15.9592 116.382 15.6332C116.173 15.3073 116.068 14.9373 116.068 14.5232C116.068 13.8625 116.312 13.3428 116.801 12.964C117.298 12.5852 118.062 12.3957 119.091 12.3957H120.714C120.714 11.9465 120.579 11.6029 120.308 11.365C120.038 11.1184 119.632 10.995 119.091 10.995C118.716 10.995 118.345 11.0567 117.979 11.18C117.621 11.2946 117.316 11.4531 117.063 11.6558L116.33 10.2154C116.714 9.94232 117.172 9.73089 117.704 9.58113C118.245 9.43137 118.799 9.35649 119.366 9.35649ZM119.209 15.2897C119.558 15.2897 119.868 15.2104 120.138 15.0518C120.408 14.8844 120.6 14.6422 120.714 14.325V13.5982H119.314C118.476 13.5982 118.057 13.8757 118.057 14.4307C118.057 14.695 118.158 14.9064 118.358 15.065C118.568 15.2148 118.851 15.2897 119.209 15.2897Z" fill="#0B283F"/>
<path d="M129.144 16.2279C128.943 16.3776 128.695 16.4921 128.398 16.5714C128.11 16.6419 127.805 16.6771 127.482 16.6771C126.645 16.6771 125.995 16.4613 125.532 16.0296C125.079 15.598 124.852 14.9637 124.852 14.1268V11.2065H123.765V9.62077H124.852V7.88972H126.893V9.62077H128.647V11.2065H126.893V14.1004C126.893 14.3999 126.967 14.6333 127.116 14.8007C127.273 14.9593 127.491 15.0386 127.77 15.0386C128.093 15.0386 128.368 14.9505 128.594 14.7743L129.144 16.2279Z" fill="#0B283F"/>
<path d="M130.29 9.4622H132.332V16.5714H130.29V9.4622ZM131.311 8.47114C130.936 8.47114 130.63 8.36102 130.395 8.14079C130.159 7.92055 130.041 7.64746 130.041 7.32151C130.041 6.99556 130.159 6.72247 130.395 6.50223C130.63 6.28199 130.936 6.17188 131.311 6.17188C131.686 6.17188 131.991 6.27759 132.227 6.48902C132.463 6.70044 132.58 6.96473 132.58 7.28187C132.58 7.62543 132.463 7.91174 132.227 8.14079C131.991 8.36102 131.686 8.47114 131.311 8.47114Z" fill="#0B283F"/>
<path d="M137.577 16.6771C136.835 16.6771 136.168 16.523 135.574 16.2146C134.99 15.8975 134.532 15.4614 134.2 14.9064C133.869 14.3514 133.703 13.7216 133.703 13.0168C133.703 12.3121 133.869 11.6822 134.2 11.1272C134.532 10.5722 134.99 10.1405 135.574 9.8322C136.168 9.51506 136.835 9.35649 137.577 9.35649C138.318 9.35649 138.981 9.51506 139.566 9.8322C140.15 10.1405 140.608 10.5722 140.94 11.1272C141.271 11.6822 141.437 12.3121 141.437 13.0168C141.437 13.7216 141.271 14.3514 140.94 14.9064C140.608 15.4614 140.15 15.8975 139.566 16.2146C138.981 16.523 138.318 16.6771 137.577 16.6771ZM137.577 14.9857C138.1 14.9857 138.528 14.8095 138.859 14.4572C139.199 14.096 139.369 13.6159 139.369 13.0168C139.369 12.4178 139.199 11.9421 138.859 11.5897C138.528 11.2285 138.1 11.0479 137.577 11.0479C137.053 11.0479 136.621 11.2285 136.281 11.5897C135.941 11.9421 135.771 12.4178 135.771 13.0168C135.771 13.6159 135.941 14.096 136.281 14.4572C136.621 14.8095 137.053 14.9857 137.577 14.9857Z" fill="#0B283F"/>
<path d="M147.081 9.35649C147.954 9.35649 148.656 9.62077 149.188 10.1493C149.729 10.6779 150 11.4619 150 12.5015V16.5714H147.958V12.8186C147.958 12.2548 147.836 11.8363 147.592 11.5633C147.347 11.2814 146.994 11.1404 146.532 11.1404C146.017 11.1404 145.607 11.3034 145.301 11.6293C144.996 11.9465 144.843 12.4222 144.843 13.0565V16.5714H142.802V9.4622H144.752V10.2947C145.022 9.99518 145.358 9.76613 145.759 9.60756C146.161 9.44018 146.601 9.35649 147.081 9.35649Z" fill="#0B283F"/>
</svg>
