<svg width="227" height="27" viewBox="0 0 227 27" fill="none" xmlns="http://www.w3.org/2000/svg">
<path d="M9.54 15.61L8.54 15.61L8.54 16.61L9.54 16.61L9.54 15.61ZM13.47 15.61L14.47 15.61L14.47 14.61L13.47 14.61L13.47 15.61ZM13.17 8.68L12.17 8.68L12.17 9.68L13.17 9.68L13.17 8.68ZM17.31 8.68L17.31 9.68L18.31 9.68L18.31 8.68L17.31 8.68ZM17.31 11.86L18.31 11.86L18.31 10.86L17.31 10.86L17.31 11.86ZM9.54 11.86L9.54 10.86L8.54 10.86L8.54 11.86L9.54 11.86ZM9.54 16.61L13.47 16.61L13.47 14.61L9.54 14.61L9.54 16.61ZM12.47 15.61L12.47 17.86L14.47 17.86L14.47 15.61L12.47 15.61ZM12.47 17.86C12.47 18.865 12.2378 19.4244 11.8846 19.7568C11.516 20.1037 10.8092 20.4 9.42 20.4L9.42 22.4C11.0308 22.4 12.349 22.0663 13.2554 21.2132C14.1772 20.3456 14.47 19.135 14.47 17.86L12.47 17.86ZM9.42 20.4C8.01885 20.4 7.4922 20.099 7.26109 19.8361C7.00451 19.5441 6.85 19.0173 6.85 17.95L4.85 17.95C4.85 19.0727 4.98049 20.2709 5.75891 21.1564C6.5628 22.071 7.82115 22.4 9.42 22.4L9.42 20.4ZM6.85 17.95L6.85 8.89L4.85 8.89L4.85 17.95L6.85 17.95ZM6.85 8.89C6.85 7.87744 7.00109 7.33922 7.26725 7.03063C7.50517 6.75478 8.03768 6.44 9.42 6.44L9.42 4.44C7.80232 4.44 6.54983 4.80022 5.75275 5.72437C4.98391 6.61578 4.85 7.80255 4.85 8.89L6.85 8.89ZM9.42 6.44C10.9784 6.44 11.5532 6.71697 11.7892 6.95464C12.0171 7.18415 12.17 7.61491 12.17 8.68L14.17 8.68C14.17 7.58509 14.0529 6.39584 13.2083 5.54536C12.3718 4.70303 11.0716 4.44 9.42 4.44L9.42 6.44ZM13.17 9.68L17.31 9.68L17.31 7.68L13.17 7.68L13.17 9.68ZM18.31 8.68C18.31 6.06925 17.7011 3.99647 16.1129 2.61843C14.5606 1.27164 12.284 0.779999 9.42 0.779999L9.42 2.78C12.136 2.78 13.8044 3.26336 14.8021 4.12907C15.7639 4.96353 16.31 6.34075 16.31 8.68L18.31 8.68ZM9.42 0.779999C6.53399 0.779999 4.29775 1.34001 2.79394 2.7292C1.27015 4.13685 0.71 6.19588 0.71 8.68L2.71 8.68C2.71 6.45412 3.21485 5.06315 4.15106 4.19829C5.10725 3.31499 6.72601 2.78 9.42 2.78L9.42 0.779999ZM0.71 8.68L0.71 17.95L2.71 17.95L2.71 8.68L0.71 8.68ZM0.71 17.95C0.71 20.5649 1.29053 22.6882 2.82034 24.1302C4.33567 25.5585 6.57544 26.12 9.42 26.12L9.42 24.12C6.77456 24.12 5.15933 23.5865 4.19216 22.6748C3.23947 21.7768 2.71 20.3151 2.71 17.95L0.71 17.95ZM9.42 26.12C12.266 26.12 14.5429 25.5579 16.1002 24.1278C17.6771 22.6795 18.31 20.5348 18.31 17.86L16.31 17.86C16.31 20.2552 15.7429 21.7405 14.7473 22.6547C13.7321 23.5871 12.064 24.12 9.42 24.12L9.42 26.12ZM18.31 17.86L18.31 11.86L16.31 11.86L16.31 17.86L18.31 17.86ZM17.31 10.86L9.54 10.86L9.54 12.86L17.31 12.86L17.31 10.86ZM8.54 11.86L8.54 15.61L10.54 15.61L10.54 11.86L8.54 11.86ZM32.8458 1.99L33.8458 1.99L33.8458 0.989999L32.8458 0.989999L32.8458 1.99ZM19.1658 1.99L19.1658 0.989999L18.1658 0.989999L18.1658 1.99L19.1658 1.99ZM19.1658 5.68L18.1658 5.68L18.1658 6.68L19.1658 6.68L19.1658 5.68ZM23.9658 5.68L24.9658 5.68L24.9658 4.68L23.9658 4.68L23.9658 5.68ZM23.9658 25L22.9658 25L22.9658 26L23.9658 26L23.9658 25ZM28.0758 25L28.0758 26L29.0758 26L29.0758 25L28.0758 25ZM28.0758 5.68L28.0758 4.68L27.0758 4.68L27.0758 5.68L28.0758 5.68ZM32.8458 5.68L32.8458 6.68L33.8458 6.68L33.8458 5.68L32.8458 5.68ZM32.8458 0.989999L19.1658 0.989999L19.1658 2.99L32.8458 2.99L32.8458 0.989999ZM18.1658 1.99L18.1658 5.68L20.1658 5.68L20.1658 1.99L18.1658 1.99ZM19.1658 6.68L23.9658 6.68L23.9658 4.68L19.1658 4.68L19.1658 6.68ZM22.9658 5.68L22.9658 25L24.9658 25L24.9658 5.68L22.9658 5.68ZM23.9658 26L28.0758 26L28.0758 24L23.9658 24L23.9658 26ZM29.0758 25L29.0758 5.68L27.0758 5.68L27.0758 25L29.0758 25ZM28.0758 6.68L32.8458 6.68L32.8458 4.68L28.0758 4.68L28.0758 6.68ZM33.8458 5.68L33.8458 1.99L31.8458 1.99L31.8458 5.68L33.8458 5.68ZM52.9273 17.86L52.9273 16.86L51.9273 16.86L51.9273 17.86L52.9273 17.86ZM52.9273 9.04L51.9273 9.04L51.9273 10.04L52.9273 10.04L52.9273 9.04ZM57.0673 9.04L57.0673 10.04L58.0673 10.04L58.0673 9.04L57.0673 9.04ZM57.0673 17.86L58.0673 17.86L58.0673 16.86L57.0673 16.86L57.0673 17.86ZM51.9273 17.86C51.9273 18.9355 51.7399 19.4894 51.4477 19.8011C51.1666 20.1009 50.5735 20.4 49.1773 20.4L49.1773 22.4C50.781 22.4 52.063 22.0691 52.9068 21.1689C53.7396 20.2806 53.9273 19.0645 53.9273 17.86L51.9273 17.86ZM49.1773 20.4C47.7761 20.4 47.2495 20.099 47.0184 19.8361C46.7618 19.5441 46.6073 19.0173 46.6073 17.95L44.6073 17.95C44.6073 19.0727 44.7378 20.2709 45.5162 21.1564C46.3201 22.071 47.5784 22.4 49.1773 22.4L49.1773 20.4ZM46.6073 17.95L46.6073 8.98L44.6073 8.98L44.6073 17.95L46.6073 17.95ZM46.6073 8.98C46.6073 7.91266 46.7618 7.38586 47.0184 7.09394C47.2495 6.83102 47.7761 6.53 49.1773 6.53L49.1773 4.53C47.5784 4.53 46.3201 4.85898 45.5162 5.77355C44.7378 6.65914 44.6073 7.85733 44.6073 8.98L46.6073 8.98ZM49.1773 6.53C50.7022 6.53 51.269 6.8392 51.5125 7.10995C51.7757 7.40265 51.9273 7.92944 51.9273 9.04L53.9273 9.04C53.9273 7.90056 53.8088 6.67235 52.9995 5.77254C52.1706 4.8508 50.8623 4.53 49.1773 4.53L49.1773 6.53ZM52.9273 10.04L57.0673 10.04L57.0673 8.04L52.9273 8.04L52.9273 10.04ZM58.0673 9.04C58.0673 6.34863 57.4633 4.21417 55.8849 2.78904C54.3321 1.38695 52.0492 0.869999 49.1773 0.869999L49.1773 2.87C51.8854 2.87 53.5474 3.37305 54.5446 4.27346C55.5163 5.15083 56.0673 6.60137 56.0673 9.04L58.0673 9.04ZM49.1773 0.869999C46.3095 0.869999 44.0684 1.37783 42.5586 2.74498C41.0226 4.13579 40.4673 6.20645 40.4673 8.77L42.4673 8.77C42.4673 6.44354 42.977 5.0642 43.901 4.22752C44.8511 3.36717 46.465 2.87 49.1773 2.87L49.1773 0.869999ZM40.4673 8.77L40.4673 18.16L42.4673 18.16L42.4673 8.77L40.4673 8.77ZM40.4673 18.16C40.4673 20.6809 41.0533 22.7405 42.5907 24.1386C44.105 25.5156 46.3378 26.06 49.1773 26.06L49.1773 24.06C46.5267 24.06 44.9045 23.5394 43.9363 22.6589C42.9912 21.7995 42.4673 20.4091 42.4673 18.16L40.4673 18.16ZM49.1773 26.06C52.0174 26.06 54.2941 25.5153 55.8527 24.1021C57.4344 22.668 58.0673 20.5347 58.0673 17.86L56.0673 17.86C56.0673 20.2553 55.5002 21.722 54.5093 22.6204C53.4955 23.5397 51.8271 24.06 49.1773 24.06L49.1773 26.06ZM57.0673 16.86L52.9273 16.86L52.9273 18.86L57.0673 18.86L57.0673 16.86ZM67.3706 26.21C70.2119 26.21 72.4791 25.6648 74.034 24.3004C75.6188 22.9096 76.2606 20.8515 76.2606 18.31L74.2606 18.31C74.2606 20.5385 73.7024 21.9304 72.7148 22.7971C71.6971 23.6902 70.0193 24.21 67.3706 24.21L67.3706 26.21ZM76.2606 18.31L76.2606 8.53L74.2606 8.53L74.2606 18.31L76.2606 18.31ZM76.2606 8.53C76.2606 5.94568 75.65 3.87682 74.066 2.49312C72.5157 1.13887 70.2407 0.629999 67.3706 0.629999L67.3706 2.63C70.0806 2.63 71.7506 3.12613 72.7503 3.99937C73.7162 4.84318 74.2606 6.22432 74.2606 8.53L76.2606 8.53ZM67.3706 0.629999C64.5029 0.629999 62.2618 1.13783 60.7519 2.50498C59.2159 3.89579 58.6606 5.96646 58.6606 8.53L60.6606 8.53C60.6606 6.20354 61.1703 4.8242 62.0943 3.98752C63.0445 3.12717 64.6584 2.63 67.3706 2.63L67.3706 0.629999ZM58.6606 8.53L58.6606 18.31L60.6606 18.31L60.6606 8.53L58.6606 8.53ZM58.6606 18.31C58.6606 20.8309 59.2467 22.8905 60.7841 24.2886C62.2984 25.6656 64.5312 26.21 67.3706 26.21L67.3706 24.21C64.7201 24.21 63.0979 23.6894 62.1297 22.8089C61.1846 21.9495 60.6606 20.5591 60.6606 18.31L58.6606 18.31ZM67.3706 20.55C65.9695 20.55 65.4428 20.249 65.2117 19.9861C64.9551 19.6941 64.8006 19.1673 64.8006 18.1L62.8006 18.1C62.8006 19.2227 62.9311 20.4209 63.7095 21.3064C64.5134 22.221 65.7718 22.55 67.3706 22.55L67.3706 20.55ZM64.8006 18.1L64.8006 8.74L62.8006 8.74L62.8006 18.1L64.8006 18.1ZM64.8006 8.74C64.8006 7.72744 64.9517 7.18922 65.2179 6.88063C65.4558 6.60478 65.9883 6.29 67.3706 6.29L67.3706 4.29C65.7529 4.29 64.5005 4.65022 63.7034 5.57437C62.9345 6.46578 62.8006 7.65255 62.8006 8.74L64.8006 8.74ZM67.3706 6.29C68.8771 6.29 69.4534 6.6137 69.7038 6.89389C69.9738 7.19603 70.1206 7.71894 70.1206 8.74L72.1206 8.74C72.1206 7.66105 71.9974 6.45897 71.195 5.56111C70.3729 4.6413 69.0742 4.29 67.3706 4.29L67.3706 6.29ZM70.1206 8.74L70.1206 18.1L72.1206 18.1L72.1206 8.74L70.1206 8.74ZM70.1206 18.1C70.1206 19.1223 69.9363 19.6533 69.6476 19.9554C69.365 20.2512 68.7662 20.55 67.3706 20.55L67.3706 22.55C68.975 22.55 70.2512 22.2188 71.0937 21.3371C71.93 20.4617 72.1206 19.2677 72.1206 18.1L70.1206 18.1ZM94.2994 25L94.2994 26L96.0306 26L95.1656 24.5004L94.2994 25ZM89.2294 16.21L88.9224 15.2583L87.7451 15.6381L88.3631 16.7096L89.2294 16.21ZM79.2094 1.9L79.2094 0.899999L78.2094 0.899999L78.2094 1.9L79.2094 1.9ZM79.2094 25L78.2094 25L78.2094 26L79.2094 26L79.2094 25ZM83.3494 25L83.3494 26L84.3494 26L84.3494 25L83.3494 25ZM83.3494 16.87L83.3494 15.87L82.3494 15.87L82.3494 16.87L83.3494 16.87ZM84.8794 16.87L85.7502 16.3784L85.4632 15.87L84.8794 15.87L84.8794 16.87ZM89.4694 25L88.5986 25.4916L88.8856 26L89.4694 26L89.4694 25ZM83.3194 13.06L82.3194 13.06L82.3194 14.06L83.3194 14.06L83.3194 13.06ZM83.3194 5.71L83.3194 4.71L82.3194 4.71L82.3194 5.71L83.3194 5.71ZM95.1656 24.5004L90.0956 15.7104L88.3631 16.7096L93.4331 25.4996L95.1656 24.5004ZM89.5364 17.1617C91.0899 16.6606 92.306 15.854 93.1108 14.6073C93.903 13.3801 94.2194 11.8447 94.2194 10.03L92.2194 10.03C92.2194 11.6353 91.9358 12.7399 91.4305 13.5227C90.9377 14.286 90.1588 14.8594 88.9224 15.2583L89.5364 17.1617ZM94.2194 10.03L94.2194 8.83L92.2194 8.83L92.2194 10.03L94.2194 10.03ZM94.2194 8.83C94.2194 6.21162 93.5153 4.14029 91.8558 2.76198C90.2387 1.41891 87.9056 0.899999 85.0294 0.899999L85.0294 2.9C87.7331 2.9 89.495 3.40109 90.5779 4.30052C91.6184 5.16471 92.2194 6.55838 92.2194 8.83L94.2194 8.83ZM85.0294 0.899999L79.2094 0.899999L79.2094 2.9L85.0294 2.9L85.0294 0.899999ZM78.2094 1.9L78.2094 25L80.2094 25L80.2094 1.9L78.2094 1.9ZM79.2094 26L83.3494 26L83.3494 24L79.2094 24L79.2094 26ZM84.3494 25L84.3494 16.87L82.3494 16.87L82.3494 25L84.3494 25ZM83.3494 17.87L84.8794 17.87L84.8794 15.87L83.3494 15.87L83.3494 17.87ZM84.0086 17.3616L88.5986 25.4916L90.3402 24.5084L85.7502 16.3784L84.0086 17.3616ZM89.4694 26L94.2994 26L94.2994 24L89.4694 24L89.4694 26ZM84.3194 13.06L84.3194 5.71L82.3194 5.71L82.3194 13.06L84.3194 13.06ZM83.3194 6.71L85.0894 6.71L85.0894 4.71L83.3194 4.71L83.3194 6.71ZM85.0894 6.71C86.6353 6.71 87.2196 6.99744 87.4665 7.25117C87.7119 7.50335 87.8694 7.96774 87.8694 9.04L89.8694 9.04C89.8694 7.92225 89.7419 6.72165 88.8998 5.85633C88.0592 4.99256 86.7534 4.71 85.0894 4.71L85.0894 6.71ZM87.8694 9.04L87.8694 9.82L89.8694 9.82L89.8694 9.04L87.8694 9.04ZM87.8694 9.82C87.8694 10.823 87.6702 11.2752 87.3987 11.5241C87.0989 11.7988 86.462 12.06 85.0294 12.06L85.0294 14.06C86.5967 14.06 87.8798 13.7962 88.7501 12.9984C89.6485 12.1748 89.8694 11.007 89.8694 9.82L87.8694 9.82ZM85.0294 12.06L83.3194 12.06L83.3194 14.06L85.0294 14.06L85.0294 12.06ZM97.0219 1.9L97.0219 0.899999L96.0219 0.899999L96.0219 1.9L97.0219 1.9ZM97.0219 25L96.0219 25L96.0219 26L97.0219 26L97.0219 25ZM101.252 25L101.252 26L102.252 26L102.252 25L101.252 25ZM101.252 17.92L101.252 16.92L100.252 16.92L100.252 17.92L101.252 17.92ZM101.222 13.93L100.222 13.93L100.222 14.93L101.222 14.93L101.222 13.93ZM101.222 5.68L101.222 4.68L100.222 4.68L100.222 5.68L101.222 5.68ZM96.0219 1.9L96.0219 25L98.0219 25L98.0219 1.9L96.0219 1.9ZM97.0219 26L101.252 26L101.252 24L97.0219 24L97.0219 26ZM102.252 25L102.252 17.92L100.252 17.92L100.252 25L102.252 25ZM101.252 18.92L102.842 18.92L102.842 16.92L101.252 16.92L101.252 18.92ZM102.842 18.92C105.694 18.92 108.021 18.3479 109.641 16.9773C111.296 15.5776 112.032 13.5048 112.032 10.93L110.032 10.93C110.032 13.1252 109.417 14.5474 108.35 15.4502C107.248 16.3821 105.48 16.92 102.842 16.92L102.842 18.92ZM112.032 10.93L112.032 8.8L110.032 8.8L110.032 10.93L112.032 10.93ZM112.032 8.8C112.032 6.18153 111.328 4.11594 109.666 2.74488C108.048 1.4104 105.715 0.899999 102.842 0.899999L102.842 2.9C105.548 2.9 107.311 3.3946 108.393 4.28762C109.431 5.14406 110.032 6.52847 110.032 8.8L112.032 8.8ZM102.842 0.899999L97.0219 0.899999L97.0219 2.9L102.842 2.9L102.842 0.899999ZM102.222 13.93L102.222 5.68L100.222 5.68L100.222 13.93L102.222 13.93ZM101.222 6.68L102.902 6.68L102.902 4.68L101.222 4.68L101.222 6.68ZM102.902 6.68C104.441 6.68 105.086 6.9646 105.378 7.24467C105.651 7.50722 105.832 7.97758 105.832 9.01L107.832 9.01C107.832 7.85242 107.653 6.65778 106.764 5.80283C105.892 4.9654 104.572 4.68 102.902 4.68L102.902 6.68ZM105.832 9.01L105.832 10.72L107.832 10.72L107.832 9.01L105.832 9.01ZM105.832 10.72C105.832 11.6843 105.614 12.1301 105.314 12.3841C104.97 12.6767 104.275 12.93 102.842 12.93L102.842 14.93C104.409 14.93 105.709 14.6733 106.609 13.9084C107.555 13.1049 107.832 11.9457 107.832 10.72L105.832 10.72ZM102.842 12.93L101.222 12.93L101.222 14.93L102.842 14.93L102.842 12.93ZM121.775 26.21C124.616 26.21 126.883 25.6648 128.438 24.3004C130.023 22.9096 130.665 20.8515 130.665 18.31L128.665 18.31C128.665 20.5385 128.107 21.9304 127.119 22.7971C126.101 23.6902 124.424 24.21 121.775 24.21L121.775 26.21ZM130.665 18.31L130.665 8.53L128.665 8.53L128.665 18.31L130.665 18.31ZM130.665 8.53C130.665 5.94568 130.054 3.87682 128.47 2.49312C126.92 1.13887 124.645 0.629999 121.775 0.629999L121.775 2.63C124.485 2.63 126.155 3.12613 127.155 3.99937C128.121 4.84318 128.665 6.22432 128.665 8.53L130.665 8.53ZM121.775 0.629999C118.907 0.629999 116.666 1.13783 115.156 2.50498C113.62 3.89579 113.065 5.96646 113.065 8.53L115.065 8.53C115.065 6.20354 115.575 4.8242 116.499 3.98752C117.449 3.12717 119.063 2.63 121.775 2.63L121.775 0.629999ZM113.065 8.53L113.065 18.31L115.065 18.31L115.065 8.53L113.065 8.53ZM113.065 18.31C113.065 20.8309 113.651 22.8905 115.188 24.2886C116.703 25.6656 118.935 26.21 121.775 26.21L121.775 24.21C119.124 24.21 117.502 23.6894 116.534 22.8089C115.589 21.9495 115.065 20.5591 115.065 18.31L113.065 18.31ZM121.775 20.55C120.374 20.55 119.847 20.249 119.616 19.9861C119.359 19.6941 119.205 19.1673 119.205 18.1L117.205 18.1C117.205 19.2227 117.335 20.4209 118.114 21.3064C118.918 22.221 120.176 22.55 121.775 22.55L121.775 20.55ZM119.205 18.1L119.205 8.74L117.205 8.74L117.205 18.1L119.205 18.1ZM119.205 8.74C119.205 7.72744 119.356 7.18922 119.622 6.88063C119.86 6.60478 120.393 6.29 121.775 6.29L121.775 4.29C120.157 4.29 118.905 4.65022 118.108 5.57437C117.339 6.46578 117.205 7.65255 117.205 8.74L119.205 8.74ZM121.775 6.29C123.281 6.29 123.858 6.6137 124.108 6.89389C124.378 7.19603 124.525 7.71894 124.525 8.74L126.525 8.74C126.525 7.66105 126.402 6.45897 125.599 5.56111C124.777 4.6413 123.478 4.29 121.775 4.29L121.775 6.29ZM124.525 8.74L124.525 18.1L126.525 18.1L126.525 8.74L124.525 8.74ZM124.525 18.1C124.525 19.1223 124.341 19.6533 124.052 19.9554C123.769 20.2512 123.171 20.55 121.775 20.55L121.775 22.55C123.379 22.55 124.656 22.2188 125.498 21.3371C126.334 20.4617 126.525 19.2677 126.525 18.1L124.525 18.1ZM148.704 25L148.704 26L150.435 26L149.57 24.5004L148.704 25ZM143.634 16.21L143.327 15.2583L142.149 15.6381L142.767 16.7096L143.634 16.21ZM133.614 1.9L133.614 0.899999L132.614 0.899999L132.614 1.9L133.614 1.9ZM133.614 25L132.614 25L132.614 26L133.614 26L133.614 25ZM137.754 25L137.754 26L138.754 26L138.754 25L137.754 25ZM137.754 16.87L137.754 15.87L136.754 15.87L136.754 16.87L137.754 16.87ZM139.284 16.87L140.154 16.3784L139.867 15.87L139.284 15.87L139.284 16.87ZM143.874 25L143.003 25.4916L143.29 26L143.874 26L143.874 25ZM137.724 13.06L136.724 13.06L136.724 14.06L137.724 14.06L137.724 13.06ZM137.724 5.71L137.724 4.71L136.724 4.71L136.724 5.71L137.724 5.71ZM149.57 24.5004L144.5 15.7104L142.767 16.7096L147.837 25.4996L149.57 24.5004ZM143.941 17.1617C145.494 16.6606 146.71 15.854 147.515 14.6073C148.307 13.3801 148.624 11.8447 148.624 10.03L146.624 10.03C146.624 11.6353 146.34 12.7399 145.835 13.5227C145.342 14.286 144.563 14.8594 143.327 15.2583L143.941 17.1617ZM148.624 10.03L148.624 8.83L146.624 8.83L146.624 10.03L148.624 10.03ZM148.624 8.83C148.624 6.21162 147.92 4.14029 146.26 2.76198C144.643 1.41891 142.31 0.899999 139.434 0.899999L139.434 2.9C142.137 2.9 143.899 3.40109 144.982 4.30052C146.023 5.16471 146.624 6.55838 146.624 8.83L148.624 8.83ZM139.434 0.899999L133.614 0.899999L133.614 2.9L139.434 2.9L139.434 0.899999ZM132.614 1.9L132.614 25L134.614 25L134.614 1.9L132.614 1.9ZM133.614 26L137.754 26L137.754 24L133.614 24L133.614 26ZM138.754 25L138.754 16.87L136.754 16.87L136.754 25L138.754 25ZM137.754 17.87L139.284 17.87L139.284 15.87L137.754 15.87L137.754 17.87ZM138.413 17.3616L143.003 25.4916L144.744 24.5084L140.154 16.3784L138.413 17.3616ZM143.874 26L148.704 26L148.704 24L143.874 24L143.874 26ZM138.724 13.06L138.724 5.71L136.724 5.71L136.724 13.06L138.724 13.06ZM137.724 6.71L139.494 6.71L139.494 4.71L137.724 4.71L137.724 6.71ZM139.494 6.71C141.04 6.71 141.624 6.99744 141.871 7.25117C142.116 7.50335 142.274 7.96774 142.274 9.04L144.274 9.04C144.274 7.92225 144.146 6.72165 143.304 5.85633C142.464 4.99256 141.158 4.71 139.494 4.71L139.494 6.71ZM142.274 9.04L142.274 9.82L144.274 9.82L144.274 9.04L142.274 9.04ZM142.274 9.82C142.274 10.823 142.075 11.2752 141.803 11.5241C141.503 11.7988 140.866 12.06 139.434 12.06L139.434 14.06C141.001 14.06 142.284 13.7962 143.154 12.9984C144.053 12.1748 144.274 11.007 144.274 9.82L142.274 9.82ZM139.434 12.06L137.724 12.06L137.724 14.06L139.434 14.06L139.434 12.06ZM160.096 1.93L161.061 1.66656L160.86 0.929998L160.096 0.929998L160.096 1.93ZM155.986 1.93L155.986 0.929998L155.226 0.929998L155.022 1.66307L155.986 1.93ZM149.596 25L148.632 24.7331L148.282 26L149.596 26L149.596 25ZM153.856 25L153.856 26L154.604 26L154.816 25.2822L153.856 25ZM155.056 20.92L155.056 19.92L154.308 19.92L154.097 20.6378L155.056 20.92ZM160.966 20.92L161.927 20.6443L161.72 19.92L160.966 19.92L160.966 20.92ZM162.136 25L161.175 25.2757L161.383 26L162.136 26L162.136 25ZM166.396 25L166.396 26L167.706 26L167.361 24.7366L166.396 25ZM156.076 16.87L155.1 16.6509L154.827 17.87L156.076 17.87L156.076 16.87ZM157.996 8.32L158.972 8.10089L157.02 8.10089L157.996 8.32ZM159.916 16.87L159.916 17.87L161.166 17.87L160.892 16.6509L159.916 16.87ZM160.096 0.929998L155.986 0.929998L155.986 2.93L160.096 2.93L160.096 0.929998ZM155.022 1.66307L148.632 24.7331L150.56 25.2669L156.95 2.19693L155.022 1.66307ZM149.596 26L153.856 26L153.856 24L149.596 24L149.596 26ZM154.816 25.2822L156.016 21.2022L154.097 20.6378L152.897 24.7178L154.816 25.2822ZM155.056 21.92L160.966 21.92L160.966 19.92L155.056 19.92L155.056 21.92ZM160.005 21.1957L161.175 25.2757L163.097 24.7243L161.927 20.6443L160.005 21.1957ZM162.136 26L166.396 26L166.396 24L162.136 24L162.136 26ZM167.361 24.7366L161.061 1.66656L159.132 2.19343L165.431 25.2634L167.361 24.7366ZM157.052 17.0891L158.972 8.5391L157.02 8.10089L155.1 16.6509L157.052 17.0891ZM157.02 8.5391L158.94 17.0891L160.892 16.6509L158.972 8.10089L157.02 8.5391ZM159.916 15.87L156.076 15.87L156.076 17.87L159.916 17.87L159.916 15.87ZM180.59 1.99L181.59 1.99L181.59 0.989999L180.59 0.989999L180.59 1.99ZM166.91 1.99L166.91 0.989999L165.91 0.989999L165.91 1.99L166.91 1.99ZM166.91 5.68L165.91 5.68L165.91 6.68L166.91 6.68L166.91 5.68ZM171.71 5.68L172.71 5.68L172.71 4.68L171.71 4.68L171.71 5.68ZM171.71 25L170.71 25L170.71 26L171.71 26L171.71 25ZM175.82 25L175.82 26L176.82 26L176.82 25L175.82 25ZM175.82 5.68L175.82 4.68L174.82 4.68L174.82 5.68L175.82 5.68ZM180.59 5.68L180.59 6.68L181.59 6.68L181.59 5.68L180.59 5.68ZM180.59 0.989999L166.91 0.989999L166.91 2.99L180.59 2.99L180.59 0.989999ZM165.91 1.99L165.91 5.68L167.91 5.68L167.91 1.99L165.91 1.99ZM166.91 6.68L171.71 6.68L171.71 4.68L166.91 4.68L166.91 6.68ZM170.71 5.68L170.71 25L172.71 25L172.71 5.68L170.71 5.68ZM171.71 26L175.82 26L175.82 24L171.71 24L171.71 26ZM176.82 25L176.82 5.68L174.82 5.68L174.82 25L176.82 25ZM175.82 6.68L180.59 6.68L180.59 4.68L175.82 4.68L175.82 6.68ZM181.59 5.68L181.59 1.99L179.59 1.99L179.59 5.68L181.59 5.68ZM187.09 1.93L188.09 1.93L188.09 0.929998L187.09 0.929998L187.09 1.93ZM182.92 1.93L182.92 0.929998L181.92 0.929998L181.92 1.93L182.92 1.93ZM182.92 25.03L181.92 25.03L181.92 26.03L182.92 26.03L182.92 25.03ZM187.09 25.03L187.09 26.03L188.09 26.03L188.09 25.03L187.09 25.03ZM187.09 0.929998L182.92 0.929998L182.92 2.93L187.09 2.93L187.09 0.929998ZM181.92 1.93L181.92 25.03L183.92 25.03L183.92 1.93L181.92 1.93ZM182.92 26.03L187.09 26.03L187.09 24.03L182.92 24.03L182.92 26.03ZM188.09 25.03L188.09 1.93L186.09 1.93L186.09 25.03L188.09 25.03ZM198.679 26.21C201.521 26.21 203.788 25.6648 205.343 24.3004C206.927 22.9096 207.569 20.8515 207.569 18.31L205.569 18.31C205.569 20.5385 205.011 21.9304 204.023 22.7971C203.006 23.6902 201.328 24.21 198.679 24.21L198.679 26.21ZM207.569 18.31L207.569 8.53L205.569 8.53L205.569 18.31L207.569 18.31ZM207.569 8.53C207.569 5.94568 206.959 3.87682 205.375 2.49312C203.824 1.13887 201.549 0.629999 198.679 0.629999L198.679 2.63C201.389 2.63 203.059 3.12613 204.059 3.99937C205.025 4.84318 205.569 6.22432 205.569 8.53L207.569 8.53ZM198.679 0.629999C195.811 0.629999 193.57 1.13783 192.061 2.50498C190.525 3.89579 189.969 5.96646 189.969 8.53L191.969 8.53C191.969 6.20354 192.479 4.8242 193.403 3.98752C194.353 3.12717 195.967 2.63 198.679 2.63L198.679 0.629999ZM189.969 8.53L189.969 18.31L191.969 18.31L191.969 8.53L189.969 8.53ZM189.969 18.31C189.969 20.8309 190.555 22.8905 192.093 24.2886C193.607 25.6656 195.84 26.21 198.679 26.21L198.679 24.21C196.029 24.21 194.406 23.6894 193.438 22.8089C192.493 21.9495 191.969 20.5591 191.969 18.31L189.969 18.31ZM198.679 20.55C197.278 20.55 196.751 20.249 196.52 19.9861C196.264 19.6941 196.109 19.1673 196.109 18.1L194.109 18.1C194.109 19.2227 194.24 20.4209 195.018 21.3064C195.822 22.221 197.08 22.55 198.679 22.55L198.679 20.55ZM196.109 18.1L196.109 8.74L194.109 8.74L194.109 18.1L196.109 18.1ZM196.109 8.74C196.109 7.72744 196.26 7.18922 196.526 6.88063C196.764 6.60478 197.297 6.29 198.679 6.29L198.679 4.29C197.062 4.29 195.809 4.65022 195.012 5.57437C194.243 6.46578 194.109 7.65255 194.109 8.74L196.109 8.74ZM198.679 6.29C200.186 6.29 200.762 6.6137 201.012 6.89389C201.282 7.19603 201.429 7.71894 201.429 8.74L203.429 8.74C203.429 7.66105 203.306 6.45897 202.504 5.56111C201.681 4.6413 200.383 4.29 198.679 4.29L198.679 6.29ZM201.429 8.74L201.429 18.1L203.429 18.1L203.429 8.74L201.429 8.74ZM201.429 18.1C201.429 19.1223 201.245 19.6533 200.956 19.9554C200.674 20.2512 200.075 20.55 198.679 20.55L198.679 22.55C200.284 22.55 201.56 22.2188 202.402 21.3371C203.239 20.4617 203.429 19.2677 203.429 18.1L201.429 18.1ZM225.038 1.93L226.038 1.93L226.038 0.929998L225.038 0.929998L225.038 1.93ZM220.928 1.93L220.928 0.929998L219.928 0.929998L219.928 1.93L220.928 1.93ZM220.928 7.39L219.928 7.39L219.928 7.41306L219.929 7.4361L220.928 7.39ZM221.378 17.14L220.465 17.5471L222.377 17.0939L221.378 17.14ZM214.598 1.93L215.511 1.52286L215.247 0.929998L214.598 0.929998L214.598 1.93ZM210.488 1.93L210.488 0.929998L209.488 0.929998L209.488 1.93L210.488 1.93ZM210.488 25L209.488 25L209.488 26L210.488 26L210.488 25ZM214.598 25L214.598 26L215.598 26L215.598 25L214.598 25ZM214.598 19.12L215.598 19.12L215.598 19.0995L215.597 19.0789L214.598 19.12ZM214.238 10.36L215.145 9.93976L213.239 10.4011L214.238 10.36ZM221.018 25L220.111 25.4202L220.379 26L221.018 26L221.018 25ZM225.038 25L225.038 26L226.038 26L226.038 25L225.038 25ZM225.038 0.929998L220.928 0.929998L220.928 2.93L225.038 2.93L225.038 0.929998ZM219.928 1.93L219.928 7.39L221.928 7.39L221.928 1.93L219.928 1.93ZM219.929 7.4361L220.379 17.1861L222.377 17.0939L221.927 7.34389L219.929 7.4361ZM222.291 16.7329L215.511 1.52286L213.685 2.33714L220.465 17.5471L222.291 16.7329ZM214.598 0.929998L210.488 0.929998L210.488 2.93L214.598 2.93L214.598 0.929998ZM209.488 1.93L209.488 25L211.488 25L211.488 1.93L209.488 1.93ZM210.488 26L214.598 26L214.598 24L210.488 24L210.488 26ZM215.598 25L215.598 19.12L213.598 19.12L213.598 25L215.598 25ZM215.597 19.0789L215.237 10.3189L213.239 10.4011L213.599 19.1611L215.597 19.0789ZM213.331 10.7802L220.111 25.4202L221.925 24.5798L215.145 9.93976L213.331 10.7802ZM221.018 26L225.038 26L225.038 24L221.018 24L221.018 26ZM226.038 25L226.038 1.93L224.038 1.93L224.038 25L226.038 25Z" fill="#F2F2F2"/>
</svg>
