<svg width="70" height="70" viewBox="-10 -10 77 77" fill="none" xmlns="http://www.w3.org/2000/svg">
<g clip-path="url(#clip0)">
<path d="M48.409 36.7049L43.9438 41.17L39.474 36.7002L50.1985 25.9757C51.3774 26.3076 52.581 26.4699 53.7778 26.4698C57.2214 26.4695 60.6024 25.1241 63.1283 22.5982C66.8437 18.8828 68.0053 13.3187 66.0876 8.42312L64.9939 5.63095L57.9746 12.6504L55.1405 11.8908L54.381 9.05655L61.4001 2.03729L58.6083 0.943728C53.7131 -0.973697 48.1489 0.187745 44.4333 3.90318C41.0296 7.3068 39.7692 12.2616 41.0559 16.8328L30.3314 27.5573L15.9299 13.1559L19.7508 9.33514L7.90814 0.000579834L0 7.90858L9.33443 19.7514L13.1554 15.9305L27.5569 30.332L18.0896 39.7993C13.1728 38.2591 7.8086 39.5458 4.10781 43.2466C1.47979 45.8746 0.0324367 49.3688 0.0324367 53.0852C0.0324367 56.8017 1.47979 60.2959 4.10781 62.9239C6.82033 65.6364 10.3833 66.9926 13.9465 66.9926C17.5095 66.9926 21.0726 65.6364 23.7851 62.9239C27.4859 59.2231 28.7726 53.8588 27.2324 48.9421L36.6997 39.4748L41.1696 43.9447L36.7044 48.4098L52.8695 64.5749C54.4328 66.1381 56.5112 66.999 58.722 66.999C60.9327 66.999 63.0111 66.1381 64.5743 64.5749C67.8012 61.3478 67.8012 56.0973 64.5743 52.8702L48.409 36.7049ZM5.23996 8.21791L8.21746 5.24041L13.8537 9.68305L9.6826 13.8542L5.23996 8.21791ZM45.5956 17.8422L45.1274 16.6469C43.7785 13.2036 44.595 9.29041 47.2078 6.67756C49.0204 4.86503 51.4581 3.91744 53.9321 3.95641L50.0046 7.88399L51.9367 15.0945L59.1473 17.0267L63.0746 13.0992C63.1143 15.5725 62.1662 18.011 60.3536 19.8236C57.7408 22.4361 53.8277 23.2529 50.3843 21.9038L49.1891 21.4357L36.6995 33.9254L33.1058 30.3317L45.5956 17.8422ZM22.6404 47.9847L23.1528 49.2008C24.7388 52.9643 23.8978 57.2619 21.0105 60.1492C19.0626 62.097 16.5049 63.0708 13.9463 63.0705C11.3884 63.0704 8.82957 62.0966 6.8822 60.1492C4.99538 58.2623 3.95609 55.7537 3.95609 53.0851C3.95609 50.4165 4.99525 47.9079 6.8822 46.021C8.80093 44.1024 11.3415 43.0874 13.9349 43.0874C15.2444 43.0874 16.5678 43.3464 17.8305 43.8786L19.0466 44.391L30.3313 33.1064L33.9249 36.7L22.6404 47.9847ZM48.409 42.2538L52.0028 45.8476L45.8471 52.0032L42.2535 48.4095L48.409 42.2538ZM61.7998 61.8004C60.9776 62.6224 59.8846 63.0752 58.722 63.0752C57.5594 63.0752 56.4662 62.6224 55.6442 61.8004L48.6216 54.7778L54.7773 48.6222L61.7998 55.6447C63.4969 57.3418 63.4969 60.1032 61.7998 61.8004Z" fill="#BB162B"/>
<path d="M13.9463 46.6204C12.2194 46.6204 10.5959 47.2929 9.37494 48.514C8.15386 49.7351 7.48132 51.3585 7.48132 53.0853C7.48132 54.8122 8.15386 56.4356 9.37481 57.6567C10.5959 58.8778 12.2194 59.5503 13.9463 59.5503C15.6731 59.5503 17.2965 58.8778 18.5178 57.6567C21.0383 55.136 21.0383 51.0345 18.5178 48.514C17.2967 47.2929 15.6731 46.6204 13.9463 46.6204ZM15.7432 54.8822C15.2632 55.362 14.6251 55.6264 13.9464 55.6264C13.2676 55.6264 12.6296 55.362 12.1496 54.8822C11.6697 54.4022 11.4054 53.764 11.4054 53.0853C11.4054 52.4066 11.6697 51.7685 12.1497 51.2885C12.6296 50.8085 13.2677 50.5443 13.9465 50.5443C14.6252 50.5443 15.2634 50.8086 15.7434 51.2885C16.7339 52.2793 16.7339 53.8914 15.7432 54.8822Z" fill="#BB162B"/>
</g>
<defs>
<clipPath id="clip0">
<rect width="67" height="67" fill="white"/>
</clipPath>
</defs>
</svg>
