<svg width="70" height="70" viewBox="3 3 77 77" fill="none" xmlns="http://www.w3.org/2000/svg">
<path d="M33.75 18.75H41.25V21.25H33.75V18.75Z" fill="#BB162B"/>
<path d="M22.5 35H17.5C17.1685 35 16.8505 35.1317 16.6161 35.3661C16.3817 35.6005 16.25 35.9185 16.25 36.25V38.75C16.25 39.7446 16.6451 40.6984 17.3483 41.4016C18.0516 42.1049 19.0054 42.5 20 42.5H25C25.3315 42.5 25.6495 42.3683 25.8839 42.1339C26.1183 41.8995 26.25 41.5815 26.25 41.25V38.75C26.25 37.7554 25.8549 36.8016 25.1517 36.0983C24.4484 35.3951 23.4946 35 22.5 35ZM23.75 40H20C19.6685 40 19.3505 39.8683 19.1161 39.6339C18.8817 39.3995 18.75 39.0815 18.75 38.75V37.5H22.5C22.8315 37.5 23.1495 37.6317 23.3839 37.8661C23.6183 38.1005 23.75 38.4185 23.75 38.75V40Z" fill="#BB162B"/>
<path d="M62.5 35H57.5C56.5054 35 55.5516 35.3951 54.8484 36.0983C54.1451 36.8016 53.75 37.7554 53.75 38.75V41.25C53.75 41.5815 53.8817 41.8995 54.1161 42.1339C54.3505 42.3683 54.6685 42.5 55 42.5H60C60.9946 42.5 61.9484 42.1049 62.6516 41.4016C63.3549 40.6984 63.75 39.7446 63.75 38.75V36.25C63.75 35.9185 63.6183 35.6005 63.3839 35.3661C63.1495 35.1317 62.8315 35 62.5 35ZM61.25 38.75C61.25 39.0815 61.1183 39.3995 60.8839 39.6339C60.6495 39.8683 60.3315 40 60 40H56.25V38.75C56.25 38.4185 56.3817 38.1005 56.6161 37.8661C56.8505 37.6317 57.1685 37.5 57.5 37.5H61.25V38.75Z" fill="#BB162B"/>
<path d="M46.25 35H33.75C32.7554 35 31.8016 35.3951 31.0983 36.0983C30.3951 36.8016 30 37.7554 30 38.75C30 39.7446 30.3951 40.6984 31.0983 41.4016C31.8016 42.1049 32.7554 42.5 33.75 42.5H46.25C47.2446 42.5 48.1984 42.1049 48.9016 41.4016C49.6049 40.6984 50 39.7446 50 38.75C50 37.7554 49.6049 36.8016 48.9016 36.0983C48.1984 35.3951 47.2446 35 46.25 35ZM41.25 37.5V40H38.75V37.5H41.25ZM32.5 38.75C32.5 38.4185 32.6317 38.1005 32.8661 37.8661C33.1005 37.6317 33.4185 37.5 33.75 37.5H36.25V40H33.75C33.4185 40 33.1005 39.8683 32.8661 39.6339C32.6317 39.3995 32.5 39.0815 32.5 38.75ZM46.25 40H43.75V37.5H46.25C46.5815 37.5 46.8995 37.6317 47.1339 37.8661C47.3683 38.1005 47.5 38.4185 47.5 38.75C47.5 39.0815 47.3683 39.3995 47.1339 39.6339C46.8995 39.8683 46.5815 40 46.25 40Z" fill="#BB162B"/>
<path d="M76.25 65V63.75C76.2499 63.4185 76.1182 63.1006 75.8838 62.8662L73.3838 60.3662C73.1494 60.1318 72.8315 60.0001 72.5 60H69.77C69.9181 59.5997 69.9959 59.1768 70 58.75V55H72.5C73.163 55 73.7989 54.7366 74.2678 54.2678C74.7366 53.7989 75 53.163 75 52.5V47.5C75 46.837 74.7366 46.2011 74.2678 45.7322C73.7989 45.2634 73.163 45 72.5 45H72.27C72.4181 44.5997 72.4959 44.1768 72.5 43.75V34.1925C72.5014 33.6258 72.3736 33.0662 72.1262 32.5563C71.8788 32.0464 71.5185 31.5997 71.0725 31.25H71.525C72.0833 31.2518 72.626 31.0657 73.0659 30.7218C73.5057 30.3779 73.8171 29.896 73.95 29.3538L74.575 26.8538C74.6667 26.4854 74.6733 26.101 74.5943 25.7297C74.5152 25.3584 74.3527 25.0099 74.119 24.7108C73.8853 24.4117 73.5865 24.1697 73.2454 24.0032C72.9042 23.8367 72.5296 23.7502 72.15 23.75H61.875L56.25 16.25C55.6662 15.4756 54.9109 14.8468 54.0434 14.4131C53.176 13.9794 52.2199 13.7524 51.25 13.75H28.75C27.7801 13.7524 26.824 13.9794 25.9566 14.4131C25.0891 14.8468 24.3338 15.4756 23.75 16.25L18.125 23.75H7.85C7.47039 23.7502 7.0958 23.8367 6.75464 24.0032C6.41348 24.1697 6.11472 24.4117 5.881 24.7108C5.64729 25.0099 5.48476 25.3584 5.40575 25.7297C5.32674 26.101 5.33332 26.4854 5.425 26.8538L6.05 29.3538C6.18332 29.8958 6.49483 30.3774 6.93457 30.7212C7.3743 31.0651 7.91679 31.2513 8.475 31.25H8.9275C8.48153 31.5997 8.12116 32.0464 7.8738 32.5563C7.62644 33.0662 7.4986 33.6258 7.5 34.1925V43.75C7.50414 44.1768 7.58195 44.5997 7.73 45H7.5C6.83696 45 6.20107 45.2634 5.73223 45.7322C5.26339 46.2011 5 46.837 5 47.5V52.5C5 53.163 5.26339 53.7989 5.73223 54.2678C6.20107 54.7366 6.83696 55 7.5 55H10V58.75C10.0041 59.1768 10.082 59.5997 10.23 60H7.5C7.16851 60.0001 6.85062 60.1318 6.61625 60.3662L4.11625 62.8662C3.88181 63.1006 3.75007 63.4185 3.75 63.75V65C3.41848 65 3.10054 65.1317 2.86612 65.3661C2.6317 65.6005 2.5 65.9185 2.5 66.25V76.25C2.5 76.5815 2.6317 76.8995 2.86612 77.1339C3.10054 77.3683 3.41848 77.5 3.75 77.5H76.25C76.5815 77.5 76.8995 77.3683 77.1339 77.1339C77.3683 76.8995 77.5 76.5815 77.5 76.25V66.25C77.5 65.9185 77.3683 65.6005 77.1339 65.3661C76.8995 65.1317 76.5815 65 76.25 65ZM67.5 58.75C67.5 59.0815 67.3683 59.3995 67.1339 59.6339C66.8995 59.8683 66.5815 60 66.25 60H61.25C60.9185 60 60.6005 59.8683 60.3661 59.6339C60.1317 59.3995 60 59.0815 60 58.75V55H67.5V58.75ZM22.5 55H57.5V58.75C57.5041 59.1768 57.582 59.5997 57.73 60H22.27C22.418 59.5997 22.4959 59.1768 22.5 58.75V55ZM72.1513 26.25L71.5263 28.75H65.6388C65.62 28.7288 65.5963 28.7125 65.5788 28.6888L63.75 26.25H72.1513ZM25.75 17.75C26.1004 17.2855 26.5536 16.9084 27.0741 16.6481C27.5945 16.3879 28.1681 16.2516 28.75 16.25H51.25C51.8319 16.2516 52.4055 16.3879 52.9259 16.6481C53.4464 16.9084 53.8996 17.2855 54.25 17.75L62.5 28.75H36.125C35.8381 27.3371 35.0716 26.0669 33.9553 25.1545C32.8391 24.2421 31.4417 23.7437 30 23.7437C28.5583 23.7437 27.1609 24.2421 26.0447 25.1545C24.9284 26.0669 24.1619 27.3371 23.875 28.75H17.5L25.75 17.75ZM33.52 28.75H26.48C26.7346 28.0193 27.2102 27.386 27.8409 26.9378C28.4717 26.4896 29.2262 26.2488 30 26.2488C30.7738 26.2488 31.5283 26.4896 32.1591 26.9378C32.7898 27.386 33.2654 28.0193 33.52 28.75ZM8.47375 28.75L7.84875 26.25H16.25L14.4212 28.6875C14.4037 28.7113 14.3787 28.7275 14.36 28.75H8.47375ZM10 43.75V42.5H13.75V40H10V37.5H13.75V35H10V34.1925C10.0001 33.9429 10.0749 33.699 10.2148 33.4922C10.3547 33.2855 10.5533 33.1254 10.785 33.0325L14.8137 31.4212C14.9212 31.3787 15.0112 31.3025 15.115 31.25H64.885C64.9888 31.3025 65.0787 31.375 65.1862 31.4212L69.2137 33.0312C69.4459 33.124 69.6449 33.2842 69.7851 33.4912C69.9252 33.6982 70.0001 33.9425 70 34.1925V35H66.25V37.5H70V40H66.25V42.5H70V43.75C70 44.0815 69.8683 44.3995 69.6339 44.6339C69.3995 44.8683 69.0815 45 68.75 45H11.25C10.9185 45 10.6005 44.8683 10.3661 44.6339C10.1317 44.3995 10 44.0815 10 43.75ZM7.5 47.5H72.5V52.5H7.5V47.5ZM12.5 58.75V55H20V58.75C20 59.0815 19.8683 59.3995 19.6339 59.6339C19.3995 59.8683 19.0815 60 18.75 60H13.75C13.4185 60 13.1005 59.8683 12.8661 59.6339C12.6317 59.3995 12.5 59.0815 12.5 58.75ZM6.25 64.2675L8.0175 62.5H71.9825L73.75 64.2675V65H6.25V64.2675ZM75 75H5V67.5H75V75Z" fill="#BB162B"/>
<path d="M11.25 12.5H13.75V10H16.25V7.5H13.75V5H11.25V7.5H8.75V10H11.25V12.5Z" fill="#BB162B"/>
<path d="M65 17.5H67.5V15H70V12.5H67.5V10H65V12.5H62.5V15H65V17.5Z" fill="#BB162B"/>
</svg>
