<svg width="70" height="70" viewBox="0 0 70 70" fill="none" xmlns="http://www.w3.org/2000/svg">
<path d="M64.1667 0H5.83333C2.61333 0.00379167 0.00379167 2.61333 0 5.83333V47.8333C0.00379167 51.0533 2.61333 53.6629 5.83333 53.6667H23.6063L18.0063 63H14C13.3557 63 12.8333 63.5224 12.8333 64.1667V68.8333C12.8333 69.4776 13.3557 70 14 70H56C56.6443 70 57.1667 69.4776 57.1667 68.8333V64.1667C57.1667 63.5224 56.6443 63 56 63H51.9937L46.3937 53.6667H64.1667C67.3867 53.6629 69.9962 51.0533 70 47.8333V5.83333C69.9962 2.61333 67.3867 0.00379167 64.1667 0ZM54.8333 65.3333V67.6667H15.1667V65.3333H54.8333ZM49.273 63H20.727L26.327 53.6667H43.673L49.273 63ZM67.6667 47.8333C67.6667 49.7664 66.0997 51.3333 64.1667 51.3333H5.83333C3.90031 51.3333 2.33333 49.7664 2.33333 47.8333V44.3333H67.6667V47.8333ZM67.6667 42H2.33333V5.83333C2.33333 3.90031 3.90031 2.33333 5.83333 2.33333H64.1667C66.0997 2.33333 67.6667 3.90031 67.6667 5.83333V42Z" fill="#BB162B"/>
<path d="M36.1667 46.6667H33.8334V49H36.1667V46.6667Z" fill="#BB162B"/>
<path d="M46.6667 24.5H41.4937L38.3332 19.2325C38.1223 18.8815 37.7429 18.6668 37.3334 18.6667H23.3334C22.979 18.6665 22.6437 18.8275 22.4222 19.1042L18.0624 24.5548L6.88337 25.6725C6.28721 25.7324 5.83337 26.2342 5.83337 26.8333V35C5.83337 35.6443 6.35575 36.1667 7.00004 36.1667H14.2147C14.8469 37.9811 16.8302 38.9395 18.6445 38.3075C19.6474 37.9581 20.436 37.1697 20.7854 36.1667H32.8814C33.5136 37.9811 35.4969 38.9395 37.3112 38.3075C38.3141 37.9581 39.1026 37.1697 39.452 36.1667H46.6667C47.311 36.1667 47.8334 35.6443 47.8334 35V25.6667C47.8334 25.0224 47.311 24.5 46.6667 24.5ZM17.5 36.1667C16.8557 36.1667 16.3334 35.6443 16.3334 35C16.3334 34.3557 16.8557 33.8333 17.5 33.8333C18.1443 33.8333 18.6667 34.3557 18.6667 35C18.6667 35.6443 18.1443 36.1667 17.5 36.1667ZM36.1667 36.1667C35.5224 36.1667 35 35.6443 35 35C35 34.3557 35.5224 33.8333 36.1667 33.8333C36.811 33.8333 37.3334 34.3557 37.3334 35C37.3334 35.6443 36.811 36.1667 36.1667 36.1667ZM45.5 29.1667H43.1667V31.5H45.5V33.8333H39.452C38.8199 32.0189 36.8365 31.0604 35.0222 31.6925C34.0193 32.0419 33.2308 32.8303 32.8814 33.8333H20.7854C20.1532 32.0189 18.1699 31.0604 16.3555 31.6925C15.3526 32.0419 14.5641 32.8303 14.2147 33.8333H8.16671V31.5H10.5V29.1667H8.16671V27.8892L18.7834 26.8333C19.0955 26.8021 19.3819 26.6465 19.5779 26.4017L23.8934 21H36.673L39.8335 26.2675C40.0444 26.6185 40.4239 26.8332 40.8334 26.8333H45.5V29.1667Z" fill="#BB162B"/>
<path d="M24.5 12.8333V10.5H22.1667V12.8333H19.8334V8.16668H17.5V12.8333H15.1667V5.83334H12.8334V12.8333H10.5V9.33334H8.16671V12.8333H5.83337V15.1667H26.8334V12.8333H24.5Z" fill="#BB162B"/>
<path d="M64.1667 24.5H52.5V26.8333H64.1667V24.5Z" fill="#BB162B"/>
<path d="M64.1667 29.1667H52.5V31.5H64.1667V29.1667Z" fill="#BB162B"/>
<path d="M64.1667 33.8333H52.5V36.1666H64.1667V33.8333Z" fill="#BB162B"/>
<path d="M40.8333 5.83334C40.4873 5.8332 40.1592 5.98661 39.9373 6.25218L34.104 13.2522L35.896 14.7478L41.3793 8.16668H47.8334V5.83334H40.8333Z" fill="#BB162B"/>
<path d="M54.8333 5.83334H52.5V8.16668H54.8333V5.83334Z" fill="#BB162B"/>
<path d="M59.5 5.83334H57.1666V8.16668H59.5V5.83334Z" fill="#BB162B"/>
<path d="M64.1667 10.5H52.5V12.8333H64.1667V10.5Z" fill="#BB162B"/>
<path d="M64.1667 15.1667H52.5V17.5H64.1667V15.1667Z" fill="#BB162B"/>
</svg>
