<svg width="70" height="70" viewBox="0 0 70 70" fill="none" xmlns="http://www.w3.org/2000/svg">
<g clip-path="url(#clip0)">
<path d="M54.1406 28.7109C54.1406 18.1568 45.5541 9.57031 35 9.57031C24.4459 9.57031 15.8595 18.1568 15.8595 28.7109C15.8595 36.739 20.9283 43.9716 28.4724 46.7085C29.1821 46.966 29.9664 46.5993 30.2239 45.8895C30.4815 45.1797 30.1148 44.3956 29.405 44.138C22.9386 41.7922 18.5939 35.5926 18.5939 28.7109C18.5939 19.6645 25.9537 12.3047 35 12.3047C44.0464 12.3047 51.4062 19.6645 51.4062 28.7109C51.4062 35.593 47.0613 41.7927 40.5943 44.1383C39.8844 44.3957 39.5178 45.1799 39.7752 45.8898C39.9769 46.4457 40.5016 46.7912 41.0605 46.7912C41.2153 46.7912 41.3728 46.7646 41.5266 46.7089C49.0715 43.9723 54.1406 36.7396 54.1406 28.7109Z" fill="#BB162B"/>
<path d="M48.672 28.7109C48.672 21.1723 42.5388 15.0391 35.0001 15.0391C27.4615 15.0391 21.3282 21.1723 21.3282 28.7109C21.3282 36.2496 27.4615 42.3828 35.0001 42.3828C42.5388 42.3828 48.672 36.2497 48.672 28.7109ZM24.0626 28.7109C24.0626 22.68 28.9692 17.7734 35.0001 17.7734C41.0311 17.7734 45.9376 22.68 45.9376 28.7109C45.9376 34.7419 41.0311 39.6484 35.0001 39.6484C28.9692 39.6484 24.0626 34.742 24.0626 28.7109Z" fill="#BB162B"/>
<path d="M39.1017 28.7109C39.1017 26.4493 37.2617 24.6094 35.0001 24.6094C32.7385 24.6094 30.8986 26.4493 30.8986 28.7109C30.8986 30.9725 32.7385 32.8125 35.0001 32.8125C37.2617 32.8125 39.1017 30.9725 39.1017 28.7109ZM33.6329 28.7109C33.6329 27.9571 34.2463 27.3438 35.0001 27.3438C35.754 27.3438 36.3673 27.9571 36.3673 28.7109C36.3673 29.4648 35.754 30.0781 35.0001 30.0781C34.2463 30.0781 33.6329 29.4648 33.6329 28.7109Z" fill="#BB162B"/>
<path d="M35.0001 22.5586C35.7552 22.5586 36.3673 21.9465 36.3673 21.1914C36.3673 20.4363 35.7552 19.8242 35.0001 19.8242H34.9991C34.244 19.8242 33.6323 20.4363 33.6323 21.1914C33.6323 21.9465 34.245 22.5586 35.0001 22.5586Z" fill="#BB162B"/>
<path d="M29.6824 24.7612C30.0325 24.7612 30.3827 24.6276 30.6497 24.3606C31.1836 23.8267 31.1836 22.961 30.6497 22.427C30.1158 21.893 29.2501 21.8931 28.7161 22.427L28.7154 22.4277C28.1815 22.9616 28.1819 23.8269 28.7158 24.3609C28.9828 24.6278 29.3325 24.7612 29.6824 24.7612Z" fill="#BB162B"/>
<path d="M28.8478 28.7109C28.8478 27.9558 28.2357 27.3438 27.4806 27.3438C26.7255 27.3438 26.1134 27.9558 26.1134 28.7109V28.7119C26.1134 29.467 26.7255 30.0787 27.4806 30.0787C28.2357 30.0787 28.8478 29.466 28.8478 28.7109Z" fill="#BB162B"/>
<path d="M28.6714 33.1084C28.1634 33.6671 28.2046 34.5318 28.7634 35.0397L28.764 35.0404C29.0259 35.2784 29.3548 35.3959 29.6828 35.3959C30.0545 35.3959 30.425 35.245 30.6949 34.9481C31.2028 34.3895 31.1614 33.5243 30.6026 33.0166C30.0439 32.5088 29.1793 32.5497 28.6714 33.1084Z" fill="#BB162B"/>
<path d="M36.3679 36.2305C36.3679 35.4754 35.7552 34.8633 35.0001 34.8633C34.245 34.8633 33.6329 35.4754 33.6329 36.2305C33.6329 36.9856 34.245 37.5977 35.0001 37.5977H35.0011C35.7562 37.5977 36.3679 36.9856 36.3679 36.2305Z" fill="#BB162B"/>
<path d="M39.3502 33.0612C38.8164 33.5951 38.8164 34.4608 39.3502 34.9948C39.6173 35.2618 39.9671 35.3953 40.317 35.3953C40.6668 35.3953 41.0169 35.2618 41.2837 34.9948L41.2844 34.9941C41.8183 34.4602 41.8179 33.5949 41.284 33.0609C40.7504 32.527 39.8843 32.5273 39.3502 33.0612Z" fill="#BB162B"/>
<path d="M41.1523 28.7108C41.1523 29.4659 41.7644 30.078 42.5195 30.078C43.2746 30.078 43.8867 29.4659 43.8867 28.7108V28.7099C43.8867 27.9548 43.2746 27.3431 42.5195 27.3431C41.7644 27.3431 41.1523 27.9559 41.1523 28.7108Z" fill="#BB162B"/>
<path d="M40.3167 24.7609C40.6885 24.7609 41.059 24.6101 41.3287 24.3134C41.8366 23.7548 41.7955 22.89 41.2367 22.3821L41.236 22.3814C40.6774 21.8735 39.8131 21.9149 39.3051 22.4737C38.7972 23.0324 38.8387 23.8975 39.3974 24.4053C39.6594 24.6434 39.9885 24.7609 40.3167 24.7609Z" fill="#BB162B"/>
<path d="M54.0037 50.5867H53.5892C56.2652 48.3102 58.5198 45.5503 60.2063 42.4577C62.499 38.2536 63.7108 33.5004 63.7108 28.7118C63.7108 12.8805 50.8312 0.000976562 35 0.000976562C19.1689 0.000976562 6.28918 12.8807 6.28918 28.7118C6.28918 33.4994 7.50051 38.2519 9.79232 42.4553C11.479 45.5488 13.7342 48.3097 16.4107 50.5869H15.9962C10.6437 50.5869 6.28918 54.9415 6.28918 60.2938C6.28918 65.6462 10.6438 70.0008 15.9962 70.0008H54.0037C59.3562 70.0008 63.7107 65.6462 63.7107 60.2938C63.7108 54.9413 59.3562 50.5867 54.0037 50.5867ZM60.9765 60.2938C60.9765 60.739 60.9327 61.174 60.8526 61.5962L60.5763 61.4601C60.1953 61.2723 59.7486 61.2723 59.3677 61.4601L58.5846 61.8459L57.8015 61.4601C57.4204 61.2723 56.9738 61.2723 56.5929 61.4601L55.8097 61.8459L55.0266 61.4601C54.6457 61.2723 54.1991 61.2723 53.818 61.4601L53.0349 61.8459L52.2518 61.4601C51.8708 61.2723 51.4241 61.2723 51.0432 61.4601L50.2602 61.8459L49.4771 61.4601C49.0962 61.2723 48.6495 61.2723 48.2685 61.4601L47.4854 61.8459L46.7023 61.4601C46.3212 61.2723 45.8746 61.2723 45.4937 61.4601L44.7107 61.8459L43.9276 61.4601C43.5465 61.2723 43.0999 61.2723 42.719 61.4601L41.9359 61.8459L41.1529 61.4601C40.772 61.2723 40.3255 61.2722 39.9443 61.4601L39.1612 61.8459L38.3782 61.4601C37.9973 61.2723 37.5508 61.2722 37.1696 61.4601L36.3865 61.8459L35.6035 61.4601C35.2226 61.2723 34.7758 61.2723 34.3949 61.4601L33.6119 61.8459L32.8288 61.4601C32.4478 61.2723 32.0011 61.2723 31.6202 61.4601L30.8372 61.8459L30.0541 61.4601C29.6731 61.2723 29.2264 61.2723 28.8455 61.4601L28.0624 61.8459L27.2794 61.4601C26.8984 61.2723 26.4518 61.2722 26.0708 61.4601L25.2877 61.8459L24.5047 61.4601C24.1237 61.2723 23.6771 61.2722 23.2961 61.4601L22.513 61.8459L21.7299 61.4601C21.3488 61.2723 20.9022 61.2723 20.5213 61.4601L19.7382 61.8459L18.9552 61.4601C18.5741 61.2723 18.1275 61.2722 17.7466 61.4601L16.9635 61.8459L16.1803 61.4601C15.7993 61.2723 15.3526 61.2723 14.9717 61.4601L14.1886 61.8459L13.4055 61.4601C13.0246 61.2723 12.5779 61.2723 12.1969 61.4601L11.4138 61.8459L10.6307 61.4601C10.2498 61.2723 9.80312 61.2723 9.42208 61.4601L9.14577 61.5962C9.06566 61.174 9.02191 60.739 9.02191 60.2937C9.02191 59.8484 9.06566 59.4135 9.14577 58.9913L9.42222 59.1275C9.80312 59.3152 10.2498 59.3152 10.6307 59.1275L11.4138 58.7417L12.1969 59.1275C12.5778 59.3152 13.0245 59.3152 13.4054 59.1275L14.1885 58.7417L14.9716 59.1275C15.3525 59.3152 15.7992 59.3152 16.1801 59.1275L16.9632 58.7417L17.7463 59.1275C18.1272 59.3152 18.5737 59.3152 18.9548 59.1275L19.7377 58.7417L20.5209 59.1275C20.9018 59.3152 21.3484 59.3152 21.7293 59.1275L22.5124 58.7417L23.2956 59.1275C23.6765 59.3152 24.123 59.3152 24.504 59.1275L25.2871 58.7417L26.0703 59.1275C26.4512 59.3151 26.8977 59.3152 27.2787 59.1275L28.0617 58.7417L28.8448 59.1275C29.2257 59.3152 29.6724 59.3152 30.0533 59.1275L30.8364 58.7417L31.6195 59.1275C32.0004 59.3152 32.4469 59.3152 32.828 59.1275L33.6111 58.7417L34.3942 59.1275C34.7752 59.3152 35.2218 59.3152 35.6028 59.1275L36.3859 58.7417L37.169 59.1275C37.5499 59.3151 37.9965 59.3152 38.3775 59.1275L39.1606 58.7417L39.9437 59.1275C40.3246 59.3151 40.7712 59.3152 41.1522 59.1275L41.9352 58.7417L42.7183 59.1275C42.9087 59.2214 43.1156 59.2683 43.3225 59.2683C43.5293 59.2683 43.7362 59.2214 43.9266 59.1276L44.7097 58.7418L45.4929 59.1276C45.8739 59.3153 46.3204 59.3153 46.7013 59.1276L47.4844 58.7418L48.2676 59.1276C48.6485 59.3153 49.0951 59.3153 49.476 59.1276L50.2591 58.7418L51.0421 59.1276C51.4231 59.3153 51.8697 59.3153 52.2506 59.1276L53.0337 58.7418L53.8168 59.1276C54.1977 59.3153 54.6444 59.3153 55.0253 59.1276L55.8084 58.7418L56.5915 59.1276C56.9724 59.3153 57.4191 59.3153 57.8 59.1276L58.5831 58.7418L59.3662 59.1276C59.7471 59.3153 60.1938 59.3153 60.5747 59.1276L60.851 58.9915C60.9327 59.4137 60.9765 59.8486 60.9765 60.2938ZM20.9282 50.5465C13.4739 45.7425 9.02355 37.58 9.02355 28.7117C9.02355 14.3881 20.6766 2.7352 35 2.7352C49.3234 2.7352 60.9765 14.3882 60.9765 28.7117C60.9765 37.5818 56.5245 45.7454 49.0676 50.5493C49.0494 50.561 49.0329 50.5743 49.0154 50.5867H20.9842C20.9655 50.5733 20.9477 50.5591 20.9282 50.5465ZM15.9962 53.3211H54.0037C56.3297 53.3211 58.3919 54.4671 59.6593 56.2229L59.1887 55.9912C58.8078 55.8035 58.3612 55.8035 57.9803 55.9912L57.1972 56.377L56.414 55.9912C56.0331 55.8035 55.5865 55.8035 55.2056 55.9912L54.4225 56.377L53.6393 55.9912C53.2584 55.8035 52.8118 55.8035 52.4309 55.9912L51.6478 56.377L50.8648 55.9912C50.4838 55.8035 50.0372 55.8035 49.6563 55.9912L48.8732 56.377L48.0901 55.9912C47.7092 55.8035 47.2625 55.8035 46.8816 55.9912L46.0985 56.377L45.3155 55.9912C44.9345 55.8035 44.488 55.8035 44.1071 55.9912L43.3238 56.377L42.5407 55.9912C42.1598 55.8035 41.7133 55.8035 41.3322 55.9912L40.5493 56.377L39.766 55.9912C39.3851 55.8035 38.9386 55.8035 38.5576 55.9912L37.7746 56.377L36.9913 55.9912C36.6104 55.8035 36.1639 55.8035 35.7829 55.9912L34.9999 56.377L34.2169 55.9912C33.8359 55.8035 33.3893 55.8035 33.0084 55.9912L32.2252 56.377L31.4422 55.9912C31.0612 55.8035 30.6146 55.8035 30.2337 55.9912L29.4505 56.377L28.6674 55.9912C28.2865 55.8035 27.8399 55.8035 27.4589 55.9912L26.6759 56.377L25.8927 55.9912C25.5118 55.8035 25.0652 55.8035 24.6842 55.9912L23.9012 56.377L23.1181 55.9912C22.7372 55.8035 22.2905 55.8035 21.9097 55.9912L21.1265 56.377L20.3434 55.9912C19.9625 55.8035 19.516 55.8035 19.135 55.9912L18.352 56.377L17.5688 55.9912C17.188 55.8035 16.7413 55.8035 16.3604 55.9912L15.5773 56.377L14.7942 55.9912C14.4133 55.8035 13.9666 55.8035 13.5857 55.9912L12.8026 56.377L12.0195 55.9912C11.6386 55.8035 11.1919 55.8035 10.811 55.9912L10.3404 56.2231C11.6079 54.4672 13.6702 53.3211 15.9962 53.3211ZM54.0037 67.2665H15.9962C13.6702 67.2665 11.6079 66.1205 10.3406 64.3646L10.811 64.5965C11.192 64.7842 11.6387 64.7842 12.0196 64.5965L12.8027 64.2107L13.5858 64.5965C13.9667 64.7842 14.4134 64.7842 14.7944 64.5965L15.5775 64.2107L16.3607 64.5965C16.7416 64.7842 17.1882 64.7842 17.5693 64.5965L18.3524 64.2107L19.1354 64.5965C19.5164 64.7842 19.9629 64.7844 20.344 64.5965L21.1271 64.2107L21.9102 64.5965C22.2912 64.7842 22.7379 64.7842 23.1188 64.5965L23.9019 64.2107L24.6849 64.5965C25.0659 64.7842 25.5124 64.7844 25.8935 64.5965L26.6766 64.2107L27.4596 64.5965C27.8406 64.7842 28.2871 64.7844 28.6682 64.5965L29.4513 64.2107L30.2344 64.5965C30.6155 64.7842 31.0621 64.7842 31.443 64.5965L32.226 64.2107L33.0091 64.5965C33.3902 64.7842 33.8368 64.7842 34.2177 64.5965L35.0007 64.2107L35.7837 64.5965C36.1647 64.7842 36.6111 64.7844 36.9923 64.5965L37.7754 64.2107L38.5584 64.5965C38.9393 64.7842 39.3858 64.7844 39.767 64.5965L40.5501 64.2107L41.3331 64.5965C41.7141 64.7842 42.1608 64.7844 42.5417 64.5965L43.3248 64.2107L44.1079 64.5965C44.4889 64.7842 44.9356 64.7842 45.3165 64.5965L46.0995 64.2107L46.8826 64.5965C47.2635 64.7842 47.7102 64.7842 48.0912 64.5965L48.8743 64.2107L49.6574 64.5965C50.0385 64.7842 50.4851 64.7842 50.866 64.5965L51.649 64.2107L52.4321 64.5965C52.8132 64.7842 53.2598 64.7842 53.6407 64.5965L54.4238 64.2107L55.207 64.5965C55.588 64.7842 56.0347 64.7842 56.4155 64.5965L57.1987 64.2107L57.9818 64.5965C58.3627 64.7842 58.8093 64.7842 59.1904 64.5965L59.6608 64.3646C58.3921 66.1205 56.3298 67.2665 54.0037 67.2665Z" fill="#BB162B"/>
<path d="M35.0001 45.117H34.9991C34.244 45.117 33.6324 45.7291 33.6324 46.4842C33.6324 47.2393 34.245 47.8514 35.0001 47.8514C35.7552 47.8514 36.3672 47.2393 36.3672 46.4842C36.3672 45.7291 35.7552 45.117 35.0001 45.117Z" fill="#BB162B"/>
</g>
<defs>
<clipPath id="clip0">
<rect width="70" height="70" fill="white"/>
</clipPath>
</defs>
</svg>
