<svg width="70" height="70" viewBox="0 0 70 70" fill="none" xmlns="http://www.w3.org/2000/svg">
<path d="M64.5312 22.9688H62.3438C62.0537 22.9688 61.7755 23.084 61.5704 23.2891C61.3652 23.4942 61.25 23.7724 61.25 24.0625V33.9062H59.0625V22.9688C59.0599 22.0993 58.7134 21.2662 58.0986 20.6514C57.4838 20.0366 56.6507 19.6901 55.7812 19.6875H49.2188V15.3125H60.1562C60.4463 15.3125 60.7245 15.1973 60.9296 14.9921C61.1348 14.787 61.25 14.5088 61.25 14.2188V12.0312C61.25 10.5808 60.6738 9.18985 59.6482 8.16426C58.6227 7.13867 57.2317 6.5625 55.7812 6.5625H33.9062C32.4558 6.5625 31.0648 7.13867 30.0393 8.16426C29.0137 9.18985 28.4375 10.5808 28.4375 12.0312V14.2188C28.4375 14.5088 28.5527 14.787 28.7579 14.9921C28.963 15.1973 29.2412 15.3125 29.5312 15.3125H40.4688V19.6875H31.8281C31.6045 19.6839 31.3857 19.753 31.2047 19.8844L20.4422 27.3438H14.2188C13.3493 27.3463 12.5162 27.6929 11.9014 28.3077C11.2866 28.9225 10.9401 29.7556 10.9375 30.625V44.8438H8.75V35C8.75 34.7099 8.63477 34.4317 8.42965 34.2266C8.22453 34.0215 7.94633 33.9062 7.65625 33.9062H5.46875C4.59931 33.9088 3.76622 34.2554 3.15142 34.8702C2.53663 35.485 2.1901 36.3181 2.1875 37.1875V59.0625C2.1901 59.9319 2.53663 60.765 3.15142 61.3798C3.76622 61.9946 4.59931 62.3412 5.46875 62.3438H7.65625C7.94633 62.3438 8.22453 62.2285 8.42965 62.0234C8.63477 61.8183 8.75 61.5401 8.75 61.25V51.4062H10.9375V60.1562C10.9401 61.0257 11.2866 61.8588 11.9014 62.4736C12.5162 63.0884 13.3493 63.4349 14.2188 63.4375H44.5156C45.1497 63.4365 45.77 63.2522 46.3017 62.9068C46.8334 62.5614 47.2539 62.0696 47.5125 61.4906L51.0234 53.5938H57.9688C58.2588 53.5938 58.537 53.4785 58.7421 53.2734C58.9473 53.0683 59.0625 52.7901 59.0625 52.5V40.4688H61.25V50.3125C61.25 50.6026 61.3652 50.8808 61.5704 51.0859C61.7755 51.291 62.0537 51.4062 62.3438 51.4062H64.5312C65.4007 51.4037 66.2338 51.0571 66.8486 50.4423C67.4634 49.8275 67.8099 48.9944 67.8125 48.125V26.25C67.8099 25.3806 67.4634 24.5475 66.8486 23.9327C66.2338 23.3179 65.4007 22.9713 64.5312 22.9688ZM6.5625 60.1562H5.46875C5.17867 60.1562 4.90047 60.041 4.69535 59.8359C4.49023 59.6308 4.375 59.3526 4.375 59.0625V37.1875C4.375 36.8974 4.49023 36.6192 4.69535 36.4141C4.90047 36.209 5.17867 36.0938 5.46875 36.0938H6.5625V60.1562ZM10.9375 49.2188H8.75V47.0312H10.9375V49.2188ZM30.625 13.125V12.0312C30.6276 11.1618 30.9741 10.3287 31.5889 9.71392C32.2037 9.09913 33.0368 8.7526 33.9062 8.75H55.7812C56.6507 8.7526 57.4838 9.09913 58.0986 9.71392C58.7134 10.3287 59.0599 11.1618 59.0625 12.0312V13.125H30.625ZM47.0312 15.3125V19.6875H42.6562V15.3125H47.0312ZM56.875 51.4062H50.3125C50.1017 51.4049 49.8951 51.4653 49.7183 51.58C49.5414 51.6946 49.402 51.8586 49.3172 52.0516L45.5109 60.6047C45.4247 60.7966 45.2849 60.9595 45.1084 61.074C44.9318 61.1884 44.726 61.2496 44.5156 61.25H14.2188C13.9287 61.25 13.6505 61.1348 13.4454 60.9296C13.2402 60.7245 13.125 60.4463 13.125 60.1562V30.625C13.125 30.3349 13.2402 30.0567 13.4454 29.8516C13.6505 29.6465 13.9287 29.5312 14.2188 29.5312H20.7812C21.0044 29.5316 21.2222 29.4628 21.4047 29.3344L32.1672 21.875H55.7812C56.0713 21.875 56.3495 21.9902 56.5546 22.1954C56.7598 22.4005 56.875 22.6787 56.875 22.9688V51.4062ZM61.25 38.2812H59.0625V36.0938H61.25V38.2812ZM65.625 48.125C65.625 48.4151 65.5098 48.6933 65.3046 48.8984C65.0995 49.1035 64.8213 49.2188 64.5312 49.2188H63.4375V25.1562H64.5312C64.8213 25.1562 65.0995 25.2715 65.3046 25.4766C65.5098 25.6817 65.625 25.9599 65.625 26.25V48.125Z" fill="#BB162B"/>
<path d="M29.5313 38.2812C28.4496 38.2812 27.3923 38.602 26.493 39.2029C25.5936 39.8038 24.8927 40.6579 24.4788 41.6572C24.0649 42.6565 23.9566 43.7561 24.1676 44.8169C24.3786 45.8777 24.8994 46.8522 25.6643 47.617C26.4291 48.3818 27.4035 48.9027 28.4644 49.1137C29.5252 49.3247 30.6248 49.2164 31.6241 48.8025C32.6233 48.3885 33.4774 47.6876 34.0784 46.7883C34.6793 45.8889 35 44.8316 35 43.75C34.9983 42.3001 34.4215 40.9101 33.3963 39.8849C32.3711 38.8597 30.9811 38.283 29.5313 38.2812ZM29.5313 47.0312C28.8823 47.0312 28.2479 46.8388 27.7083 46.4783C27.1687 46.1177 26.7481 45.6052 26.4998 45.0057C26.2514 44.4061 26.1864 43.7464 26.3131 43.1099C26.4397 42.4734 26.7522 41.8887 27.2111 41.4298C27.67 40.9709 28.2546 40.6584 28.8911 40.5318C29.5276 40.4052 30.1874 40.4702 30.7869 40.7185C31.3865 40.9669 31.899 41.3874 32.2595 41.927C32.6201 42.4666 32.8125 43.101 32.8125 43.75C32.8125 44.6202 32.4668 45.4548 31.8515 46.0702C31.2361 46.6855 30.4015 47.0312 29.5313 47.0312Z" fill="#BB162B"/>
<path d="M51.5375 36.2141L48.9125 35.875L50.5422 33.7859C50.7045 33.5753 50.7851 33.3131 50.769 33.0477C50.7529 32.7823 50.6413 32.5316 50.4547 32.3422L47.5016 29.3891C47.3121 29.2025 47.0615 29.0908 46.7961 29.0748C46.5307 29.0587 46.2684 29.1392 46.0578 29.3016L43.9688 30.9313L43.6297 28.3062C43.5977 28.0413 43.4699 27.7973 43.2705 27.62C43.0711 27.4427 42.8137 27.3445 42.5469 27.3438H38.3906C38.1238 27.3445 37.8664 27.4427 37.667 27.62C37.4676 27.7973 37.3398 28.0413 37.3078 28.3062L36.9688 30.9313L34.8797 29.3016C34.6691 29.1392 34.4068 29.0587 34.1414 29.0748C33.876 29.0908 33.6254 29.2025 33.4359 29.3891L31.1172 31.7188H27.4531C27.1863 31.7195 26.9289 31.8177 26.7295 31.995C26.5301 32.1723 26.4023 32.4163 26.3703 32.6812L26.0312 35.3062L23.9422 33.6766C23.7316 33.5142 23.4693 33.4337 23.2039 33.4498C22.9385 33.4658 22.6879 33.5775 22.4984 33.7641L19.5453 36.7172C19.3587 36.9066 19.2471 37.1573 19.231 37.4227C19.2149 37.6881 19.2955 37.9503 19.4578 38.1609L21.0875 40.25L18.4625 40.5891C18.1976 40.6211 17.9535 40.7488 17.7763 40.9483C17.599 41.1477 17.5007 41.405 17.5 41.6719V45.8281C17.5007 46.095 17.599 46.3523 17.7763 46.5517C17.9535 46.7512 18.1976 46.8789 18.4625 46.9109L21.0875 47.25L19.4578 49.3281C19.2954 49.5407 19.2148 49.8047 19.2309 50.0718C19.2469 50.3388 19.3585 50.5912 19.5453 50.7828L22.4984 53.7359C22.6879 53.9225 22.9385 54.0342 23.2039 54.0502C23.4693 54.0663 23.7316 53.9858 23.9422 53.8234L26.0312 52.1938L26.3703 54.8187C26.4023 55.0837 26.5301 55.3277 26.7295 55.505C26.9289 55.6823 27.1863 55.7805 27.4531 55.7812H31.6094C31.8762 55.7805 32.1336 55.6823 32.333 55.505C32.5324 55.3277 32.6602 55.0837 32.6922 54.8187L33.0313 52.1938L35.1203 53.8234C35.3309 53.9858 35.5932 54.0663 35.8586 54.0502C36.124 54.0342 36.3746 53.9225 36.5641 53.7359L38.8828 51.4062H42.5469C42.8137 51.4055 43.0711 51.3073 43.2705 51.13C43.4699 50.9527 43.5977 50.7087 43.6297 50.4437L43.9688 47.8188L46.0578 49.4484C46.2684 49.6108 46.5307 49.6913 46.7961 49.6752C47.0615 49.6592 47.3121 49.5475 47.5016 49.3609L50.4547 46.4078C50.6413 46.2184 50.7529 45.9677 50.769 45.7023C50.7851 45.4369 50.7045 45.1747 50.5422 44.9641L48.9125 42.875L51.5375 42.5359C51.8024 42.5039 52.0465 42.3762 52.2237 42.1767C52.401 41.9773 52.4993 41.72 52.5 41.4531V37.2969C52.4993 37.03 52.401 36.7727 52.2237 36.5733C52.0465 36.3738 51.8024 36.2461 51.5375 36.2141ZM35.7 51.5047L33.6328 49.8969C33.4739 49.7715 33.2828 49.6936 33.0815 49.6723C32.8801 49.651 32.6769 49.6872 32.4953 49.7766C32.2497 49.9011 31.9934 50.0036 31.7297 50.0828C31.5315 50.1483 31.3557 50.2681 31.2223 50.4286C31.0889 50.5891 31.0032 50.7838 30.975 50.9906L30.6469 53.5938H28.4156L28.0875 50.9906C28.0593 50.7838 27.9736 50.5891 27.8402 50.4286C27.7068 50.2681 27.531 50.1483 27.3328 50.0828C27.0691 50.0036 26.8128 49.9011 26.5672 49.7766C26.3856 49.6872 26.1824 49.651 25.981 49.6723C25.7797 49.6936 25.5886 49.7715 25.4297 49.8969L23.3625 51.5047L21.7766 49.9187L23.3844 47.8516C23.5098 47.6927 23.5877 47.5015 23.6089 47.3002C23.6302 47.0989 23.5941 46.8957 23.5047 46.7141C23.3802 46.4684 23.2777 46.2122 23.1984 45.9484C23.133 45.7503 23.0132 45.5745 22.8527 45.441C22.6922 45.3076 22.4974 45.2219 22.2906 45.1938L19.6875 44.8656V42.6344L22.2906 42.3063C22.4974 42.2781 22.6922 42.1924 22.8527 42.059C23.0132 41.9255 23.133 41.7497 23.1984 41.5516C23.2777 41.2878 23.3802 41.0316 23.5047 40.7859C23.5941 40.6043 23.6302 40.4011 23.6089 40.1998C23.5877 39.9985 23.5098 39.8073 23.3844 39.6484L21.7766 37.5813L23.3625 35.9953L25.4297 37.6031C25.5886 37.7285 25.7797 37.8064 25.981 37.8277C26.1824 37.849 26.3856 37.8128 26.5672 37.7234C26.8128 37.5989 27.0691 37.4964 27.3328 37.4172C27.531 37.3517 27.7068 37.2319 27.8402 37.0714C27.9736 36.9109 28.0593 36.7162 28.0875 36.5094L28.4156 33.9062H30.6141L30.975 36.5203C31.0035 36.7257 31.0894 36.9189 31.223 37.0776C31.3565 37.2363 31.5322 37.354 31.7297 37.4172C31.9934 37.4964 32.2497 37.5989 32.4953 37.7234C32.6793 37.8135 32.8852 37.8489 33.0887 37.8257C33.2922 37.8024 33.4848 37.7214 33.6438 37.5922L35.7 35.9953L37.2859 37.5813L35.6781 39.6484C35.5527 39.8073 35.4748 39.9985 35.4536 40.1998C35.4323 40.4011 35.4684 40.6043 35.5578 40.7859C35.6823 41.0316 35.7848 41.2878 35.8641 41.5516C35.9295 41.7497 36.0493 41.9255 36.2098 42.059C36.3703 42.1924 36.5651 42.2781 36.7719 42.3063L39.375 42.6344V44.8656L36.7719 45.1938C36.5613 45.2325 36.365 45.327 36.2034 45.4674C36.0418 45.6079 35.9208 45.7891 35.8531 45.9922L35.7984 46.1672C35.7219 46.3641 35.6344 46.5391 35.5578 46.7141C35.4684 46.8957 35.4323 47.0989 35.4536 47.3002C35.4748 47.5015 35.5527 47.6927 35.6781 47.8516L37.2859 49.9187L35.7 51.5047ZM39.5172 36.7172L39.1672 36.3672C39.5702 36.194 40.0039 36.1035 40.4426 36.1011C40.8812 36.0988 41.3159 36.1846 41.7208 36.3534C42.1256 36.5223 42.4925 36.7707 42.7994 37.0841C43.1064 37.3974 43.3473 37.7693 43.5078 38.1775C43.6684 38.5858 43.7452 39.0221 43.7338 39.4606C43.7225 39.8991 43.6231 40.3309 43.4417 40.7303C43.2602 41.1297 43.0004 41.4885 42.6776 41.7856C42.3548 42.0826 41.9756 42.3117 41.5625 42.4594V41.6719C41.5618 41.405 41.4635 41.1477 41.2862 40.9483C41.109 40.7488 40.8649 40.6211 40.6 40.5891L37.975 40.25L39.6047 38.1609C39.767 37.9503 39.8476 37.6881 39.8315 37.4227C39.8154 37.1573 39.7038 36.9066 39.5172 36.7172ZM50.3125 40.4906L47.7094 40.8187C47.5026 40.8469 47.3078 40.9326 47.1473 41.066C46.9868 41.1995 46.867 41.3753 46.8016 41.5734C46.7223 41.8372 46.6198 42.0934 46.4953 42.3391C46.4059 42.5207 46.3698 42.7239 46.3911 42.9252C46.4123 43.1265 46.4902 43.3177 46.6156 43.4766L48.2234 45.5437L46.6375 47.1297L44.5703 45.5219C44.4103 45.3988 44.2193 45.3224 44.0185 45.3012C43.8178 45.2799 43.615 45.3147 43.4328 45.4016C43.1872 45.5261 42.9309 45.6286 42.6672 45.7078C42.469 45.7733 42.2932 45.8931 42.1598 46.0536C42.0264 46.2141 41.9407 46.4088 41.9125 46.6156L41.5844 49.2188H39.5172L37.975 47.25L40.6 46.9109C40.8649 46.8789 41.109 46.7512 41.2862 46.5517C41.4635 46.3523 41.5618 46.095 41.5625 45.8281V44.7344C42.3467 44.5729 43.0859 44.2412 43.7279 43.7626C44.3698 43.2841 44.8989 42.6705 45.2776 41.965C45.6564 41.2596 45.8757 40.4796 45.9199 39.6801C45.9641 38.8807 45.8323 38.0813 45.5336 37.3384C45.235 36.5954 44.7769 35.9272 44.1917 35.3807C43.6064 34.8343 42.9083 34.4231 42.1467 34.176C41.3851 33.929 40.5785 33.8522 39.7839 33.9511C38.9894 34.0501 38.2263 34.3222 37.5484 34.7484L36.5641 33.7641C36.3746 33.5775 36.124 33.4658 35.8586 33.4498C35.5932 33.4337 35.3309 33.5142 35.1203 33.6766L33.0203 35.3062L32.725 33.2063L34.3 31.6203L36.3672 33.2281C36.5262 33.3533 36.7173 33.431 36.9186 33.4523C37.1198 33.4736 37.323 33.4376 37.5047 33.3484C37.7503 33.2239 38.0066 33.1214 38.2703 33.0422C38.4685 32.9767 38.6443 32.8569 38.7777 32.6964C38.9111 32.5359 38.9968 32.3412 39.025 32.1344L39.3531 29.5312H41.5844L41.9125 32.1344C41.9407 32.3412 42.0264 32.5359 42.1598 32.6964C42.2932 32.8569 42.469 32.9767 42.6672 33.0422C42.9309 33.1214 43.1872 33.2239 43.4328 33.3484C43.6144 33.4378 43.8176 33.474 44.019 33.4527C44.2203 33.4314 44.4114 33.3535 44.5703 33.2281L46.6375 31.6203L48.2234 33.2063L46.6156 35.2734C46.4902 35.4323 46.4123 35.6235 46.3911 35.8248C46.3698 36.0261 46.4059 36.2293 46.4953 36.4109C46.6198 36.6566 46.7223 36.9128 46.8016 37.1766C46.867 37.3747 46.9868 37.5505 47.1473 37.684C47.3078 37.8174 47.5026 37.9031 47.7094 37.9313L50.3125 38.2594V40.4906Z" fill="#BB162B"/>
<path d="M52.5 24.0625H54.6875V26.25H52.5V24.0625Z" fill="#BB162B"/>
<path d="M48.125 24.0625H50.3125V26.25H48.125V24.0625Z" fill="#BB162B"/>
<path d="M15.3125 56.875H17.5V59.0625H15.3125V56.875Z" fill="#BB162B"/>
<path d="M19.6875 56.875H21.875V59.0625H19.6875V56.875Z" fill="#BB162B"/>
</svg>
