<svg width="70" height="70" viewBox="0 0 70 70" fill="none" xmlns="http://www.w3.org/2000/svg">
<path d="M67.4953 7.97344L62.0266 2.50469C61.8559 2.33795 61.6359 2.23082 61.3994 2.19929C61.1628 2.16775 60.9225 2.21349 60.7141 2.32969L51.6906 7.33906L50.9031 6.54063C50.6966 6.33571 50.4175 6.22072 50.1266 6.22072C49.8356 6.22072 49.5565 6.33571 49.35 6.54063L44.7125 11.1781C44.6106 11.28 44.5301 11.4011 44.4757 11.5344C44.4212 11.6678 44.3939 11.8107 44.3953 11.9547C44.3945 12.2452 44.5085 12.5244 44.7125 12.7313L45.4891 13.4969L43.9359 15.05L42.3391 13.4422C42.1305 13.2407 41.8525 13.1272 41.5625 13.125V9.84375C41.5625 8.39335 40.9863 7.00235 39.9607 5.97676C38.9352 4.95117 37.5442 4.375 36.0938 4.375H15.3125V3.28125C15.3125 2.99117 15.1973 2.71297 14.9921 2.50785C14.787 2.30273 14.5088 2.1875 14.2188 2.1875H8.75C7.00952 2.1875 5.34032 2.8789 4.10961 4.10961C2.8789 5.34032 2.1875 7.00952 2.1875 8.75V61.25C2.1875 62.9905 2.8789 64.6597 4.10961 65.8904C5.34032 67.1211 7.00952 67.8125 8.75 67.8125H45.9375C47.678 67.8125 49.3472 67.1211 50.5779 65.8904C51.8086 64.6597 52.5 62.9905 52.5 61.25V24.0625C52.4978 23.7725 52.3843 23.4945 52.1828 23.2859L51.6688 22.7828L53.2219 21.2297L53.9875 22.0063C54.0897 22.1076 54.2109 22.1878 54.3442 22.2423C54.4774 22.2967 54.6201 22.3243 54.7641 22.3234C54.9082 22.3254 55.0512 22.2983 55.1846 22.2438C55.318 22.1893 55.4391 22.1085 55.5406 22.0063L60.1781 17.3688C60.383 17.1622 60.498 16.8831 60.498 16.5922C60.498 16.3013 60.383 16.0221 60.1781 15.8156L59.4016 15.05L61.7312 11.1562L64.1813 11.9766C64.3752 12.039 64.5825 12.0475 64.7809 12.0013C64.9793 11.9551 65.1614 11.8558 65.3078 11.7141L67.4953 9.52656C67.7002 9.32005 67.8152 9.04092 67.8152 8.75C67.8152 8.45908 67.7002 8.17995 67.4953 7.97344ZM15.3125 6.5625H36.0938C36.9632 6.5651 37.7963 6.91163 38.4111 7.52642C39.0259 8.14122 39.3724 8.97431 39.375 9.84375V13.125H37.1875V9.84375C37.1875 9.55367 37.0723 9.27547 36.8671 9.07035C36.662 8.86523 36.3838 8.75 36.0938 8.75H15.3125V6.5625ZM15.3125 10.9375H35V13.125H15.3125V10.9375ZM50.3125 61.25C50.3125 62.4103 49.8516 63.5231 49.0311 64.3436C48.2106 65.1641 47.0978 65.625 45.9375 65.625H8.75C7.58968 65.625 6.47688 65.1641 5.65641 64.3436C4.83594 63.5231 4.375 62.4103 4.375 61.25V8.75C4.375 7.58968 4.83594 6.47688 5.65641 5.65641C6.47688 4.83594 7.58968 4.375 8.75 4.375H13.125V14.2188C13.125 14.5088 13.2402 14.787 13.4454 14.9921C13.6505 15.1973 13.9287 15.3125 14.2188 15.3125H41.1141L43.1594 17.3688L46.2547 20.4641L50.3125 24.5109V61.25ZM50.1266 21.2297L45.4891 16.5922L47.0312 15.05L51.6688 19.6875L50.1266 21.2297ZM54.7641 19.6875L47.0312 11.9547L50.1266 8.85938L57.8594 16.5922L54.7641 19.6875ZM64.2359 9.69062L61.6 8.80469C61.3623 8.7248 61.1044 8.72901 60.8694 8.81663C60.6345 8.90424 60.4367 9.06993 60.3094 9.28594L57.8047 13.4531L53.3094 8.94688L61.0641 4.6375L65.1766 8.75L64.2359 9.69062Z" fill="#BB162B"/>
<path d="M47.8078 25.1016L40.5234 17.8172C40.3149 17.6157 40.0368 17.5022 39.7469 17.5H9.84375C8.97431 17.5026 8.14122 17.8491 7.52642 18.4639C6.91163 19.0787 6.5651 19.9118 6.5625 20.7812V60.1562C6.5651 61.0257 6.91163 61.8588 7.52642 62.4736C8.14122 63.0884 8.97431 63.4349 9.84375 63.4375H44.8438C45.7132 63.4349 46.5463 63.0884 47.1611 62.4736C47.7759 61.8588 48.1224 61.0257 48.125 60.1562V25.8781C48.1228 25.5882 48.0093 25.3101 47.8078 25.1016ZM45.9375 60.1562C45.9375 60.4463 45.8223 60.7245 45.6171 60.9296C45.412 61.1348 45.1338 61.25 44.8438 61.25H9.84375C9.55367 61.25 9.27547 61.1348 9.07035 60.9296C8.86523 60.7245 8.75 60.4463 8.75 60.1562V20.7812C8.75 20.4912 8.86523 20.213 9.07035 20.0079C9.27547 19.8027 9.55367 19.6875 9.84375 19.6875H39.2984L45.9375 26.3266V60.1562Z" fill="#BB162B"/>
<path d="M26.25 31.7188V22.9688C26.25 22.6787 26.1348 22.4005 25.9296 22.1954C25.7245 21.9902 25.4463 21.875 25.1562 21.875H12.0312C11.7412 21.875 11.463 21.9902 11.2579 22.1954C11.0527 22.4005 10.9375 22.6787 10.9375 22.9688V31.7188C10.9375 32.0088 11.0527 32.287 11.2579 32.4921C11.463 32.6973 11.7412 32.8125 12.0312 32.8125H25.1562C25.4463 32.8125 25.7245 32.6973 25.9296 32.4921C26.1348 32.287 26.25 32.0088 26.25 31.7188ZM24.0625 30.625H13.125V24.0625H24.0625V30.625Z" fill="#BB162B"/>
<path d="M26.39 35.5589C25.7031 36.7806 19.6875 47.6055 19.6875 51.4063C19.6875 53.4368 20.4941 55.3842 21.93 56.8201C23.3658 58.2559 25.3132 59.0625 27.3438 59.0625C29.3743 59.0625 31.3217 58.2559 32.7575 56.8201C34.1934 55.3842 35 53.4368 35 51.4063C35 47.6055 28.9844 36.7806 28.2975 35.5589C28.1942 35.4 28.0529 35.2695 27.8863 35.1791C27.7198 35.0887 27.5333 35.0413 27.3438 35.0413C27.1542 35.0413 26.9677 35.0887 26.8012 35.1791C26.6346 35.2695 26.4933 35.4 26.39 35.5589ZM27.3438 56.875C25.8939 56.8733 24.5039 56.2966 23.4787 55.2713C22.4535 54.2461 21.8767 52.8561 21.875 51.4063C21.875 49.245 24.8664 42.9713 27.3438 38.3655C29.8211 42.9702 32.8125 49.2439 32.8125 51.4063C32.8108 52.8561 32.234 54.2461 31.2088 55.2713C30.1836 56.2966 28.7936 56.8733 27.3438 56.875Z" fill="#BB162B"/>
<path d="M41.5625 24.0625H28.4375V26.25H41.5625V24.0625Z" fill="#BB162B"/>
<path d="M41.5625 28.4375H28.4375V30.625H41.5625V28.4375Z" fill="#BB162B"/>
</svg>
