<svg width="37" height="37" viewBox="0 0 37 37" fill="none" xmlns="http://www.w3.org/2000/svg">
<g clip-path="url(#clip0)">
<path d="M33.5312 4.625H3.46877C1.55597 4.625 0 6.18097 0 8.09377V28.9063C0 30.8191 1.55597 32.375 3.46877 32.375H33.5312C35.444 32.375 37 30.8191 37 28.9063V8.09377C37 6.18097 35.444 4.625 33.5312 4.625ZM33.5312 6.93749C33.6883 6.93749 33.8378 6.97008 33.9744 7.02701L18.5 20.4388L3.02552 7.02701C3.16215 6.97016 3.3116 6.93749 3.4687 6.93749H33.5312ZM33.5312 30.0625H3.46877C2.83081 30.0625 2.31249 29.5442 2.31249 28.9062V9.47018L17.7423 22.8427C17.9603 23.0312 18.2301 23.125 18.5 23.125C18.7699 23.125 19.0397 23.0313 19.2577 22.8427L34.6875 9.47018V28.9063C34.6874 29.5442 34.1692 30.0625 33.5312 30.0625Z" fill="#BB162B"/>
</g>
<defs>
<clipPath id="clip0">
<rect width="37" height="37" fill="white"/>
</clipPath>
</defs>
</svg>
