<svg width="60" height="60" viewBox="0 0 60 60" fill="none" xmlns="http://www.w3.org/2000/svg">
<path d="M53 2H7C3.13587 2.00438 0.004375 5.13587 0 9V41C0.004375 44.8641 3.13587 47.9956 7 48H22.656L20.256 56H17V58H43V56H39.744L37.344 48H53C56.8641 47.9956 59.9956 44.8641 60 41V9C59.9956 5.13587 56.8641 2.00438 53 2ZM37.656 56H22.344L24.744 48H35.256L37.656 56ZM58 41C57.9967 43.76 55.76 45.9967 53 46H7C4.24 45.9967 2.00325 43.76 2 41V40H58V41ZM58 38H2V9C2.00325 6.24 4.24 4.00325 7 4H53C55.76 4.00325 57.9967 6.24 58 9V38Z" fill="white"/>
<path d="M42 16H39.5L36.8 12.4C36.6111 12.1482 36.3148 12 36 12H26C25.6853 12 25.3889 12.1482 25.2 12.4L22.429 16.1L17.8 17.02C17.3344 17.115 16.9999 17.5247 17 18V23C17 23.5522 17.4477 24 18 24H21.184C21.7259 25.5553 23.4259 26.3767 24.981 25.835C25.8406 25.5355 26.5165 24.8597 26.816 24H33.184C33.7259 25.5553 35.4259 26.3767 36.981 25.835C37.8406 25.5355 38.5165 24.8597 38.816 24H42C42.5522 24 43 23.5522 43 23V17C43 16.4478 42.5522 16 42 16ZM24 24C23.4478 24 23 23.5522 23 23C23 22.4478 23.4478 22 24 22C24.5522 22 25 22.4478 25 23C25 23.5522 24.5522 24 24 24ZM36 24C35.4478 24 35 23.5522 35 23C35 22.4478 35.4478 22 36 22C36.5522 22 37 22.4478 37 23C37 23.5522 36.5522 24 36 24ZM41 22H38.829C38.817 21.966 38.799 21.936 38.786 21.9C38.764 21.844 38.738 21.791 38.713 21.737C38.6613 21.6262 38.6027 21.5188 38.538 21.415C38.508 21.366 38.479 21.315 38.445 21.27C38.3611 21.1519 38.2689 21.04 38.169 20.935C38.148 20.913 38.13 20.888 38.109 20.867C37.9854 20.7449 37.8515 20.6334 37.709 20.534C37.666 20.51 37.622 20.487 37.581 20.461C37.4723 20.3926 37.3594 20.3313 37.243 20.277C37.188 20.252 37.132 20.23 37.075 20.208C36.9576 20.1626 36.8374 20.1251 36.715 20.096C36.66 20.082 36.607 20.066 36.551 20.056C36.1881 19.9816 35.8139 19.9816 35.451 20.056C35.395 20.066 35.342 20.082 35.287 20.096C35.1646 20.1251 35.0444 20.1626 34.927 20.208C34.87 20.23 34.815 20.252 34.76 20.277C34.6431 20.331 34.5299 20.3924 34.421 20.461C34.38 20.487 34.336 20.51 34.296 20.537C34.1535 20.6364 34.0196 20.7479 33.896 20.87C33.875 20.891 33.857 20.916 33.836 20.938C33.7361 21.043 33.6439 21.1549 33.56 21.273C33.527 21.32 33.497 21.373 33.467 21.418C33.4022 21.5217 33.3438 21.6292 33.292 21.74C33.266 21.794 33.241 21.847 33.219 21.903C33.206 21.936 33.188 21.966 33.176 22.003H26.829C26.817 21.969 26.799 21.939 26.786 21.903C26.764 21.847 26.738 21.794 26.713 21.74C26.6612 21.6292 26.6027 21.5217 26.538 21.418C26.508 21.369 26.479 21.318 26.445 21.273C26.3611 21.1549 26.2689 21.043 26.169 20.938C26.148 20.916 26.13 20.891 26.109 20.87C25.9854 20.7479 25.8515 20.6364 25.709 20.537C25.669 20.51 25.625 20.487 25.584 20.461C25.4752 20.3926 25.3624 20.3313 25.246 20.277C25.191 20.252 25.135 20.23 25.078 20.208C24.9606 20.1626 24.8404 20.1251 24.718 20.096C24.663 20.082 24.61 20.066 24.554 20.056C24.1911 19.9816 23.8169 19.9816 23.454 20.056C23.398 20.066 23.345 20.082 23.29 20.096C23.1676 20.1251 23.0474 20.1626 22.93 20.208C22.873 20.23 22.818 20.252 22.763 20.277C22.6461 20.331 22.5329 20.3924 22.424 20.461C22.383 20.487 22.339 20.51 22.299 20.537C22.1565 20.6364 22.0226 20.7479 21.899 20.87C21.878 20.891 21.86 20.916 21.839 20.938C21.7391 21.043 21.6469 21.1549 21.563 21.273C21.53 21.32 21.5 21.373 21.47 21.418C21.4052 21.5217 21.3468 21.6292 21.295 21.74C21.269 21.794 21.244 21.847 21.222 21.903C21.209 21.936 21.191 21.966 21.179 22.003H19V18.819L23.2 17.98C23.44 17.9317 23.6537 17.7964 23.8 17.6L26.5 14H35.5L38.2 17.6C38.3889 17.8518 38.6852 18 39 18H41V22Z" fill="white"/>
<path d="M18.707 10.293C18.5195 10.1055 18.2653 10 18 10H14V12H17.586L20.293 14.707L21.707 13.293L18.707 10.293Z" fill="white"/>
<path d="M56 8H48V10H56V8Z" fill="white"/>
<path d="M56 12H48V14H56V12Z" fill="white"/>
<path d="M56 18H48V20H56V18Z" fill="white"/>
<path d="M56 22H48V24H56V22Z" fill="white"/>
<path d="M42 10C41.7347 10 41.4805 10.1055 41.293 10.293L39.293 12.293L40.707 13.707L42.414 12H46V10H42Z" fill="white"/>
<path d="M12 8H4V10H12V8Z" fill="white"/>
<path d="M12 12H4V14H12V12Z" fill="white"/>
<path d="M12 18H4V20H12V18Z" fill="white"/>
<path d="M12 22H4V24H12V22Z" fill="white"/>
<path d="M10 29H6C5.44775 29 5 29.4477 5 30V34C5 34.5522 5.44775 35 6 35H10C10.5522 35 11 34.5522 11 34V30C11 29.4477 10.5522 29 10 29ZM9 33H7V31H9V33Z" fill="white"/>
<path d="M22 28H16C15.4477 28 15 28.4477 15 29V35C15 35.5522 15.4477 36 16 36H22C22.5522 36 23 35.5522 23 35V29C23 28.4477 22.5522 28 22 28ZM21 34H17V30H21V34Z" fill="white"/>
<path d="M32 29H28C27.4477 29 27 29.4477 27 30V34C27 34.5522 27.4477 35 28 35H32C32.5522 35 33 34.5522 33 34V30C33 29.4477 32.5522 29 32 29ZM31 33H29V31H31V33Z" fill="white"/>
<path d="M43 29H39C38.4477 29 38 29.4477 38 30V34C38 34.5522 38.4477 35 39 35H43C43.5522 35 44 34.5522 44 34V30C44 29.4477 43.5522 29 43 29ZM42 33H40V31H42V33Z" fill="white"/>
<path d="M54 29H50C49.4477 29 49 29.4477 49 30V34C49 34.5522 49.4477 35 50 35H54C54.5522 35 55 34.5522 55 34V30C55 29.4477 54.5522 29 54 29ZM53 33H51V31H53V33Z" fill="white"/>
<path d="M37 8H23V10H37V8Z" fill="white"/>
</svg>
