<svg width="60" height="60" viewBox="0 0 60 60" fill="none" xmlns="http://www.w3.org/2000/svg">
<g clip-path="url(#clip0)">
<path d="M52 5.50012C51.6213 5.50012 51.275 5.71412 51.1057 6.05287C50.5512 7.156 49.6559 8.05125 48.5528 8.60575C48.0588 8.85275 47.8587 9.4535 48.1058 9.9475C48.2025 10.141 48.3594 10.2977 48.5528 10.3945C49.6559 10.949 50.5512 11.8442 51.1057 12.9474C51.3527 13.4414 51.9534 13.6415 52.4474 13.3944C52.6409 13.2976 52.7977 13.1407 52.8944 12.9474C53.4489 11.8442 54.3442 10.949 55.4473 10.3945C55.9413 10.1475 56.1414 9.54675 55.8943 9.05275C55.7975 8.85925 55.6407 8.7025 55.4473 8.60575C54.3442 8.05125 53.4489 7.156 52.8944 6.05287C52.725 5.71412 52.3788 5.50012 52 5.50012ZM52 10.6644C51.6542 10.2364 51.2639 9.84612 50.8359 9.50012C51.2639 9.15412 51.6542 8.76387 52 8.33587C52.3459 8.76387 52.7362 9.15412 53.1642 9.50012C52.7362 9.846 52.346 10.2362 52 10.6644Z" fill="white"/>
<path d="M14.8944 8.0529C14.6474 7.5589 14.0466 7.35877 13.5526 7.6059C13.3591 7.70265 13.2024 7.85952 13.1056 8.0529C12.5512 9.15602 11.6559 10.0513 10.5528 10.6058C10.0588 10.8528 9.85865 11.4535 10.1058 11.9475C10.2025 12.141 10.3594 12.2978 10.5528 12.3945C11.6559 12.949 12.5512 13.8443 13.1056 14.9474C13.3526 15.4414 13.9534 15.6415 14.4474 15.3944C14.6409 15.2976 14.7976 15.1408 14.8944 14.9474C15.4489 13.8443 16.3441 12.949 17.4473 12.3945C17.9413 12.1475 18.1414 11.5468 17.8943 11.0528C17.7975 10.8593 17.6406 10.7025 17.4473 10.6058C16.3441 10.0511 15.4489 9.15602 14.8944 8.0529ZM14 12.6644C13.6541 12.2364 13.2639 11.8461 12.8359 11.5001C13.2639 11.1541 13.6541 10.7639 14 10.3359C14.3459 10.7639 14.7361 11.1541 15.1641 11.5001C14.7361 11.846 14.346 12.2363 14 12.6644Z" fill="white"/>
<path d="M4.55278 4.60577C4.05878 4.85277 3.85865 5.45352 4.10578 5.94752C4.20253 6.14102 4.3594 6.29777 4.55278 6.39452C5.6559 6.94902 6.55115 7.84427 7.10565 8.9474C7.35265 9.4414 7.9534 9.64152 8.4474 9.3944C8.6409 9.29765 8.79765 9.14078 8.8944 8.9474C9.4489 7.84427 10.3442 6.94902 11.4473 6.39452C11.9413 6.14752 12.1414 5.54677 11.8943 5.05277C11.7975 4.85927 11.6407 4.70252 11.4473 4.60577C10.3442 4.05127 9.4489 3.15602 8.8944 2.0529C8.6474 1.5589 8.04665 1.35877 7.55265 1.6059C7.35915 1.70265 7.2024 1.85952 7.10565 2.0529C6.55115 3.15602 5.6559 4.05115 4.55278 4.60577ZM8.00003 4.3359C8.3459 4.7639 8.73615 5.15415 9.16415 5.50015C8.73615 5.84615 8.3459 6.2364 8.00003 6.6644C7.65415 6.2364 7.2639 5.84615 6.8359 5.50015C7.2639 5.15415 7.65415 4.7639 8.00003 4.3359Z" fill="white"/>
<path d="M27 26.5001V29.5001H29V27.5001H31V25.5001H28C27.4478 25.5001 27 25.9477 27 26.5001Z" fill="white"/>
<path d="M27 31.5001H29V33.5001H27V31.5001Z" fill="white"/>
<path d="M55 25.5001H52V27.5001H54V29.5001H56V26.5001C56 25.9477 55.5523 25.5001 55 25.5001Z" fill="white"/>
<path d="M54 31.5001H56V33.5001H54V31.5001Z" fill="white"/>
<path d="M59.1643 18.5137L53.3518 17.5449L43.5143 11.6426C43.3589 11.5494 43.1812 11.5001 42.9999 11.5001H25.9999C25.8024 11.5001 25.6094 11.5586 25.4452 11.6681L16.6972 17.5001H10.5299C6.4724 17.501 2.7774 19.8359 1.0349 23.5001H0.999896V23.5751C0.915771 23.7575 0.834896 23.9415 0.761396 24.129C0.256021 25.3674 -0.00260412 26.6925 -0.000104118 28.0301V28.5001C-0.000104118 29.0524 0.447646 29.5001 0.999896 29.5001H6.08477C6.6364 32.767 9.73203 34.968 12.9988 34.4164C15.5169 33.9911 17.4898 32.0182 17.915 29.5001H22.9999V40.5001C23.0018 42.1562 24.3438 43.4982 25.9999 43.5001H28.9999V45.5001C28.9999 45.6554 29.036 45.8085 29.1055 45.9474L31.9999 51.7362V52.5001C31.4477 52.5001 30.9999 52.9479 30.9999 53.5001V57.5001C30.9999 58.0524 31.4477 58.5001 31.9999 58.5001H49.9999C50.5522 58.5001 50.9999 58.0524 50.9999 57.5001V53.5001C50.9999 52.9479 50.5522 52.5001 49.9999 52.5001V51.6626L51.9487 45.8166C51.9827 45.7145 51.9999 45.6077 51.9999 45.5001V43.5001H56.9999C58.6561 43.4982 59.9981 42.1562 59.9999 40.5001V19.5001C59.9999 19.0112 59.6465 18.594 59.1643 18.5137ZM35.9999 13.5001H42.7229L46.2104 15.5925L43.6665 17.5001H35.9999V13.5001ZM26.3027 13.5001H33.9999V17.5001H20.3027L26.3027 13.5001ZM11.9999 32.5001C9.79078 32.5001 7.9999 30.7092 7.9999 28.5001C7.9999 26.291 9.79078 24.5001 11.9999 24.5001C14.209 24.5001 15.9999 26.291 15.9999 28.5001C15.9974 30.7082 14.208 32.4976 11.9999 32.5001ZM22.9999 24.5001V27.5001H17.915C17.3634 24.2332 14.2678 22.0322 11.001 22.5839C8.4829 23.0091 6.51002 24.982 6.08477 27.5001H2.01627C2.05802 26.8206 2.18352 26.1489 2.39002 25.5001H4.9999V23.5001H3.30765C4.86665 21.0131 7.59465 19.5022 10.5299 19.5001H33.9999V21.5001H25.9999C24.3438 21.502 23.0018 22.844 22.9999 24.5001ZM47.9999 56.5001H33.9999V54.5001H47.9999V56.5001ZM49.9999 45.3376L48.0512 51.1839C48.0173 51.2859 47.9999 51.3926 47.9999 51.5001V52.5001H33.9999V51.5001C33.9999 51.3449 33.9638 51.1917 33.8943 51.0529L30.9999 45.264V37.0001C30.9999 36.1717 31.6715 35.5001 32.4999 35.5001C33.3283 35.5001 33.9999 36.1717 33.9999 37.0001V41.6865C33.9999 42.2387 34.4477 42.6865 34.9999 42.6865C35.5522 42.6865 35.9999 42.2387 35.9999 41.6865V30.5001C35.9999 29.9479 36.4477 29.5001 36.9999 29.5001C37.5522 29.5001 37.9999 29.9479 37.9999 30.5001V39.6865C37.9999 40.2387 38.4477 40.6865 38.9999 40.6865C39.5522 40.6865 39.9999 40.2387 39.9999 39.6865V30.5001C39.9999 29.9479 40.4477 29.5001 40.9999 29.5001C41.5522 29.5001 41.9999 29.9479 41.9999 30.5001V39.6865C41.9999 40.2387 42.4477 40.6865 42.9999 40.6865C43.5522 40.6865 43.9999 40.2387 43.9999 39.6865V30.5001C43.9999 29.9479 44.4477 29.5001 44.9999 29.5001C45.5522 29.5001 45.9999 29.9479 45.9999 30.5001V39.6865C45.9999 40.2387 46.4477 40.6865 46.9999 40.6865C47.5522 40.6865 47.9999 40.2387 47.9999 39.6865V32.5001C47.9999 31.9479 48.4477 31.5001 48.9999 31.5001C49.5522 31.5001 49.9999 31.9479 49.9999 32.5001V45.3376ZM57.9999 40.5001C57.9993 41.0521 57.5519 41.4995 56.9999 41.5001H51.9999V32.5001C51.9999 30.8432 50.6568 29.5001 48.9999 29.5001C48.6215 29.5001 48.2464 29.5717 47.8947 29.7111C47.4598 28.1132 45.8118 27.1704 44.2139 27.6054C43.7633 27.728 43.3477 27.9542 42.9999 28.2659C41.862 27.2449 40.1378 27.2449 38.9999 28.2659C37.7668 27.1605 35.871 27.264 34.7657 28.4971C34.2722 29.0476 33.9995 29.7609 33.9999 30.5001V33.8376C32.2534 33.0092 30.166 33.7534 29.3377 35.4999C29.1153 35.9687 28.9999 36.4811 28.9999 37.0001V41.5001H25.9999C25.4479 41.4995 25.0005 41.0521 24.9999 40.5001V24.5001C25.0005 23.9481 25.4479 23.5007 25.9999 23.5001H56.9999C57.5519 23.5007 57.9993 23.9481 57.9999 24.5001V40.5001ZM57.9999 21.6721C57.6788 21.5581 57.3407 21.5 56.9999 21.5001H35.9999V19.5001H43.9999C44.2163 19.5001 44.4268 19.4299 44.5999 19.3001L48.0624 16.7035L52.4858 19.3576C52.5933 19.4221 52.712 19.4659 52.8358 19.4865L57.9999 20.3472V21.6721Z" fill="white"/>
<path d="M12 30.5001C13.1046 30.5001 14 29.6047 14 28.5001C14 27.3956 13.1046 26.5001 12 26.5001C10.8954 26.5001 10 27.3956 10 28.5001C10 29.6047 10.8954 30.5001 12 30.5001Z" fill="white"/>
</g>
<defs>
<clipPath id="clip0">
<rect width="60" height="60" fill="white"/>
</clipPath>
</defs>
</svg>
