<svg width="60" height="60" viewBox="0 0 60 60" fill="none" xmlns="http://www.w3.org/2000/svg">
<g clip-path="url(#clip0)">
<path d="M13.1555 18.2921C13.1554 18.2921 13.1551 18.2921 13.155 18.2921C11.5665 18.1893 10.1906 19.3829 10.068 20.9701C9.95526 22.5626 11.1545 23.9449 12.747 24.0581C12.815 24.0581 12.885 24.0651 12.953 24.0651C14.4678 24.0617 15.7236 22.8908 15.833 21.3801C15.9464 19.7879 14.7476 18.4054 13.1555 18.2921ZM13.836 21.2351C13.7998 21.7248 13.3749 22.0933 12.885 22.0601C12.3948 22.0254 12.0253 21.6003 12.059 21.1101C12.095 20.6446 12.4831 20.2852 12.95 20.2851C12.9708 20.2851 12.99 20.2851 13.011 20.2851C13.5011 20.3197 13.8704 20.7449 13.836 21.2351Z" fill="white"/>
<path d="M59 22C59.5523 22 60 21.5523 60 21V12.441C59.9979 11.1516 59.1721 10.0079 57.949 9.60001L53.53 8.12201L46.509 1.39101C45.5794 0.496631 44.339 -0.00199401 43.049 5.99335e-06H23.521C22.2966 -0.000494007 21.1146 0.449006 20.2 1.26301L12.552 8.06301L4.18001 9.46301C1.76676 9.85701 -0.00399324 11.9439 6.76314e-06 14.389V21C6.76314e-06 21.5523 0.447757 22 1.00001 22H6.08001C6.29801 23.5206 7.01201 24.9268 8.11101 26H1.00001C0.447757 26 6.76314e-06 26.4478 6.76314e-06 27V31C6.76314e-06 31.5523 0.447757 32 1.00001 32H4.73501L23.984 43L4.73501 54H1.00001C0.447757 54 6.76314e-06 54.4478 6.76314e-06 55V59C6.76314e-06 59.5523 0.447757 60 1.00001 60H59C59.5523 60 60 59.5523 60 59V55C60 54.4478 59.5523 54 59 54H55.265L36.016 43L55.265 32H59C59.5523 32 60 31.5523 60 31V27C60 26.4478 59.5523 26 59 26H53.889C54.988 24.9268 55.702 23.5206 55.92 22H59ZM37 2.00001H43.049C43.8229 1.99863 44.5671 2.29763 45.125 2.83401L50.513 8.00001H37V2.00001ZM21.527 2.75801C22.0764 2.26963 22.7859 1.99988 23.521 2.00001H35V8.00001H15.63L21.527 2.75801ZM42.08 22C42.298 23.5206 43.012 24.9268 44.111 26H17.889C18.988 24.9268 19.702 23.5206 19.92 22H42.08ZM7.58001 16.579C7.46701 16.717 7.36101 16.861 7.25901 17.007C7.23801 17.038 7.21501 17.066 7.19401 17.096C7.07263 17.276 6.96001 17.4614 6.85601 17.652C6.82901 17.7 6.80801 17.752 6.78201 17.801C6.70801 17.944 6.63601 18.088 6.57201 18.237C6.54001 18.311 6.51401 18.387 6.48501 18.461C6.43401 18.59 6.38501 18.718 6.34201 18.85C6.31401 18.936 6.29201 19.023 6.26701 19.11C6.23201 19.236 6.19801 19.362 6.16701 19.491C6.14701 19.583 6.13101 19.677 6.11401 19.771C6.10001 19.847 6.08101 19.922 6.07001 20H2.00001V16H4.00001V14H2.03501C2.19988 12.6906 3.20513 11.6451 4.50701 11.429L13.083 10H35V20H19.929C19.918 19.923 19.899 19.848 19.885 19.772C19.868 19.677 19.852 19.583 19.831 19.49C19.803 19.362 19.769 19.236 19.731 19.111C19.706 19.024 19.684 18.936 19.656 18.85C19.613 18.718 19.564 18.59 19.513 18.461C19.484 18.387 19.458 18.311 19.426 18.237C19.362 18.088 19.29 17.944 19.216 17.801C19.19 17.752 19.169 17.701 19.142 17.652C19.038 17.4606 18.9254 17.2756 18.804 17.097C18.783 17.064 18.758 17.035 18.735 17.003C18.635 16.858 18.535 16.716 18.418 16.579C18.372 16.522 18.318 16.469 18.272 16.413C18.179 16.306 18.086 16.2 17.987 16.1C17.928 16.04 17.866 15.984 17.805 15.926C17.71 15.836 17.614 15.746 17.514 15.661C17.446 15.604 17.377 15.55 17.307 15.496C17.207 15.417 17.107 15.341 17.007 15.268C16.932 15.215 16.856 15.168 16.779 15.116C16.674 15.048 16.568 14.983 16.459 14.916C16.378 14.87 16.297 14.826 16.215 14.783C16.104 14.725 15.99 14.671 15.876 14.619C15.791 14.581 15.707 14.543 15.621 14.508C15.502 14.46 15.381 14.417 15.259 14.376C15.173 14.346 15.088 14.315 15 14.289C14.871 14.251 14.74 14.22 14.609 14.189C14.524 14.169 14.44 14.147 14.354 14.13C14.207 14.101 14.054 14.081 13.908 14.061C13.834 14.052 13.762 14.038 13.687 14.031C13.46 14.013 13.231 14 13 14C12.769 14 12.54 14.013 12.315 14.035C12.24 14.042 12.168 14.056 12.094 14.065C11.944 14.085 11.794 14.105 11.648 14.134C11.562 14.151 11.478 14.173 11.394 14.193C11.262 14.224 11.131 14.256 11.002 14.293C10.914 14.319 10.829 14.35 10.743 14.38C10.621 14.421 10.5 14.464 10.381 14.512C10.295 14.547 10.211 14.585 10.126 14.623C10.012 14.675 9.89801 14.729 9.78701 14.787C9.70501 14.83 9.62401 14.874 9.54301 14.92C9.43401 14.982 9.32801 15.047 9.22201 15.12C9.14601 15.169 9.07001 15.22 8.99501 15.271C8.89501 15.344 8.79001 15.421 8.69501 15.5C8.62501 15.554 8.55601 15.608 8.48801 15.665C8.38801 15.75 8.28801 15.84 8.19701 15.93C8.13601 15.988 8.07401 16.044 8.01501 16.104C7.91501 16.204 7.82301 16.31 7.73001 16.417C7.67701 16.469 7.62501 16.522 7.57901 16.579H7.58001ZM8.00001 21C8.00001 18.2386 10.2386 16 13 16C15.7614 16 18 18.2386 18 21C18 23.7614 15.7614 26 13 26C10.24 25.9968 8.00326 23.76 8.00001 21ZM25.261 44.574C25.261 44.588 25.274 44.601 25.279 44.615C25.3755 44.8878 25.4953 45.1518 25.637 45.404C25.662 45.45 25.688 45.494 25.715 45.539C25.8631 45.7889 26.0329 46.0255 26.222 46.246C26.231 46.256 26.237 46.269 26.246 46.279L12.734 54H8.76601L25.261 44.574ZM28.014 47.574C29.2796 48.1315 30.7214 48.1315 31.987 47.574L43.234 54H16.765L28.014 47.574ZM58 56V58H2.00001V56H58ZM51.234 54H47.266L32.511 45.569C32.2005 45.3923 31.8194 45.3945 31.511 45.575C30.5848 46.1389 29.4213 46.1389 28.495 45.575C27.5714 45.0465 27.001 44.0643 27 43C27 42.9119 26.9883 42.824 26.965 42.739C26.959 42.716 26.946 42.695 26.938 42.673C26.9193 42.6128 26.8949 42.5545 26.865 42.499C26.851 42.474 26.829 42.454 26.813 42.43C26.782 42.3818 26.7469 42.3363 26.708 42.294C26.6793 42.2694 26.6493 42.2464 26.618 42.225C26.5818 42.192 26.543 42.1619 26.502 42.135L8.76601 32H12.734L27.489 40.431C27.7995 40.6078 28.1806 40.6055 28.489 40.425C29.4153 39.8611 30.5788 39.8611 31.505 40.425C32.4286 40.9535 32.999 41.9359 33 43C33 43.0881 33.0118 43.176 33.035 43.261C33.041 43.284 33.054 43.305 33.062 43.327C33.0808 43.3873 33.1051 43.4455 33.135 43.501C33.149 43.526 33.171 43.546 33.187 43.57C33.218 43.6183 33.2531 43.6638 33.292 43.706C33.3208 43.7306 33.3508 43.7538 33.382 43.775C33.4183 43.808 33.457 43.8381 33.498 43.865L51.234 54ZM16.766 32H43.235L31.986 38.428C30.7205 37.8695 29.2785 37.8695 28.013 38.428L16.766 32ZM34.739 41.426C34.739 41.412 34.726 41.399 34.721 41.385C34.6245 41.1123 34.5048 40.8483 34.363 40.596C34.338 40.55 34.312 40.506 34.285 40.461C34.1369 40.2111 33.9671 39.9745 33.778 39.754C33.769 39.744 33.763 39.731 33.754 39.721L47.266 32H51.234L34.739 41.426ZM58 28V30H2.00001V28H58ZM49 26C46.2386 26 44 23.7614 44 21C44 18.2386 46.2386 16 49 16C51.7614 16 54 18.2386 54 21C53.9968 23.76 51.7601 25.9968 49 26ZM55.831 19.49C55.803 19.362 55.769 19.236 55.731 19.111C55.706 19.024 55.684 18.936 55.656 18.85C55.613 18.718 55.564 18.59 55.513 18.461C55.484 18.387 55.458 18.311 55.426 18.237C55.362 18.088 55.29 17.944 55.216 17.801C55.19 17.752 55.169 17.701 55.142 17.652C55.038 17.4606 54.9254 17.2756 54.804 17.097C54.783 17.064 54.758 17.035 54.735 17.003C54.635 16.858 54.535 16.716 54.418 16.579C54.372 16.522 54.318 16.469 54.272 16.413C54.179 16.306 54.086 16.2 53.987 16.1C53.928 16.04 53.866 15.984 53.805 15.926C53.71 15.836 53.614 15.746 53.514 15.661C53.446 15.604 53.377 15.55 53.307 15.496C53.207 15.417 53.107 15.341 53.007 15.268C52.932 15.215 52.856 15.168 52.779 15.116C52.674 15.048 52.568 14.983 52.459 14.916C52.378 14.87 52.297 14.826 52.215 14.783C52.104 14.725 51.99 14.671 51.876 14.619C51.791 14.581 51.707 14.543 51.621 14.508C51.502 14.46 51.381 14.417 51.259 14.376C51.173 14.346 51.088 14.315 51 14.289C50.871 14.251 50.74 14.22 50.609 14.189C50.524 14.169 50.44 14.147 50.354 14.13C50.207 14.101 50.054 14.081 49.908 14.061C49.834 14.052 49.762 14.038 49.687 14.031C49.46 14.013 49.231 14 49 14C48.769 14 48.54 14.013 48.315 14.035C48.24 14.042 48.168 14.056 48.094 14.065C47.944 14.085 47.794 14.105 47.648 14.134C47.562 14.151 47.478 14.173 47.394 14.193C47.262 14.224 47.131 14.256 47.002 14.293C46.914 14.319 46.829 14.35 46.743 14.38C46.621 14.421 46.5 14.464 46.381 14.512C46.295 14.547 46.211 14.585 46.126 14.623C46.012 14.675 45.898 14.729 45.787 14.787C45.705 14.83 45.624 14.874 45.543 14.92C45.434 14.982 45.328 15.047 45.222 15.12C45.146 15.169 45.07 15.22 44.995 15.271C44.895 15.344 44.795 15.421 44.695 15.5C44.625 15.554 44.556 15.608 44.488 15.665C44.388 15.75 44.288 15.84 44.197 15.93C44.136 15.988 44.074 16.044 44.015 16.104C43.915 16.204 43.823 16.31 43.73 16.417C43.682 16.473 43.63 16.526 43.584 16.583C43.471 16.721 43.365 16.865 43.263 17.011C43.242 17.042 43.219 17.07 43.198 17.1C43.0774 17.28 42.9646 17.4654 42.86 17.656C42.833 17.704 42.812 17.756 42.786 17.805C42.712 17.948 42.64 18.092 42.576 18.241C42.544 18.315 42.518 18.391 42.489 18.465C42.438 18.594 42.389 18.722 42.346 18.854C42.318 18.94 42.296 19.027 42.271 19.114C42.236 19.24 42.202 19.366 42.171 19.495C42.151 19.587 42.135 19.681 42.118 19.775C42.104 19.851 42.085 19.926 42.074 20.004H37V10H52.838L57.316 11.493C57.7243 11.629 57.9996 12.0108 58 12.441V13H56V15H58V20H55.929C55.918 19.923 55.899 19.848 55.885 19.772C55.868 19.677 55.852 19.583 55.831 19.49Z" fill="white"/>
<path d="M49.1556 18.2921C49.1554 18.2921 49.1553 18.2921 49.1551 18.2921C47.5671 18.1911 46.1923 19.3837 46.0681 20.9701C45.9554 22.5626 47.1546 23.945 48.7471 24.0581C48.8151 24.0581 48.8851 24.0651 48.9531 24.0651C50.4679 24.0617 51.7238 22.8909 51.8331 21.3801C51.9464 19.788 50.7476 18.4055 49.1556 18.2921ZM49.839 21.2351C49.8038 21.7257 49.3788 22.0957 48.888 22.0631C48.3978 22.0285 48.0283 21.6034 48.062 21.1131C48.0965 20.6476 48.4833 20.287 48.95 20.2851C48.972 20.2851 48.992 20.2851 49.014 20.2851C49.5041 20.3197 49.8734 20.745 49.839 21.2351Z" fill="white"/>
<path d="M33 12H27V14H33V12Z" fill="white"/>
<path d="M31 42H29V44H31V42Z" fill="white"/>
</g>
<defs>
<clipPath id="clip0">
<rect width="60" height="60" fill="white"/>
</clipPath>
</defs>
</svg>
