<svg width="60" height="60" viewBox="0 0 60 60" fill="none" xmlns="http://www.w3.org/2000/svg">
<path d="M18.9013 41.3672C18.6833 41.1492 18.381 41.0237 18.0728 41.0237C17.7646 41.0237 17.4622 41.1491 17.2442 41.3672C17.0263 41.585 16.9009 41.8874 16.9009 42.1956C16.9009 42.5039 17.0263 42.8062 17.2442 43.0241C17.4622 43.242 17.7646 43.3674 18.0728 43.3674C18.381 43.3674 18.6833 43.2422 18.9013 43.0241C19.1192 42.8062 19.2446 42.5039 19.2446 42.1956C19.2446 41.8874 19.1192 41.585 18.9013 41.3672Z" fill="white"/>
<path d="M58.0339 42.6618L49.5618 34.1897C48.2974 32.9253 46.6163 32.2289 44.828 32.2289C43.0397 32.2289 41.3588 32.9253 40.0944 34.1897L37.1399 37.144C37.1398 37.1441 37.1397 37.1442 37.1396 37.1444C37.1395 37.1445 37.1394 37.1446 37.1392 37.1447L35.959 38.3248L21.6618 24.0276L25.797 19.8925C28.4071 17.2823 28.4071 13.0351 25.797 10.4249L17.3322 1.96022C14.7221 -0.649663 10.475 -0.649663 7.86475 1.96022L5.63198 4.19288C-1.87236 11.6973 -1.87236 23.9079 5.63198 31.4124L13.8646 39.645C14.3222 40.1025 15.0643 40.1025 15.522 39.645C15.9796 39.1874 15.9796 38.4454 15.522 37.9876L7.28936 29.755C1.2242 23.6899 0.741037 14.1245 5.83928 7.5012L14.7386 16.4007C14.9675 16.6294 15.2674 16.7439 15.5672 16.7439C15.8671 16.7439 16.1671 16.6294 16.3959 16.4007C16.8535 15.943 16.8536 15.201 16.3959 14.7433L7.39612 5.74338L9.52201 3.61749C11.2184 1.92131 13.9785 1.92108 15.6749 3.61749L24.1396 12.0822C25.836 13.7786 25.836 16.5387 24.1396 18.2351L19.1758 23.1988C18.9561 23.4187 18.8326 23.7167 18.8326 24.0274C18.8326 24.3382 18.9561 24.6362 19.1758 24.8561L35.1304 40.8107C35.5881 41.2684 36.3302 41.2683 36.7877 40.8107L37.9682 39.6303L52.4936 54.1556C49.5533 56.4253 45.9671 57.6557 42.1914 57.6557C37.6764 57.6557 33.4317 55.8974 30.239 52.7048L21.8892 44.3549C21.4317 43.8974 20.6895 43.8974 20.2319 44.3549C19.7743 44.8125 19.7743 45.5546 20.2319 46.0123L28.5817 54.3621C32.217 57.9974 37.0504 59.9994 42.1914 59.9994C47.3326 59.9994 52.166 57.9974 55.8012 54.3621L58.0339 52.1294C59.2983 50.865 59.9947 49.1839 59.9947 47.3956C59.9947 45.6074 59.2983 43.9264 58.0339 42.6618ZM56.3766 50.472L54.2506 52.598L39.6256 37.973L41.7516 35.847C42.5733 35.0251 43.6659 34.5726 44.828 34.5726C45.9902 34.5726 47.0827 35.0251 47.9044 35.847L56.3765 44.3192C57.1983 45.1409 57.6509 46.2335 57.6509 47.3956C57.6509 48.5577 57.1985 49.6504 56.3766 50.472Z" fill="white"/>
<path d="M19.2423 17.5898C19.0244 17.3707 18.722 17.2465 18.4138 17.2465C18.1056 17.2465 17.8033 17.3707 17.5853 17.5898C17.3673 17.8078 17.2419 18.1091 17.2419 18.4183C17.2419 18.7265 17.3673 19.0289 17.5853 19.2469C17.8033 19.4648 18.1056 19.5902 18.4138 19.5902C18.722 19.5902 19.0244 19.4648 19.2423 19.2469C19.4603 19.0289 19.5857 18.7265 19.5857 18.4183C19.5857 18.1101 19.4603 17.8078 19.2423 17.5898Z" fill="white"/>
<path d="M49.4 8.465C49.2617 6.45547 47.6419 4.83582 45.6325 4.69731C44.4928 4.61985 43.407 5.00317 42.575 5.77988C41.7546 6.5457 41.2839 7.6284 41.2839 8.75059C41.2839 9.3977 41.8086 9.92246 42.4558 9.92246C43.103 9.92246 43.6277 9.3977 43.6277 8.75059C43.6277 8.26883 43.8218 7.82223 44.1743 7.49328C44.5262 7.16469 44.9862 7.00262 45.4714 7.03567C46.3197 7.09402 47.0035 7.77793 47.0619 8.62625C47.121 9.48395 46.5588 10.2419 45.7252 10.4285C44.8125 10.6324 44.175 11.426 44.175 12.358V14.4688C44.175 15.1159 44.6996 15.6406 45.3468 15.6406C45.9941 15.6406 46.5187 15.1159 46.5187 14.4688V12.6421C48.3344 12.1005 49.5327 10.3888 49.4 8.465Z" fill="white"/>
<path d="M46.1756 17.8101C45.9576 17.5921 45.6552 17.4679 45.347 17.4679C45.0388 17.4679 44.7365 17.5922 44.5185 17.8101C44.3006 18.0292 44.1752 18.3304 44.1752 18.6398C44.1752 18.948 44.3006 19.2503 44.5185 19.4683C44.7365 19.6863 45.0388 19.8116 45.347 19.8116C45.6552 19.8116 45.9576 19.6864 46.1756 19.4683C46.3935 19.2502 46.5189 18.948 46.5189 18.6398C46.5189 18.3304 46.3935 18.0292 46.1756 17.8101Z" fill="white"/>
<path d="M54.1361 0H36.558C33.3271 0 30.6986 2.62852 30.6986 5.85938V19.2156C30.6986 22.4464 33.3271 25.075 36.558 25.075H41.0023L44.4327 29.5419C44.6546 29.8308 44.9981 30 45.3622 30C45.3629 30 45.3636 30 45.3643 30C45.7292 29.9993 46.0729 29.8287 46.2942 29.5385L49.6963 25.075H54.136C57.3669 25.075 59.9954 22.4464 59.9954 19.2156V5.85938C59.9955 2.62852 57.3671 0 54.1361 0ZM57.652 19.2156H57.6517C57.6517 21.1541 56.0746 22.7312 54.1361 22.7312H49.1163C48.7506 22.7312 48.4059 22.9018 48.1843 23.1927L45.3589 26.8996L42.5096 23.1893C42.2877 22.9004 41.9443 22.7312 41.5802 22.7312H36.5582C34.6197 22.7312 33.0426 21.1541 33.0426 19.2156V5.85938C33.0426 3.92086 34.6197 2.34375 36.5582 2.34375H54.1363C56.0749 2.34375 57.652 3.92086 57.652 5.85938V19.2156Z" fill="white"/>
</svg>
