<svg width="1366" height="268" viewBox="0 0 1366 268" fill="none" xmlns="http://www.w3.org/2000/svg">
<path opacity="0.96" d="M399 2.87405H397.5V4.37405V122.084V123.584H399H500.268H501.768V122.084V102.847V101.347H500.268H431.08V73.355H487.194H488.694V71.855V52.9237V51.4237H487.194H431.08V24.1947H497.165H498.665V22.6947V4.37405V2.87405H497.165H399ZM612.886 4.83207V3.33207H611.386H510.34H508.84V4.83207V23.6107V25.1107H510.34H544.294V121.931V123.431H545.794H576.153H577.653V121.931V25.1107H611.386H612.886V23.6107V4.83207ZM660.9 4.52672V3.02672H659.4H628.599H627.099V4.52672V122.084V123.584H628.599H659.4H660.9V122.084V4.52672ZM799.558 74.145V75.645H801.058H828.587V85.5954C828.587 91.0068 826.815 94.9774 822.623 97.6956C818.287 100.508 811.169 102.111 800.172 102.111C789.144 102.111 783.002 100.495 779.603 97.8309C776.332 95.2669 775.302 91.4745 775.302 86.0534V39.9466C775.302 34.771 776.324 30.96 779.614 28.3323C783.017 25.6136 789.163 23.8893 800.172 23.8893C812.021 23.8893 818.514 25.2856 822.058 27.7439C825.397 30.0604 826.371 33.5288 826.371 38.8779V40.3779H827.871H858.451H859.951V38.8779C859.951 32.4151 858.856 26.8265 856.481 22.0913C854.098 17.341 850.468 13.5345 845.537 10.5866C835.75 4.73603 820.828 2.26336 800.172 2.26336C779.496 2.26336 764.896 5.04553 755.436 11.0666C745.818 17.1879 741.723 26.5109 741.723 38.8779V86.0534C741.723 99.0962 745.976 108.762 755.673 115.06C765.22 121.259 779.826 124.042 800.172 124.042C820.521 124.042 835.448 121.258 845.32 115.012C855.342 108.671 859.951 98.8992 859.951 85.5954V55.0611V53.5611H858.451H801.058H799.558V55.0611V74.145ZM997.358 123.431H1000.57L998.508 120.968L962.618 78.0984C971.86 75.7702 978.777 72.3135 983.467 67.308C988.588 61.842 990.88 54.7169 990.88 45.7481V39.6412C990.88 33.2255 989.637 27.6506 987.039 22.9112C984.438 18.1649 980.527 14.3454 975.334 11.3737C965.01 5.46612 949.558 2.87405 928.886 2.87405H885.897H884.397V4.37405V121.931V123.431H885.897H916.477H917.977V121.931V82.0573H927.068L960.521 122.882L960.971 123.431H961.681H997.358ZM1189.29 4.52672V3.02672H1187.79H1157.21H1155.71V4.52672V87.1221C1155.71 99.752 1160.94 109.213 1170.87 115.435C1180.69 121.589 1194.98 124.5 1213.05 124.5C1231.12 124.5 1245.78 121.587 1255.98 115.449C1266.28 109.249 1271.94 99.7978 1271.94 87.1221V4.52672V3.02672H1270.44H1239.86H1238.36V4.52672V86.0534C1238.36 91.1874 1236.4 95.295 1232.39 98.1753C1228.32 101.107 1221.97 102.874 1213.05 102.874C1204.12 102.874 1198.2 101.104 1194.53 98.215C1190.93 95.379 1189.29 91.2859 1189.29 86.0534V4.52672ZM1300.52 2.87405H1299.02V4.37405V121.931V123.431H1300.52H1331.76H1333.26V121.931V87.4008H1343.51C1363.87 87.4008 1379.31 84.5741 1389.71 78.5136C1394.94 75.4685 1398.91 71.5979 1401.56 66.86C1404.21 62.1251 1405.5 56.6057 1405.5 50.3282V39.4886C1405.5 33.0729 1404.26 27.5066 1401.66 22.7807C1399.06 18.0476 1395.14 14.2473 1389.95 11.2952C1379.63 5.42739 1364.17 2.87405 1343.51 2.87405H1300.52ZM917.755 59.6679V25.2634H929.329C941.166 25.2634 947.715 26.7335 951.314 29.2815C954.725 31.6967 955.749 35.2964 955.749 40.7099V44.6794C955.749 49.9382 954.316 53.4731 950.576 55.8348C946.642 58.3198 939.929 59.6679 928.886 59.6679H917.755ZM1071.98 124.5C1092.33 124.5 1107.24 121.792 1117.1 115.829C1127.12 109.773 1131.76 100.464 1131.76 87.8855V38.1145C1131.76 31.7254 1130.66 26.1749 1128.29 21.455C1125.91 16.7211 1122.28 12.9066 1117.35 9.94C1107.56 4.05047 1092.64 1.5 1071.98 1.5C1051.32 1.5 1036.72 4.04847 1027.25 9.95254C1017.61 15.9662 1013.53 25.3059 1013.53 38.1145V87.8855C1013.53 100.42 1017.8 109.741 1027.5 115.817C1037.04 121.794 1051.64 124.5 1071.98 124.5ZM1071.98 102.874C1060.95 102.874 1054.81 101.259 1051.41 98.5943C1048.14 96.0302 1047.11 92.2379 1047.11 86.8168V39.1832C1047.11 34.0077 1048.13 30.1967 1051.42 27.5689C1054.82 24.8502 1060.97 23.126 1071.98 23.126C1083.78 23.126 1090.26 24.8551 1093.8 27.5849C1097.21 30.2081 1098.18 33.9964 1098.18 39.1832V86.8168C1098.18 92.1355 1096.87 95.9551 1093.26 98.5582C1089.51 101.265 1082.99 102.874 1071.98 102.874ZM1333.04 64.0954V25.1107H1343.95C1355.77 25.1107 1362.63 26.5758 1366.53 29.1552C1370.22 31.6049 1371.48 35.2337 1371.48 40.5573V49.2595C1371.48 51.8872 1371.05 54.0537 1370.15 55.8405C1369.26 57.6103 1367.87 59.0984 1365.79 60.3123C1361.56 62.7883 1354.54 64.0954 1343.51 64.0954H1333.04Z" fill="#C8C8C8" stroke="#C8C8C8" stroke-width="3"/>
<path opacity="0.96" d="M-37 144.874H-38.5V146.374V264.084V265.584H-37H64.2676H65.7676V264.084V244.847V243.347H64.2676H-4.92029V215.355H51.1937H52.6937V213.855V194.924V193.424H51.1937H-4.92029V166.195H61.1653H62.6653V164.695V146.374V144.874H61.1653H-37ZM176.886 146.832V145.332H175.386H74.3397H72.8397V146.832V165.611V167.111H74.3397H108.294V263.931V265.431H109.794H140.153H141.653V263.931V167.111H175.386H176.886V165.611V146.832ZM224.9 146.527V145.027H223.4H192.599H191.099V146.527V264.084V265.584H192.599H223.4H224.9V264.084V146.527ZM363.558 216.145V217.645H365.058H392.587V227.595C392.587 233.007 390.815 236.977 386.623 239.696C382.287 242.508 375.169 244.111 364.172 244.111C353.144 244.111 347.002 242.495 343.603 239.831C340.332 237.267 339.302 233.475 339.302 228.053V181.947C339.302 176.771 340.324 172.96 343.614 170.332C347.017 167.614 353.163 165.889 364.172 165.889C376.021 165.889 382.514 167.286 386.058 169.744C389.397 172.06 390.371 175.529 390.371 180.878V182.378H391.871H422.451H423.951V180.878C423.951 174.415 422.856 168.826 420.481 164.091C418.098 159.341 414.468 155.535 409.537 152.587C399.75 146.736 384.828 144.263 364.172 144.263C343.496 144.263 328.896 147.046 319.436 153.067C309.818 159.188 305.723 168.511 305.723 180.878V228.053C305.723 241.096 309.976 250.762 319.673 257.06C329.22 263.259 343.826 266.042 364.172 266.042C384.521 266.042 399.448 263.258 409.32 257.012C419.342 250.671 423.951 240.899 423.951 227.595V197.061V195.561H422.451H365.058H363.558V197.061V216.145ZM561.358 265.431H564.57L562.508 262.968L526.618 220.098C535.86 217.77 542.777 214.314 547.467 209.308C552.588 203.842 554.88 196.717 554.88 187.748V181.641C554.88 175.225 553.637 169.651 551.039 164.911C548.438 160.165 544.527 156.345 539.334 153.374C529.01 147.466 513.558 144.874 492.886 144.874H449.897H448.397V146.374V263.931V265.431H449.897H480.477H481.977V263.931V224.057H491.068L524.521 264.882L524.971 265.431H525.681H561.358ZM753.288 146.527V145.027H751.788H721.209H719.709V146.527V229.122C719.709 241.752 724.94 251.213 734.871 257.435C744.692 263.589 758.985 266.5 777.05 266.5C795.118 266.5 809.783 263.587 819.981 257.449C830.282 251.249 835.942 241.798 835.942 229.122V146.527V145.027H834.442H803.862H802.362V146.527V228.053C802.362 233.187 800.4 237.295 796.394 240.175C792.318 243.107 785.972 244.874 777.05 244.874C768.122 244.874 762.2 243.104 758.534 240.215C754.935 237.379 753.288 233.286 753.288 228.053V146.527ZM864.516 144.874H863.016V146.374V263.931V265.431H864.516H895.761H897.261V263.931V229.401H907.505C927.867 229.401 943.314 226.574 953.715 220.514C958.941 217.468 962.908 213.598 965.559 208.86C968.209 204.125 969.5 198.606 969.5 192.328V181.489C969.5 175.073 968.257 169.507 965.658 164.781C963.056 160.048 959.144 156.247 953.95 153.295C943.627 147.427 928.175 144.874 907.505 144.874H864.516ZM481.755 201.668V167.263H493.329C505.166 167.263 511.715 168.734 515.314 171.281C518.725 173.697 519.749 177.296 519.749 182.71V186.679C519.749 191.938 518.316 195.473 514.576 197.835C510.642 200.32 503.929 201.668 492.886 201.668H481.755ZM635.979 266.5C656.326 266.5 671.239 263.792 681.101 257.829C691.118 251.773 695.758 242.464 695.758 229.886V180.115C695.758 173.725 694.663 168.175 692.287 163.455C689.905 158.721 686.277 154.907 681.348 151.94C671.562 146.05 656.641 143.5 635.979 143.5C615.322 143.5 600.718 146.048 591.254 151.953C581.615 157.966 577.53 167.306 577.53 180.115V229.886C577.53 242.42 581.803 251.741 591.501 257.817C601.041 263.794 615.636 266.5 635.979 266.5ZM635.979 244.874C624.951 244.874 618.809 243.259 615.41 240.594C612.139 238.03 611.109 234.238 611.109 228.817V181.183C611.109 176.008 612.131 172.197 615.421 169.569C618.824 166.85 624.97 165.126 635.979 165.126C647.781 165.126 654.263 166.855 657.804 169.585C661.207 172.208 662.178 175.996 662.178 181.183V228.817C662.178 234.135 660.87 237.955 657.261 240.558C653.508 243.265 646.992 244.874 635.979 244.874ZM897.039 206.095V167.111H907.948C919.773 167.111 926.631 168.576 930.526 171.155C934.225 173.605 935.477 177.234 935.477 182.557V191.26C935.477 193.887 935.045 196.054 934.148 197.84C933.259 199.61 931.867 201.098 929.793 202.312C925.562 204.788 918.543 206.095 907.505 206.095H897.039Z" fill="#C8C8C8" stroke="#C8C8C8" stroke-width="3"/>
<path d="M1026.4 264H1046.37V259.488H1031.06V256.656C1031.06 243.552 1046.66 249.456 1046.66 236.064C1046.66 229.488 1042.77 226.512 1036.62 226.512C1030.43 226.512 1026.35 229.68 1026.35 236.88H1030.91C1030.91 232.608 1032.88 230.688 1036.43 230.688C1040.32 230.688 1042.05 232.464 1042.05 236.112C1042.05 244.992 1026.4 241.008 1026.4 256.704V264ZM1061.33 260.304C1057.25 260.304 1055.71 258.864 1055.71 253.776V237.024C1055.71 231.936 1057.87 230.976 1061.33 230.976C1064.69 230.976 1066.56 231.936 1066.56 237.024V253.776C1066.56 258.864 1064.69 260.304 1061.33 260.304ZM1061.33 264.48C1068.19 264.48 1071.12 261.408 1071.12 253.776V237.024C1071.12 229.584 1067.09 226.944 1061.33 226.944C1055.28 226.944 1051.15 229.584 1051.15 237.024V253.776C1051.15 261.408 1054.13 264.48 1061.33 264.48ZM1086.08 260.304C1082 260.304 1080.46 258.864 1080.46 253.776V237.024C1080.46 231.936 1082.62 230.976 1086.08 230.976C1089.44 230.976 1091.31 231.936 1091.31 237.024V253.776C1091.31 258.864 1089.44 260.304 1086.08 260.304ZM1086.08 264.48C1092.94 264.48 1095.87 261.408 1095.87 253.776V237.024C1095.87 229.584 1091.84 226.944 1086.08 226.944C1080.03 226.944 1075.9 229.584 1075.9 237.024V253.776C1075.9 261.408 1078.88 264.48 1086.08 264.48ZM1118.32 226.896H1112.27C1106.08 231.072 1100.8 238.08 1100.8 246.96V253.776C1100.8 261.408 1103.72 264.48 1111.31 264.48C1118.89 264.48 1121.82 261.408 1121.82 253.776V246.96C1121.82 240.144 1118.22 237.168 1112.65 237.168C1111.16 237.168 1109.53 237.264 1107.71 237.744C1109.58 234.096 1114.24 230.112 1118.41 227.232L1118.32 226.896ZM1111.31 260.112C1107.23 260.112 1105.36 258.864 1105.36 253.776V246.96C1105.36 242.304 1107.23 241.104 1111.31 241.104C1115.39 241.104 1117.26 242.304 1117.26 246.96V253.776C1117.26 258.864 1115.39 260.112 1111.31 260.112ZM1145.34 247.488H1127.29V251.664H1145.34V247.488ZM1150.43 264H1170.4V259.488H1155.09V256.656C1155.09 243.552 1170.69 249.456 1170.69 236.064C1170.69 229.488 1166.8 226.512 1160.66 226.512C1154.46 226.512 1150.38 229.68 1150.38 236.88H1154.94C1154.94 232.608 1156.91 230.688 1160.46 230.688C1164.35 230.688 1166.08 232.464 1166.08 236.112C1166.08 244.992 1150.43 241.008 1150.43 256.704V264ZM1185.36 260.304C1181.28 260.304 1179.74 258.864 1179.74 253.776V237.024C1179.74 231.936 1181.9 230.976 1185.36 230.976C1188.72 230.976 1190.59 231.936 1190.59 237.024V253.776C1190.59 258.864 1188.72 260.304 1185.36 260.304ZM1185.36 264.48C1192.22 264.48 1195.15 261.408 1195.15 253.776V237.024C1195.15 229.584 1191.12 226.944 1185.36 226.944C1179.31 226.944 1175.18 229.584 1175.18 237.024V253.776C1175.18 261.408 1178.16 264.48 1185.36 264.48ZM1199.84 264H1219.81V259.488H1204.49V256.656C1204.49 243.552 1220.09 249.456 1220.09 236.064C1220.09 229.488 1216.21 226.512 1210.06 226.512C1203.87 226.512 1199.79 229.68 1199.79 236.88H1204.35C1204.35 232.608 1206.32 230.688 1209.87 230.688C1213.76 230.688 1215.49 232.464 1215.49 236.112C1215.49 244.992 1199.84 241.008 1199.84 256.704V264ZM1223.25 264H1239.52V260.112H1233.81V226.944H1224.54V231.024H1229.25V260.112H1223.25V264Z" fill="#C61B0F"/>
</svg>
