<svg width="768" height="195" viewBox="0 0 768 195" fill="none" xmlns="http://www.w3.org/2000/svg">
<path opacity="0.96" d="M288 2.48905H286.5V3.98905V88.7179V90.2179H288H360.893H362.393V88.7179V74.8712V73.3712H360.893H311.512V54.0625H351.483H352.983V52.5625V38.9356V37.4356H351.483H311.512V18.6764H358.66H360.16V17.1764V3.98905V2.48905H358.66H288ZM442.377 4.31874V2.81874H440.877H368.143H366.643V4.31874V17.8358V19.3358H368.143H392.164V88.608V90.108H393.664H415.516H417.016V88.608V19.3358H440.877H442.377V17.8358V4.31874ZM476.939 4.09895V2.59895H475.439H453.268H451.768V4.09895V88.7179V90.2179H453.268H475.439H476.939V88.7179V4.09895ZM575.906 54.2109V55.7109H577.406H596.801V62.4531C596.801 66.2389 595.572 68.9476 592.7 70.8103C589.683 72.7667 584.661 73.9206 576.768 73.9206C568.845 73.9206 564.549 72.7544 562.221 70.9295C560.021 69.2049 559.287 66.6424 559.287 62.7827V29.5945C559.287 25.9162 560.013 23.335 562.232 21.5628C564.564 19.6996 568.864 18.4566 576.768 18.4566C585.295 18.4566 589.848 19.4679 592.282 21.1562C594.511 22.7027 595.206 25.0162 595.206 28.8253V30.3253H596.706H618.717H620.217V28.8253C620.217 24.1271 619.422 20.0356 617.676 16.5537C615.921 13.0566 613.25 10.2594 609.638 8.10014C602.489 3.82702 591.65 2.04947 576.768 2.04947C561.866 2.04947 551.255 4.05097 544.341 8.45188C537.269 12.953 534.275 19.8163 534.275 28.8253V62.7827C534.275 72.275 537.38 79.3844 544.508 84.0141C551.486 88.5457 562.103 90.5476 576.768 90.5476C591.436 90.5476 602.281 88.5443 609.491 83.9825C616.85 79.3258 620.217 72.1422 620.217 62.4531V40.4741V38.9741H618.717H577.406H575.906V40.4741V54.2109ZM718.704 90.108H721.916L719.854 87.6451L694.448 57.2972C700.824 55.6128 705.673 53.1409 709.012 49.577C712.791 45.5439 714.462 40.301 714.462 33.7705V29.3747C714.462 24.7022 713.556 20.6164 711.646 17.1303C709.731 13.6372 706.856 10.835 703.06 8.66267C695.53 4.35392 684.315 2.48905 669.417 2.48905H638.473H636.973V3.98905V88.608V90.108H638.473H660.485H661.985V88.608V60.3265H667.91L691.864 89.5587L692.314 90.108H693.024H718.704ZM857.278 4.09895V2.59895H855.778H833.767H832.267V4.09895V63.552C832.267 72.7811 836.101 79.7292 843.378 84.2882C850.545 88.7785 860.926 90.8773 873.962 90.8773C887.001 90.8773 897.646 88.7773 905.081 84.3023C912.619 79.7651 916.773 72.8269 916.773 63.552V4.09895V2.59895H915.273H893.262H891.762V4.09895V62.7827C891.762 66.3554 890.404 69.1796 887.641 71.167C884.806 73.2057 880.338 74.4701 873.962 74.4701C867.579 74.4701 863.427 73.2031 860.894 71.2067C858.428 69.2636 857.278 66.4538 857.278 62.7827V4.09895ZM936.921 2.48905H935.421V3.98905V88.608V90.108H936.921H959.411H960.911V88.608V64.1728H967.865C982.545 64.1728 993.755 62.1375 1001.34 57.7186C1005.16 55.4943 1008.07 52.657 1010.02 49.1723C1011.97 45.6907 1012.91 41.6445 1012.91 37.0674V29.2648C1012.91 24.5923 1012 20.5126 1010.09 17.0358C1008.18 13.552 1005.3 10.7636 1001.5 8.60557C993.975 4.32588 982.76 2.48905 967.865 2.48905H936.921ZM661.826 43.3699V19.4457H669.736C678.252 19.4457 682.845 20.5095 685.318 22.2607C687.605 23.8792 688.334 26.2918 688.334 30.144V33.0013C688.334 36.6987 687.335 39.0786 684.806 40.6757C682.082 42.3961 677.356 43.3699 669.417 43.3699H661.826ZM772.417 90.8773C787.083 90.8773 797.914 88.9288 805.114 84.5755C812.47 80.1283 815.867 73.2794 815.867 64.1015V28.2758C815.867 23.6298 815.071 19.5658 813.324 16.0952C811.571 12.6105 808.901 9.8079 805.291 7.63539C798.144 3.33395 787.305 1.5 772.417 1.5C757.534 1.5 746.92 3.33195 740.002 7.64793C732.908 12.0735 729.925 18.9535 729.925 28.2758V64.1015C729.925 73.2356 733.049 80.0961 740.179 84.563C747.15 88.9306 757.756 90.8773 772.417 90.8773ZM772.417 74.4701C764.494 74.4701 760.199 73.3038 757.871 71.479C755.671 69.7544 754.936 67.1919 754.936 63.3322V29.0451C754.936 25.3667 755.663 22.7856 757.882 21.0134C760.214 19.1502 764.513 17.9072 772.417 17.9072C780.897 17.9072 785.439 19.1551 787.871 21.0294C790.164 22.7969 790.855 25.3555 790.855 29.0451V63.3322C790.855 67.0895 789.936 69.6793 787.49 71.4429C784.902 73.3097 780.326 74.4701 772.417 74.4701ZM960.752 46.5568V19.3358H968.184C976.686 19.3358 981.512 20.3945 984.203 22.1772C986.699 23.8302 987.579 26.2719 987.579 30.0341V36.2981C987.579 38.1451 987.275 39.6352 986.667 40.8465C986.067 42.0408 985.126 43.0544 983.696 43.8912C980.753 45.6134 975.798 46.5568 967.865 46.5568H960.752Z" fill="#C8C8C8" stroke="#C8C8C8" stroke-width="3"/>
<path opacity="0.96" d="M-276 104.704H-277.5V106.204V190.933V192.433H-276H-203.107H-201.607V190.933V177.086V175.586H-203.107H-252.488V156.277H-212.517H-211.017V154.777V141.15V139.65H-212.517H-252.488V120.891H-205.34H-203.84V119.391V106.204V104.704H-205.34H-276ZM-121.623 106.534V105.034H-123.123H-195.857H-197.357V106.534V120.051V121.551H-195.857H-171.836V190.823V192.323H-170.336H-148.484H-146.984V190.823V121.551H-123.123H-121.623V120.051V106.534ZM-87.0612 106.314V104.814H-88.5612H-110.732H-112.232V106.314V190.933V192.433H-110.732H-88.5612H-87.0612V190.933V106.314ZM11.9057 156.426V157.926H13.4057H32.8008V164.668C32.8008 168.454 31.5721 171.162 28.6996 173.025C25.6826 174.982 20.6606 176.135 12.7677 176.135C4.84457 176.135 0.549286 174.969 -1.77884 173.144C-3.979 171.42 -4.71332 168.857 -4.71332 164.998V131.809C-4.71332 128.131 -3.98657 125.55 -1.76801 123.778C0.564453 121.914 4.86365 120.671 12.7677 120.671C21.2949 120.671 25.8484 121.683 28.2818 123.371C30.5109 124.918 31.2057 127.231 31.2057 131.04V132.54H32.7057H54.7173H56.2173V131.04C56.2173 126.342 55.4221 122.25 53.6755 118.769C51.9214 115.271 49.2497 112.474 45.6376 110.315C38.4894 106.042 27.6496 104.264 12.7677 104.264C-2.13364 104.264 -12.7448 106.266 -19.6594 110.667C-26.7315 115.168 -29.7249 122.031 -29.7249 131.04V164.998C-29.7249 174.49 -26.6204 181.599 -19.4916 186.229C-12.5137 190.761 -1.89676 192.762 12.7677 192.762C27.4357 192.762 38.2808 190.759 45.4906 186.197C52.8502 181.541 56.2173 174.357 56.2173 164.668V142.689V141.189H54.7173H13.4057H11.9057V142.689V156.426ZM154.704 192.323H157.916L155.854 189.86L130.448 159.512C136.824 157.828 141.673 155.356 145.012 151.792C148.791 147.759 150.462 142.516 150.462 135.985V131.59C150.462 126.917 149.556 122.831 147.646 119.345C145.731 115.852 142.856 113.05 139.06 110.878C131.53 106.569 120.315 104.704 105.417 104.704H74.4734H72.9734V106.204V190.823V192.323H74.4734H96.485H97.985V190.823V162.541H103.91L127.864 191.774L128.314 192.323H129.024H154.704ZM293.278 106.314V104.814H291.778H269.767H268.267V106.314V165.767C268.267 174.996 272.101 181.944 279.378 186.503C286.545 190.993 296.926 193.092 309.962 193.092C323.001 193.092 333.646 190.992 341.081 186.517C348.619 181.98 352.773 175.042 352.773 165.767V106.314V104.814H351.273H329.262H327.762V106.314V164.998C327.762 168.57 326.404 171.394 323.641 173.382C320.806 175.421 316.338 176.685 309.962 176.685C303.579 176.685 299.427 175.418 296.894 173.422C294.428 171.478 293.278 168.669 293.278 164.998V106.314ZM372.921 104.704H371.421V106.204V190.823V192.323H372.921H395.411H396.911V190.823V166.388H403.865C418.545 166.388 429.755 164.352 437.339 159.933C441.156 157.709 444.069 154.872 446.019 151.387C447.968 147.906 448.91 143.859 448.91 139.282V131.48C448.91 126.807 448.004 122.727 446.092 119.251C444.177 115.767 441.301 112.978 437.504 110.82C429.975 106.541 418.76 104.704 403.865 104.704H372.921ZM97.8256 145.585V121.661H105.736C114.252 121.661 118.845 122.724 121.318 124.476C123.605 126.094 124.334 128.507 124.334 132.359V135.216C124.334 138.914 123.335 141.293 120.806 142.891C118.082 144.611 113.356 145.585 105.417 145.585H97.8256ZM208.417 193.092C223.083 193.092 233.914 191.144 241.114 186.79C248.47 182.343 251.867 175.494 251.867 166.316V130.491C251.867 125.845 251.071 121.781 249.324 118.31C247.571 114.825 244.901 112.023 241.291 109.85C234.144 105.549 223.305 103.715 208.417 103.715C193.534 103.715 182.92 105.547 176.002 109.863C168.908 114.288 165.925 121.168 165.925 130.491V166.316C165.925 175.45 169.049 182.311 176.179 186.778C183.15 191.145 193.756 193.092 208.417 193.092ZM208.417 176.685C200.494 176.685 196.199 175.519 193.871 173.694C191.671 171.969 190.936 169.407 190.936 165.547V131.26C190.936 127.582 191.663 125 193.882 123.228C196.214 121.365 200.513 120.122 208.417 120.122C216.897 120.122 221.439 121.37 223.871 123.244C226.164 125.012 226.855 127.57 226.855 131.26V165.547C226.855 169.304 225.936 171.894 223.49 173.658C220.902 175.525 216.326 176.685 208.417 176.685ZM396.752 148.772V121.551H404.184C412.686 121.551 417.512 122.609 420.203 124.392C422.699 126.045 423.579 128.487 423.579 132.249V138.513C423.579 140.36 423.275 141.85 422.667 143.061C422.067 144.256 421.126 145.269 419.696 146.106C416.753 147.828 411.798 148.772 403.865 148.772H396.752Z" fill="#C8C8C8" stroke="#C8C8C8" stroke-width="3"/>
<path d="M481.9 194H497.708V190.428H485.586V188.186C485.586 177.812 497.936 182.486 497.936 171.884C497.936 166.678 494.858 164.322 489.994 164.322C485.092 164.322 481.862 166.83 481.862 172.53H485.472C485.472 169.148 487.03 167.628 489.842 167.628C492.92 167.628 494.288 169.034 494.288 171.922C494.288 178.952 481.9 175.798 481.9 188.224V194ZM509.552 191.074C506.322 191.074 505.106 189.934 505.106 185.906V172.644C505.106 168.616 506.816 167.856 509.552 167.856C512.212 167.856 513.694 168.616 513.694 172.644V185.906C513.694 189.934 512.212 191.074 509.552 191.074ZM509.552 194.38C514.986 194.38 517.304 191.948 517.304 185.906V172.644C517.304 166.754 514.112 164.664 509.552 164.664C504.764 164.664 501.496 166.754 501.496 172.644V185.906C501.496 191.948 503.852 194.38 509.552 194.38ZM529.145 191.074C525.915 191.074 524.699 189.934 524.699 185.906V172.644C524.699 168.616 526.409 167.856 529.145 167.856C531.805 167.856 533.287 168.616 533.287 172.644V185.906C533.287 189.934 531.805 191.074 529.145 191.074ZM529.145 194.38C534.579 194.38 536.897 191.948 536.897 185.906V172.644C536.897 166.754 533.705 164.664 529.145 164.664C524.357 164.664 521.089 166.754 521.089 172.644V185.906C521.089 191.948 523.445 194.38 529.145 194.38ZM554.667 164.626H549.879C544.977 167.932 540.797 173.48 540.797 180.51V185.906C540.797 191.948 543.115 194.38 549.119 194.38C555.123 194.38 557.441 191.948 557.441 185.906V180.51C557.441 175.114 554.591 172.758 550.183 172.758C549.005 172.758 547.713 172.834 546.269 173.214C547.751 170.326 551.437 167.172 554.743 164.892L554.667 164.626ZM549.119 190.922C545.889 190.922 544.407 189.934 544.407 185.906V180.51C544.407 176.824 545.889 175.874 549.119 175.874C552.349 175.874 553.831 176.824 553.831 180.51V185.906C553.831 189.934 552.349 190.922 549.119 190.922ZM576.057 180.928H561.769V184.234H576.057V180.928ZM580.091 194H595.899V190.428H583.777V188.186C583.777 177.812 596.127 182.486 596.127 171.884C596.127 166.678 593.049 164.322 588.185 164.322C583.283 164.322 580.053 166.83 580.053 172.53H583.663C583.663 169.148 585.221 167.628 588.033 167.628C591.111 167.628 592.479 169.034 592.479 171.922C592.479 178.952 580.091 175.798 580.091 188.224V194ZM607.743 191.074C604.513 191.074 603.297 189.934 603.297 185.906V172.644C603.297 168.616 605.007 167.856 607.743 167.856C610.403 167.856 611.885 168.616 611.885 172.644V185.906C611.885 189.934 610.403 191.074 607.743 191.074ZM607.743 194.38C613.177 194.38 615.495 191.948 615.495 185.906V172.644C615.495 166.754 612.303 164.664 607.743 164.664C602.955 164.664 599.687 166.754 599.687 172.644V185.906C599.687 191.948 602.043 194.38 607.743 194.38ZM619.205 194H635.013V190.428H622.891V188.186C622.891 177.812 635.241 182.486 635.241 171.884C635.241 166.678 632.163 164.322 627.299 164.322C622.397 164.322 619.167 166.83 619.167 172.53H622.777C622.777 169.148 624.335 167.628 627.147 167.628C630.225 167.628 631.593 169.034 631.593 171.922C631.593 178.952 619.205 175.798 619.205 188.224V194ZM637.736 194H650.618V190.922H646.096V164.664H638.762V167.894H642.486V190.922H637.736V194Z" fill="#C61B0F"/>
</svg>
