<svg width="360" height="139" viewBox="0 0 360 139" fill="none" xmlns="http://www.w3.org/2000/svg">
<g opacity="0.96">
<path d="M-269.273 78.659V136.448H-219.593V127.004H-254.271V111.788H-226.007V102.494H-254.271V87.6533H-221.115V78.659H-269.273Z" fill="#C8C8C8"/>
<path d="M-165.08 78.8838H-214.652V88.103H-197.258V136.373H-182.365V88.103H-165.08V78.8838Z" fill="#C8C8C8"/>
<path d="M-141.524 78.7339H-156.635V136.448H-141.524V78.7339Z" fill="#C8C8C8"/>
<path d="M-72.0289 112.912H-57.7878V118.534C-57.7878 124.23 -61.5927 127.378 -72.4637 127.378C-83.3347 127.378 -85.4002 124.23 -85.4002 118.759V96.123C-85.4002 90.8763 -83.3347 87.5034 -72.4637 87.5034C-60.8317 87.5034 -58.8749 90.2017 -58.8749 95.5983H-43.873C-43.873 83.2311 -52.2436 78.3591 -72.4637 78.3591C-92.6838 78.3591 -100.402 83.8307 -100.402 95.5983V118.759C-100.402 131.201 -92.3577 136.672 -72.4637 136.672C-52.5697 136.672 -43.873 131.201 -43.873 118.534V103.543H-72.0289V112.912Z" fill="#C8C8C8"/>
<path d="M24.2731 136.373L5.90106 114.411C16.0111 112.163 20.3596 107.516 20.3596 98.9712V95.9731C20.3596 83.7557 10.9018 78.659 -9.31836 78.659H-30.4082V136.373H-15.4061V116.06H-9.86191L6.77078 136.373H24.2731ZM-15.5148 106.541V88.178H-9.10092C2.53107 88.178 4.59656 91.0262 4.59656 96.4977V98.4465C4.59656 103.918 1.55267 106.541 -9.31836 106.541H-15.5148Z" fill="#C8C8C8"/>
<path d="M60.8813 136.897C80.7753 136.897 89.4721 131.576 89.4721 119.658V95.2235C89.4721 83.0062 81.1014 77.9844 60.8813 77.9844C40.6612 77.9844 32.9427 83.0062 32.9427 95.2235V119.658C32.9427 131.576 40.9873 136.897 60.8813 136.897ZM60.8813 127.753C50.0103 127.753 47.9448 124.605 47.9448 119.134V95.7482C47.9448 90.5015 50.0103 87.1286 60.8813 87.1286C72.5133 87.1286 74.4701 90.5015 74.4701 95.7482V119.134C74.4701 124.605 71.7523 127.753 60.8813 127.753Z" fill="#C8C8C8"/>
<path d="M143.243 118.759C143.243 124.23 139.003 127.753 130.089 127.753C121.175 127.753 117.696 124.23 117.696 118.759V78.7339H102.694V119.283C102.694 131.201 112.478 136.897 130.089 136.897C147.7 136.897 158.245 131.201 158.245 119.283V78.7339H143.243V118.759Z" fill="#C8C8C8"/>
<path d="M172.999 78.659V136.373H188.327V118.684H194.089C213.983 118.684 223.767 113.137 223.767 101.22V95.8981C223.767 83.6808 214.309 78.659 194.089 78.659H172.999ZM188.218 108.715V88.103H194.306C205.938 88.103 208.547 90.9512 208.547 96.4228V100.695C208.547 106.167 204.96 108.715 194.089 108.715H188.218Z" fill="#C8C8C8"/>
</g>
<path opacity="0.96" fill-rule="evenodd" clip-rule="evenodd" d="M-270.375 77.5535H-220.009V88.7571H-253.165V101.389H-224.901V112.892H-253.165V125.898H-218.487V137.551H-270.375V77.5535ZM-219.591 127.003V136.447H-269.271V78.6581H-221.113V87.6524H-254.269V102.493H-226.005V111.787H-254.269V127.003H-219.591ZM-163.974 77.7783V89.2068H-181.259V137.476H-198.36V89.2068H-215.753V77.7783H-163.974ZM-214.649 88.1022V78.883H-165.077V88.1022H-182.362V136.372H-197.256V88.1022H-214.649ZM-140.418 77.6284V137.551H-157.737V77.6284H-140.418ZM-73.1305 114.016V102.438H-42.7669V118.533C-42.7669 125.163 -45.0714 130.092 -50.1156 133.286C-55.0496 136.41 -62.4605 137.776 -72.4614 137.776C-82.4598 137.776 -89.7158 136.411 -94.4922 133.307C-99.3796 130.131 -101.504 125.252 -101.504 118.758V95.5975C-101.504 89.4322 -99.4548 84.7215 -94.6059 81.6331C-89.8729 78.6186 -82.6211 77.2537 -72.4614 77.2537C-62.3161 77.2537 -54.9091 78.4656 -50.0171 81.392C-47.5432 82.872 -45.711 84.7909 -44.5079 87.1911C-43.3103 89.5802 -42.7669 92.3841 -42.7669 95.5975V96.7021H-59.9765V95.5975C-59.9765 93.0075 -60.4489 91.4652 -61.9343 90.4338C-63.5701 89.2981 -66.6501 88.6072 -72.4614 88.6072C-77.8446 88.6072 -80.7505 89.4553 -82.3174 90.7079C-83.8005 91.8935 -84.2942 93.6225 -84.2942 96.1221V118.758C-84.2942 121.382 -83.795 123.097 -82.3254 124.25C-80.7617 125.477 -77.8586 126.273 -72.4614 126.273C-67.0865 126.273 -63.6834 125.486 -61.6474 124.165C-59.7177 122.912 -58.8894 121.094 -58.8894 118.533V114.016H-73.1305ZM-58.8727 95.5975C-58.8727 90.2008 -60.8294 87.5025 -72.4614 87.5025C-83.3325 87.5025 -85.398 90.8754 -85.398 96.1221V118.758C-85.398 124.229 -83.3325 127.377 -72.4614 127.377C-61.5904 127.377 -57.7856 124.229 -57.7856 118.533V112.912H-72.0266V103.542H-43.8707V118.533C-43.8707 131.2 -52.5675 136.672 -72.4614 136.672C-92.3554 136.672 -100.4 131.2 -100.4 118.758V95.5975C-100.4 83.8299 -92.6815 78.3583 -72.4614 78.3583C-52.8546 78.3583 -44.3893 82.9392 -43.8939 94.4928C-43.8784 94.8542 -43.8707 95.2224 -43.8707 95.5975H-58.8727ZM26.639 137.476H6.25046L-10.3822 117.164H-14.3V137.476H-31.5097V77.5535H-9.3161C0.841064 77.5535 8.50262 78.8252 13.6536 81.7749C16.2523 83.263 18.2231 85.1845 19.5361 87.5818C20.8462 89.974 21.4656 92.7747 21.4656 95.9722V98.9703C21.4656 103.439 20.3226 107.037 17.7293 109.807C15.4612 112.229 12.1813 113.912 7.88818 115.062L26.639 137.476ZM5.90332 114.411C6.31305 114.32 6.71335 114.224 7.10422 114.125C16.3587 111.779 20.3618 107.169 20.3618 98.9703V95.9722C20.3618 83.7549 10.904 78.6581 -9.3161 78.6581H-30.4059V136.372H-15.4039V116.06H-9.85965L6.77304 136.372H24.2754L5.90332 114.411ZM118.802 77.6284V118.758C118.802 121.243 119.579 123.133 121.235 124.439C122.941 125.785 125.75 126.648 130.091 126.648C134.428 126.648 137.454 125.787 139.367 124.41C141.227 123.071 142.141 121.171 142.141 118.758V77.6284H159.351V119.283C159.351 125.638 156.504 130.396 151.343 133.505C146.257 136.568 138.984 138.001 130.091 138.001C121.2 138.001 114.107 136.569 109.204 133.495C104.219 130.37 101.592 125.604 101.592 119.283V77.6284H118.802ZM171.897 77.5535H194.091C204.246 77.5535 211.907 78.8061 217.058 81.7359C219.657 83.2142 221.629 85.1262 222.942 87.5173C224.253 89.9031 224.873 92.6999 224.873 95.8973V101.219C224.873 104.352 224.229 107.126 222.892 109.515C221.555 111.906 219.558 113.851 216.946 115.374C211.758 118.399 204.101 119.788 194.091 119.788H189.433V137.476H171.897V77.5535ZM188.329 136.372H173.001V78.6581H194.091C214.311 78.6581 223.769 83.6799 223.769 95.8973V101.219C223.769 113.136 213.985 118.683 194.091 118.683H188.329V136.372ZM-156.633 78.7331H-141.522V136.447H-156.633V78.7331ZM-14.4088 89.2817V105.436H-9.3161C-3.90762 105.436 -0.707031 104.771 1.12857 103.611C2.82047 102.542 3.495 100.95 3.495 98.4457V96.4969C3.495 93.8782 2.99945 92.2673 1.47424 91.1867C-0.188934 90.0083 -3.29599 89.2817 -9.09866 89.2817H-14.4088ZM83.2103 133.691C78.2833 136.672 70.8831 138.001 60.8835 138.001C50.8873 138.001 43.6394 136.674 38.868 133.682C33.9801 130.617 31.8412 125.909 31.8412 119.657V95.2227C31.8412 88.8446 33.8826 84.1216 38.7475 81.0844C43.4831 78.1279 50.7375 76.8789 60.8835 76.8789C71.0334 76.8789 78.4395 78.1294 83.3307 81.0752C85.8029 82.5641 87.6338 84.4867 88.8365 86.8783C90.034 89.2597 90.5782 92.0448 90.5782 95.2227V119.657C90.5782 125.941 88.2515 130.641 83.2103 133.691ZM51.0196 124.625C52.5833 125.852 55.4863 126.648 60.8835 126.648C66.2702 126.648 69.3664 125.856 71.1089 124.598C72.7461 123.417 73.3685 121.681 73.3685 119.133V95.7474C73.3685 93.2394 72.8984 91.5271 71.366 90.3449C69.7318 89.0842 66.6602 88.2324 60.8835 88.2324C55.5004 88.2324 52.5945 89.0805 51.0276 90.3331C49.5445 91.5187 49.0508 93.2477 49.0508 95.7474V119.133C49.0508 121.757 49.55 123.472 51.0196 124.625ZM143.245 118.758C143.245 124.229 139.005 127.752 130.091 127.752C121.177 127.752 117.698 124.229 117.698 118.758V78.7331H102.696V119.283C102.696 131.2 112.48 136.896 130.091 136.896C147.702 136.896 158.247 131.2 158.247 119.283V78.7331H143.245V118.758ZM189.324 89.2068V107.61H194.091C199.496 107.61 202.854 106.966 204.839 105.803C205.802 105.239 206.432 104.559 206.833 103.76C207.24 102.948 207.446 101.945 207.446 100.694V96.4219C207.446 93.8695 206.85 92.2372 205.181 91.1312C203.369 89.9297 200.102 89.2068 194.308 89.2068H189.324ZM89.4744 119.657C89.4744 131.575 80.7775 136.896 60.8835 136.896C40.9896 136.896 32.945 131.575 32.945 119.657V95.2227C32.945 83.0054 40.6635 77.9835 60.8835 77.9835C81.1037 77.9835 89.4744 83.0054 89.4744 95.2227V119.657ZM47.947 119.133C47.947 124.604 50.0125 127.752 60.8835 127.752C71.7546 127.752 74.4724 124.604 74.4724 119.133V95.7474C74.4724 90.5007 72.5155 87.1278 60.8835 87.1278C50.0125 87.1278 47.947 90.5007 47.947 95.7474V119.133ZM-15.5126 88.1771H-9.09866C2.53333 88.1771 4.59882 91.0253 4.59882 96.4969V98.4457C4.59882 103.917 1.55493 106.541 -9.3161 106.541H-15.5126V88.1771ZM188.221 108.714H194.091C204.962 108.714 208.549 106.166 208.549 100.694V96.4219C208.549 90.9504 205.94 88.1022 194.308 88.1022H188.221V108.714Z" fill="#C8C8C8"/>
<path d="M254.12 135.191H268.174V132.033H257.397V130.051C257.397 120.88 268.377 125.012 268.377 115.639C268.377 111.036 265.64 108.953 261.316 108.953C256.958 108.953 254.086 111.17 254.086 116.21H257.295C257.295 113.22 258.681 111.876 261.181 111.876C263.917 111.876 265.133 113.119 265.133 115.672C265.133 121.887 254.12 119.099 254.12 130.085V135.191Z" fill="#C61B0F"/>
<path d="M278.704 132.604C275.832 132.604 274.751 131.596 274.751 128.035V116.311C274.751 112.749 276.271 112.078 278.704 112.078C281.069 112.078 282.386 112.749 282.386 116.311V128.035C282.386 131.596 281.069 132.604 278.704 132.604ZM278.704 135.527C283.535 135.527 285.596 133.377 285.596 128.035V116.311C285.596 111.103 282.758 109.255 278.704 109.255C274.447 109.255 271.541 111.103 271.541 116.311V128.035C271.541 133.377 273.636 135.527 278.704 135.527Z" fill="#C61B0F"/>
<path d="M296.124 132.604C293.252 132.604 292.171 131.596 292.171 128.035V116.311C292.171 112.749 293.691 112.078 296.124 112.078C298.489 112.078 299.806 112.749 299.806 116.311V128.035C299.806 131.596 298.489 132.604 296.124 132.604ZM296.124 135.527C300.955 135.527 303.016 133.377 303.016 128.035V116.311C303.016 111.103 300.178 109.255 296.124 109.255C291.867 109.255 288.961 111.103 288.961 116.311V128.035C288.961 133.377 291.056 135.527 296.124 135.527Z" fill="#C61B0F"/>
<path d="M318.814 109.222H314.557C310.199 112.145 306.483 117.05 306.483 123.265V128.035C306.483 133.377 308.544 135.527 313.882 135.527C319.22 135.527 321.28 133.377 321.28 128.035V123.265C321.28 118.494 318.747 116.411 314.828 116.411C313.78 116.411 312.632 116.479 311.348 116.814C312.665 114.261 315.942 111.473 318.882 109.457L318.814 109.222ZM313.882 132.47C311.01 132.47 309.692 131.596 309.692 128.035V123.265C309.692 120.006 311.01 119.166 313.882 119.166C316.753 119.166 318.071 120.006 318.071 123.265V128.035C318.071 131.596 316.753 132.47 313.882 132.47Z" fill="#C61B0F"/>
<path d="M337.831 123.634H325.128V126.557H337.831V123.634Z" fill="#C61B0F"/>
<path d="M341.418 135.191H355.472V132.033H344.695V130.051C344.695 120.88 355.675 125.012 355.675 115.639C355.675 111.036 352.938 108.953 348.614 108.953C344.256 108.953 341.384 111.17 341.384 116.21H344.594C344.594 113.22 345.979 111.876 348.479 111.876C351.215 111.876 352.432 113.119 352.432 115.672C352.432 121.887 341.418 119.099 341.418 130.085V135.191Z" fill="#C61B0F"/>
<path d="M366.002 132.604C363.13 132.604 362.049 131.596 362.049 128.035V116.311C362.049 112.749 363.569 112.078 366.002 112.078C368.367 112.078 369.684 112.749 369.684 116.311V128.035C369.684 131.596 368.367 132.604 366.002 132.604ZM366.002 135.527C370.833 135.527 372.894 133.377 372.894 128.035V116.311C372.894 111.103 370.056 109.255 366.002 109.255C361.745 109.255 358.84 111.103 358.84 116.311V128.035C358.84 133.377 360.934 135.527 366.002 135.527Z" fill="#C61B0F"/>
<path d="M376.192 135.191H390.246V132.033H379.469V130.051C379.469 120.88 390.449 125.012 390.449 115.639C390.449 111.036 387.713 108.953 383.388 108.953C379.03 108.953 376.158 111.17 376.158 116.21H379.368C379.368 113.22 380.753 111.876 383.253 111.876C385.99 111.876 387.206 113.119 387.206 115.672C387.206 121.887 376.192 119.099 376.192 130.085V135.191Z" fill="#C61B0F"/>
<path d="M392.668 135.191H404.121V132.47H400.1V109.255H393.58V112.111H396.891V132.47H392.668V135.191Z" fill="#C61B0F"/>
<g opacity="0.96">
<path d="M106.473 1.78005V59.5687H156.153V50.1247H121.475V34.9092H149.739V25.6151H121.475V10.7744H154.631V1.78005H106.473Z" fill="#C8C8C8"/>
<path d="M210.666 2.00491H161.094V11.2241H178.488V59.4938H193.381V11.2241H210.666V2.00491Z" fill="#C8C8C8"/>
<path d="M234.222 1.855H219.111V59.5687H234.222V1.855Z" fill="#C8C8C8"/>
<path d="M303.717 36.0335H317.958V41.655C317.958 47.3514 314.153 50.4994 303.282 50.4994C292.411 50.4994 290.346 47.3514 290.346 41.8798V19.2441C290.346 13.9974 292.411 10.6245 303.282 10.6245C314.914 10.6245 316.871 13.3228 316.871 18.7194H331.873C331.873 6.35217 323.503 1.48023 303.282 1.48023C283.062 1.48023 275.344 6.95179 275.344 18.7194V41.8798C275.344 54.322 283.388 59.7936 303.282 59.7936C323.176 59.7936 331.873 54.322 331.873 41.655V26.6644H303.717V36.0335Z" fill="#C8C8C8"/>
<path d="M400.019 59.4938L381.647 37.5326C391.757 35.284 396.106 30.6369 396.106 22.0923V19.0942C396.106 6.87684 386.648 1.78005 366.428 1.78005H345.338V59.4938H360.34V39.1815H365.884L382.517 59.4938H400.019ZM360.231 29.6625V11.2991H366.645C378.277 11.2991 380.343 14.1473 380.343 19.6188V21.5676C380.343 27.0392 377.299 29.6625 366.428 29.6625H360.231Z" fill="#C8C8C8"/>
<path d="M436.627 60.0184C456.521 60.0184 465.218 54.6968 465.218 42.7793V18.3446C465.218 6.12732 456.847 1.10547 436.627 1.10547C416.407 1.10547 408.689 6.12732 408.689 18.3446V42.7793C408.689 54.6968 416.733 60.0184 436.627 60.0184ZM436.627 50.8742C425.756 50.8742 423.691 47.7262 423.691 42.2546V18.8693C423.691 13.6226 425.756 10.2497 436.627 10.2497C448.259 10.2497 450.216 13.6226 450.216 18.8693V42.2546C450.216 47.7262 447.498 50.8742 436.627 50.8742Z" fill="#C8C8C8"/>
<path d="M518.989 41.8798C518.989 47.3514 514.749 50.8742 505.835 50.8742C496.921 50.8742 493.442 47.3514 493.442 41.8798V1.855H478.44V42.4045C478.44 54.322 488.224 60.0184 505.835 60.0184C523.446 60.0184 533.991 54.322 533.991 42.4045V1.855H518.989V41.8798Z" fill="#C8C8C8"/>
<path d="M548.745 1.78005V59.4938H564.073V41.8049H569.835C589.729 41.8049 599.513 36.2584 599.513 24.3409V19.0192C599.513 6.80189 590.055 1.78005 569.835 1.78005H548.745ZM563.964 31.8362V11.2241H570.052C581.684 11.2241 584.293 14.0723 584.293 19.5439V23.8162C584.293 29.2878 580.706 31.8362 569.835 31.8362H563.964Z" fill="#C8C8C8"/>
</g>
<path opacity="0.96" fill-rule="evenodd" clip-rule="evenodd" d="M105.375 0.674576H155.741V11.8782H122.585V24.5096H150.849V36.013H122.585V49.0192H157.263V60.6725H105.375V0.674576ZM156.159 50.1238V59.5679H106.479V1.77919H154.637V10.7735H121.481V25.6142H149.745V34.9084H121.481V50.1238H156.159ZM211.776 0.899437V12.3279H194.491V60.5975H177.39V12.3279H159.997V0.899437H211.776ZM161.101 11.2233V2.00406H210.673V11.2233H193.388V59.4929H178.494V11.2233H161.101ZM235.332 0.749529V60.6725H218.013V0.749529H235.332ZM302.62 37.1373V25.5589H332.983V41.6541C332.983 48.2845 330.679 53.2131 325.634 56.407C320.7 59.5312 313.29 60.8974 303.289 60.8974C293.29 60.8974 286.034 59.5322 281.258 56.4281C276.37 53.2518 274.246 48.3733 274.246 41.879V18.7185C274.246 12.5533 276.295 7.8426 281.144 4.75423C285.877 1.73965 293.129 0.374764 303.289 0.374764C313.434 0.374764 320.841 1.58668 325.733 4.51313C328.207 5.99307 330.039 7.91199 331.242 10.3122C332.44 12.7013 332.983 15.5052 332.983 18.7185V19.8232H315.773V18.7185C315.773 16.1286 315.301 14.5863 313.816 13.5549C312.18 12.4192 309.1 11.7283 303.289 11.7283C297.905 11.7283 294.999 12.5764 293.433 13.829C291.949 15.0146 291.456 16.7436 291.456 19.2432V41.879C291.456 44.5032 291.955 46.2185 293.425 47.3713C294.988 48.5978 297.891 49.394 303.289 49.394C308.664 49.394 312.067 48.6069 314.103 47.2857C316.032 46.0335 316.861 44.215 316.861 41.6541V37.1373H302.62ZM316.877 18.7185C316.877 13.3219 314.921 10.6236 303.289 10.6236C292.418 10.6236 290.352 13.9965 290.352 19.2432V41.879C290.352 47.3506 292.418 50.4986 303.289 50.4986C314.16 50.4986 317.964 47.3506 317.964 41.6541V36.0327H303.723V26.6636H331.879V41.6541C331.879 54.3212 323.183 59.7927 303.289 59.7927C283.395 59.7927 275.35 54.3212 275.35 41.879V18.7185C275.35 6.95094 283.068 1.47938 303.289 1.47938C322.895 1.47938 331.361 6.06029 331.856 17.6139C331.872 17.9753 331.879 18.3435 331.879 18.7185H316.877ZM402.389 60.5975H382L365.368 40.2853H361.45V60.5975H344.24V0.674576H366.434C376.591 0.674576 384.253 1.94631 389.404 4.89601C392.002 6.38411 393.973 8.30559 395.286 10.7029C396.596 13.0951 397.216 15.8958 397.216 19.0933V22.0914C397.216 26.56 396.073 30.158 393.479 32.9278C391.211 35.3505 387.931 37.0331 383.638 38.1835L402.389 60.5975ZM381.653 37.5317C382.063 37.4406 382.463 37.3455 382.854 37.2464C392.109 34.9001 396.112 30.2898 396.112 22.0914V19.0933C396.112 6.87599 386.654 1.77919 366.434 1.77919H345.344V59.4929H360.346V39.1807H365.89L382.523 59.4929H400.025L381.653 37.5317ZM494.552 0.749529V41.879C494.552 44.3643 495.329 46.2542 496.985 47.5604C498.691 48.9059 501.5 49.7687 505.841 49.7687C510.178 49.7687 513.204 48.9078 515.117 47.5312C516.977 46.1924 517.891 44.2919 517.891 41.879V0.749529H535.101V42.4037C535.101 48.7588 532.254 53.5171 527.093 56.6261C522.007 59.6893 514.734 61.1222 505.841 61.1222C496.95 61.1222 489.857 59.6902 484.954 56.6158C479.969 53.4907 477.342 48.7251 477.342 42.4037V0.749529H494.552ZM547.647 0.674576H569.841C579.996 0.674576 587.657 1.92716 592.808 4.85696C595.407 6.33526 597.379 8.24728 598.692 10.6384C600.003 13.0242 600.623 15.821 600.623 19.0184V24.34C600.623 27.4731 599.979 30.2471 598.642 32.6359C597.305 35.0271 595.308 36.9721 592.696 38.4955C587.508 41.5203 579.851 42.9087 569.841 42.9087H565.183V60.5975H547.647V0.674576ZM564.079 59.4929H548.751V1.77919H569.841C590.061 1.77919 599.519 6.80104 599.519 19.0184V24.34C599.519 36.2575 589.735 41.804 569.841 41.804H564.079V59.4929ZM219.117 1.85415H234.228V59.5679H219.117V1.85415ZM361.341 12.4028V28.5571H366.434C371.842 28.5571 375.043 27.8922 376.879 26.7321C378.57 25.6628 379.245 24.0715 379.245 21.5668V19.618C379.245 16.9993 378.749 15.3884 377.224 14.3078C375.561 13.1294 372.454 12.4028 366.651 12.4028H361.341ZM458.96 56.8124C454.033 59.7934 446.633 61.1222 436.634 61.1222C426.637 61.1222 419.389 59.7947 414.618 56.8032C409.73 53.7385 407.591 49.0299 407.591 42.7784V18.3438C407.591 11.9657 409.633 7.24271 414.497 4.20551C419.233 1.24899 426.487 0 436.634 0C446.783 0 454.19 1.25046 459.081 4.19627C461.553 5.68523 463.384 7.60777 464.586 9.99944C465.784 12.3808 466.328 15.1659 466.328 18.3438V42.7784C466.328 49.0622 464.001 53.7622 458.96 56.8124ZM426.77 47.746C428.333 48.9726 431.236 49.7687 436.634 49.7687C442.02 49.7687 445.116 48.9769 446.859 47.7194C448.496 46.538 449.119 44.8026 449.119 42.2538V18.8685C449.119 16.3605 448.648 14.6482 447.116 13.466C445.482 12.2053 442.41 11.3535 436.634 11.3535C431.25 11.3535 428.344 12.2016 426.778 13.4542C425.294 14.6398 424.801 16.3688 424.801 18.8685V42.2538C424.801 44.878 425.3 46.5933 426.77 47.746ZM518.995 41.879C518.995 47.3506 514.755 50.8733 505.841 50.8733C496.927 50.8733 493.448 47.3506 493.448 41.879V1.85415H478.446V42.4037C478.446 54.3212 488.23 60.0176 505.841 60.0176C523.452 60.0176 533.997 54.3212 533.997 42.4037V1.85415H518.995V41.879ZM565.074 12.3279V30.7307H569.841C575.246 30.7307 578.604 30.0867 580.589 28.9238C581.552 28.3602 582.182 27.6801 582.583 26.8809C582.99 26.0693 583.196 25.0665 583.196 23.8153V19.543C583.196 16.9906 582.6 15.3583 580.931 14.2523C579.119 13.0508 575.852 12.3279 570.058 12.3279H565.074ZM465.224 42.7784C465.224 54.6959 456.528 60.0176 436.634 60.0176C416.74 60.0176 408.695 54.6959 408.695 42.7784V18.3438C408.695 6.12646 416.413 1.10462 436.634 1.10462C456.854 1.10462 465.224 6.12646 465.224 18.3438V42.7784ZM423.697 42.2538C423.697 47.7253 425.763 50.8733 436.634 50.8733C447.505 50.8733 450.222 47.7253 450.222 42.2538V18.8685C450.222 13.6218 448.266 10.2489 436.634 10.2489C425.763 10.2489 423.697 13.6218 423.697 18.8685V42.2538ZM360.237 11.2982H366.651C378.283 11.2982 380.349 14.1464 380.349 19.618V21.5668C380.349 27.0383 377.305 29.6617 366.434 29.6617H360.237V11.2982ZM563.971 31.8353H569.841C580.712 31.8353 584.299 29.2869 584.299 23.8153V19.543C584.299 14.0715 581.69 11.2233 570.058 11.2233H563.971V31.8353Z" fill="#C8C8C8"/>
</svg>
