<svg width="1920" height="356" viewBox="0 0 1920 356" fill="none" xmlns="http://www.w3.org/2000/svg">
<path opacity="0.96" d="M643 3.33206H641.5V4.83206V161.779V163.279H643H778.023H779.523V161.779V136.13V134.63H778.023H685.273V96.3066H760.592H762.092V94.8066V69.5649V68.0649H760.592H685.273V30.7595H773.887H775.387V29.2595V4.83206V3.33206H773.887H643ZM927.681 5.44275V3.94275H926.181H791.453H789.953V5.44275V30.4809V31.9809H791.453H837.226V161.575V163.075H838.726H879.203H880.703V161.575V31.9809H926.181H927.681V30.4809V5.44275ZM991.7 5.03562V3.53562H990.2H949.132H947.632V5.03562V161.779V163.279H949.132H990.2H991.7V161.779V5.03562ZM1177.58 97.86V99.36H1179.08H1216.28V113.127C1216.28 120.472 1213.86 125.944 1208.1 129.68C1202.2 133.51 1192.59 135.648 1177.9 135.648C1163.18 135.648 1154.84 133.498 1150.16 129.835C1145.62 126.272 1144.24 121.017 1144.24 113.738V52.2621C1144.24 45.3054 1145.61 40.0313 1150.17 36.3857C1154.85 32.6492 1163.19 30.3524 1177.9 30.3524C1193.7 30.3524 1202.5 32.2067 1207.36 35.581C1212.02 38.8136 1213.33 43.656 1213.33 50.8372V52.3372H1214.83H1255.6H1257.1V50.8372C1257.1 42.2752 1255.65 34.9053 1252.53 28.6792C1249.4 22.438 1244.63 17.4308 1238.13 13.5446C1225.2 5.81746 1205.42 2.51781 1177.9 2.51781C1150.35 2.51781 1131 6.22874 1118.52 14.1773C1105.87 22.2261 1100.46 34.4753 1100.46 50.8372V113.738C1100.46 131.005 1106.08 143.711 1118.84 151.993C1131.44 160.178 1150.79 163.889 1177.9 163.889C1205 163.889 1224.79 160.177 1237.83 151.927C1251.01 143.582 1257.1 130.731 1257.1 113.127V72.4148V70.9148H1255.6H1179.08H1177.58V72.4148V97.86ZM1440.81 163.075H1444.02L1441.96 160.612L1393.59 102.839C1406.26 99.7457 1415.63 95.1181 1421.92 88.4022C1428.64 81.2313 1431.67 71.867 1431.67 59.9975V51.855C1431.67 43.3654 1430.03 36.0189 1426.61 29.7886C1423.2 23.5514 1418.05 18.5216 1411.2 14.5989C1397.55 6.78928 1377.06 3.33206 1349.51 3.33206H1292.2H1290.7V4.83206V161.575V163.075H1292.2H1332.97H1334.47V161.575V107.91H1347.33L1392.08 162.526L1392.53 163.075H1393.24H1440.81ZM1696.22 5.03562V3.53562H1694.72H1653.94H1652.44V5.03562V115.163C1652.44 131.839 1659.34 144.29 1672.43 152.49C1685.41 160.622 1704.35 164.5 1728.4 164.5C1752.45 164.5 1771.9 160.62 1785.38 152.504C1798.97 144.325 1806.42 131.884 1806.42 115.163V5.03562V3.53562H1804.92H1764.15H1762.65V5.03562V113.738C1762.65 120.729 1759.97 126.364 1754.48 130.306C1748.93 134.3 1740.35 136.665 1728.4 136.665C1716.44 136.665 1708.42 134.298 1703.4 130.346C1698.46 126.448 1696.22 120.828 1696.22 113.738V5.03562ZM1845.02 3.33206H1843.52V4.83206V161.575V163.075H1845.02H1886.68H1888.18V161.575V115.034H1902.34C1929.46 115.034 1949.95 111.266 1963.7 103.253C1970.6 99.2312 1975.82 94.1313 1979.31 87.9024C1982.79 81.6766 1984.5 74.4047 1984.5 66.1043V51.6514C1984.5 43.162 1982.85 35.8273 1979.44 29.6151C1976.02 23.3958 1970.88 18.3917 1964.02 14.4949C1950.37 6.73782 1929.88 3.33206 1902.34 3.33206H1845.02ZM1334.17 79.0573V32.1845H1350.11C1365.89 32.1845 1374.77 34.1381 1379.71 37.6339C1384.46 40.997 1385.83 46.0089 1385.83 53.2799V58.5725C1385.83 65.6889 1383.88 70.5978 1378.7 73.8692C1373.33 77.2639 1364.25 79.0573 1349.51 79.0573H1334.17ZM1540.31 164.5C1567.41 164.5 1587.18 160.889 1600.21 153.011C1613.39 145.04 1619.51 132.805 1619.51 116.181V49.8193C1619.51 41.3564 1618.06 34.0375 1614.94 27.8315C1611.81 21.6114 1607.04 16.593 1600.54 12.6817C1587.61 4.90288 1567.84 1.5 1540.31 1.5C1512.78 1.5 1493.43 4.90089 1480.94 12.6943C1468.27 20.5972 1462.87 32.8632 1462.87 49.8193V116.181C1462.87 132.761 1468.51 145.008 1481.27 152.999C1493.86 160.891 1513.2 164.5 1540.31 164.5ZM1540.31 136.665C1525.58 136.665 1517.24 134.516 1512.57 130.853C1508.03 127.29 1506.65 122.034 1506.65 114.756V51.2443C1506.65 44.2876 1508.02 39.0135 1512.58 35.3679C1517.26 31.6314 1525.6 29.3346 1540.31 29.3346C1556.06 29.3346 1564.85 31.6363 1569.71 35.3839C1574.43 39.0249 1575.74 44.2763 1575.74 51.2443V114.756C1575.74 121.932 1573.97 127.215 1568.97 130.816C1563.84 134.522 1555.01 136.665 1540.31 136.665ZM1887.89 84.9606V31.9809H1902.93C1918.71 31.9809 1927.98 33.9295 1933.31 37.4567C1938.44 40.8543 1940.14 45.8952 1940.14 53.0763V64.6794C1940.14 68.2358 1939.55 71.207 1938.31 73.6785C1937.08 76.1329 1935.15 78.1856 1932.31 79.8479C1926.55 83.2209 1917.07 84.9606 1902.34 84.9606H1887.89Z" fill="#C8C8C8" stroke="#C8C8C8" stroke-width="3"/>
<path opacity="0.96" d="M-60 193.332H-61.5V194.832V351.779V353.279H-60H75.0235H76.5235V351.779V326.13V324.63H75.0235H-17.727V286.307H57.5916H59.0916V284.807V259.565V258.065H57.5916H-17.727V220.76H70.8871H72.3871V219.26V194.832V193.332H70.8871H-60ZM224.681 195.443V193.943H223.181H88.4529H86.9529V195.443V220.481V221.981H88.4529H134.226V351.575V353.075H135.726H176.203H177.703V351.575V221.981H223.181H224.681V220.481V195.443ZM288.7 195.036V193.536H287.2H246.132H244.632V195.036V351.779V353.279H246.132H287.2H288.7V351.779V195.036ZM474.578 287.86V289.36H476.078H513.282V303.127C513.282 310.472 510.864 315.944 505.103 319.68C499.197 323.51 489.586 325.648 474.896 325.648C460.175 325.648 451.835 323.498 447.162 319.835C442.617 316.272 441.236 311.017 441.236 303.738V242.262C441.236 235.305 442.609 230.031 447.173 226.386C451.85 222.649 460.194 220.352 474.896 220.352C490.696 220.352 499.498 222.207 504.362 225.581C509.021 228.814 510.328 233.656 510.328 240.837V242.337H511.828H552.601H554.101V240.837C554.101 232.275 552.651 224.905 549.528 218.679C546.397 212.438 541.627 207.431 535.126 203.545C522.2 195.817 502.421 192.518 474.896 192.518C447.351 192.518 428.005 196.229 415.516 204.177C402.87 212.226 397.463 224.475 397.463 240.837V303.738C397.463 321.005 403.083 333.711 415.837 341.993C428.44 350.178 447.792 353.889 474.896 353.889C502.003 353.889 521.787 350.177 534.826 341.927C548.014 333.582 554.101 320.731 554.101 303.127V262.415V260.915H552.601H476.078H474.578V262.415V287.86ZM737.81 353.075H741.022L738.96 350.612L690.594 292.839C703.256 289.746 712.632 285.118 718.925 278.402C725.643 271.231 728.674 261.867 728.674 249.997V241.855C728.674 233.365 727.029 226.019 723.614 219.789C720.196 213.551 715.052 208.522 708.197 204.599C694.549 196.789 674.056 193.332 646.514 193.332H589.196H587.696V194.832V351.575V353.075H589.196H629.969H631.469V351.575V297.91H644.327L689.082 352.526L689.532 353.075H690.242H737.81ZM993.218 195.036V193.536H991.718H950.945H949.445V195.036V305.163C949.445 321.839 956.338 334.29 969.427 342.49C982.406 350.622 1001.35 354.5 1025.4 354.5C1049.45 354.5 1068.9 350.62 1082.38 342.504C1095.97 334.325 1103.42 321.884 1103.42 305.163V195.036V193.536H1101.92H1061.15H1059.65V195.036V303.738C1059.65 310.729 1056.97 316.364 1051.48 320.306C1045.93 324.3 1037.35 326.665 1025.4 326.665C1013.44 326.665 1005.42 324.298 1000.4 320.346C995.455 316.448 993.218 310.828 993.218 303.738V195.036ZM1142.02 193.332H1140.52V194.832V351.575V353.075H1142.02H1183.68H1185.18V351.575V305.034H1199.34C1226.46 305.034 1246.95 301.266 1260.7 293.253C1267.6 289.231 1272.82 284.131 1276.31 277.902C1279.79 271.677 1281.5 264.405 1281.5 256.104V241.651C1281.5 233.162 1279.85 225.827 1276.44 219.615C1273.02 213.396 1267.88 208.392 1261.02 204.495C1247.37 196.738 1226.88 193.332 1199.34 193.332H1142.02ZM631.173 269.057V222.184H647.105C662.894 222.184 671.77 224.138 676.707 227.634C681.457 230.997 682.833 236.009 682.833 243.28V248.573C682.833 255.689 680.882 260.598 675.702 263.869C670.327 267.264 661.25 269.057 646.514 269.057H631.173ZM837.305 354.5C864.411 354.5 884.18 350.889 897.209 343.011C910.394 335.04 916.51 322.805 916.51 306.181V239.819C916.51 231.356 915.06 224.037 911.937 217.831C908.807 211.611 904.038 206.593 897.539 202.682C884.614 194.903 864.837 191.5 837.305 191.5C809.779 191.5 790.429 194.901 777.937 202.694C765.269 210.597 759.873 222.863 759.873 239.819V306.181C759.873 322.761 765.512 335.008 778.267 342.999C790.863 350.891 810.204 354.5 837.305 354.5ZM837.305 326.665C822.584 326.665 814.244 324.516 809.571 320.853C805.026 317.29 803.646 312.034 803.646 304.756V241.244C803.646 234.288 805.018 229.013 809.582 225.368C814.26 221.631 822.603 219.335 837.305 219.335C853.059 219.335 861.849 221.636 866.71 225.384C871.434 229.025 872.737 234.276 872.737 241.244V304.756C872.737 311.932 870.968 317.215 865.973 320.816C860.835 324.522 852.012 326.665 837.305 326.665ZM1184.89 274.961V221.981H1199.93C1215.71 221.981 1224.98 223.93 1230.31 227.457C1235.44 230.854 1237.14 235.895 1237.14 243.076V254.679C1237.14 258.236 1236.55 261.207 1235.31 263.678C1234.08 266.133 1232.15 268.186 1229.31 269.848C1223.55 273.221 1214.07 274.961 1199.34 274.961H1184.89Z" fill="#C8C8C8" stroke="#C8C8C8" stroke-width="3"/>
<path d="M1362.9 350H1387.03V344.548H1368.53V341.126C1368.53 325.292 1387.38 332.426 1387.38 316.244C1387.38 308.298 1382.68 304.702 1375.25 304.702C1367.77 304.702 1362.84 308.53 1362.84 317.23H1368.35C1368.35 312.068 1370.73 309.748 1375.02 309.748C1379.72 309.748 1381.81 311.894 1381.81 316.302C1381.81 327.032 1362.9 322.218 1362.9 341.184V350ZM1405.1 345.534C1400.17 345.534 1398.32 343.794 1398.32 337.646V317.404C1398.32 311.256 1400.93 310.096 1405.1 310.096C1409.16 310.096 1411.43 311.256 1411.43 317.404V337.646C1411.43 343.794 1409.16 345.534 1405.1 345.534ZM1405.1 350.58C1413.4 350.58 1416.94 346.868 1416.94 337.646V317.404C1416.94 308.414 1412.06 305.224 1405.1 305.224C1397.8 305.224 1392.81 308.414 1392.81 317.404V337.646C1392.81 346.868 1396.4 350.58 1405.1 350.58ZM1435.01 345.534C1430.08 345.534 1428.23 343.794 1428.23 337.646V317.404C1428.23 311.256 1430.84 310.096 1435.01 310.096C1439.07 310.096 1441.33 311.256 1441.33 317.404V337.646C1441.33 343.794 1439.07 345.534 1435.01 345.534ZM1435.01 350.58C1443.31 350.58 1446.84 346.868 1446.84 337.646V317.404C1446.84 308.414 1441.97 305.224 1435.01 305.224C1427.7 305.224 1422.72 308.414 1422.72 317.404V337.646C1422.72 346.868 1426.31 350.58 1435.01 350.58ZM1473.97 305.166H1466.66C1459.18 310.212 1452.8 318.68 1452.8 329.41V337.646C1452.8 346.868 1456.33 350.58 1465.5 350.58C1474.66 350.58 1478.2 346.868 1478.2 337.646V329.41C1478.2 321.174 1473.85 317.578 1467.12 317.578C1465.32 317.578 1463.35 317.694 1461.15 318.274C1463.41 313.866 1469.04 309.052 1474.08 305.572L1473.97 305.166ZM1465.5 345.302C1460.57 345.302 1458.31 343.794 1458.31 337.646V329.41C1458.31 323.784 1460.57 322.334 1465.5 322.334C1470.43 322.334 1472.69 323.784 1472.69 329.41V337.646C1472.69 343.794 1470.43 345.302 1465.5 345.302ZM1506.61 330.048H1484.81V335.094H1506.61V330.048ZM1512.77 350H1536.9V344.548H1518.4V341.126C1518.4 325.292 1537.25 332.426 1537.25 316.244C1537.25 308.298 1532.55 304.702 1525.13 304.702C1517.64 304.702 1512.71 308.53 1512.71 317.23H1518.22C1518.22 312.068 1520.6 309.748 1524.89 309.748C1529.59 309.748 1531.68 311.894 1531.68 316.302C1531.68 327.032 1512.77 322.218 1512.77 341.184V350ZM1554.98 345.534C1550.05 345.534 1548.19 343.794 1548.19 337.646V317.404C1548.19 311.256 1550.8 310.096 1554.98 310.096C1559.04 310.096 1561.3 311.256 1561.3 317.404V337.646C1561.3 343.794 1559.04 345.534 1554.98 345.534ZM1554.98 350.58C1563.27 350.58 1566.81 346.868 1566.81 337.646V317.404C1566.81 308.414 1561.94 305.224 1554.98 305.224C1547.67 305.224 1542.68 308.414 1542.68 317.404V337.646C1542.68 346.868 1546.28 350.58 1554.98 350.58ZM1572.47 350H1596.6V344.548H1578.1V341.126C1578.1 325.292 1596.95 332.426 1596.95 316.244C1596.95 308.298 1592.25 304.702 1584.82 304.702C1577.34 304.702 1572.41 308.53 1572.41 317.23H1577.92C1577.92 312.068 1580.3 309.748 1584.59 309.748C1589.29 309.748 1591.38 311.894 1591.38 316.302C1591.38 327.032 1572.47 322.218 1572.47 341.184V350ZM1600.76 350H1620.42V345.302H1613.52V305.224H1602.32V310.154H1608.01V345.302H1600.76V350Z" fill="#C61B0F"/>
</svg>
