<svg width="43" height="43" viewBox="0 0 43 43" fill="none" xmlns="http://www.w3.org/2000/svg">
<g clip-path="url(#clip0)">
<path d="M5.126 24.4464C4.75582 24.6201 4.5925 25.0573 4.75747 25.431L6.44833 29.0608C6.5314 29.2415 6.68295 29.3823 6.86934 29.4517C6.951 29.4813 7.0376 29.4966 7.12467 29.4966C7.23363 29.4976 7.34118 29.4743 7.44025 29.4293L20.2155 23.4622L19.0584 35.5609C19.036 35.7991 19.1278 36.0332 19.3059 36.1923C19.866 36.6559 20.564 36.92 21.2903 36.9437C21.4905 36.9435 21.6896 36.9183 21.8838 36.8689C22.9209 36.5983 23.725 35.6741 24.2736 34.0957L29.301 19.2091L39.2579 14.5646C42.1887 13.1971 43.699 10.4241 42.6848 8.25979C42.1091 7.12855 41.0066 6.35901 39.7464 6.20817C38.3462 5.99684 36.9151 6.21711 35.6434 6.8398L24.1531 12.2277L11.7991 7.39565C10.2433 6.80968 9.0111 6.82474 8.14696 7.4486C7.4219 8.04352 7.00936 8.93778 7.02701 9.87558C7.03454 10.1135 7.15432 10.3335 7.35012 10.4696L15.6689 16.1881L10.9048 18.4426L2.91623 16.4133C2.58888 16.3329 2.24812 16.4804 2.08221 16.7741L0.0910669 20.3585C-0.012244 20.5484 -0.0284819 20.7738 0.0465891 20.9767C0.121189 21.1798 0.279803 21.3405 0.481953 21.4182L6.39608 23.8607L5.126 24.4464ZM8.56726 9.49999C8.6115 9.18229 8.77223 8.89307 9.01839 8.68833C9.44693 8.38005 10.2285 8.42523 11.2729 8.81588L22.2746 13.1069L17.2545 15.4515L8.56726 9.49999ZM1.80428 20.3512L3.11179 18.0291L10.7994 19.9377C10.9651 19.9796 11.1399 19.9638 11.2957 19.893L36.2823 8.22237C37.2757 7.73241 38.3944 7.55403 39.4911 7.71123C40.2601 7.78207 40.9452 8.2259 41.3248 8.89848C41.9555 10.2514 40.7157 12.2277 38.6189 13.2046L29.962 17.2629L30.4882 15.7069C30.6212 15.3066 30.404 14.874 30.0037 14.7413C29.6029 14.6086 29.1706 14.8258 29.0379 15.2261L22.8531 33.6295C22.4848 34.6744 22.0264 35.2983 21.5155 35.4331C21.1989 35.4941 20.8714 35.4319 20.5986 35.2606L22.1017 19.4793C22.141 19.0644 21.8367 18.6961 21.4213 18.6568C21.0064 18.617 20.6381 18.9218 20.5986 19.3366L20.3659 21.7488L7.47014 27.7606L6.41115 25.5061L8.52984 24.5144C8.80259 24.3942 8.97838 24.1245 8.97838 23.8268C8.97838 23.5288 8.80259 23.2592 8.52984 23.1391L1.80428 20.3512Z" fill="#323236"/>
</g>
<defs>
<clipPath id="clip0">
<rect width="43" height="43" fill="white"/>
</clipPath>
</defs>
</svg>
