<svg width="34" height="34" viewBox="0 0 34 34" fill="none" xmlns="http://www.w3.org/2000/svg">
<path d="M15.3259 23.5286L14.879 27.5468C14.8569 27.7467 14.9212 27.9473 15.0554 28.0975C15.1896 28.2475 15.3819 28.3333 15.5832 28.3333H18.4166C18.6179 28.3333 18.8102 28.2475 18.9444 28.0975C19.0786 27.9474 19.1429 27.7468 19.1208 27.5468L18.6739 23.5286C19.3995 23.0008 19.8332 22.1659 19.8332 21.25C19.8332 19.6874 18.5625 18.4166 16.9999 18.4166C15.4372 18.4166 14.1665 19.6874 14.1665 21.25C14.1665 22.1659 14.6003 23.0008 15.3259 23.5286ZM16.9999 19.8333C17.7808 19.8333 18.4165 20.469 18.4165 21.25C18.4165 21.793 18.108 22.2793 17.6113 22.52C17.3409 22.6514 17.1825 22.9378 17.2157 23.2359L17.6252 26.9166H16.3746L16.7841 23.2359C16.8173 22.9378 16.6589 22.6514 16.3885 22.52C15.8918 22.2793 15.5833 21.793 15.5833 21.25C15.5832 20.469 16.2189 19.8333 16.9999 19.8333Z" fill="#323236"/>
<path d="M29.0416 12.75H26.9166V9.91664C26.9166 4.44855 22.4682 0 17 0C11.5318 0 7.08336 4.44855 7.08336 9.91664V12.75H4.95836C4.56682 12.75 4.25 13.0668 4.25 13.4584V31.1667C4.25 32.7293 5.52068 34 7.08336 34H26.9167C28.4793 34 29.75 32.7293 29.75 31.1666V13.4584C29.75 13.0668 29.4332 12.75 29.0416 12.75ZM8.5 9.91664C8.5 5.22949 12.3128 1.41664 17 1.41664C21.6872 1.41664 25.5 5.22949 25.5 9.91664V12.75H24.0834V9.91664C24.0834 6.01109 20.9056 2.83329 17 2.83329C13.0944 2.83329 9.91664 6.01116 9.91664 9.91664V12.75H8.5V9.91664ZM22.6666 9.91664V12.75H11.3334V9.91664C11.3334 6.7921 13.8755 4.25 17 4.25C20.1245 4.25 22.6666 6.7921 22.6666 9.91664ZM28.3334 31.1666C28.3334 31.9476 27.6976 32.5833 26.9167 32.5833H7.08336C6.30242 32.5833 5.66671 31.9476 5.66671 31.1666V14.1666H28.3334V31.1666Z" fill="#323236"/>
</svg>
