<svg width="48" height="27" viewBox="0 0 48 27" fill="none" xmlns="http://www.w3.org/2000/svg">
<path d="M44.1117 11.839V12.039H44.3117H44.8755C46.1217 12.039 47.1462 13.0765 47.044 14.303L47.0433 14.3112V14.3196V20.5209C47.0433 21.7635 46.0053 22.8015 44.7627 22.8015H44.199H43.999V23.0015V25.2566C43.999 25.5494 43.9022 25.7778 43.7475 25.9326C43.5927 26.0873 43.3643 26.1841 43.0714 26.1841C42.7786 26.1841 42.5502 26.0873 42.3954 25.9326C42.2407 25.7778 42.1439 25.5494 42.1439 25.2566V23.0015V22.8015H41.9439H5.29937H5.09937V23.0015V25.2566C5.09937 25.5494 5.00264 25.7778 4.84787 25.9326C4.69311 26.0873 4.46465 26.1841 4.17184 26.1841C3.87903 26.1841 3.65057 26.0873 3.49581 25.9326C3.34105 25.7778 3.24432 25.5494 3.24432 25.2566V23.0015V22.8015H3.04432H2.48055C1.23798 22.8015 0.2 21.7635 0.2 20.5209V14.3196C0.2 13.077 1.23798 12.039 2.48055 12.039H3.04432H3.24432V11.839V5.86313C3.24432 4.0435 3.79482 2.63366 4.76328 1.67866C5.7322 0.723198 7.1428 0.2 8.90744 0.2H18.9424C21.0403 0.2 22.5509 0.860058 23.518 2.14954L23.6712 2.35375L23.8328 2.15619C24.8055 0.967391 26.3245 0.2 28.4136 0.2H38.4486C40.2682 0.2 41.6781 0.750506 42.6331 1.71896C43.5885 2.68788 44.1117 4.09848 44.1117 5.86313V11.839ZM42.0567 12.0391H42.2567V11.8391V5.86327C42.2567 4.59218 41.9387 3.62906 41.2803 2.98595C40.6228 2.3437 39.6609 2.05519 38.4486 2.05519H28.4136C27.2013 2.05519 26.2394 2.3437 25.5819 2.98595C24.9235 3.62906 24.6055 4.59218 24.6055 5.86327V11.8391V12.0391H24.8055H42.0567ZM22.5505 12.0391H22.7505V11.8391V5.86327C22.7505 4.59218 22.4326 3.62906 21.7741 2.98595C21.1166 2.3437 20.1547 2.05519 18.9424 2.05519H8.90744C7.63636 2.05519 6.67323 2.37313 6.03012 3.03156C5.38788 3.68909 5.09937 4.65094 5.09937 5.86327V11.8391V12.0391H5.29937H22.5505ZM44.8755 20.9466C44.9969 20.9466 45.1016 20.8879 45.1719 20.8175C45.2423 20.7472 45.301 20.6425 45.301 20.5211V14.3197C45.301 14.1983 45.2423 14.0936 45.1719 14.0232C45.1016 13.9529 44.9969 13.8942 44.8755 13.8942H2.59331C2.47188 13.8942 2.3672 13.9529 2.29685 14.0232C2.2265 14.0936 2.1678 14.1983 2.1678 14.3197V20.5211C2.1678 20.6425 2.2265 20.7472 2.29685 20.8175C2.3672 20.8879 2.47188 20.9466 2.59331 20.9466H44.8755Z" fill="#323236" stroke="#DFEDF4" stroke-width="0.4"/>
<path d="M10.5116 7.21639C10.5116 7.72865 10.0963 8.14392 9.58407 8.14392C9.07181 8.14392 8.65654 7.72865 8.65654 7.21639C8.65654 6.70413 9.07181 6.28887 9.58407 6.28887C10.0963 6.28887 10.5116 6.70413 10.5116 7.21639Z" fill="#323236" stroke="#DFEDF4" stroke-width="0.4"/>
<path d="M19.306 7.21639C19.306 7.72865 18.8908 8.14392 18.3785 8.14392C17.8662 8.14392 17.451 7.72865 17.451 7.21639C17.451 6.70413 17.8662 6.28887 18.3785 6.28887C18.8908 6.28887 19.306 6.70413 19.306 7.21639Z" fill="#323236" stroke="#DFEDF4" stroke-width="0.4"/>
<path d="M29.9047 7.21639C29.9047 7.72865 29.4894 8.14392 28.9771 8.14392C28.4649 8.14392 28.0496 7.72865 28.0496 7.21639C28.0496 6.70413 28.4649 6.28887 28.9771 6.28887C29.4894 6.28887 29.9047 6.70413 29.9047 7.21639Z" fill="#323236" stroke="#DFEDF4" stroke-width="0.4"/>
<path d="M38.8124 7.21639C38.8124 7.72865 38.3971 8.14392 37.8848 8.14392C37.3726 8.14392 36.9573 7.72865 36.9573 7.21639C36.9573 6.70413 37.3726 6.28887 37.8848 6.28887C38.3971 6.28887 38.8124 6.70413 38.8124 7.21639Z" fill="#323236" stroke="#DFEDF4" stroke-width="0.4"/>
</svg>
