<svg width="108" height="23" viewBox="0 0 108 23" fill="none" xmlns="http://www.w3.org/2000/svg">
<path d="M0.17 0.299999H21.591V4.826H5.812V8.298H15.67C17.0133 8.298 18.15 8.47367 19.08 8.825C20.01 9.15567 20.7643 9.631 21.343 10.251C21.9423 10.8503 22.366 11.5633 22.614 12.39C22.8827 13.2167 23.017 14.126 23.017 15.118C23.017 16.11 22.8827 17.0297 22.614 17.877C22.366 18.7037 21.9423 19.427 21.343 20.047C20.7643 20.6463 19.9997 21.1217 19.049 21.473C18.0983 21.8243 16.941 22 15.577 22H0.17V0.299999ZM5.812 12.824V17.474H15.577C16.197 17.474 16.6517 17.2363 16.941 16.761C17.2303 16.2857 17.375 15.7483 17.375 15.149C17.375 14.5703 17.2303 14.0433 16.941 13.568C16.6517 13.072 16.197 12.824 15.577 12.824H5.812ZM51.1623 0.299999V22H45.5203V4.826H36.8403C36.675 7.78133 36.4167 10.3543 36.0653 12.545C35.714 14.715 35.187 16.513 34.4843 17.939C33.8023 19.365 32.893 20.4293 31.7563 21.132C30.6197 21.8347 29.1937 22.186 27.4783 22.186H25.6493V17.474H26.7343C27.7263 17.474 28.5323 17.1433 29.1523 16.482C29.7723 15.8207 30.258 14.7977 30.6093 13.413C30.9813 12.0077 31.2397 10.22 31.3843 8.05C31.5497 5.88 31.6633 3.29667 31.7253 0.299999H51.1623ZM63.5614 22C62.0734 22 60.792 21.721 59.7174 21.163C58.6427 20.5843 57.754 19.799 57.0514 18.807C56.3694 17.815 55.863 16.6577 55.5324 15.335C55.2017 14.0123 55.0364 12.607 55.0364 11.119C55.0364 9.631 55.2017 8.22567 55.5324 6.903C55.863 5.58033 56.3694 4.43333 57.0514 3.462C57.754 2.49067 58.6427 1.726 59.7174 1.168C60.792 0.589332 62.0734 0.299999 63.5614 0.299999H74.7214C76.2094 0.299999 77.4907 0.589332 78.5654 1.168C79.64 1.726 80.5184 2.49067 81.2004 3.462C81.903 4.43333 82.4197 5.58033 82.7504 6.903C83.081 8.22567 83.2464 9.631 83.2464 11.119C83.2464 12.607 83.081 14.0123 82.7504 15.335C82.4197 16.6577 81.903 17.815 81.2004 18.807C80.5184 19.799 79.64 20.5843 78.5654 21.163C77.4907 21.721 76.2094 22 74.7214 22H63.5614ZM74.7214 17.474C75.238 17.474 75.672 17.3087 76.0234 16.978C76.3954 16.6473 76.6847 16.203 76.8914 15.645C77.1187 15.0663 77.2737 14.3947 77.3564 13.63C77.4597 12.8653 77.5114 12.0387 77.5114 11.15C77.5114 10.282 77.4597 9.46567 77.3564 8.701C77.2737 7.93633 77.1187 7.26467 76.8914 6.686C76.6847 6.10733 76.3954 5.65267 76.0234 5.322C75.672 4.99133 75.238 4.826 74.7214 4.826H63.5614C63.0447 4.826 62.6004 4.99133 62.2284 5.322C61.877 5.65267 61.5877 6.10733 61.3604 6.686C61.1537 7.26467 60.9987 7.93633 60.8954 8.701C60.8127 9.46567 60.7714 10.282 60.7714 11.15C60.7714 12.0387 60.8127 12.8653 60.8954 13.63C60.9987 14.3947 61.1537 15.0663 61.3604 15.645C61.5877 16.203 61.877 16.6473 62.2284 16.978C62.6004 17.3087 63.0447 17.474 63.5614 17.474H74.7214ZM87.1202 0.299999H107.611V4.826H92.7622V22H87.1202V0.299999Z" fill="#FECE00"/>
</svg>
