<svg width="110" height="25" viewBox="0 0 110 25" fill="none" xmlns="http://www.w3.org/2000/svg">
<path d="M1.17 1.3V0.299999H0.17V1.3H1.17ZM22.591 1.3H23.591V0.299999H22.591V1.3ZM22.591 5.826V6.826H23.591V5.826H22.591ZM6.812 5.826V4.826H5.812V5.826H6.812ZM6.812 9.298H5.812V10.298H6.812V9.298ZM20.08 9.825L19.7266 10.7605L19.7358 10.7639L19.745 10.7672L20.08 9.825ZM22.343 11.251L21.6119 11.9333L21.6237 11.9459L21.6359 11.9581L22.343 11.251ZM23.614 13.39L22.6562 13.6773L22.6594 13.6883L22.663 13.6991L23.614 13.39ZM23.614 18.877L22.6608 18.5748L22.6584 18.5822L22.6562 18.5897L23.614 18.877ZM22.343 21.047L21.624 20.352L21.6236 20.3524L22.343 21.047ZM20.049 22.473L20.3957 23.411L20.049 22.473ZM1.17 23H0.17V24H1.17V23ZM6.812 13.824V12.824H5.812V13.824H6.812ZM6.812 18.474H5.812V19.474H6.812V18.474ZM17.941 17.761L17.0868 17.2411L17.941 17.761ZM17.941 14.568L17.0772 15.0719L17.0819 15.08L17.0868 15.0879L17.941 14.568ZM1.17 2.3H22.591V0.299999H1.17V2.3ZM21.591 1.3V5.826H23.591V1.3H21.591ZM22.591 4.826H6.812V6.826H22.591V4.826ZM5.812 5.826V9.298H7.812V5.826H5.812ZM6.812 10.298H16.67V8.298H6.812V10.298ZM16.67 10.298C17.9323 10.298 18.9415 10.4639 19.7266 10.7605L20.4334 8.88953C19.3585 8.48344 18.0943 8.298 16.67 8.298V10.298ZM19.745 10.7672C20.5488 11.053 21.1592 11.4482 21.6119 11.9333L23.0741 10.5687C22.3695 9.81376 21.4712 9.25831 20.415 8.88278L19.745 10.7672ZM21.6359 11.9581C22.116 12.4382 22.4548 13.0062 22.6562 13.6773L24.5718 13.1027C24.2772 12.1205 23.7687 11.2625 23.0501 10.5439L21.6359 11.9581ZM22.663 13.6991C22.895 14.413 23.017 15.2164 23.017 16.118H25.017C25.017 15.0356 24.8704 14.0204 24.565 13.0809L22.663 13.6991ZM23.017 16.118C23.017 17.0192 22.8951 17.8358 22.6608 18.5748L24.5672 19.1792C24.8703 18.2235 25.017 17.2008 25.017 16.118H23.017ZM22.6562 18.5897C22.454 19.2634 22.1122 19.8469 21.624 20.352L23.062 21.742C23.7725 21.0071 24.278 20.1439 24.5718 19.1643L22.6562 18.5897ZM21.6236 20.3524C21.1695 20.8228 20.5421 21.2247 19.7024 21.535L20.3957 23.411C21.4573 23.0187 22.3592 22.4699 23.0624 21.7416L21.6236 20.3524ZM19.7024 21.535C18.8937 21.8339 17.861 22 16.577 22V24C18.021 24 19.303 23.8148 20.3957 23.411L19.7024 21.535ZM16.577 22H1.17V24H16.577V22ZM2.17 23V1.3H0.17V23H2.17ZM5.812 13.824V18.474H7.812V13.824H5.812ZM6.812 19.474H16.577V17.474H6.812V19.474ZM16.577 19.474C17.4983 19.474 18.3009 19.093 18.7952 18.2809L17.0868 17.2411C17.0024 17.3797 16.8957 17.474 16.577 17.474V19.474ZM18.7952 18.2809C19.1872 17.6369 19.375 16.9171 19.375 16.149H17.375C17.375 16.5796 17.2734 16.9345 17.0868 17.2411L18.7952 18.2809ZM19.375 16.149C19.375 15.3946 19.1838 14.6865 18.7952 14.0481L17.0868 15.0879C17.2769 15.4002 17.375 15.7461 17.375 16.149H19.375ZM18.8048 14.0641C18.3195 13.2322 17.5182 12.824 16.577 12.824V14.824C16.8758 14.824 16.9838 14.9118 17.0772 15.0719L18.8048 14.0641ZM16.577 12.824H6.812V14.824H16.577V12.824ZM52.1623 1.3H53.1623V0.299999H52.1623V1.3ZM52.1623 23V24H53.1623V23H52.1623ZM46.5203 23H45.5203V24H46.5203V23ZM46.5203 5.826H47.5203V4.826H46.5203V5.826ZM37.8403 5.826V4.826H36.8947L36.8419 5.77014L37.8403 5.826ZM37.0653 13.545L38.0525 13.7048L38.0527 13.7034L37.0653 13.545ZM35.4843 18.939L34.5873 18.497L34.5822 18.5075L35.4843 18.939ZM32.7563 22.132L33.2822 22.9826L32.7563 22.132ZM26.6493 23.186H25.6493V24.186H26.6493V23.186ZM26.6493 18.474V17.474H25.6493V18.474H26.6493ZM30.1523 17.482L30.8819 18.1659L30.1523 17.482ZM31.6093 14.413L30.6426 14.1571L30.6401 14.1671L31.6093 14.413ZM32.3843 9.05L31.3872 8.97403L31.3866 8.98348L32.3843 9.05ZM32.7253 1.3V0.299999H31.7458L31.7256 1.27931L32.7253 1.3ZM51.1623 1.3V23H53.1623V1.3H51.1623ZM52.1623 22H46.5203V24H52.1623V22ZM47.5203 23V5.826H45.5203V23H47.5203ZM46.5203 4.826H37.8403V6.826H46.5203V4.826ZM36.8419 5.77014C36.6779 8.7017 36.4224 11.239 36.078 13.3866L38.0527 13.7034C38.4109 11.4697 38.6721 8.86097 38.8388 5.88186L36.8419 5.77014ZM36.0782 13.3852C35.7371 15.4917 35.2329 17.1868 34.5873 18.497L36.3813 19.381C37.1411 17.8392 37.6909 15.9383 38.0525 13.7048L36.0782 13.3852ZM34.5822 18.5075C33.9675 19.7928 33.1763 20.6967 32.2305 21.2814L33.2822 22.9826C34.6097 22.1619 35.6371 20.9372 36.3865 19.3705L34.5822 18.5075ZM32.2305 21.2814C31.2908 21.8623 30.0598 22.186 28.4783 22.186V24.186C30.3275 24.186 31.9485 23.807 33.2822 22.9826L32.2305 21.2814ZM28.4783 22.186H26.6493V24.186H28.4783V22.186ZM27.6493 23.186V18.474H25.6493V23.186H27.6493ZM26.6493 19.474H27.7343V17.474H26.6493V19.474ZM27.7343 19.474C28.9738 19.474 30.0539 19.0491 30.8819 18.1659L29.4228 16.7981C29.0108 17.2375 28.4789 17.474 27.7343 17.474V19.474ZM30.8819 18.1659C31.6657 17.3299 32.2074 16.1221 32.5786 14.6589L30.6401 14.1671C30.3086 15.4732 29.879 16.3115 29.4228 16.7981L30.8819 18.1659ZM32.576 14.6689C32.9704 13.1792 33.2351 11.3224 33.3821 9.11652L31.3866 8.98348C31.2443 11.1176 30.9923 12.8361 30.6426 14.1571L32.576 14.6689ZM33.3814 9.12597C33.5486 6.93219 33.6629 4.32948 33.7251 1.32068L31.7256 1.27931C31.6638 4.26385 31.5507 6.82781 31.3872 8.97403L33.3814 9.12597ZM32.7253 2.3H52.1623V0.299999H32.7253V2.3ZM60.7174 22.163L60.2433 23.0435L60.2499 23.047L60.2566 23.0505L60.7174 22.163ZM58.0514 19.807L57.2272 20.3736L57.2353 20.385L58.0514 19.807ZM56.5324 16.335L55.5622 16.5775L56.5324 16.335ZM56.5324 7.903L55.5622 7.66046V7.66046L56.5324 7.903ZM58.0514 4.462L57.2411 3.87582L57.233 3.88737L58.0514 4.462ZM60.7174 2.168L61.1782 3.05549L61.1849 3.05203L61.1915 3.04847L60.7174 2.168ZM79.5654 2.168L79.0913 3.04847L79.0979 3.05203L79.1046 3.05549L79.5654 2.168ZM82.2004 4.462L81.3819 5.03669L81.3901 5.04812L82.2004 4.462ZM83.7504 7.903L82.7802 8.14553V8.14554L83.7504 7.903ZM83.7504 16.335L82.7802 16.0925L83.7504 16.335ZM82.2004 19.807L81.3843 19.2289L81.3763 19.2405L82.2004 19.807ZM79.5654 22.163L80.0262 23.0505L80.0329 23.047L80.0395 23.0435L79.5654 22.163ZM77.0234 17.978L76.359 17.2306L76.3484 17.24L76.338 17.2498L77.0234 17.978ZM77.8914 16.645L76.9606 16.2793L76.957 16.2885L76.9536 16.2977L77.8914 16.645ZM78.3564 14.63L77.3654 14.4961L77.3636 14.5093L77.3622 14.5225L78.3564 14.63ZM78.3564 9.701L77.3622 9.80848L77.3636 9.82172L77.3654 9.83492L78.3564 9.701ZM77.8914 7.686L76.9496 8.02234L76.9549 8.03708L76.9606 8.05165L77.8914 7.686ZM77.0234 6.322L76.338 7.0502L76.3484 7.05995L76.359 7.06941L77.0234 6.322ZM63.2284 6.322L62.564 5.57459L62.5534 5.58404L62.543 5.5938L63.2284 6.322ZM62.3604 7.686L61.4296 7.32035L61.4239 7.33492L61.4186 7.34966L62.3604 7.686ZM61.8954 9.701L60.9044 9.56708L60.9026 9.58028L60.9012 9.59352L61.8954 9.701ZM61.8954 14.63L60.9012 14.7375L60.9026 14.7507L60.9044 14.7639L61.8954 14.63ZM62.3604 16.645L61.4186 16.9813L61.426 17.002L61.4343 17.0223L62.3604 16.645ZM63.2284 17.978L62.543 18.7062L62.5534 18.716L62.564 18.7254L63.2284 17.978ZM64.5614 22C63.1976 22 62.0815 21.7446 61.1782 21.2755L60.2566 23.0505C61.5025 23.6974 62.9491 24 64.5614 24V22ZM61.1915 21.2825C60.252 20.7767 59.4806 20.0946 58.8674 19.229L57.2353 20.385C58.0275 21.5034 59.0334 22.392 60.2433 23.0435L61.1915 21.2825ZM58.8754 19.2405C58.2694 18.359 57.808 17.3145 57.5025 16.0925L55.5622 16.5775C55.9181 18.0008 56.4693 19.271 57.2273 20.3735L58.8754 19.2405ZM57.5025 16.0925C57.1934 14.856 57.0364 13.5326 57.0364 12.119H55.0364C55.0364 13.6814 55.21 15.1687 55.5622 16.5775L57.5025 16.0925ZM57.0364 12.119C57.0364 10.7054 57.1934 9.38202 57.5025 8.14554L55.5622 7.66046C55.21 9.06931 55.0364 10.5566 55.0364 12.119H57.0364ZM57.5025 8.14554C57.8078 6.92445 58.268 5.89374 58.8698 5.03663L57.233 3.88737C56.4708 4.97292 55.9183 6.23622 55.5622 7.66046L57.5025 8.14554ZM58.8616 5.04812C59.4719 4.20442 60.2404 3.5424 61.1782 3.05549L60.2566 1.2805C59.045 1.9096 58.0361 2.77691 57.2411 3.87588L58.8616 5.04812ZM61.1915 3.04847C62.0918 2.56368 63.2029 2.3 64.5614 2.3V0.299999C62.9438 0.299999 61.4923 0.61498 60.2433 1.28753L61.1915 3.04847ZM64.5614 2.3H75.7214V0.299999H64.5614V2.3ZM75.7214 2.3C77.0798 2.3 78.191 2.56368 79.0913 3.04847L80.0395 1.28753C78.7905 0.61498 77.339 0.299999 75.7214 0.299999V2.3ZM79.1046 3.05549C80.0396 3.54101 80.7942 4.19954 81.382 5.03663L83.0188 3.88737C82.2425 2.78179 81.2404 1.91099 80.0262 1.2805L79.1046 3.05549ZM81.3901 5.04812C82.0085 5.90297 82.4763 6.92969 82.7802 8.14553L84.7205 7.66046C84.3631 6.23097 83.7975 4.9637 83.0106 3.87588L81.3901 5.04812ZM82.7802 8.14554C83.0893 9.38202 83.2464 10.7054 83.2464 12.119H85.2464C85.2464 10.5566 85.0727 9.06931 84.7205 7.66046L82.7802 8.14554ZM83.2464 12.119C83.2464 13.5326 83.0893 14.856 82.7802 16.0925L84.7205 16.5775C85.0727 15.1687 85.2464 13.6814 85.2464 12.119H83.2464ZM82.7802 16.0925C82.476 17.3093 82.0071 18.3498 81.3843 19.229L83.0164 20.385C83.799 19.2802 84.3634 18.0061 84.7205 16.5775L82.7802 16.0925ZM81.3763 19.2405C80.7857 20.0996 80.028 20.7781 79.0913 21.2825L80.0395 23.0435C81.2521 22.3905 82.2511 21.4984 83.0244 20.3735L81.3763 19.2405ZM79.1046 21.2755C78.2012 21.7446 77.0851 22 75.7214 22V24C77.3336 24 78.7802 23.6974 80.0262 23.0505L79.1046 21.2755ZM75.7214 22H64.5614V24H75.7214V22ZM75.7214 19.474C76.473 19.474 77.158 19.2246 77.7087 18.7062L76.338 17.2498C76.1861 17.3928 76.0031 17.474 75.7214 17.474V19.474ZM77.6877 18.7254C78.2041 18.2664 78.5766 17.6741 78.8291 16.9923L76.9536 16.2977C76.7928 16.7319 76.5866 17.0283 76.359 17.2306L77.6877 18.7254ZM78.8221 17.0107C79.0886 16.3323 79.2605 15.5706 79.3506 14.7375L77.3622 14.5225C77.2869 15.2187 77.1488 15.8004 76.9606 16.2793L78.8221 17.0107ZM79.3474 14.7639C79.4575 13.9488 79.5114 13.0769 79.5114 12.15H77.5114C77.5114 13.0004 77.4619 13.7819 77.3654 14.4961L79.3474 14.7639ZM79.5114 12.15C79.5114 11.2426 79.4574 10.3812 79.3474 9.56708L77.3654 9.83492C77.462 10.5501 77.5114 11.3214 77.5114 12.15H79.5114ZM79.3506 9.59352C79.2605 8.76037 79.0886 7.99871 78.8221 7.32035L76.9606 8.05165C77.1488 8.53062 77.2869 9.1123 77.3622 9.80848L79.3506 9.59352ZM78.8331 7.34966C78.583 6.64949 78.2114 6.04009 77.6877 5.57459L76.359 7.06941C76.5793 7.26524 76.7864 7.56517 76.9496 8.02234L78.8331 7.34966ZM77.7087 5.5938C77.158 5.07543 76.473 4.826 75.7214 4.826V6.826C76.0031 6.826 76.1861 6.90723 76.338 7.0502L77.7087 5.5938ZM75.7214 4.826H64.5614V6.826H75.7214V4.826ZM64.5614 4.826C63.81 4.826 63.1266 5.07454 62.564 5.57459L63.8927 7.06941C64.0742 6.90812 64.2794 6.826 64.5614 6.826V4.826ZM62.543 5.5938C62.0577 6.05052 61.6959 6.64243 61.4296 7.32035L63.2911 8.05165C63.4795 7.57224 63.6963 7.25481 63.9137 7.0502L62.543 5.5938ZM61.4186 7.34966C61.1835 8.00804 61.0148 8.75008 60.9044 9.56708L62.8864 9.83492C62.9826 9.12259 63.1239 8.52129 63.3021 8.02234L61.4186 7.34966ZM60.9012 9.59352C60.8142 10.3981 60.7714 11.2506 60.7714 12.15H62.7714C62.7714 11.3134 62.8112 10.5333 62.8896 9.80848L60.9012 9.59352ZM60.7714 12.15C60.7714 13.0692 60.8141 13.9321 60.9012 14.7375L62.8896 14.5225C62.8113 13.7985 62.7714 13.0081 62.7714 12.15H60.7714ZM60.9044 14.7639C61.0148 15.5809 61.1835 16.323 61.4186 16.9813L63.3021 16.3087C63.1239 15.8097 62.9826 15.2084 62.8864 14.4961L60.9044 14.7639ZM61.4343 17.0223C61.7027 17.6811 62.0646 18.2559 62.543 18.7062L63.9137 17.2498C63.6895 17.0388 63.4727 16.7249 63.2865 16.2677L61.4343 17.0223ZM62.564 18.7254C63.1266 19.2255 63.81 19.474 64.5614 19.474V17.474C64.2794 17.474 64.0742 17.3919 63.8927 17.2306L62.564 18.7254ZM64.5614 19.474H75.7214V17.474H64.5614V19.474ZM88.1202 1.3V0.299999H87.1202V1.3H88.1202ZM108.611 1.3H109.611V0.299999H108.611V1.3ZM108.611 5.826V6.826H109.611V5.826H108.611ZM93.7622 5.826V4.826H92.7622V5.826H93.7622ZM93.7622 23V24H94.7622V23H93.7622ZM88.1202 23H87.1202V24H88.1202V23ZM88.1202 2.3H108.611V0.299999H88.1202V2.3ZM107.611 1.3V5.826H109.611V1.3H107.611ZM108.611 4.826H93.7622V6.826H108.611V4.826ZM92.7622 5.826V23H94.7622V5.826H92.7622ZM93.7622 22H88.1202V24H93.7622V22ZM89.1202 23V1.3H87.1202V23H89.1202Z" fill="#FECE00"/>
</svg>
