<svg width="435" height="43" viewBox="0 0 435 43" fill="none" xmlns="http://www.w3.org/2000/svg">
<path d="M44.3 -2.38419e-06V27.7H50.05V42.9H41.85V35H8.7V42.9H0.5V27.7H5.8C8.13333 23.5667 9.71667 19.1833 10.55 14.55C11.4167 9.88333 11.85 5.03333 11.85 -2.38419e-06H44.3ZM20.2 7.3C19.9333 10.9667 19.4167 14.5167 18.65 17.95C17.8833 21.35 16.7167 24.6 15.15 27.7H35.2V7.3H20.2ZM66.793 35C64.393 35 62.3263 34.55 60.593 33.65C58.8596 32.7167 57.4263 31.45 56.293 29.85C55.193 28.25 54.3763 26.3833 53.843 24.25C53.3096 22.1167 53.043 19.85 53.043 17.45C53.043 15.05 53.3096 12.7833 53.843 10.65C54.3763 8.51667 55.193 6.66667 56.293 5.1C57.4263 3.53333 58.8596 2.3 60.593 1.4C62.3263 0.466664 64.393 -2.38419e-06 66.793 -2.38419e-06H84.793C87.193 -2.38419e-06 89.2596 0.466664 90.993 1.4C92.7263 2.3 94.143 3.53333 95.243 5.1C96.3763 6.66667 97.2096 8.51667 97.743 10.65C98.2763 12.7833 98.543 15.05 98.543 17.45C98.543 19.85 98.2763 22.1167 97.743 24.25C97.2096 26.3833 96.3763 28.25 95.243 29.85C94.143 31.45 92.7263 32.7167 90.993 33.65C89.2596 34.55 87.193 35 84.793 35H66.793ZM84.793 27.7C85.6263 27.7 86.3263 27.4333 86.893 26.9C87.493 26.3667 87.9596 25.65 88.293 24.75C88.6596 23.8167 88.9096 22.7333 89.043 21.5C89.2096 20.2667 89.293 18.9333 89.293 17.5C89.293 16.1 89.2096 14.7833 89.043 13.55C88.9096 12.3167 88.6596 11.2333 88.293 10.3C87.9596 9.36667 87.493 8.63333 86.893 8.1C86.3263 7.56667 85.6263 7.3 84.793 7.3H66.793C65.9596 7.3 65.243 7.56667 64.643 8.1C64.0763 8.63333 63.6096 9.36667 63.243 10.3C62.9096 11.2333 62.6596 12.3167 62.493 13.55C62.3596 14.7833 62.293 16.1 62.293 17.5C62.293 18.9333 62.3596 20.2667 62.493 21.5C62.6596 22.7333 62.9096 23.8167 63.243 24.75C63.6096 25.65 64.0763 26.3667 64.643 26.9C65.243 27.4333 65.9596 27.7 66.793 27.7H84.793ZM127.441 20.6H113.891V35H104.791V-2.38419e-06H113.891V13.3H128.041L135.641 -2.38419e-06H144.741L135.091 16.95L145.241 35H135.141L127.441 20.6ZM147.725 -2.38419e-06H158.175L172.275 19.55L181.475 -2.38419e-06H190.575L178.125 26.65C177.391 28.2167 176.641 29.5333 175.875 30.6C175.141 31.6667 174.325 32.5333 173.425 33.2C172.525 33.8333 171.508 34.3 170.375 34.6C169.275 34.8667 167.991 35 166.525 35H161.125C158.825 35 156.975 34.55 155.575 33.65C154.208 32.75 153.041 31.3 152.075 29.3L159.075 26.7C159.308 27.2667 159.625 27.7333 160.025 28.1C160.425 28.4333 161.041 28.6 161.875 28.6H165.625C167.225 28.6 168.341 27.9333 168.975 26.6L170.175 24.05H164.875L147.725 -2.38419e-06ZM204.196 7V35H195.096V-2.38419e-06H210.246L220.696 23.7L230.746 -2.38419e-06H245.796V35H236.696V6.65L224.496 35H216.396L204.196 7ZM254.311 -2.38419e-06H288.361V7.3H263.411V13.75H279.211V21.05H263.411V27.7H288.361V35H254.311V-2.38419e-06ZM325.017 21.05H304.217V35H295.117V-2.38419e-06H304.217V13.75H325.017V-2.38419e-06H334.117V35H325.017V21.05ZM339.613 -2.38419e-06H378.613V7.3H363.663V35H354.563V7.3H339.613V-2.38419e-06ZM384.104 -2.38419e-06H393.204V11.9H410.504C412.67 11.9 414.504 12.2 416.004 12.8C417.504 13.4 418.72 14.2333 419.654 15.3C420.62 16.3333 421.304 17.55 421.704 18.95C422.137 20.3167 422.354 21.8 422.354 23.4C422.354 25 422.137 26.5 421.704 27.9C421.304 29.3 420.62 30.5333 419.654 31.6C418.72 32.6333 417.487 33.4667 415.954 34.1C414.42 34.7 412.554 35 410.354 35H384.104V-2.38419e-06ZM425.504 -2.38419e-06H434.604V35H425.504V-2.38419e-06ZM393.204 19.2V27.7H410.354C411.354 27.7 412.087 27.2667 412.554 26.4C413.02 25.5 413.254 24.5167 413.254 23.45C413.254 22.3833 413.02 21.4167 412.554 20.55C412.087 19.65 411.354 19.2 410.354 19.2H393.204Z" fill="#4F4F4F"/>
</svg>
