<svg width="437" height="45" viewBox="0 0 437 45" fill="none" xmlns="http://www.w3.org/2000/svg">
<path d="M45.3 0.999998H46.3V-2.38419e-06H45.3V0.999998ZM45.3 28.7H44.3V29.7H45.3V28.7ZM51.05 28.7H52.05V27.7H51.05V28.7ZM51.05 43.9V44.9H52.05V43.9H51.05ZM42.85 43.9H41.85V44.9H42.85V43.9ZM42.85 36H43.85V35H42.85V36ZM9.7 36V35H8.7V36H9.7ZM9.7 43.9V44.9H10.7V43.9H9.7ZM1.5 43.9H0.5V44.9H1.5V43.9ZM1.5 28.7V27.7H0.5V28.7H1.5ZM6.8 28.7V29.7H7.38382L7.67082 29.1916L6.8 28.7ZM11.55 15.55L10.5668 15.3674L10.5658 15.373L11.55 15.55ZM12.85 0.999998V-2.38419e-06H11.85V0.999998H12.85ZM21.2 8.3V7.3H20.2701L20.2026 8.22746L21.2 8.3ZM19.65 18.95L20.6255 19.17L20.626 19.1679L19.65 18.95ZM16.15 28.7L15.2575 28.249L14.5242 29.7H16.15V28.7ZM36.2 28.7V29.7H37.2V28.7H36.2ZM36.2 8.3H37.2V7.3H36.2V8.3ZM44.3 0.999998V28.7H46.3V0.999998H44.3ZM45.3 29.7H51.05V27.7H45.3V29.7ZM50.05 28.7V43.9H52.05V28.7H50.05ZM51.05 42.9H42.85V44.9H51.05V42.9ZM43.85 43.9V36H41.85V43.9H43.85ZM42.85 35H9.7V37H42.85V35ZM8.7 36V43.9H10.7V36H8.7ZM9.7 42.9H1.5V44.9H9.7V42.9ZM2.5 43.9V28.7H0.5V43.9H2.5ZM1.5 29.7H6.8V27.7H1.5V29.7ZM7.67082 29.1916C10.0589 24.9613 11.6808 20.4718 12.5342 15.727L10.5658 15.373C9.7525 19.8949 8.20779 24.172 5.92918 28.2084L7.67082 29.1916ZM12.5332 15.7326C13.4117 11.0022 13.85 6.09091 13.85 0.999998H11.85C11.85 5.97575 11.4216 10.7645 10.5668 15.3674L12.5332 15.7326ZM12.85 2H45.3V-2.38419e-06H12.85V2ZM20.2026 8.22746C19.9394 11.8474 19.4295 15.3487 18.674 18.7321L20.626 19.1679C21.4038 15.6846 21.9273 12.0859 22.1974 8.37253L20.2026 8.22746ZM18.6745 18.73C17.9258 22.0502 16.787 25.2225 15.2575 28.249L17.0425 29.151C18.6464 25.9775 19.8408 22.6498 20.6255 19.17L18.6745 18.73ZM16.15 29.7H36.2V27.7H16.15V29.7ZM37.2 28.7V8.3H35.2V28.7H37.2ZM36.2 7.3H21.2V9.3H36.2V7.3ZM61.593 34.65L61.1189 35.5305L61.1255 35.534L61.1322 35.5375L61.593 34.65ZM57.293 30.85L56.4688 31.4166L56.4769 31.428L57.293 30.85ZM54.843 25.25L53.8728 25.4925L54.843 25.25ZM54.843 11.65L53.8728 11.4075L54.843 11.65ZM57.293 6.1L56.4827 5.51382L56.4746 5.52537L57.293 6.1ZM61.593 2.4L62.0538 3.28749L62.0605 3.28403L62.0671 3.28047L61.593 2.4ZM91.993 2.4L91.5189 3.28047L91.5255 3.28403L91.5322 3.28749L91.993 2.4ZM96.243 6.1L95.4245 6.67469L95.4327 6.68612L96.243 6.1ZM98.743 11.65L97.7728 11.8925V11.8925L98.743 11.65ZM98.743 25.25L97.7728 25.0075V25.0075L98.743 25.25ZM96.243 30.85L95.4269 30.2719L95.4189 30.2835L96.243 30.85ZM91.993 34.65L92.4538 35.5375L92.4605 35.534L92.4671 35.5305L91.993 34.65ZM87.893 27.9L87.2286 27.1526L87.218 27.162L87.2076 27.1718L87.893 27.9ZM89.293 25.75L88.3622 25.3843L88.3586 25.3935L88.3552 25.4027L89.293 25.75ZM90.043 22.5L89.052 22.3661L89.0502 22.3793L89.0488 22.3925L90.043 22.5ZM90.043 14.55L89.0488 14.6575L89.0502 14.6707L89.052 14.6839L90.043 14.55ZM89.293 11.3L88.3512 11.6363L88.3565 11.6511L88.3622 11.6657L89.293 11.3ZM87.893 9.1L87.2076 9.8282L87.218 9.83795L87.2286 9.84741L87.893 9.1ZM65.643 9.1L64.9786 8.35259L64.968 8.36204L64.9576 8.3718L65.643 9.1ZM64.243 11.3L63.3122 10.9343L63.3065 10.9489L63.3012 10.9637L64.243 11.3ZM63.493 14.55L62.502 14.4161L62.5002 14.4293L62.4988 14.4425L63.493 14.55ZM63.493 22.5L62.4988 22.6075L62.5002 22.6207L62.502 22.6339L63.493 22.5ZM64.243 25.75L63.3012 26.0863L63.3086 26.107L63.3169 26.1273L64.243 25.75ZM65.643 27.9L64.9576 28.6282L64.968 28.638L64.9786 28.6474L65.643 27.9ZM67.793 35C65.5172 35 63.6158 34.5736 62.0538 33.7625L61.1322 35.5375C63.0368 36.5264 65.2687 37 67.793 37V35ZM62.0671 33.7695C60.4689 32.909 59.1528 31.7456 58.109 30.272L56.4769 31.428C57.6998 33.1544 59.2503 34.5243 61.1189 35.5305L62.0671 33.7695ZM58.117 30.2835C57.093 28.794 56.3213 27.0402 55.8131 25.0075L53.8728 25.4925C54.4313 27.7265 55.2929 29.706 56.4689 31.4165L58.117 30.2835ZM55.8131 25.0075C55.3013 22.9603 55.043 20.7756 55.043 18.45H53.043C53.043 20.9244 53.3179 23.273 53.8728 25.4925L55.8131 25.0075ZM55.043 18.45C55.043 16.1244 55.3013 13.9397 55.8131 11.8925L53.8728 11.4075C53.3179 13.627 53.043 15.9756 53.043 18.45H55.043ZM55.8131 11.8925C56.321 9.86078 57.0916 8.12708 58.1114 6.67463L56.4746 5.52537C55.2944 7.20625 54.4316 9.17255 53.8728 11.4075L55.8131 11.8925ZM58.1032 6.68612C59.1442 5.24709 60.4574 4.1164 62.0538 3.28749L61.1322 1.5125C59.2619 2.4836 57.7084 3.81957 56.4827 5.51388L58.1032 6.68612ZM62.0671 3.28047C63.6261 2.44102 65.5226 2 67.793 2V-2.38419e-06C65.2634 -2.38419e-06 63.0266 0.492312 61.1189 1.51953L62.0671 3.28047ZM67.793 2H85.793V-2.38419e-06H67.793V2ZM85.793 2C88.0634 2 89.9599 2.44102 91.5189 3.28047L92.4671 1.51953C90.5594 0.492312 88.3225 -2.38419e-06 85.793 -2.38419e-06V2ZM91.5322 3.28749C93.1259 4.11501 94.4188 5.24221 95.4246 6.67463L97.0614 5.52537C95.8671 3.82446 94.3267 2.48499 92.4538 1.5125L91.5322 3.28749ZM95.4327 6.68612C96.4818 8.1363 97.2662 9.86603 97.7728 11.8925L99.7131 11.4075C99.1531 9.1673 98.2708 7.19703 97.0532 5.51388L95.4327 6.68612ZM97.7728 11.8925C98.2846 13.9397 98.543 16.1244 98.543 18.45H100.543C100.543 15.9756 100.268 13.627 99.7131 11.4075L97.7728 11.8925ZM98.543 18.45C98.543 20.7756 98.2846 22.9603 97.7728 25.0075L99.7131 25.4925C100.268 23.273 100.543 20.9244 100.543 18.45H98.543ZM97.7728 25.0075C97.266 27.0349 96.4803 28.7848 95.4269 30.272L97.059 31.428C98.2723 29.7152 99.1533 27.7317 99.7131 25.4925L97.7728 25.0075ZM95.4189 30.2835C94.4103 31.7506 93.1143 32.9105 91.5189 33.7695L92.4671 35.5305C94.3383 34.5229 95.8757 33.1494 97.067 31.4165L95.4189 30.2835ZM91.5322 33.7625C89.9701 34.5736 88.0687 35 85.793 35V37C88.3172 37 90.5491 36.5264 92.4538 35.5375L91.5322 33.7625ZM85.793 35H67.793V37H85.793V35ZM85.793 29.7C86.8612 29.7 87.8122 29.3492 88.5783 28.6282L87.2076 27.1718C86.8404 27.5174 86.3914 27.7 85.793 27.7V29.7ZM88.5573 28.6474C89.3017 27.9857 89.8515 27.1211 90.2307 26.0973L88.3552 25.4027C88.0677 26.1789 87.6842 26.7476 87.2286 27.1526L88.5573 28.6474ZM90.2237 26.1157C90.6296 25.0826 90.8964 23.9093 91.0372 22.6075L89.0488 22.3925C88.9228 23.5574 88.6897 24.5507 88.3622 25.3843L90.2237 26.1157ZM91.034 22.6339C91.2075 21.3501 91.293 19.9716 91.293 18.5H89.293C89.293 19.8951 89.2118 21.1832 89.052 22.3661L91.034 22.6339ZM91.293 18.5C91.293 17.0606 91.2073 15.6989 91.034 14.4161L89.052 14.6839C89.212 15.8678 89.293 17.1394 89.293 18.5H91.293ZM91.0372 14.4425C90.8964 13.1407 90.6296 11.9674 90.2237 10.9343L88.3622 11.6657C88.6897 12.4993 88.9228 13.4926 89.0488 14.6575L91.0372 14.4425ZM90.2347 10.9637C89.858 9.90883 89.309 9.02075 88.5573 8.35259L87.2286 9.84741C87.6769 10.2459 88.0613 10.8245 88.3512 11.6363L90.2347 10.9637ZM88.5783 8.3718C87.8122 7.65076 86.8612 7.3 85.793 7.3V9.3C86.3914 9.3 86.8404 9.48257 87.2076 9.8282L88.5783 8.3718ZM85.793 7.3H67.793V9.3H85.793V7.3ZM67.793 7.3C66.7249 7.3 65.7692 7.64988 64.9786 8.35259L66.3073 9.84741C66.7168 9.48345 67.1943 9.3 67.793 9.3V7.3ZM64.9576 8.3718C64.257 9.03119 63.7179 9.90176 63.3122 10.9343L65.1737 11.6657C65.5014 10.8316 65.8956 10.2355 66.3283 9.8282L64.9576 8.3718ZM63.3012 10.9637C62.9394 11.9767 62.6757 13.1304 62.502 14.4161L64.484 14.6839C64.6436 13.5029 64.8798 12.49 65.1847 11.6363L63.3012 10.9637ZM62.4988 14.4425C62.3611 15.7157 62.293 17.0686 62.293 18.5H64.293C64.293 17.1314 64.3582 15.8509 64.4872 14.6575L62.4988 14.4425ZM62.293 18.5C62.293 19.9639 62.361 21.3335 62.4988 22.6075L64.4872 22.3925C64.3582 21.1999 64.293 19.9028 64.293 18.5H62.293ZM62.502 22.6339C62.6757 23.9196 62.9394 25.0733 63.3012 26.0863L65.1847 25.4137C64.8798 24.56 64.6436 23.5471 64.484 22.3661L62.502 22.6339ZM63.3169 26.1273C63.7246 27.1281 64.2638 27.9752 64.9576 28.6282L66.3283 27.1718C65.8888 26.7581 65.4947 26.1719 65.1691 25.3727L63.3169 26.1273ZM64.9786 28.6474C65.7692 29.3501 66.7249 29.7 67.793 29.7V27.7C67.1943 27.7 66.7168 27.5165 66.3073 27.1526L64.9786 28.6474ZM67.793 29.7H85.793V27.7H67.793V29.7ZM128.441 21.6L129.323 21.1285L129.04 20.6H128.441V21.6ZM114.891 21.6V20.6H113.891V21.6H114.891ZM114.891 36V37H115.891V36H114.891ZM105.791 36H104.791V37H105.791V36ZM105.791 0.999998V-2.38419e-06H104.791V0.999998H105.791ZM114.891 0.999998H115.891V-2.38419e-06H114.891V0.999998ZM114.891 14.3H113.891V15.3H114.891V14.3ZM129.041 14.3V15.3H129.621L129.909 14.7961L129.041 14.3ZM136.641 0.999998V-2.38419e-06H136.061L135.773 0.503859L136.641 0.999998ZM145.741 0.999998L146.61 1.49476L147.461 -2.38419e-06H145.741V0.999998ZM136.091 17.95L135.222 17.4552L134.942 17.947L135.219 18.4401L136.091 17.95ZM146.241 36V37H147.951L147.113 35.5099L146.241 36ZM136.141 36L135.259 36.4715L135.542 37H136.141V36ZM128.441 20.6H114.891V22.6H128.441V20.6ZM113.891 21.6V36H115.891V21.6H113.891ZM114.891 35H105.791V37H114.891V35ZM106.791 36V0.999998H104.791V36H106.791ZM105.791 2H114.891V-2.38419e-06H105.791V2ZM113.891 0.999998V14.3H115.891V0.999998H113.891ZM114.891 15.3H129.041V13.3H114.891V15.3ZM129.909 14.7961L137.509 1.49614L135.773 0.503859L128.173 13.8039L129.909 14.7961ZM136.641 2H145.741V-2.38419e-06H136.641V2ZM144.872 0.50524L135.222 17.4552L136.96 18.4448L146.61 1.49476L144.872 0.50524ZM135.219 18.4401L145.369 36.4901L147.113 35.5099L136.963 17.4599L135.219 18.4401ZM146.241 35H136.141V37H146.241V35ZM137.023 35.5285L129.323 21.1285L127.559 22.0715L135.259 36.4715L137.023 35.5285ZM148.725 0.999998V-2.38419e-06H146.783L147.91 1.5806L148.725 0.999998ZM159.175 0.999998L159.986 0.415037L159.686 -2.38419e-06H159.175V0.999998ZM173.275 20.55L172.464 21.135L173.457 22.5118L174.179 20.9758L173.275 20.55ZM182.475 0.999998V-2.38419e-06H181.84L181.57 0.574201L182.475 0.999998ZM191.575 0.999998L192.481 1.42326L193.146 -2.38419e-06H191.575V0.999998ZM179.125 27.65L180.03 28.0739L180.031 28.0733L179.125 27.65ZM176.875 31.6L176.063 31.0164L176.056 31.0249L176.051 31.0335L176.875 31.6ZM174.425 34.2L175 35.0178L175.01 35.0108L175.02 35.0036L174.425 34.2ZM171.375 35.6L171.61 36.5718L171.62 36.5694L171.631 36.5667L171.375 35.6ZM156.575 34.65L156.025 35.4852L156.034 35.4912L156.575 34.65ZM153.075 30.3L152.726 29.3626L151.696 29.7454L152.174 30.7352L153.075 30.3ZM160.075 27.7L160.999 27.3193L160.632 26.4264L159.726 26.7626L160.075 27.7ZM161.025 29.1L160.349 29.8372L160.366 29.8531L160.384 29.8682L161.025 29.1ZM169.975 27.6L170.878 28.0291L170.879 28.0258L169.975 27.6ZM171.175 25.05L172.079 25.4758L172.75 24.05H171.175V25.05ZM165.875 25.05L165.06 25.6306L165.359 26.05H165.875V25.05ZM148.725 2H159.175V-2.38419e-06H148.725V2ZM158.364 1.58496L172.464 21.135L174.086 19.965L159.986 0.415037L158.364 1.58496ZM174.179 20.9758L183.379 1.42579L181.57 0.574201L172.37 20.1242L174.179 20.9758ZM182.475 2H191.575V-2.38419e-06H182.475V2ZM190.669 0.57674L178.219 27.2267L180.031 28.0733L192.481 1.42326L190.669 0.57674ZM178.219 27.2261C177.504 28.7532 176.784 30.0128 176.063 31.0164L177.687 32.1836C178.499 31.0539 179.278 29.6801 180.03 28.0739L178.219 27.2261ZM176.051 31.0335C175.37 32.0229 174.628 32.8049 173.829 33.3964L175.02 35.0036C176.021 34.2617 176.912 33.3104 177.699 32.1665L176.051 31.0335ZM173.849 33.3822C173.052 33.943 172.145 34.3616 171.119 34.6333L171.631 36.5667C172.871 36.2384 173.997 35.7237 175 35.0178L173.849 33.3822ZM171.139 34.6282C170.135 34.8716 168.934 35 167.525 35V37C169.049 37 170.414 36.8618 171.61 36.5718L171.139 34.6282ZM167.525 35H162.125V37H167.525V35ZM162.125 35C159.946 35 158.303 34.5726 157.115 33.8088L156.034 35.4912C157.646 36.5274 159.703 37 162.125 37V35ZM157.125 33.8148C155.953 33.0435 154.89 31.7583 153.975 29.8648L152.174 30.7352C153.192 32.8417 154.463 34.4565 156.025 35.4852L157.125 33.8148ZM153.423 31.2374L160.423 28.6374L159.726 26.7626L152.726 29.3626L153.423 31.2374ZM159.15 28.0807C159.432 28.7654 159.828 29.3593 160.349 29.8372L161.7 28.3628C161.422 28.1074 161.184 27.7679 160.999 27.3193L159.15 28.0807ZM160.384 29.8682C161.044 30.4182 161.939 30.6 162.875 30.6V28.6C162.143 28.6 161.805 28.4484 161.665 28.3318L160.384 29.8682ZM162.875 30.6H166.625V28.6H162.875V30.6ZM166.625 30.6C167.564 30.6 168.429 30.4036 169.175 29.9586C169.925 29.5106 170.488 28.8495 170.878 28.0291L169.071 27.1709C168.828 27.6838 168.516 28.0227 168.15 28.2414C167.778 28.463 167.286 28.6 166.625 28.6V30.6ZM170.879 28.0258L172.079 25.4758L170.27 24.6242L169.07 27.1742L170.879 28.0258ZM171.175 24.05H165.875V26.05H171.175V24.05ZM166.689 24.4694L149.539 0.4194L147.91 1.5806L165.06 25.6306L166.689 24.4694ZM205.196 8L206.112 7.60056L204.196 8H205.196ZM205.196 36V37H206.196V36H205.196ZM196.096 36H195.096V37H196.096V36ZM196.096 0.999998V-2.38419e-06H195.096V0.999998H196.096ZM211.246 0.999998L212.161 0.596548L211.898 -2.38419e-06H211.246V0.999998ZM221.696 24.7L220.781 25.1034L221.714 27.2192L222.616 25.0904L221.696 24.7ZM231.746 0.999998V-2.38419e-06H231.084L230.825 0.609597L231.746 0.999998ZM246.796 0.999998H247.796V-2.38419e-06H246.796V0.999998ZM246.796 36V37H247.796V36H246.796ZM237.696 36H236.696V37H237.696V36ZM237.696 7.65H238.696L236.777 7.25471L237.696 7.65ZM225.496 36V37H226.154L226.414 36.3953L225.496 36ZM217.396 36L216.479 36.3994L216.741 37H217.396V36ZM204.196 8V36H206.196V8H204.196ZM205.196 35H196.096V37H205.196V35ZM197.096 36V0.999998H195.096V36H197.096ZM196.096 2H211.246V-2.38419e-06H196.096V2ZM210.331 1.40345L220.781 25.1034L222.611 24.2965L212.161 0.596548L210.331 1.40345ZM222.616 25.0904L232.666 1.3904L230.825 0.609597L220.775 24.3096L222.616 25.0904ZM231.746 2H246.796V-2.38419e-06H231.746V2ZM245.796 0.999998V36H247.796V0.999998H245.796ZM246.796 35H237.696V37H246.796V35ZM238.696 36V7.65H236.696V36H238.696ZM236.777 7.25471L224.577 35.6047L226.414 36.3953L238.614 8.04529L236.777 7.25471ZM225.496 35H217.396V37H225.496V35ZM218.312 35.6006L206.112 7.60056L204.279 8.39944L216.479 36.3994L218.312 35.6006ZM255.311 0.999998V-2.38419e-06H254.311V0.999998H255.311ZM289.361 0.999998H290.361V-2.38419e-06H289.361V0.999998ZM289.361 8.3V9.3H290.361V8.3H289.361ZM264.411 8.3V7.3H263.411V8.3H264.411ZM264.411 14.75H263.411V15.75H264.411V14.75ZM280.211 14.75H281.211V13.75H280.211V14.75ZM280.211 22.05V23.05H281.211V22.05H280.211ZM264.411 22.05V21.05H263.411V22.05H264.411ZM264.411 28.7H263.411V29.7H264.411V28.7ZM289.361 28.7H290.361V27.7H289.361V28.7ZM289.361 36V37H290.361V36H289.361ZM255.311 36H254.311V37H255.311V36ZM255.311 2H289.361V-2.38419e-06H255.311V2ZM288.361 0.999998V8.3H290.361V0.999998H288.361ZM289.361 7.3H264.411V9.3H289.361V7.3ZM263.411 8.3V14.75H265.411V8.3H263.411ZM264.411 15.75H280.211V13.75H264.411V15.75ZM279.211 14.75V22.05H281.211V14.75H279.211ZM280.211 21.05H264.411V23.05H280.211V21.05ZM263.411 22.05V28.7H265.411V22.05H263.411ZM264.411 29.7H289.361V27.7H264.411V29.7ZM288.361 28.7V36H290.361V28.7H288.361ZM289.361 35H255.311V37H289.361V35ZM256.311 36V0.999998H254.311V36H256.311ZM326.017 22.05H327.017V21.05H326.017V22.05ZM305.217 22.05V21.05H304.217V22.05H305.217ZM305.217 36V37H306.217V36H305.217ZM296.117 36H295.117V37H296.117V36ZM296.117 0.999998V-2.38419e-06H295.117V0.999998H296.117ZM305.217 0.999998H306.217V-2.38419e-06H305.217V0.999998ZM305.217 14.75H304.217V15.75H305.217V14.75ZM326.017 14.75V15.75H327.017V14.75H326.017ZM326.017 0.999998V-2.38419e-06H325.017V0.999998H326.017ZM335.117 0.999998H336.117V-2.38419e-06H335.117V0.999998ZM335.117 36V37H336.117V36H335.117ZM326.017 36H325.017V37H326.017V36ZM326.017 21.05H305.217V23.05H326.017V21.05ZM304.217 22.05V36H306.217V22.05H304.217ZM305.217 35H296.117V37H305.217V35ZM297.117 36V0.999998H295.117V36H297.117ZM296.117 2H305.217V-2.38419e-06H296.117V2ZM304.217 0.999998V14.75H306.217V0.999998H304.217ZM305.217 15.75H326.017V13.75H305.217V15.75ZM327.017 14.75V0.999998H325.017V14.75H327.017ZM326.017 2H335.117V-2.38419e-06H326.017V2ZM334.117 0.999998V36H336.117V0.999998H334.117ZM335.117 35H326.017V37H335.117V35ZM327.017 36V22.05H325.017V36H327.017ZM340.613 0.999998V-2.38419e-06H339.613V0.999998H340.613ZM379.613 0.999998H380.613V-2.38419e-06H379.613V0.999998ZM379.613 8.3V9.3H380.613V8.3H379.613ZM364.663 8.3V7.3H363.663V8.3H364.663ZM364.663 36V37H365.663V36H364.663ZM355.563 36H354.563V37H355.563V36ZM355.563 8.3H356.563V7.3H355.563V8.3ZM340.613 8.3H339.613V9.3H340.613V8.3ZM340.613 2H379.613V-2.38419e-06H340.613V2ZM378.613 0.999998V8.3H380.613V0.999998H378.613ZM379.613 7.3H364.663V9.3H379.613V7.3ZM363.663 8.3V36H365.663V8.3H363.663ZM364.663 35H355.563V37H364.663V35ZM356.563 36V8.3H354.563V36H356.563ZM355.563 7.3H340.613V9.3H355.563V7.3ZM341.613 8.3V0.999998H339.613V8.3H341.613ZM385.104 0.999998V-2.38419e-06H384.104V0.999998H385.104ZM394.204 0.999998H395.204V-2.38419e-06H394.204V0.999998ZM394.204 12.9H393.204V13.9H394.204V12.9ZM417.004 13.8L417.375 12.8715L417.004 13.8ZM420.654 16.3L419.901 16.9585L419.912 16.971L419.923 16.9832L420.654 16.3ZM422.704 19.95L421.742 20.2247L421.746 20.2385L421.75 20.2522L422.704 19.95ZM422.704 28.9L421.748 28.6043L421.745 28.6148L421.742 28.6253L422.704 28.9ZM420.654 32.6L419.913 31.9285L419.911 31.9297L420.654 32.6ZM416.954 35.1L417.318 36.0312L417.327 36.0278L417.335 36.0243L416.954 35.1ZM385.104 36H384.104V37H385.104V36ZM426.504 0.999998V-2.38419e-06H425.504V0.999998H426.504ZM435.604 0.999998H436.604V-2.38419e-06H435.604V0.999998ZM435.604 36V37H436.604V36H435.604ZM426.504 36H425.504V37H426.504V36ZM394.204 20.2V19.2H393.204V20.2H394.204ZM394.204 28.7H393.204V29.7H394.204V28.7ZM413.554 27.4L414.434 27.8741L414.438 27.8672L414.441 27.8603L413.554 27.4ZM413.554 21.55L412.666 22.0103L412.669 22.0172L412.673 22.0241L413.554 21.55ZM385.104 2H394.204V-2.38419e-06H385.104V2ZM393.204 0.999998V12.9H395.204V0.999998H393.204ZM394.204 13.9H411.504V11.9H394.204V13.9ZM411.504 13.9C413.584 13.9 415.283 14.1888 416.632 14.7285L417.375 12.8715C415.724 12.2112 413.757 11.9 411.504 11.9V13.9ZM416.632 14.7285C418.006 15.2781 419.085 16.0263 419.901 16.9585L421.406 15.6415C420.355 14.4403 419.001 13.5219 417.375 12.8715L416.632 14.7285ZM419.923 16.9832C420.778 17.8972 421.384 18.9727 421.742 20.2247L423.665 19.6753C423.223 18.1273 422.462 16.7695 421.384 15.6168L419.923 16.9832ZM421.75 20.2522C422.149 21.5105 422.354 22.8908 422.354 24.4H424.354C424.354 22.7092 424.124 21.1228 423.657 19.6478L421.75 20.2522ZM422.354 24.4C422.354 25.9089 422.149 27.3084 421.748 28.6043L423.659 29.1957C424.124 27.6916 424.354 26.0911 424.354 24.4H422.354ZM421.742 28.6253C421.384 29.8796 420.775 30.9768 419.913 31.9285L421.395 33.2715C422.465 32.0899 423.223 30.7204 423.665 29.1747L421.742 28.6253ZM419.911 31.9297C419.095 32.8335 417.994 33.5885 416.572 34.1757L417.335 36.0243C418.98 35.3449 420.345 34.4332 421.396 33.2703L419.911 31.9297ZM416.589 34.1688C415.204 34.7109 413.468 35 411.354 35V37C413.639 37 415.637 36.6891 417.318 36.0312L416.589 34.1688ZM411.354 35H385.104V37H411.354V35ZM386.104 36V0.999998H384.104V36H386.104ZM426.504 2H435.604V-2.38419e-06H426.504V2ZM434.604 0.999998V36H436.604V0.999998H434.604ZM435.604 35H426.504V37H435.604V35ZM427.504 36V0.999998H425.504V36H427.504ZM393.204 20.2V28.7H395.204V20.2H393.204ZM394.204 29.7H411.354V27.7H394.204V29.7ZM411.354 29.7C412.001 29.7 412.617 29.5584 413.162 29.2359C413.709 28.9129 414.128 28.4425 414.434 27.8741L412.673 26.9259C412.512 27.2242 412.332 27.4037 412.145 27.5141C411.957 27.6249 411.706 27.7 411.354 27.7V29.7ZM414.441 27.8603C414.986 26.8106 415.254 25.6683 415.254 24.45H413.254C413.254 25.3651 413.055 26.1894 412.666 26.9397L414.441 27.8603ZM415.254 24.45C415.254 23.232 414.986 22.1003 414.434 21.0759L412.673 22.0241C413.055 22.733 413.254 23.5346 413.254 24.45H415.254ZM414.441 21.0897C414.139 20.5074 413.724 20.021 413.177 19.6852C412.628 19.3488 412.008 19.2 411.354 19.2V21.2C411.699 21.2 411.945 21.2762 412.13 21.3898C412.316 21.504 412.501 21.6926 412.666 22.0103L414.441 21.0897ZM411.354 19.2H394.204V21.2H411.354V19.2Z" fill="#4F4F4F"/>
</svg>
