<svg width="168" height="27" viewBox="0 0 168 27" fill="none" xmlns="http://www.w3.org/2000/svg">
<path d="M22.6137 12.9122H24.0746L24.0675 12.8147C23.7074 7.3245 19.0926 3.02333 13.5649 3.02333C9.30701 3.02333 5.40209 5.6537 3.80301 9.58393L1.5177 7.30878C2.65523 5.10498 4.38196 3.25644 6.50763 1.96685C8.6333 0.677249 11.0754 -0.00335802 13.5649 1.24578e-05C21.0439 1.24578e-05 27.1291 6.05607 27.1291 13.5C27.1276 14.6788 26.9704 15.8522 26.6616 16.9901L22.6137 12.9122Z" fill="#242628"/>
<path d="M19.9945 11.1203C19.4827 9.93617 18.5342 8.99228 17.3444 8.4829C16.7329 8.21637 16.0724 8.0796 15.4049 8.08131H7.89832V11.0677H15.4049C15.983 11.0677 16.4473 11.2516 16.8263 11.6304C17.2054 12.0092 17.3917 12.4713 17.3917 13.045C17.3917 13.6187 17.207 14.0824 16.8263 14.4596C16.4457 14.8368 15.9814 15.0223 15.4049 15.0223H9.72877V24.8467H12.7295V18.0165H15.4033C16.0707 18.0192 16.7313 17.8832 17.3428 17.6173C18.5326 17.1079 19.4811 16.164 19.9929 14.9798C20.2575 14.3706 20.394 13.7138 20.394 13.0501C20.394 12.3863 20.2575 11.7296 19.9929 11.1203H19.9945Z" fill="#242628"/>
<path d="M23.3253 17.4177C22.7393 18.8481 21.8458 20.1335 20.7075 21.1836C20.6578 21.2292 20.6041 21.2701 20.5496 21.3149C19.7873 21.9917 18.9302 22.5548 18.0053 22.9865C17.9871 22.9951 17.9705 23.0053 17.9524 23.014C16.9978 23.4512 15.9825 23.7426 14.9406 23.8785C14.905 23.8832 14.8727 23.884 14.8371 23.8887C14.414 23.9436 13.9878 23.9722 13.561 23.9743C13.1371 23.9732 12.7136 23.9469 12.2928 23.8957C12.2581 23.891 12.2241 23.8895 12.1894 23.8847C11.147 23.7499 10.1312 23.4584 9.17676 23.0203C9.15781 23.0124 9.14122 23.0022 9.12306 22.9935C8.19821 22.5625 7.34138 21.9996 6.57953 21.3227C6.529 21.278 6.47609 21.2379 6.42634 21.1923C4.55439 19.4778 3.37044 17.1461 3.09393 14.6293L3.08366 14.5287H4.43084L0.463536 10.0217C0.156133 11.1571 0.000281733 12.328 0 13.5039C0 18.2562 2.44798 22.5715 6.53926 25.0486C8.1288 26.0061 9.89907 26.6283 11.7402 26.8767C13.5814 27.125 15.4542 26.9942 17.2425 26.4924C19.0308 25.9906 20.6964 25.1285 22.136 23.9595C23.5756 22.7905 24.7586 21.3396 25.6114 19.6967L23.3253 17.4177Z" fill="#242628"/>
<path d="M39.6311 22.1487C39.6373 22.2718 39.6124 22.3944 39.5587 22.5054C39.5051 22.6165 39.4244 22.7124 39.324 22.7845C39.1187 22.9322 38.8133 23.0061 38.408 23.0061H36.9684V19.8476H38.3677C38.7293 19.8476 39.0126 19.9176 39.2174 20.0575C39.3162 20.1225 39.3965 20.2119 39.4503 20.317C39.5042 20.4221 39.5297 20.5393 39.5245 20.6571C39.5288 20.8157 39.479 20.9711 39.3832 21.098C39.2811 21.2252 39.1439 21.32 38.9884 21.3707C39.4169 21.4702 39.6311 21.7296 39.6311 22.1487ZM37.383 21.2552H38.3361C38.5809 21.2552 38.7688 21.2093 38.8999 21.1176C38.964 21.0726 39.0156 21.0122 39.0499 20.942C39.0841 20.8717 39.0999 20.794 39.0958 20.716C39.0998 20.6393 39.0839 20.5629 39.0496 20.494C39.0153 20.4252 38.9637 20.3663 38.8999 20.3231C38.7699 20.2304 38.5819 20.184 38.3361 20.184H37.3837L37.383 21.2552ZM39.0042 22.5385C39.0722 22.4938 39.1271 22.4319 39.1632 22.3591C39.1993 22.2863 39.2152 22.2053 39.2095 22.1243C39.2156 22.0449 39.2017 21.9652 39.169 21.8925C39.1363 21.8197 39.0859 21.7563 39.0223 21.7078C38.8975 21.6172 38.7007 21.5721 38.4316 21.5726H37.3837V22.6729H38.3906C38.6638 22.6687 38.8686 22.6226 39.0049 22.5346L39.0042 22.5385Z" fill="#242628"/>
<path d="M41.1141 22.8261C40.8722 22.6914 40.672 22.4932 40.5353 22.2532C40.3969 21.9991 40.3245 21.7147 40.3245 21.4257C40.3245 21.1367 40.3969 20.8522 40.5353 20.5981C40.6715 20.3585 40.8719 20.1613 41.1141 20.0284C41.3686 19.8942 41.6522 19.824 41.9401 19.824C42.2281 19.824 42.5117 19.8942 42.7661 20.0284C43.0076 20.1612 43.207 20.3585 43.3418 20.5981C43.4781 20.8529 43.5494 21.1371 43.5494 21.4257C43.5494 21.7143 43.4781 21.9985 43.3418 22.2532C43.2065 22.4932 43.0073 22.6915 42.7661 22.8261C42.5121 22.9618 42.2284 23.0328 41.9401 23.0328C41.6519 23.0328 41.3681 22.9618 41.1141 22.8261ZM42.5458 22.5016C42.7243 22.3996 42.8696 22.2488 42.9643 22.067C43.0635 21.8673 43.1151 21.6476 43.1151 21.4249C43.1151 21.2022 43.0635 20.9825 42.9643 20.7828C42.8698 20.6009 42.7245 20.45 42.5458 20.3482C42.3599 20.2477 42.1517 20.195 41.9401 20.195C41.7286 20.195 41.5203 20.2477 41.3344 20.3482C41.1556 20.4507 41.0094 20.6013 40.9128 20.7828C40.8115 20.9819 40.7588 21.2018 40.7588 21.4249C40.7588 21.648 40.8115 21.8679 40.9128 22.067C41.0092 22.2486 41.1554 22.3993 41.3344 22.5016C41.5203 22.6021 41.7286 22.6548 41.9401 22.6548C42.1517 22.6548 42.3599 22.6021 42.5458 22.5016Z" fill="#242628"/>
<path d="M44.9503 22.8285C44.7064 22.6956 44.505 22.4971 44.3691 22.2556C44.2266 22.002 44.1539 21.7154 44.1583 21.4249C44.1535 21.1353 44.2263 20.8497 44.3691 20.5974C44.506 20.3575 44.7072 20.1602 44.9503 20.0276C45.2084 19.8888 45.498 19.8184 45.7913 19.8233C46.0443 19.8182 46.295 19.872 46.5234 19.9804C46.7345 20.0832 46.9114 20.2445 47.0327 20.4449L46.7168 20.661C46.6194 20.5109 46.4829 20.3898 46.322 20.3105C46.1585 20.232 45.9791 20.192 45.7977 20.1934C45.5816 20.1912 45.3687 20.2454 45.1801 20.3506C44.9984 20.4514 44.8498 20.6023 44.7521 20.7852C44.6509 20.9846 44.5981 21.205 44.5981 21.4284C44.5981 21.6519 44.6509 21.8722 44.7521 22.0717C44.8501 22.2535 44.9987 22.4033 45.1801 22.5032C45.369 22.6069 45.5819 22.6598 45.7977 22.6564C45.9788 22.6582 46.1581 22.6192 46.322 22.5424C46.4832 22.4646 46.6198 22.3442 46.7168 22.1943L47.0327 22.4104C46.9113 22.6118 46.7331 22.7733 46.5202 22.8749C46.2927 22.9825 46.0432 23.0363 45.7913 23.0321C45.498 23.0379 45.2082 22.9678 44.9503 22.8285Z" fill="#242628"/>
<path d="M48.2891 22.8285C48.0452 22.6956 47.8438 22.4971 47.7079 22.2556C47.5654 22.002 47.4926 21.7154 47.497 21.4249C47.4923 21.1353 47.5651 20.8497 47.7079 20.5974C47.8448 20.3575 48.046 20.1602 48.2891 20.0276C48.5472 19.8888 48.8368 19.8184 49.1301 19.8233C49.3831 19.8182 49.6337 19.872 49.8621 19.9804C50.0733 20.0832 50.2501 20.2445 50.3714 20.4449L50.0556 20.661C49.9581 20.5109 49.8217 20.3898 49.6607 20.3105C49.4973 20.232 49.3179 20.192 49.1364 20.1934C48.9203 20.1912 48.7074 20.2454 48.5189 20.3506C48.3371 20.4514 48.1885 20.6023 48.0909 20.7852C47.9896 20.9846 47.9369 21.205 47.9369 21.4284C47.9369 21.6519 47.9896 21.8722 48.0909 22.0717C48.1889 22.2535 48.3375 22.4033 48.5189 22.5032C48.7078 22.6069 48.9207 22.6598 49.1364 22.6564C49.3176 22.6582 49.4968 22.6192 49.6607 22.5424C49.8219 22.4646 49.9585 22.3442 50.0556 22.1943L50.3714 22.4104C50.25 22.6118 50.0718 22.7733 49.8589 22.8749C49.6314 22.9825 49.382 23.0363 49.1301 23.0321C48.8368 23.0379 48.5469 22.9678 48.2891 22.8285Z" fill="#242628"/>
<path d="M53.3668 20.2256H52.1673V23.003H51.7393V20.2256H50.5398V19.8476H53.366V20.2256H53.3668Z" fill="#242628"/>
<path d="M56.0303 20.1329C56.2514 20.3388 56.3619 20.6437 56.3619 21.0477V23.003H55.9521V22.511C55.8523 22.6783 55.7043 22.8119 55.5273 22.8945C55.3191 22.9911 55.0912 23.0385 54.8616 23.0329C54.5078 23.0329 54.2267 22.9488 54.0182 22.7806C53.9216 22.701 53.8435 22.6015 53.7893 22.489C53.735 22.3765 53.7059 22.2536 53.7038 22.1289C53.7018 22.0041 53.727 21.8803 53.7775 21.7662C53.8281 21.652 53.903 21.55 53.9969 21.4674C54.1917 21.3028 54.502 21.2209 54.9279 21.2214H55.9339V21.0296C55.9339 20.7577 55.8576 20.5507 55.7049 20.4088C55.5525 20.2665 55.329 20.1958 55.0361 20.1958C54.8388 20.1952 54.643 20.2287 54.4573 20.2948C54.2835 20.3553 54.1228 20.4478 53.9835 20.5675L53.7908 20.2532C53.9615 20.1122 54.1581 20.0054 54.3696 19.9388C54.599 19.8643 54.839 19.8268 55.0803 19.828C55.492 19.8254 55.8086 19.927 56.0303 20.1329ZM55.5486 22.5322C55.7249 22.4183 55.86 22.2511 55.9339 22.0552V21.5397H54.9397C54.3975 21.5397 54.1264 21.7275 54.1264 22.1031C54.1232 22.1872 54.1407 22.2708 54.1775 22.3466C54.2142 22.4223 54.2691 22.488 54.3372 22.5377C54.4778 22.6425 54.6747 22.6949 54.9279 22.6949C55.1463 22.7017 55.3619 22.6452 55.5486 22.5322Z" fill="#242628"/>
<path d="M57.5007 19.8476H57.9287V21.2449H59.9258V19.8476H60.3538V23.0022H59.9258V21.6104H57.9311V23.0022H57.5031L57.5007 19.8476Z" fill="#242628"/>
<path d="M62.0506 22.8261C61.8087 22.6914 61.6086 22.4932 61.4718 22.2532C61.3334 21.9991 61.261 21.7147 61.261 21.4257C61.261 21.1367 61.3334 20.8522 61.4718 20.5981C61.608 20.3585 61.8084 20.1613 62.0506 20.0284C62.3051 19.8942 62.5887 19.824 62.8766 19.824C63.1646 19.824 63.4482 19.8942 63.7026 20.0284C63.9441 20.1612 64.1435 20.3585 64.2783 20.5981C64.4146 20.8529 64.4859 21.1371 64.4859 21.4257C64.4859 21.7143 64.4146 21.9985 64.2783 22.2532C64.143 22.4932 63.9438 22.6915 63.7026 22.8261C63.4486 22.9618 63.1649 23.0328 62.8766 23.0328C62.5884 23.0328 62.3046 22.9618 62.0506 22.8261ZM63.4823 22.5016C63.6608 22.3996 63.8061 22.2488 63.9008 22.067C64 21.8673 64.0516 21.6476 64.0516 21.4249C64.0516 21.2022 64 20.9825 63.9008 20.7828C63.8063 20.6009 63.661 20.45 63.4823 20.3482C63.2964 20.2477 63.0882 20.195 62.8766 20.195C62.6651 20.195 62.4568 20.2477 62.271 20.3482C62.0921 20.4507 61.9459 20.6013 61.8493 20.7828C61.748 20.9819 61.6953 21.2018 61.6953 21.4249C61.6953 21.648 61.748 21.8679 61.8493 22.067C61.9457 22.2486 62.0919 22.3993 62.271 22.5016C62.4568 22.6021 62.6651 22.6548 62.8766 22.6548C63.0882 22.6548 63.2964 22.6021 63.4823 22.5016Z" fill="#242628"/>
<path d="M68.0655 22.1487C68.0717 22.2718 68.0468 22.3944 67.9931 22.5054C67.9395 22.6165 67.8588 22.7124 67.7584 22.7845C67.5536 22.9322 67.2482 23.0061 66.8423 23.0061H65.402V19.8476H66.8005C67.1622 19.8476 67.4454 19.9176 67.6502 20.0575C67.7491 20.1225 67.8293 20.2119 67.8832 20.317C67.937 20.4221 67.9626 20.5393 67.9574 20.6571C67.9616 20.8157 67.9118 20.9711 67.816 21.098C67.7139 21.2252 67.5767 21.32 67.4212 21.3707C67.8508 21.4702 68.0655 21.7296 68.0655 22.1487ZM65.8173 21.2552H66.7697C67.0145 21.2552 67.2024 21.2093 67.3335 21.1176C67.3976 21.0726 67.4492 21.0122 67.4835 20.942C67.5178 20.8717 67.5335 20.794 67.5294 20.716C67.5334 20.6393 67.5175 20.5629 67.4832 20.494C67.4489 20.4252 67.3973 20.3663 67.3335 20.3231C67.2035 20.2351 67.0156 20.1911 66.7697 20.1911H65.8173V21.2552ZM67.4386 22.5385C67.5065 22.4938 67.5613 22.4318 67.5973 22.359C67.6332 22.2862 67.649 22.2052 67.6431 22.1243C67.6492 22.0449 67.6353 21.9652 67.6026 21.8925C67.5699 21.8197 67.5195 21.7563 67.4559 21.7078C67.3312 21.6172 67.1343 21.5721 66.8652 21.5726H65.8166V22.6729H66.8234C67.0974 22.6666 67.3019 22.6202 67.4386 22.5346V22.5385Z" fill="#242628"/>
<path d="M69.0662 19.8476H69.4942V22.3546L71.6097 19.8476H71.9895V23.0022H71.5615V20.4983L69.4523 23.0053H69.067V19.8476H69.0662Z" fill="#242628"/>
<path d="M75.4419 20.2256H74.2424V23.003H73.8144V20.2256H72.6149V19.8476H75.4411V20.2256H75.4419Z" fill="#242628"/>
<path d="M78.6907 21.5569H76.039C76.0457 21.7079 76.0827 21.8561 76.148 21.9925C76.2132 22.129 76.3053 22.2511 76.4189 22.3515C76.6599 22.5574 76.97 22.6655 77.2875 22.6541C77.4736 22.656 77.6582 22.6201 77.83 22.5487C77.9942 22.4792 78.1405 22.3736 78.258 22.2399L78.4949 22.5157C78.3533 22.6847 78.1722 22.8164 77.9674 22.8992C77.7169 22.9979 77.4482 23.0422 77.1791 23.0294C76.91 23.0165 76.6468 22.9467 76.407 22.8246C76.1614 22.6918 75.9579 22.4934 75.8195 22.2517C75.6767 21.9993 75.6039 21.7137 75.6086 21.4241C75.6037 21.1356 75.6733 20.8507 75.8108 20.5966C75.9385 20.3594 76.1298 20.1621 76.3636 20.0268C76.6037 19.8897 76.8764 19.8191 77.1533 19.8225C77.4302 19.8184 77.7031 19.889 77.9429 20.0268C78.1749 20.1614 78.3647 20.3576 78.491 20.5935C78.627 20.8491 78.6954 21.1349 78.69 21.4241L78.6907 21.5569ZM76.3912 20.4803C76.1817 20.6797 76.0559 20.9507 76.039 21.2387H78.2872C78.27 20.9507 78.1442 20.6799 77.935 20.4803C77.722 20.2929 77.4475 20.1894 77.1631 20.1894C76.8788 20.1894 76.6043 20.2929 76.3912 20.4803Z" fill="#242628"/>
<path d="M82.1684 19.8476V23.0022H81.7404V20.2249H80.2203L80.1784 21.0045C80.1458 21.6604 80.0694 22.1642 79.9494 22.5157C79.8294 22.8673 79.6143 23.0433 79.3043 23.0439C79.2002 23.0411 79.097 23.025 78.9971 22.9959L79.0271 22.6297C79.0765 22.6421 79.127 22.6499 79.1779 22.6533C79.2556 22.655 79.3321 22.6344 79.3984 22.594C79.4646 22.5536 79.5177 22.495 79.5514 22.4254C79.6431 22.2499 79.7004 22.0587 79.7204 21.8619C79.7488 21.6382 79.773 21.3421 79.7931 20.9738L79.8475 19.8461H82.1668L82.1684 19.8476Z" fill="#242628"/>
<path d="M85.6548 21.2277C85.8617 21.4 85.9651 21.6478 85.9651 21.9711C85.9651 22.3064 85.8535 22.5645 85.6303 22.7452C85.4071 22.926 85.0846 23.0153 84.6629 23.0132L83.3853 23.0069V19.8484H83.8133V20.9487L84.7474 20.9605C85.1454 20.9667 85.4479 21.0558 85.6548 21.2277ZM85.3049 22.5079C85.4555 22.3858 85.5308 22.2069 85.5308 21.9711C85.5308 21.7353 85.4566 21.5635 85.3081 21.4556C85.1596 21.344 84.9362 21.2858 84.6392 21.2819L83.8133 21.2701V22.6737L84.6392 22.6855C84.9325 22.6886 85.1544 22.6294 85.3049 22.5079Z" fill="#242628"/>
<path d="M86.7784 19.8476H87.2064V21.2449H89.2011V19.8476H89.6292V23.0022H89.2011V21.6104H87.2064V23.0022H86.7784V19.8476Z" fill="#242628"/>
<path d="M93.0919 21.2276C93.3025 21.4 93.4078 21.6478 93.4078 21.9711C93.4078 22.3064 93.2954 22.5644 93.0706 22.7452C92.8458 22.926 92.5225 23.0153 92.1009 23.0132L90.8477 23.0069V19.8484H91.2757V20.9487L92.1798 20.9604C92.5773 20.9667 92.8813 21.0558 93.0919 21.2276ZM92.7452 22.5079C92.8963 22.3858 92.9716 22.2069 92.9711 21.9711C92.9705 21.7353 92.8963 21.5635 92.7484 21.4556C92.5999 21.344 92.3765 21.2858 92.0795 21.2819L91.278 21.2701V22.6737L92.0795 22.6855C92.3707 22.6886 92.5915 22.6294 92.7421 22.5079H92.7452ZM93.9353 19.8476H94.3633V23.0022H93.9353V19.8476Z" fill="#242628"/>
<path d="M98.3496 21.5569H95.6979C95.7046 21.7079 95.7416 21.8561 95.8069 21.9925C95.8721 22.129 95.9642 22.2511 96.0778 22.3515C96.3188 22.5574 96.6289 22.6655 96.9464 22.6541C97.1325 22.656 97.3171 22.6201 97.4889 22.5487C97.6531 22.4792 97.7994 22.3736 97.9169 22.2399L98.1578 22.5157C98.0162 22.6847 97.835 22.8164 97.6302 22.8992C97.3798 22.9979 97.111 23.0422 96.842 23.0294C96.5729 23.0165 96.3097 22.9467 96.0698 22.8246C95.8242 22.6918 95.6207 22.4934 95.4823 22.2517C95.3395 21.9993 95.2667 21.7137 95.2715 21.4241C95.2665 21.1356 95.3361 20.8507 95.4737 20.5966C95.6015 20.3595 95.7929 20.1623 96.0264 20.0268C96.2666 19.8897 96.5393 19.8191 96.8161 19.8225C97.093 19.8184 97.3659 19.889 97.6058 20.0268C97.8378 20.1614 98.0275 20.3576 98.1538 20.5935C98.2898 20.8491 98.3583 21.1349 98.3528 21.4241L98.3496 21.5569ZM96.0509 20.4803C95.8414 20.6797 95.7156 20.9507 95.6987 21.2387H97.9469C97.9297 20.9507 97.8039 20.6799 97.5947 20.4803C97.3817 20.2929 97.1071 20.1894 96.8228 20.1894C96.5385 20.1894 96.2639 20.2929 96.0509 20.4803Z" fill="#242628"/>
<path d="M103.11 20.2256H101.911V23.003H101.483V20.2256H100.283V19.8476H103.11V20.2256H103.11Z" fill="#242628"/>
<path d="M106.358 21.5569H103.706C103.713 21.7079 103.75 21.856 103.815 21.9925C103.881 22.129 103.973 22.2511 104.086 22.3515C104.327 22.5574 104.637 22.6654 104.955 22.654C105.141 22.6559 105.326 22.6201 105.497 22.5487C105.662 22.4792 105.808 22.3736 105.925 22.2399L106.162 22.5157C106.021 22.6847 105.84 22.8164 105.635 22.8992C105.384 22.9979 105.116 23.0422 104.847 23.0293C104.578 23.0165 104.314 22.9467 104.074 22.8246C103.829 22.6918 103.625 22.4934 103.487 22.2517C103.344 21.9993 103.271 21.7137 103.276 21.4241C103.271 21.1356 103.341 20.8506 103.478 20.5966C103.606 20.3595 103.797 20.1623 104.031 20.0268C104.271 19.8897 104.544 19.8191 104.821 19.8225C105.098 19.8183 105.371 19.8889 105.61 20.0268C105.842 20.1614 106.032 20.3576 106.158 20.5934C106.294 20.8491 106.363 21.1349 106.357 21.4241L106.358 21.5569ZM104.059 20.4803C103.849 20.6797 103.723 20.9506 103.706 21.2386H105.955C105.937 20.9507 105.812 20.6799 105.602 20.4803C105.389 20.2929 105.115 20.1894 104.831 20.1894C104.546 20.1894 104.272 20.2929 104.059 20.4803Z" fill="#242628"/>
<path d="M109.201 23.003L108.194 21.6835L107.182 23.003H106.699L107.953 21.3833L106.759 19.8476H107.242L108.194 21.083L109.147 19.8476H109.62L108.427 21.3833L109.691 23.003H109.201Z" fill="#242628"/>
<path d="M110.391 19.8476H110.819V21.2449H112.814V19.8476H113.242V23.0022H112.814V21.6104H110.819V23.0022H110.391V19.8476Z" fill="#242628"/>
<path d="M114.941 22.8261C114.699 22.6914 114.499 22.4932 114.362 22.2532C114.224 21.9991 114.152 21.7147 114.152 21.4257C114.152 21.1367 114.224 20.8522 114.362 20.5981C114.499 20.3585 114.699 20.1613 114.941 20.0284C115.196 19.8942 115.479 19.824 115.767 19.824C116.055 19.824 116.339 19.8942 116.593 20.0284C116.835 20.1612 117.034 20.3585 117.169 20.5981C117.305 20.8529 117.377 21.1371 117.377 21.4257C117.377 21.7143 117.305 21.9985 117.169 22.2532C117.034 22.4932 116.834 22.6915 116.593 22.8261C116.339 22.9618 116.056 23.0328 115.767 23.0328C115.479 23.0328 115.195 22.9618 114.941 22.8261ZM116.372 22.5016C116.551 22.3996 116.696 22.2488 116.791 22.067C116.89 21.8673 116.941 21.6476 116.941 21.4249C116.941 21.2022 116.89 20.9825 116.791 20.7828C116.696 20.6009 116.551 20.45 116.372 20.3482C116.186 20.2477 115.978 20.195 115.766 20.195C115.555 20.195 115.347 20.2477 115.161 20.3482C114.982 20.4503 114.835 20.601 114.739 20.7828C114.638 20.9819 114.585 21.2018 114.585 21.4249C114.585 21.648 114.638 21.8679 114.739 22.067C114.836 22.2486 114.982 22.3993 115.161 22.5016C115.347 22.6021 115.555 22.6548 115.766 22.6548C115.978 22.6548 116.186 22.6021 116.372 22.5016Z" fill="#242628"/>
<path d="M120.865 19.8476V23.0022H120.437V20.2249H118.919L118.877 21.0045C118.844 21.6604 118.768 22.1642 118.648 22.5157C118.528 22.8673 118.313 23.0433 118.003 23.0439C117.899 23.0411 117.795 23.025 117.696 22.9959L117.726 22.6297C117.775 22.6421 117.826 22.6499 117.876 22.6533C117.954 22.655 118.031 22.6344 118.097 22.594C118.163 22.5536 118.216 22.495 118.25 22.4254C118.342 22.2499 118.399 22.0587 118.419 21.8619C118.447 21.6382 118.472 21.3421 118.492 20.9738L118.546 19.8461H120.865V19.8476Z" fill="#242628"/>
<path d="M122.565 22.8261C122.323 22.6914 122.122 22.4932 121.986 22.2532C121.847 21.9991 121.775 21.7147 121.775 21.4257C121.775 21.1367 121.847 20.8522 121.986 20.5981C122.122 20.3585 122.322 20.1613 122.565 20.0284C122.819 19.8942 123.103 19.824 123.391 19.824C123.679 19.824 123.962 19.8942 124.217 20.0284C124.458 20.1612 124.657 20.3585 124.792 20.5981C124.929 20.8529 125 21.1371 125 21.4257C125 21.7143 124.929 21.9985 124.792 22.2532C124.657 22.4932 124.458 22.6915 124.217 22.8261C123.963 22.9618 123.679 23.0328 123.391 23.0328C123.102 23.0328 122.819 22.9618 122.565 22.8261ZM123.995 22.5016C124.174 22.3996 124.319 22.2488 124.414 22.067C124.513 21.8673 124.565 21.6476 124.565 21.4249C124.565 21.2022 124.513 20.9825 124.414 20.7828C124.319 20.6009 124.174 20.45 123.995 20.3482C123.81 20.2477 123.601 20.195 123.39 20.195C123.178 20.195 122.97 20.2477 122.784 20.3482C122.605 20.4507 122.459 20.6013 122.362 20.7828C122.261 20.9819 122.208 21.2018 122.208 21.4249C122.208 21.648 122.261 21.8679 122.362 22.067C122.459 22.2486 122.605 22.3993 122.784 22.5016C122.97 22.6021 123.178 22.6548 123.39 22.6548C123.601 22.6548 123.81 22.6021 123.995 22.5016Z" fill="#242628"/>
<path d="M128.157 20.2256H126.341V23.003H125.913V19.8484H128.155L128.157 20.2256Z" fill="#242628"/>
<path d="M128.778 19.8476H129.206V22.3546L131.321 19.8476H131.701V23.0022H131.273V20.4983L129.164 23.0053H128.779V19.8476H128.778Z" fill="#242628"/>
<path d="M132.924 19.8476H133.352V22.3546L135.468 19.8476H135.848V23.0022H135.418V20.4983L133.309 23.0053H132.924V19.8476H132.924Z" fill="#242628"/>
<path d="M140.973 20.1203C141.201 20.2475 141.388 20.437 141.512 20.6665C141.64 20.9177 141.706 21.1958 141.705 21.4775C141.703 21.7593 141.634 22.0366 141.503 22.2862C141.371 22.5207 141.176 22.7131 140.939 22.8411C140.683 22.9766 140.397 23.0448 140.107 23.0391C139.581 23.0391 139.173 22.8558 138.884 22.489C138.595 22.1223 138.45 21.6143 138.45 20.9652C138.45 20.2893 138.579 19.7714 138.838 19.4115C139.097 19.0515 139.502 18.8076 140.053 18.6798L141.474 18.356L141.547 18.749L140.209 19.0547C139.755 19.1542 139.422 19.331 139.209 19.5851C138.995 19.8393 138.879 20.2141 138.859 20.7098C138.981 20.4731 139.166 20.2748 139.395 20.1368C139.634 19.9962 139.907 19.9246 140.185 19.9302C140.46 19.9238 140.731 19.9894 140.973 20.1203ZM140.714 22.5322C140.888 22.4303 141.03 22.2816 141.124 22.1031C141.224 21.9106 141.275 21.6961 141.271 21.4791C141.276 21.2662 141.226 21.0555 141.127 20.8669C141.033 20.6941 140.892 20.5515 140.72 20.4559C140.535 20.3594 140.329 20.309 140.121 20.309C139.912 20.309 139.706 20.3594 139.521 20.4559C139.349 20.552 139.207 20.6945 139.111 20.8669C139.01 21.0549 138.959 21.2658 138.964 21.4791C138.96 21.6961 139.011 21.9106 139.111 22.1031C139.205 22.2823 139.349 22.4311 139.524 22.5322C139.706 22.6328 139.911 22.6855 140.119 22.6855C140.327 22.6855 140.532 22.6328 140.714 22.5322Z" fill="#242628"/>
<path d="M145.225 19.8476L143.64 23.3802C143.512 23.6757 143.363 23.8863 143.194 24.0089C143.017 24.1356 142.803 24.2011 142.585 24.1952C142.439 24.1962 142.295 24.1717 142.157 24.1229C142.028 24.077 141.911 24.0032 141.814 23.9068L142.013 23.5924C142.088 23.6689 142.178 23.7292 142.278 23.7698C142.377 23.8103 142.484 23.8302 142.592 23.8282C142.725 23.8318 142.856 23.7893 142.962 23.7079C143.088 23.5958 143.186 23.4562 143.249 23.3001L143.387 22.9943L141.972 19.8469H142.419L143.612 22.5275L144.805 19.8469H145.227L145.225 19.8476Z" fill="#242628"/>
<path d="M148.846 22.6312V23.7645H148.443V23.003H145.6V23.7645H145.197V22.6312H145.377C145.591 22.6195 145.735 22.4631 145.811 22.1636C145.903 21.7503 145.956 21.3293 145.969 20.9062L146.011 19.8508H148.349V22.6336L148.846 22.6312ZM146.249 22.034C146.193 22.3242 146.092 22.5231 145.948 22.6305H147.922V20.2256H146.397L146.361 20.9274C146.35 21.2984 146.313 21.6682 146.249 22.034Z" fill="#242628"/>
<path d="M152.372 19.8476L150.787 23.3802C150.659 23.6757 150.51 23.8863 150.341 24.0089C150.164 24.1356 149.95 24.201 149.732 24.1952C149.587 24.1962 149.442 24.1717 149.304 24.1229C149.175 24.077 149.058 24.0032 148.961 23.9067L149.16 23.5924C149.235 23.6688 149.325 23.7292 149.425 23.7697C149.524 23.8103 149.631 23.8302 149.739 23.8282C149.872 23.8318 150.003 23.7893 150.109 23.7079C150.235 23.5958 150.333 23.4562 150.396 23.3L150.534 22.9943L149.118 19.8453H149.564L150.757 22.5259L151.951 19.8453H152.372V19.8476Z" fill="#242628"/>
<path d="M157.417 19.8476V23.0022H153.041V19.8476H153.469V22.6305H155.024V19.8476H155.452V22.6305H156.989V19.8476H157.417ZM157.905 22.6312V23.693H157.501V23.003H156.965V22.6312H157.905Z" fill="#242628"/>
<path d="M161.413 21.5569H158.761C158.768 21.7079 158.805 21.856 158.87 21.9925C158.935 22.129 159.027 22.2511 159.141 22.3515C159.382 22.5574 159.692 22.6654 160.009 22.654C160.196 22.6559 160.38 22.6201 160.552 22.5487C160.716 22.4792 160.862 22.3736 160.98 22.2399L161.217 22.5157C161.075 22.6847 160.894 22.8164 160.689 22.8992C160.439 22.9979 160.17 23.0422 159.901 23.0293C159.632 23.0165 159.369 22.9467 159.129 22.8246C158.883 22.6918 158.68 22.4934 158.541 22.2517C158.399 21.9993 158.326 21.7137 158.331 21.4241C158.326 21.1356 158.395 20.8506 158.533 20.5966C158.66 20.3594 158.852 20.1621 159.085 20.0268C159.326 19.8897 159.598 19.8191 159.875 19.8225C160.152 19.8183 160.425 19.8889 160.665 20.0268C160.897 20.1614 161.087 20.3576 161.213 20.5934C161.349 20.8491 161.417 21.1349 161.412 21.4241L161.413 21.5569ZM159.113 20.4803C158.904 20.6797 158.778 20.9506 158.761 21.2386H161.009C160.992 20.9507 160.866 20.6799 160.657 20.4803C160.444 20.2929 160.169 20.1894 159.885 20.1894C159.601 20.1894 159.326 20.2929 159.113 20.4803Z" fill="#242628"/>
<path d="M164.607 20.2256H162.791V23.003H162.363V19.8484H164.604L164.607 20.2256Z" fill="#242628"/>
<path d="M165.565 22.8261C165.323 22.6914 165.123 22.4932 164.986 22.2532C164.848 21.9991 164.775 21.7147 164.775 21.4257C164.775 21.1367 164.848 20.8522 164.986 20.5981C165.122 20.3585 165.323 20.1613 165.565 20.0284C165.819 19.8942 166.103 19.824 166.391 19.824C166.679 19.824 166.962 19.8942 167.217 20.0284C167.458 20.1612 167.658 20.3585 167.792 20.5981C167.929 20.8529 168 21.1371 168 21.4257C168 21.7143 167.929 21.9985 167.792 22.2532C167.657 22.4932 167.458 22.6915 167.217 22.8261C166.963 22.9618 166.679 23.0328 166.391 23.0328C166.103 23.0328 165.819 22.9618 165.565 22.8261ZM166.996 22.5016C167.175 22.3996 167.32 22.2488 167.415 22.067C167.514 21.8673 167.566 21.6476 167.566 21.4249C167.566 21.2022 167.514 20.9825 167.415 20.7828C167.32 20.6009 167.175 20.45 166.996 20.3482C166.811 20.2477 166.602 20.195 166.391 20.195C166.179 20.195 165.971 20.2477 165.785 20.3482C165.606 20.4505 165.46 20.6012 165.363 20.7828C165.262 20.9819 165.209 21.2018 165.209 21.4249C165.209 21.648 165.262 21.8679 165.363 22.067C165.46 22.2486 165.606 22.3993 165.785 22.5016C165.971 22.6021 166.179 22.6548 166.391 22.6548C166.602 22.6548 166.811 22.6021 166.996 22.5016Z" fill="#242628"/>
<path d="M36.9684 3.95776H46.281C47.0312 3.95776 47.6687 4.06098 48.1935 4.2674C48.6687 4.44031 49.0967 4.72104 49.4438 5.08732C49.7909 5.4536 50.0474 5.89536 50.193 6.37752C50.3464 6.87711 50.4223 7.39706 50.418 7.91943C50.4219 8.44461 50.346 8.96736 50.193 9.46999C50.0495 9.94115 49.8009 10.374 49.4657 10.7361C49.1036 11.1175 48.6599 11.4129 48.1675 11.6005C47.6368 11.8138 46.9906 11.9201 46.2288 11.9196H40.1184V16.0188H36.9684V3.95776ZM40.1184 6.47261V9.40083H46.2288C46.3889 9.40649 46.5472 9.36662 46.6853 9.28588C46.8233 9.20515 46.9354 9.0869 47.0083 8.94502C47.1782 8.636 47.2673 8.28939 47.2673 7.93711C47.2673 7.58484 47.1782 7.23822 47.0083 6.92921C46.9354 6.78724 46.8234 6.66889 46.6853 6.58802C46.5473 6.50715 46.3889 6.46711 46.2288 6.47261H40.1184Z" fill="#242628"/>
<path d="M56.1819 16.0188C55.3512 16.0188 54.6357 15.8616 54.0356 15.5472C53.4441 15.2389 52.9363 14.7926 52.5557 14.2466C52.1535 13.6613 51.8631 13.0073 51.6989 12.3172C51.3294 10.7771 51.3294 9.17194 51.6989 7.63177C51.8607 6.94632 52.1515 6.29755 52.5557 5.7197C52.9401 5.18152 53.4473 4.74171 54.0356 4.43635C54.6357 4.12199 55.3512 3.96481 56.1819 3.96481H62.4132C63.2439 3.96481 63.9594 4.12199 64.5595 4.43635C65.1478 4.74171 65.6549 5.18152 66.0393 5.7197C66.4433 6.29774 66.734 6.94645 66.8961 7.63177C67.2657 9.17194 67.2657 10.7771 66.8961 12.3172C66.7316 13.0071 66.4412 13.6611 66.0393 14.2466C65.6587 14.7926 65.151 15.2389 64.5595 15.5472C63.9594 15.8616 63.2439 16.0188 62.4132 16.0188H56.1819ZM62.4132 13.5039C62.6849 13.51 62.9486 13.4115 63.1491 13.2289C63.3671 13.02 63.5329 12.7633 63.6332 12.4791C63.7647 12.1206 63.8519 11.7474 63.893 11.3679C63.9473 10.9107 63.9736 10.4506 63.972 9.99022C63.9733 9.53533 63.947 9.08078 63.893 8.62906C63.8511 8.24687 63.7639 7.87096 63.6332 7.50917C63.5343 7.2221 63.3684 6.96247 63.1491 6.75157C62.9489 6.56838 62.6851 6.46951 62.4132 6.47573H56.1819C55.9099 6.46943 55.6461 6.56831 55.4459 6.75157C55.2264 6.96226 55.0604 7.22196 54.9618 7.50917C54.8312 7.87096 54.7439 8.24687 54.702 8.62906C54.6481 9.08078 54.6217 9.53533 54.6231 9.99022C54.6214 10.4506 54.6478 10.9107 54.702 11.3679C54.7431 11.7474 54.8304 12.1206 54.9618 12.4791C55.0618 12.7634 55.2277 13.0202 55.4459 13.2289C55.6464 13.4116 55.9101 13.5102 56.1819 13.5039H62.4132Z" fill="#242628"/>
<path d="M68.9902 3.95776H72.141V13.504H80.7784V16.0188H68.9902V3.95776Z" fill="#242628"/>
<path d="M84.5004 11.2791L78.5281 3.95776H82.2151L86.2653 9.00474L90.3337 3.95776H93.7087L87.7862 11.2618V16.0188H84.5004V11.2791Z" fill="#242628"/>
<path d="M101.325 9.46997H107.764V16.0188H104.96V14.3621C104.658 14.8467 104.246 15.2539 103.756 15.5512C103.255 15.8608 102.624 16.0159 101.861 16.0164H97.8632C97.0314 16.0164 96.3159 15.8592 95.7168 15.5449C95.1252 15.2363 94.6173 14.7901 94.2362 14.2442C93.8346 13.6586 93.5443 13.0047 93.3794 12.3149C93.0109 10.7746 93.0109 9.16971 93.3794 7.62942C93.5419 6.94421 93.8326 6.29556 94.2362 5.71735C94.6211 5.17932 95.1285 4.73956 95.7168 4.434C96.3159 4.11964 97.0314 3.96246 97.8632 3.96246H103.402C104.763 3.96246 105.816 4.27525 106.561 4.90081C107.305 5.52638 107.741 6.41365 107.867 7.56262L105.012 7.95556C104.919 7.4154 104.735 7.03345 104.459 6.80974C104.184 6.58602 103.832 6.47416 103.403 6.47416H97.8647C97.5928 6.46786 97.329 6.56674 97.1288 6.75001C96.9092 6.96086 96.7431 7.22049 96.6439 7.50761C96.5136 7.86951 96.4264 8.24538 96.3841 8.6275C96.3306 9.07925 96.3042 9.53378 96.3051 9.98866C96.3039 10.449 96.3302 10.9091 96.3841 11.3663C96.4255 11.7458 96.5128 12.1189 96.6439 12.4776C96.7445 12.7617 96.9105 13.0185 97.1288 13.2273C97.3292 13.4101 97.5929 13.5086 97.8647 13.5024H103.49C103.964 13.5024 104.299 13.3617 104.494 13.0803C104.689 12.799 104.788 12.377 104.789 11.8143H101.327L101.325 9.46997Z" fill="#242628"/>
<path d="M118.617 11.9165H113.268V16.0188H110.118V3.95776H119.43C120.18 3.95776 120.818 4.06098 121.343 4.2674C121.832 4.45047 122.273 4.74208 122.633 5.12009C122.966 5.48027 123.214 5.90982 123.36 6.37752C123.513 6.87719 123.589 7.39709 123.585 7.91943C123.585 8.65293 123.418 9.29893 123.083 9.85743C122.748 10.4159 122.252 10.8437 121.594 11.1408L123.948 16.0133H120.452L118.617 11.9165ZM113.268 6.47261V9.40083H119.378C119.538 9.40653 119.697 9.36667 119.834 9.28592C119.972 9.20517 120.084 9.0869 120.157 8.94502C120.327 8.63616 120.417 8.28949 120.417 7.93711C120.417 7.58474 120.327 7.23806 120.157 6.92921C120.084 6.78724 119.972 6.66886 119.835 6.58798C119.697 6.5071 119.538 6.46707 119.378 6.47261H113.268Z" fill="#242628"/>
<path d="M139.423 16.0188H135.926L134.957 13.7963H128.245L127.271 16.0188H124.033L129.538 3.96008H133.881L139.423 16.0188ZM129.349 11.2814H133.85L131.617 6.148L129.349 11.2814Z" fill="#242628"/>
<path d="M140.461 16.0188V3.95776H149.632C150.463 3.95776 151.179 4.11494 151.779 4.4293C152.37 4.73451 152.879 5.17521 153.265 5.71501C153.669 6.293 153.96 6.9417 154.122 7.62708C154.491 9.16737 154.491 10.7723 154.122 12.3126C153.958 13.0025 153.667 13.6565 153.265 14.2419C152.884 14.7879 152.377 15.2342 151.785 15.5426C151.185 15.8569 150.469 16.0141 149.639 16.0141L140.461 16.0188ZM149.632 13.504C149.904 13.5101 150.168 13.4115 150.368 13.2289C150.586 13.0199 150.752 12.7632 150.853 12.4792C150.984 12.1205 151.071 11.7474 151.112 11.3679C151.167 10.9107 151.193 10.4506 151.191 9.99025C151.193 9.53536 151.166 9.0808 151.112 8.62909C151.071 8.24694 150.984 7.87103 150.853 7.5092C150.754 7.22222 150.588 6.96265 150.368 6.7516C150.168 6.5684 149.904 6.46954 149.632 6.47575H143.609V13.504H149.632Z" fill="#242628"/>
<path d="M156.213 3.95776H168V6.47261H159.363V8.6951H164.833V11.2099H159.363V13.504H168V16.0188H156.213V3.95776Z" fill="#242628"/>
</svg>
