<svg width="266" height="37" viewBox="0 0 266 37" fill="none" xmlns="http://www.w3.org/2000/svg">
<path d="M1.5 0.999998V0.499998H0.529344L1.0929 1.2903L1.5 0.999998ZM11.95 0.999998L12.3555 0.707517L12.2059 0.499998H11.95V0.999998ZM26.05 20.55L25.6445 20.8425L26.141 21.5309L26.5024 20.7629L26.05 20.55ZM35.25 0.999998V0.499998H34.9327L34.7976 0.787099L35.25 0.999998ZM44.35 0.999998L44.803 1.21163L45.1355 0.499998H44.35V0.999998ZM31.9 27.65L32.3528 27.862L32.353 27.8616L31.9 27.65ZM29.65 31.6L29.2439 31.3081L29.238 31.3167L29.65 31.6ZM27.2 34.2L27.4878 34.609L27.4976 34.6018L27.2 34.2ZM24.15 35.6L24.2678 36.086L24.2779 36.0834L24.15 35.6ZM9.35 34.65L9.07499 35.0676L9.07962 35.0706L9.35 34.65ZM5.85 30.3L5.67591 29.8313L5.16062 30.0227L5.39983 30.5176L5.85 30.3ZM12.85 27.7L13.3123 27.5096L13.1285 27.0632L12.6759 27.2313L12.85 27.7ZM13.8 29.1L13.4621 29.4686L13.4708 29.4766L13.4799 29.4841L13.8 29.1ZM22.75 27.6L23.2016 27.8145L23.2024 27.8129L22.75 27.6ZM23.95 25.05L24.4024 25.2629L24.7379 24.55H23.95V25.05ZM18.65 25.05L18.2429 25.3403L18.3924 25.55H18.65V25.05ZM1.5 1.5H11.95V0.499998H1.5V1.5ZM11.5445 1.29248L25.6445 20.8425L26.4555 20.2575L12.3555 0.707517L11.5445 1.29248ZM26.5024 20.7629L35.7024 1.2129L34.7976 0.787099L25.5976 20.3371L26.5024 20.7629ZM35.25 1.5H44.35V0.499998H35.25V1.5ZM43.897 0.788369L31.447 27.4384L32.353 27.8616L44.803 1.21163L43.897 0.788369ZM31.4472 27.438C30.7231 28.9849 29.988 30.2731 29.244 31.3082L30.056 31.8918C30.8454 30.7936 31.6103 29.4484 32.3528 27.862L31.4472 27.438ZM29.238 31.3167C28.5312 32.3448 27.7516 33.1691 26.9024 33.7982L27.4976 34.6018C28.4484 33.8975 29.3022 32.9885 30.062 31.8833L29.238 31.3167ZM26.9123 33.7911C26.0638 34.3882 25.1019 34.8308 24.0221 35.1166L24.2779 36.0834C25.4648 35.7692 26.5362 35.2785 27.4877 34.6089L26.9123 33.7911ZM24.0322 35.1141C22.9802 35.3691 21.738 35.5 20.3 35.5V36.5C21.7954 36.5 23.1198 36.3642 24.2678 36.0859L24.0322 35.1141ZM20.3 35.5H14.9V36.5H20.3V35.5ZM14.9 35.5C12.6606 35.5 10.9144 35.0613 9.62038 34.2294L9.07962 35.0706C10.5856 36.0387 12.5394 36.5 14.9 36.5V35.5ZM9.625 34.2324C8.35601 33.3967 7.2411 32.0291 6.30017 30.0824L5.39983 30.5176C6.39224 32.5709 7.61066 34.1033 9.07501 35.0676L9.625 34.2324ZM6.02409 30.7687L13.0241 28.1687L12.6759 27.2313L5.67591 29.8313L6.02409 30.7687ZM12.3877 27.8904C12.6453 28.516 13.0015 29.0463 13.4621 29.4686L14.1379 28.7314C13.7985 28.4204 13.5214 28.0173 13.3123 27.5096L12.3877 27.8904ZM13.4799 29.4841C14.0099 29.9258 14.7656 30.1 15.65 30.1V29.1C14.8678 29.1 14.3901 28.9409 14.1201 28.7159L13.4799 29.4841ZM15.65 30.1H19.4V29.1H15.65V30.1ZM19.4 30.1C20.2696 30.1 21.042 29.9185 21.6938 29.5293C22.3482 29.1386 22.8485 28.5581 23.2016 27.8145L22.2984 27.3855C22.0182 27.9753 21.6435 28.3947 21.1812 28.6707C20.7164 28.9482 20.1305 29.1 19.4 29.1V30.1ZM23.2024 27.8129L24.4024 25.2629L23.4976 24.8371L22.2976 27.3871L23.2024 27.8129ZM23.95 24.55H18.65V25.55H23.95V24.55ZM19.0571 24.7597L1.9071 0.709699L1.0929 1.2903L18.2429 25.3403L19.0571 24.7597ZM57.2074 9.1L56.8752 8.72629L56.8699 8.73102L56.8647 8.7359L57.2074 9.1ZM55.8074 11.3L55.342 11.1172L55.3392 11.1245L55.3366 11.1318L55.8074 11.3ZM55.0574 14.55L54.5617 14.483L54.5603 14.4963L55.0574 14.55ZM55.0574 22.5L54.5601 22.5538L54.5619 22.567L55.0574 22.5ZM55.8074 25.75L55.3366 25.9182L55.3402 25.9285L55.3444 25.9386L55.8074 25.75ZM57.2074 27.9L56.8647 28.2641L56.8699 28.269L56.8752 28.2737L57.2074 27.9ZM77.5574 27.35L77.2038 26.9964L77.1973 27.0032L77.5574 27.35ZM79.1074 23.75L79.1794 23.2552L78.6562 23.1791L78.6094 23.7057L79.1074 23.75ZM87.3574 24.95L87.8506 25.0322L87.9345 24.5287L87.4294 24.4552L87.3574 24.95ZM85.9574 29.4L85.5079 29.1807L85.5038 29.1898L85.9574 29.4ZM83.4074 32.9L83.0717 32.5295L83.4074 32.9ZM79.5574 35.2L79.725 35.6712L79.7341 35.6677L79.5574 35.2ZM53.1574 34.65L52.9203 35.0903L52.927 35.0937L53.1574 34.65ZM48.8574 30.85L48.4454 31.1333L48.4494 31.139L48.8574 30.85ZM46.4074 11.65L45.9224 11.5287L46.4074 11.65ZM48.8574 6.1L48.4523 5.80691L48.4482 5.81268L48.8574 6.1ZM53.1574 2.4L53.3879 2.8438L53.3945 2.84023L53.1574 2.4ZM79.5574 1.85L79.3807 2.3179L79.3932 2.32225L79.5574 1.85ZM83.4574 4.15L83.1155 4.51477V4.51477L83.4574 4.15ZM86.0074 7.7L85.5537 7.91027L85.558 7.91921L86.0074 7.7ZM87.4074 12.2L87.4731 12.6957L87.9839 12.628L87.9009 12.1194L87.4074 12.2ZM79.1074 13.3L78.6094 13.3443L78.6556 13.8643L79.1731 13.7957L79.1074 13.3ZM77.5574 9.7L77.191 10.0402L77.1973 10.047L77.2039 10.0536L77.5574 9.7ZM59.3574 7.8C58.4067 7.8 57.5705 8.10827 56.8752 8.72629L57.5396 9.4737C58.0443 9.02506 58.6414 8.8 59.3574 8.8V7.8ZM56.8647 8.7359C56.2311 9.33226 55.7282 10.1342 55.342 11.1172L56.2728 11.4828C56.62 10.5991 57.0504 9.9344 57.5501 9.4641L56.8647 8.7359ZM55.3366 11.1318C54.989 12.105 54.7321 13.2235 54.5619 14.483L55.5529 14.617C55.716 13.4098 55.9592 12.3616 56.2783 11.4682L55.3366 11.1318ZM54.5603 14.4963C54.4248 15.7495 54.3574 17.0843 54.3574 18.5H55.3574C55.3574 17.1157 55.4233 15.8171 55.5545 14.6037L54.5603 14.4963ZM54.3574 18.5C54.3574 19.9486 54.4248 21.3001 54.5603 22.5537L55.5545 22.4463C55.4234 21.2333 55.3574 19.9181 55.3574 18.5H54.3574ZM54.5619 22.567C54.7321 23.8265 54.989 24.945 55.3366 25.9182L56.2783 25.5818C55.9592 24.6884 55.716 23.6402 55.5529 22.433L54.5619 22.567ZM55.3444 25.9386C55.7316 26.889 56.2345 27.671 56.8647 28.2641L57.5501 27.5359C57.047 27.0624 56.6166 26.411 56.2705 25.5614L55.3444 25.9386ZM56.8752 28.2737C57.5705 28.8917 58.4067 29.2 59.3574 29.2V28.2C58.6414 28.2 58.0443 27.9749 57.5396 27.5263L56.8752 28.2737ZM59.3574 29.2H74.3574V28.2H59.3574V29.2ZM74.3574 29.2C75.7579 29.2 76.9552 28.6962 77.9176 27.6968L77.1973 27.0032C76.4263 27.8038 75.4903 28.2 74.3574 28.2V29.2ZM77.911 27.7036C78.9086 26.706 79.4637 25.3887 79.6055 23.7943L78.6094 23.7057C78.4845 25.1113 78.0063 26.194 77.2039 26.9964L77.911 27.7036ZM79.0355 24.2448L87.2855 25.4448L87.4294 24.4552L79.1794 23.2552L79.0355 24.2448ZM86.8642 24.8678C86.605 26.4234 86.1522 27.8602 85.508 29.1808L86.4068 29.6192C87.096 28.2064 87.5766 26.6766 87.8506 25.0322L86.8642 24.8678ZM85.5038 29.1898C84.8973 30.4985 84.0864 31.6099 83.0717 32.5295L83.7432 33.2705C84.8618 32.2568 85.7509 31.0348 86.4111 29.6102L85.5038 29.1898ZM83.0717 32.5295C82.0565 33.4495 80.8287 34.1852 79.3807 34.7323L79.7341 35.6677C81.2861 35.0814 82.6251 34.2838 83.7432 33.2705L83.0717 32.5295ZM79.3899 34.7289C77.9547 35.2392 76.2799 35.5 74.3574 35.5V36.5C76.3682 36.5 78.1602 36.2275 79.7249 35.6711L79.3899 34.7289ZM74.3574 35.5H59.3574V36.5H74.3574V35.5ZM59.3574 35.5C57.0195 35.5 55.0355 35.0618 53.3878 34.2063L52.927 35.0937C54.746 36.0382 56.8953 36.5 59.3574 36.5V35.5ZM53.3945 34.2098C51.7287 33.3128 50.354 32.0978 49.2654 30.561L48.4494 31.139C49.6275 32.8022 51.1194 34.1205 52.9204 35.0902L53.3945 34.2098ZM49.2694 30.5667C48.2074 29.022 47.4132 27.2117 46.8925 25.1287L45.9224 25.3713C46.4683 27.5549 47.3074 29.478 48.4454 31.1333L49.2694 30.5667ZM46.8925 25.1287C46.3699 23.0385 46.1074 20.8128 46.1074 18.45H45.1074C45.1074 20.8872 45.3782 23.1948 45.9224 25.3713L46.8925 25.1287ZM46.1074 18.45C46.1074 16.0872 46.3699 13.8615 46.8925 11.7713L45.9224 11.5287C45.3782 13.7052 45.1074 16.0128 45.1074 18.45H46.1074ZM46.8925 11.7713C47.4131 9.68872 48.2067 7.89687 49.2666 6.38731L48.4482 5.81268C47.3081 7.43646 46.4684 9.34461 45.9224 11.5287L46.8925 11.7713ZM49.2625 6.39306C50.3497 4.89021 51.723 3.7082 53.3878 2.84375L52.927 1.95625C51.1252 2.8918 49.6318 4.17645 48.4523 5.80694L49.2625 6.39306ZM53.3945 2.84023C55.0406 1.95384 57.0222 1.5 59.3574 1.5V0.499998C56.8926 0.499998 54.7409 0.979488 52.9204 1.95976L53.3945 2.84023ZM59.3574 1.5H74.3574V0.499998H59.3574V1.5ZM74.3574 1.5C76.277 1.5 77.9484 1.77662 79.3807 2.31773L79.7341 1.38226C78.1665 0.79004 76.3712 0.499998 74.3574 0.499998V1.5ZM79.3932 2.32225C80.8677 2.83514 82.1052 3.56768 83.1155 4.51477L83.7994 3.78523C82.6763 2.73232 81.3138 1.93153 79.7217 1.37775L79.3932 2.32225ZM83.1155 4.51477C84.1339 5.46956 84.9466 6.59997 85.5538 7.91023L86.4611 7.48977C85.8016 6.06669 84.9143 4.83043 83.7994 3.78523L83.1155 4.51477ZM85.558 7.91921C86.2015 9.23837 86.6545 10.6911 86.914 12.2806L87.9009 12.1194C87.6271 10.4422 87.1467 8.89496 86.4568 7.48079L85.558 7.91921ZM87.3417 11.7043L79.0417 12.8043L79.1731 13.7957L87.4731 12.6957L87.3417 11.7043ZM79.6055 13.2557C79.4637 11.6613 78.9086 10.344 77.911 9.34645L77.2039 10.0536C78.0063 10.856 78.4845 11.9387 78.6094 13.3443L79.6055 13.2557ZM77.9238 9.35977C76.9631 8.3252 75.764 7.8 74.3574 7.8V8.8C75.4842 8.8 76.4184 9.20813 77.191 10.0402L77.9238 9.35977ZM74.3574 7.8H59.3574V8.8H74.3574V7.8ZM132.045 0.999998H132.545V0.499998H132.045V0.999998ZM132.045 36V36.5H132.545V36H132.045ZM122.945 36H122.445V36.5H122.945V36ZM122.945 8.3H123.445V7.8H122.945V8.3ZM108.945 8.3V7.8H108.472L108.445 8.27207L108.945 8.3ZM107.695 20.75L108.188 20.8299L108.188 20.8292L107.695 20.75ZM105.145 29.45L104.696 29.229L104.693 29.2343L105.145 29.45ZM100.745 34.6L101.007 35.0253L100.745 34.6ZM90.8945 36.3H90.3945V36.8H90.8945V36.3ZM90.8945 28.7V28.2H90.3945V28.7H90.8945ZM96.5445 27.1L96.9093 27.442L96.5445 27.1ZM98.8945 22.15L98.4112 22.022L98.4099 22.027L98.8945 22.15ZM100.145 13.5L99.646 13.462L99.6456 13.4667L100.145 13.5ZM100.695 0.999998V0.499998H100.205L100.195 0.989655L100.695 0.999998ZM131.545 0.999998V36H132.545V0.999998H131.545ZM132.045 35.5H122.945V36.5H132.045V35.5ZM123.445 36V8.3H122.445V36H123.445ZM122.945 7.8H108.945V8.8H122.945V7.8ZM108.445 8.27207C108.179 13.0268 107.764 17.159 107.201 20.6708L108.188 20.8292C108.758 17.2743 109.176 13.1065 109.444 8.32793L108.445 8.27207ZM107.201 20.6701C106.639 24.1384 105.801 26.9869 104.696 29.229L105.593 29.671C106.755 27.3131 107.616 24.3616 108.188 20.8299L107.201 20.6701ZM104.693 29.2343C103.627 31.4639 102.22 33.1004 100.482 34.1747L101.007 35.0253C102.936 33.833 104.462 32.0361 105.596 29.6657L104.693 29.2343ZM100.482 34.1747C98.7468 35.2471 96.5443 35.8 93.8445 35.8V36.8C96.6781 36.8 99.0756 36.2195 101.007 35.0253L100.482 34.1747ZM93.8445 35.8H90.8945V36.8H93.8445V35.8ZM91.3945 36.3V28.7H90.3945V36.3H91.3945ZM90.8945 29.2H92.6445V28.2H90.8945V29.2ZM92.6445 29.2C94.3682 29.2 95.8053 28.6196 96.9093 27.442L96.1798 26.758C95.2838 27.7138 94.1208 28.2 92.6445 28.2V29.2ZM96.9093 27.442C97.9912 26.2879 98.8025 24.5456 99.3792 22.273L98.4099 22.027C97.8532 24.2211 97.0979 25.7787 96.1798 26.758L96.9093 27.442ZM99.3779 22.2779C99.989 19.9691 100.409 17.0512 100.643 13.5333L99.6456 13.4667C99.4135 16.9488 99 19.7975 98.4112 22.0221L99.3779 22.2779ZM100.643 13.538C100.911 10.0261 101.094 5.84974 101.194 1.01034L100.195 0.989655C100.095 5.81693 99.9117 9.9739 99.646 13.462L100.643 13.538ZM100.695 1.5H132.045V0.499998H100.695V1.5ZM137.543 0.999998V0.499998H136.572L137.136 1.2903L137.543 0.999998ZM147.993 0.999998L148.398 0.707517L148.249 0.499998H147.993V0.999998ZM162.093 20.55L161.687 20.8425L162.184 21.5309L162.545 20.7629L162.093 20.55ZM171.293 0.999998V0.499998H170.976L170.841 0.787099L171.293 0.999998ZM180.393 0.999998L180.846 1.21163L181.178 0.499998H180.393V0.999998ZM167.943 27.65L168.396 27.862L168.396 27.8616L167.943 27.65ZM165.693 31.6L165.287 31.3081L165.281 31.3167L165.693 31.6ZM163.243 34.2L163.531 34.609L163.541 34.6018L163.243 34.2ZM160.193 35.6L160.311 36.086L160.321 36.0834L160.193 35.6ZM145.393 34.65L145.118 35.0676L145.123 35.0706L145.393 34.65ZM141.893 30.3L141.719 29.8313L141.204 30.0227L141.443 30.5176L141.893 30.3ZM148.893 27.7L149.355 27.5096L149.171 27.0632L148.719 27.2313L148.893 27.7ZM149.843 29.1L149.505 29.4686L149.514 29.4766L149.523 29.4841L149.843 29.1ZM158.793 27.6L159.245 27.8145L159.245 27.8129L158.793 27.6ZM159.993 25.05L160.445 25.2629L160.781 24.55H159.993V25.05ZM154.693 25.05L154.286 25.3403L154.435 25.55H154.693V25.05ZM137.543 1.5H147.993V0.499998H137.543V1.5ZM147.587 1.29248L161.687 20.8425L162.499 20.2575L148.398 0.707517L147.587 1.29248ZM162.545 20.7629L171.745 1.2129L170.841 0.787099L161.641 20.3371L162.545 20.7629ZM171.293 1.5H180.393V0.499998H171.293V1.5ZM179.94 0.788369L167.49 27.4384L168.396 27.8616L180.846 1.21163L179.94 0.788369ZM167.49 27.438C166.766 28.9849 166.031 30.2731 165.287 31.3082L166.099 31.8918C166.888 30.7936 167.653 29.4484 168.396 27.862L167.49 27.438ZM165.281 31.3167C164.574 32.3448 163.795 33.1691 162.945 33.7982L163.541 34.6018C164.491 33.8975 165.345 32.9885 166.105 31.8833L165.281 31.3167ZM162.955 33.7911C162.107 34.3882 161.145 34.8308 160.065 35.1166L160.321 36.0834C161.508 35.7692 162.579 35.2785 163.531 34.6089L162.955 33.7911ZM160.075 35.1141C159.023 35.3691 157.781 35.5 156.343 35.5V36.5C157.838 36.5 159.163 36.3642 160.311 36.0859L160.075 35.1141ZM156.343 35.5H150.943V36.5H156.343V35.5ZM150.943 35.5C148.704 35.5 146.957 35.0613 145.663 34.2294L145.123 35.0706C146.629 36.0387 148.582 36.5 150.943 36.5V35.5ZM145.668 34.2324C144.399 33.3967 143.284 32.0291 142.343 30.0824L141.443 30.5176C142.435 32.5709 143.654 34.1033 145.118 35.0676L145.668 34.2324ZM142.067 30.7687L149.067 28.1687L148.719 27.2313L141.719 29.8313L142.067 30.7687ZM148.431 27.8904C148.688 28.516 149.044 29.0463 149.505 29.4686L150.181 28.7314C149.841 28.4204 149.564 28.0173 149.355 27.5096L148.431 27.8904ZM149.523 29.4841C150.053 29.9258 150.809 30.1 151.693 30.1V29.1C150.911 29.1 150.433 28.9409 150.163 28.7159L149.523 29.4841ZM151.693 30.1H155.443V29.1H151.693V30.1ZM155.443 30.1C156.313 30.1 157.085 29.9185 157.737 29.5293C158.391 29.1386 158.891 28.5581 159.245 27.8145L158.341 27.3855C158.061 27.9753 157.686 28.3947 157.224 28.6707C156.759 28.9482 156.173 29.1 155.443 29.1V30.1ZM159.245 27.8129L160.445 25.2629L159.541 24.8371L158.341 27.3871L159.245 27.8129ZM159.993 24.55H154.693V25.55H159.993V24.55ZM155.1 24.7597L137.95 0.709699L137.136 1.2903L154.286 25.3403L155.1 24.7597ZM184.914 0.999998V0.499998H184.414V0.999998H184.914ZM217.964 0.999998H218.464V0.499998H217.964V0.999998ZM217.964 8.3V8.8H218.464V8.3H217.964ZM194.014 8.3V7.8H193.514V8.3H194.014ZM194.014 36V36.5H194.514V36H194.014ZM184.914 36H184.414V36.5H184.914V36ZM184.914 1.5H217.964V0.499998H184.914V1.5ZM217.464 0.999998V8.3H218.464V0.999998H217.464ZM217.964 7.8H194.014V8.8H217.964V7.8ZM193.514 8.3V36H194.514V8.3H193.514ZM194.014 35.5H184.914V36.5H194.014V35.5ZM185.414 36V0.999998H184.414V36H185.414ZM255.875 8.15H256.375V6.56415L255.465 7.86322L255.875 8.15ZM236.375 36V36.5H236.635L236.784 36.2868L236.375 36ZM223.475 36H222.975V36.5H223.475V36ZM223.475 0.999998V0.499998H222.975V0.999998H223.475ZM232.575 0.999998H233.075V0.499998H232.575V0.999998ZM232.575 28.85H232.075V30.4358L232.984 29.1368L232.575 28.85ZM252.075 0.999998V0.499998H251.814L251.665 0.713217L252.075 0.999998ZM264.975 0.999998H265.475V0.499998H264.975V0.999998ZM264.975 36V36.5H265.475V36H264.975ZM255.875 36H255.375V36.5H255.875V36ZM255.465 7.86322L235.965 35.7132L236.784 36.2868L256.284 8.43678L255.465 7.86322ZM236.375 35.5H223.475V36.5H236.375V35.5ZM223.975 36V0.999998H222.975V36H223.975ZM223.475 1.5H232.575V0.499998H223.475V1.5ZM232.075 0.999998V28.85H233.075V0.999998H232.075ZM232.984 29.1368L252.484 1.28678L251.665 0.713217L232.165 28.5632L232.984 29.1368ZM252.075 1.5H264.975V0.499998H252.075V1.5ZM264.475 0.999998V36H265.475V0.999998H264.475ZM264.975 35.5H255.875V36.5H264.975V35.5ZM256.375 36V8.15H255.375V36H256.375Z" fill="#F2F2F2"/>
</svg>
