<svg width="260" height="37" viewBox="0 0 260 37" fill="none" xmlns="http://www.w3.org/2000/svg">
<path d="M-4.5 0.999998V0.499998H-5.47066L-4.9071 1.2903L-4.5 0.999998ZM5.95 0.999998L6.35553 0.707517L6.20586 0.499998H5.95V0.999998ZM20.05 20.55L19.6445 20.8425L20.141 21.5309L20.5024 20.7629L20.05 20.55ZM29.25 0.999998V0.499998H28.9327L28.7976 0.787099L29.25 0.999998ZM38.35 0.999998L38.803 1.21163L39.1355 0.499998H38.35V0.999998ZM25.9 27.65L26.3528 27.862L26.353 27.8616L25.9 27.65ZM23.65 31.6L23.2439 31.3081L23.238 31.3167L23.65 31.6ZM21.2 34.2L21.4878 34.609L21.4976 34.6018L21.2 34.2ZM18.15 35.6L18.2678 36.086L18.2779 36.0834L18.15 35.6ZM3.35 34.65L3.07499 35.0676L3.07962 35.0706L3.35 34.65ZM-0.15 30.3L-0.324093 29.8313L-0.839378 30.0227L-0.600174 30.5176L-0.15 30.3ZM6.85 27.7L7.31234 27.5096L7.12851 27.0632L6.67591 27.2313L6.85 27.7ZM7.8 29.1L7.46214 29.4686L7.47084 29.4766L7.47991 29.4841L7.8 29.1ZM16.75 27.6L17.2016 27.8145L17.2024 27.8129L16.75 27.6ZM17.95 25.05L18.4024 25.2629L18.7379 24.55H17.95V25.05ZM12.65 25.05L12.2429 25.3403L12.3924 25.55H12.65V25.05ZM-4.5 1.5H5.95V0.499998H-4.5V1.5ZM5.54447 1.29248L19.6445 20.8425L20.4555 20.2575L6.35553 0.707517L5.54447 1.29248ZM20.5024 20.7629L29.7024 1.2129L28.7976 0.787099L19.5976 20.3371L20.5024 20.7629ZM29.25 1.5H38.35V0.499998H29.25V1.5ZM37.897 0.788369L25.447 27.4384L26.353 27.8616L38.803 1.21163L37.897 0.788369ZM25.4472 27.438C24.7231 28.9849 23.988 30.2731 23.244 31.3082L24.056 31.8918C24.8454 30.7936 25.6103 29.4484 26.3528 27.862L25.4472 27.438ZM23.238 31.3167C22.5312 32.3448 21.7516 33.1691 20.9024 33.7982L21.4976 34.6018C22.4484 33.8975 23.3022 32.9885 24.062 31.8833L23.238 31.3167ZM20.9123 33.7911C20.0638 34.3882 19.1019 34.8308 18.0221 35.1166L18.2779 36.0834C19.4648 35.7692 20.5362 35.2785 21.4877 34.6089L20.9123 33.7911ZM18.0322 35.1141C16.9802 35.3691 15.738 35.5 14.3 35.5V36.5C15.7954 36.5 17.1198 36.3642 18.2678 36.0859L18.0322 35.1141ZM14.3 35.5H8.9V36.5H14.3V35.5ZM8.9 35.5C6.66057 35.5 4.91444 35.0613 3.62038 34.2294L3.07962 35.0706C4.58556 36.0387 6.53943 36.5 8.9 36.5V35.5ZM3.625 34.2324C2.35601 33.3967 1.2411 32.0291 0.300175 30.0824L-0.600174 30.5176C0.392238 32.5709 1.61066 34.1033 3.07501 35.0676L3.625 34.2324ZM0.0240936 30.7687L7.02409 28.1687L6.67591 27.2313L-0.324093 29.8313L0.0240936 30.7687ZM6.38766 27.8904C6.64529 28.516 7.00148 29.0463 7.46214 29.4686L8.13786 28.7314C7.79853 28.4204 7.52138 28.0173 7.31234 27.5096L6.38766 27.8904ZM7.47991 29.4841C8.00991 29.9258 8.76557 30.1 9.65 30.1V29.1C8.86776 29.1 8.39009 28.9409 8.12009 28.7159L7.47991 29.4841ZM9.65 30.1H13.4V29.1H9.65V30.1ZM13.4 30.1C14.2696 30.1 15.042 29.9185 15.6938 29.5293C16.3482 29.1386 16.8485 28.5581 17.2016 27.8145L16.2984 27.3855C16.0182 27.9753 15.6435 28.3947 15.1812 28.6707C14.7164 28.9482 14.1305 29.1 13.4 29.1V30.1ZM17.2024 27.8129L18.4024 25.2629L17.4976 24.8371L16.2976 27.3871L17.2024 27.8129ZM17.95 24.55H12.65V25.55H17.95V24.55ZM13.0571 24.7597L-4.0929 0.709699L-4.9071 1.2903L12.2429 25.3403L13.0571 24.7597ZM51.2074 9.1L50.8752 8.72629L50.8699 8.73102L50.8647 8.7359L51.2074 9.1ZM49.8074 11.3L49.342 11.1172L49.3392 11.1245L49.3366 11.1318L49.8074 11.3ZM49.0574 14.55L48.5617 14.483L48.5603 14.4963L49.0574 14.55ZM49.0574 22.5L48.5601 22.5538L48.5619 22.567L49.0574 22.5ZM49.8074 25.75L49.3366 25.9182L49.3402 25.9285L49.3444 25.9386L49.8074 25.75ZM51.2074 27.9L50.8647 28.2641L50.8699 28.269L50.8752 28.2737L51.2074 27.9ZM71.5574 27.35L71.2038 26.9964L71.1973 27.0032L71.5574 27.35ZM73.1074 23.75L73.1794 23.2552L72.6562 23.1791L72.6094 23.7057L73.1074 23.75ZM81.3574 24.95L81.8506 25.0322L81.9345 24.5287L81.4294 24.4552L81.3574 24.95ZM79.9574 29.4L79.5079 29.1807L79.5038 29.1898L79.9574 29.4ZM77.4074 32.9L77.0717 32.5295L77.4074 32.9ZM73.5574 35.2L73.725 35.6712L73.7341 35.6677L73.5574 35.2ZM47.1574 34.65L46.9203 35.0903L46.927 35.0937L47.1574 34.65ZM42.8574 30.85L42.4454 31.1333L42.4494 31.139L42.8574 30.85ZM40.4074 11.65L39.9224 11.5287L40.4074 11.65ZM42.8574 6.1L42.4523 5.80691L42.4482 5.81268L42.8574 6.1ZM47.1574 2.4L47.3879 2.8438L47.3945 2.84023L47.1574 2.4ZM73.5574 1.85L73.3807 2.3179L73.3932 2.32225L73.5574 1.85ZM77.4574 4.15L77.1155 4.51477V4.51477L77.4574 4.15ZM80.0074 7.7L79.5537 7.91027L79.558 7.91921L80.0074 7.7ZM81.4074 12.2L81.4731 12.6957L81.9839 12.628L81.9009 12.1194L81.4074 12.2ZM73.1074 13.3L72.6094 13.3443L72.6556 13.8643L73.1731 13.7957L73.1074 13.3ZM71.5574 9.7L71.191 10.0402L71.1973 10.047L71.2039 10.0536L71.5574 9.7ZM53.3574 7.8C52.4067 7.8 51.5705 8.10827 50.8752 8.72629L51.5396 9.4737C52.0443 9.02506 52.6414 8.8 53.3574 8.8V7.8ZM50.8647 8.7359C50.2311 9.33226 49.7282 10.1342 49.342 11.1172L50.2728 11.4828C50.62 10.5991 51.0504 9.9344 51.5501 9.4641L50.8647 8.7359ZM49.3366 11.1318C48.989 12.105 48.7321 13.2235 48.5619 14.483L49.5529 14.617C49.716 13.4098 49.9592 12.3616 50.2783 11.4682L49.3366 11.1318ZM48.5603 14.4963C48.4248 15.7495 48.3574 17.0843 48.3574 18.5H49.3574C49.3574 17.1157 49.4233 15.8171 49.5545 14.6037L48.5603 14.4963ZM48.3574 18.5C48.3574 19.9486 48.4248 21.3001 48.5603 22.5537L49.5545 22.4463C49.4234 21.2333 49.3574 19.9181 49.3574 18.5H48.3574ZM48.5619 22.567C48.7321 23.8265 48.989 24.945 49.3366 25.9182L50.2783 25.5818C49.9592 24.6884 49.716 23.6402 49.5529 22.433L48.5619 22.567ZM49.3444 25.9386C49.7316 26.889 50.2345 27.671 50.8647 28.2641L51.5501 27.5359C51.047 27.0624 50.6166 26.411 50.2705 25.5614L49.3444 25.9386ZM50.8752 28.2737C51.5705 28.8917 52.4067 29.2 53.3574 29.2V28.2C52.6414 28.2 52.0443 27.9749 51.5396 27.5263L50.8752 28.2737ZM53.3574 29.2H68.3574V28.2H53.3574V29.2ZM68.3574 29.2C69.7579 29.2 70.9552 28.6962 71.9176 27.6968L71.1973 27.0032C70.4263 27.8038 69.4903 28.2 68.3574 28.2V29.2ZM71.911 27.7036C72.9086 26.706 73.4637 25.3887 73.6055 23.7943L72.6094 23.7057C72.4845 25.1113 72.0063 26.194 71.2039 26.9964L71.911 27.7036ZM73.0355 24.2448L81.2855 25.4448L81.4294 24.4552L73.1794 23.2552L73.0355 24.2448ZM80.8642 24.8678C80.605 26.4234 80.1522 27.8602 79.508 29.1808L80.4068 29.6192C81.096 28.2064 81.5766 26.6766 81.8506 25.0322L80.8642 24.8678ZM79.5038 29.1898C78.8973 30.4985 78.0864 31.6099 77.0717 32.5295L77.7432 33.2705C78.8618 32.2568 79.7509 31.0348 80.4111 29.6102L79.5038 29.1898ZM77.0717 32.5295C76.0565 33.4495 74.8287 34.1852 73.3807 34.7323L73.7341 35.6677C75.2861 35.0814 76.6251 34.2838 77.7432 33.2705L77.0717 32.5295ZM73.3899 34.7289C71.9547 35.2392 70.2799 35.5 68.3574 35.5V36.5C70.3682 36.5 72.1602 36.2275 73.7249 35.6711L73.3899 34.7289ZM68.3574 35.5H53.3574V36.5H68.3574V35.5ZM53.3574 35.5C51.0195 35.5 49.0355 35.0618 47.3878 34.2063L46.927 35.0937C48.746 36.0382 50.8953 36.5 53.3574 36.5V35.5ZM47.3945 34.2098C45.7287 33.3128 44.354 32.0978 43.2654 30.561L42.4494 31.139C43.6275 32.8022 45.1194 34.1205 46.9204 35.0902L47.3945 34.2098ZM43.2694 30.5667C42.2074 29.022 41.4132 27.2117 40.8925 25.1287L39.9224 25.3713C40.4683 27.5549 41.3074 29.478 42.4454 31.1333L43.2694 30.5667ZM40.8925 25.1287C40.3699 23.0385 40.1074 20.8128 40.1074 18.45H39.1074C39.1074 20.8872 39.3782 23.1948 39.9224 25.3713L40.8925 25.1287ZM40.1074 18.45C40.1074 16.0872 40.3699 13.8615 40.8925 11.7713L39.9224 11.5287C39.3782 13.7052 39.1074 16.0128 39.1074 18.45H40.1074ZM40.8925 11.7713C41.4131 9.68872 42.2067 7.89687 43.2666 6.38731L42.4482 5.81268C41.3081 7.43646 40.4684 9.34461 39.9224 11.5287L40.8925 11.7713ZM43.2625 6.39306C44.3497 4.89021 45.723 3.7082 47.3878 2.84375L46.927 1.95625C45.1252 2.8918 43.6318 4.17645 42.4523 5.80694L43.2625 6.39306ZM47.3945 2.84023C49.0406 1.95384 51.0222 1.5 53.3574 1.5V0.499998C50.8926 0.499998 48.7409 0.979488 46.9204 1.95976L47.3945 2.84023ZM53.3574 1.5H68.3574V0.499998H53.3574V1.5ZM68.3574 1.5C70.277 1.5 71.9484 1.77662 73.3807 2.31773L73.7341 1.38226C72.1665 0.79004 70.3712 0.499998 68.3574 0.499998V1.5ZM73.3932 2.32225C74.8677 2.83514 76.1052 3.56768 77.1155 4.51477L77.7994 3.78523C76.6763 2.73232 75.3138 1.93153 73.7217 1.37775L73.3932 2.32225ZM77.1155 4.51477C78.1339 5.46956 78.9466 6.59997 79.5538 7.91023L80.4611 7.48977C79.8016 6.06669 78.9143 4.83043 77.7994 3.78523L77.1155 4.51477ZM79.558 7.91921C80.2015 9.23837 80.6545 10.6911 80.914 12.2806L81.9009 12.1194C81.6271 10.4422 81.1467 8.89496 80.4568 7.48079L79.558 7.91921ZM81.3417 11.7043L73.0417 12.8043L73.1731 13.7957L81.4731 12.6957L81.3417 11.7043ZM73.6055 13.2557C73.4637 11.6613 72.9086 10.344 71.911 9.34645L71.2039 10.0536C72.0063 10.856 72.4845 11.9387 72.6094 13.3443L73.6055 13.2557ZM71.9238 9.35977C70.9631 8.3252 69.764 7.8 68.3574 7.8V8.8C69.4842 8.8 70.4184 9.20813 71.191 10.0402L71.9238 9.35977ZM68.3574 7.8H53.3574V8.8H68.3574V7.8ZM126.045 0.999998H126.545V0.499998H126.045V0.999998ZM126.045 36V36.5H126.545V36H126.045ZM116.945 36H116.445V36.5H116.945V36ZM116.945 8.3H117.445V7.8H116.945V8.3ZM102.945 8.3V7.8H102.472L102.445 8.27207L102.945 8.3ZM101.695 20.75L102.188 20.8299L102.188 20.8292L101.695 20.75ZM99.1445 29.45L98.696 29.229L98.6935 29.2343L99.1445 29.45ZM94.7445 34.6L95.0074 35.0253L94.7445 34.6ZM84.8945 36.3H84.3945V36.8H84.8945V36.3ZM84.8945 28.7V28.2H84.3945V28.7H84.8945ZM90.5445 27.1L90.9093 27.442L90.5445 27.1ZM92.8945 22.15L92.4112 22.022L92.4099 22.027L92.8945 22.15ZM94.1445 13.5L93.646 13.462L93.6456 13.4667L94.1445 13.5ZM94.6945 0.999998V0.499998H94.2048L94.1946 0.989655L94.6945 0.999998ZM125.545 0.999998V36H126.545V0.999998H125.545ZM126.045 35.5H116.945V36.5H126.045V35.5ZM117.445 36V8.3H116.445V36H117.445ZM116.945 7.8H102.945V8.8H116.945V7.8ZM102.445 8.27207C102.179 13.0268 101.764 17.159 101.201 20.6708L102.188 20.8292C102.758 17.2743 103.176 13.1065 103.444 8.32793L102.445 8.27207ZM101.201 20.6701C100.639 24.1384 99.8008 26.9869 98.696 29.229L99.593 29.671C100.755 27.3131 101.616 24.3616 102.188 20.8299L101.201 20.6701ZM98.6935 29.2343C97.6271 31.4639 96.2195 33.1004 94.4816 34.1747L95.0074 35.0253C96.9362 33.833 98.4619 32.0361 99.5956 29.6657L98.6935 29.2343ZM94.4816 34.1747C92.7468 35.2471 90.5443 35.8 87.8445 35.8V36.8C90.6781 36.8 93.0756 36.2195 95.0074 35.0253L94.4816 34.1747ZM87.8445 35.8H84.8945V36.8H87.8445V35.8ZM85.3945 36.3V28.7H84.3945V36.3H85.3945ZM84.8945 29.2H86.6445V28.2H84.8945V29.2ZM86.6445 29.2C88.3682 29.2 89.8053 28.6196 90.9093 27.442L90.1798 26.758C89.2838 27.7138 88.1208 28.2 86.6445 28.2V29.2ZM90.9093 27.442C91.9912 26.2879 92.8025 24.5456 93.3792 22.273L92.4099 22.027C91.8532 24.2211 91.0979 25.7787 90.1798 26.758L90.9093 27.442ZM93.3779 22.2779C93.989 19.9691 94.4089 17.0512 94.6434 13.5333L93.6456 13.4667C93.4135 16.9488 93 19.7975 92.4112 22.0221L93.3779 22.2779ZM94.6431 13.538C94.9107 10.0261 95.0943 5.84974 95.1944 1.01034L94.1946 0.989655C94.0948 5.81693 93.9117 9.9739 93.646 13.462L94.6431 13.538ZM94.6945 1.5H126.045V0.499998H94.6945V1.5ZM131.543 0.999998V0.499998H130.572L131.136 1.2903L131.543 0.999998ZM141.993 0.999998L142.398 0.707517L142.249 0.499998H141.993V0.999998ZM156.093 20.55L155.687 20.8425L156.184 21.5309L156.545 20.7629L156.093 20.55ZM165.293 0.999998V0.499998H164.976L164.841 0.787099L165.293 0.999998ZM174.393 0.999998L174.846 1.21163L175.178 0.499998H174.393V0.999998ZM161.943 27.65L162.396 27.862L162.396 27.8616L161.943 27.65ZM159.693 31.6L159.287 31.3081L159.281 31.3167L159.693 31.6ZM157.243 34.2L157.531 34.609L157.541 34.6018L157.243 34.2ZM154.193 35.6L154.311 36.086L154.321 36.0834L154.193 35.6ZM139.393 34.65L139.118 35.0676L139.123 35.0706L139.393 34.65ZM135.893 30.3L135.719 29.8313L135.204 30.0227L135.443 30.5176L135.893 30.3ZM142.893 27.7L143.355 27.5096L143.171 27.0632L142.719 27.2313L142.893 27.7ZM143.843 29.1L143.505 29.4686L143.514 29.4766L143.523 29.4841L143.843 29.1ZM152.793 27.6L153.245 27.8145L153.245 27.8129L152.793 27.6ZM153.993 25.05L154.445 25.2629L154.781 24.55H153.993V25.05ZM148.693 25.05L148.286 25.3403L148.435 25.55H148.693V25.05ZM131.543 1.5H141.993V0.499998H131.543V1.5ZM141.587 1.29248L155.687 20.8425L156.499 20.2575L142.398 0.707517L141.587 1.29248ZM156.545 20.7629L165.745 1.2129L164.841 0.787099L155.641 20.3371L156.545 20.7629ZM165.293 1.5H174.393V0.499998H165.293V1.5ZM173.94 0.788369L161.49 27.4384L162.396 27.8616L174.846 1.21163L173.94 0.788369ZM161.49 27.438C160.766 28.9849 160.031 30.2731 159.287 31.3082L160.099 31.8918C160.888 30.7936 161.653 29.4484 162.396 27.862L161.49 27.438ZM159.281 31.3167C158.574 32.3448 157.795 33.1691 156.945 33.7982L157.541 34.6018C158.491 33.8975 159.345 32.9885 160.105 31.8833L159.281 31.3167ZM156.955 33.7911C156.107 34.3882 155.145 34.8308 154.065 35.1166L154.321 36.0834C155.508 35.7692 156.579 35.2785 157.531 34.6089L156.955 33.7911ZM154.075 35.1141C153.023 35.3691 151.781 35.5 150.343 35.5V36.5C151.838 36.5 153.163 36.3642 154.311 36.0859L154.075 35.1141ZM150.343 35.5H144.943V36.5H150.343V35.5ZM144.943 35.5C142.704 35.5 140.957 35.0613 139.663 34.2294L139.123 35.0706C140.629 36.0387 142.582 36.5 144.943 36.5V35.5ZM139.668 34.2324C138.399 33.3967 137.284 32.0291 136.343 30.0824L135.443 30.5176C136.435 32.5709 137.654 34.1033 139.118 35.0676L139.668 34.2324ZM136.067 30.7687L143.067 28.1687L142.719 27.2313L135.719 29.8313L136.067 30.7687ZM142.431 27.8904C142.688 28.516 143.044 29.0463 143.505 29.4686L144.181 28.7314C143.841 28.4204 143.564 28.0173 143.355 27.5096L142.431 27.8904ZM143.523 29.4841C144.053 29.9258 144.809 30.1 145.693 30.1V29.1C144.911 29.1 144.433 28.9409 144.163 28.7159L143.523 29.4841ZM145.693 30.1H149.443V29.1H145.693V30.1ZM149.443 30.1C150.313 30.1 151.085 29.9185 151.737 29.5293C152.391 29.1386 152.891 28.5581 153.245 27.8145L152.341 27.3855C152.061 27.9753 151.686 28.3947 151.224 28.6707C150.759 28.9482 150.173 29.1 149.443 29.1V30.1ZM153.245 27.8129L154.445 25.2629L153.541 24.8371L152.341 27.3871L153.245 27.8129ZM153.993 24.55H148.693V25.55H153.993V24.55ZM149.1 24.7597L131.95 0.709699L131.136 1.2903L148.286 25.3403L149.1 24.7597ZM178.914 0.999998V0.499998H178.414V0.999998H178.914ZM211.964 0.999998H212.464V0.499998H211.964V0.999998ZM211.964 8.3V8.8H212.464V8.3H211.964ZM188.014 8.3V7.8H187.514V8.3H188.014ZM188.014 36V36.5H188.514V36H188.014ZM178.914 36H178.414V36.5H178.914V36ZM178.914 1.5H211.964V0.499998H178.914V1.5ZM211.464 0.999998V8.3H212.464V0.999998H211.464ZM211.964 7.8H188.014V8.8H211.964V7.8ZM187.514 8.3V36H188.514V8.3H187.514ZM188.014 35.5H178.914V36.5H188.014V35.5ZM179.414 36V0.999998H178.414V36H179.414ZM249.875 8.15H250.375V6.56415L249.465 7.86322L249.875 8.15ZM230.375 36V36.5H230.635L230.784 36.2868L230.375 36ZM217.475 36H216.975V36.5H217.475V36ZM217.475 0.999998V0.499998H216.975V0.999998H217.475ZM226.575 0.999998H227.075V0.499998H226.575V0.999998ZM226.575 28.85H226.075V30.4358L226.984 29.1368L226.575 28.85ZM246.075 0.999998V0.499998H245.814L245.665 0.713217L246.075 0.999998ZM258.975 0.999998H259.475V0.499998H258.975V0.999998ZM258.975 36V36.5H259.475V36H258.975ZM249.875 36H249.375V36.5H249.875V36ZM249.465 7.86322L229.965 35.7132L230.784 36.2868L250.284 8.43678L249.465 7.86322ZM230.375 35.5H217.475V36.5H230.375V35.5ZM217.975 36V0.999998H216.975V36H217.975ZM217.475 1.5H226.575V0.499998H217.475V1.5ZM226.075 0.999998V28.85H227.075V0.999998H226.075ZM226.984 29.1368L246.484 1.28678L245.665 0.713217L226.165 28.5632L226.984 29.1368ZM246.075 1.5H258.975V0.499998H246.075V1.5ZM258.475 0.999998V36H259.475V0.999998H258.475ZM258.975 35.5H249.875V36.5H258.975V35.5ZM250.375 36V8.15H249.375V36H250.375Z" fill="#F2F2F2"/>
</svg>
