<svg width="264" height="36" viewBox="0 0 264 36" fill="none" xmlns="http://www.w3.org/2000/svg">
<path d="M0.5 -2.38419e-06H10.95L25.05 19.55L34.25 -2.38419e-06H43.35L30.9 26.65C30.1667 28.2167 29.4167 29.5333 28.65 30.6C27.9167 31.6667 27.1 32.5333 26.2 33.2C25.3 33.8333 24.2833 34.3 23.15 34.6C22.05 34.8667 20.7667 35 19.3 35H13.9C11.6 35 9.75 34.55 8.35 33.65C6.98333 32.75 5.81667 31.3 4.85 29.3L11.85 26.7C12.0833 27.2667 12.4 27.7333 12.8 28.1C13.2 28.4333 13.8167 28.6 14.65 28.6H18.4C20 28.6 21.1167 27.9333 21.75 26.6L22.95 24.05H17.65L0.5 -2.38419e-06ZM58.3574 7.3C57.5241 7.3 56.8074 7.56667 56.2074 8.1C55.6408 8.63333 55.1741 9.36667 54.8074 10.3C54.4741 11.2333 54.2241 12.3167 54.0574 13.55C53.9241 14.7833 53.8574 16.1 53.8574 17.5C53.8574 18.9333 53.9241 20.2667 54.0574 21.5C54.2241 22.7333 54.4741 23.8167 54.8074 24.75C55.1741 25.65 55.6408 26.3667 56.2074 26.9C56.8074 27.4333 57.5241 27.7 58.3574 27.7H73.3574C74.6241 27.7 75.6908 27.25 76.5574 26.35C77.4574 25.45 77.9741 24.25 78.1074 22.75L86.3574 23.95C86.0908 25.55 85.6241 27.0333 84.9574 28.4C84.3241 29.7667 83.4741 30.9333 82.4074 31.9C81.3408 32.8667 80.0574 33.6333 78.5574 34.2C77.0574 34.7333 75.3241 35 73.3574 35H58.3574C55.9574 35 53.8908 34.55 52.1574 33.65C50.4241 32.7167 48.9908 31.45 47.8574 29.85C46.7574 28.25 45.9408 26.3833 45.4074 24.25C44.8741 22.1167 44.6074 19.85 44.6074 17.45C44.6074 15.05 44.8741 12.7833 45.4074 10.65C45.9408 8.51667 46.7574 6.66667 47.8574 5.1C48.9908 3.53333 50.4241 2.3 52.1574 1.4C53.8908 0.466664 55.9574 -2.38419e-06 58.3574 -2.38419e-06H73.3574C75.3241 -2.38419e-06 77.0574 0.283331 78.5574 0.849999C80.0908 1.38333 81.3908 2.15 82.4574 3.15C83.5241 4.15 84.3741 5.33333 85.0074 6.7C85.6741 8.06666 86.1408 9.56667 86.4074 11.2L78.1074 12.3C77.9741 10.8 77.4574 9.6 76.5574 8.7C75.6908 7.76667 74.6241 7.3 73.3574 7.3H58.3574ZM131.045 -2.38419e-06V35H121.945V7.3H107.945C107.678 12.0667 107.261 16.2167 106.695 19.75C106.128 23.25 105.278 26.15 104.145 28.45C103.045 30.75 101.578 32.4667 99.7445 33.6C97.9112 34.7333 95.6112 35.3 92.8445 35.3H89.8945V27.7H91.6445C93.2445 27.7 94.5445 27.1667 95.5445 26.1C96.5445 25.0333 97.3279 23.3833 97.8945 21.15C98.4945 18.8833 98.9112 16 99.1445 12.5C99.4112 9 99.5945 4.83333 99.6945 -2.38419e-06H131.045ZM136.543 -2.38419e-06H146.993L161.093 19.55L170.293 -2.38419e-06H179.393L166.943 26.65C166.21 28.2167 165.46 29.5333 164.693 30.6C163.96 31.6667 163.143 32.5333 162.243 33.2C161.343 33.8333 160.326 34.3 159.193 34.6C158.093 34.8667 156.81 35 155.343 35H149.943C147.643 35 145.793 34.55 144.393 33.65C143.026 32.75 141.86 31.3 140.893 29.3L147.893 26.7C148.126 27.2667 148.443 27.7333 148.843 28.1C149.243 28.4333 149.86 28.6 150.693 28.6H154.443C156.043 28.6 157.16 27.9333 157.793 26.6L158.993 24.05H153.693L136.543 -2.38419e-06ZM183.914 -2.38419e-06H216.964V7.3H193.014V35H183.914V-2.38419e-06ZM254.875 7.15L235.375 35H222.475V-2.38419e-06H231.575V27.85L251.075 -2.38419e-06H263.975V35H254.875V7.15Z" fill="#F2F2F2"/>
</svg>
