<svg width="340" height="339" viewBox="0 0 340 339" fill="none" xmlns="http://www.w3.org/2000/svg">
<path d="M46.165 52.6456L51.2621 47.5485C53.2281 45.5825 54.9029 46.0922 56.2136 47.4757C57.5971 48.8592 58.1068 50.4611 56.1408 52.4999L51.699 56.9417L54.7573 59.9999L54.1019 60.6553L46.165 52.6456ZM47.3301 52.4999L51.1165 56.2863L55.5582 51.8446C57.0874 50.3155 56.5777 49.1504 55.5582 48.0582C54.466 46.966 53.301 46.5291 51.7718 48.0582L47.3301 52.4999Z" fill="#F2F2F2"/>
<path d="M65.461 49.6601C63.1309 51.6261 60.8736 50.2426 58.8348 47.9125C56.8688 45.5824 55.8493 43.1067 58.1794 41.1407L61.9658 37.9368C64.2959 35.9708 66.5532 37.2815 68.592 39.6844C70.5581 42.0145 71.5775 44.4902 69.2474 46.529L65.461 49.6601ZM68.7377 45.8737C70.6309 44.2717 69.6115 42.3057 67.8639 40.2669C66.1163 38.2281 64.3688 36.9174 62.4756 38.5193L58.6891 41.7232C56.7959 43.3251 57.8154 45.2912 59.5629 47.33C61.3105 49.3688 63.1309 50.6795 64.9513 49.1504L68.7377 45.8737Z" fill="#F2F2F2"/>
<path d="M67.1357 33.8591L67.8639 33.3494L73.9804 41.796L80.461 37.1358L80.8979 37.7911L73.6891 43.0338L67.1357 33.8591Z" fill="#F2F2F2"/>
<path d="M81.5532 32.1116L73.4707 29.2718L74.4173 28.6893L81.626 31.3107L82.2814 23.665L83.1552 23.0825L82.427 31.6747L84.8299 35.3883L84.0289 35.898L81.5532 32.1116Z" fill="#F2F2F2"/>
<path d="M91.893 24.9757L96.7716 22.3543L99.2474 26.9417L98.5192 27.3058L97.4998 25.4854C97.6454 26.796 97.1357 28.1067 95.6066 28.9077L92.1114 30.8009C89.4173 32.2572 87.4513 30.4368 85.995 27.7426C84.5386 25.0485 84.0289 22.4271 86.7959 20.9708L90.5823 18.932C92.7668 17.7669 94.2959 18.5679 95.6066 20.3155L94.8784 20.8252C93.7862 19.3689 92.5483 18.7863 90.9464 19.6601L87.16 21.699C84.9755 22.864 85.5581 25.0485 86.8688 27.3786C88.1066 29.7087 89.6357 31.3834 91.7474 30.2184L95.6066 28.1067C97.2814 27.2329 97.5726 25.7038 96.626 23.9562L96.3348 23.3737L92.2571 25.631L91.893 24.9757Z" fill="#F2F2F2"/>
<path d="M96.9175 15.6553L103.544 12.7427C106.092 11.5777 107.476 12.6699 108.204 14.4903C108.932 16.0922 108.859 17.6941 106.82 18.7864L111.408 21.5534L110.388 21.9903L105.947 19.2961L100.485 21.699L102.233 25.631L101.432 25.9951L96.9175 15.6553ZM98.0825 16.0194L100.267 20.9708L106.092 18.4223C108.058 17.5485 108.058 16.2378 107.476 14.8544C106.893 13.4709 105.947 12.5971 103.981 13.4709L98.0825 16.0194Z" fill="#F2F2F2"/>
<path d="M123.204 17.4028L122.184 17.7668L119.417 14.8542L113.301 16.9659L112.937 20.9707L112.063 21.262L113.374 8.95618L114.612 8.51929L123.204 17.4028ZM113.446 16.1649L118.908 14.2717L114.175 9.32026L113.446 16.1649Z" fill="#F2F2F2"/>
<path d="M121.82 6.1892L128.883 4.36881C131.869 3.56784 133.325 5.82512 134.126 8.81055C134.927 11.796 134.709 14.4173 131.723 15.2183L124.66 17.0387L121.82 6.1892ZM122.913 6.6989L125.315 16.0921L131.505 14.4902C133.908 13.9076 133.835 11.6504 133.18 9.029C132.524 6.40764 131.432 4.44163 129.102 5.09697L122.913 6.6989Z" fill="#F2F2F2"/>
<path d="M135.291 2.8398L144.539 1.16504L144.684 1.89319L136.31 3.42232L137.111 7.71843L143.738 6.55338L143.883 7.28154L137.257 8.44658L138.058 12.8883L146.432 11.432L146.577 12.1602L137.33 13.8349L135.291 2.8398Z" fill="#F2F2F2"/>
<path d="M184.806 0L192.014 0.873783C194.781 1.23786 195.364 2.8398 195.145 4.733C194.927 6.6262 193.98 8.08251 191.14 7.79125L184.878 7.06309L184.369 11.3592L183.495 11.2864L184.806 0ZM185.607 0.873783L184.951 6.18931L191.213 6.91746C193.325 7.20873 193.98 6.04368 194.199 4.51455C194.344 2.98543 193.98 1.82038 191.869 1.52912L185.607 0.873783Z" fill="#F2F2F2"/>
<path d="M199.077 13.3982C196.019 12.7428 195.728 10.1215 196.383 7.13604C197.039 4.07779 198.276 1.82052 201.335 2.47586L206.213 3.49527C209.272 4.15061 209.563 6.69915 208.907 9.7574C208.252 12.8156 206.941 15.0729 203.956 14.4904L199.077 13.3982ZM204.102 13.6166C206.505 14.1263 207.451 12.0875 207.961 9.46614C208.471 6.84478 208.398 4.66032 205.995 4.15061L201.116 3.13119C198.713 2.62148 197.767 4.66032 197.257 7.28167C196.747 9.90303 196.82 12.1603 199.223 12.5972L204.102 13.6166Z" fill="#F2F2F2"/>
<path d="M212.548 4.87866L213.422 5.16992L210.582 15.2185L218.301 17.4029L218.082 18.1311L209.49 15.6553L212.548 4.87866Z" fill="#F2F2F2"/>
<path d="M222.815 15.1456L220.048 6.99023L221.068 7.35431L223.47 14.6359L229.878 10.4126L230.825 10.7766L223.616 15.4368L222.16 19.5873L221.286 19.296L222.815 15.1456Z" fill="#F2F2F2"/>
<path d="M234.83 18.9321L239.927 21.1166L237.815 25.9224L237.087 25.5583L237.888 23.6651C236.941 24.6117 235.631 24.9758 234.102 24.3205L230.461 22.7185C227.621 21.4807 227.84 18.8593 229.077 16.0195C230.315 13.1797 232.063 11.2137 234.903 12.4515L238.907 14.1991C241.165 15.2185 241.456 16.8933 240.946 19.0049L240.072 18.7865C240.582 17.0389 240.291 15.7282 238.543 14.9273L234.539 13.1797C232.281 12.2331 230.971 13.9807 229.878 16.4564C228.786 18.9321 228.422 21.1166 230.679 22.0632L234.684 23.8107C236.432 24.5389 237.815 23.8836 238.543 22.0632L238.762 21.4807L234.466 19.5875L234.83 18.9321Z" fill="#F2F2F2"/>
<path d="M245.242 17.1116L251.65 20.5339C254.126 21.8446 254.126 23.5921 253.179 25.2669C252.378 26.796 250.995 27.7426 248.956 26.8688L249.611 32.1844L248.665 31.6747L248.082 26.5048L242.839 23.665L240.8 27.4514L240 27.0145L245.242 17.1116ZM245.679 18.2038L243.131 22.9368L248.737 25.9222C250.631 26.9417 251.65 26.1407 252.378 24.83C253.106 23.4465 253.179 22.2087 251.286 21.1892L245.679 18.2038Z" fill="#F2F2F2"/>
<path d="M260.097 38.8835L259.223 38.301L259.805 34.369L254.344 30.8738L250.995 32.9855L250.194 32.4758L260.679 25.9224L261.772 26.6505L260.097 38.8835ZM255.072 30.4369L259.878 33.568L260.825 26.7961L255.072 30.4369Z" fill="#F2F2F2"/>
<path d="M268.034 30.8738L273.859 35.3155C276.335 37.2087 275.461 39.6844 273.568 42.1602C271.674 44.6359 269.49 46.0922 267.014 44.2718L261.189 39.8301L268.034 30.8738ZM268.325 32.0388L262.427 39.7573L267.524 43.6165C269.49 45.0728 271.237 43.6893 272.839 41.5776C274.441 39.466 275.388 37.4272 273.422 35.898L268.325 32.0388Z" fill="#F2F2F2"/>
<path d="M278.956 39.3931L285.946 45.6552L285.436 46.2377L279.102 40.6309L276.189 43.9076L281.213 48.4222L280.703 49.0047L275.679 44.4901L272.767 47.7668L279.102 53.3736L278.592 53.9562L271.602 47.694L278.956 39.3931Z" fill="#F2F2F2"/>
<path d="M311.868 76.5291L315.655 82.7184C317.111 85.1213 316.237 86.5776 314.563 87.597C312.961 88.6164 311.213 88.762 309.757 86.3591L306.48 80.9708L302.839 83.2281L302.33 82.4271L311.868 76.5291ZM311.65 77.7669L307.063 80.5339L310.339 85.9222C311.432 87.7426 312.742 87.597 314.053 86.796C315.364 85.9951 316.092 84.9756 314.927 83.1553L311.65 77.7669Z" fill="#F2F2F2"/>
<path d="M310.121 95.9706C308.738 93.2036 310.631 91.3104 313.398 89.9269C316.165 88.5434 318.786 88.1794 320.17 90.9463L322.427 95.3881C323.81 98.1551 321.917 100.048 319.15 101.432C316.383 102.815 313.762 103.179 312.378 100.412L310.121 95.9706ZM313.107 100.121C314.199 102.306 316.383 101.796 318.786 100.631C321.189 99.4657 322.864 98.0094 321.772 95.825L319.514 91.3832C318.422 89.1988 316.238 89.7085 313.835 90.8735C311.432 92.0386 309.757 93.4949 310.849 95.6793L313.107 100.121Z" fill="#F2F2F2"/>
<path d="M325.194 101.359L325.558 102.233L315.873 106.165L318.859 113.592L318.13 113.883L314.781 105.655L325.194 101.359Z" fill="#F2F2F2"/>
<path d="M323.446 115.777L328.179 108.568L328.543 109.587L324.32 115.995L331.601 118.471L331.965 119.417L323.81 116.65L319.66 118.107L319.368 117.233L323.446 115.777Z" fill="#F2F2F2"/>
<path d="M327.888 127.573L329.271 132.961L324.174 134.272L323.956 133.471L325.995 132.961C324.684 132.815 323.592 132.014 323.155 130.339L322.135 126.48C321.334 123.495 323.592 122.039 326.577 121.31C329.563 120.582 332.184 120.655 332.985 123.713L334.077 127.864C334.732 130.267 333.495 131.577 331.601 132.378L331.237 131.577C332.912 130.849 333.786 129.83 333.349 128.009L332.257 123.859C331.601 121.456 329.417 121.529 326.796 122.184C324.247 122.839 322.281 123.932 322.864 126.262L323.956 130.485C324.466 132.306 325.849 132.961 327.742 132.451L328.325 132.306L327.16 127.791L327.888 127.573Z" fill="#F2F2F2"/>
<path d="M335.752 134.636L336.99 141.772C337.499 144.539 336.116 145.558 334.223 145.922C332.475 146.213 330.946 145.777 330.363 143.592L326.577 147.378L326.359 146.286L330.072 142.573L329.053 136.747L324.829 137.476L324.684 136.602L335.752 134.636ZM335.169 135.655L329.854 136.602L330.946 142.864C331.31 144.976 332.548 145.267 334.077 145.048C335.606 144.757 336.626 144.102 336.262 141.917L335.169 135.655Z" fill="#F2F2F2"/>
<path d="M327.742 159.757L327.669 158.738L331.164 156.699L330.582 150.291L326.795 148.98L326.723 148.034L338.373 152.257L338.519 153.568L327.742 159.757ZM331.31 150.582L331.82 156.335L337.718 152.912L331.31 150.582Z" fill="#F2F2F2"/>
<path d="M339.029 161.068L339.174 168.349C339.247 171.407 336.698 172.281 333.64 172.354C330.582 172.427 328.033 171.626 327.961 168.495L327.815 161.213L339.029 161.068ZM338.3 162.014L328.616 162.16L328.689 168.568C328.762 171.043 330.946 171.48 333.567 171.48C336.262 171.407 338.373 170.898 338.373 168.422L338.3 162.014Z" fill="#F2F2F2"/>
<path d="M339.101 174.903L338.519 184.296L337.718 184.223L338.228 175.776L333.859 175.485L333.422 182.257L332.621 182.184L333.058 175.412L328.543 175.121L328.033 183.568L327.232 183.495L327.815 174.102L339.101 174.903Z" fill="#F2F2F2"/>
<path d="M331.82 218.592L329.562 225.437C328.689 228.131 326.941 228.349 325.121 227.767C323.3 227.184 322.062 225.946 323.009 223.252L325.048 217.281L320.97 215.898L321.261 215.024L331.82 218.592ZM330.8 219.247L325.703 217.5L323.664 223.47C322.936 225.509 323.956 226.383 325.339 226.893C326.795 227.403 328.033 227.257 328.761 225.218L330.8 219.247Z" fill="#F2F2F2"/>
<path d="M315.873 229.805C317.111 226.966 319.733 227.257 322.572 228.495C325.412 229.733 327.378 231.48 326.14 234.32L324.174 238.907C322.936 241.747 320.315 241.529 317.475 240.291C314.636 239.053 312.669 237.305 313.907 234.466L315.873 229.805ZM314.563 234.684C313.616 236.941 315.364 238.252 317.839 239.344C320.242 240.436 322.5 240.8 323.446 238.543L325.412 233.956C326.359 231.699 324.611 230.388 322.208 229.296C319.733 228.203 317.548 227.839 316.602 230.097L314.563 234.684Z" fill="#F2F2F2"/>
<path d="M321.335 244.733L320.898 245.534L311.65 240.655L307.937 247.718L307.281 247.354L311.432 239.49L321.335 244.733Z" fill="#F2F2F2"/>
<path d="M309.247 252.67L317.767 251.65L317.184 252.597L309.538 253.471L312.305 260.607L311.796 261.48L308.665 253.471L304.878 251.213L305.388 250.412L309.247 252.67Z" fill="#F2F2F2"/>
<path d="M303.058 263.665L299.854 268.179L295.558 265.121L296.068 264.466L297.815 265.704C297.087 264.611 297.014 263.228 297.961 261.844L300.291 258.568C302.111 256.019 304.587 256.82 307.136 258.641C309.684 260.461 311.213 262.573 309.466 265.048L306.99 268.543C305.534 270.582 303.786 270.509 301.893 269.563L302.33 268.762C303.932 269.563 305.315 269.636 306.407 268.107L308.883 264.611C310.267 262.645 308.81 260.898 306.626 259.369C304.441 257.84 302.403 256.966 300.946 259.005L298.398 262.573C297.305 264.102 297.67 265.631 299.271 266.723L299.781 267.087L302.475 263.301L303.058 263.665Z" fill="#F2F2F2"/>
<path d="M302.694 274.15L298.034 279.684C296.213 281.868 294.539 281.432 293.082 280.194C291.699 279.029 291.116 277.572 292.427 275.679L287.111 275.242L287.767 274.441L293.009 274.878L296.869 270.364L293.592 267.597L294.174 266.868L302.694 274.15ZM301.529 274.368L297.378 270.873L293.301 275.679C291.917 277.354 292.5 278.519 293.665 279.465C294.83 280.485 296.068 280.776 297.451 279.174L301.529 274.368Z" fill="#F2F2F2"/>
<path d="M278.3 284.271L279.028 283.543L282.815 284.927L287.329 280.339L285.946 276.553L286.601 275.898L290.897 287.548L289.951 288.495L278.3 284.271ZM287.621 281.068L283.616 285.145L290.024 287.475L287.621 281.068Z" fill="#F2F2F2"/>
<path d="M284.563 293.737L279.029 298.543C276.699 300.582 274.441 299.199 272.402 296.868C270.364 294.538 269.344 292.063 271.674 290.097L277.208 285.291L284.563 293.737ZM283.325 293.737L276.99 286.456L272.184 290.606C270.364 292.208 271.383 294.174 273.131 296.213C274.878 298.252 276.699 299.49 278.519 297.888L283.325 293.737Z" fill="#F2F2F2"/>
<path d="M274.005 302.694L266.432 308.3L265.995 307.718L272.767 302.694L270.145 299.198L264.684 303.203L264.247 302.621L269.709 298.616L267.014 294.975L260.243 299.999L259.806 299.417L267.378 293.81L274.005 302.694Z" fill="#F2F2F2"/>
<path d="M230.825 327.233L223.98 329.635C221.359 330.582 220.121 329.417 219.466 327.597C218.81 325.776 219.029 324.029 221.723 323.155L227.694 321.043L226.237 316.966L227.111 316.674L230.825 327.233ZM229.733 326.796L227.912 321.699L221.941 323.81C219.902 324.538 219.83 325.849 220.339 327.233C220.849 328.689 221.723 329.563 223.762 328.835L229.733 326.796Z" fill="#F2F2F2"/>
<path d="M212.184 321.553C215.17 320.752 216.626 323.009 217.354 325.995C218.155 328.98 218.009 331.601 214.951 332.402L210.145 333.64C207.16 334.441 205.704 332.184 204.903 329.199C204.102 326.213 204.32 323.519 207.306 322.791L212.184 321.553ZM207.524 323.592C205.121 324.247 205.194 326.432 205.849 329.053C206.505 331.601 207.597 333.567 209.927 332.985L214.733 331.747C217.136 331.092 217.063 328.907 216.407 326.359C215.752 323.737 214.66 321.771 212.33 322.427L207.524 323.592Z" fill="#F2F2F2"/>
<path d="M203.81 335.097L202.864 335.242L201.043 324.975L193.179 326.359L193.034 325.631L201.844 324.029L203.81 335.097Z" fill="#F2F2F2"/>
<path d="M190.121 330.436L196.164 336.553L195.072 336.698L189.684 331.237L185.752 337.863L184.732 338.009L189.101 330.582L188.592 326.213L189.538 326.067L190.121 330.436Z" fill="#F2F2F2"/>
<path d="M177.67 332.402L172.136 332.694L171.844 327.451L172.645 327.378L172.718 329.49C173.155 328.252 174.175 327.305 175.849 327.232L179.854 327.014C182.912 326.868 183.859 329.344 184.005 332.402C184.15 335.461 183.495 338.009 180.364 338.228L176.068 338.446C173.592 338.592 172.573 337.135 172.136 335.096L173.01 334.951C173.374 336.698 174.175 337.791 176.068 337.718L180.364 337.499C182.84 337.354 183.204 335.169 183.131 332.548C182.985 329.927 182.33 327.742 179.927 327.888L175.558 328.106C173.665 328.179 172.718 329.417 172.864 331.383V332.038L177.524 331.82L177.67 332.402Z" fill="#F2F2F2"/>
<path d="M169.077 338.592L161.869 338.373C159.029 338.3 158.301 336.699 158.374 334.805C158.446 333.058 159.174 331.601 161.505 331.529L158.592 327.087H159.684L162.524 331.456L168.495 331.674L168.64 327.378H169.587L169.077 338.592ZM168.204 337.791L168.349 332.402L162.014 332.184C159.83 332.111 159.32 333.276 159.247 334.805C159.174 336.334 159.684 337.5 161.869 337.572L168.204 337.791Z" fill="#F2F2F2"/>
<path d="M146.141 325.703L147.16 325.849L148.398 329.635L154.806 330.364L156.844 326.941L157.791 327.014L151.311 337.572L150 337.427L146.141 325.703ZM154.442 331.092L148.689 330.436L150.874 336.917L154.442 331.092Z" fill="#F2F2F2"/>
<path d="M142.573 336.48L135.364 335.097C132.306 334.514 132.014 331.893 132.597 328.834C133.179 325.776 134.49 323.519 137.476 324.101L144.684 325.485L142.573 336.48ZM141.772 335.534L143.592 325.995L137.33 324.757C134.927 324.32 133.98 326.359 133.471 328.98C132.961 331.601 133.107 333.859 135.51 334.296L141.772 335.534Z" fill="#F2F2F2"/>
<path d="M128.956 333.713L119.854 331.237L120.073 330.509L128.228 332.767L129.393 328.543L122.84 326.796L123.058 326.067L129.612 327.815L130.777 323.446L122.621 321.189L122.84 320.461L131.942 322.936L128.956 333.713Z" fill="#F2F2F2"/>
<path d="M87.7426 317.548L81.4804 313.834C79.0775 312.378 79.1503 310.703 80.1698 309.029C81.1164 307.354 82.5727 306.407 85.0484 307.864L90.5096 311.067L92.694 307.354L93.495 307.791L87.7426 317.548ZM87.3057 316.456L90.0727 311.796L84.6115 308.592C82.7183 307.499 81.6989 308.228 80.8979 309.538C80.0969 310.849 79.9513 312.087 81.8445 313.179L87.3057 316.456Z" fill="#F2F2F2"/>
<path d="M80.0972 299.635C82.6457 301.456 81.8447 303.931 80.0244 306.48C78.204 309.029 76.0923 310.558 73.6166 308.81L69.5389 305.897C66.9904 304.077 67.7914 301.601 69.6118 299.053C71.4321 296.504 73.5438 294.975 76.0923 296.723L80.0972 299.635ZM75.5826 297.378C73.6166 295.995 71.869 297.451 70.3399 299.635C68.8108 301.82 68.0098 303.859 69.9758 305.315L74.0535 308.155C76.0195 309.538 77.7671 308.082 79.2962 305.97C80.8253 303.786 81.6991 301.674 79.6603 300.291L75.5826 297.378Z" fill="#F2F2F2"/>
<path d="M64.296 301.965L63.5679 301.383L70.2669 293.373L64.1504 288.276L64.6601 287.694L71.5047 293.373L64.296 301.965Z" fill="#F2F2F2"/>
<path d="M59.0537 288.422L58.2527 297.014L57.4517 296.286L58.1799 288.64L50.6071 289.878L49.8789 289.15L58.3983 287.767L61.3838 284.563L62.1119 285.218L59.0537 288.422Z" fill="#F2F2F2"/>
<path d="M49.5876 280.121L45.8012 276.043L49.6604 272.475L50.2429 273.058L48.7138 274.514C49.9516 274.004 51.3351 274.223 52.5002 275.461L55.1944 278.373C57.306 280.63 55.9953 282.961 53.7381 285.072C51.4808 287.184 49.0779 288.276 46.9662 286.019L44.0536 282.815C42.3788 280.994 42.8157 279.32 44.1264 277.645L44.7817 278.228C43.6167 279.611 43.3255 280.995 44.6361 282.305L47.5487 285.509C49.2235 287.329 51.1895 286.237 53.1555 284.417C55.1215 282.596 56.3594 280.703 54.6846 278.956L51.6992 275.752C50.3885 274.368 48.8594 274.441 47.4759 275.752L47.039 276.189L50.2429 279.611L49.5876 280.121Z" fill="#F2F2F2"/>
<path d="M39.3205 277.645L34.8787 271.966C33.1312 269.781 33.8593 268.179 35.3884 267.014C36.7719 265.922 38.3739 265.631 39.903 267.233L41.4321 262.135L42.0875 263.009L40.5583 268.034L44.1991 272.694L47.5486 270.072L48.1311 270.801L39.3205 277.645ZM39.3205 276.407L43.5438 273.058L39.6117 268.106C38.3011 266.432 37.0632 266.723 35.8253 267.669C34.5875 268.616 34.005 269.708 35.3884 271.456L39.3205 276.407Z" fill="#F2F2F2"/>
<path d="M34.4415 251.723L35.024 252.597L32.9124 256.019L36.4803 261.407L40.4124 260.825L40.9221 261.626L28.6891 263.446L27.9609 262.354L34.4415 251.723ZM35.6794 261.48L32.4755 256.747L28.9075 262.572L35.6794 261.48Z" fill="#F2F2F2"/>
<path d="M23.8833 255.873L20.3153 249.466C18.7862 246.771 20.6066 244.805 23.3008 243.276C25.9949 241.747 28.6163 241.31 30.1454 244.004L33.7134 250.412L23.8833 255.873ZM24.1017 254.708L32.5483 249.975L29.4173 244.368C28.2522 242.257 26.0677 242.839 23.7377 244.15C21.4076 245.461 19.7328 246.99 20.9707 249.101L24.1017 254.708Z" fill="#F2F2F2"/>
<path d="M17.2572 243.713L13.3252 235.194L14.0533 234.903L17.6213 242.621L21.6262 240.801L18.7864 234.684L19.5145 234.393L22.3543 240.509L26.432 238.616L22.864 230.898L23.5922 230.606L27.5242 239.126L17.2572 243.713Z" fill="#F2F2F2"/>
<path d="M2.18465 196.383L1.23806 189.174C0.87398 186.407 2.25747 185.388 4.15067 185.17C6.04388 184.951 7.71863 185.461 8.0827 188.301L8.88368 194.563L13.107 193.98L13.2526 194.854L2.18465 196.383ZM2.83999 195.436L8.15552 194.708L7.35455 188.446C7.06329 186.335 5.82543 185.97 4.2963 186.116C2.76718 186.335 1.74777 186.99 1.96621 189.102L2.83999 195.436Z" fill="#F2F2F2"/>
<path d="M11.5775 179.344C11.7232 182.403 9.24744 183.349 6.11638 183.495C3.05813 183.64 0.509585 182.985 0.363954 179.854L0.145517 174.903C-0.000114158 171.844 2.47561 170.898 5.53385 170.679C8.5921 170.534 11.2135 171.262 11.3591 174.32L11.5775 179.344ZM10.5581 174.393C10.4125 171.917 8.22802 171.553 5.53385 171.626C2.9125 171.772 0.72804 172.354 0.873671 174.83L1.09211 179.781C1.23774 182.257 3.4222 182.621 6.04356 182.548C8.73773 182.403 10.8494 181.82 10.7766 179.344L10.5581 174.393Z" fill="#F2F2F2"/>
<path d="M0 168.349V167.402L10.4126 167.694L10.6311 159.684H11.432L11.2136 168.568L0 168.349Z" fill="#F2F2F2"/>
<path d="M7.35423 155.898L0.145508 160.558L0.218317 159.466L6.6989 155.315L1.01929 150.145L1.0921 149.126L7.42705 154.951L11.796 155.315L11.7232 156.262L7.35423 155.898Z" fill="#F2F2F2"/>
<path d="M8.00973 143.301L8.88353 137.84L14.0534 138.641L13.9078 139.442L11.869 139.15C13.034 139.806 13.6893 141.044 13.4709 142.718L12.8156 146.65C12.3058 149.709 9.75731 150.145 6.69906 149.636C3.64081 149.126 1.31072 147.961 1.74761 144.903L2.40295 140.607C2.76702 138.131 4.36897 137.403 6.48061 137.476V138.349C4.66023 138.349 3.42236 138.932 3.1311 140.752L2.47577 145.048C2.11169 147.451 4.15052 148.325 6.77187 148.762C9.39323 149.199 11.6505 148.98 12.0146 146.578L12.6699 142.281C12.9612 140.461 11.9418 139.296 10.0486 138.932L9.46604 138.859L8.73789 143.446L8.00973 143.301Z" fill="#F2F2F2"/>
<path d="M3.64062 133.689L5.3882 126.626C6.04354 123.859 7.7183 123.495 9.6115 123.932C11.3591 124.369 12.5241 125.388 12.2328 127.645L17.1843 125.679L16.9658 126.699L12.0872 128.592L10.7037 134.344L14.8542 135.364L14.6358 136.238L3.64062 133.689ZM4.58723 132.961L9.82994 134.199L11.3591 128.082C11.8688 125.971 10.8494 125.17 9.39305 124.878C7.86393 124.514 6.69887 124.733 6.18916 126.844L4.58723 132.961Z" fill="#F2F2F2"/>
<path d="M21.0435 113.811L20.7522 114.83L16.7474 115.267L14.7085 121.383L17.6212 124.15L17.3299 125.097L8.30078 116.578L8.73767 115.34L21.0435 113.811ZM14.0532 120.801L15.8736 115.34L9.10174 116.141L14.0532 120.801Z" fill="#F2F2F2"/>
<path d="M11.2134 108.131L14.0532 101.432C15.2182 98.5921 17.9124 98.8106 20.7522 99.9756C23.592 101.141 25.6308 102.888 24.393 105.801L21.5532 112.5L11.2134 108.131ZM12.3056 107.548L21.1891 111.335L23.6648 105.437C24.6114 103.179 22.791 101.869 20.3881 100.849C17.9124 99.83 15.7279 99.4659 14.7813 101.723L12.3056 107.548Z" fill="#F2F2F2"/>
<path d="M16.7476 95.3882L21.0437 87.0144L21.699 87.3785L17.8398 94.8785L21.7718 96.9173L24.8301 90.8736L25.4854 91.2377L22.4272 97.2814L26.432 99.3202L30.2912 91.8202L30.9466 92.1843L26.6505 100.558L16.7476 95.3882Z" fill="#F2F2F2"/>
</svg>
