<svg width="225" height="33" viewBox="0 0 225 33" fill="none" xmlns="http://www.w3.org/2000/svg">
<path d="M2.42 1.6V0.599998H0.478689L1.60581 2.1806L2.42 1.6ZM11.198 1.6L12.0091 1.01504L11.7097 0.599998H11.198V1.6ZM23.042 18.022L22.2309 18.607L23.224 19.9838L23.9468 18.4478L23.042 18.022ZM30.77 1.6V0.599998H30.1354L29.8652 1.1742L30.77 1.6ZM38.414 1.6L39.32 2.02326L39.9849 0.599998H38.414V1.6ZM27.956 23.986L28.8617 24.4099L28.862 24.4093L27.956 23.986ZM26.066 27.304L25.254 26.7204L25.2479 26.7289L25.242 26.7375L26.066 27.304ZM24.008 29.488L24.5835 30.3058L24.5934 30.2988L24.6032 30.2916L24.008 29.488ZM21.446 30.664L21.6816 31.6358L21.6918 31.6334L21.7019 31.6307L21.446 30.664ZM9.014 29.866L8.46398 30.7012L8.47324 30.7072L9.014 29.866ZM6.074 26.212L5.72581 25.2746L4.69524 25.6574L5.17365 26.6472L6.074 26.212ZM11.954 24.028L12.8787 23.6472L12.511 22.7544L11.6058 23.0906L11.954 24.028ZM12.752 25.204L12.0763 25.9412L12.0937 25.9571L12.1118 25.9722L12.752 25.204ZM20.27 23.944L21.1733 24.3731L21.1748 24.3698L20.27 23.944ZM21.278 21.802L22.1828 22.2278L22.8538 20.802H21.278V21.802ZM16.826 21.802L16.0118 22.3826L16.3109 22.802H16.826V21.802ZM2.42 2.6H11.198V0.599998H2.42V2.6ZM10.3869 2.18496L22.2309 18.607L23.8531 17.437L12.0091 1.01504L10.3869 2.18496ZM23.9468 18.4478L31.6748 2.02579L29.8652 1.1742L22.1372 17.5962L23.9468 18.4478ZM30.77 2.6H38.414V0.599998H30.77V2.6ZM37.508 1.17674L27.05 23.5627L28.862 24.4093L39.32 2.02326L37.508 1.17674ZM27.0503 23.5621C26.4528 24.8385 25.8526 25.8875 25.254 26.7204L26.878 27.8876C27.5674 26.9285 28.2272 25.7655 28.8617 24.4099L27.0503 23.5621ZM25.242 26.7375C24.679 27.5563 24.0673 28.1996 23.4128 28.6844L24.6032 30.2916C25.4607 29.6564 26.221 28.8437 26.89 27.8705L25.242 26.7375ZM23.4325 28.6702C22.7796 29.1297 22.0351 29.4736 21.1901 29.6973L21.7019 31.6307C22.7609 31.3504 23.7244 30.9103 24.5835 30.3058L23.4325 28.6702ZM21.2104 29.6922C20.3823 29.8929 19.3866 30 18.212 30V32C19.5014 32 20.6617 31.8831 21.6816 31.6358L21.2104 29.6922ZM18.212 30H13.676V32H18.212V30ZM13.676 30C11.8651 30 10.5189 29.6446 9.55476 29.0248L8.47324 30.7072C9.86112 31.5994 11.6229 32 13.676 32V30ZM9.56399 29.0308C8.61134 28.4035 7.73486 27.3503 6.97435 25.7768L5.17365 26.6472C6.03714 28.4337 7.12066 29.8165 8.46401 30.7012L9.56399 29.0308ZM6.42219 27.1494L12.3022 24.9654L11.6058 23.0906L5.72581 25.2746L6.42219 27.1494ZM11.0293 24.4087C11.2739 25.0028 11.6189 25.5219 12.0763 25.9412L13.4277 24.4668C13.2131 24.2701 13.0261 24.0052 12.8787 23.6472L11.0293 24.4087ZM12.1118 25.9722C12.7078 26.4689 13.5038 26.624 14.306 26.624V24.624C13.7082 24.624 13.4682 24.4991 13.3922 24.4358L12.1118 25.9722ZM14.306 26.624H17.456V24.624H14.306V26.624ZM17.456 26.624C18.2671 26.624 19.0241 26.4543 19.6801 26.0626C20.3412 25.668 20.8342 25.0868 21.1733 24.3731L19.3667 23.5149C19.1738 23.9212 18.9318 24.18 18.6549 24.3454C18.3729 24.5137 17.9889 24.624 17.456 24.624V26.624ZM21.1748 24.3698L22.1828 22.2278L20.3732 21.3762L19.3652 23.5182L21.1748 24.3698ZM21.278 20.802H16.826V22.802H21.278V20.802ZM17.6402 21.2214L3.23419 1.0194L1.60581 2.1806L16.0118 22.3826L17.6402 21.2214ZM49.2142 8.404L48.5499 7.65659L48.5392 7.66604L48.5289 7.6758L49.2142 8.404ZM48.0382 10.252L47.1075 9.88635L47.1018 9.90092L47.0965 9.91566L48.0382 10.252ZM47.4082 12.982L46.4172 12.8481L46.4155 12.8613L46.414 12.8745L47.4082 12.982ZM47.4082 19.66L46.414 19.7675L46.4155 19.7807L46.4172 19.7939L47.4082 19.66ZM48.0382 22.39L47.0965 22.7263L47.1039 22.747L47.1121 22.7673L48.0382 22.39ZM49.2142 24.196L48.5289 24.9242L48.5392 24.934L48.5499 24.9434L49.2142 24.196ZM66.3082 23.734L65.6011 23.0269L65.5945 23.0336L65.5879 23.0404L66.3082 23.734ZM67.6102 20.71L67.7542 19.7204L66.7078 19.5682L66.6142 20.6215L67.6102 20.71ZM74.5402 21.718L75.5266 21.8824L75.6945 20.8754L74.6842 20.7284L74.5402 21.718ZM73.3642 25.456L72.4655 25.0176L72.4611 25.0265L72.4569 25.0355L73.3642 25.456ZM71.2222 28.396L70.5507 27.655V27.655L71.2222 28.396ZM67.9882 30.328L68.3232 31.2702L68.3325 31.2669L68.3416 31.2635L67.9882 30.328ZM45.8122 29.866L45.3381 30.7465L45.3447 30.75L45.3514 30.7535L45.8122 29.866ZM42.2002 26.674L41.3761 27.2406L41.3842 27.252L42.2002 26.674ZM40.1422 10.546L39.1721 10.3035L40.1422 10.546ZM42.2002 5.884L41.3899 5.29782L41.3818 5.30937L42.2002 5.884ZM45.8122 2.776L46.273 3.66349L46.2797 3.66003L46.2863 3.65647L45.8122 2.776ZM67.9882 2.314L67.6348 3.24947L67.6472 3.25415L67.6597 3.2585L67.9882 2.314ZM71.2642 4.246L70.5803 4.97554V4.97554L71.2642 4.246ZM73.4062 7.228L72.4989 7.64846L72.5031 7.65748L72.5075 7.66642L73.4062 7.228ZM74.5822 11.008L74.7136 11.9993L75.7352 11.8639L75.5692 10.8469L74.5822 11.008ZM67.6102 11.932L66.6142 12.0205L66.7066 13.0605L67.7416 12.9233L67.6102 11.932ZM66.3082 8.908L65.5754 9.58845L65.588 9.60202L65.6011 9.61511L66.3082 8.908ZM51.0202 6.732C50.0855 6.732 49.2444 7.03921 48.5499 7.65659L49.8786 9.15141C50.192 8.87279 50.5549 8.732 51.0202 8.732V6.732ZM48.5289 7.6758C47.9189 8.24986 47.4545 9.00309 47.1075 9.88635L48.969 10.6177C49.238 9.93291 49.5575 9.45414 49.8996 9.1322L48.5289 7.6758ZM47.0965 9.91566C46.788 10.7794 46.5643 11.7597 46.4172 12.8481L48.3992 13.1159C48.5322 12.1323 48.7284 11.2926 48.98 10.5883L47.0965 9.91566ZM46.414 12.8745C46.2977 13.9504 46.2402 15.0926 46.2402 16.3H48.2402C48.2402 15.1554 48.2948 14.0856 48.4024 13.0895L46.414 12.8745ZM46.2402 16.3C46.2402 17.5345 46.2976 18.6908 46.414 19.7675L48.4024 19.5525C48.2948 18.5572 48.2402 17.4735 48.2402 16.3H46.2402ZM46.4172 19.7939C46.5643 20.8823 46.788 21.8626 47.0965 22.7263L48.98 22.0537C48.7284 21.3494 48.5322 20.5097 48.3992 19.5261L46.4172 19.7939ZM47.1121 22.7673C47.4612 23.6241 47.9258 24.3566 48.5289 24.9242L49.8996 23.4678C49.5507 23.1394 49.2313 22.6679 48.9643 22.0127L47.1121 22.7673ZM48.5499 24.9434C49.2444 25.5608 50.0855 25.868 51.0202 25.868V23.868C50.5549 23.868 50.192 23.7272 49.8786 23.4486L48.5499 24.9434ZM51.0202 25.868H63.6202V23.868H51.0202V25.868ZM63.6202 25.868C64.9518 25.868 66.1091 25.3824 67.0286 24.4276L65.5879 23.0404C65.0513 23.5976 64.4167 23.868 63.6202 23.868V25.868ZM67.0153 24.4411C67.9665 23.4899 68.4775 22.2474 68.6063 20.7985L66.6142 20.6215C66.519 21.6926 66.162 22.4661 65.6011 23.0269L67.0153 24.4411ZM67.4663 21.6996L74.3963 22.7076L74.6842 20.7284L67.7542 19.7204L67.4663 21.6996ZM73.5538 21.5536C73.3446 22.8089 72.9805 23.9618 72.4655 25.0176L74.263 25.8944C74.868 24.6542 75.2878 23.3151 75.5266 21.8824L73.5538 21.5536ZM72.4569 25.0355C71.9786 26.0677 71.3428 26.9371 70.5507 27.655L71.8938 29.137C72.8936 28.2309 73.6859 27.1403 74.2715 25.8765L72.4569 25.0355ZM70.5507 27.655C69.7576 28.3737 68.7909 28.9558 67.6348 29.3925L68.3416 31.2635C69.7056 30.7482 70.8948 30.0423 71.8938 29.137L70.5507 27.655ZM67.6532 29.3858C66.5227 29.7877 65.1839 30 63.6202 30V32C65.3605 32 66.9338 31.7643 68.3232 31.2702L67.6532 29.3858ZM63.6202 30H51.0202V32H63.6202V30ZM51.0202 30C49.1285 30 47.5577 29.6456 46.273 28.9785L45.3514 30.7535C46.9787 31.5984 48.88 32 51.0202 32V30ZM46.2863 28.9855C44.9655 28.2743 43.8788 27.3136 43.0163 26.096L41.3842 27.252C42.4257 28.7224 43.7469 29.8897 45.3381 30.7465L46.2863 28.9855ZM43.0243 26.1075C42.1763 24.874 41.5352 23.4188 41.1124 21.7275L39.1721 22.2125C39.6453 24.1052 40.3762 25.786 41.3762 27.2405L43.0243 26.1075ZM41.1124 21.7275C40.6859 20.0216 40.4702 18.1996 40.4702 16.258H38.4702C38.4702 18.3484 38.7025 20.3344 39.1721 22.2125L41.1124 21.7275ZM40.4702 16.258C40.4702 14.3164 40.6859 12.4944 41.1124 10.7885L39.1721 10.3035C38.7025 12.1816 38.4702 14.1676 38.4702 16.258H40.4702ZM41.1124 10.7885C41.535 9.09811 42.1748 7.66041 43.0186 6.45863L41.3818 5.30937C40.3776 6.73959 39.6455 8.40989 39.1721 10.3035L41.1124 10.7885ZM43.0105 6.47012C43.8701 5.28175 44.954 4.3484 46.273 3.66349L45.3514 1.8885C43.7585 2.7156 42.4343 3.85424 41.39 5.29788L43.0105 6.47012ZM46.2863 3.65647C47.568 2.96635 49.1338 2.6 51.0202 2.6V0.599998C48.8747 0.599998 46.9685 1.01765 45.3381 1.89553L46.2863 3.65647ZM51.0202 2.6H63.6202V0.599998H51.0202V2.6ZM63.6202 2.6C65.178 2.6 66.5101 2.82458 67.6348 3.24947L68.3416 1.37853C66.9463 0.851417 65.3665 0.599998 63.6202 0.599998V2.6ZM67.6597 3.2585C68.8302 3.66561 69.7972 4.24135 70.5803 4.97554L71.9482 3.51646C70.9393 2.57064 69.7223 1.85839 68.3168 1.3695L67.6597 3.2585ZM70.5803 4.97554C71.3799 5.72513 72.0192 6.61327 72.4989 7.64846L74.3135 6.80754C73.7293 5.54673 72.9406 4.44687 71.9482 3.51646L70.5803 4.97554ZM72.5075 7.66642C73.0211 8.71941 73.3856 9.88492 73.5953 11.1691L75.5692 10.8469C75.3308 9.38708 74.9114 8.03259 74.305 6.78958L72.5075 7.66642ZM74.4509 10.0167L67.4789 10.9407L67.7416 12.9233L74.7136 11.9993L74.4509 10.0167ZM68.6063 11.8435C68.4775 10.3946 67.9665 9.15207 67.0153 8.20089L65.6011 9.61511C66.162 10.1759 66.519 10.9494 66.6142 12.0205L68.6063 11.8435ZM67.041 8.22755C66.125 7.24106 64.964 6.732 63.6202 6.732V8.732C64.4044 8.732 65.0355 9.00694 65.5754 9.58845L67.041 8.22755ZM63.6202 6.732H51.0202V8.732H63.6202V6.732ZM112.077 1.6H113.077V0.599998H112.077V1.6ZM112.077 31V32H113.077V31H112.077ZM104.433 31H103.433V32H104.433V31ZM104.433 7.732H105.433V6.732H104.433V7.732ZM92.6734 7.732V6.732H91.7278L91.675 7.67614L92.6734 7.732ZM91.6234 18.19L92.6105 18.3498L92.6108 18.3484L91.6234 18.19ZM89.4814 25.498L88.5843 25.056L88.5793 25.0665L89.4814 25.498ZM85.7854 29.824L86.3112 30.6746L85.7854 29.824ZM77.5114 31.252H76.5114V32.252H77.5114V31.252ZM77.5114 24.868V23.868H76.5114V24.868H77.5114ZM82.2574 23.524L82.9869 24.2079L82.2574 23.524ZM84.2314 19.366L83.2646 19.1101L83.2621 19.1201L84.2314 19.366ZM85.2814 12.1L84.2842 12.024L84.2836 12.0335L85.2814 12.1ZM85.7434 1.6V0.599998H84.7639L84.7436 1.57931L85.7434 1.6ZM111.077 1.6V31H113.077V1.6H111.077ZM112.077 30H104.433V32H112.077V30ZM105.433 31V7.732H103.433V31H105.433ZM104.433 6.732H92.6734V8.732H104.433V6.732ZM91.675 7.67614C91.4523 11.6564 91.1051 15.1066 90.636 18.0316L92.6108 18.3484C93.0937 15.3374 93.4465 11.8156 93.6718 7.78786L91.675 7.67614ZM90.6363 18.0302C90.1705 20.9067 89.4793 23.2398 88.5844 25.056L90.3784 25.94C91.3875 23.8922 92.1243 21.3533 92.6105 18.3498L90.6363 18.0302ZM88.5793 25.0665C87.7226 26.8578 86.6087 28.1394 85.2596 28.9734L86.3112 30.6746C88.0421 29.6046 89.3922 28.0022 90.3835 25.9295L88.5793 25.0665ZM85.2596 28.9734C83.9166 29.8036 82.1796 30.252 79.9894 30.252V32.252C82.4472 32.252 84.5742 31.7484 86.3112 30.6746L85.2596 28.9734ZM79.9894 30.252H77.5114V32.252H79.9894V30.252ZM78.5114 31.252V24.868H76.5114V31.252H78.5114ZM77.5114 25.868H78.9814V23.868H77.5114V25.868ZM78.9814 25.868C80.5728 25.868 81.9389 25.3258 82.9869 24.2079L81.5279 22.8401C80.8959 23.5142 80.078 23.868 78.9814 23.868V25.868ZM82.9869 24.2079C83.9907 23.1372 84.7048 21.5665 85.2007 19.6119L83.2621 19.1201C82.806 20.9175 82.2041 22.1188 81.5279 22.8401L82.9869 24.2079ZM85.1981 19.6219C85.7244 17.6336 86.0808 15.1424 86.2792 12.1665L84.2836 12.0335C84.09 14.9376 83.7464 17.2904 83.2647 19.1101L85.1981 19.6219ZM86.2785 12.176C86.5043 9.21219 86.6589 5.69281 86.7432 1.62068L84.7436 1.57931C84.6599 5.62719 84.5065 9.10781 84.2843 12.024L86.2785 12.176ZM85.7434 2.6H112.077V0.599998H85.7434V2.6ZM116.696 1.6V0.599998H114.755L115.882 2.1806L116.696 1.6ZM125.474 1.6L126.285 1.01504L125.986 0.599998H125.474V1.6ZM137.318 18.022L136.507 18.607L137.5 19.9838L138.223 18.4478L137.318 18.022ZM145.046 1.6V0.599998H144.411L144.141 1.1742L145.046 1.6ZM152.69 1.6L153.596 2.02326L154.261 0.599998H152.69V1.6ZM142.232 23.986L143.138 24.4099L143.138 24.4093L142.232 23.986ZM140.342 27.304L139.53 26.7204L139.524 26.7289L139.518 26.7375L140.342 27.304ZM138.284 29.488L138.86 30.3058L138.87 30.2988L138.879 30.2916L138.284 29.488ZM135.722 30.664L135.958 31.6358L135.968 31.6334L135.978 31.6307L135.722 30.664ZM123.29 29.866L122.74 30.7012L122.749 30.7072L123.29 29.866ZM120.35 26.212L120.002 25.2746L118.971 25.6574L119.45 26.6472L120.35 26.212ZM126.23 24.028L127.155 23.6472L126.787 22.7544L125.882 23.0906L126.23 24.028ZM127.028 25.204L126.352 25.9412L126.37 25.9571L126.388 25.9722L127.028 25.204ZM134.546 23.944L135.449 24.3731L135.451 24.3698L134.546 23.944ZM135.554 21.802L136.459 22.2278L137.13 20.802H135.554V21.802ZM131.102 21.802L130.288 22.3826L130.587 22.802H131.102V21.802ZM116.696 2.6H125.474V0.599998H116.696V2.6ZM124.663 2.18496L136.507 18.607L138.129 17.437L126.285 1.01504L124.663 2.18496ZM138.223 18.4478L145.951 2.02579L144.141 1.1742L136.413 17.5962L138.223 18.4478ZM145.046 2.6H152.69V0.599998H145.046V2.6ZM151.784 1.17674L141.326 23.5627L143.138 24.4093L153.596 2.02326L151.784 1.17674ZM141.326 23.5621C140.729 24.8385 140.129 25.8875 139.53 26.7204L141.154 27.8876C141.843 26.9285 142.503 25.7655 143.138 24.4099L141.326 23.5621ZM139.518 26.7375C138.955 27.5563 138.343 28.1996 137.689 28.6844L138.879 30.2916C139.737 29.6564 140.497 28.8437 141.166 27.8705L139.518 26.7375ZM137.709 28.6702C137.056 29.1297 136.311 29.4736 135.466 29.6973L135.978 31.6307C137.037 31.3504 138.001 30.9103 138.86 30.3058L137.709 28.6702ZM135.486 29.6922C134.658 29.8929 133.663 30 132.488 30V32C133.777 32 134.938 31.8831 135.958 31.6358L135.486 29.6922ZM132.488 30H127.952V32H132.488V30ZM127.952 30C126.141 30 124.795 29.6446 123.831 29.0248L122.749 30.7072C124.137 31.5994 125.899 32 127.952 32V30ZM123.84 29.0308C122.887 28.4035 122.011 27.3503 121.25 25.7768L119.45 26.6472C120.313 28.4337 121.397 29.8165 122.74 30.7012L123.84 29.0308ZM120.698 27.1494L126.578 24.9654L125.882 23.0906L120.002 25.2746L120.698 27.1494ZM125.305 24.4087C125.55 25.0028 125.895 25.5219 126.352 25.9412L127.704 24.4668C127.489 24.2701 127.302 24.0052 127.155 23.6472L125.305 24.4087ZM126.388 25.9722C126.984 26.4689 127.78 26.624 128.582 26.624V24.624C127.984 24.624 127.744 24.4991 127.668 24.4358L126.388 25.9722ZM128.582 26.624H131.732V24.624H128.582V26.624ZM131.732 26.624C132.543 26.624 133.3 26.4543 133.956 26.0626C134.617 25.668 135.11 25.0868 135.449 24.3731L133.643 23.5149C133.45 23.9212 133.208 24.18 132.931 24.3454C132.649 24.5137 132.265 24.624 131.732 24.624V26.624ZM135.451 24.3698L136.459 22.2278L134.649 21.3762L133.641 23.5182L135.451 24.3698ZM135.554 20.802H131.102V22.802H135.554V20.802ZM131.916 21.2214L117.51 1.0194L115.882 2.1806L130.288 22.3826L131.916 21.2214ZM156.488 1.6V0.599998H155.488V1.6H156.488ZM184.25 1.6H185.25V0.599998H184.25V1.6ZM184.25 7.732V8.732H185.25V7.732H184.25ZM164.132 7.732V6.732H163.132V7.732H164.132ZM164.132 31V32H165.132V31H164.132ZM156.488 31H155.488V32H156.488V31ZM156.488 2.6H184.25V0.599998H156.488V2.6ZM183.25 1.6V7.732H185.25V1.6H183.25ZM184.25 6.732H164.132V8.732H184.25V6.732ZM163.132 7.732V31H165.132V7.732H163.132ZM164.132 30H156.488V32H164.132V30ZM157.488 31V1.6H155.488V31H157.488ZM216.095 7.606H217.095V4.4343L215.276 7.03244L216.095 7.606ZM199.715 31V32H200.235L200.534 31.5736L199.715 31ZM188.879 31H187.879V32H188.879V31ZM188.879 1.6V0.599998H187.879V1.6H188.879ZM196.523 1.6H197.523V0.599998H196.523V1.6ZM196.523 24.994H195.523V28.1657L197.342 25.5676L196.523 24.994ZM212.903 1.6V0.599998H212.382L212.084 1.02644L212.903 1.6ZM223.739 1.6H224.739V0.599998H223.739V1.6ZM223.739 31V32H224.739V31H223.739ZM216.095 31H215.095V32H216.095V31ZM215.276 7.03244L198.896 30.4264L200.534 31.5736L216.914 8.17956L215.276 7.03244ZM199.715 30H188.879V32H199.715V30ZM189.879 31V1.6H187.879V31H189.879ZM188.879 2.6H196.523V0.599998H188.879V2.6ZM195.523 1.6V24.994H197.523V1.6H195.523ZM197.342 25.5676L213.722 2.17356L212.084 1.02644L195.704 24.4204L197.342 25.5676ZM212.903 2.6H223.739V0.599998H212.903V2.6ZM222.739 1.6V31H224.739V1.6H222.739ZM223.739 30H216.095V32H223.739V30ZM217.095 31V7.606H215.095V31H217.095Z" fill="#4F4F4F"/>
</svg>
