<svg width="222" height="31" viewBox="0 0 222 31" fill="none" xmlns="http://www.w3.org/2000/svg">
<path d="M0.42 0.599998H9.198L21.042 17.022L28.77 0.599998H36.414L25.956 22.986C25.34 24.302 24.71 25.408 24.066 26.304C23.45 27.2 22.764 27.928 22.008 28.488C21.252 29.02 20.398 29.412 19.446 29.664C18.522 29.888 17.444 30 16.212 30H11.676C9.744 30 8.19 29.622 7.014 28.866C5.866 28.11 4.886 26.892 4.074 25.212L9.954 23.028C10.15 23.504 10.416 23.896 10.752 24.204C11.088 24.484 11.606 24.624 12.306 24.624H15.456C16.8 24.624 17.738 24.064 18.27 22.944L19.278 20.802H14.826L0.42 0.599998ZM49.0202 6.732C48.3202 6.732 47.7182 6.956 47.2142 7.404C46.7382 7.852 46.3462 8.468 46.0382 9.252C45.7582 10.036 45.5482 10.946 45.4082 11.982C45.2962 13.018 45.2402 14.124 45.2402 15.3C45.2402 16.504 45.2962 17.624 45.4082 18.66C45.5482 19.696 45.7582 20.606 46.0382 21.39C46.3462 22.146 46.7382 22.748 47.2142 23.196C47.7182 23.644 48.3202 23.868 49.0202 23.868H61.6202C62.6842 23.868 63.5802 23.49 64.3082 22.734C65.0642 21.978 65.4982 20.97 65.6102 19.71L72.5402 20.718C72.3162 22.062 71.9242 23.308 71.3642 24.456C70.8322 25.604 70.1182 26.584 69.2222 27.396C68.3262 28.208 67.2482 28.852 65.9882 29.328C64.7282 29.776 63.2722 30 61.6202 30H49.0202C47.0042 30 45.2682 29.622 43.8122 28.866C42.3562 28.082 41.1522 27.018 40.2002 25.674C39.2762 24.33 38.5902 22.762 38.1422 20.97C37.6942 19.178 37.4702 17.274 37.4702 15.258C37.4702 13.242 37.6942 11.338 38.1422 9.546C38.5902 7.754 39.2762 6.2 40.2002 4.884C41.1522 3.568 42.3562 2.532 43.8122 1.776C45.2682 0.991998 47.0042 0.599998 49.0202 0.599998H61.6202C63.2722 0.599998 64.7282 0.837998 65.9882 1.314C67.2762 1.762 68.3682 2.406 69.2642 3.246C70.1602 4.086 70.8742 5.08 71.4062 6.228C71.9662 7.376 72.3582 8.636 72.5822 10.008L65.6102 10.932C65.4982 9.672 65.0642 8.664 64.3082 7.908C63.5802 7.124 62.6842 6.732 61.6202 6.732H49.0202ZM110.077 0.599998V30H102.433V6.732H90.6734C90.4494 10.736 90.0994 14.222 89.6234 17.19C89.1474 20.13 88.4334 22.566 87.4814 24.498C86.5574 26.43 85.3254 27.872 83.7854 28.824C82.2454 29.776 80.3134 30.252 77.9894 30.252H75.5114V23.868H76.9814C78.3254 23.868 79.4174 23.42 80.2574 22.524C81.0974 21.628 81.7554 20.242 82.2314 18.366C82.7354 16.462 83.0854 14.04 83.2814 11.1C83.5054 8.16 83.6594 4.66 83.7434 0.599998H110.077ZM114.696 0.599998H123.474L135.318 17.022L143.046 0.599998H150.69L140.232 22.986C139.616 24.302 138.986 25.408 138.342 26.304C137.726 27.2 137.04 27.928 136.284 28.488C135.528 29.02 134.674 29.412 133.722 29.664C132.798 29.888 131.72 30 130.488 30H125.952C124.02 30 122.466 29.622 121.29 28.866C120.142 28.11 119.162 26.892 118.35 25.212L124.23 23.028C124.426 23.504 124.692 23.896 125.028 24.204C125.364 24.484 125.882 24.624 126.582 24.624H129.732C131.076 24.624 132.014 24.064 132.546 22.944L133.554 20.802H129.102L114.696 0.599998ZM154.488 0.599998H182.25V6.732H162.132V30H154.488V0.599998ZM214.095 6.606L197.715 30H186.879V0.599998H194.523V23.994L210.903 0.599998H221.739V30H214.095V6.606Z" fill="#4F4F4F"/>
</svg>
